<svg xmlns="http://www.w3.org/2000/svg" width="181" height="150" viewBox="0 0 181 150"><path fill="currentColor" fill-rule="evenodd" d="M125.3 140.4q1 3 1 4 .4 1.5.4 3.6l-.2.2q-6.3-15-9.8-22.3-6-13-11-22.4 8.7 12.6 12 18.4 5 9 7.6 18.5m-14-40.6 1.4 1.2q5.6 4.8 9.2 9.3a42 42 0 0 1 9.1 26q0 3.7-1.2 7.1l-1.2 1.9q1.2-2.8 1.1-7 0-4-1.1-8.3-3-11.2-8.1-17.8L114 104q-3.7-4.2-7.6-7l.6-.3q1.5.8 4.2 3m-2.8-3.1 5.2 3.2a38 38 0 0 1 14.3 16.2q3 5.4 3.7 8a35 35 0 0 1 .9 11.8 25 25 0 0 1-1.4 4.8q.3-2 .4-4.3.2-5.2-1.5-11.1a42 42 0 0 0-7.8-15.5 51 51 0 0 0-6.7-7h.1zm3.7-5.6a26 26 0 0 1 4.7-3.2zM97 99.8q-.4 3.6 0 12.3.6 9.5 1.7 13.7a51 51 0 0 0 4.9 10.3l2.5 5a13 13 0 0 0 2.6 3.6l-3.3-2.5q-3.7-3-5.5-5.7-1.3-2.2-2.4-6.1-1.5-6-1.8-13 0-7.3-.2-7.5l.5-4.2.3-3.1.2-2.6zm3-.8q-.4.8 0 3.6.3 2.2 1 4.6 1 3.9 4 11.7t4.2 10.2l6.6 12.3q3.5 6 6.5 7.2l-2.4-.3a14 14 0 0 1-7.5-6q-2.7-5.1-4.4-7.4-1.2-1.5-3.7-6.9a60 60 0 0 1-3.2-8.2q-2.4-15-2.6-20.4zm-1.7.5q-.5 1.6-.1 4.6l.8 5.3.7 5.8q.2 2.4.8 4.8 1.8 6.3 8.1 17.1A36 36 0 0 0 117 148l-4-1-1.4-1.2a7 7 0 0 0-2-1.3l-.6-.8q-1.4-1.5-2.1-3l-2.8-5a86 86 0 0 1-4.8-10q-1.2-4.6-1.6-13.8a116 116 0 0 0-.3-10.4q.2-1.2 0-1.7zm7.5-2.1a108 108 0 0 1 14.3 15.3q2.4 3.4 4.7 8.4 2.1 4.6 3.2 9a32 32 0 0 1 1.2 8.2q0 5-1.5 8.2.4-4 .4-5.6 0-3.4-.9-6.9-2.2-8-9.7-19.9-7-11.1-12.9-16.2zm-3.5 1.2 5.3 10.4a262 262 0 0 1 7.4 15.2q2.2 5.2 6 13a159 159 0 0 1 5 11.8l-.4-.1a7 7 0 0 1-2.3-2.3l-.8-1.5-.7-1.6a60 60 0 0 1-2.7-6.4l-3.2-6.1-3.7-6.2q-1.6-3-5.2-11.8a126 126 0 0 1-5-14.3zm-1.8.3h.5l.2-.1h.2l.7 3.3q.5 1.8 3.6 9.6a90 90 0 0 0 3.8 9.4 45 45 0 0 0 4.2 8l4 6.5 3.3 8.8q1.3 3 2.5 4.3l-1.4-.5q-2-1.1-3.6-3.9l-1.6-2.5-1.6-2.6-5.6-10.4-4.1-10q-3-8-4.1-11.8a41 41 0 0 1-1.2-8zm3.5-.8q5.5 4 13 16 7.8 12.2 9.8 20 .9 3 .7 6.7l-.1 6.3-.3-2-1.2-4.8a80 80 0 0 0-9-20.9q-8.2-12-13.6-21zm38.8 17.4a42 42 0 0 1-14 0q-1.7-3.2-3-5.1a58 58 0 0 0 23.3 3.4zm9.3-2.8a73 73 0 0 1-26.6-2.8l-1.3-1.7-3.7-4q6.2 4 16.6 6.5a74 74 0 0 0 15.2 2zm2.8-1.6a63 63 0 0 1-16.6-3q-3.6-1.2-6-2.4L116 97l4.9.6a48 48 0 0 0 7.6 3.8l8.6 3.4a123 123 0 0 0 19.7 6.3zm1.1.4q-16 .8-26-3.4-3.4-1.3-7.7-4-4.7-3-6.4-3.8a60 60 0 0 0-6.8-4.1l-.4-.4 6.5 1 6.8 4a92 92 0 0 0 10 5.3 60 60 0 0 0 24 5.4m2.9-1-11.3-2.8a60 60 0 0 1-10.5-3.5l-5-2a66 66 0 0 1-9-4.3l7 1.9a130 130 0 0 1 21.2 7.4l5.4 2.3zm1.2-.3q-1.6-1-8.2-3.7a266 266 0 0 0-25-8.6 82 82 0 0 0 10-.7q5.3 2 11.7 5.8l11.5 7zm-11.6-15.6a32 32 0 0 1 10 11.7 49 49 0 0 0-12-11.1l.5-.1zm.3 3q3.8 2.6 5.7 5l3.9 5.5a105 105 0 0 0-9-5.5 95 95 0 0 0-11.8-5.5 83 83 0 0 0 8-1.7zm24.7-18-6.6 1.8q-3.4 2-8.1 3.4l-5.2 1.5q-3.6 1-12.5 1.4l-9.6.5-4.2 1-5 1-5.4 1.5 2.8-1.4L132 87a250 250 0 0 0 19.7-3l10-2.7h.5l3.6-1a45 45 0 0 1 7.8-.8m5.2.4-10.5 5.4-10.9 5.8-10.6 3a78 78 0 0 1-27 2.1l-4-.8q-2.6-.5-5-.5l1.7-.7a72 72 0 0 1 13-4l2-.2 4.3-1.1 9.7-.5q9-.5 12.3-1.4a94 94 0 0 0 13.2-4.8l4.6-1.3.2-.1 3.7-1zM106.5 64h.2q1.3-.4 2.8 2 .9 1.3 1.3 2.7a49 49 0 0 1 .2 21.1l-.7 1.9-1.7 1.6q.4-2.4.8-3.7l.7-3.5a62 62 0 0 0 .2-10q-.3-3.6-1.1-6.5-.4-1.3-1.3-3.3-.6-1.5-1.4-2.2m-.4 1.2.1-.4.8 1a14 14 0 0 1 1.7 4q1.5 5.7 1.2 12.7-.3 4.8-1.3 8.5-.7 2.8-1.6 4.2l-.8.8q-.2 0-.5.3a41 41 0 0 0 1.2-15.8l-.9-7.4-.4-6.9q.3-.3.4-1zm2-3 1-.6q2.3-.6 4.8 2.6 2 2.4 2.2 3.6a24 24 0 0 1-1.7 16 35 35 0 0 0 1.2-9 26 26 0 0 0-1.7-7.1q-.2-.7-1.4-2.4-.5-.7-2.1-2a7 7 0 0 0-2.8-.8l.2-.2zm2.2 1.8q1.3.9 1.9 1.8l1.3 2.2.6 2q1.5 4.8.8 9.2a40 40 0 0 1-3.2 10 48 48 0 0 0-.5-20.7q-.3-1-1.3-2.8-1.6-2.7-3-2.4l-.1.1v-.2h2.2zm-9.7 5.9.2-.1-.5 1q-.6 1.6-1 3.6-.5 3.9-.5 6.3L99 87a31 31 0 0 0 2 8.6l1.2 2.1-1.4.4-.4-.2-.7-.8-2-3.2-.8-1.8q-.6-1.8-.7-5.5v-5.2q.3-3.6.7-5.6.6-2.7 2.7-5.1zm3.1-2q-1.8 3-2.4 6.5-.4 3.3.3 7.7l2 15-.7.3q0-.2-.4-.6-.7-.7-1-1.6l-1-2.7q-1.3-5-1-13.2.3-7 2.2-10zm1.1-1q0 1.6.3 4.5l1.3 9.4a58 58 0 0 1-.2 11.8l-1.2 4-1 .4q0-1.4-.5-5.1l-1.2-9.4q-.7-4.5-.2-7.7.4-3.8 2.2-7.3l.4-.5zm-2.6.8-.3.3v-.3zm-3.4-7v-1q1-.2 1.4 1l.3 1.8-.1.7-.5-1.4zM121.4 78q4.2-2.5 11.5-5.8a141 141 0 0 0-8.4 7.6 74 74 0 0 1-9.8 6.6l1.3-4a22 22 0 0 1 5.3-4.3m19.2-3.6q3.9-1 14.4-1.6 10.2-.5 13 .1a23 23 0 0 1 10 4.7l-1.4-1q-2.4-1.5-5.3-2.2-8-2-24.3 1.3v-.1L142 77l-.4.2-5 1.4a139 139 0 0 0-13 5.5l3-2.1 3.4-2.4 2.1-1.7a30 30 0 0 1 8.4-3.4m-4.3 6.8q-15 5.5-21.4 8.7l4.8-2.8a111 111 0 0 1 17-8l5-1.4.4-.2 5.2-1.4a59 59 0 0 1 23.6-1.2q2.7.6 5.3 2l3.3 1.9.7.5h-.5l-6.4-1.9q-4-1-8-.8-7.7.4-12.8 1.3L140 80zm4.1-.4 12.4-2.4q4.8-.9 12.4-1.2 3.3 0 8 .9l3.9 1-1.3.1-3.3-.2q-1.4 0-7.2.8l-3.6 1-1.8.2-8.6 2.3-19.6 3.1-12.2 3.2a87 87 0 0 0-8 3.5q.6-.9 1.2-1.1 1.5-1.2 5.2-2.8a204 204 0 0 1 18.4-7.3zm-10-5.5q5.3-2.9 6.4-3.1 6-1.5 13.5-1.6 1-.1 11.6.4a27 27 0 0 1 10.8 2.8q-2.1-.8-4.8-1.3-11.1-2.2-26.7 1.1-4.5.3-10.3 4.2l-7.8 5.7-9.9 6 .7-1.2 3.6-2.8 7.8-5.4q1.4-1 2.7-2.7zm3-2.5a34 34 0 0 1 5.2-2.6l2.7-.7a61 61 0 0 1 27.3 1.9l1.3.8q-3.6-1.5-6.9-1.8-7.7-1-24.8.8-3 .7-4.9 1.6m-15.6-1.5-.5 3.3V71q0-.9-1-4-.4-1.8-3.6-4.4-2.8-2.4-4.3-1l-.5.2 1-1h.2l.6-.3.6-.3q3.3-.9 5.6 2.3 1 1.7 1.7 3.7l.4 2.2zm-.2-6.6q-.4-1.6-1.8-3.3-1.9-2.1-4.1-2l1.1-.4q2.3-.6 3.7 1.9.7 1.2 1 2.6.4 1 .4 2.4zM139 34q1.4-7.3 3.2-12.4l-1.4 11a119 119 0 0 1-2.7 13.8 83 83 0 0 1-9.8 23.1q1.7-3.8 3.2-8 3.6-9.9 4.7-14zM42 90.7h.3zm14.9 39-2.8.8-6.8 1-1-.2 7.8-.9 3-.8zm28-19q-1.5 2-3.2 3.7a63 63 0 0 1-12.5 9.5 38 38 0 0 1-12 5.1l-3 .8-4.5.7a76 76 0 0 0 28.9-15q1.5-1.2 7.7-7.7l4.7-4.3zm1.8 3.2q1-1.1 2-3 0 2.2.5 6.4.6 4.5 1.1 6.5a51 51 0 0 0 6.7 14.7 31 31 0 0 1-3.8-4.5 67 67 0 0 1-4.5-8.2l-1.7-6.5-1.2-4.3zm5.2-8a68 68 0 0 0 3.9 26.1l1.6 5.7a49 49 0 0 1-8.3-27.2zm1.5-2.6 1.3-2 .7-1.2h.4q-1.2 6-1 15.1.5 9.3 2 15.4 1.4 5.1 4.5 9l-.4.7-.4 1-.6-.4-.9-1.3q-1-1.6-1.3-2.5l-.9-3.8-2-7.5-1.8-10.4-.3-6.1v-4.6zm-.5-.5-2.1 3.5-4.6 7q-6 9.3-25.4 15.3l-3.4 1a73 73 0 0 0 16-7.4q1.8-1 8.3-7.1 2.3-2.1 6.3-7.2 3-3.7 5.5-6.2zm-2.5-5.2.6.5h-.6l-1.9.5h-.7l.3-.2zm2.4 3.3-4.4 4-1.8 1.9a114 114 0 0 1-7.8 7.6q-6 5.4-9.4 7.3-5 3-14.8 6.6l-2.1.5L49 130l-2.3.7h-1.2a64 64 0 0 0 14.7-7q4.6-3 11.3-8.8 7.4-6.2 10.5-8.5a46 46 0 0 1 10.8-5.5m.1-1.4 1.2.5q-5.8 1-13.3 6.4-3.3 2.5-9.6 8.2-9.9 7.8-10.8 8.3a71 71 0 0 1-10.1 5.3l6-5a230 230 0 0 1 18.2-15.4 43 43 0 0 1 14.2-7.5l2.1-.3zm.6-7.7q-1.3-4.7-.8-9.8.4-5.4 2.8-8.6l2.1-1.5q-1.5 2.7-1.9 8a36 36 0 0 0 .5 12.4l1.6 3.6 1.8 2.4h-.1l-.8-.2-1.7-.6a19 19 0 0 1-2.8-3.8q-.4-.8-.7-2m-34.8 23a53 53 0 0 0-6.6 7.9l-3.2 3.3q1.4-1.8 7.3-10.5 11-16 17.2-17.6 3-.8 9.6.3 1 0 1.9.3l.5.2h1.2l1 .2h-.4q-4 .5-6.2 1l-2.6.7a36 36 0 0 0-11 6.1q-3 2.3-8.7 8.1m-2.4-5.4 5-2.2a174 174 0 0 0-12 17.3 22 22 0 0 1-6.2 6.6l.4-4q.4-5.5 1-7l1.6-3.4q1.2-1.8 3.8-3.8 2.1-1.7 6.4-3.5m-6.5-7.9q-6-1-10.4-2.8-7.5-3-12.5-7.9l-7.8-7.4a339 339 0 0 0 20.7 14.8 36 36 0 0 0 10 3.3M65.7 114l-9.8 9a50 50 0 0 1-9.6 6.6q2.8-2.6 6.4-6.9a136 136 0 0 1 15.1-15.5q5-4 10.7-6l2.7-.8 10.7-1.6.7.5q-7.4.4-15.2 5.8-2 1.4-6.2 4.8-3.7 3-5.5 4M65 96.5a112 112 0 0 0 13.3-.9L90 97l-1.6.7-2 .4a38 38 0 0 0-8.2-1.4q-1.9-.2-4.4.4l-5.4-.2zm-11.9-2.2-6.8-2.2q3.5.8 8.9 1.4L63 95q4.8.6 11.3 0l.1-.1.8.2 2.2.4-5.3.1q-7.7.3-14.7-.1zm1-19.6q1.5 2.1 5.3 5.7l6.8 5.9A47 47 0 0 0 83.1 94a48 48 0 0 1 6 2.1l-7.7-1-4-1.5a37 37 0 0 1-11-5.6l-4-3a31 31 0 0 1-6.3-6l-2-3.4zm-1.7.7.3 1.5a23 23 0 0 0 6.4 10 28 28 0 0 0 4.5 3.9q-4.5-2.2-7.5-4.7-3.3-3-4.1-5.9-.4-1.2-.2-2.7l.1-.1zm1-1.6v1q1.5 5.7 11 12.5Q72.2 93 78.8 95l-2.8-.5-8.4-2a30 30 0 0 1-8-5.9 22 22 0 0 1-6.4-9.7L53 75l.3-.9zm7.5 2.6a24 24 0 0 0-5.7-3.2l.3-.1q4.8 1 9.5 3.8l9 5.6a42 42 0 0 1 7.6 5.8l5.2 4.8-4.6-2.8-11-6.2A140 140 0 0 1 61 76.4m10 8.2a103 103 0 0 0 9.7 5.6 59 59 0 0 1 7.6 5l-4.4-1.6-7.4-2.4a49 49 0 0 1-17.2-11.9l-5.2-5.8q.6 0 1.3.4l3.3 1.7 2 1.5 2 1.5q4.8 3.8 8.3 6m3.5-2.4q-3.4-1.9-11.2-6.8a27 27 0 0 0-6-2.6l1-.2 2.3-.3a40 40 0 0 1 6 1.5l2.6 1a32 32 0 0 1 13.7 10.5L85 89q.5 1.6 1.4 3.4l-1-1-7-6.4q-2-1.6-4-2.8m10 2.1.3 1.2v2-.1a33 33 0 0 0-6.8-8.1 55 55 0 0 0-8-4.9q-4.5-2.1-7.9-2.6l2.3-.3.5.2-.2-.2H68a16 16 0 0 1 5.2 2.1q3.6 2.8 5.5 4 1.2.7 2.4 2l2 2.2q1.2 1.6 1.5 2.5m5.2-5.1-1.1 4.4q-.3 2.6-.2 4.2t.6 3.7l2 4.6 1.5 2.2Q90.8 97 89 94.6a26 26 0 0 1-3-6 9 9 0 0 1 1.9-8.3q1-1.5 2.6-3zm2.9-3.4h-.2l2.2-1.8q-2.1 3-2.6 8t.8 10q.3 1 .8 1.8L95 96a6 6 0 0 0 3.2 2.6l-1.9.5q-2.7-.3-4.6-3.1-1.3-2-2-4.6a19 19 0 0 1-.4-8q.7-4.4 3-7.5zM86.2 77q.9.7 1.8 1.9-1.1 1.2-2 2.6v-.7q-.8-2.3-4.4-5.5-2-1.7-3.8-2.4h.8a14 14 0 0 1 7.4 4q.2 0 .2.2m1.6-3.6.9.6.3.9v1.5l-.2 1.5-.3.3-.7-1.7q-.3-.7-.1-1.7zm-3 .3-.1.8.3.6-1.8-1zm-1.9-6.6q.1.6 1 .5l.2.7q-.1.3-1 .2.5.3.8.2.5-.1 1.2-1h-.4l-.2.3-.3-.5q.5-.2.6-.5v-.3q-.2-.5-1.1-.3-.8.2-.8.7m6.2 5.6.4.5q.3.7 0 1.8v-.3l-.4-1.1q-.4-.4-1.3-.4h-.2q-.5.7-.6 1.8l.2 1.8-1-.9q-.4-.4-.6-1l-.5-1.2.7-.2q1.7-.4 3-1zm4.3-3.4q0 .3.2.3l.1.2.3-.7q.5.3.8 1l-.2 1.5-.3 1-.3.5v-.4l-.1-.5-.5-1.1q-.4-.6-.9-.6l-.2.1v.3l.5.6.4.4v.9l.1 1 .2.2-1.6 1.2-.4-1.6q-.3-1.3.5-2.6-1 .8-1.2 1.7a9 9 0 0 0 .9 2.7l-2 1.6q.4-.7.6-1.6l-.2-2.3-.3-1q1.6-.8 2.5-1.7zm.4-.7 1.5-1q.5-.2 1.2-1.1.2.4.5.4.4 0 .4.3.3 1.2-.1 4.1l-2 1.4.4-1.1q.4-1.6.4-3H96q-.2 1.2-.6 2.1l-.2.4.1-1.2q-.2-.9-1.2-1.3zm-4.8.6q-.2.3-.6.5v-.3l-.2-.6q.3 0 .4-.3V68q0-.3-.2-.3h-.2l-1 .2q-.4.2-.4.4l-.2.5.7.1h.6l.2.8h-.2l-.7.2.5.2.6-.1h.1l.8-.8.2-.5q-.3 0-.4.4m4.3-3.6q0 .3-.6.8l-.4-1 .3-.4q-.1-.7-1-.4-.6.2-.6.7l.3.2h.7q0 .6.6 1h-1.2l.2.2q.4.3.8.2.6-.2.8-.8.2-.3.1-.5m-1-2.9q0-.3-.6-.2t-.6.5l.1.3h.3l.2.5h-.3v.2l.2.1 1-.3v-.3l-.7.2v-.3l-.1-.2.5-.3zm-6 1.2.1.2h.4l.4-.2.5 1-1 .3v.2l.9-.1q.7-.3 1-1v-.1q-.2 0-.5.3l-.1.2-.6-1 .6-.3v-.2q-.1-.4-1-.2t-.6.9m-12 8.3q4.8 1.3 7.9 4.3 2 1.9 3.7 5.3l-1 2.6-.1-.7q-1-3.2-8.3-8.6a36 36 0 0 0-5.4-3.4h.3zm3.2-2.4q-.6-.4-1.9 0v.3q.1.6 1 .4l.1.5h-1q.5.5 1.1.3h.1q.5-.1.6-.4l.3-.3q-.3-.1-.4 0l-.4.3-.2-.5q.4 0 .7-.4zm3 1 .1.3q0 .3 1 .1v.3q0 .2.2.3H81v.2l.3.1h.6q.5 0 .7-.5v-.7h-.1q0 .3-.2.4l-.2.4-.2-.6.3-.3v-.5l-1.6.3zm-3-3.6q-.1 0 0 .2v.3q.3 0 .3.3l.1.1.3-.2.4-.1.2.3v.1l-.6.4q.3.3.6.1.4 0 .7-.5l.2-.4-.1-.2-.6.5v-.5l.4-.2V67q-.1-.3-.4-.3zm3.9-2.1v.2q0 .3.3.3h.3v.3l.2.4h-.9l-.1.2h1l.8-.3v-.4l-.7.4v-.6l.2-.2.4-.3-.6-.3zm1-1q.1 0 0-.1l2-.7 4-1.1h.2V62q4.4-1.1 6.8-.6 1.5.4 2.3 1v.2q.4 1.6-2 3.5-1.2 1-2.7 1.7-.4.3-1 1.2l-1 1.3q-.6.5-2 1.1l-.7.1v.2q-2.4.9-5.8 1.8v.1q-2.4-1.2-4.2-1.4l-6.9-1q0-.5.6-1.1h.2V70l3.4-2.6a42 42 0 0 1 6.7-3.3zm-18-19.4q4.5 4.6 7.5 8.6A47 47 0 0 1 78.5 65l-1.7.8-1.4-4a28 28 0 0 0-6.7-11.6q-1.6-1.8-4.2-5.6M59.8 40q6.5 7.1 9.8 11.8A44 44 0 0 1 76 65.7l.1.6-2.3 1.3-.5-3q-2-7.7-11.8-19.2a69 69 0 0 0-11.9-11.6q6 3 10.1 6.3M40.2 81.7q12.3 4.2 18.3 7.1l3.4 2a331 331 0 0 1-48-17.2q12.5 3.4 26.3 8.1M11 76.2q2 2.6 6.4 6.7l7 6.5-2.4-1.7-8.5-5.6A35 35 0 0 1 7 75.8Q2.4 69.9 1.5 69L7 73.3q3.7 3 4 2.9m-.7-3.4a93 93 0 0 0 11.2 6 158 158 0 0 0 32.7 12.6 87 87 0 0 0 17.1 3.1q-9.5-.4-16.3-1.4a72 72 0 0 1-21.2-6 151 151 0 0 1-23.6-14.3m10.4 4.5q9.9 4.2 13.3 5.2l15.3 5.1a65 65 0 0 0 13 3.5V91q.4 0 .7.3 3 1.5 10.4 3.2-28.5-4-57.1-19.1zm-4.9-.1q1.4.5 2.3 1.4a27 27 0 0 0 9.4 6l7.5 3.7q9.1 4.6 17.8 6.6l12 2.7q3.8.6 6.2.5l-1.3.8q-6.3.8-11.5 0L52 98q-3-.8-6-2-2.7-1-7-3.4-5-3-6.4-3.5-6-2.9-11.5-7.5zm4.6 4.8q1.7 1.8 5.3 4 2.3 1.4 6.5 3.6l6.3 3.6a55 55 0 0 0 13.9 5.4 54 54 0 0 0 15.7 1.5l-.3.3-1 .2-5.2 1-4.7.2q-9-.5-16.5-4.3-4.6-2.2-11.7-7.9l-5.3-3.9q-3.5-2.4-5.4-4-1.4-1.4-4-4.6L12 75l2.6 1.7 1.2 1.1zM4.5 67.6q5.4.9 12.4 3.3 7.5 3 12.2 4.4l-13.2-3.4q-2.7-.6-4.4-.5-1.4-1.1-5-2.5zm-1.2 1.9 5.9 3.7q.2.7.8 1.7zM9 72l-.2.2a29 29 0 0 0-7-4.6l.8-.1a40 40 0 0 0 7.6 4q-.8 0-1 .6zm34.7 2.3q2.7 2.7 5.7 5.2-2.4-1.2-7.2-3.2A233 233 0 0 0 22.4 69a61 61 0 0 0-11.3-2.4L7.7 66q9.7 0 19.5 2.8 4.5 1.2 16.6 5.6m-15.5-6q-3.6-.8-10.3-2.7-4.4-.7-9-.4l.8-.2 2-.4-.9.4 3.6-.2 1.7-.2q4.8 0 11.9 1.8 3.3.7 10.8 2.9l3.8 4q-2.1-1.2-5.1-2.3-4-1.6-9.3-2.7m3.3 7.5-14.3-5.6A56 56 0 0 0 2.4 67l1-.3q3.4-.3 5.5 0 3.3 1 6.3 1.5 5.8 1 14 4l11.6 4.7q7 3 10.6 4.2v.1l.6 1.3A92 92 0 0 0 31.6 76m6 4q-4.8-1.2-16-5.2-6-1.8-9.1-2.3 4.4 0 16.2 3.1 13.5 3.6 23.6 7.4 1.4 2.3 4.2 4.4a136 136 0 0 0-11.2-4.7q-4.5-1.7-7.7-2.6M34.3 66q1.5.8 2.8 1.2l.8 1q-2.7-.9-9.7-2.4-2.5-.3-6.1-1.5-2-.4-3.8-.3h-.4q7.8-.8 12 .3 2 .5 4.4 1.7m12.5-33.5q10.4 8.3 16.5 15.8A51 51 0 0 1 73.5 68L72 69l-.3-1.3a39 39 0 0 0-5.1-9.8Q62 51.4 56.8 45q-12.4-14.2-19-15a25 25 0 0 1 9 2.5M31 42.1l7.7 9q6.5 9.2 20 20.5l-1 .1-1.4.4A136 136 0 0 1 26 35.7q2 2.8 5 6.4m-3.5-5.7a14 14 0 0 1-3.2-4.9q2.4 3 7.4 8.5l10.1 11q5.2 6.6 10.7 10.8l5.5 5.4q2.5 2.5 5.2 3.8l-4.2.6-7.8-8.1A206 206 0 0 1 30 39zm-4.4 2.3A89 89 0 0 0 36.4 61Q47 75.9 51 77.5V80l-9-8.3a45 45 0 0 1-4.2-5l-3.7-4.9a60 60 0 0 1-10.9-21q-.6-2.4-.8-5l.6 2.9m.1-7.2q.3 1 5.4 9.3 5.7 9 8.2 12 8.5 10 19 19.5h-.2l-1 .2-.7.2-.3.2h-.1l-.3.1q-.1-.3-.5.2L49 69.5a141 141 0 0 1-14-15.8 59 59 0 0 1-6.8-10.5Q23 33 22.8 32.3a4 4 0 0 1 0-2zm-.8 1.8a152 152 0 0 0 11.8 20.2l5.3 6.5q.2.7 5.7 6.5l7.1 7.3a11 11 0 0 0-1.1 3 59 59 0 0 1-9.3-9.7l-8.1-11a61 61 0 0 1-11.4-22.8m1.8-4.3q2.7 1.4 5.7 4.2l5.5 5.3a218 218 0 0 1 15.6 16l4.8 5.6 4.6 5.4q2.8 3.3 5 5.3l-8.9-11.3q-5.3-6.3-9.8-10.8L34 36a56 56 0 0 0-7.8-6.4A45 45 0 0 1 40 38l5.4 5.4 5.2 5.5a89 89 0 0 1 15 19.7l1.6 2q-1 0-2 .3H64l-11.2-9.7a80 80 0 0 1-10.5-10.9q-1.5-2-5-5.5-4-4-5.4-5.6a85 85 0 0 1-7-9l-1-1.2zm12.2 1q6.5 1.1 14 8.5a146 146 0 0 1 16 20.5q3.3 5.4 5.3 10.3-1 .7-1 1.5a231 231 0 0 0-15.3-22.7q-6-7.1-13.8-13a32 32 0 0 0-9.4-5.5zm-7.4-.6q12.9 3.4 26.4 20.1 4.4 5.4 9.1 12.8l5.7 8.9-2.4-.5a134 134 0 0 0-21-27 55 55 0 0 0-19.2-14.5zm65-25 .4.8q.8 7.6 3.8 28a204 204 0 0 1 2.5 28.4q0-.9-.3-1.4 0-.5-.8-.8l-.8-.3q0-2.7-1-9A858 858 0 0 1 94 18.4q-.9-7.8 0-14m-9 12A137 137 0 0 0 83.7 63l-.4.2-.9.3q0-1.3-.3-2.8l-1-3.4-.3-3.6-.3-3.6q-.4-3-.5-7.1v-7.3a44 44 0 0 1 4.8-19.1m8-5.8q-.1 3.9.2 7.3 1.4 9.6 1.8 14.3.3 4.2 1.7 14.4a187 187 0 0 1 1.3 13v.3l.2.1v.5q-.6-.4-1.1-.2v.2l1.2.8q.9.7 1.5 2-.5-.3-1.2-.3v.3l.9.8q.3 0 .3.4.6 2-.3 5.1l.1.1-.3.2q.3-.5.3-1.4l-.1-1.7q-.1-.3-.7-.5v.7l.2.7q.1.4-.2 1.3t-.6.8v.5q0 .1.4 0-.2.3-.6.5v-3.9q-.3-.7-1-.9h.2l.3-.5q1.4-1.8 1.2-2.4l-.3-.8v-.2q-.5-1.5-3.2-1.6-.2-10.1-1.7-27.7-1-11.6-1-14.2-.2-6 .7-11.1.2 2.1.1 3m-4.8 0q-1.8 4-2.4 10.2a89 89 0 0 0 .7 18.4l.7 6.3.5 6.8a61 61 0 0 0 .5 7.8v1.4l-3.8 1.2q.2-1.8-.6-8.3-1.2-10.8-1-14.4a87 87 0 0 1 1-12.2q0-2 1-7.3l.7-5zM92 7.2l-.5 3.9-.1 3.5.1 3.6q0 2.7.5 7.1l.5 7a575 575 0 0 0 1.9 28.4H93l-1.7.2-.1-1.9q-.1-4.8-.8-12.9-1-11.8-1.2-16A49 49 0 0 1 92 7.2m.6-2.2.2-.1zm-2 2.7-.8 3.7-1 3.6q-.5 2.2-.5 3.6l.3 13.5q0 4.8 1.1 13.3L91 60.8v.1l-2.4.5q0-5.3-.7-14.1l-1.4-15.9Q85.5 16 89.3 9l1.5-2zm12.4 8.6a64 64 0 0 1 5 14.7q.1 1-.1 2h.1l-1.8 8a49 49 0 0 0-1.7-9.4l-3.2-14.4a50 50 0 0 0-3-8q3 4 4.6 7m-2.2-7q1.9 1.8 3.5 4 4.2 6.9 6.6 10.3l-.8 2.6a54 54 0 0 0-9.3-17m3.8 6.4q1.3 2.4 2.8 6l2.3 5.7-1.3 4.5q0-1.2-.4-3.4a50 50 0 0 0-10-21l2.6 2.8q2.8 3 4 5.4m-7.4-7q2.3 4.4 3.5 8.7 2 7.5 3.7 17.3l1.4 9.3a92 92 0 0 0-1.2 12.6q-.6-6.3-2.5-18.5a368 368 0 0 0-6-31zm-1.2.5A58 58 0 0 1 98 19.3l2.1 10.2q.4 1.5 2.2 14.4l2 16.8-.1 5.1q-.6.8-1.3 1.2.3-.5.3-1.8.3-1.8 0-2.3-.3-1.8-.8-1.6l.2 3.1q0 1-.3 1.8l-.6.8.2-1.4q-.5-1.5-.8-1.6-.1.6.3 2.2v1.2l-.6 1.2-.8.7q.8-2.5.3-4.7.7-1 1-2V61q.5-2.6.3-5.7 0-1.7-1-7.4l-2-14.5q-1.2-11-2-14.4A164 164 0 0 1 95 6.4q.7 1.2 1 2.7m29.6 4.2a98 98 0 0 1 2.2-10.9q-.3 12-1 20.8-.9 10.6-2.7 20.1a88 88 0 0 0-4.3 10.8q-1.5 4.7-1.7 7.6-.6-1.5-1.5-2.4 1-.8 1.7-4.2l1-4.8 1.4-6q1.5-9.7 2.5-14.7zm7.1 14.9-.4.6.5-1.1zm7.4-1.6a480 480 0 0 0-4.6 20.4 122 122 0 0 1-10.8 28.1v.1l-2.6 1.5q1.3-2.5 2.1-5.7l1.9-7.3a704 704 0 0 1 14-37.1m.4-3.6-1.3 3.7a57 57 0 0 1-3.3 7.5q-1.5 3-3 7.4l-2.4 7.4a315 315 0 0 0-8.8 28l-.6.3-2.3 1.5a6 6 0 0 0 .9-2.2l.4-3.7 1.4-7.1q.3-3 1.8-7.3a294 294 0 0 1 9.4-22.8 83 83 0 0 1 7.8-12.7M129.7 5.8a102 102 0 0 1 2.6 23l-3 4.6q.5-4.3.5-14.7a101 101 0 0 0 0-13m-9.7 7.8-1.4 3.7q-1.6 3.3-2.8 7.2l-1.6 7.2a369 369 0 0 0-4.3 27.3q-1 .6-2 1.5l.5-7.4q.6-10.6 3-20.7 2-9 5.2-15.5a46 46 0 0 1 5.8-9.4q-.7 1-1.2 2.3zm5.2-10.3 1.1-1-.1.5zm.4 3.8-.4 3.7-1.5 11-1.2 7.3q-1 5-2.6 14.7a101 101 0 0 1-4 15l-.8-.5a4 4 0 0 0-1.8-.3q1-2.6 1.8-6.8a189 189 0 0 1 2.6-13.7l1.5-7q1.6-9 2.6-13.6 1.5-6.7 4-12zm.4-3.4a19 19 0 0 0-2.9 5.5l-2 7.2-2.6 13.9q-1.2 5.1-2.8 13.9L113.1 58a7 7 0 0 0-2.6.7 790 790 0 0 1 4.5-26.8q2.3-9.5 5.3-17.7a50 50 0 0 1 4.4-9.4zm2.6.3q.6 2.1.5 16.5L129 34l-3.8 7q.8-2.9 1.2-6.4l1.1-11a158 158 0 0 0 1-19.6M120 9a41 41 0 0 0-9.3 22.9l-2.2 13.2a63 63 0 0 0-1.2 15.8l-.6.7q-1 1-1.1 2l-.6.9v-.7l.2-6.2a132 132 0 0 1 3-22.6 78 78 0 0 1 5.5-16.7q3-6 7.5-11.2zm22.8 21.5a68 68 0 0 1-7.4 34.3q-3.5 5-8 9-.7.2-1.2.6l3.1-5q3.4-5.7 4.7-8.8 3-6.8 4.5-14a312 312 0 0 0 4-23.6zm.9-9 1 2.2a44 44 0 0 1-2.6 28.9q-1.5 3.5-3.2 6.7a87 87 0 0 0 3.7-15q2.6-16 .6-24zm-1.3-1.7-.8.8q-1 .8-2.1 2.4l-2.8 4.2-4.6 8q-1.5 3-3.5 7.9l-3.3 7.5q-2.7 6-4.5 14.9-2.4 11-3.3 14l-.8.8.6-1.5q.9-2.4 1.3-7.8.3-4.6 0-7 0-4 2.3-10.6A107 107 0 0 1 135.3 26q4.2-5.5 6.4-6.1zm4.7-11.3a110 110 0 0 0-6.7 11.4q-2.5 1.6-6 5.8l-1 1.3a73 73 0 0 1 13-18.3zm.6.7q.4 2.5-.3 11.4l-1 9.1a48 48 0 0 0-1.5-6.9q1.3-3 2-7.2zm-4.3.7a35 35 0 0 0-10.4 9.6l-.6-3.2.7-1 3.8-2.7a48 48 0 0 1 6.5-2.7m1-.3q-1.3.9-2.2 2.1l-1.8 2.9-2 2.7a70 70 0 0 0-5 7.3 15 15 0 0 0-.2-4.2q1.6-2.8 5.7-6.4zm2.7-2-8.1 3.1a51 51 0 0 0-6.8 4.4l-.7-4.5-1.1-5q-.6-1.8-1.2-2.9l-1-2.1-.6-.6v.8l-.9.7a27 27 0 0 0-7.4 6.9q-2.4 3-6.5 9.6l-1.9 5-2.6-5.5a23 23 0 0 0-3.7-5.5l-2.3-2.6q-1.5-1.7-2.7-2.6l-3-2.5q-1.8-1.2-3-1-1.8.2-3.3 2.2L87.7 10a60 60 0 0 0-4.3 8.2q-3.3 7.4-4 15.3-.4 4 0 13.1A77 77 0 0 0 81.2 61l.8 2.6-3.3 1.4v-1q-1-4.3-7.1-12.3-5.3-6.9-8.9-10.3A52 52 0 0 0 36 29l-7.4-.7a31 31 0 0 0-5.3 0l-.3-.6h-.6v.2h-.1q-1.2 2.1-1 6.3.3 3.4 1.2 7a65 65 0 0 0 13.3 24.6A26 26 0 0 0 22.6 63q-3.9 0-13.1 1.2l-4 1q-1.5-.2-4 1l-.5.3-.2.2-.3.2h.2q-.9.8-.7 1.2l.2.3q.7 2.1 5.6 7.4a66 66 0 0 0 14.9 12.4q4.3 3 7 4.5 8.6 7.4 21 9.3a44 44 0 0 0 17.8-.6 45 45 0 0 0-5 5.3l-3.3 1.3-5 2q-1.6.8-4.3 3a14 14 0 0 0-3.4 3.6q-.7 1.2-1.6 3.3-.6 1.4-.9 3l-.2 3v2.8q0 .8-.3 1.9l-.1 1 .1.2q0 .3.4.2l.7-.3 3.1.4 7.6-1 2.7-.6.3-.2 3.6-1a73 73 0 0 0 18.4-7.8 24 24 0 0 0 6.2-6.2q0 1.6.6 3.6l2.5 9 3.2 5.5q1.5 2.3 4.6 5.6 3.3 3.6 4.3 3.3.4 0 1-1.5l.2-.5q1.3 1.5 2.8 2.6a33 33 0 0 0 22 6.8v-.3l.3.6.2-.9q2.2-1.3 4-5.9 1.9-4.2 2.3-7.4.8-5.2-1-12a40 40 0 0 0-3.3-7.5 52 52 0 0 0 14-.2l6.9-1.8 1.8-.7 3.5-1 2-.5q1.2-.2 2-.8h.5q.2.1.2-.1h-.2l.2-.1h.6v-.2l.2-.6-.2-.6q-1.2-4.5-5.4-9.6a21 21 0 0 0-6.3-5.6l8.4-2.4q5.5-2.6 12.1-6.1l11.5-6v-.3l-.2-.1v-.1q-1-3.4-3.2-4.7l-8.5-4.3q-4.4-2.5-11.7-3a70 70 0 0 0-16.5 1.1l-5.2 1.4-4.5 2q3.3-3.2 7.5-11 4.7-9 6.2-14.2a50 50 0 0 0 1.8-16q1-1.2 1.7-10.1a47 47 0 0 0-.2-13q-.3-.3-1 0m.5 1a7 7 0 0 0-1 2.9 55 55 0 0 1-2 10.6l-1.7-3-.1.1-.3-.2-1.4.5q4.8-7.5 6.4-11"/></svg>