<svg xmlns="http://www.w3.org/2000/svg" viewBox="0 0 1065.14 792.94"><path fill="currentColor" d="M1064.4 367.73a3.08 3.08 0 0 1-1.5 2.85 4.1 4.1 0 0 1-2.4.75 9 9 0 0 1-2.4-.45c-2.9 2.05-7 5-12.45 8.55a150 150 0 0 0-20.85 15q-6.75 9.45-10.5 14.4a110.7 110.7 0 0 1-14.2 15.55 386.3 386.3 0 0 0-52.2 60q-33.9 46.25-46.35 61a307.6 307.6 0 0 1-49.35 47l-5.35 4.5c2.9-1.5 5.85-3.1 8.95-5A199.6 199.6 0 0 1 921.35 575q33.3-2.25 47.4 20.85a58.25 58.25 0 0 1 8.1 30.6 155.4 155.4 0 0 1-8.85 45q-9 27.62-9 36a42 42 0 0 0 2.1 8.1 5.7 5.7 0 0 1-.6 1.95h-1.65q-2.7 0-3.9-5.55l-19.35-6.15-16.05-5a18 18 0 0 1-2.1 0 79.4 79.4 0 0 0-14.1-1.2q-18.45 0-90.25 52.65a195.9 195.9 0 0 1-50 25.65 259.4 259.4 0 0 1-68.21 15h-23.25a185.4 185.4 0 0 1-68.25-26.25 228.5 228.5 0 0 1-30-25l-.45-.3q-7.8-3.45-8-9.3a82 82 0 0 1-5.85 5 104.65 104.65 0 0 1-40.95 20.4 2.58 2.58 0 0 1-2 1h-1.15a176.4 176.4 0 0 1-40 4.2 295 295 0 0 1-57.25-5.55q-3.3.9-8.25 1.8a244 244 0 0 1-33.46 3.75h-35.95q-66.08-10.56-95.35-34.26a191 191 0 0 1-20.55-20.7 156.3 156.3 0 0 0-21-20.56 272 272 0 0 1-20-20 109 109 0 0 0-26.7-20.65q-21.6-8.25-38.4-15.6-28.95-12.45-31.95-20a8.2 8.2 0 0 0-1.65.75q-.75.9-.75-1a6 6 0 0 1 .75-2.7 14.5 14.5 0 0 1 3.15-3.9 7.6 7.6 0 0 1 1.5-1.65 17 17 0 0 0 6-9.25 41.2 41.2 0 0 1 3.75-17 47.3 47.3 0 0 1 10-16.5q10.8-8.7 41.4-12.15h33.85a23.5 23.5 0 0 1 8.4 1.65q-3.75-3.45-7.35-7a573 573 0 0 1-53.3-62.13q-18.9-25.8-31.8-42.9-39-42.6-54.41-73.3-3.3-6.6-25-40.81Q.08 290.47.07 290.32a2.7 2.7 0 0 1 0-1.2 3.8 3.8 0 0 0 .9.45 9 9 0 0 1 0-1.8 3.2 3.2 0 0 1 .45-1.65v-.45q0-1.05 1.8-1.35a30.5 30.5 0 0 1 9.78-4.65 79 79 0 0 1 8-2.25 602 602 0 0 1 74.51-10.8v-.45h48.75a248.5 248.5 0 0 1 63.4 10.65q32.85 9 38.1 15.45-.9-8.7-1.8-17.85-5.96-64.15-7.73-84.42-4.2-8-11.25-20.55-16.65-29.45-16.65-35.53a16.2 16.2 0 0 1 .45-5 .49.49 0 0 1 .3-.45q1.5-4.2 11.1-3.15a122.7 122.7 0 0 1 28.35 8.25 96.2 96.2 0 0 1 27 17.25 49.4 49.4 0 0 0 9.55 7A112.8 112.8 0 0 1 296 124.47c4.2-8.9 10.8-21.1 20-36.7 6.8-11.7 10.35-18 10.8-18.9A69.7 69.7 0 0 0 333.68 50a24.5 24.5 0 0 1 1.4-10c1.75-3.9 6-3.25 12.7 1.95a317 317 0 0 1 35 18.3 785 785 0 0 1 86.61 58q3-6.3 37.8-31L551.59 56q1.8-1.5 8.4-8.25a48.7 48.7 0 0 1 8.4-7.7q8-5 11.1-.45c1.2 1.8 3.35 5.35 6.55 10.65q5 5 15.9 16.35a108 108 0 0 1 10.95 12.9 77 77 0 0 1 5.55-5.85q3-3.3 6-6.15 2.25-2.4 4.65-4.65Q657 36.87 672.44 24.87q.6-.45 3.75-3.6l8.9-8.95q2.7-2.85 6.15-6.3Q707.74-7.5 708 9.32a27 27 0 0 1 1.5 5q1.05 3.3 2.55 7.35c3.3 10 7.55 22.8 12.9 38.7q12.21 37.2 22.45 60.55l7.51 17a44.1 44.1 0 0 1 14.7-11.25A85.15 85.15 0 0 1 801.4 115a387 387 0 0 0 47.5-10.9 19.94 19.94 0 0 1 10.8-1.2c2.25.8 3.3 3.35 3.3 7.6a120.6 120.6 0 0 1 5 28.2q.3 5.25.3 27.6 0 18.9-.45 25a51.2 51.2 0 0 1-2.85 14.57 150 150 0 0 0 14.1-7.2 82 82 0 0 0 7.8-5.25 6.16 6.16 0 0 1 8.24 2.79l.16.36a54 54 0 0 0 3.9 8.4 32.3 32.3 0 0 1 3.15 7.35 173.6 173.6 0 0 1 1.8 27 143.5 143.5 0 0 1 15-15.4q21.3-19.35 33.3-14.4a2.6 2.6 0 0 1 .6-.45.49.49 0 0 0 .3.45.58.58 0 0 1 0 .45v.75s-1.8 4-5.4 11.7a161 161 0 0 0-9.3 28.15 275 275 0 0 0-5.3 39.5q-.9 12.6-2.25 39.3a82.6 82.6 0 0 1-13.8 38.11q47.1-24.3 70.75-22.51a191.8 191.8 0 0 1 56.4 6 43.9 43.9 0 0 1 15 6.9 5.93 5.93 0 0 1 5.68 6.2 3 3 0 0 1 0 .4 2.33 2.33 0 0 1-.9 2.1Zm-25 4.2a77.3 77.3 0 0 0-28.5 25.6l-10 17.85-.85 1.65a76.2 76.2 0 0 0 12.85-15.3 169 169 0 0 1 11.4-15.55 45.2 45.2 0 0 1 8.55-7.8 70.4 70.4 0 0 1 13.35-7.05 34 34 0 0 0 3.3-1.95 44 44 0 0 0-10.15 2.55Zm-6.75-18.6a166 166 0 0 0-27.75-3q-12.49 4.5-30 24.15-21.6 27.79-26.1 32.65l-26.55 28.2q-16.65 17.4-29 31.8a420.5 420.5 0 0 1-87.85 74.2q-54.3 36-76.66 36H728c-2.3 3.4-4.7 6.85-7.15 10.35a1.4 1.4 0 0 1 .7 0q31.35 0 98-46.8 24.6-17.4 46.3-35 2.85-3.75 5-6.75 20-25.5 30.75-38.1a276.7 276.7 0 0 1 38.5-37.4q7.95-6.3 22.65-19.35a198 198 0 0 1 25-18.4c.65-.4 4.6-2.4 11.65-5.85 1-.9 2.05-1.85 3.15-2.7q25-18.45 39.75-21.15a60.6 60.6 0 0 0-9.7-2.85Zm-1006-72.61a78.3 78.3 0 0 0-13 3.9q11.55 1.65 34.05 7.35 38.31 9.75 65 19.2a180 180 0 0 1 36.45 15 147 147 0 0 1 21.3 15 138.3 138.3 0 0 1 20.7 13.21 671 671 0 0 1 59.4 56.8 303 303 0 0 1 23.1 28.2q16.05 21.75 21.75 28.65a186 186 0 0 0 22.5 21.6q-5.4-5.55-10.35-11.4a294.5 294.5 0 0 1-39.6-51 250 250 0 0 0-45.3-53.8c-8.5-7.4-19.7-16.1-33.7-26.11s-27.45-19-40.35-27a352.3 352.3 0 0 0-50-23.55q-41.7-16.35-64.31-16.35c-2.83 0-5.37.1-7.67.3Zm-6 13q7.05 3 24 9.15c9 3.3 14.75 5.55 17.35 6.75a28.9 28.9 0 0 1 13.11 9.15 110 110 0 0 1 23 0 221.7 221.7 0 0 1 42.6 7.8q-14.1-6-32.1-12a927 927 0 0 0-98.46-25.95 74 74 0 0 0 10.47 5.15Zm-7.5 4.05q3.9-.9 24.75 15.6 3.9 2.55 13.2 7.8a59 59 0 0 1 6.6 4.2 3.7 3.7 0 0 1 1.65-2.1V325a6.7 6.7 0 0 1 1.45-1.65l-.7-.65.85.3.6-.6q1.5-1.2 2.55-.75a22.7 22.7 0 0 1 6.76-2.25L35.62 305q-11.25-3.6-18.45-6.45a57 57 0 0 1-9.75-5 62 62 0 0 1 5.4 5v-1.05Zm26.4 36.3a63.7 63.7 0 0 1 9.6 7.95c7.25 3.8 17.56 10 30.71 18.31 2.3 1.6 4.6 3.26 6.9 5l-1.35-1.65q-4-4.2-7.35-8c-14.31-8.51-21.41-16.31-21.41-23.41a19 19 0 0 1 0-2.4A161 161 0 0 1 34 315.72q-13.2-9.3-18.15-13.5a147.5 147.5 0 0 1 16.65 24.3l2.85 5c1.29.74 2.65 1.6 4.17 2.6ZM52 350.48a213 213 0 0 1 20.36 16.95l24 21.9q2.25 1.55 26.7 17.35l-20-22.3-26.55-18q-16.07-11-28.76-20ZM702.89 6.77l-.3-.6-1.8 1.5q-3.9 6.75-7.2 13.8a329 329 0 0 0-26.7 81.15q-5.7 28.39-12.45 100.6-1.5 15.9-3.45 50t-3.6 50.5q-1.65 17.1-2.4 54.31a99.6 99.6 0 0 1-8.55 35.8 16 16 0 0 1 1.8 3.45 24 24 0 0 1 1.35 5 307.8 307.8 0 0 0 15.75-86.66 1030 1030 0 0 1 5-104 439.8 439.8 0 0 1 15-104q10.5-34.5 14.4-52.35 3.6-16.8 9-33.6 2.1-6.6 4.35-13a6.9 6.9 0 0 0-.2-1.9m-33.3 36a199.4 199.4 0 0 0-18 40 296 296 0 0 0-6.5 31.05q-1.5 10.5-4.5 31.05-4.05 25.8-7.35 61.95-1.95 20.85-5 62.35v57.45q-.45 5-.75 16.95-.3 10.81-.9 16.81t-1.2 16.95a43.3 43.3 0 0 1-4.35 15 10 10 0 0 1 1.2 1.05q3.15 3 5.85 6a65 65 0 0 1 3.75-7.2c-.4-1.2-.7-2.2-.9-2.95a8.6 8.6 0 0 1 1.95 1 35.9 35.9 0 0 0 4.5-14.65q.3-4.35 2.1-25 1.2-8 2-25t1.8-25.35q5-67.35 6.75-100a547.7 547.7 0 0 1 14.25-100 469 469 0 0 1 10.85-51 108.5 108.5 0 0 1 12.45-27.75 83 83 0 0 1 5.4-7.35Q689 17 685.44 20l-1.8 1.5q-1.5 1.2-3 2.55Zm36.15-22.5-.3 1.2q-2.85 10.5-10.35 35.7-13.35 45.45-16.65 60a709 709 0 0 0-13.35 102.55c-.7 10.4-1.3 27.4-1.8 51.1q-.75 33.3-2.25 51.45a280.6 280.6 0 0 1-20.95 88.61 8 8 0 0 1-.3 1.8 9.7 9.7 0 0 1-1.2 1.65l-1.5 3a41 41 0 0 1 .9 8.7v2l.3-.3a38.4 38.4 0 0 0 7.8-10 37 37 0 0 0 1.35-3.75q.6-2.1 1.2-5a17.6 17.6 0 0 1 2-5.4 736 736 0 0 0 31.35-192.66q2.25-28.35 13.5-101.55 8.25-53.46 10.65-87.7a2.8 2.8 0 0 1-.35-1.35Zm5 19.35q-2.25 18.3-11.1 79.45-12.3 85-13.8 105-3.3 46.11-3.45 47.5a398 398 0 0 1-7 48q-3.45 16.2-9.75 48.46a174 174 0 0 1-13.05 36.85 39 39 0 0 1 1.05 6 34.5 34.5 0 0 1-5.55 13.2 23.75 23.75 0 0 1-10.3 10.92 104 104 0 0 1-1.35 11.1q1-1 2.1-2.25a80.7 80.7 0 0 0 10-13.2 114 114 0 0 0 5-10.95 8.2 8.2 0 0 1 .75-1.65l-1.65.9q1.2-1.35 2.4-2.85a67 67 0 0 1 2.55-6.45 7 7 0 0 1 .75 1.2q18.9-32.55 37.65-137.21 18.6-103.1 18.6-146.65V117a43 43 0 0 0-1.59-10V57q-.84-9-1.2-13.65Zm6.3 18.6v47.55a38.7 38.7 0 0 1 1.45 10.6v10.8a492 492 0 0 1-5.4 72.45q-2.19 15.9-13.3 75-15.75 81.9-16.2 84-10.35 40.85-24.75 55.45a73.2 73.2 0 0 1-7.35 20.4q-8.4 18.3-17 19.5a55 55 0 0 1-2.55 6 158.4 158.4 0 0 0 29.25-20.4l3.75-7.5h-.6a2.1 2.1 0 0 1-.3-1.2l5.4-12.75a145 145 0 0 0 8.55-24 142 142 0 0 1 6.15-18.25q7-18.15 7-18.3 8.21-22.26 23.85-72.56 5.85-19.5 9.6-69.4 3.15-41.55 3.15-76.2a105 105 0 0 0-1.25-15.41 112 112 0 0 1-1.35-12.9 246 246 0 0 0-2.55-24.55c-1.75-12.8-2.65-19.5-2.65-20a6 6 0 0 1 0-1.2c-1.1-2.8-2-5.3-2.8-7.1Zm21.55 53c.9 5 1.85 11 2.85 17.65a356 356 0 0 1 5 47.1q0 11.7-1.65 35.55-1.65 24.6-1.8 36.45a222 222 0 0 1-3.75 35.65q-2.1 12.45-7.5 35.85A342.3 342.3 0 0 1 697.19 410a195 195 0 0 1-16.8 26 13.5 13.5 0 0 1 .45 4.65 17.6 17.6 0 0 1-1.35 7.05 170 170 0 0 0 35-40.8q5.4-8.85 11.25-20.8 11.1-39.45 20-80.26 15-67.8 15-103a212.3 212.3 0 0 0-4-41.55q-2.55-10-3.61-15-5.4-13.8-11.85-29.05c-1.15-2.2-1.75-4.15-2.55-6Zm-5-11.7q-5-12.3-9-21.9 1.65 11 3.75 26.7 4 31 4 35 0 35-3.15 76.95c-2.45 33.45-5.7 56.6-9.6 69.4q-3.6 11.7-11 36.6-6.9 21.6-12.6 36.61-4.5 12-11.25 36.7A117.2 117.2 0 0 1 672 423.13a21 21 0 0 1 .3 4.2q0 5-10.5 18a.5.5 0 0 0 0 .3 73.1 73.1 0 0 0 22.05-21.9 139 139 0 0 0 9-17.7 153 153 0 0 1 9-18.45 156.7 156.7 0 0 0 15-35q6.55-24.31 10-35.86t10-71.7q5.7-56 5.7-69.55 0-8.1-4.65-45.9c-1.95-13.25-3.25-23.3-4.15-30.1ZM567 51l-9.6 17.7a225.4 225.4 0 0 0-18.4 57.42 344 344 0 0 0-4 40q-.6 12.9-1.65 38.7a17 17 0 0 0 0 2.25q3.3-12.75 7.2-23.7a3.5 3.5 0 0 1-.6-1.65 35 35 0 0 1 0-4.35l1.35-21.15a243.9 243.9 0 0 1 10.7-63.7 179 179 0 0 1 16.65-43.2A15.6 15.6 0 0 0 567 51m9.1-.9c.85 3.9 1.65 9.05 2.45 15.45a248 248 0 0 1 2.5 27.75 136 136 0 0 1-.7 14.7 59.4 59.4 0 0 1-2.7 13.45c3.45-4.3 6.7-8.15 9.55-11.5a37.5 37.5 0 0 1-1.3-12.9 79 79 0 0 0-.5-16c-.9-7-1.6-12.3-2.05-15.9a45.4 45.4 0 0 0-2-9.15c-2-2.1-3.7-4-5.25-5.95Zm10 10.8q.9 3.75 1.8 8.55a170 170 0 0 1 3 30.3v5a10 10 0 0 1 4.65-5.4l5-6.3-10.5-28.7Zm12.3 11.7a83.5 83.5 0 0 1 5.7 16.65q3-3.6 6-6.9L598.14 72Zm-23-7.6q-.75-8.25-1.2-13.5-.6 10.5-4.65 43.35-3.75 30-5.7 43.45a5.5 5.5 0 0 0 .6-.75q5.6-6.8 10.6-12.55v-.9a195.5 195.5 0 0 0 2.55-30.55Q577.39 87 575.44 65Zm-27.3.9a152.3 152.3 0 0 0-21.75 38.25 419 419 0 0 0-14.55 55 107.1 107.1 0 0 1 18.6 33q-.75-15.45-.75-22.5 0-25.35 11.85-69.55a217 217 0 0 1 14.1-39.75q-3.45 2.79-7.5 5.65Zm17 12q2.25-15.6 4.35-24.3a411 411 0 0 0-26.85 124.75 138.1 138.1 0 0 1 19.65-37.65q-.45-2.85-.75-7.5-.75-7.95-.75-10.95a340 340 0 0 1 4.34-44.38Zm68.2 13.95a109.6 109.6 0 0 0-5.4 23.65q-1 8.1-2.7 23.7-5 39.15-5.55 46.8-2.85 26.85-3.45 47.25v46q0 6.15-.75 18.45v50.7q-.75 5-1.5 22.21-1.05 11.7-4.2 14.25a56.7 56.7 0 0 1 9 5.85V390q4.35-51 4.35-62.66a2.8 2.8 0 0 1 .3-1.5l.45-.75v-57.42Q630.59 175 637.49 129q9.45-63.66 31.2-95l-14.1 12q-1.5 3.45-7.65 15.6a252 252 0 0 0-13.8 30.3ZM604.34 96q.3.75-1.35.75-3.45 3.75-6.6 7.5-14.55 31.7-14.5 119.2 0 30 4 79.15t3.75 62.4a117 117 0 0 1-.45 12.15q3.45.75 6.75 1.8a26.7 26.7 0 0 0 1.35-7.35V364q-3.6-91.36-3.6-104.56a985 985 0 0 1 5-98.65q5-49.65 13.65-74.05-3.9 4.05-7.65 8.25a6 6 0 0 0-.5 1Zm11.55 1.8a186.4 186.4 0 0 0-11.55 56.35q-.45 17.55-2.25 42.3-.3 2.1-3.75 42.75v45q0 10.65 1.5 42.3t1.35 37.36v10a21.4 21.4 0 0 1-1.2 6.9 32.7 32.7 0 0 1 5.55 2.2c0-2 .85-7 2.25-15q3.3-18.15 3.6-20.26l.75-115.3q2.25-16.35 3.9-47.1 1.65-32.85 3.45-47.7a202.3 202.3 0 0 1 28.2-85q-11.55 10.5-21.75 20.7-2.85 6.34-10.2 24.5Zm-56.8 58a185 185 0 0 0-10 19.35q-.9 4.65-2.25 11.85a90 90 0 0 0-1.5 15q0 1.8-1.5 15a753 753 0 0 0 6.25 83q6.3 54.15 12.6 73.66a57 57 0 0 1 8.4.6q-5-13-10-78.16-5-64.2-5-92.5a251 251 0 0 1 2.1-36.15 95 95 0 0 1 4.35-17.85q-1.8 3-3.6 6.2Zm-15.6 33.6q-3.45 9-6.15 18.45-.3 2.4-2.25 23.25c-.4 5-1 10-1.65 13.9a521 521 0 0 0 6.65 59.1q1.65 9.6 8.4 41.1 5 23 6 28.36h3.15q-3.75-5.4-6.15-24.75-3-32.56-4.35-44-3.15-23.55-4.5-35.4a324 324 0 0 1-2.25-35.5q0-23.4.75-31.05a95 95 0 0 1 2.2-13.5Zm17.4 14q0 2.1 5 66.1t5 68.25a131 131 0 0 0 2 15.31 138 138 0 0 1 1.8 16.5v5a76 76 0 0 1 9.7 1.5 9.1 9.1 0 0 1 0-2.85 31.3 31.3 0 0 0 1.55-8.4q-2.21-27.31-4.4-57-4.35-59.4-4.35-84.25a670 670 0 0 1 4.2-72.75 234 234 0 0 1 6.15-36.3c-5.8 7.1-11 14.15-15.85 21.15q-.6 3.45-5.4 23.4a213 213 0 0 0-5.5 44.35ZM756.55 141l2.7 6.3a33 33 0 0 1 11.1-16.5l.3-.3A38.55 38.55 0 0 0 756.4 141Zm4.2 10q3.9 9.6 7 17.85a58.6 58.6 0 0 1 4.65-10 125.5 125.5 0 0 1 15.75-22A89.6 89.6 0 0 1 808.7 119c-3.7.7-7 1.45-10 2.1l-9.45 2.4a80.3 80.3 0 0 0-14.25 10 55.9 55.9 0 0 0-14.45 17.75Zm14.55 40q5-13.35 28.5-43.35 21-27 33.3-35-2.55.45-5 1a104.9 104.9 0 0 0-43.05 28.65 192.4 192.4 0 0 0-19.65 30q.9 2.85 1.8 5.4 2 7.31 3.9 13.65Zm-12 36q0 27.6-15.91 94.3-5.25 22.2-10 38.41l4.05-9.15Q753 325.81 762.1 300q16.5-45 16.5-60.4 0-22.65-16.65-70a274.6 274.6 0 0 1 2.4 38.55Zm15.6 40a157.4 157.4 0 0 1 18-27.55 56 56 0 0 0-13.9 10.77c-1.05 4.8-2.4 10.6-4.2 17Zm4.35-39.7q1.95-6.45 5-15.75a257 257 0 0 1 15.6-40.35q6.45-11.1 17.7-35.55a79 79 0 0 1 10.65-14.1 186 186 0 0 0-29.1 32.55q-6.15 8.85-26 43.35a190.3 190.3 0 0 1 6 30.1Zm66.85-116.1a186.2 186.2 0 0 0-41.05 62.8q-.75 1.5-13.65 35-6 15.75-11.55 27.3v8.25A48 48 0 0 1 798.1 234a205.1 205.1 0 0 0 29.55-62.7 150 150 0 0 1 6.15-16.3q5-11.1 7.5-16.8c.8-1.9 2.75-8.15 6-18.75a75 75 0 0 1 2.8-8.28Zm5-1.7h-.5a3.24 3.24 0 0 0 .35 1.8 6.8 6.8 0 0 1 .15-1.83Zm7.9 30a146 146 0 0 0-2.7-19.2c-.35 3.9-1.4 11.65-3.1 23.25q-3.36 22.5-5 29.25a239 239 0 0 1-7.1 27.2 65.8 65.8 0 0 1-11.05 18.45l16.8-6.6 9.45-3.75a105 105 0 0 0 3.25-20.55v-21.73c-.1-14.9-.15-23.7-.4-26.2Zm24 60a182 182 0 0 1-34 16.65q-6.11 8.7-13.3 19.5A234.6 234.6 0 0 0 816 278a251 251 0 0 0-9.3 32.55 170.6 170.6 0 0 1-10 32.1q-10 21.16-30 64.61A207.9 207.9 0 0 1 717.39 470a12 12 0 0 1-2-.3c-.3 0-.5-.55-.5-1.35a231.7 231.7 0 0 0 28.2-32.7 365 365 0 0 0 50.56-96.76q2.7-7.65 9-32.4a209 209 0 0 1 10.5-32.85 304 304 0 0 1 20-38.65 115 115 0 0 1 10.65-15l-13.65 5q-2.25.75-4.5 1.65a175.9 175.9 0 0 0-30 57.4q-1.8 5.4-9 31.2a303 303 0 0 1-10 31.05Q734.33 452.1 709.19 467.6a26 26 0 0 1 14.7 10.95 184 184 0 0 0 17.5-18.55 299.3 299.3 0 0 0 36.46-55 608 608 0 0 0 32.25-72.86q8.25-24.15 12.75-36.75a240 240 0 0 1 16.2-36.6q7.65-13.2 11-18.15a100.4 100.4 0 0 1 15.55-18.25q17-15.3 19.05-16.95a39 39 0 0 0 2.7-4.35 7.6 7.6 0 0 0-.15-1.5ZM831.25 175a212 212 0 0 1-11.55 31.35 99.6 99.6 0 0 1-16.8 25 176 176 0 0 1 20-8.55l6.6-2.4a155.1 155.1 0 0 0 20-55q3.15-31.65 5-51.15a253 253 0 0 1-11 30.45q-5.5 14.12-12.25 30.3m-31.65 63c0 .6-3.9 8-11.7 22.45a270 270 0 0 0-17.25 36.45l-10 29.25q-5.85 17.7-10 29.26-21.45 59.15-27 71.5-19 42-35 42.3l.6-.6a30.6 30.6 0 0 1-13 2.85 92 92 0 0 0 20.4 8.55 19.7 19.7 0 0 1-1.05-7.5q.6-5.55 9.15-5.7 6.3-7.65 14.2-18.75a247.8 247.8 0 0 0 25-41.7L759.4 375a250.5 250.5 0 0 0 13.2-31.51q13.95-49.2 23.25-73.95 10.65-27.9 21.45-39.7a166 166 0 0 0-17.7 8.25Zm86.5-16q-3.9 8.1-10.8 20-17.7 29.05-21.45 36.1-8.16 15.9-16.75 35.55-3.75 9-14.55 35.41-5 12.3-12.45 35.85a148.9 148.9 0 0 1-17.1 35q-3.75 5.55-11.55 17.55-7.2 10.65-13.05 18a157.6 157.6 0 0 1-20.86 18.45 120.3 120.3 0 0 1-18.15 13.05 1.5 1.5 0 0 0 0 .6 181 181 0 0 0 25-17.55 241.9 241.9 0 0 0 49.36-53.85 390 390 0 0 0 22.35-36.45 151.7 151.7 0 0 0 14.4-37c4.5-20 7.3-32.3 8.5-36.6a154.5 154.5 0 0 1 15.45-37.2q3.6-6 11.55-18.3a61.3 61.3 0 0 0 8-18.85c.77-3.4 1.48-6.6 2.15-9.6Zm9.6-8.25A240.6 240.6 0 0 1 880.1 285q-18.45 51.45-21.25 70.36a94.7 94.7 0 0 1-17.55 36.7q-8.7 12.45-27.9 37.05a259.5 259.5 0 0 1-27 34.35Q757.15 495 734.64 495H733a45 45 0 0 1 2 5l1.2 3a67 67 0 0 1 7.2 0 92.9 92.9 0 0 0 29.71-11.55 78 78 0 0 0 10.35-7.2l5.4-4.2 4.05-4.35q7.2-7.65 20-22.5l18.75-21.75-1.05.45q21.75-26.85 44.5-88.31 23.06-63.6 23.05-99a187 187 0 0 0-1.8-26.55q-.3-2.25-.6-4.2Zm-10 25q-4.2 9.71-20 36.85a151.8 151.8 0 0 0-14.1 35.55c-2.2 7.9-4.7 20-7.6 36.45q-5.7 32.87-50 88.16a339.4 339.4 0 0 1-35 38.1 89 89 0 0 1-18.46 13.95A111.6 111.6 0 0 0 782 461.53a184 184 0 0 0 15.75-18.6q12.3-16.5 14.4-19.05 36.15-43.8 43.8-74.35 4.4-17.71 25.75-87a191.4 191.4 0 0 0 7.05-33.4 93 93 0 0 1-3.2 9.65Zm1.65-33L870.65 225a217.5 217.5 0 0 0-31.9 45.4q-6.3 13.65-14 35.4-10.65 30-12.75 35.4a625 625 0 0 1-30.6 70.61 260.5 260.5 0 0 1-55.51 69.45q.75 1.2 1.65 2.4a185.3 185.3 0 0 0 61.51-67.2 310 310 0 0 0 16.8-37.15q9-24.6 13.5-36.46A669 669 0 0 1 851.8 270a390 390 0 0 1 23.8-35.8 67.36 67.36 0 0 0 11.55-28.45Zm61.95 6v.45a2.7 2.7 0 0 1 .75-.75Zm-10 16.35a139.2 139.2 0 0 0-15.6 28.6 120.7 120.7 0 0 0-5 22.05q-2.55 16.65-3.9 21.9a315 315 0 0 0-6.5 44.4 79.2 79.2 0 0 1-8.85 25 3.64 3.64 0 0 0-.45 1.65 66 66 0 0 1-3.15 8.1c6.1-3.75 12.45-7.25 19-10.65a10.5 10.5 0 0 0 1.5-.75h-.6a2.1 2.1 0 0 1-.3-1.2c0-.8 1.55-5 4.65-14.7a190 190 0 0 0 6.5-25.5 185 185 0 0 0 1.8-19.65q1.05-18.75 1.2-20.4 3.6-32 6.6-45a107 107 0 0 1 5.4-17.4Zm5.55-14.25a92.6 92.6 0 0 0-27.75 18.6 103.3 103.3 0 0 0-12.75 16.2 267.6 267.6 0 0 1-8.1 45.55q-3.15 12.75-12.3 45a190.4 190.4 0 0 1-20 47.41 96.3 96.3 0 0 0-9 22 259 259 0 0 1 31.45-23.1 145 145 0 0 0 16.6-42.29q1.8-8.1 7.2-45a223 223 0 0 1 10.65-44.55 127.6 127.6 0 0 1 23.65-39.8ZM95.08 271.42q-11.7 1.05-21.75 2.1 60.49 15.6 126.75 63.45 41.7 30 61.65 55-.45-1.5-.75-3a457 457 0 0 0-48.9-56.66 312.9 312.9 0 0 0-104.8-60.9Zm71.15 3.6q3.3 1.65 26.85 15.75a129.4 129.4 0 0 1 21.25 15.45q6.6 5.7 16.2 15.6a152.4 152.4 0 0 1 22.8 30q-1.2-6.76-2.1-14a185.7 185.7 0 0 0-17.55-28.8 123.2 123.2 0 0 0-30.9-28.2 297 297 0 0 0-40-7.35Zm-21.15-3.6h-30a253 253 0 0 1 45 19.35 230.3 230.3 0 0 1 51.25 35.85q10.95 11 31.2 33.91 9.15 10.35 15.45 18-1.2-5-2.1-10.35-.3-1.65-.6-3.15a255 255 0 0 0-28.65-40.81 224.7 224.7 0 0 0-78.25-52.5ZM288.43 160a134 134 0 0 0 12.15 6q-1.14-3.33-1.95-6.75-2.4-16.5-2.4-16.65Zm-34.65-18a147 147 0 0 1 27.75 38.55 436 436 0 0 1 20.25 45 464 464 0 0 1 18.3 47.05q5 15.75 15 47.4 5 15.6 14.7 47.56a330.5 330.5 0 0 0 19 47.45A351.5 351.5 0 0 0 398 462.28 127.4 127.4 0 0 0 419 485a97.7 97.7 0 0 0 13 9.15 109 109 0 0 1-12-9.5q-20.56-18.75-20.56-28.95a209.8 209.8 0 0 1-21.45-44.25q-7.05-19.35-14.7-50-7-28.37-9.3-33.91-5-12.45-13.5-42a370 370 0 0 0-14.2-42.75 426.2 426.2 0 0 0-48-82.8 126 126 0 0 0-17.1-13.65q-3.75-2.4-7.5-4.5Zm-10 35.25a94 94 0 0 0 0 11.85 43 43 0 0 1 1.65 4.65 427.8 427.8 0 0 1 33.45 84.1q8.7 29.25 23.85 87.91A383.9 383.9 0 0 0 338.08 453q11.85 20 13.35 22.05a121.3 121.3 0 0 0 17.7 21.75 143.6 143.6 0 0 0 27.75 21.85 129 129 0 0 0 42.76 12.15 160 160 0 0 0 17.8-5q9.75-3.26 16.35-5h-19.4q-44.16-2.7-66.56-13.3-17.74-8.89-17.75-19.85 0-.75 1.2-1.65a5 5 0 0 1 4.5-.75h.45a2 2 0 0 1 .3 1.35 1.44 1.44 0 0 1-.9 1.35 20 20 0 0 1-2.4.9 29.18 29.18 0 0 0 17.55 15.45 127.3 127.3 0 0 0 26 6.9q-40-17.25-73.81-70.8a492.5 492.5 0 0 1-47.85-106q-5.85-18-12.45-47.7-8-36.69-11-47.65a274 274 0 0 0-28-69 35 35 0 0 1 .15 7.1Zm1.3 25.95a189 189 0 0 0 6.45 27.3q5.7 18 18.55 53.35l1.2 3.45a299 299 0 0 1 15.3 50q12 55 15 63.86A330.5 330.5 0 0 0 327.53 465a191.4 191.4 0 0 0 50 54.7v-.4a6.26 6.26 0 0 1 6.75-2.55.59.59 0 0 0 .3.45c.3.2.3.5.3 1.15s-.75 1.65-2.25 2.9a10.6 10.6 0 0 0-1.5 1.35c2.3 1.55 3 2.6 2.1 3.1s-.7 1.15.6 2.1a111 111 0 0 0 16.65 6 27.6 27.6 0 0 0 4 .3q8.4 0 16.81-.75-46.26-11.55-82.71-71.05a355.4 355.4 0 0 1-40.3-96.4q-3.75-15-12-43.21-8.85-30-12.3-43.35a491 491 0 0 0-18.45-50q-7.05-17.44-10.5-26.45a.5.5 0 0 0 .05.33Zm-5.55-24.45a60 60 0 0 0-9.15-26.55 118.8 118.8 0 0 0-15.9-20.7h-2.25q.75 2.7 17.25 30.3 6.3 10.65 10 18.3a7.6 7.6 0 0 1 .05-1.33ZM260.08 190l15.6 45c1.8 7.45 5.7 23.6 11.7 48.6q7.2 30.6 11.85 48.15a366.2 366.2 0 0 0 43.3 96.86q4.65 7.65 14.55 24.45a118.2 118.2 0 0 0 19.5 24q2.1 1.8 11.7 12.45a66.8 66.8 0 0 0 14.1 12.15q20.72 12.9 66.41 12.9l.75.45a9.7 9.7 0 0 0-1.35 1.2h7.65a84 84 0 0 1-14.1-7.55 131 131 0 0 1-17.2-2.65 171 171 0 0 1-17-4.65q-7.35-2.55-15-5.7-31.06-13.05-31.06-24.15a7.08 7.08 0 0 1 2.55-6.5 340 340 0 0 1-21.45-28.8q-10.35-16.2-12.55-19.35a211 211 0 0 1-25.45-47.95l-16.2-48a466 466 0 0 1-12-48.45 497 497 0 0 0-11.85-48.4 185 185 0 0 0-56.15-83.4 68.8 68.8 0 0 1 7.65 10l1.5 2.4A125.7 125.7 0 0 1 260.08 190m-16.5 28.2v9.3a183 183 0 0 0 2.4 23.1l3.6 23.2q1.8 15.3 4.35 46.2a399 399 0 0 0 6.9 46.51l5.55 16.75c-.8-1.5-1.65-2.95-2.55-4.5q1.5 5.64 3.15 11 6.6 26.1 6 18.6a6.7 6.7 0 0 0-.3-2.1 295.6 295.6 0 0 0 26.4 52.95q20 31.2 61 57.9l3.6 2.25a211.3 211.3 0 0 1-28.6-23.25 199 199 0 0 1-22-26.55 126.2 126.2 0 0 1-14.55-26.4 247.2 247.2 0 0 1-12.65-52.6q-4.2-35.5-6.9-53.11A340.5 340.5 0 0 0 265.63 285Q253 249.32 247 232a119 119 0 0 1-3.6-13.9Zm-24-87.45q44.55 22.2 68.85 93.9a575 575 0 0 1 15.15 56.2 387 387 0 0 0 9.42 37.97q13.75 43.2 15.85 48.91a200.1 200.1 0 0 0 26.2 48.4q4.35 5.7 15.6 24.15A192 192 0 0 0 387.33 464c3.34-.7 5 .15 5 2.55a2.32 2.32 0 0 1-.75 2 7 7 0 0 0 .75.9l-4.35.3-.3-.3a1.87 1.87 0 0 0-.9.45h-.6a1.4 1.4 0 0 1 .3.45 1.9 1.9 0 0 0-.45 1.35q0 7.2 20.4 16.05l-1.65-1.35 3 2.25q3.6.6 14.26 3L410.49 484l-20-22.8a174 174 0 0 1-15.9-23.55q-4.35-7.8-12-23.7a387 387 0 0 1-18-46.6q-9.49-31.66-14.5-47.26-27.24-80-32.95-94a356.7 356.7 0 0 0-52.35-88.8 68.5 68.5 0 0 0-25.35-6.6Zm230-21.45q28.6 36.77 49.42 118.07a597 597 0 0 1 21.05 147.26v1.05a3.88 3.88 0 0 1 3-1.35 4.94 4.94 0 0 1 2.85.75q1.95-.6 3.9-1.05-2.25-8.7-6.3-44.41-7-60.9-10-77.7-8.46-47.29-11.75-61.9-1.2-5.25-2.55-10-2.55-6.6-5.7-14.55-9.3-23.4-11.25-29.55-5.85-5.29-12.2-10.9c-6.5-5-13.3-10.45-20.6-15.85ZM523 84a95 95 0 0 0-16 20 128.8 128.8 0 0 0-14 35 193 193 0 0 1 16.65 17.85v-2.55a328 328 0 0 1 13.89-54.3 119 119 0 0 1 15-26.85q-6.9 5-15 10.35a1 1 0 0 0-.6.35Zm-11.1 7.5q-30 20.55-40 29.05 8.55 6.9 15.75 13.5l1.2 1.2q.3-11.85 18.45-37.75 2.25-3.3 4.5-6.15Zm-170-35.7q0 20.85 30.6 91.3 15.9 36.6 36.91 81.75 15.9 38.46 30 78.7 24.54 70 24.55 93.11v1.65l.9-.6a305.4 305.4 0 0 0-13.15-87.41q-19.65-60.9-28.95-91a441 441 0 0 0-17-45.3q-13.35-30-20.4-45.9-4.65-10.65-27.3-51.4-10.43-18.7-15.38-28.48Zm1.2-11q36.45 48.45 79.51 165 45.5 123.06 47.05 188.61a93 93 0 0 1 8.7-5.25 432 432 0 0 1-9-42.7q-5-30.76-8.4-43.81-7.35-29.14-10.9-43.85-6.33-25.8-12.37-43.8a790 790 0 0 0-34.06-87.75 398.8 398.8 0 0 0-52.25-82Zm-8.65 30q0 25.35 23.35 76.75 11.85 26.7 32.25 69a173 173 0 0 1 12 18.45c2.5 4.4 6.2 11 11.11 19.75a225 225 0 0 1 14.55 28.95q-9.15-24.15-22.21-55.3-18-38.55-35-77.85-33.6-77.81-33.6-95a28 28 0 0 1 0-3.45c-.5 1.3-1.05 2.65-1.55 4 .25 1.4-.3 6.2-1.2 14.5Zm-4.4-1.05c-.5 2.4-1.2 6.1-2.15 11.1a138 138 0 0 0-2.85 17.4 117.2 117.2 0 0 0 13.45 49.15q7.05 15 23.1 43.35a122.7 122.7 0 0 1 18.45 14.7l-6.6-12.3q-14.1-26.85-20.7-43.05-10.8-23.85-15.45-35a95.4 95.4 0 0 1-7.8-34.45 107 107 0 0 1 .58-10.83ZM313.63 110a49.4 49.4 0 0 0-1.2 7 101.2 101.2 0 0 0 7.35 34.15 155.4 155.4 0 0 0 14.4 29.1l4.6 2a199 199 0 0 1 17.85 9.3 194.5 194.5 0 0 1-22.35-37.35 128.7 128.7 0 0 1-13.6-52 81 81 0 0 1 .75-11.2q-3.15 5.55-6.75 12.45-.15 1.55-1.05 6.55M303 127.82a45.9 45.9 0 0 0-2.7 15 41.9 41.9 0 0 0 2.4 15 49.5 49.5 0 0 0 6.9 12.2l16.05 6.9a30 30 0 0 1-1.95-3.45 110.6 110.6 0 0 1-8.25-18.75 188.4 188.4 0 0 1-7.65-30.6v-7.2q-2.1 4.2-4.35 9.45c-.1.33-.25.8-.45 1.4Zm62.1-71.25q30.75 31.35 66.31 130.6 16.5 46.2 29.1 93.4 11.19 42.15 11.2 52.65a127 127 0 0 0 2.55 15q2.7 12.91 2.7 14 .45 6.45 3.6 28.5v1.15c2.5-1.3 5-2.5 7.8-3.75a166 166 0 0 1-6.3-30q-7.5-47.71-8.1-51-5-27.45-8.25-41.7c-3.4-16.5-6.55-30.35-9.45-41.65a445.3 445.3 0 0 0-31.15-83.05A539.4 539.4 0 0 0 380.48 65q-7.65-4.24-15.4-8.43Zm25.5 14.25q1.65 2.25 3.15 4.65 4.35 7.05 12.45 21.3 14.11 23.6 22.51 41.35a461.5 461.5 0 0 1 31.4 83.25q5.45 20.7 16.65 74.2 15 71.25 15 90.91c2.6-1.15 5-2.2 7.95-3.3q-1.5-9.75-8.55-57.46-10-67.65-17.25-97.3A409.4 409.4 0 0 0 406 80q-7.5-4.56-15.45-9.2Zm-60 112.75c-5-1.9-10.7-3.95-17.05-6.15a163.7 163.7 0 0 1 43.15 68.05q3.4 10.35 10.9 39.55a313 313 0 0 0 12.15 39.3q10 25.5 24.6 91.76a226 226 0 0 0 7.51 23.55 21.7 21.7 0 0 1 10 6.6q5 5 8.1 8.25a8.8 8.8 0 0 1 .3-2.4q.45-2.4 1.05-4.5-4.35-6.3-13.8-50.4-13-62.16-18.11-83a307 307 0 0 0-10-32.7Q380.08 255 377.63 247q-5-16.05-24-40.35l-17.85-21-1.5-.6a2.7 2.7 0 0 1-.9 0 4.2 4.2 0 0 1-2.85-1.5Zm10.8 4.65a146.3 146.3 0 0 1 42.45 56.1 254 254 0 0 1 11.55 33.85q3 11.4 8.85 33.15 9.15 42.3 29.26 129a52.5 52.5 0 0 1 5-11.1 113 113 0 0 1-2.1-16.8c-1.6-19.4-2.55-30-2.85-32.2a383 383 0 0 0-11.25-51.76q-10.65-36.9-15.31-51.75c-5-16.1-10-30.7-15-43.9q-1.5-2.4-2.4-3.6a141 141 0 0 0-40.35-37 76 76 0 0 0-7.9-3.9Zm60 60.55q5.25 12.15 10 26.25 3.75 11.4 15 51.9a450 450 0 0 1 10 49.36 453 453 0 0 1 5.25 48 62.6 62.6 0 0 1 7.25-9.2q-4.5-5.4-6.75-27.3-2.55-34.61-4.5-46a215.3 215.3 0 0 0-9.6-37.8 226 226 0 0 0-16.65-37.2q-5.86-10.29-10.21-18Zm-91.05-72.4a175 175 0 0 1-24.3-10q24.45 27.15 45.85 80a812 812 0 0 1 26.55 79.2q4.05 13.8 12 42.76 6.06 21.46 14.25 42.25 3 7.05 7.95 21.3a176 176 0 0 0 9.3 20.7 6.1 6.1 0 0 1 3-1.5 4.8 4.8 0 0 1 1.2 0l.3.3c.3.3.3.35.3 1.05a7.1 7.1 0 0 1-1.35 2.85l-.3 7.2a.5.5 0 0 0 0 .3v.3a38.3 38.3 0 0 0 6.16 10.65 32.84 32.84 0 0 0 15.6 10.35l13.8 7.65.75.45 1.95 1.05a55.6 55.6 0 0 1-8.55-11q-4.2-.3-10.35-7.95-10-8.4-17.56-30a260 260 0 0 1-7.35-26.25q-2.7-13.8-3.45-16.2-.3-1-9.6-38.8-6-23.86-11.25-38.71-5-13.35-11.4-38.7-6.9-26.4-11.1-38.65a191.6 191.6 0 0 0-42.42-70.6ZM486.64 140q13.65 22.2 24.3 68.55l-.45.3q1.35 6.9 6.3 32.65 3.75 20.4 5.4 32.1a321 321 0 0 1 4-33.25q-6.75-35-7.65-38.85a271 271 0 0 0-12.3-40.65 233 233 0 0 0-19.6-20.85m35 51a206.4 206.4 0 0 1 7.5 35.55q1.65-8.25 3.9-16.95a16 16 0 0 1-.45-2l-1.05.45a41 41 0 0 0-.3-5 113.7 113.7 0 0 0-16.15-30.65 182 182 0 0 1 6.35 18.6Zm-54.45-3.9a203.5 203.5 0 0 1 11.25 39.3q.45 2.7 12.45 71.65 11.25 67.95 11.7 84.16c4.6-1.8 9.4-3.4 14.4-5q-3.15-2.06-4.35-26.35-2.25-39.17-2.7-42.91a487 487 0 0 0-13.35-69.25q-15.3-53.25-21-69.6a327.5 327.5 0 0 0-29.5-62.85q-15-10.86-32.7-21.85a150 150 0 0 1 17.7 24 432 432 0 0 1 20 39.55q13.5 33 15.9 39.2Zm64.65 45a304.6 304.6 0 0 0-5 56.05 198.9 198.9 0 0 0 16.8 84.61l-.6 1.05h8.4q-21.6-94.06-21.6-115v-12a67 67 0 0 1 1-8.2q.3-3.15.75-6.6Zm-98.55 70.65a274 274 0 0 1 8.85 33.9q2 9.52 2.95 19.21 1.65 15.75 2.1 19.5c.8 6.1 2.95 17.85 6.6 35.35a15.6 15.6 0 0 1 1.6-1.65c1.75-1.5 3.45-2.95 5.3-4.35a280 280 0 0 1-8.25-32.5c-6-27-10.45-44.71-13.2-53.11q-2.8-7.63-5.95-16.33Zm35.95 101.36a2.58 2.58 0 0 1-1.95 1.05 97 97 0 0 0-14.7 13.05 70.1 70.1 0 0 0-16.75 27.6q-.3 3.6-1.8 13.2v1.5a3.1 3.1 0 0 1 0 .75v1.5a41 41 0 0 0 1.65 9.45 16.67 16.67 0 0 0 3.45 12.8l5 3a51 51 0 0 0 3.85 4.35 56.7 56.7 0 0 0 11 8.55l4 1.8.5.75a131.55 131.55 0 0 0 51.6 12.7 238.7 238.7 0 0 1 66.6-38.25q10-3.75 28.3-11.85a89 89 0 0 1 15.45-3.6q1.8-6.3 3.75-12.9 2.55-9.75 3.6-16.5a49 49 0 0 0 .6-7.05v-1.5l-1-.3v-4.5l.45-.75a45.36 45.36 0 0 0-12.45-21.3 64.1 64.1 0 0 0-32.4-16.9l-1.05.3a9 9 0 0 0-.75-.75 106.6 106.6 0 0 0-16.5-2.25 4.37 4.37 0 0 1 .5 2.25 4.7 4.7 0 0 1-.5 2.65 3.52 3.52 0 0 1-2.2 2 28 28 0 0 1 .45 5.35v1.35l1.75-.85a5.1 5.1 0 0 0 1.55.3c.3 0 .45.45.45 1.15a3 3 0 0 1-1.5 2.25 5.82 5.82 0 0 1-3.45 1.2 9.57 9.57 0 0 1-5-1.2 2.44 2.44 0 0 1-1.35-1.95c.13-.58.23-1.17.3-1.75l2 .7a9.4 9.4 0 0 0 1.95.6 4.3 4.3 0 0 1-.45-1.95 22 22 0 0 1 .45-5 3.76 3.76 0 0 1-2.4-1.5 4.9 4.9 0 0 1-.3-1.85 5 5 0 0 1 1.8-4.15h-9.1l-1.65.75a2.4 2.4 0 0 1 0-.75l-21.9.45-3.45.9a3.79 3.79 0 0 1-1.5 2.85v3a12 12 0 0 1 0 1.9 11.1 11.1 0 0 0 5 0l.45.3a2.8 2.8 0 0 1 .3 1.2q0 2.7-4 2.7a10.2 10.2 0 0 1-4-.75h-.9v-.45a7.3 7.3 0 0 1-1.35-1 4 4 0 0 1-1.5-2.55v-.9a13.6 13.6 0 0 1 2.85.8 20.5 20.5 0 0 1 .75-3.8 4.58 4.58 0 0 1-2.85-1.35 172.8 172.8 0 0 0-37.5 14.55q4.05-.3 4.05 4.2a11.5 11.5 0 0 1-.45 3.9 4.13 4.13 0 0 1-1.7 1.45 25 25 0 0 1-.75 3.6 11 11 0 0 0-.6 2.1 20.2 20.2 0 0 0 4.65.75l.75.75a3.2 3.2 0 0 0-1.05 1.8c-.37.66-1.37 1-3 1a7.16 7.16 0 0 1-7.5-4.2c-.5-3-.8-4.67-.9-5q1.65-1.2 2.7 1.5a6.2 6.2 0 0 0 1.65 2.25 18.4 18.4 0 0 1 .45-2.55 3 3 0 0 1 .3-1.35 3.35 3.35 0 0 1-2.85-2.1 5.4 5.4 0 0 1-.45-2.4 6.56 6.56 0 0 1 .75-3.45 91 91 0 0 0-9.6 6.15c-.37.43-.5.52-.6.22Zm36.9 18.9a5.9 5.9 0 0 1-.75-2.1 4.6 4.6 0 0 1 3.75-5.25q3.6-.9 3.6 2.4a10.8 10.8 0 0 1-.75 5 3.23 3.23 0 0 1-1.95 1.65v4.5a76 76 0 0 0 8.25.9 2.18 2.18 0 0 0-1 1.8q-.6.9-5.55.9a9.8 9.8 0 0 1-5.55-1.35l-2.85-2.4v-1.5a14.6 14.6 0 0 1 3 .6 13.2 13.2 0 0 1 .45-3.75 7.5 7.5 0 0 1-.65-1.41Zm22.5-23.1q-.6 1.65-3 1.65h-.55V405l6 1.05 1 1.05q-.6 1.8-5 1.8a8.6 8.6 0 0 1-3.15-.75h-1a2.3 2.3 0 0 1-.6-1.05 43 43 0 0 1-4.65-3.15 34 34 0 0 1 3.75.3 21.5 21.5 0 0 1-.3-3.75 4.1 4.1 0 0 1-1.65-1.8 9.3 9.3 0 0 1-.3-3.15c0-2.2 1.66-3.2 5-3 3.2 0 5 1.45 5 3.6a12.9 12.9 0 0 1-.55 3.85Zm4.5-26.05h8.7a109.4 109.4 0 0 1-12-25.81q2.85 22.54 3.3 25.83Zm-128.06 77.2v4.5a8 8 0 0 1-.6 1.05q.3.45 1-1.5a16.7 16.7 0 0 1-.4-4.03Zm9.61 4.5q6 17.85 15 15a1.8 1.8 0 0 1 .3.45 27.4 27.4 0 0 1-.6-5.7v-4.65q-2.1-2.25-5.4-6.3-7-8.55-10-9.15a25.3 25.3 0 0 0 .3 8.85 8.4 8.4 0 0 1 .25 1.5Zm-67.51 43.8a266 266 0 0 1-22.3-32.55 235.8 235.8 0 0 1-27.9-65c-3.8-16-7.1-29.65-10-41.05q1.65 12.3 3.6 28.75a226.3 226.3 0 0 0 15 54.15A157 157 0 0 0 347 499.38Zm-29.35 20.35a89 89 0 0 0 7.8 5.85 219 219 0 0 1 19.3 19.5 173.4 173.4 0 0 0 40 34.35h.45v-2.25l.3-.3a2.08 2.08 0 0 1 1.35-.3q.45 0 2.85 2.4a10.92 10.92 0 0 0 7.65 2.25 101.8 101.8 0 0 0 43.47-9.13 146.6 146.6 0 0 0 20-11.25 54.2 54.2 0 0 0 15.6-10.5c1.8-1.6 3.46-3 5-4.2-5.5 2.7-12.2 5.65-20 8.85q-40 16.5-59.26 16.5a79.6 79.6 0 0 1-30-4.5q-8.25-3.3-8.25-6.9v-2.25a.5.5 0 0 1 0-.3 2.08 2.08 0 0 1 1.5-.45q.75 0 5 5 7.65 5 26.4 5 24.62 0 60-15.45a460 460 0 0 0 41.5-21.3l7.8-7.05c.8-.7 1.65-1.4 2.55-2q-19.2 10.54-40.8 21.25-43.45 21.3-56 21.3a13.47 13.47 0 0 1-7.51-1.65 3 3 0 0 1-1.65-2.55 4.13 4.13 0 0 1 1.65-3.75h1.8a25 25 0 0 1 .45 4.2h3.31q16.5 0 51.45-17.7Q493.88 526 504.39 521a56.7 56.7 0 0 0-10.5 2.75A100.6 100.6 0 0 1 475 534.53a109.9 109.9 0 0 1-46 10.8q-17.7 5.85-25.66 8.25h-22.5a52.8 52.8 0 0 1-13.2-3.75 12.47 12.47 0 0 1-5.7-5.4v-3.15l.3-.3q.3-.45 1.35-.45c1.05 0 1.95 1.15 5.55 3.45a39.3 39.3 0 0 0 10.95 5h23.55l12.91-4.2q-23.46-.75-51.46-17.95c-2.5-2-5-3.65-7.05-5A196.5 196.5 0 0 1 297.28 475q-30-36.9-43.35-52.8-48.85-58.2-90.4-80.91a161.2 161.2 0 0 0-78.15-18.9 71 71 0 0 0-15.75 2.25l-2.4.6A600.5 600.5 0 0 1 190.08 385q46.5 30.39 70.35 62.65a280 280 0 0 1 28.8 35q7.2 10 17.85 26.25Zm7.25 54.3a223 223 0 0 0 8.5 23.85 76.2 76.2 0 0 0 26.5 30.45q.75-1.35 3.6-.75h.45a46.8 46.8 0 0 1-9.05-12.56l-7.8-20.55a194 194 0 0 1-16.95-25q-13.59-25-20.65-37.65c-5-9.4-10-17.6-14.1-24.7q17.4 39 19.65 43.15a124 124 0 0 1 9.85 23.75Zm12.7-28.65-12.7-11c.55 1.45 1.05 3 1.7 5a35 35 0 0 0 1.9 3q22.05 34.05 33.45 49.05 23.25 30 46.65 40.35l2.26.45a27.5 27.5 0 0 1 9 2.75 57.8 57.8 0 0 0 12.45 1.35 41.34 41.34 0 0 0 23.55-6.15l6.25-5.85a34 34 0 0 1-1.5-8.25q-1.35 1.8-3.3 4a20.7 20.7 0 0 1-15 8.85 41.6 41.6 0 0 1-12.9-1.5l-3.3-1.65a7.4 7.4 0 0 1 3.75-.85h5.85a25.29 25.29 0 0 0 20-8.4 49.7 49.7 0 0 1 5-7V601a69.3 69.3 0 0 1-13.05 9.75 57.5 57.5 0 0 1-27.55 10 48.6 48.6 0 0 1-17.41-1.95 27.6 27.6 0 0 0-3-3.3 57.56 57.56 0 0 0 41.86-7.35 58.9 58.9 0 0 0 20-16.35 75.5 75.5 0 0 1 3.3-18.9q-6.3 5-12.9 9.3-28.6 19-53.66 19-16.35 0-20.4-4v-1.35q2.25 0 13.8.9a101.46 101.46 0 0 0 47.41-12.9q17.94-11.4 28.75-17.85a72 72 0 0 1 5.7-8.85 178.5 178.5 0 0 1-30 18.15 90.6 90.6 0 0 1-38.36 10 52.4 52.4 0 0 1-15-1.65 73 73 0 0 1-30.75-16.95 172 172 0 0 1-20-20Zm75-6.15a64.6 64.6 0 0 0 15 1.35h1.35l14.1-4.5q-3.75 0-7.35-.3a189 189 0 0 1-25 2.7 12 12 0 0 0 1.7.75Zm101.05-86.05v3.45h1.5a7.66 7.66 0 0 0 3.75-.6 9.2 9.2 0 0 1 2.55-1.65q-1.11 5.64-8 5.65h-1a.58.58 0 0 0-.45 0 2.77 2.77 0 0 1-1.35-.9l-1.65-1.05a12.05 12.05 0 0 1-3.45-3.3v-.3a12.2 12.2 0 0 1 3.45 1.2 9.6 9.6 0 0 0 1.5.45v-4.05a2.4 2.4 0 0 1-.45-.6 4.1 4.1 0 0 1-.75-2.1q0-5 3.9-5.55t3.9 3.3a10.9 10.9 0 0 1-.6 4.35 3 3 0 0 1-3 1.7Zm-7.2 23.7a4.55 4.55 0 0 1 9-1.05 3.8 3.8 0 0 1 1.8 3.75 9.3 9.3 0 0 1-1.05 3.75q-1.2 2.85-2.55 2.85a7.2 7.2 0 0 1-2.25-.3q.3 1.65.75 3.45v2.85a20.6 20.6 0 0 0 5.55 0 9.5 9.5 0 0 0 .3 1.5q0 2.25-3.15 2.25a15.83 15.83 0 0 1-12.14-7.91 18 18 0 0 1 5.7 2.55l.45.3q.3-2.55.6-4.65a24.3 24.3 0 0 1-1.8-4.5 20.6 20.6 0 0 1-1.4-4.8Zm-22.5-.75a14.7 14.7 0 0 1-4.35.75 11.59 11.59 0 0 1-10-3.75 24.9 24.9 0 0 1-1.65-5.85l.45-.9q1.8 0 4.65 3.75l1.35.9v-2.25a20 20 0 0 1 0-2.7 4.56 4.56 0 0 1-2.7-2.55q-.45-2.85-.45-3 0-3.9 4.35-3t4.2 3a15.8 15.8 0 0 1-.3 3.75 2.78 2.78 0 0 1-1.65 2v6a27.9 27.9 0 0 0 7.95-.3 2.8 2.8 0 0 0 1.2.3 2.54 2.54 0 0 1 .3 1.2c0 .7-1.25 2.1-3.55 2.7Zm-10-31.05q0 2.55-5 2.55a13.06 13.06 0 0 1-5.65-1.5 31 31 0 0 1-3.2-1.8 16.3 16.3 0 0 1-5-3.9q1.8-1.2 6.3.9a4.6 4.6 0 0 1-.3-1.35 12 12 0 0 1 .75-3.75 4.59 4.59 0 0 1-2.4-3q-.3-3.45-.3-3.6c0-2.4 1.45-3.5 4.2-3.3s4 1.45 4 3.75q.45 6.6-3 6.6a15.4 15.4 0 0 1 .6 3.75 19 19 0 0 1 0 2.4 24.7 24.7 0 0 0 8.4 1.2h.47a2.8 2.8 0 0 1 .15 1Zm-15 85.45c-1.74.5-3.4 1-5 1.35h2.25l3-.9c1.35-.5 3.2-1.2 5.35-2.1ZM474.79 565a85 85 0 0 0-8.85 41.55 49.4 49.4 0 0 0 3 19 71.1 71.1 0 0 0 15.6 20.7q-14.1-20.55-14.1-53a78.1 78.1 0 0 1 7.05-32.55l-1.8 2.7a.4.4 0 0 0 0 .3 7.5 7.5 0 0 0-.9 1.3m-25-26.4a148 148 0 0 0 24-7.2c3.7-1.5 7.35-3 10.95-4.6-5.7 1.75-12.6 4-20.7 6.85Zm61.65-12a107 107 0 0 0-21.75 68.1 105.5 105.5 0 0 0 5.4 35.3 132.2 132.2 0 0 0 15.75 30 18.4 18.4 0 0 1 3.6 2 69 69 0 0 1 7.65 2.65l2.55.75a65.3 65.3 0 0 1-16.95-31.4 184 184 0 0 1-6.15-49.2 165 165 0 0 1 2.1-22.65 73.6 73.6 0 0 1 4.65-20.7 169 169 0 0 1 7.8-18.6 31.6 31.6 0 0 0-4.85 3.65Zm-28.5 32.55a78.46 78.46 0 0 0-8.55 34.2 95.7 95.7 0 0 0 19.2 60q2.1 1.35 4.35 2.55a40 40 0 0 0 4.65 2.25 12.4 12.4 0 0 1 2.1.3l2.7.55A84.2 84.2 0 0 1 491 631.48a110.7 110.7 0 0 1-5.4-36.75 121.5 121.5 0 0 1 5.85-41.25 73.5 73.5 0 0 1 9.45-18q-4.65 4-8.55 7.95a99.8 99.8 0 0 0-9.65 15.6Zm28.2-15.6a118.8 118.8 0 0 0-6 41.1 158.6 158.6 0 0 0 6.3 46.35q6.3 20 7.65 23.1a37.4 37.4 0 0 0 9.75 12.4l12.6 3.75q-2-3.6-4.05-8.55a220 220 0 0 1-9.3-30 206.2 206.2 0 0 1-6-48.15 185 185 0 0 1 6.75-49.2 103 103 0 0 1 12.6-29.35q-5 3.3-10.5 7.2a103 103 0 0 0-20 31.2Zm-267-245.91a67.3 67.3 0 0 1-15-6.45 141.4 141.4 0 0 0-18.75-8.55 90.07 90.07 0 0 1 39.65 45.6q-1.8-14.55-3.6-31a3.15 3.15 0 0 1-2.26.43Zm-66.4 100.76c-5.5-2.5-11.4-5-17.7-7.45a164.3 164.3 0 0 1 41.35 43.75q12.45 19 32.55 57.9 6.75 11.1 15 28.2l14 28.75a240.3 240.3 0 0 0 30.9 47.4l6.75 3.9q-2.85-3.6-5.7-8a286 286 0 0 1-17.7-32.4q-17.85-38.25-27.1-55.5-25-48.3-30-56.25a223.3 223.3 0 0 0-41.8-49.65Zm37 21.6q-9.45-6-26.1-15.45a189.4 189.4 0 0 1 35.7 44.55q13.65 22.5 29.1 53.4 10.35 18.75 26.55 56.65a174.4 174.4 0 0 0 40 52.5l2.25 1.05a76 76 0 0 1-7.65-11.25q-10.8-24.3-13.2-29.55-17.55-38.25-23.4-52.15a387 387 0 0 0-25.65-52.65 277.3 277.3 0 0 0-30.45-42.3Zm14.7 1.8a235 235 0 0 1 23.85 18.9q-31.65-35-97.45-70-20-10.65-58.35-28.81-21.75-10-31.51-15.6a36 36 0 0 0 7.21 12.9 68.4 68.4 0 0 0 24.6 13.21l25.65 9.15q25 11.7 49.2 25a502 502 0 0 1 43.9 25.9q6.6 4.39 12.9 9.2Zm40 .6q6.15 9.15 11.4 16.8a237 237 0 0 1-14.25-31.35q-37.8-48.7-105-91.16A365.5 365.5 0 0 0 98.28 284 135 135 0 0 0 62 275c-7.55.9-14.35 1.85-20 2.85A114.4 114.4 0 0 1 82.28 289l25.5 9a285 285 0 0 1 28.05 11.85 427.5 427.5 0 0 1 83.75 56.11 276.8 276.8 0 0 1 50.1 56.35Zm-176.6-58.9c4.7 4.4 9.4 9.05 14.1 13.9 8.1 7.6 16 16.35 24.45 25.95q17.4 20 51.15 60 5 6.9 10.8 15.9 5.775 7.5 12 15 9.3 13.05 27.6 40.45a396 396 0 0 0 30.9 39.45 84 84 0 0 0 9 8.25 252.5 252.5 0 0 1-35-45q-5-8.4-30.6-57.1a340 340 0 0 0-36.65-57.15 270.3 270.3 0 0 0-52.65-48.85l-10-4.2q-8.32-3.42-15.06-6.57Zm10.5 51.5a558 558 0 0 0 49.35 40.5q21 15.9 33.15 25.5-4-5.85-7.35-10.35l-10.8-12.3q-14.55-16.65-24.15-28.65-7.65-5.5-18.5-13.9l-1-.8-.9-.6a299 299 0 0 1-30-21.6q-8.1-7-18.6-17.15c-11.21-9.4-20-17.1-25.91-23.1 4.7 5.6 10.35 12.45 17 20.55q20.96 25.08 37.75 41.9Zm22.35-37.5a224 224 0 0 1 49.35 43.55A309 309 0 0 1 211 478.53q16.35 32.55 31.35 56.65a474 474 0 0 0 33.45 47.7 9.2 9.2 0 0 0-1.05-1.65q-11.25-20.4-16.5-29.4-6-10.35-14.55-28.8-10-21.79-13.65-28.75-23.85-45.3-32.25-57.9a212 212 0 0 0-43.9-47.85q-16.5-6.4-28.2-11.1Zm11.4 100.65a581 581 0 0 0 54 62.95 430 430 0 0 0 35.35 30.6 248 248 0 0 0 39 25.95 434 434 0 0 0 45.75 20q2.4.9 10 3a400 400 0 0 1-111.15-68.25 862 862 0 0 1-78.65-81.7q2.85 3.6 5.7 7.35Zm-15-24.45a1026 1026 0 0 0 117.59 107.98q-7.65-9.6-17-23.85l-6-9.45q-27.34-22.25-47-35a294 294 0 0 1-31.2-24q-4.8-4.35-16.5-15.75Zm-7-7.45q5 3.45 29.4 23.1a335 335 0 0 0 32.85 23.7c11.5 6.8 20.85 12.85 28.15 18.15-2.8-4.5-5-8.35-7.3-11.55-2.7-4.3-5.35-8.25-7.85-11.85a479 479 0 0 1-93.1-71.7 431.7 431.7 0 0 1-45.91-53.05q15.85 30.78 53.25 71.95Zm-9 126.25q-1.2 2.7-3 8-.45 1.2-.9 2.55a79.5 79.5 0 0 1 13.8-17.1q16.35-15.6 28.35-9.3v-.3h20a116 116 0 0 1 41.2 9.45q5.25 2 9.3 3.75-6.6-5.55-13.5-11.85a6.1 6.1 0 0 0-1.35-.9 42.2 42.2 0 0 0-16.9-4.2h-33.5q-28.35 2.55-38.1 11.7a21.34 21.34 0 0 0-5.41 8.23Zm24.75-7.2a26.9 26.9 0 0 0-12 5 44 44 0 0 0-8.25 10q-2 3.15-6 10a39.5 39.5 0 0 1-6 7.5 21 21 0 0 1-1 2.1 64.7 64.7 0 0 0 7.2-7.95 93.5 93.5 0 0 1 8.55-10.5q12.15-12.15 39.3-15 43.8 3.6 61.6 10A84.4 84.4 0 0 1 233.83 588q-3.3-5.55-3.3-5.7v-.3a2.8 2.8 0 0 1-1.5.3 92.7 92.7 0 0 0-21-10.8l-15.45-5.7a112.3 112.3 0 0 0-28-4.65h-19.5q-1.65 1.19-14.25 4.18Zm10-85.75q46.35 48.15 75.4 72.7a448.9 448.9 0 0 0 108.85 69.6c1.4.3 3 .7 4.7 1.2q-7.8-3.6-15.6-7.8a241.6 241.6 0 0 1-50-33.45 13.3 13.3 0 0 1-6.6-2.55 236 236 0 0 1-40-28.8q-23.4-19.65-42.55-38.2-18.71-17.25-34.3-32.7Zm119-22.35a215 215 0 0 0-24.8-22.8 171.2 171.2 0 0 1 21.45 29.7q1.8 3.3 25 53.55 9.75 18.2 29.7 66.1 17.16 35.55 33.1 38.4a2.8 2.8 0 0 1 1.5-.75 66.4 66.4 0 0 1-15-19.5 218 218 0 0 1-9.7-25 145 145 0 0 0-9.6-24.15q-3.75-6.9-21.3-47.8a245 245 0 0 0-10.8-23.45 239 239 0 0 0-19.65-24.3Zm-15 134.65q1.35 2.1 2.7 4.35a23 23 0 0 1 2.4 2.1l15.3 14.4q25 19.35 81.4 23.25h2.7c-9.4-2.7-20.95-6.75-35-12.15q-34.35-13.35-55.95-24a145 145 0 0 1-13.35-8Zm-1.8 13.5a56 56 0 0 0-6-11.55 4.4 4.4 0 0 1-1.35 0 176.6 176.6 0 0 0-23.25-11.25 141.8 141.8 0 0 0-52.75-11.25 63.9 63.9 0 0 0-35 8.25q-7.8 5-27.3 20.55a3.9 3.9 0 0 0-.75 1 166 166 0 0 0 17.55-10 92.8 92.8 0 0 1 32.1-8.85q23.25-2.25 65.35 13a219 219 0 0 1 32.4 14Zm7.35 23.85q-1.65-4.2-3.75-11.7-13.8-7.2-31.35-14.4-38.29-15.75-63-15.75A99.9 99.9 0 0 0 114 595l-8 4.05a178.9 178.9 0 0 1 80.4 3q43.46 10.5 65.5 31Zm7.35-8q15.3 18.6 86.8 26h21q12.45-.9 33.6-3.6-7.65-1.05-15.3-2.55h-37q-58.44-5-82-23a111 111 0 0 1-13.2-12.75q2.1 5.55 4.5 13.65a26 26 0 0 0 1.65 2.25Zm-53.1 60A136.3 136.3 0 0 1 226 701.84a214 214 0 0 0 20.25 20.7q28.85 23.64 93.85 34.45h36.85q8.25-.3 27.45-3a306 306 0 0 1-46.4-15.9q-5.55-2.4-10.65-5l-25-7.8q-34.2-10.8-40-13.2a278.8 278.8 0 0 1-61-36 718 718 0 0 0-71.25-49.4q-40.5-23.25-60.9-17.85a2.4 2.4 0 0 1-.6.45q2.7 1.2 8.1 4.35a69.4 69.4 0 0 0 18.4 8.85q3.9 1.8 21 8.85 13.2 5.55 20 9.3a127.4 127.4 0 0 1 27.75 21 244 244 0 0 0 20.9 19.5Zm17.25-10.65q23.55 23.25 77.25 43.36 15.9 6 34.45 12.45c-3.3-1.9-6.5-3.8-9.55-5.7a620.5 620.5 0 0 1-80.55-40l-30-17.85a102 102 0 0 1 8.45 7.55Zm74.4-1.5q3.9 6.45 11.1 18.6a114.3 114.3 0 0 0 13.5 17.11c4.2 4.4 10.4 10.45 18.7 18.15q11.1 5.85 23.55 11a106.8 106.8 0 0 1-26.55-29.55q-10.85-17.1-13.75-21A90.6 90.6 0 0 0 303.68 664q-7.65-1-13.35-2.25a30.2 30.2 0 0 1 6.05 7.15Zm-15.75-10.6q-9.3-3.9-14.1-5.7a162.3 162.3 0 0 0 53.1 58 89.8 89.8 0 0 1-14.5-18.05q-7.35-12.62-11.4-18.76a78 78 0 0 0-13.05-15.7Zm-12 10.9q-53.1-30-62.1-34.45-37.24-17.25-44.65-19.65a195.4 195.4 0 0 0-33-7.5A545 545 0 0 1 221.38 650q23.4 13.05 62.1 38-5.25-5.7-10-11.55-2.44-3.45-4.85-7.2Zm-8.5-16.35q-1.5-3.45-5-12.3-25-15.3-31.2-20-15-10.95-69.7-19.2l-18.75-.45q-9.45-.75-11.25-.75-2.55 0-13.05.45l-10.8.6-2.85 1.2h2.4q20.85-5.7 55 4.65a261.5 261.5 0 0 1 50.65 21.45 393 393 0 0 1 41.25 22.8l19 12.55q-3.04-5.28-5.66-10.92Zm.6 31.15q28.5 14.12 47.1 25a205 205 0 0 1-17.1-14.2l-70-39.71a790 790 0 0 0-100-48.9h-2.55a103.2 103.2 0 0 1 21.1 8.6 116 116 0 0 1 16.2 9.3q10.65 7 15 9.45a244 244 0 0 1 35.8 23.1q20.7 10.5 54.3 27.35Zm272.76-51A109.2 109.2 0 0 0 551 673l10.35 2.55q-12.15-9.6-17-44.65a311 311 0 0 1-2.55-34.5v-18.17q0-61.2 27.3-88.6-9.3 4.2-17.25 8.7-2.4 3.75-6.3 10a101.1 101.1 0 0 0-13.8 30 188.8 188.8 0 0 0 1.65 95ZM427.7 644.4a38 38 0 0 1-10 2.55q-10.35 1.5-52.81 5.25h-19.5q-60.35-6.75-82.65-20.85a60.5 60.5 0 0 0 35.55 21.6 148.7 148.7 0 0 0 25.35 3.75c5.35.5 12.4.95 20.95 1.5h22.95l33.75-5.4q29.57-4.65 35.71-5.85a29.06 29.06 0 0 0 15-8.7c-1.45.6-3.1 1.25-5 2a77.4 77.4 0 0 1-19.26 4.28Zm34.15-8.85a66 66 0 0 1-8.35 7.05 63 63 0 0 1-15.75 9.1 203.5 203.5 0 0 1-33.16 6.65H421c.9 0 5.45-.85 13.65-2h17.7a25 25 0 0 0 6.4-3.4 14.3 14.3 0 0 0 5-8.55 11.2 11.2 0 0 1 .3-2.4 8.37 8.37 0 0 1-2.16-6.32Zm5.85-.45v1.2a17 17 0 0 1 1.2 7.5 18 18 0 0 1-6.3 11.7h16.05v-1.1a34.3 34.3 0 0 0-2.85-8.35l-.6-1.5a66.7 66.7 0 0 1-7.5-9.65Zm-1.5 33.7h-27.81a87.5 87.5 0 0 1 19.2 15 216 216 0 0 1 18.85 22.66q11.4 15.9 15.3 22.2 10 16.5 10 24.6v1.5q6.75-1.2 13.5-3a32.6 32.6 0 0 0 1-7.8q0-17.55-14.7-42t-33.75-33Zm-15 39.61q6 8 20.85 25.5a53.9 53.9 0 0 1 11.55 22.8q7.35-.45 14.55-1.5A234 234 0 0 0 474.34 709a128.7 128.7 0 0 0-47.5-40h-22.36a69.6 69.6 0 0 1 22.81 13.65 278 278 0 0 1 23.8 25.91Zm70-30.76q6.15 5.7 15.6 16.51a50.8 50.8 0 0 1 9.6 16.5 52.4 52.4 0 0 1 1.95 15.6 38.4 38.4 0 0 1-2.25 13.5 104 104 0 0 0 11-6.6 22.5 22.5 0 0 0 3.6-11.55q0-10.35-10.8-29a89 89 0 0 0-11.55-16.36l-7.8-2.1-3.3-.9-1.2-.3s-.35.3-.45.3a29 29 0 0 1-4.35-1q-4.5-.75-9.3-1.2a40.8 40.8 0 0 1 9.35 6.6Zm-35.85-23.25-3.45-3.15a24.6 24.6 0 0 1 .75 4.5l5 .6Zm16.2 15.6q-4.05-.3-8.1-.45A110.6 110.6 0 0 1 525.59 701a69.65 69.65 0 0 1 10.8 38.25 16.3 16.3 0 0 1-1.3 5.75l3.45-1.5a26.72 26.72 0 0 0 5.85-17.4 43.86 43.86 0 0 0-10-28A168.2 168.2 0 0 0 502 670.18Zm-11.1-.6q-6.9-.45-14.25-.45 13.5 5.4 27.15 26.26 17.4 27 17.4 42.45v10.65a10.6 10.6 0 0 0 0 1.95q3.3-1 6.6-2.25 1.05-1.5 2.7-3.45a9.06 9.06 0 0 0 2.4-5.4 63.77 63.77 0 0 0-10.65-36.6 257.7 257.7 0 0 0-31.3-33.16Zm-105.41-36.7A62 62 0 0 0 392 634a117.9 117.9 0 0 1-29.1-22q-3.15-3.15-6.15-6.45 2.55 5.25 3.9 8.7 5.44 14.38 24.43 18.58Zm-.75 2.7 3.15.6-1.5-.75a7.4 7.4 0 0 0-1.75.15Zm-33.6-10-.6-.6a.4.4 0 0 1-.3 0 4 4 0 0 1 .8.4ZM347 668.38a96.1 96.1 0 0 1 22.5 15.6 153.4 153.4 0 0 1 20 25 259 259 0 0 0 18.9 25.65 106.2 106.2 0 0 0 22.06 18.6q5.85.9 11.85 1.65-10-7.35-29.4-33.75-28.22-38.55-44.11-52.36h-10.67Zm-15-1.2 3.2 2.55a135 135 0 0 1 28.75 36 83.5 83.5 0 0 0 15.3 23.85 91.3 91.3 0 0 0 19.65 16.65q7.8 2.25 15.61 4a84.6 84.6 0 0 1-12-12l-18.15-26.4a228 228 0 0 0-19.5-25.36 84.6 84.6 0 0 0-20.7-18.45Zm-22.9-2.4a56.9 56.9 0 0 1 16.5 14.4c4 5 9.3 11.7 16 20.71A196 196 0 0 1 355.08 720a83.5 83.5 0 0 0 15 16.35l1.8.6q10.5 3.9 20.85 7.2a70.3 70.3 0 0 1-15.6-12.75 228 228 0 0 1-16.05-22.2q-10-15.9-15.9-23.41a89.5 89.5 0 0 0-20.8-19.65q-8.34-.69-15.25-1.6Zm85.9 4.35a59.8 59.8 0 0 1 18.61 14.7q3.3 3.75 17.85 25.66 2.7 3.3 20 25.65c7 9 13.1 16.35 18.4 22.05h10A224 224 0 0 0 459 724.94a194.5 194.5 0 0 0-62.36-55.81Zm15.91 42q15 23 16.2 24.3a79.1 79.1 0 0 0 25.45 20.85q6 .45 12.15.75a161 161 0 0 1-13.2-14.55 326 326 0 0 1-22.6-28.8 252 252 0 0 0-16.35-24.16A95.1 95.1 0 0 0 390 669.13h-16.8a79.6 79.6 0 0 1 21.85 18.1q1.91 2.4 15.86 23.71ZM978.5 351.38a134 134 0 0 0-22.8 24.3q-13.35 19.54-19.65 28.6a352 352 0 0 1-48 57.6 705 705 0 0 1-57.7 57.1 248.1 248.1 0 0 1-95.26 48.15h-.85c-1.35 2.3-2.75 4.65-4.25 7a65.2 65.2 0 0 0 14.25-2.85q30.91-10 85.36-50a277 277 0 0 0 33.85-29.7l30.6-31.05q13.2-12.45 29.4-30.9 9.15-10.5 25.8-30.3 8.4-10 32.7-38.2a76.2 76.2 0 0 1 13.6-11.13 122 122 0 0 0-17.05 1.38m-55.35 17.25a143.3 143.3 0 0 0-37.2 43.6q-4.65 8.1-13.2 24a166 166 0 0 1-14.7 22.65 429 429 0 0 1-41.8 48.12 167.6 167.6 0 0 1-72.76 36.55 68 68 0 0 1-2.1 7.65q8.85-4.65 35-16.8 42.45-19.65 50.55-26.5a314 314 0 0 0 28.35-27 220 220 0 0 0 21.55-27.15q25.95-46.2 40-67.6a136 136 0 0 1 18.25-22.95q-6 2.55-12 5.4Zm34.35-4.5a92 92 0 0 1 9.3-10.8 102 102 0 0 0-12.75 3.3 139.9 139.9 0 0 0-43.65 45.25q-3.9 6.45-14.7 27.3a271 271 0 0 1-16.35 27.9q-47 68.7-139.26 97.95-2 4.5-4.35 9.45 8.55-3.3 25.81-9.45a114.7 114.7 0 0 0 27.3-13.2 213 213 0 0 1 20-13.35 216 216 0 0 0 18.75-12.85q17.55-14.1 32.5-28.35a226 226 0 0 0 27.15-29.7q6.9-9.45 23.7-29.25t23.1-28.65q6.5-9.21 23.45-35.55m65.5 10.5q-4.05 1.8-8.1 3.9a2.7 2.7 0 0 0-.75.75Zm-16.35 13.45a202.2 202.2 0 0 0-29.65 44.1q-3.9 9-8.55 17.4 10.65-12.45 21.75-23.1c1.65-3.3 4.4-8 8.2-14l11.7-18a47.4 47.4 0 0 1 11.7-15c-4.85 2.6-9.85 5.5-15.15 8.55ZM989 399.18q-10.8 6.9-20 13.65a206 206 0 0 0-16.5 25.5q-7.35 13.5-20 43.35-10.65 25-18.6 39.6 14.4-18.15 30.6-40.65 4.5-8 12.3-20.85 11-18.3 15.75-28.35 12.3-26.1 13.75-28.35a23.5 23.5 0 0 1 2.7-3.9m-115 0a160.4 160.4 0 0 0-27.7 30.3q-7.95 11.25-22.5 33.75A247 247 0 0 1 788.25 501c-19.1 16.9-34 25.35-44.71 25.5.3 2.05.55 4 .75 5.65l18.61-8A232 232 0 0 0 804.1 500a81.3 81.3 0 0 0 19.35-20.7q7.95-13.65 12.9-20.55a187 187 0 0 0 12.9-21q8.7-15.75 12.4-21.45a108 108 0 0 1 17.7-21.3Zm-8.9 20.55q-9.36 14.25-25.75 41.55a206 206 0 0 0-12.3 21.15 74.7 74.7 0 0 1-20.4 21.15q-11.7 8.1-28.35 17.5c-15.9 8.92-27.3 13.75-34.06 14.55a36 36 0 0 1-.3 4.65q6-2.25 20.56-7a154.2 154.2 0 0 0 48.9-30q32.7-30.75 42-46.8 15.95-32.55 25.75-48.45a115.2 115.2 0 0 1 29-32.45c-4.3 2.4-8.6 5-12.9 7.75a177.3 177.3 0 0 0-32.15 36.4m28.2 71.4q-11.25 16-31.75 49-12.45 20.7-15 24.45a213 213 0 0 1-18.6 25 245 245 0 0 1-32.25 27.75q-6.45 5-11.7 8.7 10.8-3.75 17-6.45l3.9-1.65a188.1 188.1 0 0 0 43-42.45 330 330 0 0 0 29.2-48.85q10.65-23.4 18.3-38.4Zm-50.65-63.6a113 113 0 0 1 7.45-8.85 180 180 0 0 0-13.8 14.1q-44.1 50.7-50 56.85-31.2 33-43.36 34.2a2.56 2.56 0 0 0 .3 1.15A190 190 0 0 0 791 495a187.8 187.8 0 0 0 28.8-33.3q14.29-22.92 22.85-34.17m-30.45 144q-9 4.5-22.35 10.35-44.4 20-66.26 20-2.34 0-9-.45l-4.7-.3c-1.35 1.5-2.7 3-4 4.65a10 10 0 0 0 2.7 1.8 11.5 11.5 0 0 1 5.25 2.7 122 122 0 0 0 17.5.6 101.6 101.6 0 0 0 48.31-12q10.65-7.05 17.1-11.1 9.6-10.35 11.4-12.15Zm10-10q9.6-11.1 21.9-26.7l4.65-5.7a15.7 15.7 0 0 1 2-2.5q-11 8.05-25.35 17.5a478 478 0 0 1-43.4 28.3Q746.15 593 727.54 593a26.7 26.7 0 0 1-9.55-1.2l-5 5.85c4.2 0 10.65-.4 19.3-.6a60.3 60.3 0 0 0 12-2.25q3.3-.9 7.65-2.4a68 68 0 0 1 8.16-2.4 72 72 0 0 0 14.1-5q4.5-2.1 12-5.85l25-11.4a83 83 0 0 0 9.45-5c.36-.4.8-.9 1.3-1.5ZM896.6 510q17.55-38.55 27.6-57.3-3.6 3.75-7.05 7.95a277.7 277.7 0 0 0-35.85 68.05q-7.5 21.75-37.3 57.15A290 290 0 0 1 821.65 610l12-6a44.6 44.6 0 0 1 11.7-11.85 135 135 0 0 0 13.2-10.8 127 127 0 0 0 7-11.4L872 558q5.4-9.45 12.75-24.15C890.1 522.88 894 515 896.6 510m-41.1 21.55a437 437 0 0 1-30 39.6 397.4 397.4 0 0 1-69 63.45l13.65-4.2a274.2 274.2 0 0 0 50-42.6 287 287 0 0 0 37.2-49.35c9.55-16.3 16.9-28.6 22-37q-3 3.6-6 7.35-6.6 8-17.85 22.6Zm34.5 17.1q14-19.17 17.55-25.65 4.5-7.85 10.5-21.4 6.75-15.75 9.75-21.6 11.85-29.4 19.2-43.95a101 101 0 0 1 7-12q-4 3.15-7.65 6.15l-2.7 2.55a175 175 0 0 0-21.3 33.6q-8.1 16.2-22.8 47.4-8.7 15.35-22.8 47.5-2.55 4.65-5.4 9 7.05-7.5 14.25-15.45Zm-143.66-195a381 381 0 0 1-26.8 55.45 170 170 0 0 1-25.95 31.95l-.3.45a12 12 0 0 0 .6 1.35 6.7 6.7 0 0 1 .75 2.7A19.22 19.22 0 0 1 688 460a25 25 0 0 1-5 3.6 40.6 40.6 0 0 0 12.05-4.6 34 34 0 0 0 7.95-7.8 26.8 26.8 0 0 1 4.45-5 208 208 0 0 0 18.45-35q13.2-38.31 20.4-57.6ZM558.94 405q0-3.15 5-4.2t5 3.15a4.41 4.41 0 0 1-4.05 4.5 27 27 0 0 1 .3 4.2 37.6 37.6 0 0 0 0 6 18.3 18.3 0 0 1 3.3.3 7 7 0 0 0 .3 1.8c0 .7-.7 1.35-1.95 2a10.7 10.7 0 0 1-5 1 7.17 7.17 0 0 1-6.3-2.25q-.45-2.25-.45-2.4 0-2 1.8-1.65l3.9.75a55.6 55.6 0 0 1 .6-9.3q-.75 0-1.65-1.8a5.55 5.55 0 0 1-.8-2.1m34.15-8.85q0-5 4.35-4.35t4.35 3.6q0 5-2.85 5a35 35 0 0 1-.3 4.65 34.3 34.3 0 0 0 5.7.9l.45 1.2a21 21 0 0 0-1 2.1 4.4 4.4 0 0 1-3.3.9 11.83 11.83 0 0 1-7.05-2.55q-2.7-2-3-2.85a4.54 4.54 0 0 1 4.5-.9 10.4 10.4 0 0 1 .45-3l.3-.9a3.31 3.31 0 0 1-2.25-1.65c-.2-1.24-.3-1.9-.3-2Zm0 27.75q0-4.65 5.55-5t5.55 3.45a5.63 5.63 0 0 1-.75 3.45 5.45 5.45 0 0 1-3.15 1.5 16.9 16.9 0 0 1 .6 5v.6a58 58 0 0 0 6.45.45l.75 1.8a7.5 7.5 0 0 1-5 2.7 12.64 12.64 0 0 1-7.5-1.95 6.6 6.6 0 0 1-2.55-4.05l3.9.45a17.5 17.5 0 0 1-.45-4.2v-.9q-3.4-.6-3.4-3.15Zm40.8-25.8a54 54 0 0 1-3.45 4.5 45.3 45.3 0 0 1 4.65 8.4 10.9 10.9 0 0 0 .75-3.9 24.1 24.1 0 0 0-1.8-8.25 1.4 1.4 0 0 1-.15-.6Zm12.75 62.9q24-7.8 27.45-14 1.95-5 3.3-7.65-14.4 16.5-27.9 17.55a35 35 0 0 1-9.3 4.2h6.45Zm12.75 1.65 7.05-5a112 112 0 0 1-12 4.05 52.5 52.5 0 0 1 11.1 3.9A43.6 43.6 0 0 0 685 454.33a31.5 31.5 0 0 0 6.6-11.55q-20.4 20-31.2 20a2.44 2.44 0 0 1-1.2 0Zm-28-1.05a.5.5 0 0 1-.3 0 .5.5 0 0 0 0 .3.6.6 0 0 1 .3-.15Zm-24 12.75a329 329 0 0 0-20.8 26.1c-8.8 13.1-13.15 24.4-13 34q0 5.25-4 32.25a302 302 0 0 0-4.2 35.7 183.4 183.4 0 0 0 5.85 41.1c4 17.2 8.6 27.9 13.75 32.2q3.15-.6 6.6-1.5a18.63 18.63 0 0 1-3.45-10.8v-12.57a106 106 0 0 1 1-17.25v-31.5a239.7 239.7 0 0 1 10-93.25q10-30.9 27-41.4a38 38 0 0 0-5.85 1.35Zm45-7.05a44.4 44.4 0 0 0-6.3-.75 3.63 3.63 0 0 0-2.25 1.65q-.6 1.05-3 4.5l-3.6 9.6a54.2 54.2 0 0 0-5 18.3q0 9.15-14.25 88.6-2 12.6-3.75 52.8a106 106 0 0 1-2.85 15.4q12-21.79 25-70 18.6-69.45 18.6-108.7a41.2 41.2 0 0 0-1.65-9.6 4.9 4.9 0 0 1-.95-1.65Zm6.45 5.85v16.05a258.7 258.7 0 0 1-6.84 49.13q-5.55 25.5-11.4 44.4-5 16.35-15.75 55.65a76.66 76.66 0 0 1-16.2 30c3.9-1.7 7.95-3.6 12.15-5.8a92.4 92.4 0 0 0 23.1-38q6.45-26.25 10.95-39a310 310 0 0 0 12.9-41.85 244 244 0 0 0 1.65-35.65q0-17.4-.6-21.6a46.4 46.4 0 0 0-4.5-15 46 46 0 0 0-5-2.55 14.5 14.5 0 0 0-2.25-.45 30.6 30.6 0 0 1 1.7 4.75Zm-19.35-6.6q-33.15 16.35-42.3 65.55a269.6 269.6 0 0 0-3.75 39.4q-.3 12.45-.75 31.95v30q-.6 5.85-.6 17.25v11.05q.6 9.45 3.15 9.45 10.65 0 13-20.5.45-23.85 1.2-30l6.75-51q6.6-49.35 7-51.55a198.1 198.1 0 0 1 16.2-51.45Zm-54.35-15.45q0-4.5 4.35-4.05t4.35 3q0 1.05-.75 6.6a9.5 9.5 0 0 1-3 .45l.3 2.1v3l3.3.45a15.3 15.3 0 0 0 2.1-1.35l2.1-1.65a17.8 17.8 0 0 1-1.2 3.9 5.59 5.59 0 0 1-5.25 2.55 14.07 14.07 0 0 1-7.45-2.4l-3-2.55 1.8-.45 4.45.9a5 5 0 0 1 0-.75 19.8 19.8 0 0 1 .45-4.2 4.35 4.35 0 0 1-2.1-2.4q-.5-3.02-.5-3.17Zm-28.9-13.8c0 2.8-.5 4.46-1.5 5v5.85a47 47 0 0 0 5.55.3 3.5 3.5 0 0 0 2-.6 2.75 2.75 0 0 1 1.2-.75 4.35 4.35 0 0 0-.9 4.2 23 23 0 0 1-8.25.6h-1.5a1.38 1.38 0 0 1-1.2-.75 25 25 0 0 1-2.55-1.5 23.4 23.4 0 0 1-4-3.3 4.2 4.2 0 0 1 4.2 0 5.3 5.3 0 0 0 1.5.75v-2.85a17 17 0 0 1 0-2.25 4.1 4.1 0 0 1-1.8-1.2l-.45-1.65a4.56 4.56 0 0 1 3.77-5.22h.28c2.33-.14 3.5 1 3.5 3.4Zm1 43.05a16.2 16.2 0 0 1-4.5.3 5.78 5.78 0 0 1-5-1.95 6.35 6.35 0 0 0-4.2-2.85l.3-.45a51 51 0 0 1 5.85 2.1l.6.3q.6-2.25 1.2-3.9a3.74 3.74 0 0 1-2-3.6 3.4 3.4 0 0 1 2.85-3.87 3.1 3.1 0 0 1 .75 0 3.2 3.2 0 0 1 3.6 2.74 3.1 3.1 0 0 1 0 .86q0 4.35-2.4 4.35v.7a7.2 7.2 0 0 1-.3 2 16 16 0 0 0-.45 1.65 18 18 0 0 0 4.65 0 6.7 6.7 0 0 1-1.25 1.7Zm42.4-2.7-6.75 2.25q-7.5 2.7-14.25 5.7a85 85 0 0 0-26.5 43.3 246.4 246.4 0 0 0-7 65.7 224.7 224.7 0 0 0 4.35 46.65c5 23.35 13.65 35 25.8 35.5a.5.5 0 0 0 0 .3l4.3-.45c-5-5-9.65-16.9-13.45-35.8q-5.4-38.7-5.4-38.85a304 304 0 0 1 4-36.45q4.2-28.5 4.35-32.4a73.54 73.54 0 0 1 12.25-35 92.9 92.9 0 0 1 18-20.45Zm131.2 11.85a10.5 10.5 0 0 0 .75 1.5l4.5-1.5a7.5 7.5 0 0 1-1.5 0Zm-60-14.4a44.4 44.4 0 0 1 2.4 9 218 218 0 0 1 .75 23.7 230 230 0 0 1-2 36.7q-1.65 7.95-12.9 42.9-1.65 5.25-12.3 42.75a141.5 141.5 0 0 1-10 23.55q5.85-3.75 12-7.95l4-2.7q18.9-24 26.1-64.65a509.6 509.6 0 0 0 5-83.8 30.4 30.4 0 0 0-1.2-10 18 18 0 0 0-2.25-4.05c-1.6-.8-3.26-1.7-5-2.7Zm17.55 19.65a495.7 495.7 0 0 1-6.15 88 143 143 0 0 1-19.2 52.8q8.7-6.6 16.5-13c1.2-1.5 2.5-3.16 3.9-5a71.4 71.4 0 0 0 10-20.55 91 91 0 0 0 3.15-14.4q1-9.6 1.65-14.55 3.6-24.45 4-30.75c.3-3.9.45-12.5.45-25.9a84 84 0 0 0-3.6-15q-1.95-6.75-3-10a28.2 28.2 0 0 1-8.7-2.25 52.7 52.7 0 0 1 .75 10.65Zm26.7-12.15a44 44 0 0 0-6-5.7 73.6 73.6 0 0 1 17.65 24.3 83.6 83.6 0 0 1 5.7 33.1 115.3 115.3 0 0 1-9.15 39.6v.3a13 13 0 0 1 1.1-1.8q14.35-22.2 14.35-36.9a79.57 79.57 0 0 0-23.65-55.5l1.25 1.8a1.5 1.5 0 0 1-1.25.78Zm-12.55-3.75a10.7 10.7 0 0 1-.75 5 4.65 4.65 0 0 1-4 2.4 33.6 33.6 0 0 1 8.55 17.85 173 173 0 0 1 .9 23.2 265.6 265.6 0 0 1-6 52.5 129.3 129.3 0 0 1-10.35 32.85l4.35-4.2a211 211 0 0 0 17.55-19.5 156 156 0 0 0 7.45-17.25 109.2 109.2 0 0 0 8.1-37 80.7 80.7 0 0 0-5.4-31 129 129 0 0 0-17.95-28.8 4.9 4.9 0 0 0-2.7-.45Zm37.15 25.8-2.7-.45q3 8.55 5 15.3 5.55-3.9 13.51-10 7.05-5.4 14-11.1a51.06 51.06 0 0 1-25 6.75 37 37 0 0 1-5-.5Zm1.2 125.5a2.1 2.1 0 0 1 .75-.45 63 63 0 0 1-15 1.65 52.6 52.6 0 0 1-26.8-6 17.2 17.2 0 0 1-7.35-6.45q-5.55 5-11.85 10 3 1.95 8.85 6a50.8 50.8 0 0 0 24.75 7.8h2.7a161 161 0 0 1 20-10.95Zm8.1-5q15.91-10.5 30.31-22A114.9 114.9 0 0 1 725.39 615a42.74 42.74 0 0 1-20.7-4l-2.55-1.65q-1.35 1.2-2.7 2.55l-3.44 3.43 4.35 4.65a19.2 19.2 0 0 0 6.6 3.6 54.2 54.2 0 0 0 19.45 3.15 99 99 0 0 0 22.35-1.7Zm-13.9 15.35q8.4-2.25 18.31-5 1.65-1.8 6.3-6.3a182 182 0 0 1-22.06 10Zm12.9 4q21.16-3.6 53.71-8.4 51.9-8.85 70.3-18.75a383 383 0 0 1 54.45-25q18.3-5.7 28.2-2.7a32 32 0 0 0-3.75-2.7 199 199 0 0 0-22.65-.75q-11.1 0-66.3 21.3t-66.85 21.58a39 39 0 0 1-4.05-.3q-22.2 9-37.5 14Zm-82.9-3.15 5.7 2.85a47.8 47.8 0 0 0 20.7 3.6 113.5 113.5 0 0 0 18.3-1.8 46.8 46.8 0 0 1-22.35-6.6 25 25 0 0 1-9.75-7.95q-6.15 4.98-12.6 9.93Zm54.45 20c5 2 11.3 4.75 19.3 8.25a209.7 209.7 0 0 0 38.16 7.68h27.3a348 348 0 0 0 47-10c18.75-4.75 32.25-8.6 40.45-11.4q5.55-1.7 45.3-17 25.65-8.25 33.45-4.5a65 65 0 0 0 .6-8.1 41 41 0 0 0-.3-5 44 44 0 0 0-3-5q-2.25-2.85-10.65-2.85a100 100 0 0 0-36.6 9.6q-23.35 10.9-31.55 13.6-21.6 7.35-35.55 11.7-24.21 7.41-53.35 13.9h-41.6q-51.91-7.44-58.46-9c-6.55-1.5 0 0-.3 0 6.35 2.9 13 5.3 19.65 8Zm-48.6-10.75a131 131 0 0 0-14.4-3l-3.6 2.4-4.65 3.15h.71a75.9 75.9 0 0 1 29.25 4.05q7.65 2.55 27.45 11.95a271.6 271.6 0 0 0 85.46 25.51h20.55a283.8 283.8 0 0 0 85-21.16 214 214 0 0 1 24.15-9.6 119 119 0 0 1 32.7-4 19.66 19.66 0 0 1 10.8 2.5 196 196 0 0 0 5-21.55 77 77 0 0 0-10.95-.45 111 111 0 0 0-39.75 8c-15 6.9-26.5 11.8-33.9 15A304 304 0 0 1 846.9 674a322 322 0 0 1-43.2 8h-27.3a294.8 294.8 0 0 1-64-17.7 279 279 0 0 0-30.3-10.45 63.6 63.6 0 0 1-11.3-3.3Zm-.75 13.65a90.4 90.4 0 0 0-24.6-9.35l-4.65 3.1a36.1 36.1 0 0 1 16.5 5 281 281 0 0 1 29.7 21.3 269 269 0 0 0 35 24 94 94 0 0 0 33.61 11l20.85-5.85 3.45-.9q-28.35-2.4-74.36-28.21-34.44-19.54-35.6-20.1Zm10-3.65a103.2 103.2 0 0 0-31.35-7.45 77.7 77.7 0 0 1 30 10.45q10 5.7 27.6 17.25c1.2.6 10 5.5 26.5 14.71A143.7 143.7 0 0 0 791 708.79q14.4-4.5 33.3-10.95 3.15-.9 6.45-1.65-9.3 1.5-19.5 2.7h-20a243.6 243.6 0 0 1-83.51-25q-21.79-11.1-27.65-13.35Zm-15 12.75a63.4 63.4 0 0 0-29-12.9l-8.25 5a41.05 41.05 0 0 1 19.35 10q8.25 6.75 23.85 21.46 8.25 5.85 25 20a86.5 86.5 0 0 0 22.75 11.85l26.4-6.75a94.9 94.9 0 0 1-31.8-13.2 285 285 0 0 0-24.25-17.26q-2.6-1.55-23.9-18.3Zm60.9-23.35c-5 1-9.45 1.8-13.9 2.4 4.55.5 11.15 1.35 20 2.55 16.6 2.15 25.41 3.3 26.41 3.3h42.3a623 623 0 0 0 86.2-26.1 660 660 0 0 1 65.25-22.8v-.45a33.4 33.4 0 0 1 16.35 2.85 58.5 58.5 0 0 0-3.75-9q-.9-1.8-1.8-3.3a5.5 5.5 0 0 0-2.7-2.25 13 13 0 0 0-8.85-3.3q-15.6 0-50 15-32.55 15.45-35 16.35c-5.9 2.4-20.35 7.15-43.45 14.25a353 353 0 0 1-49.35 7.65q-33.15 3.6-39.16 3.6a47 47 0 0 1-6.15-.65Zm-65-5.4-.45-.45a1.48 1.48 0 0 0-.75.6 5.3 5.3 0 0 1 1.3.25Zm-85.65 37.45a20 20 0 0 1 5.55 9.16 90.2 90.2 0 0 1 3.3 18.6 160 160 0 0 1 2.55 18 22.8 22.8 0 0 0 3.45 7.95q5 1.2 11 2.1a27.6 27.6 0 0 1-2.85-5.4 53 53 0 0 1-3-12q-.6-5.7-.6-6-1.65-12.15-3.15-18.75a34.1 34.1 0 0 0-6.5-14.71 66 66 0 0 1-9.65 1.25Zm21.6-3.9a25 25 0 0 1 9.45 11.25q2.85 6.32 7.2 18.91 2.85 6 7.65 18.6a63.5 63.5 0 0 0 8.4 13.65h14.1a41.1 41.1 0 0 1-6.45-9.3q-6.3-16.95-7.65-19.35-8.4-16.5-9.45-18a52.7 52.7 0 0 0-19.35-17.11Zm-6.95 1.85a27.1 27.1 0 0 1 5 10.5 115.3 115.3 0 0 1 3.6 20.86 190 190 0 0 1 5 20.4 27 27 0 0 0 4.5 7.2q8.1.9 17.1 1.5a148 148 0 0 1-12-23q-12.9-29.25-21-38Zm-37.9 0a7 7 0 0 1-3.6-1q-1.71-.45-3.45-.75a95 95 0 0 1 8.25 11.4q11.7 19.22 11.7 27.76a33.3 33.3 0 0 1-.9 10v.3A36.07 36.07 0 0 0 576.94 701c0-7.2-7.25-13.76-21.6-19.66Zm16.5 2.1q2.4 1.5 4.35 3a32 32 0 0 0-2.25-2.85 13 13 0 0 1-1.95-.15Zm11.55 26.26a44.8 44.8 0 0 1-3.75 8.25 65 65 0 0 1-8.1 11.7c1 .3 6.2 2.35 15.7 6.15a40 40 0 0 1-1.45-4.35 97 97 0 0 1-2-16.35 45 45 0 0 0-.25-5.4ZM604 676.13a25 25 0 0 1 17.1 11.55 167 167 0 0 1 12 20.86 75 75 0 0 1 8.7 20.25 31.8 31.8 0 0 0 9.45 11.85q11-.9 25-3.15A198.4 198.4 0 0 1 650 712.14q-27.75-30.46-37.65-39.46Zm10.8-4.35a61.4 61.4 0 0 1 16.8 11.1 81.2 81.2 0 0 1 17.85 20.41q.45.45 15.75 20a46.4 46.4 0 0 0 16.65 13.35q12.9-2.25 28.2-5.85-14-6-44.1-30-32.85-27.46-41.1-33.91-5.1 2.65-9.8 4.9ZM652.49 749q-6 2.25-20 6.6a118 118 0 0 1-21 5q-4.5 0-7.5-.3l1 .75a46.86 46.86 0 0 0 21.45 3.75 57 57 0 0 0 23.25-6.75 189 189 0 0 0 17.1-9.15q3-1.5 6-2.7l-20.55 2.7Zm-46 2.25h-6.3a38 38 0 0 1-8.7-.9l2.85 2.25a5.92 5.92 0 0 1 4.2 2 5.45 5.45 0 0 0 3.9 1.8 58.5 58.5 0 0 0 27.7-6.35.4.4 0 0 1 .3 0h-12.6l-5.85-.6a10.8 10.8 0 0 1-5.35 1.85Zm21.75 23.55q2.7 0 7.5.45 13.2 0 37.95-13.95 23.1-14.55 25-15.6l10.8-5.7-14.25 2.7a253 253 0 0 0-31.8 13.2q-27.9 13.5-37 13.5a48.8 48.8 0 0 1-11.1-1.2 111 111 0 0 0 13.1 6.8Zm31.2 10.35a69.26 69.26 0 0 0 31.2-10 168.3 168.3 0 0 1 23.1-18.75 59.7 59.7 0 0 0 11.55-9.6c4-4.5 7.1-7.75 9.1-9.75l3.6-3.15q-5 1.35-10.35 2.55a230.5 230.5 0 0 0-25.9 12.9q-50 30-57.6 30h-5.4a163 163 0 0 0 20.8 5.65ZM586 746.34a18.1 18.1 0 0 0 7.2 1.65q1.05 0 5.4-.45c-5.8-1-10.75-1.95-15-2.85Zm171.71 3.6q-20 18.3-25 22.2a130 130 0 0 1-18.25 12.3c3.25-.5 6.55-1.1 10-1.8A645 645 0 0 0 779 734a191 191 0 0 1 20.25-17.25q-6 1.5-11.85 3.15a59.5 59.5 0 0 0-10.5 8.4q-6.51 6.69-19 21.7Zm15-25.5.6-.6q-6.45 1.8-12.75 3.75-3.75 1.2-7.65 2.25a77.7 77.7 0 0 0-14.41 10.5L719 758.49l-17 15.45a72.7 72.7 0 0 1-26 13l18.45-.3a151 151 0 0 0 31-16.2 197.5 197.5 0 0 0 28.36-22.2 251 251 0 0 1 18.9-23.85Zm-26 52.65q2.7-2.85 16.51-14.25 23.55-19.35 33.3-28.05a187 187 0 0 1 20.85-22.35 10.6 10.6 0 0 0-2 .45 251.2 251.2 0 0 0-47.7 39.6 339 339 0 0 1-26.11 24.15l-4.2 3.15Zm36.91-15a245 245 0 0 1 38.1-35 46.5 46.5 0 0 0 9.45-9.45 70.5 70.5 0 0 1 9.15-10l-7.65 1.65a49.6 49.6 0 0 0-14.4 8.7 182 182 0 0 0-20 21.9q-6 5.55-22.2 21.15a127.4 127.4 0 0 1-15 11.7q5.85-2.4 11.7-5 4.7-2.7 10.85-5.8Zm143.43-180.86a154.5 154.5 0 0 0-50 11.4q-14.55 5.4-59.65 25-3.6 1.65-7.2 3.15a551 551 0 0 0 56.8-17.85q4.05-1.5 17.1-7.95a152 152 0 0 1 20.4-8.85 67.2 67.2 0 0 1 44.7 0 44.3 44.3 0 0 0-22.15-5Zm35.7 86.2a20.5 20.5 0 0 1-4.5-3.6 269.7 269.7 0 0 0-72 17.4 204 204 0 0 1-28 9.3q19-3.3 42.9-5.85a67.7 67.7 0 0 1 41.1 6.76 47.4 47.4 0 0 1 11.55 7.95q0-1.2 8.55-30.46a5.3 5.3 0 0 1 .45-1.65Zm-51.6 25h1.2a32 32 0 0 1 4.35.3v-1.2a.88.88 0 0 0 0 .6Zm-77.35 29.1a56.8 56.8 0 0 1-9.45 9.15q-3 2.25-20.85 18.3-2.7 2.55-5.25 4.65 10.5-6.3 23.55-15a610 610 0 0 1 54.4-36.45.4.4 0 0 1 .3 0q-23.55 1.65-34.15 10.5a73 73 0 0 0-8.55 8.75Zm48.25-22.2-8.7 1.5 4.5.6a40 40 0 0 1 4.2-2.2Z"/></svg>