<svg xmlns="http://www.w3.org/2000/svg" viewBox="0 0 1373.79 474.59"><path fill="currentColor" d="M1259.5 30.32h18.82q32.37 5.1 44.76 18a40.6 40.6 0 0 1 7.92 11.62c1.21 2.59 2.87 6.48 5 11.61a80 80 0 0 1 5.82 22.59q1.1 7.77 2.31 22.94a270.3 270.3 0 0 0 9.47 45.77q5.84 19.8 16.19 45.86a17.47 17.47 0 0 1 4 9.95 3.33 3.33 0 0 1-1 2.43l-1-1.33c0 1.53-.48 2.46-1.45 2.79a30.2 30.2 0 0 1-8.1.6q-11.54 0-68.8-32.37l-.6-.37a19.26 19.26 0 0 1 1.94 9.11 36.8 36.8 0 0 1-1.82 8.74 19.5 19.5 0 0 1-4.86 9.71h-6.67a84.8 84.8 0 0 1-18-11q-9.6-8.1-14.45-12.14a86.4 86.4 0 0 0-42-18.58h-.48a1.06 1.06 0 0 0-.37.36 121 121 0 0 1-9.1 13.12q-12.87 15-44.52 22.94h-8.5a56.2 56.2 0 0 1-15.18 1.58 54.4 54.4 0 0 1-26.62-7.81q-14.41-9.59-20.6-13.6-24.65-15.54-38.37-24.6-14.68-9.84-48.93-21.25c-1.13-.24-3.11-.85-6.07-1.82a40 40 0 0 0-6.15-1.94q-39.71 0-97.37 27.07-18.33 8.53-37.11 19.39-15.78 9.34-17.36 10.19-5.72 3-26.47 15.54a293 293 0 0 1-28.77 15.42q-11.75 5.47-27.89 14.21t-27.31 15.54q-16.2 10-52.61 30.19-37.41 20.72-54.2 31.04-42.9 26.6-55.93 47.23l-.49 1.94a78 78 0 0 0-2.55 11.29 291 291 0 0 0 2.55 29.46q2.43 21.25 2.43 27.56 0 1.59-1.34 16.52l-.48.36q-1.34-8.1-4.05-35.82c-1.78-18.13-2.67-28.57-2.67-31.4v-4.37h-.85q-1-10.93 8.62-23.8c.16-.32.32-.69.49-1.09h.36q14.57-18.57 51-41 17.37-10.68 57.79-32.74 39.14-21.36 56.66-32.37t57.87-32.78q43.35-23.31 58-32.06a424 424 0 0 1 84.82-39q29.63-9.7 48.32-9.1l-8.09-2.43a154 154 0 0 1-29.14-7.53h-2.79q-51.48 0-128.9 48-23.31 14.4-54.35 36.74T715 240.27q-12.13 7.53-41.85 28.78-27.45 19.46-45.15 29.82a222 222 0 0 0-21.73 14.57q-12.56 10-19.51 15.06l-17 14.81a109.6 109.6 0 0 1-15.82 12.83 2.47 2.47 0 0 1-2.55-1.46 4.3 4.3 0 0 1-.24-1.58q0-12.14 20.76-31 11.77-10.56 37.72-31.93l33.14-29.82q20.24-18.94 34.12-33.88 44.51-49 123.51-86.16a356 356 0 0 1 63.86-23.67 141 141 0 0 1 26.91-4.49Q881 109 871.76 106.36a302.5 302.5 0 0 0-65.56-12.75h-26.31q-53.17 2.07-86.8 17.73a139.75 139.75 0 0 0-45.86 35.21 299 299 0 0 0-27.8 37.39A418 418 0 0 0 599 221q-13.71 27.93-31 74.63-3.39 9.22-14.81 43.58-11.29 29.74-19.67 29.75t-12.75-15.79q-3-16.18-3.15-17.24a98.7 98.7 0 0 1-1.62-16.21q0-10.82-.24-16.19 0-1.71-2.19-32.38-1.46-20.23-1.46-33a53.6 53.6 0 0 1 .61-9.47v-24.2a40.7 40.7 0 0 0 .61-8.74 17 17 0 0 1-1.22-1.7l-.48-.73a38.6 38.6 0 0 1-9.83 3.4 19.1 19.1 0 0 1-10.13 3.29 16.7 16.7 0 0 1-5.22-.61 24 24 0 0 1-3.28.36 57 57 0 0 1-22.7-4 42.8 42.8 0 0 0-16.47-4.12 170.3 170.3 0 0 0-38.36 7 28.3 28.3 0 0 1-8.38 1.7c-9.31 2.59-9.79 8.09-1.58 16.19a102.3 102.3 0 0 1 18.82 24.52l10.5 20.28a153 153 0 0 0 12.63 20.23q4.62 5.83 42.49 43.18 33.2 32.67 33.23 36.79a4.89 4.89 0 0 1-2.19 4.05 11.8 11.8 0 0 1-7.65 2.18q-14.32 0-53.62-20a414.5 414.5 0 0 1-53.66-32.46q-49.58-36.42-83.73-56.65-38.73-23.07-101.58-68.4t-69-41.44a42.9 42.9 0 0 0-10.81 5.71l-1.33 1a27.33 27.33 0 0 0-9.6 10.8 56.8 56.8 0 0 0-3.64 13.12 49.4 49.4 0 0 1-6.8 16.95q-5.22 8.1 9 14.82 32.37 13.47 78.51 36.78 30.84 15.42 88.1 44.52 41.4 20.24 96.4 41.76 1.69.74 41.6 12.87 39.1 13.11 39.1 18.94a1.91 1.91 0 0 1-1.58 2.07 73 73 0 0 1-14.69.85q-39.34 0-117.61-27.81-24.27-8.61-53-20.23-24.76-10.2-28.33-11.53-78.75-30.12-117.32-43.83Q75 245.85 48 242.82a40.4 40.4 0 0 1-14.21 2.67h-.48q148.84 50 189.31 64.55 65.92 25.86 92.84 34a1129 1129 0 0 0 148.81 31.44q22.69 0 23.79-.24h17q12.15 4.05 13.84 21.37c.25 2.22.37 7 .37 14.28a57.4 57.4 0 0 0 1.01 12.11q.72 2.67 2.67 21.74Q525 465 525 471.68V474a2.9 2.9 0 0 1-1.21.6 88 88 0 0 1-4.49-24.28q-1.45-19.9-2.19-24.28-.84-18-1.82-26.91-1.69-16.19-10.64-20.24h-8.1a77 77 0 0 0-9 .37H463.9A1170.5 1170.5 0 0 1 317.24 348q-34.47-10.32-93.56-33.26-9.72-3.76-108-36.42Q54.23 258.13 26 245.21q-15.54-1.91-21.93-11a21 21 0 0 1-4-12.5q0-22.59 41.16-39.34 22.86-9.47 82.52-27 10.56-10.44 34.11-15.79h29.34a117.4 117.4 0 0 1 18.09 4.74l15.54.85 37.88 2.06h22.42a296.7 296.7 0 0 0 59.13-7.65q40.92-9.34 57.87-11.53h19.55l1.21.24h23.61q2.91-.6 31.32-9.1 14.94-4.62 54.23-8.1l31-.36q14.32-3.52 24.28-5.34 8.1-1.59 26.18-4.62l18.94-.36a110.2 110.2 0 0 0 25.38-4.05q4.37-1.33 7.89-2.55l1-1a69.8 69.8 0 0 1 13.2-9.71 245 245 0 0 0 30.55-20q19.9-11.54 56.09-15.79v-.24h28.33a56.2 56.2 0 0 1 24.28 11A112.6 112.6 0 0 0 833.92 71a357 357 0 0 1 36.18 17.6l24.28 5.83c-1.37-.49-3.92-1.21-7.65-2.19a20.1 20.1 0 0 1-5.82-2.06l1.49-.36a81.6 81.6 0 0 0 11.86 1.45H923a58 58 0 0 0 8.1.37q48.93 0 107.28-21a648 648 0 0 0 65.65-28 238.7 238.7 0 0 0 39-20.76q24.29-16.19 26.83-17.49 22.22-11.95 36.14 8.81a68.4 68.4 0 0 1 7.49 16.19 42 42 0 0 1 2.18 9 256 256 0 0 1 43.71-7.53Zm0 4a221.5 221.5 0 0 0-45.61 9A253 253 0 0 0 1189.12 54q-10.56 5-57.3 23.88a482 482 0 0 1-62.61 21.37q-9.46 2.3-21.73 4.61c2.7.24 5.77.61 9.23 1.09l58.72.25a55.7 55.7 0 0 1 9.47-1l13-.72 75.23.24 1.22.24 26.71.37a173.3 173.3 0 0 1 39.21 6.67 31.8 31.8 0 0 1 7.16 4 87.2 87.2 0 0 1 21.37 18.7 229 229 0 0 1 18.62 26.38 56.2 56.2 0 0 1 8.08 10.92 71.6 71.6 0 0 0 12.14 16.51 147 147 0 0 0 14.09 13.44 83 83 0 0 1-5.1-13c-2.51-10.28-4.66-17.89-6.44-22.91a182.8 182.8 0 0 1-10.32-45.53 220 220 0 0 0-3-22.58q-2.92-15.42-4.25-23-3.16-18.57-25.34-30.67-17.84-9.72-29.62-9ZM1164 10.77a70 70 0 0 1-8.09 6.92q-6 4.05-10.32 6.8-8.38 5.46-13.88 8.62-8.39 4.86-34 16.63l-32.17 15a374 374 0 0 1-46.26 16q-50.74 14.7-88.22 14.69-7.41-.6-18.82-.61l-17.48-.24 10.1 2.42q16.88 4 51.12 10l15.17.36 1.22.24h22.42a641 641 0 0 0 74.06-12.74 535 535 0 0 0 63.45-22q42.26-16.54 56.46-23.27Q1210 39.86 1212.64 39h.36l-1.21-3.4a109 109 0 0 0-4.62-12.14q-8.09-17.85-22.66-17.85a36.4 36.4 0 0 0-20.51 5.16m62.49 139.94q-2.07 2.92-4 5.47a29.5 29.5 0 0 1 3.76 0 55.4 55.4 0 0 1 12.14 1.94 43.6 43.6 0 0 1 11.3 4q2.91 1.58 8.74 5 9 4.5 34 18.66l29.58 17.73q29.88 16.18 45 16.18a3.25 3.25 0 0 0 3-1.21 3.6 3.6 0 0 0 .25-.85q-5.36-7-13.24-15.54-10.32-10.44-13.11-13.35a62.7 62.7 0 0 1-7.41-9.68 131.5 131.5 0 0 1-21.49-31 63.6 63.6 0 0 0-17-19.06 112.2 112.2 0 0 0-27.81-16.63q-9.23-2.07-21.24 9.23a89.7 89.7 0 0 0-13.36 15.54q-6.45 9.93-9.12 13.57Zm-12.87-43.1h-76.42a64 64 0 0 1-10.32 1.1q-8.37.24-12.14.48h-58c-1-.24-3.93-.61-8.87-1.09q-8.37-.73-13.84-.73c-.32 0-.48-.36-.48-1.09q-17.37 2.67-39.34 5.34H973l-1.21-.24-15.21-.38q-38.36-7.28-49.05-9.47a195.3 195.3 0 0 1-32.13-10.06c1.26.81 2.59 1.57 3.85 2.3q5.22 3.17 18.45 11.9a207 207 0 0 0 23.07 13.23q4.05 1.83 12.14 6.07a61 61 0 0 0 7 2.68 28.7 28.7 0 0 1 6.8 1.45l1.58.61h.73l34.36 3.84a76 76 0 0 1 8.09 1.22l2.18-.24q7.41-.5 26.35-.49a57.88 57.88 0 0 1 36.91 13.6 238 238 0 0 1 24.64 24c4.46 4 11.58 10.68 21.45 20a84.7 84.7 0 0 0 31.21 16.39h18.45q29-7.17 40.47-20.24a105 105 0 0 0 8.09-11.77 85.5 85.5 0 0 1 9.19-12.14 169 169 0 0 0 16.59-23.16 87.8 87.8 0 0 1 18.21-22.34 39 39 0 0 1 17.49-8.1q-7.77-1.2-21.25-1.94l-26.67-.24Zm76.38 85.56a8.7 8.7 0 0 1-1.09-4.86q-53.18-29.91-66.77-29.95a2.6 2.6 0 0 0-2.43 1.22l-3.52 3.64a62.5 62.5 0 0 0-7.29 9.1h2.79a31.9 31.9 0 0 1 16.88 5.23 61 61 0 0 1 10.44 5.66q1.1.61 8.74 6.68 5.34 4.05 15.54 12.14a114 114 0 0 0 18.34 11.65h6.07a25 25 0 0 0 2.3-7.68 46.4 46.4 0 0 0 1.1-6.92 11.6 11.6 0 0 0-1.1-5.91m-870.57-60.71-1.22-.36h-20.76q-13.63 2.18-58.48 12.14a330.4 330.4 0 0 1-58.64 7.16H259q-32.38-2.06-43.83-3 3 1.33 6.07 2.79l31.56 17.12a329 329 0 0 0 103.53 34.07H378a1.15 1.15 0 0 1 .6-.85q13-3.19 26.15-7a169 169 0 0 1 39.58-7 205 205 0 0 1 20.64 4.05l3.15.73.49-.25c.81-.28.61-.6-.61-.89l3.16.65a128 128 0 0 0 20.52 1.34q14 0 29.22-14.21a128 128 0 0 0 19.1-24.31q9.59-14.82 16.19-18.94 13.47-8.38 51.47-14.69a89.6 89.6 0 0 0 42.7-17.48l4.37-4a130 130 0 0 1-26.71 4.61l-18.94.25c-10 1.29-18.94 2.87-27 4.73q-18.83 4.37-23.8 5.34l-31 .25a270.3 270.3 0 0 0-53.82 9 222.6 222.6 0 0 1-31.57 8.62Zm187.62-7q-36.84 5.22-50.47 15.66a40.3 40.3 0 0 0-8.62 9.35c-3.8 5.59-6.15 8.86-7 9.84a113 113 0 0 1-13.36 19.91 71 71 0 0 1-7.16 7.24q-.72 2.43-1.58 5.83c-.56 2.26-1.05 4.17-1.45 5.7v4.5l-.61 2.06v23.31a42.2 42.2 0 0 0-.61 8.62q0 12.14 1.34 32c.56 7.45 1.33 17.93 2.3 31.53q0 2.55 1 33.75 2.68 30 11.54 30t18.82-28.9q10.2-34.59 14.44-46.09 11.18-29.51 14.21-36.91a403 403 0 0 1 17.32-37.76c12.14-22.09 18.74-34.4 20.24-37a199.7 199.7 0 0 1 29.5-37.72 163 163 0 0 1 46.5-34.23q31.24-14 87.21-17h24.81a337 337 0 0 1 69.53 12.14q9.82 2.79 17.6 5.71L875 96.32a241 241 0 0 0-22.46-12.14q-5.34-2.67-22.83-10.8A157 157 0 0 1 813 61.76a56 56 0 0 0-22.1-10.2h-28.73c-24.61 3-43.35 8.1-56.22 16.19a242 242 0 0 1-30.91 21 76.3 76.3 0 0 0-12.63 9.23q-10.08 8.86-12.75 10.81a89 89 0 0 1-42.61 16.67m304.73-6.8-13.35-4.37q-53.34 4.36-123.64 43.55A525 525 0 0 0 717.61 195a240 240 0 0 0-35.94 31.81 349 349 0 0 1-33.22 31.81Q624.17 280 616.07 288.8a157 157 0 0 1-17.32 15.25q-13.35 10.08-19.67 15.06-23 18.33-22.94 30.84 21.24-21.85 75.23-57.95 78.51-52.15 86.16-57.87 147.11-107.37 207.65-107.4H928c-1.05-.41-2.06-.85-3-1.34a143 143 0 0 1-13-6.88ZM991 139.91h-3.56q5 1.58 10 3.28 34.73 11.9 51.72 24.64 34.35 21.57 57.63 37.36a39.5 39.5 0 0 0 14.24 4.25c1.14.16 2.71.28 4.74.36a100.8 100.8 0 0 1-26.11-15.54q-3.63-2.91-22.42-21.45-2.06-2.07-10.56-10-7.15-6.56-11.65-11.41-11.17-12.13-35.82-13.6h-8.62a26 26 0 0 1-7.65 2.07l-7.53.85a9.5 9.5 0 0 1-2.42-.37 7.4 7.4 0 0 1-1.83-.6Zm-836.26 4.61c.24 1.78 9.14 8.78 26.79 21s33.1 22.86 46.38 32.37q41.88 29.74 85.91 56.66A896 896 0 0 1 397.21 311a393 393 0 0 0 53.3 31.69q39.33 20.23 52.61 20.24a9.6 9.6 0 0 0 5.71-1.1 1.9 1.9 0 0 0 .24-1.21q0-1.21-31.41-31.69a548 548 0 0 1-45-47.06 172 172 0 0 1-12.5-19.67q-7-13.61-10.32-19.79a120 120 0 0 0-20-26.71c-4.53-4.37-13.27-7.29-26.1-8.74h-6.76q-65.07-8.62-103.28-33.76a263.4 263.4 0 0 0-32.37-17.56 128.8 128.8 0 0 0-33.75-11.53h-30.15ZM196.24 250q-10.08-5.22-47.19-22.34-17.61-8.1-29.26-14.21A22 22 0 0 0 96 216a146.3 146.3 0 0 1-20.76 13.6 97.7 97.7 0 0 1-20.6 8.5v.69q20.85 2.17 68.8 19.42 21.13 7.65 113.32 43.67 76.85 30 119.38 43.75 61.77 19.78 92.36 19.79h9.22A230.7 230.7 0 0 0 417 349.5q-39.37-12.75-43.79-14.45-46.38-17.6-93.08-40.47-16.38-8.08-42.13-22.05-31.6-17.2-41.76-22.53m-77.42-88.6a193 193 0 0 1-19.06 7.28q-15.9 5.32-47.84 13.44a77.76 77.76 0 0 0-33.34 18.45q-14.82 13-14.82 21.25a15.63 15.63 0 0 0 4.33 11.29q7.29 7.41 24.89 8.09l3.77-.24c.32-.48 0-.73-1-.73 8.74-1 13.19-1.45 13.47-1.45l.73-.25h-1.63a140 140 0 0 1 20.24-10.44 219 219 0 0 0 22.09-10.8 35.06 35.06 0 0 0 12.87-13.36q4-9.35 6.07-13.6a55.2 55.2 0 0 0 4-13.35 59.8 59.8 0 0 1 4-13.8 14 14 0 0 1 1.23-1.78"/></svg>