<svg xmlns="http://www.w3.org/2000/svg" viewBox="0 0 1034.94 438.6"><path fill="currentColor" d="M553.35 48.81c-11.32 0-18 0-20-.18l-17.55 1.42a116.4 116.4 0 0 1-45.88-4.7A88.4 88.4 0 0 1 455 39.17a71.5 71.5 0 0 1 7 18.54 305 305 0 0 1 5.28 39c.16 1.54.31 5.75.53 12.61.22 7.73.31 14 .34 18.76l11 118.18a11 11 0 0 0-.21 3.74q4 42.79 12.15 84.8t27.82 39.79c4 .37 8.13.71 12.55 1 1.14-.61 2.44-1.26 3.93-1.94a52 52 0 0 1 6.64-2.75 105 105 0 0 0 20-39.76q5.82-28.75 9.74-42.41Q573 284.37 585 247c5.41-17.1 9.28-31.26 11.87-42.54.4-1.7.78-3.53 1.08-5.41s.68-3.87 1.06-6q2-12.54 3.27-29.7 2.45-32.83 3.68-41.95 6.59-48.51 34-82.29c-4.61.55-9.65 1.29-15.09 2.22-3.4.56-6.43 1.11-9.06 1.67-1 .46-2 1-2.84 1.48s-3.46.59-7.33 1.15a136 136 0 0 0-17.59 4.23 38.24 38.24 0 0 1-17.87 2c-2.78-1.2-4.54-1.95-5.31-2.19a51 51 0 0 0-11.52-.86m-42.3 389.79c-11.57-1.49-22.89-5.52-25.59-6l-10.14-2.88q-6.85-2.57-21.27-6.33a180 180 0 0 1-21.36-6.68c-13.11-5.32-25.41-10.85-36.94-16.69q-13-6.61-32.86-18.09-24.27-13.85-61.83-37.77-20.7-12.53-30.6-18.86a105 105 0 0 0-17.19-8.66s-3.43-.68-9.86-1.85a25 25 0 0 1-4.67-1.27 1.4 1.4 0 0 0-.49 0l-12.68.9q-29.2-2.13-45.59-12.09a67.2 67.2 0 0 1-12-9.27q-6.48-6.78-9.86-10a5.6 5.6 0 0 1 1 .37 33 33 0 0 0-3.09-2.32 46.8 46.8 0 0 0-11.03-4.93q-4.32-1.4-14.28-4.36a67.5 67.5 0 0 1-24-13.23A52.4 52.4 0 0 1 94.1 242.7a64.4 64.4 0 0 1-5.47-16.88 6 6 0 0 0-.16-.74 72.4 72.4 0 0 0-14.19-9.28q-15.36-8.69-21.73-13a111.2 111.2 0 0 0-24.3-12c-3.92-1.52-7.51-3.1-10.75-4.42a19.37 19.37 0 0 1-12.86-3.47 8 8 0 0 1-3.4-5.28 2.3 2.3 0 0 1 0-.74A11.5 11.5 0 0 1 0 173.11c0-1.85 1.42-5.41 4.79-10.69a36.8 36.8 0 0 1 7.58-9.65 26.24 26.24 0 0 0 9.27-10.57c1.82-4.7 3.28-8.19 4.45-10.48q7.05-18.12 11.31-26.65 7.8-15.45 16.33-8.47 3.8 3.62 10.75 11.38h2.14a52.1 52.1 0 0 0 20.93-7.26c3.09-1.89 7.29-4.73 12.36-8.51-2.07 1.77.68-.37 8.26-6.18a181 181 0 0 1 17-12.18 47.55 47.55 0 0 1 20-7.26 55.8 55.8 0 0 1 11.84 0 75.3 75.3 0 0 0 14.78-.16 58.1 58.1 0 0 0 25.53-9.74L204 51.9c5.9-4.08 10.35-7 13.44-8.68q12.15-6.75 19.94-10.22a108.3 108.3 0 0 1 16.76-6q7.67-2 38.86-11.91A617 617 0 0 1 355.22 1.3v-.19L367.31 0a70.4 70.4 0 0 1 11 1.39A26.26 26.26 0 0 1 392 3.09c4.42 1.45 10.54 3.77 18.55 7a150 150 0 0 1 17.31 6.86 60.7 60.7 0 0 1 14.22 8.41 85.2 85.2 0 0 0 26.71 16 101.55 101.55 0 0 0 46 5.1l17.53-1.51q24.1-1.19 34.65 2h.15q9.47 2.84 28.29-2.08c12.36-3.33 18.33-4.48 17.56-3.49a103 103 0 0 1 12.7-3.49 118.3 118.3 0 0 1 33-3.09 95.4 95.4 0 0 1 25.41 4.91q6.68 2.56 27 13.14a143.7 143.7 0 0 0 30.44 12.36l11.72-1.08 5.44-1.91a58.3 58.3 0 0 1 11.59-2.48q14-1.29 35.86 7.3a186 186 0 0 1 21 9.8 153.4 153.4 0 0 0 24 8.93c6.77 2 12.37 3.56 16.66 4.89a97.4 97.4 0 0 1 32.74 5.22 231 231 0 0 1 30.17 15.09 153 153 0 0 1 19 15.17 103 103 0 0 1 14.81 16.67 52 52 0 0 0 7.58 7.48 10 10 0 0 0-1.18-.53 106 106 0 0 0 12.56 9.24l1.49.89q8.4 5.1 25.56 14.78a32.42 32.42 0 0 1 14.38 16.26c1.6 4 3.61 9.86 6 17.77l1.8 19.29c.18.62.92 5.38 2.25 14.32a15.43 15.43 0 0 1-5.07 11.65 53 53 0 0 1-16.41 7.48 155 155 0 0 0-24.42 9.8 136 136 0 0 0-23.28 17.13c-1.83 1.79-3.62 3.65-5.35 5.53a99 99 0 0 0-9.58 14.19 53.3 53.3 0 0 1-11 13.88 36 36 0 0 1-4.08 3.09 3 3 0 0 1-1.3 1.15l-.27-.19q-20.28 12.71-69.47 21.05l-23.86 2.26c-3.37.31-6.43.65-9.28 1.05s-5.47.9-9.64 1.33l-5.53.52 4 .56h-.18c-2.41 0-5.84 0-10.2.19q-2.79.18-5 .18h-4.67l-16.54 1.55-4.82 1.53c-2.16.65-8.69 1.7-19.54 3.09L732 361.87c-1.61-.08-3.23-.08-4.85 0h-4.95a119.3 119.3 0 0 0-38.91 11c-11.16 6.18-16.95 9.27-17.38 9.52a203 203 0 0 1-23 11.74q-11.6 5.18-21.64 9.09-35.55 13.17-49.46 19.48a151 151 0 0 1-16 4.39l-23.06 5.56c-1.6.41-1.67 2.06-2.86 3.2l-6.1 1.76Zm15.12-4.83a11.76 11.76 0 0 1 3.65-3.68q1-.45 14.93-3.7 2.91-4.51 38.52-22.48 19.79-10.11 43.28-21.64 32.52-18.18 44-25.84 10.53-9.27 16-13.79a44.55 44.55 0 0 1 16.29-8l-8.28-2.19-2.69.25a11 11 0 0 1 1.17-.59h-.18a241 241 0 0 0-38.21-6.18L642.28 327a39.6 39.6 0 0 0-9.7 5.84 3.6 3.6 0 0 0-.78.62c-2.25 1.7-4.7 3.74-7.35 6.18l-5 4.46A62.9 62.9 0 0 1 604 358.35c-3.37 2.34-6.92 4.57-10.63 6.64a295 295 0 0 1-8.47 12.15q-6.61 8.91-16 19.35c-2.07 2.38-4.64 5.69-7.67 9.93a38 38 0 0 1-12.15 9.42q-13.79 7.14-16.72 8.54a77 77 0 0 1-15.12 6.49 9.28 9.28 0 0 1-8.22-2.2 26 26 0 0 1-1.21-3.09 102.3 102.3 0 0 1 4.3-19.1q4.49-16.67 4-22.63a39 39 0 0 0-.59-4.42c-.19-.59-.4-1.27-.65-2a193 193 0 0 1-53.08-13.14q-9.52-3.88-28.32-13.23l-2.84-1.39c1.08 1.76 2.47 4.11 4.11 7.05a194.6 194.6 0 0 0 18.95 27.82 219 219 0 0 0 23.16 20.59c9.8 8 14.87 13.79 15.17 17.31a2.87 2.87 0 0 1-2.13 3.46 2.6 2.6 0 0 1-1 .06q-8.46.81-54.65-20.37-40.41-18.54-53.79-26.68a352.4 352.4 0 0 1-44.14-30.35A197.8 197.8 0 0 0 293.06 320l-9.28-1.91a200 200 0 0 0-24.73-3.59 82.7 82.7 0 0 1 14.69 6.83q10.63 6.18 29.73 19.42 34.5 22.59 59.73 36.81t32.71 18.3q18.07 9.59 36.29 17a365 365 0 0 0 41.24 12c16.61 5 23.49 9.12 33.76 9.8a86.6 86.6 0 0 0 18.97-.89M643 38.8q-1.11 3.09-14.68 25.47A177.4 177.4 0 0 0 609 123.65q-.93 7.24-2.78 41.21c-.25 4.17-.53 8.19-.87 12 2.35-4.91 5.26-10.48 8.72-16.63q14.6-26.08 21.64-33.72a118.8 118.8 0 0 0 13.23-19q8.69-15 12.36-20.07A71.4 71.4 0 0 1 678 71.1a81 81 0 0 1 8.31-6.86 56.5 56.5 0 0 1 22.1-9.24l-4.21-2.31a131.8 131.8 0 0 0-25.2-11.3 85.7 85.7 0 0 0-32.52-3.09Zm-390.75-7.3q-9.25 3.59-40.19 20.13l-1.48.86a1.14 1.14 0 0 1-1 1 1.22 1.22 0 0 0-.87 1.47c0 .31 1.39 3.68 4.11 10.14 3.09 7.11 4.82 11.57 5.41 13.36-.93-1.27-1.76-2.44-2.57-3.46q2.19 5.28 4.33 11.31 4.26 12.21 12.15 37.81 16.14 48.49 45.07 75.7 10 10.05 80.07 84.4 37.1 39.38 52.95 53 24.42 10.61 43.12 18.36a79.5 79.5 0 0 1-25.25-23.37 135 135 0 0 1-11.69-21.64q-6.07-14.46-9.27-21-10.51-21.19-18.12-37.09c-3.61-7.36-6.74-13.88-9.27-19.51a4 4 0 0 1-.34-.83q-8.25-17.59-10.51-24-8.69-11.14-16.3-21.61a249 249 0 0 1-17.22-21 402 402 0 0 1-27.82-45.66Q284.9 77.66 282.82 74a268.7 268.7 0 0 0-29.15-41.24c-.46-.46-.95-.86-1.42-1.26m9.28 3.43a71 71 0 0 1 6.86 8.78 114.3 114.3 0 0 1 18.7 27.2q.78 1.62 10.94 23.75a164 164 0 0 0 12.06 22.53q9.27 14.72 27.82 45.57c2.32 3.43 4.64 6.8 7 10 3.86 4.24 9 9.5 15.46 15.71a109.5 109.5 0 0 1 9.26 11.53q4.35-12.7 9.27-27.11a354 354 0 0 0 15.46-55.65q4.08-21.24 6.37-33.82 2-25.77 2.75-33.38a63.7 63.7 0 0 0 .46-11.13q-1.6-17.62-6-26a68 68 0 0 0-2.25-3.43 12.5 12.5 0 0 0-2.17-2.13 320 320 0 0 0-13-3.65l-12.8-.28-12.37 1.4q-44.67 8.72-61.83 14l-37.81 11.63a18.5 18.5 0 0 1 5.82 4.48M401 9.74a22 22 0 0 1 1.55 2.47 36.5 36.5 0 0 1 3.43 12 23.7 23.7 0 0 1 1.61 6.46 176.7 176.7 0 0 1-.93 41.24q-1.67 12.81-7.7 45.6-2.16 13.64-8.37 43.28a133.3 133.3 0 0 1-10.33 26.95c-4.63 9.71-6.18 17.13-5 22.36a64 64 0 0 0 1.95 6.89v-.62q4 8.8 11.47 24.36 21.64 44.42 22.72 47.14 3.09 6.59 9.28 20.56a138.3 138.3 0 0 0 11.8 20.87 102.5 102.5 0 0 0 46.16 35.86v.55c5.9 2.2 10.42 3.71 13.45 4.55s5.87 1.39 9.27 2Q490 363.41 485 325q-7.39-56.47-10.95-92t-4.14-45.87l-7.76-109a130.6 130.6 0 0 0-4.66-25.57 59.9 59.9 0 0 0-9.28-17.77 49 49 0 0 1-5.53-4.52q-8.29-7.78-27.61-15.45-6.79-2.67-14.07-5.08M402.55 72c.53-3.59 1-7.24 1.3-10.92l-3.09 21.64c.8-4.42 1.36-7.94 1.79-10.72M217.41 89.65q-4.11-13.11-7.85-23.46a28.2 28.2 0 0 1-4.79-10.55Q177.5 69.8 172.06 70.3a85 85 0 0 1-14.62.24c-4.05-.43-6.18-.65-6.65-.61Q133.27 71.57 112.15 87a123 123 0 0 1 22.48 11.31q19.29 11.59 60.12 38.69 15.47 10.67 41.55 26.43a137 137 0 0 1 17.13 13.29 229.6 229.6 0 0 1-23.68-48.63q-2.62-7.02-12.34-38.44m46.06 101.15q-24.72-18.21-39.16-28.69-28.67-20.9-47.8-33.67-52-34.8-71.65-35.92-11 8.57-15.46 11.32a44.55 44.55 0 0 1-19.26 7l-3.09.19 5.75 6.46a161 161 0 0 0 14.47 15.46q19 13.84 23 16.94a262 262 0 0 1 21.33 18.31q53.6 51.93 76.32 71.1a636 636 0 0 0 65.29 48.7q26.66 14.55 34.38 18.33A344 344 0 0 0 357.05 326l6.83.49a176 176 0 0 1 33.39 5.66 123.6 123.6 0 0 1-20.56-18.95 360 360 0 0 0-32.43-37.59q-13-12.36-35.58-36.29-30.21-32.18-34.22-36.14-5.76-5.88-11.01-12.38M337 345.15a404 404 0 0 0 43.28 30.29 579 579 0 0 0 56.3 28.75 321 321 0 0 0 51.71 19.32 1.69 1.69 0 0 0 .78-1.85q0-1.31-16.54-15.68a289 289 0 0 1-22.6-20.83c-4-5.29-7.95-10.76-12-16.48q-11.91-17.07-12.37-21v-.19q-13.79-6.68-22.66-10.29-16.35-6.76-47.7-9.27-31.71-1.62-39.81-2.85l-11.32-2.38a.94.94 0 0 1 .4.25c2.88 1.64 6.8 4.05 11.75 7.17a47.7 47.7 0 0 1 10.94 6.83c2.16 1.59 5.31 4.34 9.84 8.21m6.59-20.35a262.5 262.5 0 0 1-39-17.8c1.57.9 3.09 1.79 4.73 2.63a456.3 456.3 0 0 1-83.07-49.46 570 570 0 0 1-61.58-54.72 680 680 0 0 0-59.1-54l-17.68-13.52a176 176 0 0 1-14.78-13.07c-4.08-5.72-7.7-10.54-10.85-14.53l-.43-.77q-9.28-11.1-14.29-10.64c-4.39.4-8.47 5.75-12.36 16-2 5.59-4.27 12.58-7.2 21.26-1 2.14-2.32 5.35-3.87 9.59a23.94 23.94 0 0 1-9.61 9.55 32.5 32.5 0 0 0-6.59 8.47c-3.09 5.22-4.79 8.56-4.63 10 .18 2.22 1.82 4.11 4.88 5.62 3.9 1.92 6.18 3.09 7.23 3.77h1.86a127.3 127.3 0 0 0 21.64-3.95l9.77-3.09 18.55-1.71q14.25 4.92 18 14.81a89.3 89.3 0 0 1 3.67 17.56c.84 2.57 2.11 8.07 3.74 16.48a74.7 74.7 0 0 0 5 17.15 50.3 50.3 0 0 0 12.58 16.33 52.2 52.2 0 0 0 24.55 12.55 60.2 60.2 0 0 1 34.28 19.53 157 157 0 0 1 12.37 9.93q17.34 11.75 44.76 13.07l12.36-1.14a214.4 214.4 0 0 1 47.27 4.54l32.37 7c6.18.74 14.62 1.61 25.38 2.53Zm174.63 53.86a28.4 28.4 0 0 1 1.11 4.91 74.4 74.4 0 0 1-3.77 24.73q-4.54 16.14-4.45 17.16c0 .8.68 1.36 1.82 1.7a10.3 10.3 0 0 0 4 .28 69.5 69.5 0 0 0 15.86-6.87 178 178 0 0 0 17-9.58 58.4 58.4 0 0 0 10.88-9.27q5.19-6.18 7.7-9.28c2.5-3.09 4.6-6.55 13.48-19.29a41 41 0 0 1 2.47-3.3 155 155 0 0 1-16.17 6.15l-33.69 3.09a10.54 10.54 0 0 1-8.1-.28l-3.93-.22a7 7 0 0 1 .59.62l-5-1a2.5 2.5 0 0 1 .06.38ZM758.49 66a53 53 0 0 1-11.13 2.41 43.8 43.8 0 0 1-21.64-4.14c-1.83-.77-6.18-3.09-12.83-6.65-3 .66-5.87 1.44-8.72 2.32q-27.82 10.57-41 29A197 197 0 0 0 652 108.2a148 148 0 0 1-12.37 20.06q-27 34.77-35.36 60.53a149 149 0 0 1-3.46 17.62q-19.6 72.12-23.37 84.82a656 656 0 0 1-26.77 74.91c-.84 4.45-1.06 6.58-.62 6.49a106.14 106.14 0 0 0 45.69-34.5 196 196 0 0 0 13.82-20.62q7.41-13.26 10.72-19 15.27-25.23 22.82-38 13.53-22.75 21.45-38.77a416.4 416.4 0 0 1 51.69-77.59c1.67-2 6.18-8.44 13.66-19.23a152.6 152.6 0 0 1 17-21.14q22.9-23.16 61.34-30.45-27.83-10.69-38-9.8A56.3 56.3 0 0 0 758.49 66m3.09 31.47q-3.9 3.24-11.16 10a134 134 0 0 0-16.42 19L719.69 146q-15.06 19-28.07 38.61a401 401 0 0 0-22.91 38.24q-26.15 50.18-53 92-29.22 45.43-44.76 56.66a149 149 0 0 0 19.31-8.51 41.5 41.5 0 0 1 7.88-5.65 113.4 113.4 0 0 0 13.57-9.09 1.7 1.7 0 0 1 .34-.31q6.68-8.34 11.1-13.05a39.1 39.1 0 0 1 15.11-10.6q5.07-5.62 13.79-15 24.21-26.34 36-41.15 8.68-10.93 22.82-32t22.32-31.38q5.83-7.43 16.35-18.55a.3.3 0 0 0-.19 0l.78-.62c3.61-3.86 7.6-8.07 12-12.55q21.24-21.8 30.3-32.8 1.17-1.38 10.2-14.62a110 110 0 0 1 14-17.43 58.1 58.1 0 0 1 37.68-17.1c-8.4-2.56-19.13-6.55-32.08-12-3.09-1.3-6-2.48-8.72-3.59-5 1.45-8.32 2.41-10.08 2.88a57 57 0 0 0-9.46 3.49 72 72 0 0 1-9.27 3.74c-5.35 1.85-8.84 3.09-10.54 3.86a52.2 52.2 0 0 0-12.58 8.02Zm32.18 47q-8 10-27.3 30a5.4 5.4 0 0 1 .71-.55 432 432 0 0 1 38.46-21q60.52-29.15 114.81-34.16a8.94 8.94 0 0 0 5.75-3.09 23 23 0 0 1 2.1-2.44c-2.5-1.55-6.18-3.56-11.06-5.94q-11.79-5.77-14.66-7.42-4.14-2.41-25-5.22l-3.77-.47h-.83a37.9 37.9 0 0 1-11.69-1.51q-27.6 3.74-44 20.28a108.3 108.3 0 0 0-12.86 16.17q-8.42 12.58-10.66 15.37Zm-34.87 37.68a328 328 0 0 0-23.16 26.25q-14.73 19.37-44.05 62.21a335.5 335.5 0 0 1-47.48 52.56l10.08-.93c6.74.56 13.54 1.36 20.34 2.47a153.6 153.6 0 0 0 34.84-25.78q16.2-17.37 23-23.8a361 361 0 0 1 29.64-23.81q24.36-17.7 35.15-26.52a513.2 513.2 0 0 1 94.63-61q47.76-23.49 70.63-18.55a152.7 152.7 0 0 0-30.66-29.37 6.84 6.84 0 0 1-5.72 5.29c-.93.22-6.18.74-16 1.67q-37.47 3.41-100.25 33-20.31 9.49-40.38 20.5ZM551.06 375l6.4.71c-2.44-.31-4.55-.62-6.34-.9a.4.4 0 0 0-.06.19m-1-1.58v-.74l-.62.52a4.6 4.6 0 0 1 .63.17Zm19.17 46.93q13.13-6 50.91-20.28c12.83-4.7 20.19-7.48 22-8.26a93.3 93.3 0 0 0 23-12.95 91 91 0 0 1 19.32-10.42 108.1 108.1 0 0 1 33.39-9.61l41.27-2.63c10.26-1.3 16.32-2.22 18.17-2.69l4.36-1.33a323 323 0 0 1-38.53-6.18h-.55l-2.38-.62c-7.27-1.82-12.37-3.09-15-3.92l-19-5.41a64 64 0 0 0-8.22 3.74 52 52 0 0 0-8.29 6.18q-5 4.29-16.78 13a226.5 226.5 0 0 1-40.19 24.73q-53.12 26.89-79.32 41.15 13.85-3.65 15.86-4.39Zm109.61-95c4.8.87 9.59 1.86 14.35 3.09l4.76 1.24q22.15-12.9 55.18-35.49 43.71-30.48 67.23-46.15a349 349 0 0 1 34.91-20.34 35.4 35.4 0 0 1 9-5c.84-.28 1.76-.53 2.72-.8a294 294 0 0 1 27.82-11.16q4.54-1.46 25.35-9c14.78-5.13 27.82-9.27 38.86-12.36q33.66-10.14 48.72-9.15l-1.08-.47a89.2 89.2 0 0 0-24.42-6.58l-35.71 3.58q-21 3.09-41.76 6.19a577 577 0 0 0-58.95 12.08q-12.15 8.44-28.69 20.9-21.82 16.38-29.37 20.77a197.5 197.5 0 0 0-32.52 24.73q-8.87 8.07-28.75 28.54a342 342 0 0 1-25.1 24.03q-12.74 10.37-21.64 11.16Zm143.81-43.74a180 180 0 0 1 19.7-9.61q23.86-9.29 81.09-21.12 51.66-4.48 73.48-1.95a130.5 130.5 0 0 1 24.88 5.32 30.2 30.2 0 0 0 4.7-3.4 14.54 14.54 0 0 0 5.35-12.36 45 45 0 0 0-1.08-5.66 8.33 8.33 0 0 1-3.09-3.28 26.2 26.2 0 0 0-2.72-5.22q-6.18-5.66-46.37-4.55l-25.26 1.77c-4.11-.9-15.46-1.27-34.16-1-15.86.24-25.75.52-29.61.89-4.89.43-9.46 1-13.82 1.73q-12.82 5.94-25.81 12.74-17.07 9-29.34 16.94-2 1.31-61.11 43a406 406 0 0 1-57.75 34.62c3.09.78 6.58 1.76 10.73 3.09q0-.36 1 0a11.5 11.5 0 0 1 2.1.84q9.76-.93 45-18.89 18.27-9.27 41.85-22.38c5.26-3.04 12.06-6.81 20.25-11.54Zm-99.29 55.05 2.19.65c4.92 1.39 9.8 2.72 14.69 3.93q8.63-3.64 32.09-11.62 34.18-11.66 39.84-13.08l59.17-5.47q13.11.27 23.15.74 41.46-7.76 52.56-16c.58-.44 3.3-3.09 8.19-8a36 36 0 0 1 7.36-5.81 29.27 29.27 0 0 1 15-9.28 52.5 52.5 0 0 1 18.79-8.9 104.5 104.5 0 0 0 21.64-7.33q-9.45-1.61-21.23-3.09a272.5 272.5 0 0 0-58.09 0q-68.91 6.28-141.15 44.6-4 2.14-45.63 26-20.64 11.88-28.35 12.58Zm106.87 11.07c2.7-.43 6.06-.89 10.1-1.39l24.46-2.47q46.19-8.07 66.43-19.45a46.6 46.6 0 0 0-13.05-5.22 337 337 0 0 0-45.17-3.64l-60.9 5.63a401 401 0 0 0-45.38 13.88c-9.28 3.31-16.2 5.78-21.18 7.36a289.5 289.5 0 0 0 58.46 7.26l17.53-1.55a77 77 0 0 1 8.84-.43Zm177.53-171.13c.74.58 4.45 3.86 11.13 9.76a119 119 0 0 0-10.64-9.55l-.58-.31Zm-25.16-14.25a73.1 73.1 0 0 1-18.92-15.46 24.2 24.2 0 0 0-8.78-1.15q-41.08 3.81-97.29 41.34l-1.57 1.05a215 215 0 0 1 29.21-5.72c7.2-1 18.27-2.44 33.11-4.27a282 282 0 0 0 28.44-4.67V173l29-2.69c14 .8 23.68 2.38 28.9 4.67-14.38-8-21.67-12.37-22.17-12.64Zm36.29 24c-.47-.15-2.54-1.17-6.18-3.09a20.7 20.7 0 0 0-6.19-2.5q-26.61 2.48-69.24 17.4-27 9.47-52.55 20.87 16.1-1.2 102.53-3.71 34.76 0 42 4.76l-1-10.6q-3.63-11-5.85-16.79a31.7 31.7 0 0 0-3.58-6.34Zm-65.65 109.77a125.5 125.5 0 0 1-43.84 16.44 115 115 0 0 1 14 1.39 20.2 20.2 0 0 1 9 3.74 11.7 11.7 0 0 1 3.09 4.18 34.6 34.6 0 0 0 5-4 54 54 0 0 0 9.71-13.73 71 71 0 0 1 6.18-9.7Zm14.22-14.25a11.4 11.4 0 0 1 1.27-1.33 4.1 4.1 0 0 0-1.21 1 .15.15 0 0 0 0 .21.17.17 0 0 0 .1.07ZM67.51 178.09 49 179.82c-1.21.31-4.73 1.3-10.51 3.09A101.4 101.4 0 0 1 22.07 186c2.26.87 4.73 1.74 7.42 2.66a129.7 129.7 0 0 1 25.69 12.06 106 106 0 0 0 12.37 7q4.26 2 12.18 5.84a41.7 41.7 0 0 1 8.27 5.37c-1.11-5.41-1.79-8.57-2.07-9.28A81.4 81.4 0 0 0 83 193.27c-2.22-6.55-7.32-11.56-15.49-15.18m-57.28 4.76H10a12 12 0 0 1-1.73-.49 13 13 0 0 0 1.96.49"/></svg>