<svg xmlns="http://www.w3.org/2000/svg" width="87" height="72" fill="none" viewBox="0 0 87 72"><path fill="currentColor" fill-rule="evenodd" d="M52.953 69.884a.15.15 0 0 1 .055.054l-.041-.04zm7.286-2.486q.4 1.462.482 1.884.138.738.194 1.748a.5.5 0 0 0-.097.096q-3.085-7.128-4.71-10.705-2.865-6.28-5.303-10.733 4.2 6.063 5.771 8.821a38.5 38.5 0 0 1 3.663 8.89m-6.776-19.512q.386.327.716.587 2.713 2.295 4.421 4.465 2.631 3.305 3.705 7.278.758 2.8.661 5.216a13 13 0 0 1-.564 3.414q-.221.382-.579.887.565-1.35.538-3.318 0-1.993-.552-4.014-1.446-5.367-3.897-8.534-2.713-3.481-3.127-3.96-1.734-2.007-3.636-3.318.139-.082.262-.177.028 0 .041.013.662.37 2.01 1.46m-1.322-1.488q1.143.669 2.492 1.557 3.182 2.103 4.835 4.383.77 1.078 1.984 3.25a.1.1 0 0 0 .013.04q0 .015.014.041.028.014.027.042 1.433 2.594 1.777 3.864.33 1.215.482 2.895.138 1.788-.041 2.744a12 12 0 0 1-.675 2.321q.18-.97.22-2.048.056-2.499-.716-5.352a20.2 20.2 0 0 0-3.746-7.414 24.3 24.3 0 0 0-3.25-3.36q.014-.012.027 0l.028-.054a251 251 0 0 1-1.915-1.57 51 51 0 0 1-1.556-1.339m1.776-2.649q.578-.573 2.19-1.53a.4.4 0 0 0 .069-.034 39 39 0 0 0-2.328 1.66 2 2 0 0 0 .07-.096m-7.285 4.165q-.192 1.734.028 5.871.234 4.588.771 6.596.234.873 1.13 2.69.771 1.57 1.212 2.252.453.75 1.211 2.43.58 1.093 1.377 1.79l-.096-.069q-.44-.3-1.598-1.215-1.803-1.42-2.63-2.731-.66-1.065-1.17-2.95-.757-2.813-.855-6.253-.068-3.455-.096-3.55.123-.997.22-2.062.083-.888.138-1.489.055-.327.124-1.242a4 4 0 0 0 .234-.068m1.473-.396q-.234.395-.027 1.748.137 1.05.44 2.184.51 1.898 1.942 5.64 1.392 3.685 2.025 4.86.909 1.707 3.154 5.94 1.695 2.813 3.154 3.44l-.565-.054q-.33-.054-.619-.095 0-.014.013-.014-2.259-.751-3.608-2.84-1.268-2.486-2.12-3.564-.552-.71-1.764-3.318-1.185-2.61-1.543-3.932-1.143-7.278-1.24-9.79.415-.123.758-.205m-.84.232q-.248.819-.068 2.199.123.874.399 2.553.124.928.303 2.786.11 1.134.427 2.32.813 3.005 3.884 8.207 2.424 4.096 3.994 5.161-1.226-.204-1.736-.395a3 3 0 0 0-.206-.069q-.289-.231-.689-.587-.62-.518-.936-.615-.138-.163-.316-.368a5.4 5.4 0 0 1-1.007-1.475q-.233-.464-.647-1.188a30 30 0 0 1-.661-1.147q-2.052-3.932-2.3-4.806-.606-2.267-.812-6.663-.098-3.988-.18-4.315-.04-.136.042-.697.11-.573.055-.778.234-.068.454-.123m3.595-1.01a52 52 0 0 1 2.176 2.007q2.768 2.73 4.683 5.352 1.185 1.639 2.258 4.042a29.5 29.5 0 0 1 1.57 4.315q.524 1.938.538 3.919.054 2.361-.717 3.96.221-1.885.22-2.704a11.6 11.6 0 0 0-.427-3.305q-1.046-3.877-4.682-9.558-3.39-5.325-6.198-7.77.318-.136.579-.258m-1.708.587q.178.396 2.548 4.997 2.712 5.284 3.553 7.292 1.061 2.513 2.947 6.212.386.765 1.488 3.346.577 1.365.978 2.17a1 1 0 0 0-.151.192 2 2 0 0 1-.18-.068q-.55-.287-1.102-1.093a4 4 0 0 1-.399-.71 16 16 0 0 1-.358-.792 29 29 0 0 1-.648-1.529 36 36 0 0 0-.633-1.53q-.537-1.173-1.556-2.935-1.172-1.966-1.736-2.963-.826-1.474-2.506-5.694-1.79-4.396-2.37-6.582a1 1 0 0 0-.054-.259q0-.014-.014-.027.083-.014.193-.027m-.826.123a.45.45 0 0 0 .22 0 1 1 0 0 0 .11-.028.3.3 0 0 1 .083-.013q.138.586.33 1.611.235.874 1.75 4.601.206.629 1.032 2.581.772 1.844.786 1.926.233.873 2.01 3.836l1.887 3.14q.385.861 1.612 4.206.62 1.392 1.198 2.049-.193-.082-.634-.233-.977-.533-1.736-1.856a20 20 0 0 0-.798-1.216q-.51-.766-.77-1.228a108 108 0 0 1-2.673-5.012q-.62-1.256-1.997-4.834-1.474-3.837-1.956-5.612a20 20 0 0 1-.386-1.911q-.166-1.12-.178-1.175.027-.614 0-.723l-.014-.068a1 1 0 0 1 .124-.041m1.666-.37q2.63 1.912 6.281 7.702 3.663 5.817 4.682 9.585.4 1.461.344 3.236-.041.9-.082 3.004h-.014a6.6 6.6 0 0 0-.11-.983 64 64 0 0 0-.592-2.28 38.4 38.4 0 0 0-4.298-10.022q-3.897-5.817-6.57-10.132.194-.04.36-.11m18.649 8.357q-2.81.438-4.711.274a79 79 0 0 1-1.983-.192.6.6 0 0 0-.069-.122 35 35 0 0 0-1.405-2.417q2.768 1.038 6.556 1.475 2.865.341 4.628.163zm4.476-1.324q-4.587.341-8.236-.26-1.267-.205-4.559-1.105a8 8 0 0 0-.606-.834 18 18 0 0 0-1.804-1.925q2.988 1.94 7.974 3.127 2.824.683 5.44.901 1.09.082 1.901.069zm1.336-.806q-2.838-.136-4.655-.518a25.5 25.5 0 0 1-3.32-.928q-1.707-.547-2.864-1.147a352 352 0 0 1-4.683-2.5 55 55 0 0 0-3.209-1.665q1.39.191 2.34.313.938.657 3.679 1.817a689 689 0 0 1 4.118 1.625q2.438 1.05 5.895 2.116 2.244.669 3.553.901zm.536.218q-7.754.342-12.547-1.624-1.61-.67-3.635-1.94-2.273-1.419-3.113-1.83a29 29 0 0 0-1.212-.846q-1.226-.791-2.025-1.12l-.289-.108a.4.4 0 0 1 .042-.055.14.14 0 0 1 .055-.027 71 71 0 0 0 3.126.518q1.13.656 3.236 1.898 2.784 1.653 4.793 2.526 5.496 2.472 11.804 2.513a4 4 0 0 1-.235.096m1.364-.477a266 266 0 0 0-5.385-1.338q-3.471-.901-5.082-1.693-.647-.315-2.356-.97-1.61-.627-2.3-.97-.177-.094-2.024-1.105 1.336.368 3.291.914 3.747 1.038 5.358 1.666.634.233 4.876 1.885.675.273 2.59 1.147l1.046.464zm.62-.164q-.812-.478-3.967-1.748-3.14-1.257-5.054-1.925-3.568-1.27-5.316-1.79-.855-.243-1.626-.436.786 0 1.501-.027a38 38 0 0 0 3.265-.314q2.563 1.023 5.674 2.785a315 315 0 0 0 5.22 3.1l.262.26q.027.04.041.095m-5.578-7.455a15.5 15.5 0 0 1 3.512 3.563q.675.942 1.253 2.048-.771-1.037-2.052-2.348-2.286-2.349-3.677-3.004.124-.028.22-.055zm.11 1.42q1.805 1.23 2.755 2.376.165.218 1.392 1.993.247.355.481.67-.496-.328-1.225-.779a102 102 0 0 0-3.127-1.885 46 46 0 0 0-3.209-1.624 24 24 0 0 0-2.437-1.01 40 40 0 0 0 3.842-.779q.702.45 1.528 1.038m11.873-8.67a.1.1 0 0 0-.042.012l-3.14.902q-1.638.915-3.926 1.624-.467.15-2.478.683-1.764.48-6.019.71-2.19.123-4.6.233l-2.038.505-2.356.423q-1.5.382-2.616.737.756-.354 1.322-.655l5.908-1.57q2.658-.33 5.179-.751 2.685-.479 4.31-.737l4.793-1.27.22-.014 1.736-.424q1.902-.354 3.196-.396.289-.027.55-.013m2.493.245q-.745.3-5.014 2.58-4.945 2.635-5.248 2.772l-5.081 1.407q-4.147 1.105-8.086 1.27a38 38 0 0 1-4.214-.11l-.565-.068a.2.2 0 0 0-.096-.028v.014a36 36 0 0 1-1.97-.437 11 11 0 0 0-2.424-.218l.855-.355q2.286-.942 4.173-1.447a20 20 0 0 1 2.107-.437q.785-.15.964-.123l2.038-.533q2.48-.095 4.67-.232 4.296-.246 5.921-.682a45 45 0 0 0 3.32-1.025q2.08-.737 3.016-1.283l2.19-.6.11-.07 1.75-.464q.466-.027 1.487.055.055 0 .097.014M51.177 30.79a.5.5 0 0 1 .123-.055q.621-.163 1.35 1.01.372.601.62 1.257.248.915.497 2.99.22 1.952.22 2.636a18.5 18.5 0 0 1-.276 3.004q-.11.586-.358 1.542-.083.343-.358.874-.207.26-.454.56-.207.246-.414.478.056-.135.096-.26.18-1.16.358-1.747a8.6 8.6 0 0 0 .317-1.693q.055-.37.152-1.652a21.6 21.6 0 0 0-.042-3.155q-.15-1.76-.523-3.14-.165-.6-.606-1.57-.303-.669-.702-1.065zm-.166.56.056-.218q.137.19.357.519.566.886.827 1.857.758 2.8.551 6.158-.138 2.295-.579 4.055-.315 1.352-.771 2.007a3 3 0 0 0-.427.383 4 4 0 0 1-.234.15q.992-3.236.593-7.551l-.413-3.577a41 41 0 0 1-.221-3.291q.137-.205.22-.492zm.937-1.42q.386-.274.496-.3 1.087-.288 2.314 1.242.895 1.133 1.046 1.707.469 1.748.248 4.055-.055.628-.344 1.72-.138.41-.358.97a4 4 0 0 1-.207.546 1 1 0 0 1-.027.096 4 4 0 0 1-.124.273q.124-.437.303-1.448.33-1.857.261-2.853-.04-.82-.481-2.43-.193-.753-.304-.984-.137-.3-.702-1.133-.261-.342-1.02-.915-.426-.273-1.087-.423a1 1 0 0 0-.221-.028 1 1 0 0 0 .097-.082.5.5 0 0 0 .11-.013m1.075.86q.62.396.895.86.33.561.62 1.038.165.313.33.928.648 2.349.345 4.438-.248 1.87-1.406 4.656a1 1 0 0 0-.096.177q.552-1.775.455-4.751-.097-2.936-.703-5.175-.15-.533-.66-1.393-.758-1.284-1.405-1.12a.4.4 0 0 0-.083.041 1 1 0 0 0 .041-.123q.11.028.427.014.497-.014.62.028.152.055.62.382m-4.684 2.786.11-.028q-.123.206-.233.465a9 9 0 0 0-.44 1.747q-.277 1.898-.263 3.018.027 2.553.041 2.99.097 1.434.441 2.745l.496 1.392q.316.697.579.997-.304.083-.62.164a.1.1 0 0 1-.056.014 1.5 1.5 0 0 1-.206-.11l-.317-.355q-.18-.23-.564-.778-.056-.054-.386-.75-.372-.712-.413-.874-.235-.848-.303-2.663-.083-1.666.013-2.472.097-1.76.317-2.69.276-1.31 1.267-2.47.248-.165.455-.315.04-.014.083-.027m1.514-.915a8 8 0 0 0-1.156 3.1q-.22 1.596.151 3.686.042.369.441 3.564.385 3.127.523 3.618.014.015.014.027a5 5 0 0 1-.358.124 3 3 0 0 1-.179-.246 4 4 0 0 1-.496-.792 8 8 0 0 1-.481-1.297q-.634-2.349-.469-6.35.15-3.345 1.02-4.765.344-.192.812-.533.082-.067.178-.136m.538-.464q-.054.71.139 2.143.605 4.26.633 4.48.151 2.444.04 3.768-.027.3-.04.942-.028.573-.138.983a40 40 0 0 1-.565 1.898q-.192.096-.427.178-.041-.642-.261-2.444-.29-2.335-.606-4.48-.317-2.157-.11-3.713.206-1.79 1.088-3.523.11-.11.192-.205.028 0 .055-.027m-1.267.355q-.082.067-.164.123.027-.056.055-.123a.2.2 0 0 1 .11 0m-1.61-3.332q-.014-.027-.056-.04.028-.165.042-.465.482-.096.66.477.083.329.138.861l-.055.327q-.22-.532-.248-.669-.054-.177-.481-.491m10.825 8.192q2.01-1.242 5.564-2.826-.524.436-1.226 1.051a29 29 0 0 1-2.85 2.636q-1.143.942-4.078 2.676-.33.233-.633.45.22-.6.523-1.501.069-.191.138-.37.812-.955 2.218-1.883.165-.11.316-.205zm9.227-1.747q1.874-.492 6.928-.751 4.904-.246 6.225.027 2.122.436 3.678 1.407.262.15 1.17.86a26 26 0 0 0-.688-.478 8.4 8.4 0 0 0-2.52-1.065q-3.857-.956-11.694.6l-.014-.027-2.34.628-.18.096-2.382.655q-4.063 1.557-6.942 3.059.414-.26.689-.423.453-.273 1.419-.997 1.06-.792 1.61-1.133.304-.369 1.02-.847 1.419-.915 4.021-1.61m-2.038 3.277q-7.272 2.607-10.287 4.178a173 173 0 0 1 2.313-1.38q3.444-2.033 8.195-3.836l2.396-.642.18-.109 2.492-.656q7.63-1.515 11.349-.587 1.24.3 2.507.997 1.075.574 1.611.847l.33.273.028.027a7 7 0 0 0-.289-.054q-1.212-.343-3.03-.874a13.6 13.6 0 0 0-3.843-.396q-3.76.177-6.184.6-1.598.274-5.963 1.134zm1.956-.22q4.34-.871 5.95-1.146 2.355-.396 5.992-.56 1.583-.081 3.842.424 1.046.273 1.86.477-.318 0-.648.056a10 10 0 0 0-1.57-.083q-.648.027-3.443.356l-1.736.45q-.288.015-.881.15l-4.104 1.079q-2.245.368-9.462 1.502l-.014-.041-5.854 1.556a42 42 0 0 0-3.829 1.707q.33-.396.58-.56.674-.52 2.492-1.31a98 98 0 0 1 3.484-1.516 77 77 0 0 1 5.385-2.02zm-4.82-2.62q2.574-1.38 3.111-1.515 2.824-.752 6.446-.765.482-.014 5.605.19a13.1 13.1 0 0 1 3.512.67q.786.314 1.406.546.027 0 .04.013l.249.137a17.5 17.5 0 0 0-2.328-.628q-5.316-1.051-12.822.533-2.23.15-4.959 2.007-1.474 1.01-3.732 2.758-1.02.642-3.567 2.075-.729.424-1.212.779a6 6 0 0 0 .316-.56 17 17 0 0 1 1.75-1.338q3.609-2.499 3.76-2.608.62-.52 1.309-1.27.646-.71.963-1.024.029.04.152 0m1.433-1.23q1.073-.654 2.534-1.228l1.308-.341q3.236-.588 7.313-.288 4.12.274 5.77 1.203.332.218.635.368-1.737-.656-3.292-.86-3.747-.465-11.928.395-1.417.383-2.34.752m-7.494-.682a20 20 0 0 1-.22 1.556q.068-1.173 0-1.747-.042-.423-.441-1.898-.248-.928-1.763-2.157-1.377-1.107-2.094-.465a.8.8 0 0 0-.22.11q.207-.26.482-.465.014.015.11-.014.041 0 .249-.15.193-.136.316-.177 1.57-.41 2.672 1.133.55.792.813 1.775.096.315.207 1.038-.015.67-.111 1.46m-.055-3.168q-.207-.779-.895-1.597-.896-1.024-1.983-.984.261-.095.55-.177 1.09-.287 1.79.915.346.6.482 1.27.139.504.194 1.133-.056-.246-.138-.56m10.248-14.72q.743-3.48 1.556-5.94a743 743 0 0 1-.689 5.327q-.523 3.768-1.267 6.594-1.584 6.268-4.917 11.538.096-.232.207-.464a68 68 0 0 0 1.542-3.85q1.694-4.698 2.217-6.746.111-.437 1.35-6.458m-46.58 27.214q.055.013.096.04a1 1 0 0 0-.124-.04q.027-.015.027 0m7.134 18.775-1.35.355q-.068.027-1.914.314-1.212.204-1.35.191-.054 0-.66-.095.096-.014.192-.014.441-.027 1.199-.095 1.515-.165 2.52-.342l1.474-.382zm13.484-9.135a17 17 0 0 1-1.584 1.775q-2.479 2.472-6.005 4.56-3.47 2.05-5.73 2.431l-1.5.383q-1.089.204-2.121.314 9.034-2.773 13.882-7.141.716-.629 3.705-3.742 2.177-2.253 4.146-3.673.014 0 .014.014-.18.136-.331.327-.689.424-1.556 1.257-.978.956-1.584 1.802-.495.615-1.336 1.693m.825 1.516q.441-.547.992-1.407-.055 1.011.22 3.018.29 2.211.538 3.154a24.4 24.4 0 0 0 1.942 4.902q.633 1.23 1.28 2.144a15 15 0 0 1-1.831-2.185q-.923-1.352-2.163-3.905l-.84-3.113q-.248-1.215-.302-1.38a7 7 0 0 0-.11-.423.9.9 0 0 0-.166-.3q.248-.287.44-.505m2.536-3.864q-.468 4.083 1.5 11.387.03.083.33 1.175.346 1.201.483 1.843.096.41.303.888a24 24 0 0 1-1.308-2.212 23 23 0 0 1-1.721-4.534 26 26 0 0 1-.8-4.355 207 207 0 0 0-.164-1.98l.013-.014a56 56 0 0 1 1.074-1.761zm.715-1.243q.138-.286.62-.983.234-.341.33-.519.11 0 .207-.014-.607 2.909-.469 7.264.139 4.41.937 7.374.66 2.445 2.176 4.315-.097.136-.192.328a25 25 0 0 1-.235.504 4 4 0 0 1-.275-.19q-.138-.218-.4-.615-.51-.779-.633-1.215a38 38 0 0 1-.441-1.83l-.978-3.618q-.62-3.332-.84-4.97-.111-.67-.138-2.95l-.014-2.212q.248-.423.345-.669m-.275-.205q-.826 1.434-1.005 1.666l-2.205 3.372q-2.891 4.466-12.202 7.346l-1.639.438q5.122-1.776 7.713-3.51.84-.56 3.953-3.44 1.115-.998 3.057-3.455 1.377-1.761 2.644-2.95-.179.26-.316.533m-1.185-2.526q.15.137.29.246-.11.014-.29.04l-.909.192q-.124.014-.358-.027a1 1 0 0 1 .165-.041q.703-.191.95-.314a.5.5 0 0 0 .152-.096m1.17 1.611q-.027.014-1.17.97-.275.3-.937.942a40 40 0 0 0-.909.901q-2.272 2.418-3.719 3.673-2.96 2.553-4.544 3.496-2.355 1.42-7.08 3.14l-1.046.273q-.234.11-1.64.574l-1.129.3q-.013 0-.206.041-.193 0-.372.014a30.7 30.7 0 0 0 7.052-3.4q2.245-1.461 5.454-4.206 3.525-3.003 5.04-4.082 2.796-1.967 5.73-2.936-.234.11-.523.3m.056-.682q.275.136.551.218-2.781.464-6.39 3.113-1.612 1.175-4.6 3.905-4.794 3.743-5.193 4.014-1.845 1.19-4.889 2.5 1.239-.888 2.947-2.363 3.457-3.195 3.802-3.44 2.919-2.445 4.903-3.947 3.718-2.786 6.845-3.618.233-.069.992-.164.743-.096.798-.11.123-.068.234-.108m.248-3.715q-.593-2.225-.386-4.697.22-2.58 1.377-4.124.525-.354.992-.682.014 0 .027-.014-.702 1.284-.936 3.865-.358 3.782.22 5.898.014.055.812 1.72.455.78.84 1.148a.1.1 0 0 1-.055.013 5 5 0 0 1-.385-.082q-.578-.122-.8-.314a9 9 0 0 1-.729-.86 5 5 0 0 1-.633-.928 5 5 0 0 1-.344-.943M28.232 55.124q-.855.846-1.68 1.843-.36.45-1.53 1.912-.096.136-1.5 1.597.633-.873 3.512-5.052 5.246-7.632 8.25-8.425 1.5-.396 4.627.123.468.054.881.137a1 1 0 0 0 .262.123q.234.054.592 0 .249.054.483.068-.098.014-.193.014-1.942.245-3.017.477l-1.24.328q-2.712.888-5.315 2.95-1.336 1.091-4.132 3.905m-1.157-2.608q1.708-.751 2.354-1.065-.867 1.105-2.41 3.304-1.005 1.46-3.319 4.984-1.874 2.636-3.002 3.195.11-.56.207-1.966.179-2.553.509-3.36.44-1.105.743-1.57.607-.928 1.805-1.83 1.06-.818 3.113-1.692m-3.127-3.783q-2.838-.479-5.013-1.38-3.637-1.447-6.005-3.754a668 668 0 0 0-3.733-3.577q1.556 1.229 4.407 3.317 1.584 1.257 2.493 1.885 1.611 1.189 3.044 1.911 2.823 1.407 6.087 1.72-.991-.053-1.28-.122m7.616 5.967q-.372.354-2.396 2.293a58 58 0 0 1-2.286 2.063q-1.116.969-2.7 1.993-.605.396-1.79 1.079a2 2 0 0 0-.124.081q1.35-1.242 3.043-3.304 2.246-2.69 3.21-3.659 2.781-2.772 4.076-3.81a18.2 18.2 0 0 1 5.151-2.88l1.267-.342 5.138-.779q.18.138.357.246-3.566.15-7.3 2.758-.99.67-3.001 2.308-1.75 1.394-2.645 1.953m-.317-8.398q2.645.042 6.309-.341l.096-.055v-.054q.937.135 2.314.314 2.602.327 3.167.314.041.041.07.096a3 3 0 0 1-.33.163 4 4 0 0 1-.415.15q-.577.15-.977.205-1.13-.286-1.598-.355a47 47 0 0 1-2.327-.314q-.937-.095-2.122.191-.785-.04-2.616-.096a53 53 0 0 1-2.163-.231q.29 0 .592.013m-5.715-1.038a52 52 0 0 1-4.214-1.324q.44.137.922.26 1.736.424 4.283.682 2.425.452 3.747.656 2.355.341 5.453-.014l.041-.027q.18.04.36.095l1.073.191q-.702.014-2.534.069a72 72 0 0 1-7.052-.069q-1.06-.231-2.08-.519m.44-9.393q.703.969 2.562 2.703 2.121 1.953 3.306 2.84a22.6 22.6 0 0 0 4.834 2.677 21 21 0 0 0 3.264 1.064q.606.164 1.817.615.896.314 1.062.369a.2.2 0 0 1 .027.04q-.675-.094-2.245-.3a270 270 0 0 1-1.46-.177 53 53 0 0 0-1.97-.737q-2.41-.915-3.318-1.448-.8-.45-1.915-1.297-.62-.478-1.86-1.42a15 15 0 0 1-3.043-2.922q-.51-.655-.95-1.611zm-.77.314q.013.328.123.723.633 2.363 3.085 4.806a13.4 13.4 0 0 0 2.617 2.09 5 5 0 0 1-.44-.219q-2.205-1.065-3.637-2.28-1.597-1.393-1.969-2.786a3.3 3.3 0 0 1-.07-1.31l.042-.055a.1.1 0 0 0-.041-.014q.082-.423.234-.846zm.482-.738a3 3 0 0 0-.028.478q.717 2.676 5.317 5.994 3.732 2.69 6.927 3.619a18 18 0 0 1-1.35-.246q-2.478-.506-4.077-.983-2.024-.998-3.814-2.772-2.452-2.39-3.072-4.697a3 3 0 0 1-.11-.779q0-.108.124-.423a2 2 0 0 1 .083-.19m3.567 1.242q-.565-.435-1.061-.737a12 12 0 0 0-1.653-.805 1 1 0 0 0 .152-.068q2.272.517 4.545 1.83 2.85 1.855 4.352 2.703 1.736.997 3.65 2.785a325 325 0 0 0 2.465 2.308q-.853-.6-2.203-1.352-4.753-2.649-5.248-3.004-3.03-2.062-4.077-2.922-.316-.246-.922-.737m4.875 3.906q1.86 1.243 4.682 2.703a28 28 0 0 1 3.567 2.28l.056.083a38 38 0 0 0-2.122-.724q-3.098-.983-3.553-1.174a23.3 23.3 0 0 1-4.738-2.65q-1.639-1.16-3.512-3.03-.22-.233-1.708-1.87-.578-.657-.909-.943a.7.7 0 0 1 .125-.014q.247.082.605.233 1.047.421 1.598.778.345.231.95.723.771.629.937.724 2.355 1.802 4.022 2.88m1.667-1.147q-1.612-.9-5.386-3.263-1.68-.93-2.837-1.23.207-.026.496-.095.91-.164 1.06-.15.8.11 1.378.232.647.137 1.473.465.882.354 1.281.505 1.983.75 4.008 2.335 1.447 1.091 2.562 2.703.51.697 1.088 1.762.233.819.675 1.624a815.097 815.097 0 0 1-2.149-2.075 40 40 0 0 0-1.666-1.46 14.5 14.5 0 0 0-1.983-1.353m4.861 1.038q.041.19.083.56-.042.464.014.928a.2.2 0 0 0-.028-.041q-.565-.942-.826-1.283-1.24-1.735-2.411-2.595a26.4 26.4 0 0 0-3.87-2.335q-2.162-1.051-3.76-1.256a10 10 0 0 1 1.116-.123q.124.041.207.082a.3.3 0 0 0-.097-.082 16 16 0 0 1 1.597-.027q1.378.314 2.493 1.038 1.736 1.324 2.673 1.884.578.354 1.143.943.275.3.923 1.064.646.765.743 1.243M43.106 38q-.234.71-.524 2.117-.15 1.269-.096 2.034.04.792.317 1.79.015.08.922 2.17.36.669.73 1.065-.84-.533-1.667-1.775a12.4 12.4 0 0 1-1.046-1.925q-.33-.71-.4-.983-.538-1.995.896-3.96.468-.669 1.267-1.393a4 4 0 0 0-.4.86m1.39-1.61a1 1 0 0 0-.096-.027q.497-.41 1.061-.82-1.02 1.407-1.24 3.782a13.3 13.3 0 0 0 .4 4.793q.15.56.358.888.138.26.648 1.051.467.765 1.225 1.147.165.069.303.123-.36.082-.771.191-.056.014-.138.041-1.323-.15-2.231-1.502-.592-.888-.937-2.184-.495-1.83-.179-3.838.288-2.115 1.405-3.604zm-3.056.573q.399.368.853.887-.565.642-.936 1.27a2 2 0 0 0-.042-.341q-.303-1.093-2.107-2.636-.95-.792-1.79-1.174l.344.054q1.68.3 2.92 1.23.289.233.675.614a.4.4 0 0 1 .083.123q.012-.014 0-.027m.758-1.735q.356.192.426.301.04.069.138.41.054.204 0 .723-.014.287-.056.738-.082.067-.152.136-.329-.683-.37-.833-.082-.3-.028-.778.054-.519.041-.697m-1.461.165q-.055.285-.028.368.028.082.138.287a4 4 0 0 0-.262-.178 10 10 0 0 0-.578-.327q.276-.082.633-.137a.4.4 0 0 1 .097-.013m-.869-3.168q.07.26.427.205.07.136.152.355 0 .014-.014.027-.083.136-.523.054.289.137.414.11.261-.069.564-.478l-.18.04a.4.4 0 0 0-.109.083l-.083-.191a.2.2 0 0 0-.027-.041q.192-.082.248-.219l.014-.15q-.07-.218-.524-.137-.427.069-.358.342m2.95 2.662q.179.137.22.26.082.341.013.832a2 2 0 0 0-.04-.136q-.111-.438-.193-.52-.166-.19-.607-.176v-.028l-.055.014v.014h-.069q.027.014.042.027-.276.3-.317.805a2.5 2.5 0 0 0 .096.888 10 10 0 0 0-.495-.423 3 3 0 0 1-.262-.45q-.207-.37-.248-.63.303-.067.33-.067.84-.233 1.474-.492zm2.064-1.638q.042.164.097.177.013.069.082.055l.124-.3q.262.096.358.437.028.095-.096.737a2.6 2.6 0 0 1-.138.533 4 4 0 0 0-.11.177.6.6 0 0 1-.041-.191 2 2 0 0 0-.028-.219 1.9 1.9 0 0 0-.248-.532q-.193-.273-.413-.26l-.082.042q-.015.027.013.136.028.08.194.26.191.15.206.218.027.096.027.423 0 .355.027.437.015.083.11.164-.44.314-.784.574a6 6 0 0 0-.193-.779q-.165-.628.234-1.256-.523.41-.564.82 0 .135.151.71.11.395.248.6-.579.437-.868.71a.2.2 0 0 0-.027.04q.18-.345.22-.764a2.65 2.65 0 0 0-.07-1.105 3 3 0 0 0-.15-.479q.784-.381 1.198-.833.316-.367.51-.6 0 .026.013.068m.22-.341q.318-.26.703-.465.234-.094.592-.532 0 .013.014.04.04.15.206.178.195.027.22.137.139.546-.081 1.98-.51.354-.937.655.096-.233.178-.546.194-.805.193-1.42l-.055.013a4 4 0 0 1-.261 1.011q-.042.056-.097.15l.042-.56q-.11-.41-.592-.6a.5.5 0 0 0-.125-.041m-2.326.327a.75.75 0 0 1-.262.205.7.7 0 0 0-.014-.136 2 2 0 0 0-.11-.26.34.34 0 0 0 .193-.178.28.28 0 0 0 .014-.19q-.028-.11-.083-.137a.4.4 0 0 0-.11-.014l-.524.137a.34.34 0 0 0-.179.178 5 5 0 0 1-.096.218q.124.055.358.068.179 0 .289-.027l.096.396q-.04.014-.096.027-.29.083-.33.068a2 2 0 0 0-.138-.054q.29.136.372.177l.289-.082q.028 0 .042-.013.013-.014.027-.014.221-.177.358-.341.138-.206.083-.26a.9.9 0 0 0-.18.232m2.051-1.747q-.028.163-.262.369a9 9 0 0 0-.123-.287.24.24 0 0 0-.083-.123q.014-.014.028-.014.123-.204.123-.232-.082-.315-.454-.205-.36.11-.303.328.028.081.151.095.055.015.303.028v.027a.8.8 0 0 0 .303.423l-.248.068a1 1 0 0 0-.193-.027q-.095.014-.123-.041h-.042q.069.096.138.137.165.123.358.068a.55.55 0 0 0 .4-.355q.082-.164.054-.273zm-.426-1.393q-.041-.137-.303-.096-.29.027-.33.26.055.081.068.108.028.028.123.014.057.068.125.219a2 2 0 0 1-.137.027q-.056-.027-.028.082.014.055.11.068l.495-.15-.013-.15q-.028.014-.33.096a.24.24 0 0 0 0-.164.15.15 0 0 0-.056-.055.1.1 0 0 1 .042-.014q.165-.136.206-.15.042-.041.028-.096m-2.892.574.027.095a.06.06 0 0 1 .055 0q-.014.04.15 0 .015 0 .167-.082.082.287.233.464-.179.082-.508.137.054.095.082.11.013.026.386-.069.37-.096.468-.437l-.028-.068q-.055-.015-.193.15a.5.5 0 0 1-.055.068 3 3 0 0 0-.179-.328.5.5 0 0 0-.082-.123q.123-.067.248-.15.04.055 0-.109-.056-.177-.455-.068-.4.095-.316.41m-5.8 4q2.329.615 3.803 2.062.95.928 1.762 2.54a5 5 0 0 0-.316.71q-.084.258-.152.532a2.4 2.4 0 0 0-.054-.314q-.428-1.61-3.995-4.165-1.584-1.105-2.782-1.639.083.016.193.028l.151.027q.579.083 1.39.219m1.544-1.188q-.276-.164-.91.054h-.027q0 .015.027.096.069.3.441.218.028.056.083.219-.096.027-.468.027.206.206.523.123h.055l.014-.014a.55.55 0 0 0 .262-.15q.11-.136.137-.163-.138-.083-.193-.014a.8.8 0 0 1-.207.15l-.068-.218q.18-.069.344-.232zm1.473.478a.3.3 0 0 0 .014.15q.055.191.44.082l.028.11q.027.122.097.163l-.014.014q-.055.014-.303 0-.027.028-.056.013-.014.014 0 .069.015.04.166.068a.8.8 0 0 0 .248.014q.276-.082.344-.287.028-.219.055-.246l-.055-.082-.042.014a.4.4 0 0 1-.068.205 1 1 0 0 1-.124.163 1 1 0 0 0-.096-.272.4.4 0 0 0 .137-.164 1 1 0 0 0 .042-.205q-.235-.027-.785.123.014.026-.028.068m-1.515-1.72q-.027.026 0 .122.014.096.083.137.096.04.11.123.027.081.041.068a.22.22 0 0 1 .138-.082q.11-.055.18-.082a.5.5 0 0 1 .096.15.4.4 0 0 1 .055.069H37.9a4 4 0 0 0-.303.204q.138.082.261.04a.55.55 0 0 0 .359-.259q.096-.122.082-.19-.015-.069-.04-.069h-.029a1.1 1.1 0 0 1-.234.219l-.055-.246q.151-.068.22-.096.014-.04-.027-.19-.027-.124-.152-.137-.165 0-.674.136a1 1 0 0 1-.097.082m1.915-.997q-.029-.042.013.122.028.096.138.137a.3.3 0 0 0 .124.027l.027.082q.028.096.097.205-.139.027-.44.027l-.056.055q.192.096.51.014.302-.082.357-.137.015-.096.042-.178l-.056-.013a.52.52 0 0 1-.302.205.8.8 0 0 0-.041-.233.2.2 0 0 1-.014-.068.4.4 0 0 0 .138-.081.7.7 0 0 0 .191-.178.6.6 0 0 0-.274-.123q-.18-.028-.454.137m.523-.492q.015-.013 0-.04.344-.137.716-.26.027 0 .124-.027.014 0 .041-.041.895-.315 1.873-.574.014 0 .042-.013.027.055.055.04h.097q.014-.027 0-.068 2.064-.519 3.277-.287.689.137 1.075.506a.1.1 0 0 1 .013.04q.22.82-.95 1.694-.592.45-1.322.819-.207.178-.455.587a2 2 0 0 1-.51.6q-.302.26-.908.547-.166-.054-.386.055l-.028.109q-1.073.41-2.768.847v.055q-1.116-.588-1.997-.67a155 155 0 0 1-3.14-.395q-.028-.056-.083-.042t-.082-.081q-.042-.179.289-.52l.083-.013-.015-.041q.51-.477 1.667-1.202 1.474-.928 3.196-1.625zm-8.65-9.312q2.148 2.225 3.54 4.137 2.12 2.909 3.085 5.626a.3.3 0 0 0 .11.04q-.442.206-.826.41v-.014q-.139-.504-.482-1.392-.11-.287-.194-.492-.426-1.433-1.02-2.526-.728-1.351-2.203-3.085-.743-.874-2.01-2.704m-2.285-2.198q3.099 3.426 4.669 5.666 2.162 3.113 3.002 5.967.082.34.138.669l.069.273a9 9 0 0 0-.868.505q-.137.082-.248.15-.262-1.461-.262-1.488-.991-3.645-5.66-9.19-3.264-3.864-5.702-5.584 2.879 1.406 4.862 3.032m-9.38 19.976q5.882 2.007 8.8 3.414.746.464 1.626.942-15.77-4.657-23.097-8.248 6.047 1.626 12.671 3.892M5.258 36.553q.977 1.244 3.044 3.236a985 985 0 0 0 3.402 3.14 66 66 0 0 0-1.198-.818q-3.761-2.472-4.063-2.69-1.572-1.133-3.127-3.059-2.19-2.786-2.589-3.195.537.328 2.576 1.993 1.761 1.435 1.941 1.393zm-.358-1.61.055-.028q1.02.778 5.386 2.95 5.343 2.635 7.23 3.276 6.487 2.185 8.47 2.731 4.448 1.23 8.236 1.489-4.573-.191-7.864-.683-3.842-.546-6.831-1.625a16 16 0 0 0-.992-.41 669 669 0 0 0-2.548-.983q.097.055.207.123a73 73 0 0 1-6.102-3.373q-2.175-1.324-5.26-3.468zm5.014 2.156q4.724 2.007 6.39 2.513 4.393 1.475 7.341 2.444 5.619 1.843 6.115 1.707a1 1 0 0 0 .124-.041l.013-.041v-.041l.331.164q1.46.724 4.985 1.57-13.661-1.966-27.449-9.203.924.396 2.15.928m-2.357-.054q.634.273 1.117.696.95.86 1.252 1.052 1.323.833 3.265 1.802.88.478 3.567 1.775 4.435 2.212 8.567 3.195 4.256 1.024 5.798 1.284 1.777.3 2.975.26-.316.162-.648.382-3.03.341-5.537-.014-1.032-.137-2.947-.437a36 36 0 0 1-2.864-.915q-1.39-.504-3.443-1.68-2.424-1.405-3.03-1.68a24.2 24.2 0 0 1-5.523-3.577 112 112 0 0 0-2.549-2.143m2.206 2.307q.812.848 2.52 1.899 1.13.696 3.126 1.734 2.011 1.133 3.044 1.733 1.927 1.094 3.526 1.708a24 24 0 0 0 3.14.914 26 26 0 0 0 2.961.56q3.127.437 4.628.15l-.18.15q-.178 0-.495.069a36 36 0 0 1-2.493.478q-.11.027-2.176.11a.1.1 0 0 0-.055.012q-4.311-.245-7.92-2.048-2.202-1.106-5.618-3.795-.607-.492-2.59-1.885-1.68-1.187-2.561-1.966-.675-.6-1.97-2.144-.51-.6-.937-1.051.881.642 1.24.82.276.258.605.546 1.654 1.419 2.205 2.007m-7.618-6.909q2.619.45 5.992 1.612 3.65 1.35 5.84 2.089-2.575-.642-6.322-1.625-1.349-.288-2.149-.26-.702-.518-2.34-1.188-.317-.136-1.02-.628m-.578.901q1.805 1.134 2.81 1.803.028-.028.041-.028v.028q.083.314.372.792a288 288 0 0 0-3.002-2.417 4 4 0 0 0-.221-.178m2.823 1.257a.3.3 0 0 1-.096.082l-.014.013q-.372-.354-1.488-1.12-1.156-.805-1.913-1.078.178-.014.4-.055.853.588 1.734 1.065 1.253.697 1.915.833-.359.083-.482.3a.2.2 0 0 0-.056-.04m16.652 1.133q1.321 1.27 2.755 2.457-1.144-.558-3.458-1.502-4.145-1.706-6.294-2.43-2.452-.846-3.222-1.079a29 29 0 0 0-3.582-.888 38 38 0 0 0-1.846-.286 26 26 0 0 1-1.376-.246 3 3 0 0 1-.304-.082q4.615.055 9.38 1.338 2.148.574 7.947 2.718m-7.438-2.908q-1.763-.396-4.972-1.27-2.039-.383-4.352-.218l.427-.11q.468-.095.95-.15l-.413.164q.426.054 1.735-.11.456-.054.8-.081 2.312.041 5.729.846 1.583.369 5.192 1.393a59 59 0 0 0 1.818 1.939 18.4 18.4 0 0 0-2.452-1.106q-1.969-.737-4.462-1.297m1.57 3.59q-2.175-.778-6.873-2.662-3.98-1.42-6.955-1.639a1 1 0 0 0-.178-.013q.22-.069.453-.15 1.654-.123 2.645.04 1.584.438 3.058.684 2.768.463 6.68 1.938 1.983.752 5.605 2.253 3.375 1.393 5.096 2.035l.027.027q.111.3.263.614-3.182-1.583-9.339-3.003a7 7 0 0 1-.482-.124m2.907 1.98q-2.287-.642-7.7-2.525-2.822-.915-4.38-1.12 2.109.027 7.783 1.502 6.445 1.693 11.362 3.55.662 1.093 2.01 2.116-1.816-.886-2.271-1.078a92 92 0 0 1-3.127-1.215q-2.093-.792-3.677-1.23m-1.584-6.704q.771.37 1.322.587.208.232.385.465-1.294-.479-4.668-1.148-1.158-.135-2.934-.723a5.2 5.2 0 0 0-1.818-.137 2 2 0 0 1-.193-.04q3.746-.33 5.813.177.921.232 2.093.82m6.018-16.085q4.972 3.974 7.905 7.592 3.527 4.383 4.766 8.985.055.206.124.396a5.6 5.6 0 0 0-.702.546l-.124-.628q-.427-1.598-2.494-4.724a61 61 0 0 0-4.71-6.172q-5.921-6.84-9.09-7.224 1.433.136 2.824.615.564.19 1.501.614m-7.63 4.615q3.609 4.18 3.719 4.315 3.181 4.41 9.585 9.845l-.413.055-.715.191q-4.972-4.124-9.89-10.514-3.03-3.974-4.668-6.977.95 1.351 2.382 3.085m-1.652-2.744q-.77-.834-1.033-1.352-.028-.027-.496-.983 1.102 1.392 3.553 4.069 4.34 4.643 4.835 5.27 2.506 3.14 5.15 5.203.18.136 2.632 2.567 1.212 1.188 2.492 1.83a20 20 0 0 0-2.01.273q-.468-.588-3.76-3.892-4.27-4.329-5.91-6.363-3.346-4.205-4.282-5.339a30 30 0 0 0-1.17-1.283m-2.108 1.093q.854 3.14 6.363 10.745 5.152 7.114 7.066 7.906-.016.22-.028.506.027.396.069.669-.482-.45-1.46-1.338-2.245-1.98-2.92-2.663-.91-.901-1.997-2.349-.593-.806-1.79-2.375a29 29 0 0 1-3.154-4.875q-1.364-2.595-2.066-5.189a12 12 0 0 1-.4-2.39q.111.602.317 1.353m.028-3.428q.11.437 2.604 4.452 2.698 4.328 3.924 5.789 4.036 4.765 9.16 9.312l-.138.028q-.235.04-.441.095-.207.014-.372.082l-.014.014a.2.2 0 0 0-.097.055.2.2 0 0 0-.068.013l-.138.055q-.069-.137-.234.096-.303-.356-1.735-1.776-2.08-2.047-2.741-2.799-.66-.75-4.063-4.806-1.611-1.94-3.223-5.039-2.534-4.834-2.63-5.188a2.1 2.1 0 0 1-.042-.806.8.8 0 0 0 .028-.191q.069.137.151.314.028.165.069.3m-.386.82q.33.71 1.377 2.69 1.392 2.662 2.051 3.768 1.255 2.103 2.233 3.25.937 1.12 1.5 1.775 1.02 1.215 1.061 1.365.098.327 2.742 3.113 2.671 2.732 3.415 3.483a5.2 5.2 0 0 0-.524 1.42.1.1 0 0 1-.014.054q-2.314-1.87-4.489-4.67-1.337-1.734-3.884-5.284-4.215-5.503-5.482-10.705 0-.137.014-.26m.854-2.036q1.295.67 2.741 1.994 1.736 1.775 2.63 2.58 3.058 2.8 5.22 5.08a67 67 0 0 1 2.3 2.581q2.054 2.376 2.3 2.663 1.46 1.72 2.218 2.608 1.35 1.597 2.383 2.566a1387 1387 0 0 1-4.256-5.42q-2.52-3.06-4.724-5.216a1394 1394 0 0 1-6.102-6.063q-2.34-2.226-3.745-3.113a21.7 21.7 0 0 1 6.665 4.069q1.102.956 2.617 2.58 2.01 2.158 2.493 2.636a43 43 0 0 1 4.559 5.298 106 106 0 0 1 1.9 2.731q.51.97.772 1.447.357.6.771.983-.551-.055-.964.11a5 5 0 0 0-.634.013 461 461 0 0 0-5.371-4.656q-3.416-3.058-5.055-5.257-.744-.996-2.41-2.649Q16 19.58 15.339 18.83a41 41 0 0 1-2.148-2.718q-.359-.465-1.212-1.625a5 5 0 0 0-.509-.573 1 1 0 0 0 .151.013m5.854.451q3.126.546 6.72 4.097 1.254 1.269 4.092 4.833 2.203 2.786 3.622 5.025 1.624 2.595 2.562 4.916-.427.41-.496.737-.331-.915-3.32-5.257-2.961-4.301-4.035-5.626-2.837-3.426-6.61-6.294-2.783-2.117-4.518-2.622 1.762.11 2.396.178a2 2 0 0 0-.413.013m-3.554-.273q6.24 1.598 12.699 9.654 2.079 2.608 4.393 6.144 2.12 3.345 2.74 4.26l-.481-.081a2 2 0 0 0-.207-.014 8 8 0 0 0-.496-.11q-3.856-6.704-10.068-13.012-5.619-5.748-9.255-6.909l.743.054a.2.2 0 0 1-.068.014M45.214 2.144q.069.123.18.369.343 3.645 1.83 13.381 1.199 7.893 1.255 13.204-.042.15-.084.45a4 4 0 0 0-.123-.668q-.056-.191-.413-.383a.8.8 0 0 0-.387-.11q-.041-1.296-.426-4.355-.937-7.305-1.033-8.397-.179-2.268-.799-6.814-.372-3.756 0-6.677M40.82 7.906q-2.164 10.377-.551 22.298-.098.026-.193.068a8 8 0 0 0-.413.15q.014-.6-.166-1.337a78 78 0 0 1-.441-1.653q-.11-.6-.178-1.706-.055-1.23-.124-1.707-.207-1.406-.248-3.428a158 158 0 0 1-.028-3.495q-.069-2.923 1.598-7.414.344-.888.744-1.776m3.884-2.84a21.6 21.6 0 0 0 .11 3.51q.66 4.627.84 6.895.165 2.007.84 6.895.51 3.741.66 6.117a.2.2 0 0 1-.04.028q-.04-.014 0 .136l.027.11q.014.012.042.04.014.11.014.232-.318-.177-.524-.095-.042-.054 0 .123.261.164.578.382.454.341.717.915-.207-.096-.565-.095l-.014.136q.192.191.427.355a.4.4 0 0 1 .165.232q.262.97-.137 2.43.027.014.04.041a.6.6 0 0 0-.15.11q.15-.233.15-.683a54 54 0 0 1-.082-.82q-.041-.163-.316-.245-.07.096 0 .341.027.123.11.328.069.219-.11.628-.166.396-.262.383a1.6 1.6 0 0 0-.014.273q.055.054.206.013l-.288.205q.041-.287.013-.682-.055-1.162-.069-1.175-.11-.409-.427-.437-.04-.014-.069 0 .082-.11.166-.246.633-.845.55-1.16a2.6 2.6 0 0 0-.15-.383.3.3 0 0 0-.014-.095q-.194-.724-1.53-.751-.096-4.834-.784-13.327-.483-5.557-.51-6.786-.069-2.868.33-5.366.11 1.038.07 1.488m-2.315.055q-.88 1.911-1.129 4.874-.18 2.116.042 5.79.179 2.02.275 3.031.165 1.761.345 3.017.096.642.233 3.29.125 2.5.193 2.719.042.19.055.983v.71q-.84.217-1.831.56.083-.888-.276-3.974-.578-5.203-.523-6.937.027-1.2.193-2.949.083-.983.275-2.895.056-.928.51-3.481.372-2.294.33-2.417v-.028q.579-1.146 1.308-2.293m1.832-1.694q-.069.6-.233 1.83-.084.669-.056 1.693.056 1.174.056 1.762.027 1.255.22 3.4.22 2.485.248 3.345.716 12.876.895 13.559 0 .027.013.055-.302-.014-.66.027a16 16 0 0 0-.8.11 7 7 0 0 0-.068-.93q-.055-2.32-.4-6.185-.483-5.68-.578-7.66-.4-7.932 1.419-11.347-.028.177-.056.341m.303-1.078a.3.3 0 0 1 .07-.055.1.1 0 0 0-.029.041q-.013.014-.04.014m-.977 1.297a149 149 0 0 0-.372 1.761 64 64 0 0 1-.482 1.748q-.262 1.066-.234 1.72.124 3.633.138 6.486-.014 2.309.537 6.391.082 1.556.178 2.908.11 1.611.22 2.513.03.3.056.669.083.791.11 1.079 0 .19.014.231.014.028.041.041l.014.042q-.564.096-1.156.245.027-2.513-.359-6.8-.607-6.567-.675-7.605-.454-7.428 1.364-10.774.371-.559.689-.983-.041.15-.083.328m5.95 4.151q1.183 2.24 2.243 6.172.195.669.221.888.083.531-.055.969.042.027.055.027-.096.368-.192.765a54 54 0 0 0-.676 3.1 24 24 0 0 0-.11-1.052q-.179-1.215-.688-3.51-.318-1.693-1.57-6.922a24 24 0 0 0-1.268-3.482 4 4 0 0 0-.165-.341q1.433 1.925 2.204 3.386m-1.033-3.4a15.7 15.7 0 0 1 1.68 1.98q1.97 3.264 3.167 4.902-.206.586-.412 1.229-.717-2.35-2.755-5.68-.895-1.461-1.68-2.431m1.83 3.1q.62 1.133 1.31 2.827.702 1.815 1.115 2.798-.248.874-.605 2.158.011-.614-.22-1.652a24 24 0 0 0-.415-1.639q-.688-2.567-2.52-5.694-.95-1.597-1.873-2.73.784.818 1.253 1.324 1.336 1.46 1.956 2.608M46.702 4.15a18.6 18.6 0 0 1 1.721 4.165q.95 3.537 1.736 8.315.413 2.376.702 4.329a.3.3 0 0 1 .014.095 44 44 0 0 0-.386 3.223q-.11 1.215-.206 2.854-.302-3.06-1.226-8.876-1.722-10.87-2.561-13.982a30 30 0 0 0-.263-.942zm-.538.206q.303 1.106.538 2.402.275 1.584.453 2.568.262 1.393.441 2.32.345 1.776.565 2.568.18.668 1.047 6.923.716 5.243.978 8.028-.027 1.16-.07 2.486-.275.3-.618.573.137-.273.178-.887.083-.888.014-1.12-.22-.82-.44-.751.012.45.096 1.516 0 .464-.11.846-.096.069-.29.369.027-.287.07-.67-.194-.681-.387-.737-.082.288.138 1.01.11.315.055.615-.15.232-.33.574l.013.027a7 7 0 0 0-.385.287q.385-1.188.152-2.226.343-.559.454-.956.097-.423-.014-.901.29-1.23.193-2.744-.07-.78-.482-3.51-.358-2.444-.936-6.963-.675-5.285-.992-6.95-.206-1.093-.579-4.056a113 113 0 0 0-.247-1.939q.316.615.495 1.298M60.39 6.39q.525-3.578.992-5.257.028.013.028.027-.124 5.775-.482 9.995a95 95 0 0 1-1.281 9.64q-1.28 2.703-2.066 5.162-.73 2.253-.827 3.673-.275-.738-.702-1.161.413-.369.827-2.034a27 27 0 0 0 .427-2.294q.385-1.393.702-2.922.744-4.643 1.198-7.005Q59.44 13 60.39 6.39m3.402 7.127q-.11.15-.206.3.137-.259.261-.532zm3.54-.75a230 230 0 0 0-.771 3.263q-.11.45-.662 3.263a69 69 0 0 1-.757 3.277q-1.886 7.374-5.178 13.45-.014 0-.014.027v.014q-.028.014-.028.04-.647.356-1.225.697.633-1.174 1.005-2.731.73-3.018.91-3.495a337 337 0 0 1 2.437-6.937q2.769-7.755 4.642-12.125-.138.506-.358 1.256m.207-1.721q-.234.6-.62 1.775-.359 1.146-1.597 3.605-.73 1.38-1.42 3.536-.397 1.188-1.156 3.564-1.075 2.936-2.355 7.073-.675 2.225-1.901 6.322-.15.083-.275.164-.621.382-1.116.723.303-.464.414-1.05.11-1.19.22-1.762.51-2.403.647-3.414.207-1.488.867-3.482.331-.942 1.364-3.591 1.722-4.56 3.154-7.387 1.694-3.372 3.788-6.145a.2.2 0 0 0-.014.069m-5.193-8.275q.4 1.474.923 5.23.62 4.533.303 5.858a39 39 0 0 0-1.39 2.157q.192-2.034.193-7.019.041-5.789-.194-6.758.097.273.165.532m-4.655 3.741q-.358 1.106-.702 1.803a18.3 18.3 0 0 0-1.309 3.44q-.234.794-.799 3.482-.495 2.363-1.307 7.415-.745 4.752-.73 5.653a4.9 4.9 0 0 0-1.02.71q.097-.805.276-3.55a61 61 0 0 1 1.446-9.927q1.005-4.274 2.479-7.415 1.198-2.566 2.796-4.546a8 8 0 0 0-.551 1.147q-.111.313-.579 1.788m2.48-4.943q.26-.244.536-.477a.8.8 0 0 0-.055.232 5 5 0 0 0-.481.245m.22 1.83q-.041.642-.221 1.776-.193 1.228-.261 1.747-.07.45-.455 3.51a45 45 0 0 1-.593 3.55q-.51 2.348-1.239 7.059a48 48 0 0 1-.771 3.577q-.454 1.311-1.143 3.578a1.4 1.4 0 0 0-.372-.205 1.9 1.9 0 0 0-.854-.164q.455-1.284.826-3.263.386-2.24.606-3.264.427-2.17.662-3.318.413-2.007.716-3.305.784-4.341 1.24-6.566.675-3.21 1.955-5.79-.054.45-.097 1.078m.165-1.611q-.84 1.078-1.377 2.649-.387 1.174-.992 3.454-.633 4.07-1.24 6.636-.578 2.512-1.335 6.664-.896 4.983-1.24 6.636-.564.027-1.199.314-.04 0-.068.027.468-3.264 1.088-7.06.715-4.3 1.06-5.789a78 78 0 0 1 2.59-8.507q1.128-3.03 2.093-4.506.316-.327.647-.627zm1.253.11q.289 1.023.262 7.92-.014 3.345-.083 6.512-.688 1.174-1.377 2.512-.22.438-.441.861.385-1.434.606-3.1.316-3.536.523-5.297.234-1.789.4-6.008.096-2.404.096-3.469.014.029.014.068m-4.09 2.443q-.854 1.46-1.776 3.592-1.061 2.239-1.64 3.782-.77 2.049-1.033 3.605a189 189 0 0 0-1.047 6.349q-.95 6.322-.633 7.469 0 .04.014.082-.139.164-.261.328-.441.518-.552.97-.165.204-.29.422.03-.135.03-.3.026-1.68.095-2.977A63.3 63.3 0 0 1 52.1 16.795q1.115-4.956 2.603-8.015a23.3 23.3 0 0 1 3.622-5.366 29 29 0 0 0-.606.928m10.963 10.282q.11 3.319-.206 5.544-.441 3.182-1.254 5.817a34.4 34.4 0 0 1-2.08 5.134 24.4 24.4 0 0 1-3.884 4.274q-.288.15-.564.3.51-.683 1.515-2.362 1.625-2.732 2.259-4.233a41 41 0 0 0 2.148-6.759q.552-2.486 1.377-7.523.4-2.43.58-3.77.04 1.352.11 3.578m.427-4.328q.413.915.468 1.079 1.776 6.595-1.211 13.86a32 32 0 0 1-1.544 3.208q1.02-2.813 1.75-7.169 1.239-7.715.289-11.51.123.246.248.532m-.633-.792q-.18.177-.344.396-.482.354-1.047 1.16-.454.684-1.336 1.98-.206.369-1.17 1.98-.744 1.27-1.048 1.898-.702 1.393-1.68 3.769-1.185 2.813-1.556 3.618-1.295 2.813-2.19 7.115-1.13 5.284-1.556 6.772a5 5 0 0 0-.413.341q.165-.423.275-.724.455-1.16.648-3.727.164-2.157-.042-3.4.014-1.87 1.143-5.052 1.143-3.264 3.112-6.977 1.915-3.605 3.775-6.118 1.968-2.662 3.044-2.95l.385-.095zm2.257-5.435a53 53 0 0 0-3.25 5.408.13.13 0 0 1 .027.068q-1.224.738-2.837 2.786-.302.395-.62.805a1 1 0 0 0 .056-.137q0-.027.013-.054 1.309-2.676 3.444-5.53 1.748-2.376 2.878-3.222zm.318.328q.207 1.243-.151 5.476-.275 3.017-.455 4.382a23 23 0 0 0-.62-2.962 5 5 0 0 0-.11-.342q.606-1.488.923-3.441.179-1.079.413-3.113m-2.052.341q-1.97 1.188-3.375 2.622-1.046 1.038-1.64 2.02a35 35 0 0 0-.247-1.228q-.028-.15-.055-.328.083-.122.234-.314.055-.081.096-.15 1.57-1.16 1.86-1.325.468-.285 2.63-1.12zm.413-.15q-.564.438-1.033 1.052-.193.286-.854 1.365-.538.833-.964 1.311a34 34 0 0 0-1.653 2.335 13 13 0 0 0-.689 1.229.14.14 0 0 0-.027-.054 7 7 0 0 0 0-.902q-.027-.465-.138-1.133.799-1.352 2.768-3.086 2.011-1.625 2.494-2.09a.2.2 0 0 1 .096-.027m1.336-.928q-.537.15-3.912 1.488-.716.37-1.942 1.16-1.06.698-1.308.943a66 66 0 0 1-.317-2.157q-.123-.71-.565-2.377-.261-.941-.564-1.406l-.33-.71a5 5 0 0 0-.152-.3q-.015 0 0-.014h-.014A.9.9 0 0 0 61.396 0q-.042.191-.028.382a1.5 1.5 0 0 0-.413.315q-1.64.915-3.552 3.331-1.173 1.49-3.114 4.602-.482 1.161-.923 2.444-.454-.956-1.252-2.69-.785-1.557-1.791-2.622a35 35 0 0 1-1.088-1.256q-.717-.791-1.308-1.256-.414-.286-1.474-1.202-.813-.586-1.405-.45-.855.068-1.584 1.065-.51.736-1.295 2.103a29 29 0 0 0-2.093 3.946 22.3 22.3 0 0 0-1.943 7.305q-.178 1.994.056 6.308.248 4.875.812 6.95l.386 1.27a21 21 0 0 0-1.598.67.76.76 0 0 0 .014-.479q-.564-2.089-3.443-5.925-2.52-3.332-4.256-4.917a25.1 25.1 0 0 0-7.12-4.518q-1.613-.684-2.493-.943-1.653-.533-3.196-.573-.33 0-3.552-.314-1.86-.123-2.563-.028.015-.014 0-.027a.8.8 0 0 0-.11-.26q-.192-.04-.289.028v-.014q-.015.014-.028.014a.13.13 0 0 1-.027.068q0 .027-.014.041-.565.97-.44 3.004.082 1.638.55 3.332 1.365 5.093 5.22 10.309.552.765 1.157 1.53-2.204-1.311-6.35-1.312-1.817-.014-6.293.574l-1.873.464q-.014.014-.042.014l-.013-.014q-.69-.095-1.873.546-.124.041-.262.082a2 2 0 0 0-.124.11.4.4 0 0 0-.11.081.06.06 0 0 1 .055 0q-.373.383-.303.601.013.096.096.137.317 1.01 2.672 3.577 2.08 2.226 3.044 2.977 1.694 1.35 4.118 2.95 2.08 1.419 3.416 2.143 4.118 3.591 10.012 4.505 4.752.711 8.581-.3.014-.013.027-.013a21.6 21.6 0 0 0-2.369 2.567q-.013-.015-.04-.014v.014l-1.57.614q-1.723.642-2.383.983-.8.383-2.122 1.365-1.088.86-1.638 1.79-.317.532-.758 1.556a4.7 4.7 0 0 0-.427 1.461q-.069.519-.097 1.407v1.365q0 .396-.138.915-.081.436-.068.478.014.08.068.109.057.124.166.082.165-.041.345-.123.413.068 1.514.177.207 0 3.65-.45l1.295-.341q.027-.015.137-.082l1.722-.465q6.266-1.98 8.829-3.768a11.4 11.4 0 0 0 1.941-1.707q.606-.738 1.061-1.27a12.5 12.5 0 0 0 .29 1.761q.109.492.495 1.925.523 1.912.716 2.377.262.573 1.543 2.621.715 1.133 2.19 2.717 1.624 1.721 2.08 1.598.22-.054.467-.724.056-.15.11-.259.607.67 1.323 1.27 3.676 3.072 9.82 3.263.18 0 .344.014.193-.014.386-.014.04-.014 0-.15l.013-.013q.111.15.18.286.069-.19.11-.423 1.032-.629 1.942-2.84.84-1.994 1.06-3.564.372-2.54-.495-5.735-.36-1.325-1.57-3.619.77.123 2.437.205 3.195.192 4.27-.273l3.333-.873q.868-.356.88-.356l1.668-.464q.15-.068 1.006-.232.522-.11.95-.396.11-.014.22-.014.123.096.082-.054h-.11a1 1 0 0 0 .097-.055l.137.055.152-.069q.028-.04.028-.054v-.027q.096-.096.068-.26a2 2 0 0 0-.055-.3q-.578-2.144-2.63-4.602-1.722-2.06-3.017-2.69l4.05-1.133q2.645-1.27 5.811-2.963a196 196 0 0 1 5.469-2.854q.014-.014.027 0 .014-.027.028-.027h-.028a.5.5 0 0 0-.014-.11.13.13 0 0 0-.055-.068v-.013q.027-.028.028-.055h-.041q-.469-1.611-1.53-2.226-.826-.464-4.09-2.075-2.108-1.215-5.619-1.434-3.484-.231-7.906.533v-.027l-2.534.669q-1.129.478-2.162.969 1.638-1.503 3.609-5.27 2.285-4.288 2.988-6.8.91-3.318.95-5.9 0-.873-.096-1.788.482-.56.853-4.874.373-4.48.042-5.75-.123-.435-.179-.49-.11-.11-.468-.014m.234.464q-.33.478-.468 1.38-.124 1.255-.234 1.87 0 .588-.33 1.748a42 42 0 0 1-.4 1.474 8 8 0 0 0-.234-.505q-.413-.79-.566-.915-.04.041-.081.041a.7.7 0 0 0-.125-.081q-.316.054-.674.231 2.299-3.618 3.099-5.284z" clip-rule="evenodd"/></svg>