<svg xmlns="http://www.w3.org/2000/svg" viewBox="0 0 784.73 767.08"><path fill="currentColor" d="M415.44 529.33a1.16 1.16 0 0 0-1.14 1.13v.38a1.14 1.14 0 1 0 2.27.21v-.59a1.14 1.14 0 0 0-1.13-1.13m.75 23.42a1.15 1.15 0 0 0-1.13 1.13v.38a1.13 1.13 0 0 0 2.26 0v-.38a1.14 1.14 0 0 0-1.13-1.13m1.89 7.93V563c6.04 0 6.04-2.32 0-2.32M424.5 583h-.38a1.14 1.14 0 0 0-1.13 1.13 1.16 1.16 0 0 0 1.13 1.14h.38a1.14 1.14 0 0 0 0-2.27m-4.91 34h-.38a1.14 1.14 0 0 0 0 2.27h.38a1.14 1.14 0 0 0 0-2.27m23.09 51.3-.38-.38a1.13 1.13 0 1 0-1.6 1.61l.38.37a1.13 1.13 0 0 0 1.6 0 1.15 1.15 0 0 0 0-1.61Zm-.43 19.31v2.27c6.05-.01 6.05-2.28 0-2.28Zm1.56 9.39a1.13 1.13 0 0 0-1.6 0l-.38.38a1.13 1.13 0 1 0 1.6 1.6l.38-.38a1.15 1.15 0 0 0 0-1.6m5.52 11.49-.78-1.88a1.16 1.16 0 0 0-1.39-.79 1.13 1.13 0 0 0-.79 1.39c.26.63.52 1.25.77 1.88a1.17 1.17 0 0 0 1.4.79 1.14 1.14 0 0 0 .79-1.4Zm9.05 15.17-.38-.76a1.14 1.14 0 0 0-1.55-.4 1.16 1.16 0 0 0-.45 1.5l.38.75a1.15 1.15 0 0 0 2-1.14Zm-4 12.34v2.27c6.01-.05 6.01-2.27-.04-2.27Zm13.6 11.67h-1.51a1.14 1.14 0 0 0 0 2.27h1.51a1.14 1.14 0 0 0 0-2.27m4.53 1.13c-.75 0-.75 2.27 0 2.27a1.14 1.14 0 0 0 0-2.27m-12.08 6.8v2.27c6-.01 6-2.28-.04-2.28ZM405 409.77c-.65.09-1.3.16-1.95.24.15-.76-.42-1.66-1.36-1.35q-3.87 1.26-7.77 2.45a791.3 791.3 0 0 1-157 2.28q-24.41-2.08-48.65-5.69c-1.42-.21-2 2-.6 2.19a794 794 0 0 0 169.05 6.88q12.45-.82 24.9-2.07a441.16 441.16 0 0 1-195.3 8.53 435 435 0 0 1-59.06-15.16c-1.39-.46-2 1.73-.6 2.19a443.1 443.1 0 0 0 215.84 15.61 434 434 0 0 0 51.87-12.54l2-.24q-30.3 34.19-58.92 69.81c-9.09 11.33-19.39 22.6-26.61 35.26-6.84 12-9.26 25.75-11.55 39.19-.24 1.43 1.94 2 2.18.6 2.34-13.69 4.79-27.73 12-39.82 7.64-12.79 18.06-24.3 27.39-35.89q28.24-35.07 58.14-68.73a1 1 0 0 0 .29-.76l1.76-.22a.8.8 0 0 0 .16.31l-13.45 23.33c-4.55 7.89-9.21 15.68-15.19 22.6-12.4 14.32-26.34 27.48-39.54 41.06-1 1.05.59 2.65 1.61 1.61l21-21.6c6.54-6.73 13.36-13.3 19.43-20.49 11.74-13.89 19.87-31 28.91-46.72a5 5 0 0 0 .45-.43l.1-.14.47-.06c1.45-.14 1.47-2.41 0-2.23m-57.56 28.16a268 268 0 0 0-33.39 31.2c-1 1.08.62 2.69 1.6 1.61a267 267 0 0 1 33.35-31.2c1.19-.9-.42-2.54-1.55-1.61ZM312.59 452q-22.87 15.36-46.51 29.57a1.15 1.15 0 1 0 1.14 2q23.63-14.19 46.52-29.57c1.2-.85.07-2.81-1.15-2m105.63 17.2-.14-.23a1.1 1.1 0 0 0-.67-.5 33.6 33.6 0 0 1-.47-5c-.29-2.2-.58-4.41-.86-6.61l-1.64-12.48-3.27-25c-.19-1.43-2.46-1.45-2.27 0l3.75 28.62 1.83 14c.3 2.23-.11 7.16 1.69 8.82a1.17 1.17 0 0 0 1.6 0l.27-.21a1.14 1.14 0 0 0 .18-1.42ZM405.73 418a249 249 0 0 1-8.51 34.5q-2.7 8.29-6 16.37-1.79 4.39-3.74 8.7c-.58 1.27-1.94 5.54-3.24 7.24H384a1.18 1.18 0 0 0-1.4.79 1.43 1.43 0 0 0 .18 1.59 1.18 1.18 0 0 0 1.28.52c1.79-.63 2.21-2.27 3-3.91q2.12-4.4 4.06-8.88 3.8-8.78 6.92-17.82a249 249 0 0 0 9.85-38.47c.28-1.5-1.89-2.12-2.16-.63m86.2 43.17c-26.62-7.45-56-16.13-71.73-40.84a1.15 1.15 0 0 0-1.59-.34 1.13 1.13 0 0 0-.51 1.15c-.8-.38-2 .21-1.59 1.26 8.68 24 31.76 36.91 53.78 46.84 1.32.59 2.47-1.36 1.14-2-21.13-9.53-43.72-21.79-52.42-44.66 16.24 24.37 45.5 33.23 72.31 40.73a1.13 1.13 0 0 0 .61-2.14m-14.47-22c-16.9-2.24-35.08-7.05-48.17-18.49-1.1-1-2.71.64-1.61 1.6 13.6 11.89 32.24 16.84 49.78 19.16 1.44.19 1.42-2.08 0-2.27m-74.56-57.95c-14.92-17.79-34.55-30.86-49.82-48.39-13.68-15.71-25-33.33-35-51.56-20.08-36.68-35-75.91-55-112.63-11-20.22-23.64-39.61-39.08-56.76-1-1.08-2.58.52-1.6 1.6 28.16 31.28 46.36 69.63 63.85 107.5 17.2 37.25 34.15 75.36 60.18 107.46A220.6 220.6 0 0 0 371 354.08c10.4 9.26 21.28 18 30.27 28.75.97 1.17 2.57-.49 1.63-1.61m7 10.17a1.26 1.26 0 0 0-.08-.64q-41.62-97.46-87.76-192.85Q309 171 295.65 144.24c-.65-1.3-2.61-.15-2 1.15Q341.11 240.13 384 337q11.7 26.46 23.07 53.08c-1.94-.78-3.87-1.57-5.79-2.39a574 574 0 0 1-68.47-70.85c-23.63-29.09-43.3-60.66-62.49-92.77l-34.81-58.26a1.15 1.15 0 1 0-2 1.15c20.54 34.38 40.36 69.35 62.24 102.91A574.7 574.7 0 0 0 362 353.48q15.6 16.31 32.46 31.33a377 377 0 0 1-98.88-64.22c-31.36-28.26-58.05-61.14-87.85-91-16.57-16.58-34.18-32.17-53.67-45.26-1.21-.81-2.35 1.15-1.14 2 35.66 23.94 64.41 56.13 93.34 87.49 29.23 31.69 59.53 61.8 95.93 85.29A379.7 379.7 0 0 0 400 389.65c1.91 1.66 3.82 3.3 5.75 4.94 1.1.93 2.72-.66 1.6-1.61l-.69-.59 2.13.85c1.21.46 1.79-1.07 1.1-1.85Zm-1.32 8.87a10 10 0 0 1 .57-1c-54.07-15-102.67-44.27-148.56-75.93-13.49-9.31-26.82-18.87-40.13-28.43-1.19-.85-2.32 1.11-1.15 2 47 33.74 94.6 67.85 148.23 90.32a346 346 0 0 0 40.54 14.14c.14-.36.31-.75.49-1.1Zm-37-10.51a1786 1786 0 0 1-161.94-80.15 1.15 1.15 0 0 0-1.15 2 1786 1786 0 0 0 161.89 80.15c1.33.53 2.48-1.42 1.15-2ZM402.44 400a1044.3 1044.3 0 0 1-181.92-39.42q-24.93-7.79-49.43-16.81c-1.37-.51-2 1.68-.61 2.18a1046 1046 0 0 0 180.73 48.7q25.5 4.47 51.23 7.66c1.45.17 1.43-2.1 0-2.31m-26.63 24a1.21 1.21 0 0 0-1.7-.88c-71.92 33.19-156.33 36-221.88 83.5a162.6 162.6 0 0 0-39.89 40.59 1.56 1.56 0 0 0-1.12-.45c-.62 0-1.37.5-1.37 1.14v1.2a1.38 1.38 0 0 0 1.37 1.13 1.56 1.56 0 0 0 .78-.23 1.18 1.18 0 0 0 1.41-.45c43.22-65.5 126.36-81.2 196.47-101.2 20.83-5.94 41.48-12.63 61.28-21.42a328 328 0 0 0-25.42 25.74c-8.77 9.74-17.54 19.52-25.86 29.66C304 501.6 290 523.15 285 548c-.29 1.42 1.9 2 2.19.6 5.12-25.45 19.75-47.3 36.11-66.94s33.3-39.47 52.71-56a1 1 0 0 0 .11-1.41 1 1 0 0 0-.31-.25m-168.59 17.77c-16.53 1.69-32.27 7-47.72 12.82q-23.91 9.09-47.27 19.5c-1.33.59-.18 2.55 1.14 2q23.1-10.26 46.73-19.27c15.25-5.8 30.81-11.08 47.12-12.75 1.43-.19 1.45-2.45 0-2.3m208.15-53.15a1375 1375 0 0 1-32.55-167.78q-3.1-24-5.37-48c-.13-1.44-2.4-1.46-2.26 0a1379 1379 0 0 0 26.52 168.69q5.31 23.94 11.48 47.69a1.13 1.13 0 1 0 2.18-.6m87.85-249.41a1.13 1.13 0 0 0-2.26 0 848 848 0 0 1-6.11 109.09c-2.13 17.59-5.37 34.54-13.64 50.39-7.65 14.64-17.82 27.8-27.57 41.07l-33.92 46.14v-.08c1.68-11.79 7.83-22.64 14.27-32.73 8.5-13.32 17-26.34 23.48-40.81 12.72-28.36 19.58-58.93 24-89.58 2.54-17.68 4.28-35.46 5.85-53.25.13-1.45-2.14-1.45-2.27 0-2.84 32.19-6.22 64.49-14 95.91a273 273 0 0 1-15.24 45.2c-6.36 14.28-14.61 27.2-23.05 40.32-5 7.76-9.89 16-12.86 24.74 7.1-74.22 24.51-147.07 31.5-221.32a609 609 0 0 0 2.82-67.81 1.14 1.14 0 0 0-2.27 0c1.43 80.35-16.58 159.07-28.08 238.15-2.22 15.32-4.19 30.68-5.76 46.08-5.85-60.38-3.09-121.27 2.36-181.62 1.72-19 3.7-38 5.76-56.92.16-1.45-2.11-1.44-2.27 0-7.28 67.09-13.64 134.61-10.68 202.16q1 23.9 3.76 47.66-.42 4.59-.75 9.18a.92.92 0 0 0 .75 1v1.08l.46-.17a1.83 1.83 0 0 1 1.82.43v-1.35a.93.93 0 0 0 1.12-1.07c-.09-.66-.17-1.32-.25-2l31.95-43.48c10.13-13.78 20.83-27.38 29.19-42.35 8.23-14.73 12.52-30.36 14.82-47 2.5-18.14 4.19-36.41 5.38-54.67q1.98-31.12 1.69-62.39m89.66 67.69A468.5 468.5 0 0 1 465.15 356c-14.14 10.81-28.64 21.4-39.58 35.61a2.1 2.1 0 0 1 1.05.76l.59.79c10.46-13.74 24.43-24 38.06-34.39a478 478 0 0 0 36.93-31 469 469 0 0 0 63.42-72.62A469 469 0 0 0 594.84 208c.69-1.24-1.26-2.38-1.96-1.1m26-58.35c-28.46 24-42.83 59.18-60.11 91.16-19.18 35.51-45.26 65.8-74.55 93.36-16.76 15.77-34.31 30.67-51.86 45.54-1.12.94.49 2.54 1.6 1.6 30.71-26 61.59-52.22 87.86-82.85A310.7 310.7 0 0 0 556 249.25c9.16-16 17-32.77 25.93-48.93 10.26-18.57 22.14-36.39 38.48-50.16 1.14-.95-.47-2.54-1.58-1.61Zm-23.56 146.36c-22.23 13.47-38.64 34.34-60.21 48.73-21.3 14.2-45.31 23.45-68.72 33.48a378 378 0 0 0-37.67 18.15c.42.61.83 1.25 1.22 1.92 21.92-12.42 45.62-21.1 68.55-31.39A276 276 0 0 0 532 348.33c10.77-6.76 20.45-14.81 29.83-23.37 11-10 21.82-20.34 34.62-28.1a1.13 1.13 0 0 0-1.14-1.95ZM769 254.42c-45.62 5.76-85.18 30.31-122.88 55-19.6 12.85-39.08 26-59.66 37.25-23.55 12.9-48.5 23-73.93 31.59s-51.13 15.51-77 22.33a1 1 0 0 0-.55-.13 8.5 8.5 0 0 0-3.16.64 11.1 11.1 0 0 1 .7 4.11A462.8 462.8 0 0 0 569.35 373q18.54-7.5 36.4-16.59c1.3-.66.15-2.62-1.15-2a460.5 460.5 0 0 1-133.91 43.87q-16.83 2.76-33.84 4.24c47.33-12.49 94.84-25.68 138.75-47.69 42-21 78.65-50.85 119.95-73C718.49 269.6 743 260 769 256.69c1.4-.18 1.42-2.45 0-2.27m-50 122.23a208.7 208.7 0 0 0-98.87 1.06 1.14 1.14 0 0 0 .6 2.19 206 206 0 0 1 97.67-1.07c1.47.33 2.08-1.83.6-2.18M200.56 269.76c-37.7-30.49-75.51-61.06-116.16-87.6q-17.52-11.43-35.75-21.73a1.13 1.13 0 0 0-1.14 1.95c42.34 23.84 81.35 53 119.32 83.15Q183 258.36 199 271.36c1.08.91 2.7-.68 1.56-1.6m258.53 494.3.92.36a36.74 36.74 0 0 0 26.16.49 1.77 1.77 0 0 0 1-2.2c-.1-.42-.37-1.1-1-1l-2 .27-1-1.72c-7.07-12-13-25.47-19.25-43.64-5.11-15-10.1-30.66-15.25-47.92a480.5 480.5 0 0 1-18.5-102.5c-1.42-19.48-2.13-39.83-2.7-56.18l-.11-3.19 3.2.09c1.93.06 3.86.28 5.73.5 1.66.19 3.22.37 4.72.43a93.14 93.14 0 0 0 48.31-11.62 1.6 1.6 0 0 0 .51-.41l.5-.6.73-.28a27.7 27.7 0 0 0 7.52-4.34c8.39-6.74 11.63-16.16 14.47-26l.42-1.45 1.41-.53c23.21-8.75 47.53-15 71-21l7.26-1.86c26.48-6.84 52.45-13.09 78.94-14.53h.34l.34.07c7.41 1.31 14 .88 19.56-1.26a33.6 33.6 0 0 0 14.9-11.64c5.37-7.24 11.41-20.39 9.83-42.18-.37-5-1.08-10.21-1.77-15.27-1.87-13.72-3.81-27.91.25-41.62a44.65 44.65 0 0 1 11.5-19.77c6-5.73 13.38-8.21 22.65-7.64l3.29.23c7.38.55 14.34 1.06 20.27-2.87 5.7-3.8 8.38-10.24 9.62-15 1.88-7.2 1.91-14.78 1.78-21.92a287 287 0 0 0-1.64-29.65c-2.45-19.83-8.05-35.33-17.13-47.35-9.79-13-22.57-21-37-23.23-5.6-.85-11.41-1.16-17-1.45-1.94-.1-3.88-.2-5.81-.33-7.65-.47-15.71-1.25-22.65-4.93-8.28-4.38-12.21-12-15.82-20.19a81.5 81.5 0 0 0-11.1-19 74.2 74.2 0 0 0-36.47-24c-13.69-4.07-28.49-3.74-44 1-3.42 1-6.93 2.3-10.65 3.64-12.64 4.55-27 9.71-40.51 6.16-14.64-3.83-21.27-17.18-27.11-28.95-1.34-2.69-2.6-5.24-3.94-7.65a94.9 94.9 0 0 0-28.95-31.62C441 2.27 410.1-3.86 382.11 2.42 371 4.92 360.32 9.52 350 14c-5.88 2.52-11.95 5.12-18.08 7.35-6.95 2.57-16.22 5.59-26.12 6.17a64.9 64.9 0 0 1-26.41-4.19c-4.43-1.54-8.93-3.43-13.28-5.26-11.67-4.9-22.69-9.53-34.87-9-16.4.66-30.93 10.08-45 19.2l-4 2.55a1095 1095 0 0 0-98.17 70.73c-6.59 5.34-13.34 11.35-18 19.08a106 106 0 0 0-6.63 13.7c-.86 2-1.76 4.13-2.69 6.18-3 6.46-6.69 13.73-13.45 18.24a63.5 63.5 0 0 1-8.23 4.45 44.3 44.3 0 0 0-9.51 5.54 14 14 0 0 0-4.48 15.19 36.8 36.8 0 0 0 3.92 7.55c2.56 4.16 5.2 8.46 5.47 13.76.5 9.62-6.84 17.7-11.7 23-1.18 1.28-2.37 2.53-3.56 3.77-4.1 4.31-8 8.37-10.69 13.4-4.27 7.92-6.9 19-1.47 26.4l.56.77v.94a.73.73 0 0 0 .3.58l.12.09c8.49 6.86 19 7.05 30.07 7.25 3.82.07 7.78.14 11.65.5 9.42.87 15.74 4.43 18.79 10.57 2.74 5.59 2.82 11.76 2.89 17.73a59 59 0 0 0 .69 10.13c1.25 6.47 5.24 11.16 9.46 16.14 1.47 1.74 3 3.53 4.44 5.45 5.58 7.39 8.48 16.52 8.61 27.14.2 20.47-9.32 38.48-19.94 56.65-1 1.72-2 3.46-3.07 5.21-8.69 14.65-17.67 29.8-18 46.11-.09 4.86.77 13.88 7.48 19.68 3.7 3.19 8.26 4.48 13.09 5.83a59 59 0 0 1 9.87 3.44c8.75 4.29 10.29 13.6 11.53 21.09v.28c1.2 7.26 2.33 14.11 6.76 19.44 4.09 4.93 11.67 8.33 22.54 10.12a46.5 46.5 0 0 0 12.18.52h.53l.5.14c3.07.81 6.55.15 9.87-.64l.16-.11.59-.14a3 3 0 0 0 .41-.13c6.87-3.05 13.95-6.18 20-10.55 6.36-4.6 11.56-10.51 15.8-15.69l2.33-2.88c8.16-10.12 18.32-22.71 33.11-24.34a1.64 1.64 0 0 0 1.25-.72l1.4-2 2.28 1c3 1.32 6.18 2.85 9.37 4.55a1.4 1.4 0 0 0 1.11.17l1.75-.47 1.23 1.33a1.63 1.63 0 0 0 .73.45c17.3 5.35 23.06 25.12 25 36.43a177 177 0 0 1 1.8 20.22c.56 11.19 1.09 21.76 5 31.88 5.12 13.16 16.34 22.33 29.3 23.92a22.4 22.4 0 0 0 15.39-3.31l1.36-1 1.31.25a1.67 1.67 0 0 0 1.41-.36c11.61-9.22 19.57-21.16 28-33.8 6.7-10.06 13.63-20.45 22.49-29.2 7-6.92 15.15-12.5 23-17.89 3.55-2.44 7.21-5 10.7-7.56l4.42-3.29.36 5.5a815 815 0 0 0 33.34 182.47 782 782 0 0 0 15.94 47l.36.95-.3 1a1.13 1.13 0 0 0 .48 1.28l.8.5.38.87a1.8 1.8 0 0 0 2.1 1Zm305.25-586.18a77 77 0 0 1 6.6 13.58 1.65 1.65 0 0 0-1.31.27l-70.24 45.67c-18.79 12.21-37.89 24.11-56.17 37.1 24.18-26.59 44.58-56.89 65.83-85.76 8.67-11.78 17.56-23.39 27-34.58 11.88 4.18 21.5 12.76 28.29 23.71Zm-80.27-31.51c13.94 5.63 29.4 3.29 43.94 5.73 1.41.23 2.78.55 4.13.9-34.83 41.72-62.26 89.42-100.43 128.35q-4.56 4.65-9.33 9.08c-4.42 3.69-8.75 7.5-13 11.34a229 229 0 0 1-8.19 6.34 23.9 23.9 0 0 1-7.54 7.82c-6.35 5.66-12.79 11.2-19.54 16.38-19 14.6-40.22 26.09-62.13 35.71-25.15 11-51.28 19.64-77.34 28.2a2.4 2.4 0 0 0-.45.22 3 3 0 0 0-.72 0c-.12-.37-.24-.74-.39-1.09 13.85-16.85 34.29-26.28 51.94-38.5 19.66-13.62 34.39-33.36 54.86-45.84 10.39-6.34 21.68-11.1 30.86-19.26 7.93-7.05 14.17-15.8 19.49-24.93 5.65-9.72 10.33-20 15.34-30a308.2 308.2 0 0 1 71.59-94.14 36 36 0 0 0 6.91 3.69m-60.45-62.55A67 67 0 0 1 656.75 111c4.16 6.85 6.43 14.68 10.7 21.47a35 35 0 0 0 6.66 7.8 316 316 0 0 0-47.29 53.21 309 309 0 0 0-19.73 32c-5.4 10.08-10.09 20.51-15.37 30.65S580.7 276 573 284.23c-8.65 9.24-19.51 14.71-30.41 20.81-21.51 12-36.45 31.79-56.15 46.16-18.62 13.58-40.46 23.23-55.59 41a7 7 0 0 0-4.09-1.76c31-39.54 62.34-78.88 93-118.69 14.55-18.87 27.62-38.44 37.71-60.08 9.55-20.46 17-41.78 24.6-63 8.3-23.24 16.85-46.47 28.43-68.32a67 67 0 0 1 13.12 3.47m-193.45 328.9c-6.05 3.44-7.92 4.8-12.17 4.87-1.51.2-4.26-1.58-5.7-1.58-3 0-4.94-2.66-5.68-5.4-1.11-1.92-.74-3.74.31-5.71a9 9 0 0 1 .73-1.48 17 17 0 0 1 2.91-3.85 1.6 1.6 0 0 1 .3-.33c3.3-3.38 8.93-7.13 13.88-6.5s6.45 6.39 5.45 10.79c0 2.07.95 4.18.32 6.13a12.5 12.5 0 0 0-.34 3ZM217 335.39c-1.4-.67-3.18-1.37-4.6-2a3.1 3.1 0 0 1-.82-.45c-15.55-8.83-30.74-18.62-46-27.76-24-14.45-48.47-28.39-69.76-46.79-3.75-3.24-7.43-6.58-11-10a1.61 1.61 0 0 0-1.29-1.88h-.06l-.82-.16C67.55 231.8 53.67 216 40 200c48.61 19.7 97.17 39.79 143.4 64.68q13.32 7.15 26.26 14.93h.12l.55.35.77.45c4.21 2.46 8.73 4.21 12.31 7.62q16.22 10.21 31.91 21.29c23.41 16.56 46.6 33.26 71.47 47.62a577 577 0 0 0 82 39 21 21 0 0 0-2.48 2.59 1.7 1.7 0 0 0-.53-.25L321.2 373.5c-27.61-8.11-55.36-15-81.74-26.65a157 157 0 0 1-20.83-10.78V336c.01-.17-1.36-.37-1.63-.61m194.92 86q5.52 27.21 12.07 54.18a60.5 60.5 0 0 0-24.32 10.1c-6.52 4.63-12.2 10.31-18.66 15a40.6 40.6 0 0 1-21.2 7.9c-6.21.56-12.63.74-18.56 2.73 13-12.35 25.72-25.1 36.49-39.5a181.4 181.4 0 0 0 27.8-54.54 14.47 14.47 0 0 0 6.36 4.14ZM531 94c16.48 1 32.25-6.8 47.69-11.34a72.5 72.5 0 0 1 27.74-2.89c-20.16 38.6-31 81.12-48.25 121a299 299 0 0 1-30.18 53.5c4.73-24.59 5.35-49.73 4.65-74.72-.79-28.59-2.48-57.18-3.82-85.76A19 19 0 0 0 531 94m-46.08-46.49c4.32 6.54 8.37 13.71 12.06 20.59 6.56 12.21 17.8 22.09 29.89 25.06v.09c0 28.28 2.07 56.56 2.91 84.85.81 27.73-.29 55.66-6.53 82.81 0 .22-.28.42-.26.62-15.08 20.22-31.11 39.85-46.67 59.69q-26.55 33.86-53.15 67.7c10.57-45.3 22-90.51 30.7-136.2s13.55-92.11 16.91-138.51c1.89-26.11 3.32-52.25 4.74-78.39a82.6 82.6 0 0 1 9.4 11.69m-51.3-37a97.8 97.8 0 0 1 37 20.64c.66.59 1.31 1.2 2 1.81a1.82 1.82 0 0 0-.8 1.46c-2.55 46.82-5.1 93.67-10.24 140.29-5.2 47.09-14.22 93.23-24.93 139.35q-8.88 38.24-17.78 76.48c-.46.15-.91.3-1.37.47a879 879 0 0 1-16.22-150.64c-1.06-51.21 2.9-102 10.07-152.68C415.14 60.91 418.82 34 417.92 7a104 104 0 0 1 15.7 3.47Zm-42.34-3.64a96 96 0 0 1 22.85-.33c.87 24.88-2.14 49.65-5.6 74.26-3.48 24.86-6.8 49.7-8.7 74.75q-1.33 17.63-1.95 35.29c-3-20.54-6.59-41-13.26-60.71-4.05-11.95-8.61-23.7-11.93-35.9a357 357 0 0 1-7.77-36.89c-2.2-13.57-3.84-27.23-5.44-40.88 10.28-4.26 20.74-8.07 31.8-9.59m-47.7 16.33c4.1-1.71 8.19-3.49 12.3-5.23 2.8 23.84 5.76 47.74 11.56 71.07 3.05 12.27 7.2 24.12 11.42 36a277 277 0 0 1 10.43 37.28c2.92 14.35 4.9 28.86 6.88 43.36a1.44 1.44 0 0 0 1.28 1.35 880 880 0 0 0 4.09 101.15q4.06 41.43 12 82.34l-.68-.75a2 2 0 0 0-.18-.58c-23.15-47.23-36.22-98.35-53-148q-8.16-24.12-18-47.54c-.45-27.48-1.08-55-4.5-82.31a331 331 0 0 0-7.65-41.19c-3.33-12.91-8.19-25.59-9.39-38.91a162 162 0 0 0 23.39-8Zm-50 10a69 69 0 0 0 22.93-1.09c1.24 12.43 5.49 24.26 8.73 36.31a317 317 0 0 1 8.24 43c3 24.25 3.87 48.68 4.34 73.1q-3.21-7.36-6.59-14.68c-10.86-23.46-22.63-46.48-33.83-69.78-11.84-24.67-23-49.71-31.7-75.67 9 3.77 18 7.53 27.86 8.82Zm-46.89-16a137 137 0 0 1 14.4 5.23c15.77 48.29 40.17 93 61.92 138.74q7.62 16.05 14.57 32.36c1.9 2.4 2.71 5.3 3.43 8.23 4.41 10.76 8.58 21.62 12.41 32.63 8.66 24.88 16.16 50.14 24.3 75.19 7.91 24.32 16.46 48.46 27.11 71.72-4.64-5.8-9.64-11.32-14.49-17-9.65-11.17-17.31-23.42-24.69-36.16-14.48-25-29.06-50-43.26-75.18-27.43-48.63-53.45-98.43-71.86-151.27a475 475 0 0 1-21.71-86.42 48.1 48.1 0 0 1 17.85 1.91Zm-49.84 11.49c7.85-4.88 16-9.66 24.93-12.11 1.1-.3 2.21-.55 3.31-.76a476 476 0 0 0 21.43 85.75c-7.06-11.37-13-23.5-21.27-34.07-10.34-13.14-23.64-23.45-36.93-33.44q4.26-2.71 8.53-5.37m-49.46 32.73q18.51-13 37.55-25.21c14.06 10.56 28.32 21.44 38.93 35.65 10.24 13.72 16.94 29 27.45 42.59v-.62a7 7 0 0 0 .11.81 729 729 0 0 0 23.14 55c24.25 51.53 53.32 100.77 81.82 150 8.16 14.12 16 28.65 26.25 41.38 7.36 9.11 15.59 17.56 22.54 27A1045 1045 0 0 1 289.33 286.7c-9.7-9.83-19.35-19.76-28.23-30.35a285 285 0 0 1-20.77-28.77 11.6 11.6 0 0 1-3.54-5.54q-23.55-37.23-46.92-74.56l-50.55-80.33c2.68-1.91 5.37-3.83 8.07-5.73M99.92 96.57q17.85-14 36.32-27.22l90.62 144c-16.07-15.38-32.11-30.8-48.39-46-17.73-16.5-36.26-32.52-57.26-44.75a162.3 162.3 0 0 0-34.88-15.32c4.43-3.67 9.07-7.16 13.59-10.71m-21.35 17.86C80 113 81.49 111.6 83 110.24a2.5 2.5 0 0 0 .38.15c47.62 13.6 83.33 50.94 118.15 84.1l33.62 32c5.39 8.47 10.93 16.85 17.07 24.8 8.49 11 18 21.14 27.62 31.1q28.8 29.75 59.9 57.14 28.89 25.44 59.61 48.7a572 572 0 0 1-64-30.74c-24.95-14-48.31-30.18-71.57-46.75-16.4-11.68-33.06-22.82-50.23-33.22Q157 220.45 103.94 160.07q-15.78-18-31.24-36.21a1.62 1.62 0 0 0-1-.61 51 51 0 0 1 6.87-8.82m-52.13 63.62c.95-6 9.1-8.54 13.73-10.8a40 40 0 0 0 15.76-12.9c4.28-6 6.91-13 9.83-19.64 1.26-2.91 2.6-5.73 4.1-8.42 0 .08.1.16.16.24q53.91 63.57 111.63 123.76 9.53 9.95 19.17 19.76-4.38-2.52-8.83-5c-24.45-13.48-49.65-25.57-75.17-36.89-27.12-12-54.61-23.17-82.11-34.32L34 193a1.59 1.59 0 0 0-1.57-.59c-.91-1.61-1.88-3.19-2.83-4.79-1.67-2.83-3.71-6.14-3.16-9.57M17.91 238c9.36-9.77 21.27-22.39 18.11-36.81 12.87 15 25.88 30 39.93 43.93A397 397 0 0 0 17 238.89c.34-.31.62-.62.91-.89M72 295.6A24.26 24.26 0 0 0 56 278c-7.8-2.78-16.53-2.33-24.68-2.48-6.26-.12-13.39-.22-19.19-3a4.4 4.4 0 0 0-1.67-1.76c-5.33-3.33-5.16-9.7-3.62-15.14a36.45 36.45 0 0 1 7-12.94 390.6 390.6 0 0 1 67 7.27c1.89 1.81 3.8 3.61 5.74 5.38 20.35 18.61 43.38 33 66.93 47.14l37.27 22.41 12 7.2c-20.71-3.2-41.19-7.72-61.61-12.38L73 304a44.7 44.7 0 0 0-1-8.4m1.06 12.31 68.5 15.66c23.09 5.26 46.25 10.26 69.73 13.43 5.42 3.12 10.89 6.13 16.48 8.92 25.38 12.68 53.13 19.73 80.23 27.68l96.23 28.26c-.14.27-.27.55-.4.83l-.15-.05-.39-.08a2 2 0 0 0-.33-.07h-.1a10 10 0 0 0-1-.1 1.9 1.9 0 0 0-.66-.17c-40.79-3-81.63-6-122.16-11.53-19.83-2.72-39.58-6.06-59.15-10.29-8.61-1.86-17.16-4.06-25.73-6.15a1.88 1.88 0 0 0-1.29-1.69 595.8 595.8 0 0 1-119.54-58.64c-.16-2-.2-4-.25-6Zm13 29.46c-3-3.79-6.67-7.13-9.24-11.25a22 22 0 0 1-2.82-7.33 599.6 599.6 0 0 0 101.6 51.3c-4-.79-8.07-1.48-12.14-2-22.24-3-44.5-.1-66.77 1v-.9a2 2 0 0 0 .14-.34 1.9 1.9 0 0 0-.21-1.46 54 54 0 0 0-4.12-18.24 46.4 46.4 0 0 0-6.5-10.78ZM96.51 375c0-.71.09-1.43.13-2.14 19.65-1 39.35-3.5 59-1.86 20 1.66 39.41 7.74 59 12.11 38.8 8.66 78.31 12.67 117.86 16.36 22.89 2.14 45.82 4.47 68.75 4.47h.15c.35 0 .69 1.31 1.05 1.41.06 0 .12.53.17.54-.06.27-.1.8-.14 1.07-38.85 15.69-79.64 27-121.31 31.78-43.16 4.94-85.9 2.07-128.44-6.31-4.56-.9-9.11-1.81-13.65-2.77a16 16 0 0 1-6-1.48l-.48.13c-16.7-3.63-33.33-7.56-50-11.4 7.07-13.14 12.72-26.81 13.91-41.91m-35.59 81.77c4.22-9.7 9.7-18.79 15-27.9 1.65-2.83 3.28-5.67 4.86-8.53 14.62 3.37 29.25 6.89 43.94 10.18a166.9 166.9 0 0 0-68.58 41.34 64 64 0 0 1 4.78-15.09m10.21 40C63.19 494.53 57.32 490.62 56 482a30 30 0 0 1-.32-4.23 163.3 163.3 0 0 1 76.81-45.52c24.76 5.38 49.69 9.93 74.93 11.89-2.76 1.43-5.5 2.89-8.26 4.34l-38 19.93-71.37 37.4c-4.9-5.12-11.73-7.07-18.66-9Zm66.36 53.68c-8.15 2.73-17.39.74-25.25-2-3.85-1.35-7.69-3.17-10-6.64-2.11-3.07-3-6.83-3.69-10.43-1.48-7.53-1.9-15.69-6.15-22.34 0-.07-.11-.14-.16-.22l58.19-30.5 30.69-16.09 16-8.39 8-4.2 3.34-1.75c1.63-.86 3.26-2.3 4.84-3.05a1.6 1.6 0 0 0-.81.75 5 5 0 0 1 1-.47 9.4 9.4 0 0 1 3.39-.29v-.08c40.21 2.07 80.67-2.49 119.73-12.12 15.27-3.76 30.32-8.32 45.14-13.56A736 736 0 0 1 227 479.6q-18.66 5-37.56 8.9a45.7 45.7 0 0 0-10.8 2.18l-3.63.71a1.53 1.53 0 0 0-1.33 1.27 37.4 37.4 0 0 0-16.35 14.13c-4.53 7.41-5.3 16.11-6.87 24.44-1.59 8.17-4.35 16.35-13 19.23Zm42.73-28.64c-5 6.13-9.92 12.53-16.11 17.53a58.6 58.6 0 0 1-8.39 5.55 51 51 0 0 0 3.64-12.33c1.63-9 2.43-18.74 9.24-25.61 10.61-10.71 24.86-11.09 38.45-7.5-10.9 4.28-19.31 13.14-26.83 22.37Zm75.32-6.81a36.06 36.06 0 0 0-18.38-13.41 4.34 4.34 0 0 0-2.26-.13 4.5 4.5 0 0 0-1-.67c-9.43-5-19.83-9.57-30.48-11.46a739 739 0 0 0 113.38-35.8c-12.57 10.74-25.19 21.43-37.61 32.35-9.38 8.22-18.69 17.49-23.65 29.12m65.52 43.15q-1.74 15.25-3.46 30.51c-.86 7.54-1.53 17-7.87 22.18-4.45 3.64-10.52 3.83-15.86 2.38-15.54-4.2-22.11-18.39-24.28-33.2-2.42-16.51-.65-33.53-6.12-49.56a60 60 0 0 0-5.36-11.65c4.71-13 15.28-22.88 25.59-31.83 14.07-12.2 28.26-24.27 42.39-36.4a1.64 1.64 0 0 0 .61-1.14q14.76-6.24 29.25-13.13Q379.76 425 402.69 412c.07.3.16.59.25.88A178.9 178.9 0 0 1 374.47 470c-13.3 17.77-29.67 33-45.85 48.07a1.74 1.74 0 0 0-.13 2.46 2.2 2.2 0 0 0 .33.28 30.8 30.8 0 0 0-4.12 9.63c-2.21 8.94-2.6 18.53-3.64 27.7ZM456.52 713.6c5.4 16.26 11.5 32.39 20 47.31a30.73 30.73 0 0 1-16-2.82 807 807 0 0 1-44.82-181.88q-3.36-26.78-4.88-53.71v-.24c3.13-2.89 6.12-5.9 9.24-8.92a12 12 0 0 1 1.51-1.23c1.18 33.75 2.6 67.55 7.92 100.94 5.38 34.35 16.09 67.61 27.03 100.55m-15-211.79c-7.41-.24-15.42-2.5-22.41 1-6.33 3.16-10.73 9.88-16.06 14.41-11.31 9.6-24.45 16.77-35.73 26.41-10.63 9.08-18.66 20.57-26.37 32.12-4.93 7.39-9.84 14.84-15.44 21.69 3.39-19.45 4.14-39.41 6.84-59 1-7.58 3.21-15.39 11-18.36 7.31-2.77 15.62-2 23.23-3.29 16.88-2.78 26.82-16.72 40.56-25.29a54.78 54.78 0 0 1 48.57-4.19c6.1 2.42 11.37 6.82 17.33 9.56a86.3 86.3 0 0 1-31.49 4.94Zm27-18.12a61.55 61.55 0 0 0-23.1-8.44 65.5 65.5 0 0 0-17.69-.24q-2.61-10.71-5-21.46a56 56 0 0 0 16.48 16.24C446 474.1 453.56 476 461 478.7a45.6 45.6 0 0 1 15.87 9.69 76 76 0 0 1-8.35-4.7m22.67 4.63a14.4 14.4 0 0 1-7.38 1.83 49.2 49.2 0 0 0-15.92-12.69c-7.43-3.55-15.7-4.92-23-8.74a52.08 52.08 0 0 1-26.39-34.31v-.12q-1.29-6.07-2.54-12.16h.65a17.7 17.7 0 0 0 5-.73c12.15 10.88 24.64 21.67 40.25 27.2 15.14 5.37 31.83 6.57 45.46 15.7-2.95 9.82-6.93 19.06-16.13 24Zm22.45-45.17a125 125 0 0 0-4.78 15.49 4.4 4.4 0 0 0-1.23 1.45c-12.55-7.77-27.43-9.6-41.33-14-14.79-4.63-26.68-13.85-38.1-23.88 8.15 2.88 17.2 3.4 25.68 4.4 11.44 1.34 23 2.34 34.51 1.74a101.7 101.7 0 0 0 31.62-6.6c4.71-1.81 9.35-3.58 14-5.14a67.3 67.3 0 0 0-20.37 26.54m-69.73-21.24a439.3 439.3 0 0 0 108.45-16.21 82 82 0 0 0-8.12 4.05 154 154 0 0 0-22.65 7.35 102.3 102.3 0 0 1-31.81 7.44c-10.8.68-21.64-.09-32.38-1.26-4.34-.47-8.93-.81-13.49-1.37m149 11.63C568.12 440 543.19 446 519 454.61a77 77 0 0 1 3.81-10.05c15.17-32.11 54.39-41.25 86.66-35.8a171.5 171.5 0 0 1 28.34 7.51c4.32 1.53 8.56 3.28 12.82 5C631.21 424 612 428.63 593 433.54Zm103.8-18.83a25.18 25.18 0 0 1-16.08 5.29 4.1 4.1 0 0 0-3-1.07q-2.43.07-4.83.21c-9-1.81-18-6.07-25.78-9.1-23.76-9.23-50.47-14.75-75.51-10.12q19.63-6.41 38.75-14.67h.09c5.6-.09 11 1.34 16.62 1.49l.59.27c11.69 1.13 23.39 2.28 35 4.07 14.87 2.29 29.57 6 42.69 13.57a32.45 32.45 0 0 1-8.5 10.07Zm10.11-13.47c-13.34-7.61-28.26-11.5-43.36-13.83-15.38-2.37-30.94-3.67-46.43-5.22A375 375 0 0 0 671.54 352c9.45-6.37 18.14-13.63 25.29-22.55 4.21-5.25 8.08-10.87 12.43-16-.47 1.85-.86 3.71-1.15 5.56-3 19.27 2.91 38.41 3.22 57.65.13 8-1.1 16.87-4.47 24.59Zm5.34-96.43A124.5 124.5 0 0 0 699 320.38c-6.47 8.61-13.37 16.41-21.94 23-16.72 12.82-36 22.95-54.93 32.05a437.8 437.8 0 0 1-122.75 37.89 432 432 0 0 1-71.33 4.9l-.29-.11a17.2 17.2 0 0 0 3.79-4.46c24.69-3.78 49.46-7.22 74.06-11.52a307.5 307.5 0 0 0 66.55-19.47c42-17.66 79.91-43.24 116.88-69.47 10.34-7.34 20.46-15.19 31.42-21.59a49.4 49.4 0 0 0-8.27 13.21Zm66.41-49.45c-.29 6.55-1.14 14-5.15 19.47-3.06 4.13-7.32 5.41-11.88 5.63a1.64 1.64 0 0 0-1.31-1.3c-22.51-5.23-42.86 9.15-60.2 21.56-19 13.6-38.08 27.14-57.74 39.77-39.09 25.1-81 46.61-126.83 55.94-27.15 5.53-54.8 9-82.21 13.16.13-.49.23-1 .32-1.5a34.7 34.7 0 0 0 .5-7.48 2.6 2.6 0 0 0 .88-.41 2 2 0 0 0 .29-.28 1.6 1.6 0 0 0 .3-.07c45.63-15 92.31-30.35 132-58.16 14.66-10.27 27.59-22.53 40.84-34.45q9-7.1 17.35-14.93c20.81-16.78 43.63-30.93 66-45.48L771.54 195a2.3 2.3 0 0 0 .49-.45c3.69 11.11 5.27 23 6 34.64a257 257 0 0 1 .58 26.18Z"/></svg>