<svg xmlns="http://www.w3.org/2000/svg" viewBox="0 0 813.84 519.47"><path fill="currentColor" d="M379.1 275.12a251 251 0 0 0 18.19 33.59C404.2 319.19 412 329 419.55 339a219 219 0 0 1 17.84 27.09c-9.4-14.55-22.41-26.67-33.46-40a309.8 309.8 0 0 1-38.76-59.49c-.66-1.31-2.61-.16-2 1.14a312.5 312.5 0 0 0 37.42 57.89c13.32 16.31 29.85 30.74 39.49 49.69a7.6 7.6 0 0 1 3.61-1.48q-.93-2.13-1.95-4.2a1.09 1.09 0 0 0 1.78-.8c.54.87 1.07 1.76 1.61 2.63l.12.56a1 1 0 0 0 .76.79 1 1 0 0 0 .72.29l.67-.19a1 1 0 0 0 .46-1.34l-.09-.14-.51-.83q-9.26-43.41-18.58-86.84c-3.06-14.3-6.42-28.58-8.95-43-2.63-14.93-3.23-30-3.45-45.07q-.36-25.22-.69-50.45a1.14 1.14 0 0 0-2.27 0l.62 45.26c.21 14.63.37 29.3 2.47 43.81s5.48 28.55 8.52 42.74q4.69 22 9.41 44c-3.3-11.13-7.08-22.13-10.73-33.1l-27.73-83.46c-.45-1.38-2.64-.79-2.18.6l27.29 82c7.86 23.69 16.47 47.52 19.47 72.4a1032 1032 0 0 1-73.31-146.74q-9.39-23.3-17.64-47c-.48-1.37-2.67-.78-2.19.6A1036.4 1036.4 0 0 0 420 328.84q10.11 18.2 21 36c.11 1.34.22 2.68.29 4-10.33-20.71-26.07-38-39.19-57-14.77-21.34-24.3-45.34-34.67-68.87-6-13.54-12.36-26.9-20.27-39.42-.78-1.23-2.74-.1-2 1.14 14.02 22.12 23.05 46.75 33.94 70.43m64.65 89.77-.54-.89q-.13-1.5-.3-3Zm-4.64 12.38a2.7 2.7 0 0 1 .32-1 1.07 1.07 0 0 0-.44-.43l-5.48-3c-33.47-23.19-55.89-58.67-80.85-90.22A340 340 0 0 0 328 254.36a1.14 1.14 0 0 0-1.61 1.6c31.43 31.76 53.22 71.79 85.81 102.49q3.45 3.26 7.07 6.32c-2.87-1.72-5.71-3.5-8.49-5.37a167 167 0 0 1-25.61-21.9c-16.64-16.89-33-34.05-49.51-51.09A1.14 1.14 0 0 0 334 288c16.82 17.36 33.47 34.92 50.5 52.08a167 167 0 0 0 24.51 20.83c7.43 5 15.26 9.44 23.14 13.72q2.91 2 5.89 3.89a5.5 5.5 0 0 1 1.07-1.25M337.3 320.33a282.6 282.6 0 0 0 66.87 46.5c6.39 3.19 12.91 6.08 19.5 8.8A104 104 0 0 1 438 382.5a4.16 4.16 0 0 1-.32-2.82c-8-4.57-17-7.5-25.2-11.31a280 280 0 0 1-35.92-19.94c-24.19-15.87-44.93-35.68-64.31-57-11.17-12.32-22.09-24.87-33.1-37.34-1-1.09-2.56.52-1.6 1.61 19.45 21.88 38.3 44.59 59.75 64.63M531.71 485.9a145.16 145.16 0 0 0-34.5-56.3 154.5 154.5 0 0 0-25.44-20.44c-8.77-5.74-18.45-11.76-22.77-21.65a13 13 0 0 1 .16-1.51 21.6 21.6 0 0 1-6.37-.23c.62.49 1.22 1 1.81 1.52l-.24.43c-.08.09-.17.18-.24.27-29.26 12.77-62.65 12.46-93.91 10a401 401 0 0 1-49.75-7.21c-15.89-3.33-31.31-8.21-47-12.23-17.35-4.44-34.71-6.13-52.32-2.09-1.42.33-.82 2.51.6 2.19 33.86-7.77 66.19 7.69 98.85 14.46a382 382 0 0 0 73.41 8.45c-25.9 5.94-52.44 10-79.07 8.51-14.17-.81-27.62-3.87-41.35-7.24-13.46-3.3-27.09-4.22-40.89-4.83-1.46-.06-1.46 2.2 0 2.27 14.83.66 29.23 1.93 43.66 5.59 13.21 3.36 26.36 5.87 40 6.55 28.07 1.39 56.06-3.34 83.27-9.83a1 1 0 0 0 .81-1q8.72-.09 17.37-.69c14.7-1.05 29.24-3.73 43-9-12.41 13.11-28.66 21.88-45.93 27.11-10.16 3.06-20.49 4.28-30.9 6.15-9.67 1.74-19.22 5.22-25 13.58-.84 1.21 1.12 2.34 1.95 1.15 7-10 19.51-12 30.73-13.64a156.4 156.4 0 0 0 29.5-6.88 112 112 0 0 0 28.37-14.53 109.2 109.2 0 0 1-16.86 11.13c-12.17 6.68-24.89 12.44-35.64 21.39-1.12.93.49 2.53 1.6 1.6 11.52-9.58 25.41-15.41 38.32-22.79 8.78-5 16.72-10.93 23.13-18.4-.38.71-.77 1.42-1.17 2.12-2.68 4.66-6 8.82-9 13.29-5.74 8.64-7.06 19.33-8.4 29.4-.19 1.44 2.08 1.43 2.27 0a142 142 0 0 1 3.16-17.23 42.7 42.7 0 0 1 7.25-14.34 103.4 103.4 0 0 0 12.11-21.37l.4-.18a79.56 79.56 0 0 0 9.83 44.09c7.89 14.23 19.18 26.19 30.29 37.92 1 1.06 2.61-.54 1.61-1.6-10.7-11.3-21.56-22.77-29.32-36.36a77.86 77.86 0 0 1-10.44-39c5.39 15 17.72 26.55 29.38 37.33 16 14.77 29.56 31.22 39.84 50.45.69 1.28 2.65.14 2-1.15A184.2 184.2 0 0 0 483.73 434c-12-11.29-25.94-22.86-32.2-38.29 3.72 4.56 8.52 8.27 13.48 11.64 9.47 6.45 18.87 12.58 27.23 20.49a142.86 142.86 0 0 1 37.28 58.7c.48 1.34 2.65.75 2.19-.64M429.4 380.37a21.5 21.5 0 0 0-2.92-1.12c.71-.42 1-1.49 0-1.88-10.12-4.29-21.3-5.44-31.23-10.2-10.27-4.91-19.57-12.3-28.75-18.95q-28.76-20.84-55.35-44.44c-1.09-1-2.7.63-1.6 1.6q26.26 23.26 54.65 44c9.37 6.82 18.86 14.34 29.28 19.49 9.49 4.69 20.11 6 29.93 9.72a83 83 0 0 0-11.28-.7c-7.68-.29-15-2.61-21.92-5.74a298 298 0 0 1-37-20.17C331 337.84 311 320.46 289.56 305.14a239 239 0 0 0-38-22.75c-1.31-.62-2.46 1.34-1.14 1.95 23.93 11.14 44.74 27.47 65.52 43.5 10.43 8.05 20.93 16.05 31.93 23.33 8.09 5.35 16.51 10.21 25.08 14.77-15.53-6.71-30.77-14.11-46-21.5-23.68-11.49-47.57-23.64-66.28-42.57a1.13 1.13 0 0 0-1.6 1.6c18.84 19.07 42.88 31.36 66.74 42.93 26.66 12.94 53.41 26 81.63 35.22 1.15.38 1.75-1.05 1.15-1.81 6.65.5 13.64-.33 19.7 2.56 1.27.63 2.42-1.37 1.11-2m36.13-204.79c-.71 13.08-1.09 26.23-2.2 39.28-.58 6.88-2.83 13-5.13 19.48q-3.09 8.74-5.3 17.77c-5.69 23.34-7 47.52-6.65 71.47.19 14.11.94 28.21 1.72 42.3.07 1.45 2.34 1.46 2.26 0-1.35-24.68-2.66-49.45-1-74.14a234 234 0 0 1 5.33-37 184 184 0 0 1 5.1-17.82c2-5.79 4.42-11.46 5.37-17.55 1.05-6.77 1.08-13.75 1.45-20.59q.63-11.58 1.27-23.17c.13-1.49-2.14-1.48-2.22-.03m48.05 34.58c-5.26 13.55-13.41 25.6-20.55 38.17a264 264 0 0 0-17.39 37.81c-5 13.4-9.18 27.1-13.07 40.87-3.72 13.2-8.47 26.73-9.65 40.45-.13 1.45 2.14 1.44 2.26 0 1.24-14.34 6.4-28.73 10.34-42.51 3.8-13.31 7.89-26.55 12.79-39.5a260.5 260.5 0 0 1 18-38.34c6.9-11.91 14.41-23.46 19.42-36.34.57-1.36-1.62-1.95-2.15-.61m66.17 62.43c-40.65 31.6-76.3 69.53-119.79 97.46q28.29-32.06 57.86-63c1-1.06-.59-2.66-1.61-1.61q-27.09 28.31-53.09 57.62c.11-.22.22-.44.32-.66q22-30.34 41-62.74c12.93-22.13 23.67-46.37 41.89-64.83a1.14 1.14 0 0 0-1.61-1.6c-18 18.28-28.77 42.13-41.52 64.07q-15.6 26.82-33.37 52.27 11.54-22.81 24.15-45.06a1.15 1.15 0 1 0-2-1.15q-16.11 28.53-30.52 57.93-1.87 2.59-3.76 5.17c-.6.81.15 1.59 1 1.63l-1.78 2c-1 1.09.64 2.7 1.6 1.6a3 3 0 0 0 .22-.25 1.1 1.1 0 0 0 1 1.16 1.16 1.16 0 0 0 .63-.16c44-28.08 79.94-66.38 121-98.28 1.14-.87-.48-2.46-1.62-1.57m-27.46 202.48c-9.25-18.72-21.32-38-38.39-50.54-18.9-13.84-38.78-26.46-58.17-39.53l-.8.16-1.83.35a1.09 1.09 0 0 0 .5.78c19 12.89 38.23 25.48 57 38.7 17.84 12.56 30.19 32 39.73 51.27.67 1.24 2.6.11 1.96-1.19m-38.65-61.31A178 178 0 0 0 487.08 398c-9.05-4.39-18.34-8.41-26.38-14.5a11 11 0 0 1-2.47 1c7.54 5.93 16.18 10 24.82 14.13a188.6 188.6 0 0 1 26.43 15 173.9 173.9 0 0 1 43.79 43.83c.82 1.19 2.79.06 2-1.14a176.2 176.2 0 0 0-41.63-42.56m51 25.6c-8.41-16.17-24.91-25.2-41-32.26-20.13-8.84-40.56-17-60.87-25.49a5 5 0 0 1-.89 1 6.5 6.5 0 0 1-.91.65c20.17 8.45 40.47 16.63 60.47 25.34 16.09 7 32.82 15.72 41.23 31.91.71 1.29 2.66.15 1.99-1.15Zm-11.2-38c-21.94-12.6-47.74-11.35-71.82-16.6 20.22-2.11 40.42-4.36 60.79-4a1.14 1.14 0 0 0 0-2.27c-21.74-.35-43.29 2.24-64.89 4.46a1.15 1.15 0 0 0-.93.64 91 91 0 0 1-13.1-4.47 4.4 4.4 0 0 1-.54 2.21c28.56 12.15 62.06 6.34 89.36 22a1.14 1.14 0 0 0 1.51-.56 1.13 1.13 0 0 0-.36-1.41Zm65-33.29a94.62 94.62 0 0 0-68.59-7.29c-12.81 3.59-24.8 9.07-37.93 11.66-13.81 2.72-27.82 4.59-41.72 6.8-1.43.22-.82 2.41.6 2.18 13-2.05 26-3.9 38.88-6.26s24.45-7 36.74-11a92.6 92.6 0 0 1 70.9 5.84c1.33.7 2.48-1.26 1.14-1.93ZM604.4 321.5c-23.75 2-45.76 12.27-67.57 21.11-22.29 9-44.4 18-64.54 31.36-1.22.81-.08 2.77 1.14 2 20-13.22 41.89-22.17 64-31.13 21.58-8.75 43.46-19.1 67-21 1.41-.25 1.42-2.51-.03-2.34m-15.07-14.83q-32.69 14.58-64.52 30.92c-19.29 9.91-40.49 19.34-56 34.84a1.14 1.14 0 0 0 1.6 1.61c15.72-15.67 37.39-25.16 56.9-35.16q31.18-16 63.21-30.25c1.28-.63.13-2.55-1.19-1.96m9.52 42.33a154.4 154.4 0 0 0-57.27 5.63c-19 5.63-37.63 13.22-56.3 20-1.36.5-.77 2.69.6 2.19 18.25-6.62 36.4-13.94 55-19.59a152.9 152.9 0 0 1 58-6c1.42.11 1.41-2.16-.03-2.23m-179.27 33c-28.19 2.24-57.67.5-83.6-11.75-12.8-6.06-24.74-13.83-37.53-20a349.5 349.5 0 0 0-85.53-28.28c-1.43-.28-2 1.9-.6 2.18a350.2 350.2 0 0 1 83.14 27.2c13.05 6.18 25.22 14 38.19 20.28a131.8 131.8 0 0 0 38.91 11.62 211 211 0 0 0 47 1c1.44-.14 1.44-2.41.02-2.25m-5.26 21.29A784.6 784.6 0 0 0 293.4 431.5c-1.38.44-.79 2.63.61 2.19a783 783 0 0 1 120.91-28.27c1.44-.21.83-2.42-.6-2.18Zm134.39 103.46a11 11 0 0 1 10.09 5.46c2.69 4.47 5.75 6.21 12.13 6.91a72.76 72.76 0 0 0 37.68-6.36 99.4 99.4 0 0 0 14.23-8.48c6.31-4.24 12.84-8.63 20.55-11.11 1-.33 2-.66 3.08-1 9.67-3.06 18.81-5.95 23-15 2.47-5.38 2.87-11.23 3.28-17.42.34-5.06.69-10.3 2.24-15.46 1.89-6.37 6.56-5.44 9.07-4.93.46.09 1 .19 1.49.27a30.2 30.2 0 0 0 7.89.2 35.3 35.3 0 0 0 15.34-5.57 36 36 0 0 0 15.69-22.72l.64-3.07 3.12.31c5.06.49 10.24-1.37 15.73-3.34l2.66-1c3.52-1.28 7.9-2.87 12.19-1.57 2.8.84 4.46 2.8 5.8 4.38l.36.42c1.35 1.59 3 3.3 5 3.95 10.21 3.29 16.72-12.1 18.87-17.17a142 142 0 0 0 6.26-18.28c.6-2.25 1-4.56 1.51-7a72.4 72.4 0 0 1 2.53-10.49 12.26 12.26 0 0 1 5.55-7.24c.8-.45 1.52-.8 2.22-1.15a11.65 11.65 0 0 0 4-2.66c2.5-2.91 2.43-7.72 2.35-12.36v-3.23c.06-3.83.18-7.73.29-11.5.28-9.73.57-19.79 0-29.52-.77-12.94-4.6-23.89-11.72-33.46a145 145 0 0 0-24.32-25 180.3 180.3 0 0 0-57.5-32L709.27 197l10.87-3 3.06-.85c3.19-.87 6.21-1.7 9.18-2.77a44.8 44.8 0 0 0 17.36-10.78A42.5 42.5 0 0 0 761 141.92c-3.11-16-14.66-25.5-23.81-30.6-1.81-1-3.84-2-6-3.08-9.05-4.47-20.31-10-23.22-21.09a43.4 43.4 0 0 1-1.08-10.21c-.12-4.61-.24-9-2.6-12.51s-8-7.72-12.86-5.27a10.2 10.2 0 0 0-1.64 1.46c-1.54 1.56-3.87 3.92-7.23 3.45a26.3 26.3 0 0 1-7.36-2.58 29 29 0 0 0-4.2-1.73c-5.89-1.66-12-2.12-18.44-2.62-1.71-.13-3.41-.26-5.1-.41-7.42-.68-16-2-23.43-7a81.3 81.3 0 0 1-10.89-9.31 102 102 0 0 0-7.61-6.83c-13.39-10.39-31.11-16.92-45-21.44-10.45-3.45-19-3.84-26.07-1.2-6.17 2.3-11.26 6.5-16.65 11-1.23 1-2.45 2-3.7 3a69.94 69.94 0 0 1-51.56 14.93l-1.55-.27-1-1.32-2-2.93c-5.45-8-11.09-16.25-18.31-22.32-8.78-7.45-18.15-9.64-29.5-6.92C393.3 10.19 380 11 367.13 8.75a105 105 0 0 1-15-4.19c-8-2.69-15.64-5.23-23.31-4.4-7.14.77-12.54 5-18.25 9.55a88 88 0 0 1-9.2 6.63c-5.06 3-10.66 4.27-16.07 5.47-5.73 1.26-11.13 2.45-15.57 5.63-3.69 2.63-6.25 6.38-9 10.35l-1.67 2.43a34.76 34.76 0 0 1-12.28 11.07A38.8 38.8 0 0 1 216 53.43c-5.1-1.85-9-5.13-12.71-8.3-4.59-3.89-8.56-7.25-14.18-7.67s-11.28 1.68-17.11 4.06a155 155 0 0 0-17.22 8.34c-18.69 10.52-36 24.3-52.73 37.63-4.31 3.43-8.76 7-13.16 10.41-5.1 4-9.62 7.62-13.22 12.08a56 56 0 0 0-8.19 14.86c-.86 2.14-1.62 4.3-2.37 6.38a119 119 0 0 1-4.41 11.13A76 76 0 0 1 50 158.22c-7.82 9.42-14.52 18.27-16.73 30.46-2.43 13.56-2.69 27.83-2.93 41.64v.5c-.28 14.51.05 29.17 1 43.59.09 1.25.18 2.5.28 3.76A111 111 0 0 1 32 295a36.4 36.4 0 0 1-7.16 18.76l-.65.91c-6.37 8.93-11.86 16.63-9.35 27.18 2.79 11.77 12.82 20 21.24 25.84 1.46 1 2.94 2 4.42 3 3.14 2.1 6.38 4.28 9.47 6.67l2.9 2.24-2.37 2.79a62.6 62.6 0 0 0-11.57 20.44c-3.11 9.23-3.23 18.79-3.07 29.43.14 9.57.32 21.48-7.75 29.91-7.2 7.51-17.6 10.09-26.77 12.36l-.57.15a1.09 1.09 0 0 0-.77 1.26 55.47 55.47 0 0 0 34.79 35.76c.08 0 .21.07.47-.11a1.46 1.46 0 0 0 .63-1.07q.48-16.06 1-32.14l.23-6.91 5.43 4.27a145.7 145.7 0 0 0 54.7 26.84.92.92 0 0 0 .8-.08 1.74 1.74 0 0 0 .6-1.24A96.1 96.1 0 0 1 104 477.7l.25-.69c1.08-3 2.3-6.45 4.49-9.22 3.46-4.36 8.35-3.81 11.93-3.4l.77.09c5.85.57 10.26-.56 14.23-3.65a53 53 0 0 0 7.54-7.76c1.16-1.37 2.37-2.79 3.63-4.16 10.47-11.34 27-11.29 40.21-11.26h.64c18.62 0 31.82 6.34 37.17 17.86 2 4.2 2.53 8.72 3.09 13.09.89 6.87 1.65 12.8 7.5 16.23 4.3 2.52 10.25 2.9 16 3.26 1.31.09 2.6.17 3.84.27 8 .73 16.14 1.23 24.18 1.49a426 426 0 0 0 49.12-1.21c1.3-.11 2.61-.21 3.92-.3a118 118 0 0 0 17.46-2.2c5.58-1.3 9.3-4.12 11-8.36a29 29 0 0 0 1.1-3.6 30.6 30.6 0 0 1 1.54-4.86c2.28-5.23 7.77-4.64 10.72-4.33.47.05.92.1 1.35.13 6.06.42 12.13 1.21 18 2 2.28.29 4.56.59 6.84.86 14.74 1.79 30.36 2.61 44.74-3.45l2.47-1 1.65 2.11c16.91 21.66 34.15 41.48 59.06 46.16a50.6 50.6 0 0 0 17.73.31 73 73 0 0 0 9.09-2.38c2.55-.79 5.19-1.6 7.91-2.2a25.8 25.8 0 0 1 5.54-.78M31.59 469.16q-.54 17.44-1.07 34.88A49.4 49.4 0 0 1 7 478.91c7.9-2.13 15.74-4.88 22.15-10.09a29 29 0 0 0 2.69-2.48 6 6 0 0 0 .12 1.21 4.7 4.7 0 0 0-.34 1.57Zm775-188.49a68 68 0 0 1 1.38 9.62l-32.79-7.89c-12-2.89-24.2-6.7-36.53-7.91-12.14-1.18-23.93 2.46-35.76 4.55a291 291 0 0 1-38.27 4.11 298 298 0 0 1-38.5-1q9.21-4.81 18.48-9.51c10.57-5.34 21.15-11 32.33-14.95a132.2 132.2 0 0 1 34.46-7c26.3-2 53 .69 79.28 2.16 7.33 8.06 13.56 17 15.93 27.78Zm-41.76-50.78a168.6 168.6 0 0 1 22.07 19c-22.13-1.31-44.39-3.16-66.53-2.43a160.7 160.7 0 0 0-33.9 4.38c-11.09 2.78-21.46 7.44-31.67 12.48q-64.9 32-126.45 70.24-11 6.81-21.79 13.81l5.24-4c16.39-12.44 32.62-25.12 48.23-38.54 29.53-25.41 57.37-53.6 91.79-72.54 20.29-11.16 42.21-18.84 64-26.47a1.8 1.8 0 0 0 .76-.49 175.5 175.5 0 0 1 48.26 24.52ZM487.94 356.66a184 184 0 0 1-20 13.56q-2.19.88-4.45 1.62L577 263.5l28-26.74c5.4-5.13 10.86-10.22 16.57-15h.09c27.87-4.1 56.28-8.49 81.76-20.93a4.08 4.08 0 0 0 2.13 1.36c1.77.46 3.53 1 5.28 1.45-17.71 6.22-35.42 12.6-52.26 21-17.39 8.61-33.34 19.64-48.44 31.77s-29.6 25.51-44.26 38.43c-15.86 14-32.3 27.27-49.09 40.13q-14.31 10.92-28.84 21.69m261.44-185.31a38.3 38.3 0 0 1-19.45 14c-8.52 2.88-17.34 4.49-25.44 8.57a4 4 0 0 0-2.17 3.27C679 208.73 653 213.3 627.38 217.14c2-1.56 4.08-3.08 6.19-4.53 18.16-12.48 38.89-20.37 59.42-28 21.53-8 43.34-15.92 62.68-28.49a36.84 36.84 0 0 1-6.29 15.23m3.45-36.76a36.6 36.6 0 0 1 3.33 16.64c-36.26 24.57-81.11 31.18-118.28 54-20.8 12.8-37.83 31-55.37 47.74l-57.74 55.12-64.53 61.61-.38-.17C497.44 332 527 286.88 558 244c17-23.64 34.14-47.79 53.48-69.8q49.91-16.93 101-29.95a1.77 1.77 0 0 0 .91-.11l.81-.33q19.3-4.86 38.68-9.18ZM460 381c-2.54 2-7.14 2.61-10.26 3.2-2.92.56-6.49 1.71-9.42.67a2.78 2.78 0 0 1-1.92-2.53 2.86 2.86 0 0 1 .25-1.41 3 3 0 0 1 .29-.65c.15-.27.31-.53.47-.8a2.4 2.4 0 0 1 .46-.59c3.93-5.53 13-9 18.72-5.77v.15c3.01 1.38 4.87 4.9 1.41 7.73m288.22-253.93a37 37 0 0 1 2.79 4.06q-11.78 2.63-23.51 5.47c1.33-.94 2.64-1.93 3.91-3 4.16-3.46 7.71-8.28 12.39-11.12a35 35 0 0 1 4.42 4.59m-24.71-16.76c5.82 3.13 11.9 5.92 17.2 9.74a70 70 0 0 0-8.2 7.47 59.4 59.4 0 0 1-19.42 12.65q-48.78 12.33-96.55 28.33a291 291 0 0 1 39.24-36.24c6.77-5.1 14.31-9.86 21.51-15a1.88 1.88 0 0 0 1.67.5l44-7.26a1.8 1.8 0 0 0 .55-.19M705 94.38c2.77 5.11 7.3 9 12.08 12.14.46.31.94.6 1.41.9l-36 5.93c8.45-6.54 16-13.93 20.64-23.51a22 22 0 0 0 1.87 4.54m-21.43-24.73a9.4 9.4 0 0 0 7.15-2.37c2-1.69 2.84-4.18 5.71-2.83 3.09 1.45 4.41 4.69 4.83 7.87.47 3.6.48 7.14.75 10.61a1.8 1.8 0 0 0-.26.5c-7.14 21-29 31.67-45.8 44-17.15 12.64-32.47 27.51-46.55 43.45a1.86 1.86 0 0 0-1.26 1.43c-1.13 1.29-2.25 2.58-3.36 3.89-15.59 18.25-29.78 37.68-43.78 57.13-15.81 21.92-31.5 43.93-47.47 65.73-15.84 21.63-32.29 42.86-50.85 62.22 4-8.1 6.82-16.74 9.51-25.38 4-12.68 8.2-24.87 14.92-36.4 6.91-11.84 14.07-23.38 20-35.77 5.71-12 10.76-24.21 15.81-36.45 9.75-23.6 19.64-47.33 34.19-68.46a147.8 147.8 0 0 1 24-27.4 118.8 118.8 0 0 1 32-19.62c13.68-5.88 27.17-11.66 39.9-19.46a218.4 218.4 0 0 0 30.56-22.69m-12.84-4.23c2.68.83 5.47 2.22 8.26 3.19-18.62 16-39.56 28.1-62.27 37.59-11.52 4.8-22.53 10.1-32.46 17.8-2.69 2.08-5.27 4.28-7.76 6.56 1.29-3 2.44-6.15 3.64-9.24a65.94 65.94 0 0 1 17.12-25c7.28-6.77 15.32-12.87 21.83-20.47 1.53-1.78 2.9-3.9 4.91-5.17 2.63-1.67 6.19-1.81 9.14-2.65a46.8 46.8 0 0 0 13-6c8.24.76 16.62 1 24.59 3.44Zm-62.27-22.1c5.65 5.32 11.2 11 18.36 14.21a49.5 49.5 0 0 0 13.12 3.69A44 44 0 0 1 629.67 65c-5.11 1.18-8.34 2.37-11.77 6.43-6.73 8-14.78 14.37-22.42 21.41-7.22 6.66-13.24 14-17.14 23-4 9.32-6.48 19.66-13.92 27a1.9 1.9 0 0 0-.52.93 212 212 0 0 0-4.07 5c-32.22 41.6-43.11 94.76-70.17 139.22C482 300.55 475.52 313 471 327c-4.45 13.86-8.18 28.09-16.17 40.45a1.8 1.8 0 0 0-.3 1 23 23 0 0 0-2.33 0c5.71-46.92 11.48-93.93 21.48-140.17a622 622 0 0 1 18.78-68.81c2.46-7.23 5.18-14.39 7.49-21.68a8.4 8.4 0 0 1 1-1.37 1.51 1.51 0 0 0 1.51-.61A459.8 459.8 0 0 1 607 42c.46.5 1 .87 1.46 1.32m-73.81-26.48a23.4 23.4 0 0 1 6.65-1.93c8.62-1.1 17.27 2.2 25.19 5.22a218 218 0 0 1 23 9.83A83 83 0 0 1 604 39.5a462.5 462.5 0 0 0-101.89 90.91c.23-.89.48-1.79.69-2.69 2.73-11.39 2.12-22.41 2.42-34 .37-14.22 7-26.6 12.61-39.22s11.22-25.13 16.82-37.66m-43.19 25.85a76.6 76.6 0 0 0 12-4.56c6.83-3.29 12.72-7.81 18.53-12.62 2.29-1.89 4.64-3.82 7.12-5.51q-6.36 14.25-12.71 28.5c-4.76 10.66-10.63 21.43-13.4 32.81s-.59 22.89-1.83 34.32a107.4 107.4 0 0 1-4.7 20.63 12.2 12.2 0 0 0-1.17 3.09 2 2 0 0 0 0 .61c-1.11 3.31-2.28 6.6-3.44 9.88-16 45.21-25.85 92.14-33 139.49-4 26.52-7.26 53.15-10.5 79.78h-.09c-4-54.86-18.63-109.17-13.61-164.46a1.62 1.62 0 0 0-.29-1.15c2.07-23.63-4.17-47.93 2.24-71.15 3.25-11.74 10.8-20.93 16.79-31.29 5.84-10.09 10.24-20.92 15.75-31.19s12.5-20.37 22.31-27.18M446.3 28.5c3 4 5.89 8.16 8.77 12.29a3.58 3.58 0 0 0 3.16 3.94h.5a4.6 4.6 0 0 0 2.4.32 78 78 0 0 0 22-.54c-14.34 13.28-21.23 32.57-30.3 49.7-5.54 10.47-13.38 19.73-17.77 30.79-.76 1.92-1.41 3.87-2 5.84a119 119 0 0 0-6.3-21.82c-4-10.68-7.37-21-9.41-32.27-.09-.51-.2-1-.3-1.53a1.8 1.8 0 0 0 .41-.78c4-19.58 19.57-36.06 19.8-56.38a77 77 0 0 1 9.04 10.44m-44.69-14.65c6.48-1.21 13.06-4 19.74-3.54a23.53 23.53 0 0 1 12 4.66c1.28 19.4-12.53 35.25-18.17 53.16-2.49-7.86-6.21-15-10.53-22.39q-8.94-15.16-18.06-30.19a104 104 0 0 0 15.02-1.7m-19.36 1.77q9.11 15 18 30.12c6.1 10.32 11.3 20.2 13.45 32.1a176.3 176.3 0 0 0 8.76 30.45c3.81 10.22 7.5 20.56 7.68 31.59a1.75 1.75 0 0 0 .77 1.48 124 124 0 0 0-1 18.29c.18 14.89 2 29.73.59 44.62a1.57 1.57 0 0 0 .29 1.15c-4.72 53.94 9.14 106.94 13.42 160.43-8.6-25.07-25-46.68-34.68-71.37-11.16-28.55-21-57.7-30.22-86.92q-7.89-25-15-50.17a1.82 1.82 0 0 0-.72-1c-1.65-4.84-4.44-9.76-4.57-14.89-.15-5.81 4.9-11 7.38-16a80.8 80.8 0 0 0 7.89-29.41c1.78-21.76-4.54-43.2-14.77-62.24-.15-.28-.31-.55-.46-.82a2.3 2.3 0 0 0 .05-.45 193 193 0 0 0-1.37-20.52 100 100 0 0 0 24.51 3.56m-38.72-7.73C347 9 350.43 10 353.86 11q1 7.61 1.31 15.24A222 222 0 0 0 342.31 7.5ZM283.05 28c5.21-1.27 10.54-2.09 15.55-4.09s9.43-5.25 13.7-8.69c4.05-3.26 8.18-7 13.21-8.66a21.74 21.74 0 0 1 10.95-.47c13.54 17.22 25.46 36.33 31.11 57.72 5.52 21 4.55 44.51-6.43 63.59-1 1.74-2.12 3.39-3.11 5.07-34-28.22-40.69-80.82-80.92-102.6a40 40 0 0 1 5.94-1.87m-24.13 21.2c4-4 6.47-9.07 10-13.39a19.3 19.3 0 0 1 4.14-3.81c41.81 20.91 48 75.25 82.84 103.58a2.3 2.3 0 0 0 .38.25 13.6 13.6 0 0 0-1 5.6c.19 6 3.39 11.4 5.07 17a1.85 1.85 0 0 0 .66 1q12.51 44.17 27.41 87.61 7.41 21.6 15.43 43a284 284 0 0 0 18 38.27c7.72 13.86 15.65 27.69 20.22 43a2.3 2.3 0 0 0 .14.33A19.4 19.4 0 0 0 439 374c-6.33-12.75-18.21-20.91-28.12-30.64-12.1-11.88-22-26-31.69-39.8a764 764 0 0 1-51.28-83.73q-12.5-23.7-23.3-48.23a1.73 1.73 0 0 0-.17-1.5c-6.11-10.38-11.68-21.49-18.79-31.21-6.3-8.6-15.6-14-24.17-20-9.32-6.58-18.49-13.52-26.19-22-7.38-8.1-13-17.54-18.44-27-2.6-4.52-5.18-9.06-7.89-13.5 15.73 8.61 37.34 5.53 49.96-7.19M175.46 46c5.53-2.12 12.32-4.75 18-1.71a32.6 32.6 0 0 1 6.68 5.19c6.12 8.88 11.17 18.48 16.67 27.76C223.75 89 231.69 99.63 242 108.59c5.08 4.41 10.48 8.44 16 12.34 6 4.29 12.5 8.18 18.1 13s9.18 10.95 12.85 17.18l11.44 19.43a2 2 0 0 0 .16 1A768.5 768.5 0 0 0 346 259.37q12.57 20.89 26.47 41c9.27 13.38 18.7 26.91 29.57 39.06 10.55 11.8 25.27 20.81 33 34.91a74.5 74.5 0 0 0-14.33-9c-6.54-2.95-13.36-4.7-19.39-8.76-6.3-4.25-11.93-9.55-17.7-14.49q-8.25-7.08-16.46-14.23c-22.2-19.36-43.87-39.36-63.26-61.44a344 344 0 0 1-30.59-40.29 1.81 1.81 0 0 0-1.58-.87 303.5 303.5 0 0 0-25.45-31.87 126 126 0 0 0-11.69-11.53.7.7 0 0 0 0-.2l-1.47-5a1.78 1.78 0 0 0-.81-1.07c-3-10.43-8.7-19.58-14.94-28.35-6.66-9.36-13.34-18.53-18.84-28.66-12-22.15-22.92-44.94-34.22-67.46A104 104 0 0 1 175.46 46m-33 18a207 207 0 0 1 18.39-11.29c7.77 15.46 15.39 31 23.26 46.45-16.45-10.51-34.27-19.07-51.53-28.13 3.28-2.35 6.57-4.71 9.88-7ZM111 87.64c6-4.71 12.09-9.44 18.22-14 19.62 10.35 40 20 58.39 32.45q3.41 6.59 6.88 13.11c5.37 10 11.81 19.18 18.43 28.4 6.44 9 12.57 18.24 15.64 29a1.78 1.78 0 0 0 .81 1.07 1.5 1.5 0 0 0 .1.35c-5.47-3.92-11.27-7.43-16.9-11.1l-39-25.38-19.55-12.71c-6.06-3.94-12-8.12-18.54-11.32-7.26-3.59-15.09-5.74-22.84-8l-21.93-6.39c6.57-5.47 13.75-10.37 20.29-15.48m-30 24.65a80 80 0 0 1 6.3-6.29c13.66 3.94 27.82 7.23 41.06 12.41s25.26 14.58 37.21 22.35l38.29 24.9c12.11 7.88 25 15.06 35.11 25.49a288.3 288.3 0 0 1 30.81 37.93 1.83 1.83 0 0 0 1.48.84c15.75 24 34.77 45.7 55.24 65.81 21.07 20.69 43.41 40.46 66.28 59.16a66.3 66.3 0 0 0 19.68 11.3c8.53 3.1 15.6 7.62 22.71 13.07-.11.24-.19.49-.29.74-14.13-4.37-28.35-8.55-42.35-13.31-15-5.12-28.15-14.47-41.37-23.07-26.33-17.14-50.7-36.86-74.48-57.44-12.86-11.14-25.59-22.42-38.36-33.66a1.53 1.53 0 0 0-.65-1.29c-10.72-8.41-21.22-17.55-32.86-24.69-1-.61-2-1.2-3-1.78a2 2 0 0 0-.44-.65l-3.48-3.48a1.72 1.72 0 0 0-.57-1c-19.45-17.6-39.17-35.07-60.89-49.86a242 242 0 0 0-33.81-19.48C91.94 145.31 80.07 140 68.11 139c3.48-9.29 6.13-19.22 12.89-26.71m-14.88 31.46c.16-.36.31-.72.46-1.08 12.53.64 25.33 6.66 36.4 12a247 247 0 0 1 32.56 19.11c20.24 13.92 38.72 30.17 56.93 46.62q-2.29-.87-4.65-1.55c-7-2-14.15-1.62-21.24-2.77-7.51-1.23-14.59-4.38-21.51-7.41q-10-4.36-19.69-9.28c-6.28-3.18-12.61-6.41-18.57-10.16-5.68-3.56-10.43-8.31-16-12C80 170 66.89 166.63 56.64 158.5a69 69 0 0 0 9.48-14.75m-20.26 28.57c2.6-3.82 5.53-7.33 8.42-10.82 8.57 6.72 18.93 10.33 28.52 15.42a71.5 71.5 0 0 1 10 6.61l-51.19-3.11a41 41 0 0 1 4.25-8.1m-5.58 11.74 57 3.47a1.4 1.4 0 0 0 .58-.06l.94.74c5.32 4.16 11.26 7.38 17.2 10.55a318 318 0 0 0 38.7 17.93c6.79 2.51 13.49 3.45 20.67 4a55.5 55.5 0 0 1 20.9 5.48C210 232.9 221.82 243.5 233.76 253a1.64 1.64 0 0 0 .59 1.14c23.85 21 47.44 42.31 72.32 62.07 12.22 9.69 24.76 19 37.76 27.57 6.65 4.41 13.39 8.68 20.14 12.95S377.74 365 385 368c8.38 3.4 17.18 5.82 25.81 8.51l14.73 4.6c-34.17-2.08-66.91-11.28-98-25.83q-25.23-11.73-49.34-25.73-12-6.94-23.75-14.4c-7.72-4.91-15.27-10.21-23.52-14.22-15.35-7.38-34.48-8.28-47.27-20.38a1.78 1.78 0 0 0-1.27-.52 41.6 41.6 0 0 0-10.94-5.48l-34.15-16.23c-12.42-5.88-25-11.42-35.79-20.15-9.91-8-19.47-15.54-31-21.17-10.76-5.25-22.07-9.26-33.38-13.16.46-6.78 1.19-13.45 3.15-19.78m-3.5 24.44v-.73c11.38 3.92 22.75 8 33.51 13.4a118 118 0 0 1 15.76 9.45c5.41 3.89 10.28 8.44 15.55 12.5.81.62 1.62 1.21 2.45 1.8a652 652 0 0 1-68.34-8.67q.2-13.93 1.07-27.75m72.28 40.56a1.73 1.73 0 0 0 1-.22c8.08 4.88 16.78 8.74 25.3 12.78l22.28 10.54c-16.8-.67-34.67 5.25-51 6.52a106.4 106.4 0 0 1-40.78-4.88 1.65 1.65 0 0 0-1.94-1.3 1.7 1.7 0 0 0-.67.3l-.12.1a109.2 109.2 0 0 1-27.07-14q-.15-4-.23-8-.11-5.4-.09-10.82a662 662 0 0 0 73.32 8.92Zm-72.34 23.4c-.19-2.94-.34-5.88-.47-8.82a111 111 0 0 0 23.26 12 167 167 0 0 0-22.13 20.68c.15-1.38.24-2.78.29-4.18.21-6.64-.55-13.17-1-19.72Zm-2.84 37a37 37 0 0 0 2.17-5.95 160 160 0 0 1 27.71-26.44 110.5 110.5 0 0 0 37.88 5.58c21.9-.66 47.12-11.76 68.6-4.61l4.47 2.12a2 2 0 0 0 1 .18 41 41 0 0 1 5.48 3.36 1.74 1.74 0 0 0 .78.33c11.2 9.89 26.32 12.12 40 17.12 8.86 3.25 16.79 8.31 24.67 13.41s16 10.15 24.11 15c32.24 19 66.55 37.21 102.88 47a257.4 257.4 0 0 0 53.7 8.41c-65 10.37-127.52-22.2-188.59-40a316 316 0 0 0-52.91-10.88 2 2 0 0 0-.69-.21c-21.21-2.51-39-15.78-59.58-20.65-10.91-2.59-21.9-2-32.82.21-2 .4-4.08.84-6.11 1.29a239 239 0 0 0-54.63-1.6 36 36 0 0 0 1.88-3.63ZM24.81 323c1.41-2 2.92-3.95 4.37-5.93a236.5 236.5 0 0 1 47.14.09c-6.52 1.69-13 3.54-19.43 5.46Q38 328.28 19.67 335.36c.27-4.52 2.48-8.53 5.14-12.31ZM27 352.91c-3.35-3.81-6.17-8.55-7.07-13.62A504 504 0 0 1 87 318.53a2 2 0 0 0 1.48-.35c11.74-2.65 23.6-4.19 35.5-1.47 10.24 2.34 19.79 6.83 29.37 11 9 3.93 18 7.55 27.66 9.28a2 2 0 0 0 1.07.44c69.49 6.81 131.09 45.15 200.5 52.12a174.6 174.6 0 0 0 52.22-2.21c-47.1 17.61-98.09-1-144-14.35-50.57-14.76-103.18-20.68-155.67-14.7-26.23 3-52.1 9.1-76.26 19.82a5.1 5.1 0 0 0-3-3c-9.29-7.61-20.79-13-28.85-22.17Zm14.25 89c.68-10.46-1-21 1.29-31.37a56.8 56.8 0 0 1 15-27.7c46.78-21.73 101.06-26.09 151.91-21.79a406 406 0 0 1 79 15.15c24.9 7.22 49.61 15.69 75.32 19.65a173.6 173.6 0 0 0 39.77 1.82c-48.32 8-97.79-.77-146.25-3.75-13.44-.83-26.9-1.49-40.35-2.21-13.23-.71-26.52-1.77-39.78-1.55-12.32.21-24.46 1.94-36 6.24s-22.16 10.32-32.82 16.18c-23.34 12.8-46.69 25.74-69 40.42a48.6 48.6 0 0 0 1.9-11Zm-5.51 20.43a1.3 1.3 0 0 0-.3-.23 1.2 1.2 0 0 0-.26-.12 32 32 0 0 0 1.68-2.88C57.44 445.32 79 433 100.72 421.05c11.11-6.13 22.15-12.57 33.73-17.79a102.7 102.7 0 0 1 37.75-9.11c12.93-.63 25.89.38 38.8 1.07 13.25.71 26.51 1.38 39.76 2.14 26.29 1.51 52.47 4.44 78.74 6.19 13.91.93 27.89 1.41 41.81 1-28.33 4.56-57 10.49-85.69 11.53a184 184 0 0 1-43.6-4c-12.94-2.62-26.14-5.31-39.37-3.36-13.43 2-25.83 8.36-38.27 13.44q-19.23 7.84-38.85 14.69a806 806 0 0 1-89.8 25.57Zm200.38 14.52a1.6 1.6 0 0 0-.75.11c-2.67-4.61-2.31-11-3.17-16.08a30.5 30.5 0 0 0-8-16c-9.75-10.33-24.33-13-37.95-12.88s-29.71.33-40.46 9.95c-4.74 4.24-8.08 9.86-13 14a12.34 12.34 0 0 1-8.53 3.16c-3.87-.08-7.67-1.06-11.53-.2-8.18 1.82-11.41 9.87-14 16.93a98.4 98.4 0 0 0-5 20 140.5 140.5 0 0 1-54.38-30c-.15-.13-.3-.23-.45-.34a810 810 0 0 0 78.17-21.84q20-6.72 39.69-14.47c12.63-5 25-11.24 38.1-15 14.24-4.07 28.36-2.15 42.63.7 13.83 2.77 27.42 5 41.57 5 28.44-.09 56.79-6 84.78-10.44 14.57-2.34 29.76-4.13 44.51-7.33a307 307 0 0 1-52 15.49c-14.1 2.9-28.19 6.34-39.44 15.85-11.55 9.77-19.72 22.55-32.67 30.81a81.42 81.42 0 0 1-48.12 12.61Zm207.7-17.78c-13.69 6.32-29.2 5-43.75 3.26-7.77-.95-15.52-2.11-23.32-2.72-6.53-.51-13.48-.85-17.28 5.53-2.65 4.44-2 11.41-6.91 14.15-5.84 3.25-14.33 2.9-20.79 3.48a431 431 0 0 1-50.3 1.58q-12.94-.37-25.84-1.51c-4.29-.38-11-.07-15.8-2.08a85.14 85.14 0 0 0 38.33-8.75 82.9 82.9 0 0 0 17.58-11.57c5.79-5 10.66-10.91 15.85-16.49 5.43-5.84 11.27-11.05 18.48-14.58 7-3.44 14.68-5.36 22.28-7 15.89-3.45 31.55-7 46.88-12.46a280 280 0 0 0 35.29-15.53c3.3-1.35 6.55-2.83 9.72-4.5-2.56 13.43-6 27.18-6.47 40.82a39.65 39.65 0 0 0 3 17.84c1.77 3.88 4.53 7.14 7 10.59a4.56 4.56 0 0 0-3.95 0Zm76.17 48c-28.78 1-49-22.84-65.31-43.65a.4.4 0 0 0 0-.15c-2.48-5.78-7.27-10-10-15.63s-3.33-12.07-3-18.3c.75-13.83 4.33-27.73 6.78-41.33a1.8 1.8 0 0 0 0-.56l.1-.05 30.35 22.18c9.59 7 19.38 13.87 28.18 21.88 8.08 7.36 15 15.7 19.88 25.52 4.3 8.66 7.36 17.86 11.49 26.59a60.4 60.4 0 0 0 11.89 17.61c-10.44-.66-20 5.57-30.36 5.94Zm111.52-15c-5.52 3-10.54 6.83-15.81 10.25a69 69 0 0 1-36.7 11.58 57 57 0 0 1-9.76-.54c-3.26-.52-4.32-1.66-6-4.39a16.7 16.7 0 0 0-3.35-4 1.77 1.77 0 0 0-.88-1.58c-16.83-10.55-20.73-32.15-29.09-48.75-9.87-19.59-27.71-32.59-45-45.22l-31.75-23.21a29.6 29.6 0 0 0 7.74-2.84c29.72 4.66 58.28-7.91 87.71-10.07v.1l16.9 38c5 11.24 9.13 23.91 18.52 32.36 8.61 7.74 19.52 12.62 29.16 18.92a247 247 0 0 1 31.06 24.12l.18.13a71.6 71.6 0 0 0-13 5.25Zm37-44c-.82 5.57-.92 11.2-1.58 16.79-.57 4.89-1.75 10.07-5.16 13.81-3.69 4.06-9.2 5.7-14.29 7.25a1.61 1.61 0 0 0-.46-1.89 252 252 0 0 0-29-22.84c-9.87-6.65-21.23-11.66-30.29-19.4-9.7-8.28-13.8-21.07-18.84-32.4l-16.2-36.37c1.79-.07 3.58-.1 5.39-.08 15.83.2 30 5.48 42.88 14.54 11.78 8.31 22 18.61 32.86 28 11.22 9.65 23.4 18.45 37.76 22.57-1.9 3-2.62 6.77-3.11 10.09Zm51-41.54c-.36 10-6.6 18.8-15.09 23.75a28.4 28.4 0 0 1-13.61 4c-5.31.11-10.94-2.71-15.87.36l-.4.28a1 1 0 0 0-.17-.06c-28.19-7.25-46.53-32.22-69-48.87-11.64-8.49-24.49-14.55-38.9-16.24-16.52-1.89-33.12 1.56-49.22 4.91-15.26 3.18-30.89 6.61-46.49 5.92 17.9-3.1 34.4-12.06 51.11-18.9 20.45-8.37 41.6-15.45 63.44-19.13a182 182 0 0 1 24.3-2.45 1.65 1.65 0 0 0 .92 1.57c11.09 6.17 22.58 11.64 33.38 18.32 8.9 5.5 17.28 11.79 25.71 18 15.39 11.3 31.41 22.52 50 27.44a4.6 4.6 0 0 0-.15 1.17Zm54.55-.51c-2.48.94-3.8-.8-5.32-2.59a19.5 19.5 0 0 0-5.65-4.93c-3.94-2.06-8.4-2-12.65-1.08s-8.24 2.72-12.33 4.11c-3.59 1.21-8.09 2.78-11.78 1.08a5.16 5.16 0 0 0-3.44-.36c-19.64-4.62-36.24-16.53-52.29-28.33-8.48-6.23-16.94-12.53-25.94-18-9.49-5.77-19.47-10.66-29.22-16a151 151 0 0 1 35.92 4.34c21.27 5.27 41.23 14.6 60.69 24.48q32.85 16.68 64.3 35.9a7.9 7.9 0 0 1-2.37 1.45Zm15.23-29.42a132.5 132.5 0 0 1-6.11 17.08 46.4 46.4 0 0 1-4.18 8.21q-28.66-17.5-58.52-33c-19.39-10-39.17-19.78-60.15-26a161.9 161.9 0 0 0-64.48-5.6c-21.91 2.47-43.23 8.6-63.81 16.38-11.4 4.31-22.49 9.28-33.68 14.08-8.67 3.72-17.56 7.11-26.81 8.87 39.83-15.9 76.56-38.6 116.44-54.41A348 348 0 0 1 646.86 305a1.91 1.91 0 0 0 1.68 1.29 263.25 263.25 0 0 1 143.58 58c-1 4.17-1.75 8.31-2.92 12.4Zm17.18-32.33c-1.67 1.77-4.79 2.31-6.76 3.87-3.67 2.9-5.56 7.31-6.65 11.74l-.09.35a266.8 266.8 0 0 0-52.56-32.85A240.5 240.5 0 0 1 807 343.65a3.3 3.3 0 0 1-.54.68Zm1.43-26.75q-.15 9.84-.31 19.68v2.61a243.5 243.5 0 0 0-76-16.89 1.8 1.8 0 0 0-.82.13 267.5 267.5 0 0 0-74.91-19.77l1.66-.3c12.59-2.25 25.25-4 37.93-5.55 12.38-1.49 24.83-2.86 37.31-2.53 26.22.68 51.75 8.4 75.21 19.81Zm.18-6.93C788.17 301.16 767 294.34 745 292c-24.47-2.61-49.4 1.29-73.57 4.94-24.8 3.75-49.45 9-73.13 17.39-21.93 7.77-42.87 18-63.63 28.44-19.34 9.72-38.64 19.63-58.62 28a145 145 0 0 0 13.22-7.59c10.07-6.42 20-13.08 30.09-19.47q30.28-19.17 61.47-36.86 19.83-11.27 40-21.91a1.9 1.9 0 0 0 1.24.61 298 298 0 0 0 72.56-1.4c12.43-1.78 24.91-5.85 37.48-6.14s25.5 4 37.75 7l38.36 9.23c.24 5.42.02 10.95-.15 16.41Z"/></svg>