<svg xmlns="http://www.w3.org/2000/svg" viewBox="0 0 859.33 559.41"><path fill="currentColor" d="M849.59 388.69a457 457 0 0 0-14.9-55.69c-4.8-14.15-11.33-30.13-23.31-41.27-20.81-19.36-50.47-19-79.15-18.72l-5 .05c-17.12.16-33.83-.08-50-4.74-15.45-4.5-30.65-13.06-46.48-26.18-14.24-11.76-27.36-25.45-38.93-37.52a167.6 167.6 0 0 1-18.34-21.82l-.14-.22a159 159 0 0 1-13.1-25c-7-16.13-13.83-30.49-25.55-42-12.26-12-27.57-20.61-40.93-27.47-33.06-17-67.23-34.5-103.62-41-19.08-3.38-39-3.27-58.21-3.16-18.54.1-37.72.21-56.64-2.73-16.89-2.52-33.09-8.32-52.51-18.76-1.79-1-3.57-1.94-5.36-2.91-12.89-7-26.22-14.26-40.3-17.61C146-5.45 116.85 9.47 90 26.7l-.57.33-4 2C73.5 34.93 61.2 41 51.19 49l-.16.13A36.6 36.6 0 0 0 39.78 63a30.7 30.7 0 0 0-2 8.07v.2c-1 7.17-6.44 8.85-9.38 9.75l-1.6.52C16.46 85.32 9.34 94.63 5.64 109.23 1 127.72.16 147.89 0 165.19v.15l.49 1.15v1.24c0 .71.07 1.42.16 2.13v.34c0 .17 0 .22.09.24l2.16 1.28.67 2.28c37.35 11.85 67.59 37.93 89.77 59.32 26 25.06 48.72 48.64 69.35 72.1a452.7 452.7 0 0 1 60.39 88.29l.68 1.29c16.08 30.37 32.7 61.77 41.5 96.08 3.6 14 7.92 28.65 17.62 40.58a62.8 62.8 0 0 0 9 9l2.47 2 18.71 8.13a1.66 1.66 0 0 0 1.63.82 1.3 1.3 0 0 0 .88.28l11.92 5.11 4.13.53a203 203 0 0 0 22.84 1.5 1.4 1.4 0 0 0 1.34.3l.84-.28c27.55.06 54.26-4.8 75.78-9.5 10.37-2.25 20.9-4.77 31.08-7.2 24.9-6 50.65-12.1 76.73-15.15 11.44-1.34 23.24-2.23 35.61-2.7a1.36 1.36 0 0 0 1.16 1c9.15 1.42 18 .38 26.87-1.39 15.3.19 31.54.93 49.11 2.24 25.32 1.91 50.92 4.77 75.68 7.54 12 1.34 24.42 2.73 36.62 4 21.72 2.24 39.32 3.7 55.38 4.61 2.32.14 4.68.31 7.06.48 6.74.49 13.72 1 20.16.54 3-.21 6.44-1.8 6.47-3.62v-3l2.32-1.89.06-.16c1-9.72 1.73-19.35 2.14-28.61a483.2 483.2 0 0 0-9.28-117.55M837 362.51a476 476 0 0 1 11.6 56.94c.18 1.22.33 2.45.5 3.73-22.36-7.69-46.21-1.22-68 6.35-12.9 4.49-25.77 9.34-39.27 11.49-11.36 1.84-23.33 1.27-33.57 7-2.9-.71-5.8-1.45-8.69-2.19a17.7 17.7 0 0 0-3.39-2.06c2.47-.79 4.91-1.73 7.37-2.68q9.21-3.57 18.26-7.48 19.53-8.46 38.25-18.63c1.76-.94.19-3.63-1.58-2.67q-17 9.21-34.69 17.06-9.48 4.23-19.21 8c-5.75 2.24-11.55 4.8-17.78 5q-5.4-1.5-10.8-3.09l-.58-.39a187 187 0 0 0 35-10.2c14.15-5.83 26.66-14.29 39.12-23.06l83.22-58.52c1.46 5.2 2.83 10.34 4.24 15.4m-158 83c1.54 1.3 3 2.64 4.48 4.07 6.65 6.64 15.58 17.43 16.52 27.5-18-4.53-34.44-13.14-49.27-24.25a255 255 0 0 1-30.91-27.67q29 11.65 59.12 20.37Zm24.16 32.32c-.5-10.8-9.36-22-16.42-29.35-.36-.36-.74-.7-1.1-1.06q7.8 2.18 15.65 4.14a56.8 56.8 0 0 1 6.22 9 76.7 76.7 0 0 1 8 19.46q-6-.75-12-2Zm15.65 2.2a79.2 79.2 0 0 0-10.52-24.12q-1-1.57-2.16-3.12l.39.1a2.23 2.23 0 0 0 2.63.63 645.6 645.6 0 0 0 89.18 14.82l-4.11 1.46a199 199 0 0 1-29.28 8.13 158.8 158.8 0 0 1-46.1 2.42 1.4 1.4 0 0 0-.09-.33Zm100-168.15a155 155 0 0 1 12.41 30.24v.06a2.5 2.5 0 0 0-.88.39l-81.78 57.5c-13.15 9.25-26.29 18.42-41.29 24.44A204 204 0 0 1 669.13 435a75.5 75.5 0 0 0-12.76-5.7c-1.9-.66-2.7 2.34-.8 2.93a73 73 0 0 1 8.06 3.34q-7.89-2.54-15.73-5.29c25.9-5 48.69-18.77 70.85-32.47 1.7-1.11.14-3.8-1.56-2.74-22.35 13.8-45.25 27.7-71.48 32.44a1.27 1.27 0 0 0-1.1 1.43v.18c-2-.71-4-1.4-6-2.13 25.12-8.38 47.13-25.37 69.16-39.59l72.8-47c1.68-1.14.13-3.82-1.56-2.74l-71 45.86c-11.5 7.42-23.15 15-34.52 22.25s-23 14-35.88 18.25a1.59 1.59 0 0 0-1 2l.09.22q-6.69-2.47-13.34-5.12a541.9 541.9 0 0 0 115.95-70.65c1.56-1.25-.65-3.43-2.2-2.2A538 538 0 0 1 619.4 419.5c-2.64-1.07-5.3-2.12-7.93-3.23l-1.77-2a2.82 2.82 0 0 0 2-.14c27.44-13.17 52.91-29.72 77.88-47a2.34 2.34 0 0 0 1.16-.67 75.6 75.6 0 0 1 13.58-10.81c4-2.44 8.23-4.24 11.8-7.34a3 3 0 0 0 .28-.32l.16.21 82.12-58a60.7 60.7 0 0 1 20.14 21.68Zm-89.06-32.57 9.17-.09c15.1-.13 30.43-.11 45 4.21a57.4 57.4 0 0 1 9.8 3.87L713.39 344a2.8 2.8 0 0 0-1 .58c-4 3.5-9.26 5.49-13.63 8.4a82.6 82.6 0 0 0-11 9c-25.26 17.53-51 34.3-78.82 47.65a2.15 2.15 0 0 0-1.24 2.37c-1.63-1.87-3.24-3.76-4.85-5.65 28.82-16.85 52.16-41 75-65 1.39-1.46-.82-3.65-2.19-2.2-22.83 23.86-46.07 48-74.89 64.76q-3.27-3.9-6.5-7.87c25-15.66 44.26-38.32 65.05-58.92A241.4 241.4 0 0 1 696 306.78c12.25-8 24.63-15.82 33.74-27.47ZM683 276.17c2.85.62 5.73 1.14 8.65 1.54a226.6 226.6 0 0 0 31.35 1.64c-9.41 10.68-22 17.84-33.72 25.78a241.7 241.7 0 0 0-33.65 28.43C635 354 615.87 376.63 591 392q-4.26-5.31-8.42-10.65a131.1 131.1 0 0 0 33.5-24.25 1.55 1.55 0 0 0 0-2.19 1.57 1.57 0 0 0-2.2 0 128.1 128.1 0 0 1-33.25 23.95l-5.83-7.51c22.37-18.11 45.46-35.7 65.91-56a1.57 1.57 0 0 0 0-2.2 1.55 1.55 0 0 0-2.19 0c-20.37 20.17-43.29 37.7-65.6 55.71-1.5-1.93-3-3.88-4.47-5.81l47.75-38.39c1.55-1.25-.66-3.43-2.21-2.19l-47.43 38.13q-6.21-8.1-12.37-16.24A69.6 69.6 0 0 0 568.8 334c7.2-6.32 14.37-12.65 21.86-18.64A436 436 0 0 1 641 280.88a2.44 2.44 0 0 0 1.17-1.51q20.35-2.08 40.83-3.2m-111.16 26.38q-15.36 12.45-31.58 23.83c-6.37-8.27-12.8-16.5-19.39-24.6a809.4 809.4 0 0 1 110.53-21.11l-.08.06a442 442 0 0 0-40 27.61q-11.6 9-22.59 18.84c-5.56 4.95-11.07 10-17.84 13.13q-4.35-5.74-8.77-11.48 16.35-11.49 31.88-24.08c1.59-1.26-.62-3.45-2.16-2.2m35.63-73c11.88 11.59 24.5 22.69 38.65 31.46a121.6 121.6 0 0 0 22.25 10.88v.11a812 812 0 0 0-138.67 22.21c21.92-10.73 40.63-30.19 66.3-28.88 2 .1 2-3 0-3.11-31-1.58-51.43 26.57-79.62 33.87q-5.43-6.57-11-13l-.05-.06a13.3 13.3 0 0 0 2.46-1.88c33.58-15.66 58.23-52.26 96.73-54.54Zm-36-38.72a289 289 0 0 0 28.14 31c-33 4.3-55.43 32.3-83.27 49 4.84-5.7 9.44-11.61 13.74-17.74a239 239 0 0 0 14.72-23.86c4.08-7.49 8.55-15.41 9.92-24 .33-2-2.66-2.8-3-.83-1.34 8-5.39 15.33-9.19 22.42q-5.13 9.56-11.09 18.62a235 235 0 0 1-14.17 19.33c-.83 1-4.63 6-8.27 10-2.58 1.29-5.2 2.48-7.89 3.51l-1.27-1.28c24.3-35.67 49-73.74 54.88-117 4.75 10.74 9.6 21.35 16.74 30.84Zm-57.27-83.74a94.9 94.9 0 0 1 33.14 36.85c1 2.19 2.14 4.43 3.13 6.64-3.28 45.67-29 85.36-54.19 122.46q-6.75-7.37-13.9-14.39a1.58 1.58 0 0 0 .62-.86c1.56-6.11 4.88-11.6 7.74-17.09s5.48-10.7 8.23-16c.86-1.79-1.83-3.37-2.75-1.58l-9.22 17.8c-2.6 5-5.45 10-7 15.49-1.75-1.69-3.51-3.38-5.29-5 9-20.7 19.3-40.83 29.35-61.06.82-1.8-1.85-3.36-2.74-1.58-9.93 20-20.08 39.93-29 60.39-2-1.87-4.09-3.74-6.17-5.58s-4.39-3.73-6.62-5.56l18-25.47c1.1-1.63-1.59-3.18-2.75-1.56l-17.66 25c-3.8-3.07-7.66-6-11.59-8.93a152 152 0 0 1 8.81-15c1.06-1.67-1.65-3.22-2.74-1.56a148 148 0 0 0-8.6 14.68q-4.44-3.23-9-6.3c3-10.41 9-19.37 15.29-28.13 6.68-9.27 13.22-18.61 19.38-28.25 12.8-20 24.41-40.66 36-61.35 3.18 1.85 6.38 3.85 9.53 5.94M361.49 354c2.73-8.81 7.45-16.78 12.22-24.6 9-14.79 18.76-30.35 17.39-48.42-.15-2-3.27-2-3.12 0 1.57 20.69-11.84 37.4-21.44 54.4-4.27 7.46-8 15.35-9.61 23.83a73.2 73.2 0 0 0-.66 20.79c-.62 1.57-1.22 3.15-1.78 4.74q-2.75-46.29-1.3-92.67c.3-9.28.25-18.81 1.89-28a57.2 57.2 0 0 1 9.61-22.45c8.91-12.94 19.45-25 29.45-37.14a70 70 0 0 0 6.2 5.89c13.92 11.65 30.19 20.12 44.47 31.34q4.77 3.78 9.36 7.7c-14.85 15.27-21.86 35.67-32.46 53.86a92.7 92.7 0 0 1-19.53 23.76c-8.23 7.16-17.33 13.31-25.24 20.84a83.7 83.7 0 0 0-17.94 25.8 61.3 61.3 0 0 1 2.49-19.67m94.12-277.6q6.75 3.18 13.43 6.44c10.47 5.06 20.94 10.07 31 15.72-11.9 21.24-23.81 42.53-37 63-.24.38-.5.76-.75 1.14a124.4 124.4 0 0 0 8-41.35 1.55 1.55 0 0 0-3.1 0 120.7 120.7 0 0 1-11.93 49.86c7.3-30.45.74-63.42.35-94.79Zm-38.69-15.82A339 339 0 0 1 450.46 74c.06 39.49 11.57 82.4-9.08 118.64a2.6 2.6 0 0 0-.27.67 87.7 87.7 0 0 0-11.67 22.51c-2.37-1.59-4.75-3.16-7.13-4.73-3.74-2.45-7.46-5-11-7.73-1.28-8.52.77-17.08 2.6-25.39q2.41-10.85 5.66-21.47c3.43-11.06 9.16-23.3 3.43-34.5-1-1.78-3.65-.2-2.75 1.58 3.57 7 1.78 14.61-.41 21.75-2 6.56-4.21 13.05-6 19.67-3 11.27-6.79 23.74-5.95 35.64a66.7 66.7 0 0 1-7.73-7.76c-4.14-5-7.19-10.68-10.93-15.91a92.2 92.2 0 0 1 3.86-26.09 1.56 1.56 0 1 0-3-.82 94.4 94.4 0 0 0-3.89 23c-.77-.88-1.57-1.74-2.42-2.57-8.16-7.94-18.59-12.66-29.3-16.21 4.74-35 26.9-66.26 26.94-102a201 201 0 0 1 35.5 8.3m-55.28-10.13c4.93.18 9.8.57 14.63 1.13.2 35.34-21.52 66.52-26.72 101.11l-4-1.18c-6.13-1.74-12.44-3.28-18.62-5.17a84.3 84.3 0 0 0 1.36-20.91c-.12-2-3.24-2-3.11 0a80.8 80.8 0 0 1-1.2 20 75.6 75.6 0 0 1-18.22-8.43c-.53-.36-1-.72-1.53-1.09a271.6 271.6 0 0 0 12.87-85.78c14.82-.03 29.7-.35 44.54.32m-56.51-.56c2.25 0 4.5.1 6.75.11a267.1 267.1 0 0 1-12 82.09c-.34-.38-.65-.76-1-1.14a136.6 136.6 0 0 0-4.35-48 1.57 1.57 0 0 0-2.06-.83 1.59 1.59 0 0 0-.94 1.65 134.2 134.2 0 0 1 4.54 43.65 66 66 0 0 1-4.12-6.21c4.27-24.23-2.85-48.43-6.52-72.42 6.57.59 13.15.92 19.7 1.1M268.41 294.3c-.82-11.2 1-22.54 2.28-33.69 1.84-15.62 2.09-31.33 2.09-47a1.56 1.56 0 0 0-1.73-1.38 1.57 1.57 0 0 0-1.39 1.38c-.07 16.36-.33 32.69-2.32 49-1.76 14.44-3.91 29.14-.19 43.43-.22 2.59-.4 5.19-.53 7.78a624 624 0 0 1-10.53-137.5c.07-2-3.1-2-3.1 0A628 628 0 0 0 261.7 304c-1.95-6.69-3.82-13.4-5.55-20.17A777.4 777.4 0 0 1 232.33 109q10.56 1.72 21.06 3.83c8 1.63 17.84 2.9 23.85 9.11 5.61 5.85 8.32 13.82 14.26 19.55a57.1 57.1 0 0 0 12.2 8.86c-8.13 30.41-16.46 60.77-24.34 91.24-4.52 17.33-8.6 34.92-10.95 52.71m-17-252.12a154.7 154.7 0 0 0 28.8 6c3.14 22.12 10 44.61 7.45 67a37 37 0 0 0-16.23-10.78 112.6 112.6 0 0 0-16.07-4.09 175.6 175.6 0 0 1-15.56-47.88c-.39-2-3.34-1.13-3 .82a178.8 178.8 0 0 0 14.68 46.35c-1.8-.32-3.61-.62-5.41-.93q-6.3-14.6-11.68-29.53c-.67-1.87-3.68-1.06-3.06.78Q236.46 84.16 242.4 98l-1.6-.28c-2.18-.38-4.38-.74-6.57-1.1-2.75-7-7.21-13-11.54-19.2a60.85 60.85 0 0 1-10.46-23c-2.37-11.43-2.62-23.55-6.94-34.22 15.09 7.94 29.77 16.8 46.08 22Zm-93.89-36c14.27-.43 27.5 4.17 40.13 10.16 8 12.35 6.86 28.56 10.29 42.41a61.4 61.4 0 0 0 9.41 20c3.81 5.57 8 11 10.86 17q-10-1.52-20-2.74c-1.36-.16-2.72-.31-4.09-.45a1.35 1.35 0 0 0-.35-.63 1.51 1.51 0 0 0-1.79-.25 69.25 69.25 0 0 1-31.56-40.54 1.6 1.6 0 1 0-3.09.83v.1a72.27 72.27 0 0 0 29 39.78 153.5 153.5 0 0 1-19.09-2.52c-1-.21-2-.47-2.9-.75a126 126 0 0 1-9.59-22c-2.45-7.49-4.81-14.8-10-20.91-1.29-1.52-3.49.69-2.2 2.2 6 7 7.81 16 10.81 24.38A124 124 0 0 0 169.87 87c-6.66-2.89-12-7.33-18.17-11.94a53 53 0 0 0-7.7-4.86 173 173 0 0 0-11-27 62.5 62.5 0 0 0-8.31-12.2c-3.38-3.93-6.86-7.6-8.51-12.51 12.88-6.69 26.74-11.88 41.3-12.37Zm-1.43 124.46a196.5 196.5 0 0 1 27.82 82.61 1.58 1.58 0 0 0 .43.91c.72 12.87 1.61 25.74 3.24 38.51-.26-.51-.54-1-.8-1.51a1.5 1.5 0 0 0 .11-1c-5.16-25.6-11.54-51.86-26.78-73.53-8.07-11.5-18-21.65-27.28-32.08l-30.18-33.67c-1.33-1.49-3.57.7-2.19 2.2L129.89 146c9.37 10.47 19.37 20.73 27.46 32.19 8.55 12.18 14.27 25.79 18.55 39.91-6.53-11.69-15.28-22.21-23.73-32.49a589 589 0 0 0-42.66-46.44c-1.44-1.41-3.56.82-2.19 2.2a587 587 0 0 1 40.17 43.45c12.5 15 26.07 30.7 32.34 49.55a1.48 1.48 0 0 0 .63.84c.58 2.5 1.13 5 1.67 7.52-31.8-54.62-88.22-90.73-129.5-138.15a221.4 221.4 0 0 1 34.6-19.69c15.53-7 34.89-12.09 50.92-3.75 8.46 4.42 14.79 12 23.44 16.07a64 64 0 0 0 17.23 5 2.38 2.38 0 0 0-.49 1.63l4.58 83.69c0 .45.05.9.07 1.34A200.2 200.2 0 0 0 158.74 129c-1-1.7-3.74-.13-2.69 1.58Zm-80.55-89 5.61-3a5.54 5.54 0 0 0 3.68-1q3.47-2.3 7-4.58l9.36-4.86a5.73 5.73 0 0 0 2.59-2.56c1.37-.78 2.61-1.58 3.93-2.33s2.6-1.55 3.93-2.28c3.15 8.4 10.88 14.19 15.34 22a134.4 134.4 0 0 1 10.73 24.6 56.1 56.1 0 0 0-23.2-2.88 44 44 0 0 0-13.88-14.54c-1.74-1.33-3.29 1.36-1.63 2.46A40.6 40.6 0 0 1 111 65a79 79 0 0 0-8.88 1.62h-1.6V67a132.2 132.2 0 0 0-26.91 10.6 147.7 147.7 0 0 1-9.08-30.1c3.6-2.1 7.32-4 11-6ZM42.56 78c1.51-3.23 1.11-6.71 2-10.09C46.2 61.76 51 57 56 53.11c.79-.61 1.62-1.2 2.44-1.77a2.26 2.26 0 0 0 1.48-.63A154 154 0 0 0 69 80c-5.49 3-10.8 6.21-15.78 9.4l-11.3-10.2c.23-.39.43-.77.64-1.2m-30.9 33c1.57-6.16 3.76-12.54 8-17.46 4.5-5.25 10.56-5.76 16.33-8.87A18 18 0 0 0 38.46 83l10.25 9.32-.36.23c-13.87 9.15-29.07 20.58-39.79 34.55a151 151 0 0 1 3.1-16.1M216 368c-17.61-30.18-39.41-57.21-63.12-82.74C130.79 261.49 108.21 237.63 84 216c-22.76-20.26-48-37.93-77.14-47.55A44.34 44.34 0 0 1 10 148.88c6.13-14.86 18.86-26.62 31.39-36.15q3.44-2.62 7-5.16c47 54.23 115.22 93.62 141.64 163.32a2.6 2.6 0 0 0 .73 1.07q2.88 13.21 6.82 26.16a332.2 332.2 0 0 0-89.58-91.7c-1.7-1.14-3.21 1.56-1.63 2.69a328.25 328.25 0 0 1 95.19 101.32q1.77 5.1 3.7 10.14c3.2 8.53 6.6 17 10 25.48-6.06-9.66-12.26-19.25-18.69-28.67-38.17-55.9-85.06-107.6-146-138.89-1.77-.91-3.31 1.77-1.55 2.68a306.7 306.7 0 0 1 47.25 30.09C149 251.9 188 306.78 222.2 363.26c6.36 15.89 12.43 31.87 17.06 48.28-7.35-14.68-14.91-29.3-23.26-43.54m64.48 148.74c-8.71-16.84-10.62-36.58-17.33-54.24-4-10.52-8.75-20.71-13.72-30.8h.06c-3.89-20.58-10.64-40.39-18.21-59.87-15.74-40.48-34.07-79.84-39-123.48-2.74-23.64-3.37-47.52-4.68-71.34l-4-73.32a2.6 2.6 0 0 0-.26-1c1.78.22 3.58.42 5.38.59 12.9 1.28 25.72 2.83 38.5 4.78a788 788 0 0 0 8.09 97.41 774 774 0 0 0 17.85 87.27c7.64 28.72 18 56.37 27.18 84.58s11.8 57.2 13.34 86.77c.71 13.35 1.4 26.76 2.81 40.06-3.06-11.3-5.61-22.76-8-34.25-7.47-36.42-14.2-72.59-29.79-106.63-14.86-32.46-34.66-65-33.28-102 .08-2-3-2-3.12 0-.72 19.76 4.53 38.78 12 56.91 6.67 16.12 14.83 31.59 22.06 47.46a301.7 301.7 0 0 1 18.72 55.26c8.19 34.33 12.79 69.6 24.13 103.09q1.26 7.1 3 14.1c-13.6-17.85-20.63-39.66-25.3-61.47-5-23.26-7.76-47-14.78-69.79-6.47-21.1-15.77-41.09-25.38-60.89-20.15-41.65-42.38-84.9-40.61-132.48.09-2-3.1-2-3.1 0-1 26.27 5.38 52 14.7 76.35 16.89 43.93 43.27 84 54.74 130 9.83 39.41 11 83.36 35.08 117.26a61.3 61.3 0 0 1-17.07-20.34Zm28.77 27.38c4.53-19.26 8.92-38.78 9.27-58.62.4-20.86-5.35-39.46-12.78-58.88s-14.35-39.08-18.62-59.47a213 213 0 0 1-3.45-64.7c.2-2-2.92-2-3.11 0-4.11 41.55 5.57 80.95 20.15 119.55 7.38 19.55 14.57 38.39 14.78 59.59.19 19.05-3.64 37.8-7.92 56.3-7.23-28.42-7.66-58-9.42-87.15a378 378 0 0 0-4.48-42.2 260.7 260.7 0 0 0-11.12-40.91c-4-11.62-8-23.21-11.83-34.86a2.22 2.22 0 0 0 1-2.05c-1.13-30.52 5.49-60.36 13.2-89.74s15.7-58.88 23.58-88.31c18.56 8.55 40.68 9.92 58.43 20.47 6.86 4.11 11.62 9.6 15.88 16.24a122 122 0 0 0 7.94 11.23c-10.17 12.34-20.77 24.69-30 37.74A60.9 60.9 0 0 0 350.66 260c-1.92 8.49-2.11 17.31-2.44 26a1034 1034 0 0 0 2 112.86c-.35 1.37-.68 2.6-1 3.9-3.37 13.64-6.56 27.34-9.66 41.06-.12-1.87-.26-3.74-.45-5.62-3.75-36.21-19-73.64-6.59-109.69.65-1.91-2.36-2.72-3-.84-11.78 34.12 1 69.53 5.65 103.71a152 152 0 0 1 1.46 25.48c-4.36 19.66-8.57 39.37-12.81 59.06-1.49 3.94-3.06 7.85-4.74 11.72a214.4 214.4 0 0 0 8.09-53.64c.51-22.77-3.29-44.79-8.78-66.84-5.57-22.43-10.4-44.71-11.77-67.87A294.76 294.76 0 0 1 330 206.14c.73-1.81-1.95-3.4-2.74-1.56A296.6 296.6 0 0 0 303.66 341c1.48 22.78 6.28 44.75 11.74 66.83 5.71 23 9.51 46 8.57 69.76a212.8 212.8 0 0 1-13.75 66.92l-1-.4Zm13.27 2.56c8.39-7.43 14.93-16.62 20.18-26.62 6-11.42 10.47-23.62 15.09-35.68a318 318 0 0 1 18.93-41.09c15.85-28.27 35.95-53.85 56.46-78.84 1.25-1.54-.93-3.75-2.21-2.21-11 13.4-21.83 26.93-32 41-17.66 24.35-32.49 50.1-43.34 78.2-8.1 21-15.81 44-32 60.09l1-4.35a136.5 136.5 0 0 0 12.69-30.88c8.79-30.24 11-62.32 22.73-91.72a110.7 110.7 0 0 1 30-42.32c15.44-13.63 32.39-25.71 48.67-38.32 1.57-1.22-.64-3.41-2.2-2.2-18.1 14-37.51 27.24-54 43.22-41.3 40.19-33.24 102-55.42 150.86l12.87-58c4.67-21 8.77-42.27 14.09-63.11a2.13 2.13 0 0 0 1.58-2.36l-.21-2.92c.1-.36.18-.71.28-1.07a113 113 0 0 1 3.3-11.1 1.63 1.63 0 0 0 .95-1.71l-.09-.66a124.4 124.4 0 0 1 7.53-16.49c5.39-9.29 12.72-16.7 21-23.45s17-12.86 24.35-20.58a105.8 105.8 0 0 0 16.11-23.17c9-16.55 15.86-34.66 29.21-48.28a443 443 0 0 1 45.21 46.91 384 384 0 0 0-39.68 55.56c-36 60-64.27 131.09-119.3 176.28 1.91-2.68 3.74-5.42 5.52-8.18 20.16-31.35 38.24-64.19 57.2-96.26 9.8-16.58 19.55-33.19 29.41-49.74 8.92-14.95 18.36-29.65 31.08-41.69 1.45-1.37-.76-3.57-2.21-2.2-13.54 12.85-23.46 28.68-32.93 44.62q-29.24 49.51-58.46 98.91c-9 15.2-17.63 30.66-27.23 45.49a169 169 0 0 1-11.9 16.38q-6 4.34-12.4 8.28Zm17.58 5.66a418 418 0 0 0 66.19-48.5 446 446 0 0 0 32.5-32.6c10.73-11.81 21.44-23.72 34.7-32.75 1.64-1.18.08-3.87-1.57-2.74-12.5 8.5-22.81 19.45-32.92 30.58-10.28 11.37-20.89 22.46-32.23 32.82a410 410 0 0 1-45.69 36.11c48.31-35.61 78.85-91.35 106.81-143.7.88-1.77-1.8-3.34-2.74-1.57C432 452.14 395.3 519.16 329 551l-1-.15c.94-.9 1.86-1.82 2.77-2.75a216.5 216.5 0 0 0 40.62-35.2c56.47-62.07 80.37-146 135.29-209.07q6.09 7.29 12 14.73c22.29 28 43.11 57.14 65.86 84.78q5.31 6.43 10.76 12.84c-20.13 1.26-40.44 2.84-59.93 8.23a112.6 112.6 0 0 0-47 25.34c-7.49 6.86-14.22 14.5-21.43 21.63A210 210 0 0 1 443 491.63c-16.62 12.11-34.54 22.29-52.37 32.44l-49.78 28.36Zm90.47-8.52c-8.63 1.9-17.27 3.63-25.93 5.08a196 196 0 0 0 19.79-9.11c11.12-6 21.34-13.52 31.41-21.12 20.12-15.16 40.56-31.47 66-36 1.91-.36 1.12-3.36-.84-3-24.6 4.44-44.68 19.71-64.16 34.43-10 7.56-20 15.14-31 21.36-11.27 6.44-23.36 11.17-35.54 15.59q-7.82 1-15.65 1.54a254.1 254.1 0 0 0 65.41-39c13.46-11.08 25.82-23.51 39.94-33.81a154.1 154.1 0 0 1 46.78-23.09 1.56 1.56 0 0 0-.82-3 155.9 155.9 0 0 0-44.47 21.22c-13.54 9.36-25.42 20.82-37.88 31.56a254.1 254.1 0 0 1-79 46.53c-4.78.13-9.57.13-14.36-.06l48.64-27.7c17.27-9.86 34.49-19.93 50.36-31.95s28.28-26.69 42.75-40c28.92-26.55 68.75-29.88 106.12-32.19a2.6 2.6 0 0 0 1.17-.34c6.19 7.08 12.61 14 19.3 20.58-14.29 4.12-27.26 11.43-39.43 19.91-23.84 16.64-45.27 36.51-73.12 46.29-14.6 5.12-29.83 8.63-43.78 15.47-11.25 5.54-20.46 15.26-31.67 20.8Zm118.58-23.72c-3.1.29-6.19.63-9.29 1q11.07-3.54 21.95-7.65 12-4.53 23.64-9.74c8.91-3.94 18.55-10.52 28.66-9.6 2 .19 2-2.92 0-3.1-8.45-.74-15.79 3.4-23.18 6.86q-13.86 6.47-28.13 11.95A451 451 0 0 1 519 524c-17.72 3-35.51 7.28-53.37 11.6 20.6-10.18 44.47-14 65.73-22.17a336.4 336.4 0 0 0 73.3-39.18c1.62-1.21.07-3.9-1.56-2.75a332.2 332.2 0 0 1-76 40.19c-24 8.88-50.9 12.58-72.61 26.6-2.94.71-5.87 1.41-8.81 2.1 7-5 13.72-10.4 21.54-13.94 14.8-6.75 30.85-10.06 46-16 13-5.08 24.78-12.35 36-20.49 23-16.6 44.74-36.81 72.88-44.16a2.4 2.4 0 0 0 .7-.3c12.9 12.22 26.91 23.16 42.53 31.47a139.8 139.8 0 0 0 47.09 14.83q-81.3 10.73-161.7 27.15a2.21 2.21 0 0 0-1.57 1.17ZM848 537.49l-.5-.08a13 13 0 0 0-2.33 0l-8-.23c-5-.18-9.94-.42-14.91-.68q-14.88-.86-29.81-2.1c-20.24-1.71-40.44-3.93-60.62-6.2-21.83-2.45-43.72-4.92-65.65-6.81l32.44-1 108.67-3.32c2-.06 2-3.17 0-3.11l-110.72 3.38-55.31 1.66c-1.94.06-3.88.1-5.83.14l-6.27-.33c14.42-2.33 29.1-2.59 43.66-3.58q50.38-3.5 100.32-10.9c1.9-.24 1.12-3.27-.84-3q-49.53 7.36-99.48 10.79c-15.55 1.05-31.32 1.07-46.65 3.92-3.48.67-7 1.45-10.43 2.26-11.38-.34-22.76-.41-34.14-.1q82-15.68 164.93-25.39a188.4 188.4 0 0 0 33.36-5.59c9.6-2.51 18.72-6.44 28.25-9.26 9.19-2.75 17-1 23.58 6 12.94 13.65 12.12 34.79 16.6 52.05a4.8 4.8 0 0 0-.32 1.48m5-39.75c-4.61-14.55-13.88-29.1-29.44-32.76a30 30 0 0 0-10.21-.56A637.5 637.5 0 0 1 716.67 450c.39-.12.79-.22 1.19-.33 34.75 9 71.17-5 105.88 3.93a3 3 0 0 0 .38.15l3.42.92a1.57 1.57 0 0 0 .83-3c-33.69-10.4-69 2.52-103.06-3.57 6-.87 12.08-1.12 17.9-2.09 12.23-2 24-6.18 35.68-10.25 22.4-7.85 47.8-16.3 71-6.86a472 472 0 0 1 3.11 68.84"/></svg>