<svg xmlns="http://www.w3.org/2000/svg" viewBox="0 0 964.72 816.78"><path fill="currentColor" d="M528.86 537c-6.86-20.11-13.86-40.23-23.37-59.3-.65-1.31-2.61-.16-2 1.14 9.4 18.9 16.3 38.84 23.14 58.76.51 1.33 2.7.74 2.23-.6m-1.27-30.3a252 252 0 0 0-14.33-29.32 1.15 1.15 0 0 0-2 1.14 248 248 0 0 1 14.11 28.78c.63 1.33 2.78.75 2.22-.6M506.87 545c-4-11-5.75-22.57-9.76-33.54-4.31-11.76-8.9-23.43-13.36-35.13-.51-1.35-2.7-.77-2.18.6 4.46 11.7 9.05 23.37 13.35 35.13 3.79 10.35 5.53 21.28 9.1 31.67a1.18 1.18 0 0 0 .12 1.33l.84 1a1.15 1.15 0 0 0 1.61-.07 1.13 1.13 0 0 0 .28-.99m-16.4-20.44a278.4 278.4 0 0 0-14.22-41c-.59-1.33-2.54-.18-2 1.15a273 273 0 0 1 14 40.51 1.16 1.16 0 1 0 2.22-.66m-101.72 11.1q-6 20.34-13.14 40.28-3.53 9.81-7.35 19.49-1.85 4.68-3.76 9.33c-.88 2.12-1.76 4.24-2.66 6.35a27.5 27.5 0 0 1-1.42 3.62 1 1 0 0 0-.74 0l-.34.13a1.17 1.17 0 0 0-.83 1.1 1.64 1.64 0 0 0 .69 1.59 1.21 1.21 0 0 0 1.38.17c2.25-1.14 2.86-4.61 3.78-6.78q2-4.77 3.95-9.57 4.31-10.65 8.26-21.45 7.9-21.58 14.37-43.65a1.14 1.14 0 0 0-2.19-.61m-9.75 3q-5.69 18.09-12.67 35.73c-.54 1.36 1.65 1.95 2.18.6q7-17.62 12.67-35.72c.47-1.45-1.72-2.05-2.18-.66Zm36.93-12.91c-1.32-.58-2.47 1.37-1.14 2s-8.15 26.48-9 29.29q-4.53 14.55-8.34 29.35a1.14 1.14 0 0 0 2.19.6q4.65-17.94 10.3-35.59 2.78-8.64 5.81-17.21c.74-2.25 3.44-7.06.18-8.49Zm4.56-97.59c-.11-1.45-2.37-1.46-2.27 0a8.1 8.1 0 0 1-.24 2.4 1.15 1.15 0 0 0-1 1.26 1.18 1.18 0 0 0 .38.74c-1.22 3.07-3.38 6.27-4.57 8.68q-3 5.94-5.9 11.88l-11.82 23.68c-.65 1.31 1.3 2.46 1.95 1.15l13.11-26.41q3.11-6.3 6.22-12.55c1.65-3.28 4.41-7.07 4.14-10.88Zm-8-1.23a109.3 109.3 0 0 1-12.33 25.26c-.8 1.22 1.16 2.36 2 1.14a111.2 111.2 0 0 0 12.55-25.8c.43-1.44-1.71-2.03-2.22-.65ZM339 421.27q-35 21.18-71 40.84c-1.28.7-.14 2.66 1.15 2q35.93-19.64 71-40.85a1.15 1.15 0 0 0-1.15-2Zm-4.25-4.65A207 207 0 0 1 279 442.8a1.12 1.12 0 0 0-.79 1.39 1.13 1.13 0 0 0 1.39.79 208.9 208.9 0 0 0 56.32-26.4c1.18-.81.08-2.77-1.17-1.96M357 429.35 289 477c-1.19.83-.06 2.8 1.14 2l68-47.63c1.19-.9.06-2.86-1.14-2.02m-76.12-83.66a228 228 0 0 1-40.94-5.56c-1.42-.33-2 1.85-.6 2.18a231 231 0 0 0 41.54 5.69 1.16 1.16 0 0 0 0-2.31m-4.05 15.67-19.11-.74c-1.45-.06-1.45 2.21 0 2.27l19.11.74c1.46.06 1.46-2.21 0-2.27m24.91-56.62c-3.06-2.95-6.83-5.33-10.25-7.87q-5.81-4.33-11.66-8.59c-7.78-5.65-15.56-11.31-23.46-16.8-14.48-10.07-29.68-19.29-46.69-24.38a1.14 1.14 0 0 0-.6 2.19c16.82 5 31.83 14.19 46.15 24.14 7.29 5.07 14.47 10.29 21.66 15.5q5.6 4.05 11.14 8.17c4 3 8.51 5.78 12.11 9.25 1.05 1.01 2.66-.59 1.6-1.61m-33.42-5.46-27-15.95-12.86-7.59c-3.85-2.27-7.73-5.19-12.23-5.91-1.43-.22-2 2-.61 2.19 4.71.74 8.95 4.06 13 6.44l12.86 7.59 25.72 15.18a1.13 1.13 0 0 0 1.12-2ZM289 284.06a113.2 113.2 0 0 0-45.06-27.56c-1.19-.39-1.74 1.09-1.1 1.89l1.46 1.86c.65.82 1.65.21 1.83-.61a110.7 110.7 0 0 1 40.33 25.11 1.16 1.16 0 0 0 .73.91l.71.3c1.04.44 1.8-1.16 1.1-1.9m64-31.33a231.7 231.7 0 0 1-26.22-26.29q-2.83-3.36-5.54-6.82c-2.1-2.69-3.94-6-6.28-8.45-1.18-1.26-3.46-2-3.52.52a1.12 1.12 0 0 0 .56 1l.3.15a1.11 1.11 0 0 0 1.39-.26 31 31 0 0 0 1.69 3c.66.91 1.34 1.81 2 2.71q1.92 2.55 3.91 5 4.44 5.55 9.22 10.8a233 233 0 0 0 20.87 20.19c1.14.99 2.75-.6 1.62-1.55m23.11 18.09a3.7 3.7 0 0 0-.59-.53 208.3 208.3 0 0 1-35.3-40.48c-.8-1.21-2.77-.08-2 1.14A210 210 0 0 0 373 271.07a1.19 1.19 0 0 0 1.07 1.09l.44.26a1.13 1.13 0 0 0 1.6-1.6m-13.43 51.47-2.48-2.73a1 1 0 0 0-.84-.35q-15.25-14.1-29.52-29.22c-1-1.07-2.61.54-1.61 1.6q15.79 16.79 32.85 32.3a1.13 1.13 0 1 0 1.6-1.6m-.56-163a320 320 0 0 1-24.76-46.09c-.58-1.33-2.53-.18-1.95 1.15a319.6 319.6 0 0 0 24.76 46.08c.83 1.23 2.75.09 1.95-1.13Zm1-6.93a1.19 1.19 0 0 0-1.07-1.21.9.9 0 0 0-.32.1 8.1 8.1 0 0 0-1.03-2.25l-2-4-3.61-7.36-7.54-15.4c-.64-1.31-2.6-.16-2 1.15l8.53 17.4q2 4 3.94 8c.78 1.6 1.42 4.07 3 5.09a1.11 1.11 0 0 0 1.14 0l.4-.21a1.18 1.18 0 0 0 .6-1.3Zm44.89 39.55a114.6 114.6 0 0 1-7.77-26.51c-.24-1.43-2.42-.82-2.18.61a116.8 116.8 0 0 0 8 27c.61 1.39 2.56.24 1.99-1.09Zm-19.77-11.41c-.78-3.17-1.56-6.35-2.35-9.52-.39-1.6-.44-4.37-1.93-5.37a1.14 1.14 0 0 0-1.55.41l-.14.19a1.15 1.15 0 0 0 .17 1.38l.14.11.11.07c.05.17.13.38.23.64l.52 2.12c.27 1.05.53 2.11.79 3.17l1.83 7.4a1.13 1.13 0 1 0 2.18-.6m9.51 60.28-.1-.24a.9.9 0 0 0-.89-.58c-.25-.74-.41-1.9-.56-2.36l-1.14-3.6-2.1-6.7c-.44-1.38-2.63-.79-2.19.61l2.92 9.26c.53 1.68.75 4.25 2.25 5.35a1.07 1.07 0 0 0 1.14 0l.26-.19a1.18 1.18 0 0 0 .41-1.55m9 .71A151 151 0 0 1 399.2 208c-.16-1.43-2.43-1.45-2.27 0a154.3 154.3 0 0 0 7.67 34.06c.48 1.4 2.67.81 2.19-.57Zm53.33-15.31a1 1 0 0 0-.48-.44 133 133 0 0 1-8.32-49.45 1.14 1.14 0 0 0-2.27 0 135 135 0 0 0 9.22 52.23 1.16 1.16 0 0 0 1.45.74 1.14 1.14 0 0 0 .74-.74 2.22 2.22 0 0 0-.3-2.34Zm-10.06-15.41a138 138 0 0 1-2.93-16.35c-.17-1.43-2.44-1.44-2.27 0a144 144 0 0 0 3 17c.39 1.36 2.58.76 2.24-.65ZM471 210a97 97 0 0 1-.59-13.09 1.14 1.14 0 0 0-2.27 0 98 98 0 0 0 .53 12.44 1.26 1.26 0 0 0-.6-.39q-3.36-16.47-6.06-33c-.24-1.43-2.42-.82-2.19.61q2.91 17.91 6.6 35.69a1.16 1.16 0 0 0 1.45.74 1.14 1.14 0 0 0 .74-.74c.1-.57.2-1.15.31-1.72.52.88 2.19.73 2.08-.54m-20.31-87.67c-5.78-5.71-6-16-7.34-23.51l-5-27.56c-.25-1.43-2.44-.83-2.18.6l5.49 30.47c1.33 7.35 1.79 16 7.41 21.6a1.14 1.14 0 0 0 1.62-1.6m-7.87 5.42a137.6 137.6 0 0 1-8.13-36.08c-.13-1.45-2.39-1.46-2.27 0a139.6 139.6 0 0 0 8.21 36.68c.51 1.36 2.7.77 2.19-.6m20.18-5.48c-.08-.56-.16-1.13-.23-1.69a.93.93 0 0 0-.39-.67c-4.62-18.24-4-37.31-7.65-55.74-.28-1.43-2.46-.83-2.18.6 3.79 19.23 2.94 39.14 8.26 58.11.42 1.44 2.39.79 2.19-.61m4.47 4.2-3.05-26.38a1 1 0 0 0 .42-1.18c-.32-1.17-.65-2.33-1-3.5s-2.37-1-2.22.3l3.56 30.76c.19 1.43 2.46 1.44 2.29 0m38.66 2.69c-1.13 8-5 15.44-7.55 23a249 249 0 0 0-6.78 24.64 1.13 1.13 0 1 0 2.18.6l.56-1.83a1.06 1.06 0 0 0 0-.61c1.74-7.49 3.79-14.9 6.21-22.2 2.53-7.57 6.43-15.07 7.55-23 .21-1.43-1.97-2.04-2.17-.6m6.36 19.77a1.16 1.16 0 0 0-1.28-.52c-.11 0-1.61.05-1.72.07-.49.11-2.23.62-2.23 1.1v.27c0 .53 1.68.86 2 1a25.4 25.4 0 0 1-.46 4.68c-.51 1.91-.77 3.79-1.36 5.67s-1 3.71-1.58 5.57c-.24.79-.91 4.9-1.65 6.31a.7.7 0 0 0-.26.12l-.15.1a1.13 1.13 0 0 0-.39 1.55l.13.22a1.16 1.16 0 0 0 1.55.41c1.25-.69 1.44-2.72 1.82-3.93l3.06-9.74a79 79 0 0 0 2.43-8.81c.29-1.27.82-2.87.09-4.07m-13.41-10.42c-.17-1.43-2.44-1.44-2.27 0 .64 5.34-2.15 10.15-4.23 14.88q-2.76 6.3-5.54 12.6c-.58 1.32 1.37 2.48 2 1.14q3.36-7.62 6.7-15.24c1.86-4.32 3.91-8.54 3.34-13.38m44.12 59.92c.16 4.55-1.5 8.88-2.79 13.18s-2.57 8.54-3.85 12.81q-3.37 11.19-6.73 22.38a1.12 1.12 0 0 0-.78 1l-.24 2.55c-.12 1.31 1.87 1.48 2.22.3q4.08-13.53 8.14-27.05 1.92-6.4 3.85-12.81c1.23-4.07 2.6-8.07 2.45-12.36-.05-1.43-2.32-1.43-2.27 0m10.59 14.82c-2.73 14.2-11.93 25.8-17.13 39.07a1 1 0 0 0-.52.72l-.24 1.28a1.13 1.13 0 1 0 2.18.6c5-14.13 15-26.13 17.89-41.06.28-1.43-1.91-2.04-2.18-.61m-22.62 8.86c-.18 10.36-6.77 19.35-7.71 29.69-.13 1.45 2.14 1.44 2.27 0 .93-10.36 7.53-19.25 7.71-29.69a1.14 1.14 0 0 0-2.27 0m83.73-94.76q-16.21 27.14-33.67 53.49c-.81 1.22 1.15 2.35 2 1.14q17.46-26.34 33.67-53.49a1.15 1.15 0 0 0-.43-1.57 1.14 1.14 0 0 0-1.57.43m-15.8 13c-6.23 12.92-14.94 24.28-23.71 35.54-.89 1.14.71 2.75 1.6 1.6 8.89-11.41 17.75-22.91 24.07-36 .63-1.3-1.33-2.49-1.96-1.14m17 7.89c-1.53 6.79-6.94 12.75-10.83 18.38l-12.64 18.28c-.83 1.2 1.13 2.34 2 1.14l13.49-19.5c3.8-5.49 8.72-11 10.22-17.7.28-1.42-1.91-2.03-2.23-.6Zm-3.27 21.7A38.64 38.64 0 0 0 600 185.71c-.59 1.32 1.37 2.47 2 1.14a36.46 36.46 0 0 1 12-14.95c1.15-.85 0-2.81-1.16-1.96ZM573 55.79a332 332 0 0 1-22.9 54.65c-.57 1.08.94 2.43 1.78 1.38l2.23-2.77a1.19 1.19 0 0 0 0-1.49 335.4 335.4 0 0 0 21-51.17c.48-1.39-1.7-1.99-2.11-.6m8.57 15.47A220 220 0 0 1 565.18 106a1.15 1.15 0 0 0 2 1.15 223 223 0 0 0 16.61-35.32c.47-1.34-1.72-1.93-2.22-.57m-20.65 0c-2.11 5.49-4.32 10.94-6.67 16.33q-1.57 3.63-3.21 7.21c-.5 1.08-1.5 4.51-2.58 6a1 1 0 0 0-.91.33l-.19.2a1.17 1.17 0 0 0 0 1.6l.22.28a1.13 1.13 0 0 0 1.37.18c1.55-.75 2.15-3.37 2.84-4.83q2.12-4.56 4.13-9.15 3.8-8.69 7.19-17.54c.52-1.36-1.67-1.95-2.19-.6Zm-85.61 324.58a131 131 0 0 1-9.79 31.45c-.6 1.32 1.35 2.47 2 1.15a134 134 0 0 0 10-32c.24-1.44-1.95-2.03-2.21-.6m-10.64 14.79-5.72 13c-.58 1.32 1.37 2.47 2 1.14l5.71-13c.55-1.32-1.41-2.47-1.99-1.14m34.73-26.89a150 150 0 0 1-14 43.27c-.65 1.3 1.3 2.45 2 1.14a151.8 151.8 0 0 0 14.28-43.81c.14-1.42-2.04-2.04-2.28-.6m107 87.89-23.79-14.55c-7.77-4.74-15.74-9.29-22.74-15.14-1.11-.93-2.72.66-1.6 1.6 6.77 5.66 14.39 10.12 21.91 14.71l25.07 15.34c1.21.76 2.35-1.2 1.11-1.96Zm-19.62-6a272 272 0 0 1-29.68-16.41c-1.23-.78-2.37 1.18-1.14 2a269 269 0 0 0 29.67 16.4c1.27.62 2.42-1.33 1.11-1.95Zm22.9-16.3q-13.15-4.68-25.83-10.58c-3.83-1.8-7.69-3.68-11.44-5.64-3.31-1.73-4.67-4.58-10.71-4.57v2.27s5.46 2.08 7.69 3.27c1.87 1 3.78 2 5.67 2.92 3.78 1.91 7.62 3.73 11.48 5.47q11.07 5 22.53 9.05c1.33.53 1.93-1.66.57-2.15Zm61.74-113.91a796 796 0 0 1-79.29 29.35c-1.38.43-.79 2.62.61 2.18a798 798 0 0 0 79.83-29.57c1.29-.54.14-2.49-1.19-1.92Zm31.91-103.69c-4.22 9-14.54 15-22 21l-26.47 21.16-52.94 42.33c-1.14.91.48 2.51 1.6 1.61l54.08-43.23 27.06-21.6c7.23-5.78 16.56-11.37 20.64-20 .57-1.4-1.39-2.55-2.01-1.23Zm-43 25.73A604 604 0 0 1 611.78 297c-1.17.85 0 2.82 1.14 1.95a610 610 0 0 0 49-39.89c1.08-.94-.57-2.54-1.65-1.56Zm25.79 19.75a261 261 0 0 1-38.15 29.42c-1.23.77-.1 2.74 1.14 1.95a263.3 263.3 0 0 0 38.61-29.77c1.01-.95-.6-2.55-1.66-1.56ZM786.47 327a763 763 0 0 1-95.64 13.48c-1.44.11-1.46 2.38 0 2.27a765 765 0 0 0 96.24-13.57c1.43-.31.83-2.5-.6-2.18m-20.31-6.23c-2.3-3.43-8 .43-10.82 1.41A192.2 192.2 0 0 1 694.62 333a1.13 1.13 0 0 0 0 2.26 198.6 198.6 0 0 0 34.73-3.66q8.67-1.73 17.17-4.22c1.8-.53 17-6.57 17.69-5.5s2.79.12 1.95-1.11m-32.92 91.78L676.81 409c-18.51-1.18-38.57-.34-55.75-8.23-1.32-.6-2.47 1.35-1.15 2 16.79 7.71 35.84 7.2 53.93 8.35l59.4 3.77c1.46.02 1.45-2.25 0-2.34M707.54 402c-27.25-.58-53.77-5.8-80.48-10.72-1.43-.26-2 1.92-.6 2.18 26.91 5 53.63 10.22 81.08 10.81a1.14 1.14 0 0 0 0-2.28Zm1.07 29.51a294 294 0 0 0-35.87-3.89c-1.46-.07-1.46 2.19 0 2.26A290 290 0 0 1 708 433.7c1.43.24 2.05-1.94.61-2.19m131.19 95.35c-7.52-4.23-16-5.25-24.42-6.58Q800.67 517.94 786 515q-28.89-5.73-57.28-13.66a1.13 1.13 0 0 0-1.34.89 1.15 1.15 0 0 0 .73 1.3q27.69 7.68 55.89 13.37 13.9 2.79 27.91 5.06c9.07 1.48 18.59 2.23 26.75 6.81 1.27.76 2.42-1.2 1.14-1.91m-22.6 17.28a548.2 548.2 0 0 0-117-29.5c-1.42-.19-2 2-.6 2.19a547.6 547.6 0 0 1 117 29.5c1.4.51 1.95-1.68.6-2.19m-36-.75a563 563 0 0 0-95.36-22.88c-1.42-.21-2 2-.6 2.19a563.7 563.7 0 0 1 95.36 22.87c1.4.43 1.98-1.72.6-2.18M655.7 616a1.2 1.2 0 0 0-.84-1.1l-.4-.15a.89.89 0 0 0-1.17.37c-.59-2.32-2.87-4.76-4.08-6.59-1.37-2.07-2.74-4.13-4.1-6.2q-4.29-6.52-8.57-13-8.55-13.08-17-26.17-16.95-26.31-33.54-52.74c-.78-1.24-2.74-.1-2 1.14q17.61 28 35.57 55.77 8.88 13.74 17.86 27.41l9 13.65c1.5 2.28 3 4.56 4.51 6.82.92 1.37 1.39 2.25 2.95 2.78a1.14 1.14 0 0 0 1.11-.29 1.79 1.79 0 0 0 .7-1.7m-22.29-43.53-37.09-61.9a1.15 1.15 0 0 0-2 1.14l37.09 61.91a1.15 1.15 0 0 0 2-1.15m-1.91 49.38q-24.3-37.8-45.51-77.44c-.69-1.28-2.65-.14-2 1.15q21.19 39.62 45.51 77.44c.83 1.21 2.79.08 2-1.15m-209-257.36q.82-6.72 1.38-13.46c.12-1.45-2.15-1.44-2.27 0-.18 2.25-.39 4.49-.62 6.74a94 94 0 0 0 0-9.77 1 1 0 0 0 .06-.48l-.15-1.35c-.15-1.43-2.37-1.48-2.27 0a89.2 89.2 0 0 1-1.3 22.95q-2.46 7.71-5.28 15.29c-.52 1.36 1.67 1.95 2.18.6 1.13-3 2.2-6.05 3.24-9.1a1 1 0 0 0 .89-.79c.45-1.81.83-3.62 1.17-5.43-.33 2.44-.69 4.87-1.07 7.31a1.24 1.24 0 0 0 1.07 1.4 1.3 1.3 0 0 0 .39 0c0 .47-.09.93-.13 1.4-.12 1.45 2.15 1.44 2.27 0q.54-7 1.68-13.85a1.24 1.24 0 0 0-1-1.44 1 1 0 0 0-.29-.02Zm7.25 2.82q-1.43 4.31-2.87 8.61c-.46 1.39 1.73 2 2.19.61l2.87-8.62c.41-1.38-1.78-1.98-2.24-.6Zm5.23-.65a13.86 13.86 0 0 1-2 6.46 1.15 1.15 0 0 0 2 1.14 16.3 16.3 0 0 0 2.27-7.6c.02-1.46-2.25-1.45-2.32 0Zm10.19-11.86-2.28 13.55c-.24 1.43 2 2 2.19.61q1.13-6.78 2.27-13.56c.19-1.4-1.99-2.04-2.23-.6Zm4.46 1.5q-1.23 5-2.47 10.09c-.34 1.41 1.84 2 2.19.6l2.46-10.08c.3-1.42-1.88-2.03-2.23-.61Zm5.42 1-1.53 5.53a1.13 1.13 0 0 0 2.18.61l1.53-5.54a1.13 1.13 0 1 0-2.18-.6m15.15-15.11-1.71 12.57c-.19 1.42 2 2 2.19.6l1.71-12.56c.14-1.44-2.04-2.06-2.24-.62Zm5.21-2c-.36 2.68-.72 5.37-1.09 8.05-.19 1.43 2 2 2.19.6q.54-4 1.09-8c.14-1.47-2.05-2.09-2.24-.65Zm6.83.47c-.35 1.51-.7 3-1 4.52a1.13 1.13 0 0 0 2.18.61c.33-1.39.7-3 1-4.53a1.13 1.13 0 1 0-2.23-.6ZM413.85 339c-.15-1.43-2.42-1.45-2.27 0a49.5 49.5 0 0 1-.4 13.37c-.25 1.42 1.94 2 2.18.6a51.5 51.5 0 0 0 .49-13.97m-4.67 3.23a90 90 0 0 1-1.72-12.34c-.1-1.45-2.36-1.46-2.26 0a94 94 0 0 0 1.8 12.94c.29 1.43 2.48.83 2.18-.6m76.18-6.54v6a1.13 1.13 0 1 0 2.26 0v-6a1.13 1.13 0 0 0-2.26 0m11.5-.05q-.78 2.76-1.55 5.53a1.13 1.13 0 1 0 2.18.6c.52-1.84 1-3.69 1.55-5.53a1.13 1.13 0 0 0-2.18-.6m4.81 1.47a32.6 32.6 0 0 0-.27 7.89c.13 1.44 2.4 1.45 2.26 0a30.1 30.1 0 0 1 .2-7.29c.22-1.42-1.96-2.04-2.19-.6m5.2 2a30.9 30.9 0 0 0-.45 8.37c.12 1.44 2.38 1.45 2.26 0a29 29 0 0 1 .38-7.77c.27-1.38-1.92-1.99-2.19-.56Zm7.22-2.7c-.13-1.44-2.39-1.45-2.27 0a59.7 59.7 0 0 1-.67 15.84c-.26 1.43 1.93 2 2.18.61a61.7 61.7 0 0 0 .76-16.41Zm6.5-2.29a3.86 3.86 0 0 0-.73-3.68c-.61-.8-2.19-.67-2.12.57a289 289 0 0 1 .25 32.11c-.08 1.46 2.19 1.46 2.26 0q.69-14.19 0-28.38a1.06 1.06 0 0 0 .34-.58Zm15.08-4.81q-.79 8.61-1.9 17.19c.12-3.53.13-7.06 0-10.6 0-1.45-2.32-1.46-2.26 0a148.6 148.6 0 0 1-1.85 29.42 1.24 1.24 0 0 0 1 1.4h.13c.17 1.14 2 1.52 2.19.22q3.15-18.75 4.92-37.65c.17-1.39-2.1-1.38-2.23.06Zm4.46-3.79a142 142 0 0 0-1.49 14.48c-.07 1.46 2.19 1.45 2.27 0a133 133 0 0 1 1.41-13.81c.22-1.46-1.97-2.07-2.19-.63Zm4.78-3.72c-.1-1.45-2.36-1.46-2.27 0a38.8 38.8 0 0 1-.46 9.26c-.25 1.43 1.94 2 2.19.61a41.9 41.9 0 0 0 .54-9.83Zm.82-4.53c-.2 2.35-.41 4.69-.61 7-.13 1.45 2.14 1.44 2.26 0 .21-2.35.41-4.69.62-7 .12-1.41-2.14-1.41-2.27.04Zm7.65-10.86-4 16.12a1.14 1.14 0 0 0 2.19.6l4-16.11a1.14 1.14 0 1 0-2.19-.61m-28 31.5v36.26ZM297.81 813.56l.2.1.22 1.56a2 2 0 0 0 1.31 1.49 1.17 1.17 0 0 0 1.31-.39A675.4 675.4 0 0 0 430.28 638c8-16.07 15.49-32.69 22.21-49.41l2.22-5.53 3.11 5.08c2.4 3.9 5 7.72 7.71 11.35 9.68 13.09 20.63 24.84 31 35.6l.22.23c11.14 11.54 21.67 22.43 33 33.1 13 12.3 37.43 30.93 44.2 33.21a258.1 258.1 0 0 0 15.24-65.26l.8-8 4.64 6.54a329.56 329.56 0 0 0 165.31 122.24 1 1 0 0 0 1.09-.23 2.11 2.11 0 0 0 .62-1.86A489.9 489.9 0 0 0 671.38 562c-1.94-2.49-3.92-5-5.88-7.43l-11.34-14.11 15.29 9.69c57.25 36.29 127.42 45.85 200.31 53.1l75.67 7.51.49.24a1.8 1.8 0 0 0 .64.18l12.9 1.49a.6.6 0 0 0 .67-.32 2.43 2.43 0 0 0 .22-2.18c-24.92-49.82-71.6-90.57-138.75-121.12-11-5-22.93-9.95-36.51-15.09l-10.36-3.91 10.92-1.85a277.6 277.6 0 0 0 59.73-17.2 281 281 0 0 0 34.84-17.31 1.32 1.32 0 0 0 .56-1.8l-.19-.29-.17-.42a1.5 1.5 0 0 0-.23-.43 195 195 0 0 0-58.73-51.91l-7.46-4.25 8.48-1.28a397 397 0 0 0 56.57-12.84c19.2-5.83 41.37-13.4 60.24-25.4a92.1 92.1 0 0 0 25.1-23c.35-.47.39-.72-.1-1.15a2 2 0 0 0-2.67-.11l-2.57 2.48-2-3a1.4 1.4 0 0 0-.52-.47c-31.93-17.76-70.21-28.48-113.82-31.88a463 463 0 0 0-59.84-.57c-16.53.85-36 2.33-54.77 6.92a147 147 0 0 0-14.41 4.3l-13.28 4.73 10.21-9.73a572 572 0 0 0 42.78-45.43c17.82-21.15 43.48-53.51 60.47-90.26 6.69-14.49 14.31-44.34 16.26-53.27-8.71-1.43-41.7-5-90.16 11.35-27.31 9.19-49.7 17.86-70.27 30.27a175 175 0 0 0-20.07 14l-7.34 5.93 2.56-9.08c2-7.16 3.92-14.71 5.65-22.46.36-1.55.72-3.08 1.09-4.62 2.16-9.07 4.39-18.44 4.07-27.62-.3-8.32-6.46-29.43-10.13-33.33-8.1 3.55-16.71 7.39-25.12 11.54l-3.41 1.8-.77-3.82a226 226 0 0 0-22.94-63.1 1.56 1.56 0 0 0-1.67-.69c-13.9 4.7-29.62 10.67-41.56 21.94-10.85 10.32-27.37 37.8-30 43.87l.84 1.34-2.42 1.62a152 152 0 0 0-18.08 14.21l-3.26 3-1.58-4.14a177.5 177.5 0 0 0-54.65-75.25s-1.52-1.2-2.3-.33a136.54 136.54 0 0 0-35.69 88.72l-.14 5.55-4.56-3.15c-2-1.35-4-2.7-6-4l-.61-.4-.36-.62a42 42 0 0 1-2-3.84c-.41-.79-.86-1.58-1.29-2.32l-.12-.24-.15-.34c-20.56-39.42-58.74-66-92.91-87.79l-.53-.34-.34-.51a.7.7 0 0 0-.24-.22l-.53-.31-.37-.5a2.1 2.1 0 0 0-1.9-.75 1 1 0 0 0-.84.81l-.2.48a2.2 2.2 0 0 0-.22.87v.31l-.08.3a224.94 224.94 0 0 0 9.18 137l2.45 6.2-6.27-2.29a162 162 0 0 0-10.86-3.52c-4.62-1.3-9.36-2.4-14.09-3.28-5.5-1-14.86-1.92-18.49-1.53.66 6.65 1.29 13.39 1.89 19.93 1.53 16.54 3.11 33.64 5.48 50.28l.66 4.68-4.48-1.34a584.5 584.5 0 0 0-162.42-25.72l-5.47-.11c-13.73-.31-27.93-.63-40.33 4a1.54 1.54 0 0 0-1.07 1.24 2.11 2.11 0 0 0 .49 1.85l1 .9v1.35a.4.4 0 0 0 0 .11A332.5 332.5 0 0 0 115.84 296l3.25 3.34-4.39 1.66c-3.64 1.31-7.3 2.71-10.89 4.16a2.06 2.06 0 0 0-1 2.68 3 3 0 0 0 .24.4l.76 1-.2 1.26a.85.85 0 0 0 .18.67l.08.11c27 37.6 67.59 66.08 124.13 87.07l9 3.33-9.25 2.32c-32.92 8.49-62.15 27-86.39 43.93a751.4 751.4 0 0 0-91.94 75.87 744 744 0 0 0-46 48.8 1.55 1.55 0 0 0-.42 1.23l.15 2.17-2 .87A2 2 0 0 0 0 578.55c0 1 1.06 1.39 1.92 1.5a576.5 576.5 0 0 0 136 1.78 588.2 588.2 0 0 0 132.71-29.67 584 584 0 0 0 60.82-25.3l7.32-3.55-3.26 7.45c-13.18 30-24.86 61.5-35.69 91.15l-1.09 3c-6.86 18.74-14 38.11-16.93 58.11a224.5 224.5 0 0 0-.08 61.81c2.65 20.8 7.89 43.24 16 68.63Zm89.85-723.14v.08Zm391.15 193.25c38.21-2.21 77-.86 114.35 8.19a239.7 239.7 0 0 1 60.27 23.2 6 6 0 0 0 .6.28c-.3.33-.61.65-.92 1a262.9 262.9 0 0 0-99.62 3.83c-17.27 4-34.28 8.91-51.75 12.05-17.65 3.17-35.45 5.51-53.2 8.07l-52.61 7.61c4.74-3.53 10.21-8.53 7.87-10.84-7.41-7.3-14.6-15.64-22.9-22.13 25.95-24.53 63.78-29.28 97.91-31.26M568.75 498.09a3.52 3.52 0 0 0-3.39-1.3l-1.54-.59a122.8 122.8 0 0 1-30.94-17.8 23 23 0 0 0 9.63-2.88c7.13-4.41 11.94-13.87 15.16-21.33a76.5 76.5 0 0 0 4.76-15.19A416.2 416.2 0 0 0 682 490.72q17.5 4.47 35.34 7.4c.4 1.58.77 3.17 1.1 4.78-23.55 12.1-50.84 12.78-76.77 10.27-24.51-2.37-49.67-6.5-72.92-15.08M482.49 467a4.9 4.9 0 0 0-2.18-.59 59.4 59.4 0 0 1-16.86-7.67c-6-4-10.44-9.65-15.44-14.75a81 81 0 0 0-14.32-11.32c-3.28-2.11-6.9-4.15-10.46-6.34 15.78 4.3 33.29 4.49 49 8.53a122.9 122.9 0 0 1 58.26 34.47l-1.46.07c-3.32.18-6.64.34-10 .44a196 196 0 0 1-20.11-.29 96 96 0 0 1-16.43-2.55M372 530.83l-.09-.22c19.56-29.37 42.07-59 52.52-93.11 5.34 3.28 10.69 6.6 15.26 10.93 5.87 5.58 10.79 11.95 17.37 16.78a61.7 61.7 0 0 0 16.34 8.44c-22.24 33.86-60.92 55.76-101.4 57.18m-33.8-49.28a61.2 61.2 0 0 0 2.93 14.21c-21.9 14.32-44.12 28.59-68.34 38.68a177.9 177.9 0 0 1-83.6 13.19 221.4 221.4 0 0 1-42.85-8.06c12.87-6.54 25-14.41 37.73-21.28 13.19-7.14 26.63-13.83 40.12-20.39 26.56-12.91 53.4-25.3 79.25-39.62A451 451 0 0 0 346 431.69a80 80 0 0 0 7.65 3 62.78 62.78 0 0 0-15.45 46.86m-27.52-178.47-.66-.71c15.05 14.34 33.37 25.19 51.2 35.68A334 334 0 0 0 380 382.92c-27.06-21.35-53.52-45.51-68.08-76.18a4.22 4.22 0 0 0-1.24-3.66M265.39 192c5.22 16.67 14.6 30.6 25 44.27-1.27 9.52-2.13 19.13-1 28.69a55 55 0 0 0 4.4 16c.15.76.31 1.52.47 2.28a162.4 162.4 0 0 1-18.76-34.81c-8.59-22.14-11.16-45.5-13.55-69 1.05 4.29 2.15 8.46 3.44 12.57m28.68 34.17c-8.82-12-16.4-24.46-20.71-39.11-2.46-8.4-4.24-17-6.17-25.5 12.62 26 31.05 49 49.74 71.07a163 163 0 0 0-18.63-5.4 5.13 5.13 0 0 0-4.23-1ZM369.64 242c-13.31-32.64-7-73 .17-106.48 2.44-11.42 5-22.82 7.06-34.31a295.5 295.5 0 0 1 9.4 46c1.47 11.73 2.88 23.6 7.06 34.63q-4.33-2.28-8.74-4.39a4.55 4.55 0 0 0-3.28-.31 4.32 4.32 0 0 0-4.24 4.36c-.29 18.85-7.86 40.62-7.43 60.52ZM478 158a94.5 94.5 0 0 1 17.15 39.92 4.4 4.4 0 0 0 .63 1.66 78 78 0 0 1-.19 11c-1-2-2.17-4.05-3.4-6a2 2 0 0 0-2.14-.87c-4.83 1-6.73 6.1-6.43 10.63.21 3.21 1.64 6.17 2.31 9.28.44 2 .7 4.45-.73 6.17-1.21 1.45-3.46 2.56-4.91.88a1.91 1.91 0 0 0-3.16.83 2.43 2.43 0 0 1-2.09 1.75 41.1 41.1 0 0 0 .92-18.08c-.75-4.2-2.41-10-7.63-10.16-3.83-.12-5 2.58-5.24 5.58a282 282 0 0 1-7.56-82.18c7.56 9.8 15.19 19.59 22.47 29.59m48.13-78.78a157.3 157.3 0 0 1 24.49 50.86 91 91 0 0 0-49.87 52.55c-.26-.82-.54-1.63-.82-2.43 6.9-34.13 22-66.26 26.18-101Zm58 124.34.23-.18a56.48 56.48 0 0 1 43-13.89 4.54 4.54 0 0 0 2.25.27c1.46.2 2.92.45 4.36.77-2.26 5.56-4.56 11.1-6.84 16.66a153 153 0 0 1-10 13.53c-4 5-8.2 9.82-12.32 14.72-.89 1.06-7 9.06-10.75 13.13a29 29 0 0 0-6.65-1.82 46.8 46.8 0 0 0-14.71-.19c8.07-12.74 11.61-27.85 11.37-43Zm59.6 24.44c.08-.28.15-.56.23-.85a4.8 4.8 0 0 0 2.16.12c60.56-10 117-42.31 157-88.77q4.88-5.63 9.38-11.5c-33.66 65.14-91.84 114-150 157.24q-14.19 10.53-28.5 20.88c-2.3 1.67-4.63 3.36-7 5a120.3 120.3 0 0 0-23.58 8.84A367 367 0 0 0 630 267.08a350 350 0 0 0 13.67-39Zm4.76-10.34c23.79-11.2 47.42-22.79 70.09-36.13A444.5 444.5 0 0 0 788 130.85c10.38-9.2 20.47-18.73 30.51-28.3a258.6 258.6 0 0 1-126.3 103 254.3 254.3 0 0 1-43.74 12.16Zm-14.69 11.83a351 351 0 0 1-13.13 36.56 359 359 0 0 1-35.26 63.86l-.11.07q21.39-49.78 42.12-99.87 5.67-13.71 11.28-27.42c.17 9.02-2.3 18.11-4.9 26.8m-95.18 189.45c-12.93 4.72-26.57 6.83-40.28 7.42 5.3-15.83 15.44-30.09 29.62-39.15a63 63 0 0 1 54.38-6.64c-1.75 2.44-3.42 4.93-5.09 7.4-5 7.39-10.45 14.27-17.62 19.69a80.8 80.8 0 0 1-21.01 11.28m-169.77-86.71c-1.05-3.24-2.05-6.48-3-9.75 9.47 7.94 21.47 13.42 31 21.33 8.38 6.92 15.58 17.72 11.87 28.92a5 5 0 0 0-.16.68c-.1.16-.2.33-.29.51a57 57 0 0 0-5.5 20.78 71 71 0 0 0-3.07 4 4.75 4.75 0 0 0-1.42-1.69l-.46-.35A326.4 326.4 0 0 1 370 335.6a4.08 4.08 0 0 0-1.15-3.37M406 405.59a53 53 0 0 1 3.65-5 4.26 4.26 0 0 0 1.75-2c10.8-12 26.15-19.37 40.53-26.4 9.71-4.75 19.49-9.56 28.26-15.94 2-1.46 4-3 5.91-4.61.39-.34.8-.77 1.22-1.18 2.95 25.9-3.5 51.44-10.08 76.34-12.83-3.54-26-4.4-39.14-6.49-11.48-1.84-23.11-5-32.1-12.48 0-.32.07-.65.09-1a5 5 0 0 0-.09-1.24M489.42 349a4.6 4.6 0 0 1 2.61.33 49.5 49.5 0 0 1 12.5 5.67 51.9 51.9 0 0 1 20.2 23.52l-1.35.83c-16.92 10.8-28.95 28-34.6 47.17-2.26 0-4.51 0-6.75-.13a4.12 4.12 0 0 0-2.51.67c6.71-25.4 13.27-51.56 9.9-78.06m79.28 19.33q5-11.43 9.93-22.87a26.78 26.78 0 0 1 5.06 26 67.3 67.3 0 0 0-15-3.1Zm7.2-39.26q-8.42 19.56-16.92 39a73.2 73.2 0 0 0-22.42 4.64 139.6 139.6 0 0 1 14.06-35.51c6.58-11.57 15-21.64 23.44-31.89 7.78-9.5 15.55-19.32 20.5-30.64 2.41-5.52 4.47-11.47 5-17.51a7.67 7.67 0 0 0-3.65-7.65c2.14-2.46 4.15-5 6.24-7.53 5.11-6.08 10.26-12.12 15.32-18.24q3-3.6 5.81-7.32Q600 273 575.9 329.1Zm-26.82-64.24a4.49 4.49 0 0 0 5.47-.49 37.22 37.22 0 0 1 30.4-8.86 33 33 0 0 1 3.93.88l.29.08a140.3 140.3 0 0 1-21.83 31 12.3 12.3 0 0 0-.07-4.15c-.82-4-4.24-6.55-8-7.34a16.9 16.9 0 0 0-9.09 1 17.58 17.58 0 0 0-1.1-12.09Zm14.48 34c.76-2.15 1.82-4.54 2.65-7a141.9 141.9 0 0 0 23.84-32.29c-.38 1.8-.87 3.58-1.41 5.3a67.3 67.3 0 0 1-6.59 14.29c-6.27 10.51-14.15 19.81-21.83 29.27q1.66-4.69 3.34-9.5Zm-1.92-52.39a4.62 4.62 0 0 0-1.06 3.5 46.8 46.8 0 0 0-12.44 8.06 3.88 3.88 0 0 0-1.45 3.16 16.7 16.7 0 0 0-1.94-2 2 2 0 0 0-2.68 0c-1.27 1.22-1.73 2.08-3.31 1s-.89-1.72-.08-3.13a39 39 0 0 0 2.4-3.93c.87-2.07 1.4-4.82 0-6.8a3.91 3.91 0 0 0-3.6-2c.08-.17.16-.34.24-.48a134 134 0 0 0 6-13.79 168.6 168.6 0 0 0 7.93-30.43c3.21-19 3.92-38.3 4.32-57.55 8.36 16.29 15.9 33.35 18.27 51.61s-.69 38.34-12.6 52.85Zm-11.2-53.22a187 187 0 0 1-5.61 26.47 139 139 0 0 1-4.61 13.31c-.42 1-4 10.08-6.19 13a9 9 0 0 0-.73.77 1.21 1.21 0 0 0-1.12-.3 1.87 1.87 0 0 0-2.64-.1c-3.54 2.91-10.65 6.39-11.21-.88-.25-3.11 1-6.12 1-9.22 0-4.62-2.15-10.07-7.48-10a2 2 0 0 0-1.82 1.39 10.05 10.05 0 0 1-2.07 3.74c-1.55 1.28-3.8.67-2.71-1.86.73-1.7 2.39-2.93 3.41-4.45a8.12 8.12 0 0 0 .55-8.75 7.3 7.3 0 0 0-5.06-3.66 6 6 0 0 0 .53-2 72 72 0 0 0 .29-8.19c.18-1 .36-2 .5-3a2.6 2.6 0 0 1 .13-.53c.13-.46.27-.92.4-1.38v-.08c.07-.25.14-.5.22-.76a4.7 4.7 0 0 0 .15-.9c5.48-25.45 23.49-47.49 47.53-57.55-.38 18.5-.89 36.85-3.45 55Zm-51.76 25.9c1.24-2.74 5-4.12 7-1.22 1.85 2.68-.17 5.12-1.86 7.18-2 2.4-3.82 5.59-2.34 8.74a4.79 4.79 0 0 0 6 2.51c2.62-1 4.36-3.5 5.48-6 3.2 1.12 2.47 7.12 2.06 9.69-.51 3.16-1 6.68.4 9.69 3.05 6.41 9.65 4.27 14.4 1.15a7.6 7.6 0 0 0 1.89 2.3 1.91 1.91 0 0 0 3.22-1.34l.45-2 2.72-1.12c.44.51-.22 2.21-.43 2.74a20.4 20.4 0 0 1-2 3.28c-1.24 2-2.41 4.58-1.75 6.94 1.37 4.94 6.16 3.57 9.34 1.34a13.65 13.65 0 0 1 1.74 16.5c-1.08 1.76 1 3.28 2.58 2.58 3.79-1.64 8.38-3.69 12.46-1.91 5.34 2.34 3.36 7.85 1.88 12.12-.13.37-.26.73-.38 1.1-1.77 1.68-3.58 3.33-5.44 4.93-1.11.95.5 2.55 1.6 1.6.76-.65 1.51-1.32 2.25-2q-3.18 9.09-6.35 18.19a1.8 1.8 0 0 0-.09.87 139.4 139.4 0 0 0-11.94 18 148.7 148.7 0 0 0-12.81 31.92 60.84 60.84 0 0 0-27.47-23.78c-4.7-2-10.9-4.86-15.89-2.32-2.33 1.18-4.16 3.18-6.15 4.84a86 86 0 0 1-7.76 5.66 170 170 0 0 1-16.06 9.09c-10.51 5.33-21.33 10.1-31.34 16.37a104 104 0 0 0-10 7.06 46 46 0 0 1 2.11-5.33 5 5 0 0 0 .47-1.73 5.1 5.1 0 0 0 .9-1.62c3.41-10.34-.07-21.1-6.36-29.55-1.28-5-5.8-8.73-9.31-12.88-2.38-2.81-3.69-6.5-6.51-8.95a15.1 15.1 0 0 0-3.51-1.91c-2.83-1.44-2.18-3-.85-5.53 1.53-3 2.26-5.55 1.43-8.89-.94-3.84-2.93-7-2.85-11.12.11-5.59 2.24-11.35.82-16.7a3.94 3.94 0 0 0 1.25-2.15c6.13-5.82 5.52-15.71 4.3-23.71-.39-2.54-2.36-9.2-.05-11.38s6.75.57 8.49 2.3a15.26 15.26 0 0 1 3.9 14.58c-1.15 4.13-5.23 8.25-2.34 12.65 2.16 3.28 6.16 2.47 8.66.06 2.87-2.78 5.31-12.24 10.3-11.58 2.65.35 2.36 3.12 1.65 4.84-.06.15-.14.3-.21.46a1.71 1.71 0 0 0-.85 1.57 20 20 0 0 1-1.33 1.75c-2.05 2.45-4.4 4.7-6.6 7-4.17 4.42-9 8.69-12.6 13.61-2 2.74-4.42 8.35-.71 10.93 6.21 4.32 8.49-7.66 12.42-9 1.7-.56 3.54 1.46 5.28 1.78a6.18 6.18 0 0 0 4-.62c2.91-1.51 4.65-4.61 6.77-7 1.08-1.21 2.38-2.67 4.07-3 3.45-.58 5 3.81 4.24 6.51-1.71 6-10 7.76-14.84 10.2-2.8 1.41-4.77 3.35-7.14 5.35s-5.62 1.77-8.09 3.66c-3.51 2.69-4.68 7.95-5 12.14-.27 3.49.38 8.16 4.12 9.6a6.43 6.43 0 0 0 5.76-.84c.81-.5 5.6-5.14 7.24-4.11a16.1 16.1 0 0 0 .21 20.53c1 1.21 2.69.35 3.16-.83 1.68-4.27 3.82-13.45 10.19-11.64.74.21 2.56.88 2.62 1.78.09 1.26-2.11 1.66-3 2.14a19.1 19.1 0 0 0-5.76 4.34c-4.83 5.64-3.2 15.88 5.5 15.76 10-.13 12.63-10.3 13.69-18.3a34 34 0 0 1 .61-4.13c.35-1.39 1.33-3.59 3.29-3.12 2.5.59 3 5.17 3.47 7.21.84 3.79 2.24 7.35 6.21 8.62a1.92 1.92 0 0 0 2.32-1.31 28.34 28.34 0 0 0 .11-14.2 9.62 9.62 0 0 1 9 2.78 1.93 1.93 0 0 0 3.16-.84c1.76-4.85 3.49-11.13.28-15.78-1.65-2.4-5.4-3.06-6.68-5.51-1.82-3.46 2.08-7.69 5.57-5.94 6.57 3.3 3.55 14.21 5.25 19.93 1.52 5.13 6.22 9.23 11.72 7.94a1.91 1.91 0 0 0 1.31-2.35 2 2 0 0 0-.18-.42c-1.22-2-2.61-4-3-6.38-.29-1.91.69-5.93 3.34-5.59-.06 5.88 2.39 21.76 9.89 17.14 3.31-2 3.4-7.37 3-10.69-.67-4.84-3.23-8.61-6.75-11.86-2-1.85-4.52-3.77-5.35-6.5-1.21-4 1.79-6.71 5.53-4.56 4.39 2.52 5.2 7.92 7.57 12 1.43 2.45 4.61 6.56 8 5.26 2.46-.95 2.71-4.44 2.6-7.52a17.43 17.43 0 0 1 4.27 8.73c.7 3.09 1.71 6.26 4.75 7.75 2.17 1.05 5 1.06 6.71-.81 2.15-2.36 1.44-6.37 1.11-9.26-.74-6.46-3.08-12.87-8.82-16.48-2.82-1.76-6-2.72-9-4.08a16.3 16.3 0 0 1-4.11-2.4c-.55-.49-1.82-1.72-1.84-2.5s1.73-2.47 2.14-3.05a1.88 1.88 0 0 0-.3-2.28l-7.45-7.22c1.55-2.3 5.45-1.46 7.39 0 2.51 1.95 3.85 5.2 5.49 7.83a32.9 32.9 0 0 0 12.81 11.87 1.93 1.93 0 0 0 2.61-.75 1.8 1.8 0 0 0 .16-.38 12.9 12.9 0 0 0-.09-7.84 9.69 9.69 0 0 1 7.47 10c-.09 1.78 2.06 2.29 3.23 1.33 6.08-5 4.06-14.2-1.18-19-6.42-5.86-15.85-6.63-22.55-11.86 3.09-.5 6.27-.64 8.68-2.93 2.18-2.08 3-5.43.93-7.9-1.8-2.11-5-2.21-7.48-1.59-3.47.86-7.66 5.84-11.42 5.86a10.64 10.64 0 0 0-2-10.38c-1.59-1.82-6.33-3-5.63-5.68.61-2.34 2.66-3.39 2.12-6.14-.77-3.95-6-4.72-9-3-4.52 2.54-4.24 12.88-8.9 14.34a56 56 0 0 1-.8-6.94c-.08-1.65.38-3.64-.73-5-1.35-1.7-3.93-1.55-5.56-.29a6.4 6.4 0 0 0-1.93 3.08 12.35 12.35 0 0 1-4.8 6.43c-1.76 1.29-3.86 2.6-6.1 2.71a6 6 0 0 1-4.22-1.3c-1.35-1.31-1.64-4.64 1.11-4.93 1.23-.13 2.6-1.58 1.63-2.84-4-5.24-11.58-2.29-14.12 3-2.11 4.41-1.15 9.53-2.74 14.06a12.75 12.75 0 0 1-9 8 3 3 0 0 0-.47-.32c.91-5.39.42-12.07-6.05-13.08a5.6 5.6 0 0 0-5.7 2.63 5.91 5.91 0 0 0-5.61-4.06c-5.21-.09-8.08 4.77-10.25 8.7-.52.95-1.61 3.66-2.72 4l-1.62-.41c-1.43.2-1.92-.19-1.48-1.19-.23-1 .78-2.18 1.21-3a21 21 0 0 0 2.43-7.3 19.22 19.22 0 0 0-2.58-11.69 1.8 1.8 0 0 0 .29-.73 62 62 0 0 0 .8-14.06c2.87-.6 5 2.76 5.68 5.27s.44 5.34.76 8c.4 3.43 1.52 7 4.37 9.21 2.11 1.61 4.44 1.91 6.25-.18 1.47-1.7 2.24-4.3 3.23-6.32.72-1.49 1.45-3 2.17-4.45l3.85 8.41a1.89 1.89 0 0 0 1.63.94 4.9 4.9 0 0 0 4.66-2.44c1.68-2.54.49-5.23 1.43-7.86s5.12-3.07 6.63-5.66a8.65 8.65 0 0 0 .83-5.47c-.6-4.73-5.26-9.81-3.76-14.7 1.32-4.32 4.92-.94 5.87 1.72.87 2.46.7 5.13 1.16 7.68.54 3 2.55 8.6 6.57 8.38s5.33-7 5.42-10a51 51 0 0 0-.54-7.21 21 21 0 0 1-.38-4.12c.34-3.33 2.56-4 4.15-1 3.46 6.62 2.08 16.37-.1 23.1a1.9 1.9 0 0 0 .87 2.14 6.38 6.38 0 0 0 7.78-1.52c3.69 1.77 8.58-1.14 10-5 1.33-3.56 0-7.43-1-10.89-1-3.2-2.37-9.12 1.22-11.07a78 78 0 0 1 5.51 10.89c.44 1.38 2.61 2.18 3.36.52Zm-112.15-30.56a163.2 163.2 0 0 0 12.33 49.3 7.75 7.75 0 0 0-3.86.64c-6.17 2.79-3.36 11.92-2.61 17s1.3 11.62-1.22 16.35a4.16 4.16 0 0 0-1.31-2.34c-10.22-9.82-12.08-24.65-11-38.15 1.19-14.57 5.58-28.64 6.88-43.17Zm47 76.06c-1.15-1.43.73-2.64 2-2.55 1.64.1 2.61 1.21 3.19 2.74.93 2.42.1 5.24-.61 7.67-1.68.28-3.61-.11-5.25.34a9 9 0 0 0-1.53.58 9.06 9.06 0 0 0 1.92-5.92 2 2 0 0 0 .28-2.82Zm52.38-11.23c.08.62.18 1.24.28 1.85a4.07 4.07 0 0 0-3.45 1 5 5 0 0 0-1.47 2.1 3.63 3.63 0 0 0-2.46-2.59 19.4 19.4 0 0 0 3.91-3.87 10 10 0 0 0 1.06-1.81 17 17 0 0 0 .72-2.19c.84-1.91 1.16-1.92.94 0 .48 1.52.21 3.84.43 5.51Zm17.72 1.84a6.4 6.4 0 0 0 .84.6 5.64 5.64 0 0 0-2.61-.26 4.2 4.2 0 0 0-6.1-.27 13 13 0 0 0 .92-1.72c1-2.2 1.24-4.66 2.31-6.81 1.46-3 6.51-4.28 4.33.46-1.4 3-2.82 5.47.27 8ZM531 291.29a9.17 9.17 0 0 1 1.62 5.49 29.4 29.4 0 0 1-5.54-4.52 6.34 6.34 0 0 0 3.55-4.95 4.73 4.73 0 0 1 4.25 1.15 12 12 0 0 0-2.25 0 1.9 1.9 0 0 0-1.87 2 1.9 1.9 0 0 0 .24.83m-15.21 25.41c-.74.65-2.37-1.8-3.28-3.39a5.57 5.57 0 0 0 3.56-2.9c.13 2.05.43 5.67-.28 6.29m-16.54 7.14a1.18 1.18 0 0 0 .9.46 3.7 3.7 0 0 1 1.57.25c.28.14.89.62.66 1-.39.66-1.85-.65-2.16-.95a1.08 1.08 0 0 0-.92-.3c0-.14 0-.3-.05-.46m5.23 2.58v-.15a3 3 0 0 0 .1.48c.24 1.51.81 8.1-2.25 6.34-1.35-.78-2.21-4.29-2.6-6 1.67 1 3.86 1.52 4.75-.67m-3.23-4.3v-.79a1.17 1.17 0 0 0-2-.78 15 15 0 0 1 .18-1.84 1.82 1.82 0 0 0-.94-1.63 6.6 6.6 0 0 0-1.6-.54l.59-.48.16-.2c1.2 1.2 2.41 2.34 3.41 3.44a14.5 14.5 0 0 1 2.45 3.7 4.4 4.4 0 0 0-2.25-.88m-38.77 20.73c-1.45-1.73-1.64-4.63-2.14-6.68-.13-.54-.28-1.08-.46-1.6a6.16 6.16 0 0 0 2.06-1.87 24.1 24.1 0 0 1 .54 10.15M444.7 292a1.16 1.16 0 0 0 .79.79c.48.07 1 .14 1.5.24a17.9 17.9 0 0 1-4.15 1 11.3 11.3 0 0 0 1.61-2.85c.08.23.16.52.25.82m18 28.83c.26 2.91 2.14 3.73 4.68 2.69a14 14 0 0 0 1.84-1.07l.8-.52c2-1.54 2.75 0 2.19 4.76-1.9.8-4.44-1.46-6.54-1.16-3.14.44-4 5-6.19 6.64 1.1-2.31 2.61-4.61 1.9-7.17-.48-1.74-2.07-3.67-4.07-3.51s-2.78 1.9-3.34 3.52c-.41 1.2 0 2.14-1.31.33-1.18-1.59-.6-1.47 0-3.14a7 7 0 0 0 .56-3.67 5.8 5.8 0 0 0-.45-1.43 2.5 2.5 0 0 0 .65-.15 3.26 3.26 0 0 0 .59 2c4 5.57 8.65-3.7 12.19-4.48-2 1.53-3.77 3.59-3.52 6.34Zm-20.17 17.63a3.26 3.26 0 0 0 .86-2.43l.23-.27.13-.2a48 48 0 0 1-.06 5.37l-.22-.33c-.33-.41-1-.7-1.24-1.13q-.14-.29-.24-.57a3 3 0 0 0 .52-.46Zm1.72-10.78a1.06 1.06 0 0 0-.43.26 3 3 0 0 0-2.15-.83 7 7 0 0 0 1.32-3.2 6.7 6.7 0 0 0-.07-2.37c.83.69 1.25.38 2.26.56a8 8 0 0 0 1-.2l2.82 2.48c.3 1.45-3.87 3-4.77 3.28ZM426.06 318a5.61 5.61 0 0 0 .3-5.06c-1-2.13-4.37-3-4.4-5.49a36 36 0 0 1 3.83-3.26 4.6 4.6 0 0 1 1.13.4 5.8 5.8 0 0 1 1.81 2.6 8.2 8.2 0 0 0 1.92 2.53 5.36 5.36 0 0 0 3.08 1.09 11.3 11.3 0 0 0-.89 6.53 1.78 1.78 0 0 0 2.05 1.35c1.23 1.64 0 4.32-1.29 5.8-.47.52-1 1-1.48 1.51q-1.85 2.58-4.61 0c1-1.2 3-.64 3.38-2.66.46-2.5-2.46-4.61-4.83-5.34m14.71-21.8a3.3 3.3 0 0 1 .75.15 14.8 14.8 0 0 1 2.81-.24 18.5 18.5 0 0 0 2.44-.59c0 1.89.55 4 2.14 4.43-1.12.46-2.16.94-3.08 1.37a4.06 4.06 0 0 0-2.36-2.56c-.62-.29-1.51-.25-2.08-.56l-.91-.19a3.1 3.1 0 0 1-.43-1.21l.72-.65Zm8.34-2a2 2 0 0 0 0-.35l1.22.67c-1.46 1.72-1.86 1.61-1.22-.38Zm-9.95 5.8.72.23 1.82.37c-2.19 1.83-3 1.61-2.54-.66Zm-2.23.07a6.26 6.26 0 0 0 1.73 5.12c-.29.2-.58.42-.85.64a3.43 3.43 0 0 0-.95-1.62 4.57 4.57 0 0 0-2.09-1c-.6-.11-1.19-.22-1.78-.35 1.06-2.26 2.38-3.19 3.94-2.84Zm-5.69 29.2c4.1-2.06 8.19-7.49 6.08-11.19 3 1.31 4.63 5.37 2 8.25-1.9 2.12-5.25 2.69-8.08 2.88Zm6.82-13.27c1.46-.73 3.36-.52 5.19-.11-.12.15-.25.29-.36.45a5.53 5.53 0 0 0-1 2.83 8.26 8.26 0 0 0-3.83-3.23Zm9.64 3.41c-.35 0-.86.22-1.2.12l-.91.22c-.12-.89-.25-1.79-.37-2.69h2.85c.63.11 1.28.18 1.92.23.28 1.12.55 2.23.83 3.35a2.5 2.5 0 0 1-.15.65 3.72 3.72 0 0 0-3-1.94Zm17.27-7.1a6.3 6.3 0 0 0-2.18 1.22 13.3 13.3 0 0 0-1.54 1.64c-1.17 1.32-1 2.39-2.45.4-1.35-1.83-.82-1.31.63-2.22a13 13 0 0 0 1.61-1.13 6.75 6.75 0 0 0 2.28-4.83 8.2 8.2 0 0 1-.1-1.64c.69-1.42 3.46-.22 4.15.52a1 1 0 0 0 1.41.13 2 2 0 0 0 .13-.13 9.16 9.16 0 0 0-1.48 6 4.46 4.46 0 0 0-2.43 0Zm4.22-6.48a1.09 1.09 0 0 0-.22-1.2 5.48 5.48 0 0 0-6.68-1.3c.8-1.91 1.81-3.29 3.1-2.71 1.65.74 2.13 3 4.2 3.52a4 4 0 0 0 1.08.12 8.8 8.8 0 0 0-1.48 1.51Zm-8.19 1.41a4.2 4.2 0 0 1-.4 1.42c.1-.43.23-.92.4-1.42m-4 .66c-.88 2.4-2.18 4.59-4.77 5.3-2.18.59-4.23-.07-6.36-.63-2.78-.74-6.08-1.19-8.77-.27 1.35-2.92 4.59-5 7.48-6.3 1.09-.5 7.12-3.51 10.42-3.92a1.4 1.4 0 0 1 .08.58c-.1 1.8 2 2.26 3.08 1.38-.4 1.3-.73 2.61-1.16 3.86m-5.2-15.13a4 4 0 0 0-.54-.49c-1.48-1.08-4.46-.86-4.83-2.67 1.28-2.44 2.6-3 4-1.72.54.42 1.08.83 1.64 1.23a7.4 7.4 0 0 0 2.31 1.05 11.8 11.8 0 0 0-2.62 2.6Zm-22.17 9.36a2.2 2.2 0 0 0 .09.5c.51 1.65 1.79 1.82 3.15 2.43 1.16.53 2.53-.36-.18 1.05-2 1-1.4 1-2.17-.58a6.8 6.8 0 0 0-1.69-2.43l-.51-.36a14 14 0 0 1 1.27-.61Zm-9.6 6.81a5.6 5.6 0 0 0 1 1.87c.54.67 1.35 1 1.89 1.61l.87 1.42c1.39 1.24 1.16 1.87-.67 1.89-2.13.66-1.48.24-2.54-1.07a6.51 6.51 0 0 0-8-2.15c1.56-1.63 3.66-1.72 6-2.74a11 11 0 0 0 1.42-.83Zm-5.39 5.18c2.55-.13 3.62 1.47 5 3.23a14 14 0 0 0 1.26 1.49 10 10 0 0 0-1 .92c-1 1-1 2-2.57 2.86a4.63 4.63 0 0 1-6.33-1.72 5 5 0 0 1-.39-.89 4.52 4.52 0 0 1 2.94-5.69 4.2 4.2 0 0 1 1-.2Zm-4.23 9.72a6.56 6.56 0 0 0 4.6 1.59c-1.24 1-2.75 1.94-4 1-.84-.6-1.1-2-1.17-3.21a8 8 0 0 0 .53.62Zm16.4-3.09c2.29 1.51 1.18 1.93 0 2.91-1-1.47-3.37-2.17-5.21-2 1.4-1.51 2.84-2.46 5.17-.91Zm-3.51 13.68a12.7 12.7 0 0 1 1.07-4.05 7.1 7.1 0 0 1 1.23-1.74 3.42 3.42 0 0 0 4 1.18 1 1 0 0 0 .14 1.34l.13.1c-2.88 2.2-4.38 5.64-5.65 9.06a12 12 0 0 1-1-5.89Zm19.7-2.22a2.9 2.9 0 0 1-.4 1.2 7.6 7.6 0 0 0-2.2-2.43 8.2 8.2 0 0 0-1.73-.91c2.07-.87 4.61-1.36 4.33 2.14m-3.5 7.79c.55.8 1.52 1.08 2.12 1.84l.59 1q-1.79 5.88-5.78 2.36a9.3 9.3 0 0 0-2.79-1.29c.15-.17.29-.33.44-.48a18.6 18.6 0 0 1 4.71-3.14 5 5 0 0 1 .66-.28Zm2 8.37a6.7 6.7 0 0 1-1.57 1.49c-1.48 1-5.73 2.18-6.92 0 .44-3 1.17-3.87 2.21-2.73a7 7 0 0 0 .57.49c.57.19 1.07.64 1.66.84a5.86 5.86 0 0 0 4-.09Zm-1.67 4.1a11 11 0 0 0 1.53-.87 9.4 9.4 0 0 1-1.09.78c-2.16 1.28-5.36 2.06-7.42.18a5.5 5.5 0 0 1-.56-.63 9 9 0 0 0 7.45.54Zm6.34-16c-.08-2.45-.29-4.82-.38-6.86a12.1 12.1 0 0 0 3.92-2.26 5.2 5.2 0 0 0 .49 1.26 5.6 5.6 0 0 0-1.52 1.22c-1.68 1.68-2.26 4.09-2.6 6.59Zm9.83-10.09c.53-1.51 0-2.05 1.94-1.3s1.11 2.56.38 4.34c-.17.41-.36.81-.54 1.2a7.9 7.9 0 0 0-2.72-2.1 10.2 10.2 0 0 0 .85-2.19Zm11.58 1.85h-.84a3.8 3.8 0 0 1 .75-.05Zm8.61-1.5a25 25 0 0 1-.91 3.79 13.5 13.5 0 0 0-3.75-1.76 4.8 4.8 0 0 0 4.57-2.08Zm-2.9-7.84a5.92 5.92 0 0 0-4.37 1.11c-.6.35-2.24 1.76-2.89 1.69-3.61-.41 1.14-4.84 2.75-6.21 1.18 1.53 3 2.35 4.6 3.44Zm-5.16-20.95c-2.76-2.8-6.15-2.13-8.09 1.25-.1.19-.2.38-.29.58a4.3 4.3 0 0 0-2.95-1.52c-1.06-1.11-2.12-2.32-1.24-4.1.58-1.17 2.41-1.86 3.43-2.71 3.36-2.81 6.08-7.32 4.29-11.73-.62-1.53-1.9-5 1.59-3.29 2.05 1 2 3.52 2.08 5.42.14 2.3.59 4.5 2.48 6a4.44 4.44 0 0 0 4.55.79c1.6-.69 2.19-2.56 3.41-3.44a12 12 0 0 0 1.67-.47c2 .07 3.65 1.23 5.73.64a5.4 5.4 0 0 0 2-1.06c.42-.33.78-1 1.22-1.27l.58-.68q3.69.06 3.46 2.71c.88 4.3-4.42 2.74-6.95 3.07a13.2 13.2 0 0 0-6.1 2.37 19.7 19.7 0 0 0-4.79 5.65c-.87 1.35-1.62 3.37-3.36 3.53s-1.74-.68-2.83-1.79Zm-6.64-41.62a3.7 3.7 0 0 1 .83-.6 7.8 7.8 0 0 0 1.25 1.38 14.4 14.4 0 0 1 .21 2.08c.37 2 1.09 3.79 3.45 3.93s3.88-2 5.47-3.49 6.82-3.53 6.41.52c-.23 2.3-3.29 3.87-5 5-3.39 2.19-7 6.3-4 9.92a8.6 8.6 0 0 0-.48 1.22 8.07 8.07 0 0 0-3.28-3.22c2.26-3.17.17-7.81-2.18-10.65-.58-.71-4.75-4.77-4.4-5.39Zm25.16 1.68a1.92 1.92 0 0 0 1.82 1.38h.35a6.8 6.8 0 0 1 1.09 2.29 5.2 5.2 0 0 1 0 3.22 8 8 0 0 1-.76.53 21.7 21.7 0 0 1-5.83 2.19 34 34 0 0 0 0-3.79c-.09-1.43-.59-4.37.52-5.49a3 3 0 0 1 2.85-.46.7.7 0 0 0-.04.13m6.25 8.41c.32 2.1 1.52 3.94.79 6.18a5.24 5.24 0 0 1-4.22 3.46c-5.9.65-1.41-5.18-.4-6.17a12.8 12.8 0 0 0 2.52-3.33 14 14 0 0 0 1.28-1.16 3.7 3.7 0 0 0 0 1.05Zm6.19-4.05a3.3 3.3 0 0 1-.84.48c-1.16.4-2.58-.16-3.73.39l-.4.22c1.28-2.65 3.29-7.47 5.34-6.82a4.4 4.4 0 0 0-1.16 1.9 3.78 3.78 0 0 0 .79 3.86Zm-4.3 13.08c1.81-2.5 1-4.8 1-7.56 0-1.4-1.73-1.35 1-2.69.32-.15.83.07 1.2-.05a6.6 6.6 0 0 0 3-1.37l.2-.2c.07-.07.34.14.52.23 2.16 1.06 3.33 2.26 3.28 3.82a5.9 5.9 0 0 0-2.59 1.64 3.15 3.15 0 0 0-.31 3.3 13.1 13.1 0 0 1-8.48 4.09 7 7 0 0 0 1.18-1.18Zm12.33-13.2a4.7 4.7 0 0 1 0 3.18 6 6 0 0 0-.29-.74 4.9 4.9 0 0 0-1.68-2 5.6 5.6 0 0 0-1.07-.53c-.53-.2-1.06-.36-1.61-.51a7 7 0 0 0 .3-.81c.51-.9 1-1.8 1.55-2.7 1.28-.31 2.57 3.41 2.8 4.14Zm-8.41 33.1c-.06-.44-.08-.88-.16-1.32a9.2 9.2 0 0 0-.72-1.78 6.8 6.8 0 0 0-2.83-2.54c.74-1.34-.13-3.07-.24-4.75 1.11 1.43 3.48 2.17 3.48 2.46v4.28c0 1.09 1.67 2.9 1.31 4 .16 2.11.7 2-.8-.32Zm-6.51 9.46c-.78-2.73-.67-5.48 3-4.92a6.53 6.53 0 0 0-2.3 2.77 8.7 8.7 0 0 0-.7 2.18Zm-7 12.56c0-1-.07-.59-.15-3.61a3.85 3.85 0 0 0 2.58-.85c2.4-1.71 5.86-1.46 7.18 1.81a1 1 0 0 0 0 .26c-2 1.23-4.06.88-6.48 1.16a4.56 4.56 0 0 0-3.11 1.26Zm4.33-15.16c-.55 3 .9 5.5 2.49 8a3.3 3.3 0 0 0-.53-.1 6.37 6.37 0 0 0-3.88.68c-.33.18-.9.87-1.25 1-.82.88-.84.16-.06-2.14a17 17 0 0 1 2.12-.41 1.12 1.12 0 0 0 .79-.8c1.64-5.83-5.22-5.32-9.16-5.37 1-1.19 4.66-2.49 5.07-4s-.84-3.12-2.28-3.62a4.5 4.5 0 0 0-3.68.11 10.8 10.8 0 0 1 2.1-2 9.66 9.66 0 0 1 5.05-1.73 3.4 3.4 0 0 0-.14 3.43c1.27 2.42 4.44 1.95 6.67 2.85a5.46 5.46 0 0 0-3.29 4.13Zm-10.62-2.15a1.57 1.57 0 0 0 1 .19c-.39.23-.9.45-1.31.73a1.18 1.18 0 0 0 .33-.89Zm15.51-19.66a6.4 6.4 0 0 0-1.5-1.49 20 20 0 0 0 3.39-.17 5.4 5.4 0 0 0-1.37 2.6 6 6 0 0 0-.5-.91Zm5.86 4.67c-1.91-.21-2.13-1.08-.64-2.61.32-2.18.81-2.56 1.46-1.16a6.8 6.8 0 0 1 1.34 2.59 11.4 11.4 0 0 1 .39 1.84 1.2 1.2 0 0 0-.89-.45Zm-14.12-15.94a10 10 0 0 0-.79.83 4.74 4.74 0 0 0-.66 5.39 5 5 0 0 0 2.25 2.32 13 13 0 0 0-1.78.91c-1.33.79-2.74 1.87-4.24 2.77-1.92-.3-3.66-1-5.53.15a4 4 0 0 0-1.1 1.23c-2.65-.83-3.36-3.57-2.56-6a.7.7 0 0 1 .09-.21c3.55 2.14 8 0 10-3.45A10.6 10.6 0 0 0 483 270c1.07-.27 2.13-.54 3.18-.85Zm-14.19 15a1.2 1.2 0 0 1-.64-.46 5.4 5.4 0 0 0 .67.51Zm1-9.64a10.64 10.64 0 0 1 3.88-2.71 24.5 24.5 0 0 1 3.54-1.19 6 6 0 0 1-.54 1.27c-1.23 2.15-4.18 4.18-6.71 2.75Zm7.81-6.29c-3.52.83-6.95 1.8-9.38 4.63-.77-1.95 1.24-4.14 2.93-5.31 2.15-1.49 4.45-2.56 5.9-4.86a6 6 0 0 0 .38-.67c0 2.08.31 4.26.21 6.26Zm-5.58 33a14 14 0 0 0 1-1.45 10 10 0 0 0-.28 2.82 6.1 6.1 0 0 0-2 0 15 15 0 0 0 1.32-1.3Zm6.6 3.95c.58 0 7.4-.46 4.94 1.94-.63.62-2.51.67-3.35 1.32a.2.2 0 0 0-.07.07 13.5 13.5 0 0 0-2.42-3.28Zm4.2 17.09a3.3 3.3 0 0 0 2.48-.23c-.84 3 .26 6.2 1.76 9-3.29-1-4.51-5.61-4.89-9.18a2.4 2.4 0 0 0 .69.48Zm4-3.1a1.11 1.11 0 0 0-1.37.11c-.39.36-2.61 1.7-1.16.26a2.24 2.24 0 0 1 2-.78h.86a3.3 3.3 0 0 1-.36.48Zm6.51-20.95c-1.63-2.57-4.11-2-6.54-3.17a6.2 6.2 0 0 1-1.27-.46 3 3 0 0 1 .45-2.62 7.6 7.6 0 0 0 2.61.12 4.7 4.7 0 0 0 1.57-.62 5.6 5.6 0 0 1 1.2.6c2.21 1.48 1.55 3.79 2.48 5.87a4.2 4.2 0 0 0 .67 1 5.3 5.3 0 0 0-1.1.24 1 1 0 0 0-.07-.89Zm5.73.73a5.9 5.9 0 0 0 .82-3.3c.05-.72.07-1.44.08-2.16l4.39.07c-.26 2.36-1.59 3.59-3.16 5.63a9 9 0 0 0-.79 1.13 13 13 0 0 0-1.86-.83 4.5 4.5 0 0 0 .52-.45Zm10.55 7a6.77 6.77 0 0 0-2 3.94 35 35 0 0 0-2.55-5.19c.43-.19.85-.4 1.26-.56l1.84-.71 2.7 1.47c0-.07-1.07 1-1.25 1.14Zm1.67 1.68a9.4 9.4 0 0 1 1.17-.81c-.78 1.43-1.45 3-2.62 3.79a4.72 4.72 0 0 1 1.45-2.92Zm7.3-1.2c1.74.67 3.92 2.35 3.32 4.6a3.9 3.9 0 0 1-.85 1.32 19.1 19.1 0 0 0-5.41-4.76 1.7 1.7 0 0 0-1-.26c.9-1.08 1.92-1.63 3.94-.84Zm7 17.4a6.7 6.7 0 0 1-.49-1.13c-.58-1.88-.92-3.76-1.51-5.58a2.46 2.46 0 0 1 1.36-.59c3.61 0 2 5.11.62 7.36Zm2.15-8.66c-1.47-1.71-2.22-.82-3.93-.59-.28 0-.71.46-1 .42l-.38-.7a12 12 0 0 1 1-1.34 6 6 0 0 0 1.08-2.65 5.2 5.2 0 0 0-1.68-3.89 13 13 0 0 1 3.63 3.33 21.2 21.2 0 0 1 3.44 9.92c.18 1.42.71 3.82.26 5.23-.68 2.1-1.94 1.87-3 .86 2.41-2.72 3.22-7.45.56-10.53Zm-11.51-11.52a4 4 0 0 0-2.62 1.52 4 4 0 0 0 0-.49c0-1.81-1.86-3.19-3.49-3.52a6.66 6.66 0 0 0-3.58.52 12.5 12.5 0 0 1-3.12.95l-.41-.39a5.5 5.5 0 0 1 1-2.64 28.6 28.6 0 0 0 2.23-4.15 6.3 6.3 0 0 0 .43 1 11.64 11.64 0 0 0 4.38 4.48 36 36 0 0 0 5.61 2.65 2 2 0 0 0-.43.07m-9.57-11.42a1.14 1.14 0 0 0-1.09-.85l-4.28-.07a13 13 0 0 0 .5-6.69l6.07 5.87a15 15 0 0 0-1.2 1.74m-6.25-11.3c-.93-1.62-2.33-3.17-4.1-3.36a22.5 22.5 0 0 0 4.15-3.25c2.09 1.31 4.56.27 6.48-1 1.7-1.1 1.09-1.24 3.34-.21s1.81 1 1.83 3.22v1.28c-4.12-2.05-9.8-1.2-11.7 3.32m22.19-.73a1.17 1.17 0 0 0 .7-.23 7.6 7.6 0 0 1 1.24.95 8.66 8.66 0 0 1 2.11 3.25 7.38 7.38 0 0 0-5.43 4.79c-.19-.26-.37-.53-.55-.8-1.14-1.8-2.17-3.74-3.38-5.54.76-.33 1.12-1 1.74-1.51a6.5 6.5 0 0 1 2.6-1.51 1 1 0 0 0 1 .6Zm2.62 7a4.13 4.13 0 0 1-2 2.88 5.06 5.06 0 0 1 2-2.89Zm11.76 1c-.25-.18-.07-.69.08-.86a1.42 1.42 0 0 1 1.39-.17 5.27 5.27 0 0 1 2.38 2.27 1.17 1.17 0 0 0 .76.48 8 8 0 0 1 .47.79 9.44 9.44 0 0 1 .94 6.53 13.73 13.73 0 0 0-6.05-7.08 1.25 1.25 0 0 0 .19-1.75 1.2 1.2 0 0 0-.2-.19Zm-2 1a7 7 0 0 0-5.6-4.23.8.8 0 0 0 0-.22 24 24 0 0 0-1.71-3.54c1.84.74 3.7 1.47 5.51 2.3a33 33 0 0 1 3.16 1.62 3 3 0 0 0-1.4 4l.06.12Zm-16.66-10.83c-2 .76 1.28 1.43-2.3.43-2-.57-1.63-.5-1.67-2.48a28 28 0 0 0-.1-3.29l.13.18a22.3 22.3 0 0 0 5.34 4.33 11 11 0 0 1-1.38.88Zm-3.11-8.33a2 2 0 0 0-1.33 1.58 4.2 4.2 0 0 0-.58-1 3.8 3.8 0 0 0-1.11-.92c2.69-.79 5.09-2.89 7.78-4.49a8.56 8.56 0 0 1 3.88-1.32c2.67-.13 3.1 2.7.82 4-2.75 1.64-6.45 1.07-9.44 2.2Zm-8.44.61c-1.65 1.06-1.09 1.21-3.25.22l-.29-.13a8.3 8.3 0 0 0 .73-1.77 4.3 4.3 0 0 0 .91-.45 4.8 4.8 0 0 0 .87-.88 1.78 1.78 0 0 0 .92 1.56 8.6 8.6 0 0 0 1.56.57 13 13 0 0 0-1.39.93Zm-.08-5.59a10.68 10.68 0 0 0-3-7.81c-.13-.12-.26-.22-.4-.33a7 7 0 0 1 2.57 2 6.73 6.73 0 0 1 .85 6.19Zm-17.62-3.21a10.4 10.4 0 0 0-.53-1.83 7 7 0 0 0-.49-1 8 8 0 0 0 3-2 46 46 0 0 0-2 4.88Zm-26.24-3.3a10.4 10.4 0 0 0 3.89.72c-2.69 2-3.51.92-3.89-.72m-4.84-7.46a4 4 0 0 0-3.76 1.44 7.2 7.2 0 0 1 1.87-3.33 6.9 6.9 0 0 1 3.71-1.85 6.3 6.3 0 0 0-1.84 3.74Zm-4.36 4.57a.06.06 0 0 0 0 .06c.68 3.33 3.73 5.72 5.75 8.23 1.5 1.87 4.11 6.36 1.39 8.3a5.54 5.54 0 0 0-3 .49c-1.42-.81-1.42-3.65-1.91-5.21a4.85 4.85 0 0 0-3.6-3.23c.86-2.79 1-5.74 1.35-8.64Zm-3.13 12.43a1.15 1.15 0 0 0 .88-1l2.46 1.61c.1.55.19 1.1.26 1.66A9.1 9.1 0 0 0 458 273a4.8 4.8 0 0 0 1 1.34 4.57 4.57 0 0 0-.37 4.61c.94 2.25 2 3.63.85 6.11a8.2 8.2 0 0 1-.89 1.44 3.3 3.3 0 0 0-.69-1.44c-.93-1.12-2.52.49-1.61 1.61-.86 1.57-1.89 1.76-3.07.56l-.83-.61a14 14 0 0 0-2.61-1.64 4.28 4.28 0 0 0-3.82.07 3.4 3.4 0 0 0-1 .86 10 10 0 0 0-.47-1.6c.84-.53 1.53-1.35 2.46-1.82 3.06-1.56 6.09.87 9.33.69a1.16 1.16 0 0 0 1.12-1.18c.14-2.08.08-4.39-1.19-6.14-1.45-2-4.58-1.8-6.58-2.82a1.06 1.06 0 0 0 1-1.1 1.1 1.1 0 0 0-.07-.32 16.3 16.3 0 0 0 3.09-3.59Zm-6.75 5.86a5.6 5.6 0 0 0 3 1.63c1.37.33 3 .12 4.13 1.23a5.25 5.25 0 0 1 1.14 4c-2.28-.3-4.13-1.81-6.39-1.71a4.8 4.8 0 0 0-2.59 1c-.51.34-1.94 2.09-2.41 2a1.5 1.5 0 0 1-.65-.21l-.18-.22c-.19-.48.53-1.2.7-1.53.94-1.85 1.59-2.85 1-5.06a1.5 1.5 0 0 0-.07-.26 19 19 0 0 0 2.3-.87Zm-5.17 4.93a11 11 0 0 0-1.08 1 6.3 6.3 0 0 0-1-.44c-3.43-1.2-6.57.68-8.91 3.07.15-3.06-1.31-6.26 2.71-7.42 1.56-.45 3.22 0 4.81-.09a1.83 1.83 0 0 0 1.44.7 17.5 17.5 0 0 0 2.6-.26 6 6 0 0 1-.59 3.44Zm-13.39-.07a13.44 13.44 0 0 1-1.53 8.54c-1.34-.86-2.95-1-4.37-2.08-5.13-3.85 2.52-7.92 5.71-9.44l.58-.31c-.75 1.17-.56 2-.41 3.29Zm-8.79 7.23c1.35 1.85 3.88 1.71 5.56 2.77a3.6 3.6 0 0 1-3.48.47c-1.83-.74-3-1.91-5.13-1.56a6.75 6.75 0 0 0-3.74 2.24 31 31 0 0 0-2.9 4c-.75 1.13-4.6 6.35-3.52 1 .66-3.28 4.33-6.17 6.5-8.47l6.32-6.71-.12.25a6.36 6.36 0 0 0 .51 6.01M431 268.23a7.24 7.24 0 0 1-.88 3.07c-1.14 2-3.19 2.51-5.14 3.45a18 18 0 0 0-1.81 1 37.3 37.3 0 0 0 5.85-6.94Zm30.85-53.18a1.05 1.05 0 0 0 1.28.78l.21-.07c.59 4.55 1.59 9.93-1.47 13.45-2.85-1.8-2.59-6.6-3-9.53a14.53 14.53 0 0 0-2.82-7.38c-3-3.68-8.66-3.48-10.65 1.09-2.39 5.47 1.36 10.34 2.81 15.38.69 2.39 1 4.81-1.37 6.39-1.36.92-3 1.21-4.12 2.47a6.65 6.65 0 0 0-1.52 3.37c-.28 1.4.18 5.51-1.3 6.66l-3.36-7.34c2.22-.05 4.22-1.47 3.86-4.31-.88-6.94-1.81-13.86-5-20.21a35.7 35.7 0 0 0-4.08-6.36 4.3 4.3 0 0 0 .12-1.75c-1.83-15.35-3.53-31.06 2.29-45.79 5-12.57 12.29-24.58 19.6-36.1a284.3 284.3 0 0 0 8.51 89.29ZM431.37 236a4.8 4.8 0 0 0 .33 1.27l-3.42 7c-.79 1.61-2.26 7.12-4.66 5.75C420 248 421 240 420.52 236.7c-.89-5.89-6.17-12-12.52-8.71a1.85 1.85 0 0 0-.93 1.63 58 58 0 0 1-.27 12.2 15.35 15.35 0 0 0-5.2-3.3 159.2 159.2 0 0 1-12.68-48.68A193.5 193.5 0 0 1 414 205.52c4.57 3.4 9.1 7.28 12.15 12.16 3.46 5.51 4.41 11.96 5.22 18.32m-53.9 48.15c1.57-.89 3.16-1.74 4.76-2.57.75-.4 1.51-.78 2.27-1.16a4.63 4.63 0 0 0 2.33.6c1.32 5.35-1.36 11.52-1 17 .2 3.36 1.7 6.21 2.65 9.37a8.4 8.4 0 0 1-.73 7.08 15 15 0 0 0-1.62 3.74 5.88 5.88 0 0 0 1.51 5.79 10.6 10.6 0 0 0 3.21 1.55 9.52 9.52 0 0 1 4.52 4.32 73 73 0 0 0 2 3.05c-4.9-3.38-10.13-6.36-15.11-9.5-8.94-5.63-18.61-12.85-21.62-23.53-.77-2.73-1.37-3.91.88-5.56 2.54-1.87 5.19-3.61 7.85-5.3s5.34-3.37 8.1-4.91Zm-13.28-2.61c-3.88 2.49-9.48 5.23-12 9.21A8.3 8.3 0 0 0 351 294a4.5 4.5 0 0 0-.59 3.38c1.86 9.35 4.15 18.6 6.81 27.74q-3-1.77-5.9-3.57c-25-18.49-45.16-44-50.88-74.72.16-3 .43-6.15.84-9.5a156.5 156.5 0 0 1 70.08 39.84c-2.45 1.37-4.82 2.82-7.15 4.33Zm-29.27 29.31a163 163 0 0 1-22.08-18.43c-3.47-3.51-11.85-13.28-12.57-36.31 6 21.1 18.61 39.56 34.65 54.71Zm36.87 77A190.5 190.5 0 0 0 280 370.46c2-10.22 3-20.75 11.58-27.93a29 29 0 0 1 28.65-5c14.39 18.92 32.77 35.32 51.56 50.34Zm23.89 24.22.23.15c-3 8.34-11.39 14.13-20.08 15.65-12.62 2.21-25.16-3-35.72-9.42-19.12-11.7-35.85-27.35-54.89-39.19a182.34 182.34 0 0 1 110.46 32.78Zm-52 18.51c-48.23 34-103.55 55.38-155.42 82.89-14.47 7.67-28.29 16.65-42.89 24.06 5.54-24.92 9.48-52.09 27.77-71.12 10.18-10.6 23.28-18.25 36.26-24.9A183.5 183.5 0 0 1 251.07 426c16.43-3.84 33.57-4.89 50.24-2 1.23.21 20.2.73 28.46-1.44a114 114 0 0 0 13.9 8Zm20.42 6.48c8.56 1.15 17.2.1 25.31-4.48a33.6 33.6 0 0 0 12.71-12.52c5.41 6.7 12.74 11.55 20.29 16.2-10.15 33.62-32.21 62.88-51.56 91.8-3.22-7.2-8.23-13.4-12.86-19.87-2.44-3.4-10.05-21.23-10.51-24.69-2.27-17.13 3.87-34.86 16.61-46.47Zm135.44-1.71c3.88-.19 7.78-.49 11.67-.93h.6A214 214 0 0 0 551 429l3.8-.86a67.6 67.6 0 0 1-4.67 20.86c-2.31 5.76-5.68 12.75-10.3 17.18a131.8 131.8 0 0 0-40.3-30.78Zm90.33 17.05q-13.8-7.41-27-15.85a80 80 0 0 0 1-8.73 4.6 4.6 0 0 0-.24-1.81c8.56-2.07 17.1-4.31 25.48-6.9 2.07-.63 4.09-1.33 6.09-2.07a4.9 4.9 0 0 0 2.43.26c43.78-6.3 87.75 15.7 109.25 54.2a108 108 0 0 1 9.85 24.23 414.5 414.5 0 0 1-126.87-43.31Zm.84-43.31c-9.29 3.13-18.88 5.56-28.44 7.87A74 74 0 0 0 577 403.51c6.1-7.33 10.59-15.87 16.82-23.07a44.1 44.1 0 0 1 18.68-12.83c14.21-5.11 29.6-5.21 44.45-6.88 3.86-.43 7.74-1 11.58-1.68-14.73 11.5-30.17 22.06-45.62 32.57-10.2 7-20.4 13.51-32.21 17.49ZM658 351.56c-14.74 1.71-29.92 1.88-44.24 6.13a57.7 57.7 0 0 0-19.59 9.89l-.35.3a35.92 35.92 0 0 0-7.29-26.79 4.56 4.56 0 0 0 3.49-2c.7-1 1.39-2 2.08-2.95A110.14 110.14 0 0 1 643.81 316c10.21-1.15 20.66-1.85 29.38 4.42 7.13 5.13 13.37 11.9 19.57 18.34-9.46 8.54-22.28 11.34-34.76 12.8m126-163.64a552 552 0 0 1-68.21 82.26 582 582 0 0 1-43.55 39.21c-8.82-3.94-18.8-3.55-28.41-2.47q-5.45.6-10.76 1.71c7.27-5.1 14.34-10.49 21.48-15.75 17.5-12.87 34.85-25.94 51.65-39.71 32-26.19 62-55.13 86-88.9a298 298 0 0 0 25.85-43.58c-7.6 23.97-20.05 46.43-34.05 67.23m-82.14-61.22c23.84-10.37 49.14-19.14 74.6-24.44a168 168 0 0 1 42.8-3.65c-20.07 19.18-40.31 38.3-62.53 55-23 17.25-47.94 31.62-73.49 44.65-12.13 6.19-24.4 12.08-36.72 17.87 1.74-9.5 2-19.22-1.31-28.47a10.6 10.6 0 0 0-3.94-4.54c-1.9-.6-3.82-1.1-5.74-1.52 2.56-5.37 4.8-10.87 6.81-16.45 16.88-16.95 37.72-28.96 59.52-38.45m-52.19-33.59c.23 10.54-2.87 21-5.23 31.2a340 340 0 0 1-9.92 35.88 4.15 4.15 0 0 0-.89 2.48 162 162 0 0 1-7.54 17.61A66.43 66.43 0 0 0 587.3 190c12.76-17.83 23.08-37.24 32.46-57q8.18-17.28 15.83-34.82A153 153 0 0 0 645 70.92c2.49 7.2 4.51 14.58 4.67 22.19m-6.18-26.51a.29.29 0 0 0 .08.24c-2.15 11.82-6.76 23-11.64 34-4.79 10.78-9.64 21.54-14.71 32.2-9.75 20.5-20.53 40.62-34.09 58.88-3-21.77-12.6-41.87-22.8-61.14 16.39-32.87 50.73-49.85 83.16-64.18m-32.73 5.68c-19.62 10.48-37.89 23.34-50.62 41.21q9.79-23.82 18-48.25c5.55-16.53 12.07-33.86 12.57-51.51a221.5 221.5 0 0 1 20.05 58.55m-57.29-40.4c9.76-9.61 22.29-15.09 35-19.6-.18 17.93-6.89 35.58-12.52 52.36q-9 26.7-19.86 52.7a167.9 167.9 0 0 0-28.47-50.89c7.51-12.21 15.71-24.57 25.85-34.57m-29.39 45.26c-3.7 34.14-18.33 65.74-25.65 99.09a101.8 101.8 0 0 0-11.79-21.64c-4.88-6.85-10-13.56-15.12-20.23a5 5 0 0 0 .71-1.42c1.91-6.11 6.91-11.78 10.71-16.84a181 181 0 0 1 13.32-15.79 146.7 146.7 0 0 1 27.82-23.17m-32.92 15.08a2 2 0 0 0 .1.24c-.76.78-1.52 1.56-2.26 2.35a204 204 0 0 0-13.89 16.72c-3.46 4.6-7.33 9.42-9.9 14.71-2.75-3.55-5.51-7.11-8.24-10.67a5.4 5.4 0 0 0-2.67-1.94Q448.36 66.1 440 18.91a2 2 0 0 0-.07-.25l.11-.14a171.9 171.9 0 0 1 51.12 73.7m-82.26 11.24a130.2 130.2 0 0 1 29.16-82.56q8.15 46.11 14 92.58a4.42 4.42 0 0 0-2.88 2.09c-4 6.32-8.1 12.76-11.93 19.36-7.93-11.41-17.95-20.81-28.91-29.13a4.5 4.5 0 0 0 .56-2.34m22.69 39.35a4.6 4.6 0 0 0 .75.9 157 157 0 0 0-7.29 15.74c-5.11 13.05-4.82 26.87-3.45 40.55a180.6 180.6 0 0 0-25.16-16.44c-5.41-12.68-6.63-26.64-8.41-40.25a282.7 282.7 0 0 0-10.11-46.49 1.1 1.1 0 0 0-.2-.38v-.25c20.44 12.48 40.83 26.17 53.87 46.62m-54.52-58.74a4.85 4.85 0 0 0-5-.7c-2.71.53-12.39 49.14-16.82 80.76a311.6 311.6 0 0 1-52.59-116.94A305 305 0 0 1 297 11.25c30.51 19.68 60.72 41.86 80.07 72.82m-81.51-65.59a313.7 313.7 0 0 0 39.2 118.25 309 309 0 0 0 20.08 30.6c-.47 3.52-.87 6.78-1.16 9.68q-2.42-2.34-4.92-4.56c2.14-1.45-28.78-39.7-39.07-59.26-11.12-21.14-15.55-44-15.45-67.78.04-8.99.59-17.97 1.32-26.93m-3.23 77c5.64 17 14.64 32.77 25.36 47.06q6.21 8.25 13.05 16a160 160 0 0 0-19.54-11.14c-1.22-.59-2.45-1.16-3.68-1.71a5 5 0 0 0-.34-1.07 214.8 214.8 0 0 1-14.85-49.13Zm-15.22 49.18a152.3 152.3 0 0 1 27.29 9.49 155.7 155.7 0 0 1 46.9 33.27 4.55 4.55 0 0 0 1.5 1.06c-.92 19.2 1.09 38.29 8.74 57a94 94 0 0 0 12 21.27 165.6 165.6 0 0 0-52.28-32.51c-22.11-26-44.24-53.12-57-84.94-.67-2.51-1.38-5-2.17-7.5 4.91 1.38 10.5 1.77 15 2.87ZM88.32 189.19q21.2.18 42.34 1.9a571.6 571.6 0 0 1 83.19 13q22 5.1 43.55 11.94a178.5 178.5 0 0 0 23.16 62.86A175.3 175.3 0 0 0 299 303.8c-1.63-.6-3.27-1.19-4.92-1.75-29-16.9-58.12-33.67-89.21-46.37-17.06-7-34.71-12.29-52.1-18.36q-25.67-9-50.77-19.32c-9.31-3.82-18.67-7.64-27.77-11.95C66.7 202.54 59.41 198.16 55 191c10.8-2.45 22.36-1.89 33.32-1.81m-33.78 5.2c8.05 10.84 22.58 15.6 34.52 20.69q25.16 10.71 50.84 20c17.38 6.32 35.07 11.72 52.43 18.1A435 435 0 0 1 243 276c13.81 7.18 27.34 14.87 40.8 22.68-44.2-13.7-91.51-18-137.09-9.41a228 228 0 0 0-23.37 5.73 325.8 325.8 0 0 1-68.8-100.61m207.54 107.66A324.5 324.5 0 0 1 305 315.73a4.8 4.8 0 0 0 1.34.32c1.93 3.63 4 7.17 6.24 10.63a39 39 0 0 0-25.92 8.21 35.1 35.1 0 0 0-11.14 14.74 44 44 0 0 0-1.61 4.93 1.14 1.14 0 0 0-.74-.38c-43.75-5.18-88.49-10.6-129.4-27.92A207.3 207.3 0 0 1 111 308.77c48.13-18.16 101.27-18.77 151.08-6.72M144.7 345.91a202.3 202.3 0 0 1-32.79-33.83c37.16 23.67 80.85 33.45 124 39.62 12.42 1.77 24.87 3.28 37.32 4.75h.26c-1.29 5.48-1.92 11.12-3.32 16.58-2.92 1.48 19.52 20.36 29 27.33 6.7 4.9 13.35 9.88 20.08 14.75-14 1-28.49-3.91-41.73-7.46-9.17-2.47-43.85-13.49-49.07-15.42-29.95-11.13-58.98-25.93-83.75-46.32m-53.55 148.3c29.61-25 61.28-49.3 95.67-67.42 17.81-9.39 36.71-16.59 56.6-19.84 7.86 2.6 15.78 5 23.69 7.23-19.24 2.06-38.08 8-55.74 16.3-14.17 6.67-28.29 14.64-40 25.11-11.15 9.93-18.69 22.6-23.75 36.55a215 215 0 0 0-7.34 26.48C96.61 533 56.82 557.21 13 570.88a747 747 0 0 1 78.15-76.67m120.37 69a580.4 580.4 0 0 1-134 15.8 577 577 0 0 1-68.13-4l.73-.83C55 560.78 95.37 536 139.67 521.2c-1.45 6.59-2.82 13.2-4.39 19.74a4.45 4.45 0 0 0 2.81 5.63l.19.06c28.79 8.92 59.49 13.14 89.53 9.33 28.65-3.63 55.25-14.8 80.21-29 12.39-7 24.39-14.72 36.32-22.5q-2.91 6-5.69 12.12l-.4.17a574.4 574.4 0 0 1-126.73 46.43Zm75.36 127.48c2.31-21 9.22-40.87 16.43-60.62s14.32-39.21 21.92-58.64c7.73-19.75 15.95-39.3 25-58.45 5.43 7.49 11.63 14.62 14 23.7a4.64 4.64 0 0 0 4.38 3.33 132 132 0 0 0 30.92-4c-7.46 35.92-19.8 70.35-33.51 104.35-15 37.21-30.37 74.27-45.57 111.39l-20.2 49.36c-10.58-35.76-17.49-73.11-13.37-110.45Zm51.54 76.07Q321 787.4 302 806.61l-.63-2.08L343 702.9c14.92-36.45 30.76-72.69 43.44-110A469 469 0 0 0 402 535.36a138.6 138.6 0 0 0 34-14.27c-1.4 20.54 4.15 40.45 13.56 58.56a669.1 669.1 0 0 1-111.14 187.08Zm168-130.17c-20.5-21-41.7-42.88-53.36-70.33-6.54-15.43-10-32.57-7.66-49.29a6.7 6.7 0 0 0 0-1.89 135 135 0 0 0 37.07-38.83c3.46.77 7 1.34 10.47 1.76 11.61 28.23 23.23 56.49 33.15 85.38 9.75 28.4 16.82 57.5 24.76 86.43 3.56 13 7.42 25.87 11.94 38.54-20.61-15.09-38.55-33.53-56.35-51.8Zm73.37 22.09a257 257 0 0 1-9.42 35q-2.19-1.47-4.34-3c-9.48-25.94-15.93-52.83-23.08-79.48a828 828 0 0 0-28.57-86.14c-6.1-15.67-12.5-31.24-18.9-46.79l2.26.22a191 191 0 0 0 21.92.35 4.5 4.5 0 0 0 .42.45c12.23 11.54 26.69 19.85 42.13 25.94a257.5 257.5 0 0 1 17.6 153.42Zm44 3a317.6 317.6 0 0 1-29-37 4.6 4.6 0 0 0-1.65-1.53 268.5 268.5 0 0 0-8.08-80 254 254 0 0 0-8.45-26.57c19.86 31.55 40.79 62.41 61.83 93.2a514 514 0 0 0 33.84 44.9l40.15 46.88 40 46.68a325.75 325.75 0 0 1-128.67-86.62Zm115.61 37.48a480 480 0 0 1 13.78 46.4l-73.48-85.77a536 536 0 0 1-36-46.41q-16.5-24.18-32.9-48.47c-12-18-23.86-36.11-35.32-54.47a3 3 0 0 0 0-.58c6.09 1.89 12.26 3.51 18.46 4.89 10.85 2.42 22 4.55 33.24 6.12A480.4 480.4 0 0 1 739.4 699.16m73.53-108.46c-41.08-5.86-82.24-15.19-119.51-34a221.9 221.9 0 0 1-50-34.06 211.3 211.3 0 0 0 36.54.07 118 118 0 0 0 40.34-10.62c64.78 18.65 134.46 26.23 192.46 63a187.2 187.2 0 0 1 36.58 30 5.4 5.4 0 0 0-.78-.15c-45.23-4.38-90.67-7.82-135.63-14.24m114.35-19.11a206 206 0 0 1 21 29.27c-44.35-45.43-108.9-62-169-76.17-18.76-4.42-37.53-8.82-56.07-14.08q1.44-.75 2.88-1.56a4.24 4.24 0 0 0 1.73-5.73 2.6 2.6 0 0 0-.24-.39 2.2 2.2 0 0 0-.08-.71 114.4 114.4 0 0 0-9.1-27.82 280.3 280.3 0 0 0 48.48-.63l.17.08c59.35 21 118.5 49.15 160.23 97.74m-178-105.65a276 276 0 0 1-35.89-1A118.4 118.4 0 0 0 665.78 420a405 405 0 0 0 43.43 5.87c17 1.27 34 1.33 51 1.58l52.26.75 58.25.84a1.3 1.3 0 0 0 .35-.05c.55.7 1.12 1.38 1.67 2.08a273.6 273.6 0 0 1-123.43 34.87Zm93.35-65.45a189.6 189.6 0 0 1 26.6 26.24l-101.59-1.47c-16.78-.24-33.59-.27-50.36-1.17a394 394 0 0 1-50.41-6.2c-3.24-.6-6.46-1.24-9.68-1.89a112 112 0 0 0-21.12-6.42 116 116 0 0 0-16.91-2.12l-2.89-.69c2.24-1.34 4.45-2.74 6.65-4.22 10.72-7.21 21.39-14.51 31.9-22q10.21-7.32 20.12-15a4.6 4.6 0 0 0 1.65-.15 189.6 189.6 0 0 1 128.93 11.86 3.5 3.5 0 0 0 2.13 1 182 182 0 0 1 35 22.23Zm-33.41-31.38a194.9 194.9 0 0 0-119.36-15.95 3.74 3.74 0 0 0 .79-1.67c.3-.17.68-.4 1.12-.69 34-4.88 68.07-9.36 102-14.9 34.29-5.6 67.21-17.47 102-19.82a258.8 258.8 0 0 1 55.41 2.24c-15.45 15.07-36.85 23.66-56.81 30.78a392.6 392.6 0 0 1-85.12 20Z"/></svg>