<svg xmlns="http://www.w3.org/2000/svg" viewBox="0 0 1037.46 1135.43"><path fill="currentColor" d="M1032.76 252.4c-.15-.05-.28-.13-.44-.17-30.64-7.8-63.69-4.69-94.68-.17a215.45 215.45 0 0 0-79.92 28.77C829 298 805.25 322.09 783.23 347q-11.64 13.14-22.53 27c13.49-37.92 19.85-79 26.19-117.86 4.24-26 8.13-51.95 11.13-78.1 2.7-23.56 6.85-48.07 23.09-66.4l3.31-3.3c3-2.82-1.22-5.08-4-4.25-13.32 4.07-26.65 8.14-39.65 13 4.56-9.57 7.36-20.16 10.31-30.24C795 73.47 798.55 60 802.71 46.67c3-9.68 6.1-21.61 13.23-29.21 2.6-2.77-2.6-4.48-4.59-3.8-58.6 19.91-122.12 38.85-154.35 93.69-3.73-19.88-5.39-40.13-7.15-60.25-.25-2.87-4.56-3.69-6.23-1.49a312.2 312.2 0 0 0-43.49 77.93c0-7.51-2.57-15-6.08-21.9-6.53-12.92-14.44-25-20.8-38.07-9.87-20.21-20-51.41-41.51-62.36-6-3.09-11.8.17-15.7 4.89-7.48 9.09-10.52 21-18.42 30-14.49 16.4-33.97 30.9-38.47 52.55-18.35-17.31-38.47-33.35-46-57.7-.82-2.68-5.88-2.43-6.11.49-1.32 16.24-5.94 32.1-10.56 47.89-5.56-4.47-13.18-7.72-18-10.08-12.76-6.25-26.91-11.91-40.94-14.45-20.35-3.69-41.82-.82-62.32-.4-25.57.52-49.26-4-69.33-20.73-2.48-2.08-7.65.64-4.66 3.45 25.51 24 20.51 62.67 24.18 94.28a245.9 245.9 0 0 0 16.86 65.08c-13.06-17.71-27.11-35-43-49.33-18.45-16.63-43.16-25.88-64.86-37.58-24.41-13.17-59.3-12.43-60-11.85-1.45.15-9.93 3.52-8 4.75.85.54-1.42 23.85 1.59 35 5.09 18.82 13.41 37 19.42 55.6 7.7 23.84 20.83 45.25 34.56 66 14.46 21.89 28.14 44.21 42 66.49 27.72 44.61 57.25 86.81 98.36 120.08q15.48 12.53 31.92 23.82c-29.86-15.86-58.16-34.56-87.45-51.4-31.35-18-62-34-99.08-32.24-33.54 1.6-65.61 13.35-99.15 14.5.22-1.36-4.61-1.65-5.1.07-.83 0-5.36 3.3-2.6 3.44.59 0 1.18 0 1.77.05-5.51 28.87 24.93 49.93 51.76 63 2.82 33.07 26.28 59.5 51.38 79.18 28 21.92 61.08 37.77 95 48.07 48.4 14.72 100.07 13.41 149.5 5.2 1.73-.28 3.45-.6 5.17-.91-16.43 16-21.17 43.6-22.88 65.28-2.43 30.62 1.05 66.89 23 90.27 21.19 22.55 54 15.19 77.6 1.32C447 747.13 459.89 736 471.6 724.6a2.2 2.2 0 0 0 .56.45 11 11 0 0 0 .16 1.36c.25 1.93.37 3.88.56 5.81.48 5.06.84 10.13 1.28 15.19 1.08 12.42 2.25 24.77 2.91 37.22 2.06 38.34 6 76.41 8.64 114.7 5.39 77.91 4.11 156.17-6.35 233.61-.43 3.19 5.79 3.38 6.25.16 11.73-82.33 11.62-165.95 5.23-248.73-1.53-19.72-4-39.34-5.42-59.06-1.49-20.93-2.09-41.91-3.86-62.83-.74-8.85-2-17.75-3.08-26.58-.34-2.82-.4-17.71 1.19-19.33 16.05-16.38 29.31-35.82 35.9-57.93a2.4 2.4 0 0 0-.2-1.9c.63.45 1.26.87 1.89 1.31a2 2 0 0 0-.06.49 102 102 0 0 0 .48 11.62c.1.81 6.66 159.05 16.2 237.12 9 73.92 18.29 148.67 2.43 222.43-.73 3.38 5.35 4.48 6 1.46 15.59-72.88 7.38-146.86-2-219.93a2128 2128 0 0 1-16.81-245.62c0-.42-.49-2.79-.5-3.67a361 361 0 0 0 31.19 18.32c35.6 18.66 74.15 33.94 114.48 37.36 39.22 3.37 111.37-28 113.22-29.38 3.91-2.79 9.65-5.53 14.45-8.91 2.76-.34 7.49-7.72 7.59-7.93 4.68-9.5-2.89-21.6-7.7-29.51a114.6 114.6 0 0 0-20.61-25c1.71 0 3.46-.13 5.25-.18a380 380 0 0 0 45.13-4.58c32.66-5 65.23-13.22 96-25.33 2.55-1 2.29-3.88.13-5.09-43.1-24.16-78.69-58.63-129.49-65.52-7-1-14-1.52-21-1.85a1.9 1.9 0 0 0-.31-.79c67.31 2 121.36-44.23 161.09-94.53 12-15.18 22.91-31.17 33.73-47.18 8.7-12.85 17.85-25.43 24.88-39.29 12.71-25.05 21-58.89 45.23-75.62 3.13-2.29-.59-5.09-3.5-4.54M811.51 113.86c-9.69 13-14.55 28.49-17.56 44.84-4.41 24-6.24 48.54-10 72.64-8.41 54.66-16.33 111.72-38.78 162.78q-13.34 18.08-25.77 36.78c-1 1.59-13.64 20-23.45 27.14-18.1 13.25-33.78 28.71-45.38 48-10.73 18-18.41 44.12-41.62 49.55-6 1.41-11.94-.78-16.92-4-.76-.5-3.59-3.23-6.44-6a94 94 0 0 1-6-7.88 37.7 37.7 0 0 0 4.84-9.07c6.47-15.85 8.42-34 10-50.87q.82-9.06 1.2-18.19c4.68-12.93 13.35-25.18 20.4-35.51 5.79-8.48 12-16.7 17.55-25.32 7.79-12 14.42-24.9 21.1-37.55 14.39-27.26 28-54.94 43-81.85q22-39.24 46.76-76.82c13.2-20.06 27.83-39.09 41.21-59 3-4.53 6-9.13 9.08-13.63-5.49 8.43-10.25 17.37-15.37 26-13.94 23.56-24.82 48.81-34.24 74.47-9.71 26.44-17.74 53.48-25.72 80.49-7.8 26.37-15 53.08-26.07 78.31-11.76 26.83-27.88 51.45-46.74 73.83-17 20.2-43.5 31.17-57.88 53.79-.18.29.33.47.49.24 14.23-20.31 37.54-31 54.94-48.08 9.5-9.33 17.54-21.05 25.07-32A300 300 0 0 0 688.73 404c12.54-24.38 20.39-50.4 28.16-76.58 8-27 15.79-54 24.84-80.68 9.16-27 19.77-53.49 33.22-78.63 5.71-10.67 12-21.12 18.14-31.56a139 139 0 0 1 9.39-14.1c2.41-3.05 5.41-6.73 9.03-8.59m187.38 158.92c-16.55 11.71-38.38 26.57-53.29 34.76-28.47 15.67-58.2 31.75-88.9 42.57-28.18 9.92-55.51 19.39-79.9 37.15-12.53 9.12-23.57 19.95-34.57 30.85 11-21.87 30.83-39.26 50.12-53.6 10.38-7.71 21.45-14.43 31.89-22.09 11.15-8.19 22-16.77 33.21-24.9 23.2-16.83 48.19-28.82 75.41-37.67 13.26-4.31 27.47-8.61 41.41-10 8.17-.82 16.5-.43 24.7-.79.61 0 2 0 3.7-.06Zm3.7 7.38c-3.29 4.61-6.4 9.36-9.56 14a260 260 0 0 1-25.29 31.93c-19.86 21.35-43.28 39.67-67.6 55.65q-38.94 25.59-79.84 48c-26.92 14.83-54.63 28.12-81.91 42.27-10.42 5.4-20.8 10.87-31.08 16.53-8.92 4.91-17.58 10.27-26.71 14.81-10.53 5.24-22.16 10.22-31 18.25.5-1 1-2 1.49-3a131 131 0 0 1 8.47-14.81c1-.8 1.93-1.58 2.9-2.34 8.29-6.44 17.45-11.69 26.36-17.2a129 129 0 0 0 22.33-16.83c9.78-9.42 19.69-18.7 30-27.56 19.86-17.11 41.37-31.95 65-43.41 27.3-13.26 53.55-28.1 80.15-42.7 21.25-11.66 43.12-22.49 63.44-35.76a235.6 235.6 0 0 0 29.57-23.3q11.76-7.04 23.28-14.53M781.14 390.84c25.39-18.9 55.43-27.79 84.82-38.27 30.77-11 60.68-28 89.18-43.83q6.3-3.5 12.54-7.12a239 239 0 0 1-29.53 21.24c-25.09 15.11-51.38 28.29-76.89 42.67C848 373 834.63 380.43 821 387.28c-12.07 6.06-24.32 11.54-36 18.38-22 12.89-41.59 29.18-60.18 46.48-7.83 7.3-15.12 15.44-23.57 22-7.3 5.67-15.36 10.33-23.15 15.25-5 3.13-10.59 6.58-15.83 10.56 9.87-13.89 22.16-25.71 36-36.27a186 186 0 0 0 18.12-15.61c22.5-18.01 41.61-39.98 64.75-57.23M637.89 541.78c47.07-9.15 94.61-.38 141 8.9 22.67 4.53 45.41 8.66 68.06 13.23 17.79 3.59 35.39 8 52.19 14.76-18.36-5.53-37.57-8.31-56.6-10-12.51-1.11-25.08-1.57-37.64-1.58-13.91 0-27.62 2.84-41.39 4.37-16.4 1.83-32.08-.62-48.23-3.4-11-1.9-22.06-3.85-33-6.22-18.23-4-38-9.36-56.76-6.9a7.6 7.6 0 0 0-1.14.2 54 54 0 0 0 13.51-13.36m-133.37 7.67c2.2-1 4.51-1.83 6.58-2.71a125 125 0 0 0 13.39-6.41A72.5 72.5 0 0 0 546 521.74c11.38-14.74 15.77-33.64 16.43-51.92.7-19.51-3-39.19-9-57.7-6.77-21.21-18.5-40.27-35.19-55.12-13.26-11.74-29.85-20.28-47.39-23.13-.64-.23-1.28-.46-1.93-.67 26.54 4.87 59.31 11.35 63.13 11.79 5.85.68 30.17 8.78 31.15 8 10.14 5.16 17.37 30 19.39 29.67 9.86 40.38 6.75 109.7-3.49 140.64-7.86 7.66-19.1 15.38-34.71 25.8-4.73 3.18-19.76 4.62-39.87.35m35.6 11.46c8.55 10.36 25.63 14.72 37.3 18.08 8.26 2.39 16.65 4.21 25 6.09 14.47 3.25 28.69 8.18 42.66 13.1 25.79 9.09 51.78 18.67 76.64 30.1 18.43 8.47 37.44 18.58 52.64 32.46-2.89-1.09-5.81-2.07-8.68-3-12.7-4.26-25.69-7.65-38.66-11-32.53-8.28-65.32-15.54-97.76-24.19-26-6.93-52.44-14.35-76.76-26.07-12-5.78-31.51-15.94-31.34-31.64a57.6 57.6 0 0 0 19-3.93Zm-86.55-225.38c.47-.47 1-.93 1.45-1.38.26-.23.52-.46.79-.67l.25-.18a.83.83 0 0 0 .87-.77c0-.88-.68-1-1.38-.87a1.07 1.07 0 0 0-1.42-.51 13.8 13.8 0 0 1-2.89 1.26l-.41.09-.27.06-.19.05c-.42.17-.46.48-.3.74-32.19 9.77-28.31 55-25.37 81.82 2.62 23.91 6.56 48.3 16.07 70.53a126.3 126.3 0 0 0 20.62 32.5c7.34 8.55 15.95 15.87 23.57 24.14-.74-.41-2-.12-1.71.85-3.49-1.3-7.07-2.76-10.7-4.4a133.6 133.6 0 0 1-19-17.2 238 238 0 0 1-23.29-29.23A268.8 268.8 0 0 1 395.58 421c-6.13-19.8-12.59-45.52 1.67-63.34 11.31-14 31.42-18.7 47.64-24.47 2.53-.89 5-1.92 7.49-3 2 .34 4.12.72 6.34 1.11-8 15.22-9.53 32.81-9.25 49.76.29 18.48 2.91 37 6.12 55.22 4 22.93 10.89 45.32 18.18 67.4 3.24 9.79 6.11 20 10.35 29.43 1.28 2.85 2.71 6.76 4.63 10.15-7.37-8.16-15.64-15.45-23.16-23.47a123.4 123.4 0 0 1-21.52-31.7c-10.29-21.73-14.33-46.53-17-70.23-3.14-27.65-8.26-73 24.58-84.25a6 6 0 0 0 .86-.15c-.23.37-.46.73-.68 1.1-.76 1.21 1.06 1.66 1.74.97m-68-190.86a51.7 51.7 0 0 0 3.71 14.68c-9.93-4.89-20.36-9-30.67-13.42a13.2 13.2 0 0 0-1.88-4.24.25.25 0 0 0-.05-.18c-15.1-25.8-41.66-39.43-68.09-51.07-13.59-6-27.34-11.64-40.36-18.82-1.13-.62-2.24-1.28-3.36-1.93q-4.78-5.5-9.94-10.67c3 1.07 5.52 1.81 6.47 2.12 14.58 4.71 29.77 7.61 44.78 10.54 18.83 3.67 38.7 8.59 55.58 17.86 9.78 5.37 18.39 13.32 26.19 21.24 7.07 7.16 14.72 16 17.17 26 0 2 .09 4 .25 5.95-.05.31-.1.63-.18.94a.92.92 0 0 0 .41 1Zm167.82 199c-2.52-.72-5-1.33-7.51-1.85-1.66-.35-3.34-.65-5-1-8.59-16.34-10.18-36.13-10.79-54.22a560 560 0 0 1 1.51-57.93c1.41-19.91 2.78-39.84 1-59.77a70 70 0 0 0-1.06-7.2l.48 1.44c4.65 13.86 9.87 27.47 14.87 41.16 5.61 15.2 11.12 30.44 16 45.88 3.76 11.84 7.72 24.17 8.72 36.62.25 3.13.86 10.29-3.33 11.34-1.32.33-.68 1.79.51 1.58a2 2 0 0 0 .52-.15c-6.66 9.49-12.25 19.59-15.32 30.3a26.9 26.9 0 0 0-.57 13.76Zm-34.5-21.75c.86.15 2-.4 1.29-1.12a11.2 11.2 0 0 1-1.49-2 98 98 0 0 0-4.92-22.69c-.18-2-.34-4-.49-5.95-1-13.15-1.09-26.36-1.46-39.54-.21-7.6-.83-15.17-.76-22.79a230 230 0 0 1 2.55-30.32c2.09-14.47 11.68-46.09 13.12-47.7.65 2.52 1.32 4.63 1.49 5.19 5.67 19.12 3.61 40.95 2.35 60.58-2.67 41.37-8 85.43 7.8 124.8-6.87-1.19-13.8-2.12-20.72-3.08a59.7 59.7 0 0 0 1.24-15.38m-9.19-70.43c.34 12.37.53 24.74 1.34 37.08-.74-1.9-1.51-3.78-2.3-5.62a225.2 225.2 0 0 0-24.9-43c.71-7.49 3.28-14.81 5.8-21.84C493.05 208.6 497 199.29 501 190c3.64-8.52 6.86-16.88 12.29-24.48a107 107 0 0 1 6.94-8.52 389 389 0 0 0-8.36 38.61 235 235 0 0 0-3 32.12c-.18 7.94.55 15.84.76 23.76Zm66.19 49.76c17.86-25.1 39.93-47.26 62-68.62 22.3-21.58 45.56-42.18 69.28-62.18 9.84-8.29 36.8-23.82 61.23-36.83-10.73 8.7-20.93 18.17-31.09 27-20.81 18.15-41.08 37-59.62 57.45-10.83 12-20.77 24.7-31.55 36.73-10.62 11.84-21.15 23.76-31.3 36-11.79 14.23-23.48 29-32.43 45.21-2.17 3.94-5.81 10.55-6.81 16.67a20.48 20.48 0 0 0-13.9-6.29q-1-.42-2.1-.81c-6.39-13.42 9.54-34.88 16.29-44.33m18.48-32c-6.75 7.54-14 15.61-20.54 24.2a35.9 35.9 0 0 0-.24-9.37c-1.5-12.58-5.52-24.94-9.4-37-9.4-29.14-21.06-57.47-31.31-86.31-1.36-3.8-5.72-18.26-5.65-19.78 0-.31-.52-.29-.57 0a8 8 0 0 0-.13 1.71 8.8 8.8 0 0 1-.1-1.85c.36-.41.73-.8 1.08-1.22a3 3 0 0 1 1.22.51c.17.1.53-.06.31-.22a7 7 0 0 0-1.13-.73c.06-.08.13-.15.19-.22 22.32 20 54.06 74.52 54.19 74.77-.07 2.92 12.41 34.16 13.44 49.75 0 1.34.09 4.12-1.39 5.79Zm-11.31-81.8a25.9 25.9 0 0 1-2.73 8.65q-3.75-6.69-7.89-13.2a.53.53 0 0 0 0-.39c-4.87-12.13-10.66-23.89-15.63-36q-8.65-21.1-15.6-42.85c-7-22.16-12.2-45.18-13.27-68.41.62 2.23 1.3 4.43 2 6.61 5.67 17.47 13.74 34.15 21.93 50.56 6.25 12.54 12.75 25 18.28 37.83 7.44 17.45 15.44 37.95 12.88 57.23Zm-44-85c4.36 14.59 9.6 28.9 15.26 43 3.69 9.18 7.39 18.5 11.52 27.57a214 214 0 0 0-35.78-40 3.93 3.93 0 0 0-4.1-.45 32 32 0 0 1-1.09-4.86c-.9-3.78-1.63-7.6-2.35-11.42-1.56-8.27-3-16.59-4.1-24.93-1.77-13.34.3-27.39 2.19-40.61 1.49-10.37 3.34-20.69 4.54-31.08A61 61 0 0 0 526.58 30c-.08 24.53 5.5 49.17 12.47 72.48Zm-20.49-49.9c-2 13.12-3.72 26.89-2 40.14 1.13 8.4 2.56 16.76 4.12 25.09.73 4 1.52 7.92 2.48 11.84a16.6 16.6 0 0 0 1.26 4.3 246 246 0 0 1-17.66 19 1 1 0 0 0-.48 0c-4 1-8.14-21.77-8.64-24.18a217.4 217.4 0 0 1-4.61-31.07c-1-17.33 10.05-34.35 16.8-49.58a183 183 0 0 0 7.78-22.31c1.86-6.22 3.81-13.13 7.88-18.37-1.7 15.14-4.61 30.09-6.93 45.14m5.36 91.1c-.8 2.72-9.36 16.75-12.48 21-5.58 7.65-8.72 16.25-12.35 24.91-4.1 9.7-8.1 19.44-11.5 29.44-2 5.92-4.79 13-4.78 19.66-4.88-6.63-10-13-15.34-19.19q-3.63-4.2-7.49-8.23c11.5-16.74 26.37-30.59 41.09-44.57 1.28-.22 16.4-15.83 22.81-23Zm-25.36 133.43c8.83 17.69 16.54 39.34 12.11 59.2-5.05-.74-10.1-1.54-15.1-2.54-5.54-1.11-11.08-2.26-16.61-3.4 1.25-17.74-7.8-34.73-17.39-49-12.05-18-27.16-33.82-42.24-49.25-16.58-17-33.23-33.5-51.21-49-11.57-10-23.26-19.84-34.47-30.24-5.69-5.28-18.48-22.57-19.22-24.55 19.27 14.35 42.71 21.69 64.3 32q8.1 3.88 16 8.31c.18.23.32.47.51.69a2.55 2.55 0 0 0 2.1.8c20.41 11.75 59 46.74 59.16 46.55.32.33.64.65.95 1a259.4 259.4 0 0 1 41.11 59.43m-60.77 45.78c-2.32-18.27-11.55-35.79-20.53-51.51-10.65-18.61-23.15-36.14-36.1-53.19-11.28-14.79-24.9-27.16-37.72-40.54-10.56-11.08-21.51-23.78-26.56-38.52l.21.22c7.69 8.15 16.36 15.7 24.64 23.22 20.59 18.69 42.1 36.16 61.47 56.15 14.78 15.24 29.93 30.11 43.43 46.52 13 15.73 26 33.9 29.43 54.43a43.5 43.5 0 0 1 .47 10.2c-12.83-2.65-25.71-5.2-38.74-6.98m24.2 9.88c1.54 8.74 3.5 17.3 4.28 26.23.89 10.23 1.27 20.52 1.85 30.78 1.19 20.95 2.56 41.91 4.59 62.8 2 20.27 4.67 40.48 8.5 60.49a144.4 144.4 0 0 0 5.54 22 67 67 0 0 1-2.81-6.67c-3.46-10-6.9-19.94-10.19-30-6.7-20.42-12.68-41.13-16.57-62.29a359.5 359.5 0 0 1-6.07-53.35c-.53-17.16.72-35.46 8.17-51.2l2.07.37Zm-90.8-63.37c-7.29-18.63-12.14-38.55-21.47-56.3-7.89-15-16.46-29.65-24-44.86a193 193 0 0 1-9.84-22.94l-.36-1.05c0-1.54 12 18.51 20.56 28.4 12.77 14.67 28 27.16 39.87 42.6a554 554 0 0 1 35.93 51.84c10.33 17.19 19.69 35.59 23.28 55.47a154 154 0 0 0-33.64-.79c-13.53-15.29-22.86-33.28-30.33-52.37M398.77 322a91.9 91.9 0 0 0-28.15 7.78 72 72 0 0 1-3.9-6.39c-2.55-4.5-4.87-9.13-7.18-13.76-4.69-9.37-9.84-18.35-13.85-28.08a219 219 0 0 1-10-31.22c-5.57-22.64-9.8-45.84-14.28-68.72q-1.77-9.09-3.33-18.21c-.66-3.85-1.5-7.8-2-11.75 1.78 4.68 3.85 9.27 6 13.78 7.5 16 16.43 31.35 24.75 47 9.85 18.49 14.94 39.31 22.55 58.78 7.15 18.51 16.45 35.9 29.39 50.79m-87-191.09c-.08-.14-.17-.26-.24-.4.19-1.32.36-.77.24.43Zm0-12c-1.64-1.49-5.33-.89-5.52 1.63a176 176 0 0 1-2.53 18.73 57 57 0 0 0-4.59-4.34c-3.77-3.76-7.35-7.56-10.75-11.65-10.66-12.86-21.21-25.86-31.5-39q-4.09-5.28-8.38-10.35c12.8 7.16 26.6 12.86 39.91 18.76 13.75 6.09 27.4 12.62 39.66 21.41a99.4 99.4 0 0 1 16.82 15.18 85 85 0 0 1 6.74 8.92c.41.67-27.36-8-39.87-19.29Zm-55.08-31.62c9.55 12.51 19.59 24.71 29.55 36.89 2.66 3.26 5.4 6.34 8.34 9.34 1.72 1.76 4.82 4 6.67 6.17-.24.27-.26.63.16 1a4.5 4.5 0 0 0 1.76 1.26c-1.23 6.42-2.62 12.82-3.88 19.27-1.36 7-2.3 13.92-3 20.91-1.5-1.52-3-3.06-4.5-4.57-10.4-10.41-18.52-23.32-25.75-36.06-8.89-15.68-15-32.58-22.76-48.8-3.61-7.51-7.51-14.89-11.57-22.17-2.09-3.74-4.27-7.41-6.48-11.06-1-1.65-2.32-3.35-3.49-5.13a116 116 0 0 0 22.2 17c4.43 5.19 8.63 10.55 12.75 15.95m44.7 112.9a81 81 0 0 1 1.55-10.37c.22-.48 1.34-21.35 3.34-31.12 1.83-8.9 3.72-17.73 5-26.68.1.19.22.38.34.58a34.8 34.8 0 0 0 1.29 9.52c.44 1.69.95 3.36 1.49 5 .11 2.36.29 4.73.63 7.18 1.79 12.9 4.18 25.7 6.74 38.47 5 25.08 9 50.91 16.85 75.29 5.73 17.78 14.64 33.95 23.12 50.49 2.06 4 4.12 8.47 6.84 12.23a74 74 0 0 0-12.51 7.94c-11.19 8.84-14.11 21.48-13.52 34.91-5.9-10.46-13.29-20.14-20.18-30.13-14.48-21.1-18.76-43.5-20.83-68.68-2.04-24.82-1.43-49.82-.15-74.63m27.06 170.89a114 114 0 0 0 9.94 14.77c5.64 11.09 10 20.27 10.66 22.89-25.94-37.28-52.67-74-80.74-109.72C238.1 260.6 205.89 223.19 170 190c-17.75-16.43-37.25-30.35-55.9-45.66-13.9-11.41-23.21-27.34-36.84-38.73 46.93 15.33 90.15 43.18 124.83 78.21 18.71 18.9 33.15 41.61 48.59 63.15C268 271.08 285 295.38 300.6 320.66c10.12 16.42 18.63 33.52 27.85 50.42M109.77 147.47c18.86 16.75 39.49 31.16 58 48.37C206 231.28 239.52 272 271.39 313.06c32.5 41.83 62.94 85.14 92.75 128.94 11.07 16.25 21.82 32.66 34.14 48-30.92-28.17-56.72-61.82-81.06-95.81-15.93-22.19-31.54-44.72-48.46-66.19-18.13-23-38.47-44.2-58.83-65.24-26.36-27.33-52.76-54.73-80-81C109.31 162 84.07 139.79 76.89 111c11.82 11.24 20.62 25.58 32.88 36.47m266 297.11c-13.19-24-22.22-51.75-27.16-78.61 1.06-9.6 4.81-18.39 13.59-25.23a60.7 60.7 0 0 1 9.9-6.26 1.86 1.86 0 0 0 2.51-.8 1.7 1.7 0 0 0 .17-.49 83.6 83.6 0 0 1 28-6.68c1 1.06 28 .42 39.6 2.16 2.38.35 5.22.81 8.38 1.35-15.9 5.23-32.75 9.1-46.68 18.71-16 11-19.28 28.94-16.67 47.21 3.46 24.18 12.77 47.45 23.88 69.06a260.3 260.3 0 0 0 42.6 60.26c3 3.14 6.1 6.18 9.36 9-29.51-15.41-61.74-42.9-87.46-89.68Zm111.12 85.33c-2.44-7.95-3.82-16.22-5.3-24.39-3.6-20-6-40.13-7.82-60.32-1.81-19.66-3-39.37-4.12-59.08-.55-9.63-1-19.29-1.91-28.9-.64-6.93-1.36-14.47-3.37-21.38 3.69 4.8 7.49 9.52 11.08 14.39a85.5 85.5 0 0 1 12.95 25.82c6.12 19.61 7.57 40.3 8.93 60.67s2.43 40.75 2.65 61.2c.11 10.36.1 20.71.08 31.07 0 6.65-.58 12.45-4 17.61-5.25-3.6-7.41-10.95-9.17-16.69m15.11 4.61c.66-10.26.1-20.72 0-31-.16-21.71-1.21-43.31-2.67-65-1.39-20.57-3-41.17-8.71-61.07a83.9 83.9 0 0 0-12-25.27c-4.64-6.68-10-12.83-15.2-19.11-.08-.21-.15-.41-.22-.62a68.34 68.34 0 0 1 27.68 15.93c8.36 8 13.52 18.73 18.9 28.82 11.89 22.27 21.54 45.87 24.67 71.08 4.63 37.37-4.28 77.8-36.45 99.53a.6.6 0 0 0-.19-.2 25.46 25.46 0 0 0 4.19-13.09m28.7-24.07c7.81-19.55 8.62-41.42 6.22-62.11-3-26.2-13.52-50.54-25.88-73.6-5.53-10.32-11-20.54-19.66-28.55a59 59 0 0 0-14-9.52 109.3 109.3 0 0 1 51.28 34.51c14.25 17.16 22.27 38.05 27.07 59.61 8.55 38.39 5 85.18-32.1 107.31a120 120 0 0 1-15.13 7.15 79 79 0 0 0-7.78 3.34h-.12a84 84 0 0 0 30.1-38.14m63.52-100.26c-.21-2-.46-4.41-.79-7 4-16.82 13.84-33.35 20.79-47.81a913 913 0 0 1 44-81.55c28.82-47.07 71.75-83.14 112.08-119.91 6.13-5.59 12.09-11.07 17.57-17.16l-.77 1.24c-14 21.7-29.9 42.16-44.13 63.72q-23.91 36.21-45.24 74c-15.16 26.8-28.79 54.36-43 81.65-7.29 14-14.6 28.18-23.14 41.45-6.11 9.49-12.92 18.52-19.19 27.9-5.81 8.68-12.47 18.95-16.65 29.75a348.5 348.5 0 0 0-1.52-46.26Zm208.42-293.87-.74.81c-.35.39-.65.81-1 1.2a111 111 0 0 0-9.5 10.59c-8 9.93-17 18.33-26.47 26.9-19.83 18.07-39.88 35.9-58.67 55.05-19 19.37-36.58 40.27-50.73 63.49a849 849 0 0 0-42.27 79c-6.23 13.13-12.81 26.34-17.75 40-.89 2.49-1.69 5-2.38 7.57-2-15.21-6.48-36.45-16.78-47.37 1-6 4.81-12.68 6.9-16.47 7.84-14.25 18.12-27.23 28.34-39.81 10.39-12.78 21.23-25.17 32.22-37.44 9.4-10.51 18.37-21.24 27.51-32 18.93-22.25 40.22-42.36 62.09-61.67 11.2-9.88 22.59-19.56 34-29.25 3.17-2.72 6.46-5.38 9.83-7.95 9.76-5.1 18.76-9.56 25.4-12.65m-3.52-80.2c-4.13 11.42-7.3 23.2-10.6 34.88s-6.52 23.19-10.47 34.56c-.84 2.39-3 9.76-5.83 14.88-9.15 3.75-42.31 23.85-49.69 29.82-3.51 2.85-6.84 5.58-10.1 8.26 18.74-28.23 33.07-59.19 51.79-87.46 4.85-7.32 9.78-14.64 14.78-21.81 4.74-6.7 10.65-15.48 18.14-19.25 1.61-.81 3.34-1.44 5.06-2.1-1.1 2.75-2.11 5.55-3.08 8.22m4.27-10.92c-1.88.86-3.79 1.67-5.68 2.54-5.07 2.34-8.77 6.27-12.47 10.38C774.39 50.22 765.61 65 757 78.69c-16.81 26.73-30.68 55.18-47.24 82.05-11 9.16-21.19 17.87-32.8 28.17-.5-1.38-1-2.77-1.4-4.14.63-17.07 5.44-33.77 11.18-49.77 6.26-17.29 13.39-33.47 27.26-46 13.25-12 29.19-20.81 43.32-31.67 8.18-6.29 16.19-12.79 24.29-19.18q6.39-5 12.92-9.91c2.36-1.75 9.47-4.24 8.86-3.04m-8.09-.29c-4.23 3.14-8.37 6.38-12.5 9.64-9 7.14-17.95 14.43-27 21.51-14.8 11.55-31.51 20.88-45.24 33.75-13 12.2-19.39 28.34-25.29 44.83-5.34 14.92-10 31.14-10.58 47.23-3.48-11.92-4.8-22.9-6.55-29.94-3.12-12.56-7-24.88-9.7-37.53 28.11-51.02 83.37-71.51 136.86-89.49M643.89 55.79c1.9 20.38 12.57 79.17 14.14 84.88 2.39 8.7 4.62 17.42 6.37 26.26-.1-.21-.18-.42-.28-.64-5.11-11.65-11.67-22.51-16.35-34.38-9.11-23.11-13-47.27-7.82-71.18 1.32-1.66 2.62-3.3 3.94-4.94M638.24 63c-4.51 20.86-2 41.93 5.1 62.7 4.2 12.37 10.22 23.62 16 35.28a107.4 107.4 0 0 1 6.31 15c.72 7.85 1.33 18 2.06 19.47a.6.6 0 0 1-.05.3c-7.64 6.91-16.06 14.87-24.58 23.16a.81.81 0 0 0-.24-1.11.8.8 0 0 0-.36-.12c-3.19-.65-1-14-1.21-16.47a139 139 0 0 0-3.55-20.21c-3.4-14.7-6.73-29.1-8.27-44.16a179.9 179.9 0 0 1 6.94-71.37c.61-.8 1.22-1.64 1.85-2.47m-3.71 5.08C627 92 625 116.6 627.77 141.93c1.75 15.93 6.09 31.17 9.28 46.82 1.68 8.2 1.8 15.69 1.51 23.95-.1 3 .16 6.29 3.58 6.7a1 1 0 0 0 .62-.12q-4.32 4.22-8.65 8.5a1.24 1.24 0 0 0-1.31-.07c-7.95 5.25-11.51-25.55-12-29.24a334 334 0 0 1-2.8-37.24c-.23-14.06 1.92-28.61 3.76-42.5 2.1-15.9 4.6-32.58 10.61-47.62.71-1 1.42-2 2.14-3ZM628 77.8c-.91 3.15-1.65 6.16-2.3 8.71-4.44 17.39-6.66 35.36-8.29 53.2-2.28 25.06-1.52 51 4.23 75.58 1 4 4.19 16.55 10.22 14.75-9.88 9.85-19.47 19.74-27.68 28.52-7.07-13-10.17-34.7-11.74-38.25-1.41-3.2-7.09-75.22 35.56-142.52Zm-91.5-65.74c15.08 16.17 23.1 38 32.73 57.57 9 18.24 30.64 41.74 22.37 63.12-.62 1.61-3.67 22-6.08 41.94a119 119 0 0 0-3.88-18.69c-4.54-16.42-11.76-32-19.31-47.18-7.13-14.39-14.58-28.59-21.1-43.28-5.12-11.54-10.89-24.21-13.51-37.06-.05-5.08-.78-8.82-.94-5.59q-.39-3.11-.48-6.24a19.84 19.84 0 0 1 2.39-10.51c2.63.86 5.31 3.2 7.81 5.92M528.2 6a12.1 12.1 0 0 0-2.2 4.08c.08-1.14.16-2.28.2-3.42.24-.28.47-.57.71-.83a6 6 0 0 1 1.29.17m-30.91 38.28a92.2 92.2 0 0 0 16.2-21.84c2.22-4.14 4.27-8.34 6.84-12.27 1.91-2.93 3.9-4.19 5.92-4.34-.16.14-.31.3-.46.45-4.76 4.72-6.9 11.77-8.9 17.92a253 253 0 0 1-9.23 24.9c-7.21 16-17.9 32.87-16.37 51.12.51 6 5.76 51.68 14.08 54.19l-2 2a1 1 0 0 0-.1-.32c-4.25-12.6-11.38-24.56-17.81-36.09-5.67-10.18-13.49-18.9-21.94-27.16 3.37-20.27 19.55-34.26 33.77-48.56m-25.81 65.19c6.44 7.92 11 17.52 15.64 26.52 2.94 5.64 5.7 11.38 8.15 17.25a60 60 0 0 1 2.25 6.34 11 11 0 0 1 .24 1.12c-1.33.13-14.47 13.52-26.2 27.28 2.64-10.53 2.75-21.74 1.83-32.46a99.4 99.4 0 0 0-12.17-40.47c-13.33-23.79-34.47-41.85-46.33-66.31 14.49 21.78 54.11 57.7 56.59 60.73m-59.78-66.1c8.6 25.21 30 44.37 44.08 66.39a99.75 99.75 0 0 1 15.11 42.74c1.56 13 1.35 27-2.82 39.62-2.1 2.53-4.1 5-5.92 7.43 2.18-8.69.85-19.29-.12-27-1.76-13.89-6.71-27.12-13-39.56-14.14-28-35.88-54.66-37.86-86.88.21-1 .39-1.92.53-2.74m-1.25 6c2 28.37 20.43 53.49 33.63 77.81 7 12.87 12.81 26.43 15.41 40.91a104.8 104.8 0 0 1 1.51 21.73 42.5 42.5 0 0 1-1.8 12.27c-.19-9.42-6.26-19-10.92-26.57-6.85-11.18-15.07-21.54-21.4-33-14.13-25.64-17.51-55.59-18.53-84.71.81-3.05 1.54-5.91 2.1-8.44m-13.3 48.55c.33-1.32 6.25-21.17 10.55-37.56.66 26.64 3.92 52.64 15.13 77.64 5.24 11.66 13.23 21.92 20.18 32.57 6.51 10 14.8 22 14.18 34.44a.67.67 0 0 0 .46.67 16 16 0 0 1-1.3 1.86 265.7 265.7 0 0 0-60-44.54c-10.75-19.25-4.25-45.18.8-65.08m-82.32-39.37c17 0 31.56 3.48 47.23 9.71A180 180 0 0 1 382.67 78c3.46 1.92 8.84 4.7 11.79 8.4-2 6.81-3.85 13.62-5.36 20.46a160.5 160.5 0 0 0-3.69 23.06 63 63 0 0 0-5.22-8.46A116.8 116.8 0 0 0 360 100.3c-9.36-7.86-18.61-14.07-30.07-18.51s-23.38-7.14-35.13-10.4C282.89 68 270.15 66.6 258 63.8a225 225 0 0 1-22.62-6.25c-.74-.25-1.74-.57-2.84-.95-1.32-1.29 52.46 1.88 82.29 1.95m-83.08-.76 3 3.12c1.82 1.91 3.6 3.87 5.35 5.85a129 129 0 0 1-10.69-7.54 94 94 0 0 1-8-7.16 74.5 74.5 0 0 0 10.34 5.73M220.12 54c1.78 3.44 4.61 6.88 5.92 9.2q7 12.38 13.26 25.16c7.45 15.26 13.07 31.34 20.81 46.44 7.4 14.43 16.14 30.23 27.68 41.83q3.38 3.39 6.72 6.81c.53.53 1 1.07 1.56 1.61-.45 5-.78 10-1.05 15q-.45 8.25-.72 16.52c-28.54-13.29-40.21-46.18-48.23-74.58-7.78-27.5-11.79-57.4-24.09-83.49-.58-1.5-1.18-3.07-1.86-4.5m10.49 66.8c-1-16.69-1.25-34.71-5.26-51.28 2.75 8.27 4.92 16.76 7 25.16 4.19 17 7.93 34.21 12.73 51.09 8 28.22 20.48 60.33 49.17 72.94a525 525 0 0 0 1.15 56.52c-9.2-18.18-22.34-35.18-33.2-50.72l-3.1-4.43a241.6 241.6 0 0 1-28.49-99.33ZM77.4 101c20.09-1 40.75 6.84 58.76 14.51 21.35 9.09 42.55 20.8 59.8 36.46 22.44 20.37 40.75 47.47 58.17 72.09q13.89 19.62 26.54 40c7.07 11.4 20.16 47.27 27.74 65.36-11.58-19.57-24.23-38.51-37.23-57.16C255 249 238.77 225.31 221.44 202.8c-14.74-19.15-33-35.58-52.22-50.14a336 336 0 0 0-49.89-31.39 265 265 0 0 0-26.44-11.7C89 108.1 76.62 101.83 77.4 101m-2.72 7.85c.46.41.89.86 1.35 1.29 4.41 20.58 18.85 38.16 32.94 53.1 8.14 8.64 16.78 16.79 25.24 25.11 10.5 10.31 20.65 21 31 31.49 22.25 22.56 44.55 45.08 66.19 68.24a704 704 0 0 1 54.08 65.45c37.93 51.82 73.3 106.85 122.84 148.09a120.7 120.7 0 0 0 15.13 14.17q2.73 3 5.6 5.82c-6-2.7-11.78-6.67-17.22-10.09-9-5.64-17.72-11.62-26.55-17.46a163.7 163.7 0 0 1-26.54-21.19c-9.3-9.4-17.42-19.94-25.38-30.47-16.08-21.26-32.12-41.8-51.73-60-10.83-10-22.42-19.53-32.26-30.58-9.49-10.64-17.4-22.61-25.62-34.22-15.29-21.6-33.59-40.88-51-60.77-17.92-20.51-35.24-41.43-51.29-63.43-9.65-13.23-19.85-26-28.92-39.68a152 152 0 0 1-13.87-25.19c-2.56-6.07-4.67-13-4-19.65Zm158 301.89c-18-19.43-33.29-41.38-47.81-63.47-13.8-21-26.55-42.66-39.93-63.94-14.13-22.48-30.13-43.77-41.87-67.68-9.57-19.47-14.81-40.86-22.83-61-5.24-13.32-13.54-33.07-7.18-47.21.39.32.76.67 1.14 1-1 6.9 1.18 13.88 3.69 20.26 3.53 9 8.51 17.37 13.6 25.5 10 16.05 21.91 30.91 33 46.23 17.6 24.26 37.38 46.85 57.11 69.36 9.73 11.09 19.75 22 29 33.5 9 11.13 16.69 23.18 25.13 34.69 16.11 22 37.55 38.34 56.63 57.52 18.19 18.28 32.44 39.88 48.42 60a212 212 0 0 0 23.87 25.89c7.5 6.76 16 12.05 24.38 17.65 8.16 5.47 16.32 10.95 24.66 16.15 6 3.75 12.35 7.94 19.18 10.11.77.71 1.53 1.44 2.32 2.15-4.1-.94-75.54-30.75-87.82-35.25-5.42-2-40.79-21.37-52.57-29.43-22.23-15.2-43.76-32.22-62.12-52Zm-133.9-19.05c18.71-2.13 37.48-.64 55.17 6 17.06 6.42 33.34 16 49.13 25 30.87 17.62 60.51 37.3 92 53.89a292 292 0 0 0 36.1 16q18.06 10.14 37 18.6a298 298 0 0 1-34.66-11.41c-26.35-10.49-51.41-23.95-76.72-36.66S206 439.27 179 430.55c-29.56-9.56-59.19-19-89.5-26-14.65-3.36-29.65-4.2-44.65-3.9 17.96-2.89 35.82-6.9 53.93-8.96M8 404.15a21.4 21.4 0 0 0 3.64.52c.23 0 .31-.28.07-.34s-.56-.17-.84-.25c14-.07 28-1.62 42-1.63 16 0 31.2 2.68 46.63 6.53 30.15 7.52 59.67 17.37 89.2 27 54 17.53 101.27 50.83 154.63 70 11.08 4 22.62 6.65 34 9.71a3.24 3.24 0 0 0 1.39.37l1.91.53a427 427 0 0 0 12.6 4.95h-1.73c-9.89-2.21-20.15-2.22-30.29-2.65a226 226 0 0 1-23.64-2.36 127 127 0 0 1-17.16-5.19c-6.66-2.57-12.85-6.3-19.21-9.52q-10.22-5.18-20.66-9.92c-13.26-6.08-26.77-11.61-40.41-16.77-27.95-10.56-56.5-18.82-85.45-26.13-30-7.58-60.22-14.63-89.69-24.22-10-3.24-20.14-5.88-30.14-9-6.17-1.95-12.31-4-18.32-6.41a54 54 0 0 1-7-2.95c-.15-.32-.32-.62-.46-.94s-.71-.19-.59.11c0 .09.09.17.13.26-.21-.14-.43-.28-.62-.43a11 11 0 0 1 .01-1.27M322.41 514l-7.13-1.31c-30.14-5.69-59.74-13.87-89.28-22.08-30.29-8.43-60.72-16.24-91.19-24q-23.3-5.92-46.56-12c-10.92-2.88-21.65-5.72-32.1-10.1-17.84-7.51-36.93-18.7-45.91-36.61 2.29 1.14 4.83 2 6.47 2.66 7.81 3.24 15.91 5.82 24 8.37C61 425.34 81.41 431.7 102 437.26c29.86 8.08 60.06 14.83 89.76 23.46a642 642 0 0 1 84.42 31.37c15.52 6.99 30.32 15.82 46.23 21.91M33 448.25c-14.85-10.62-25.36-24.44-25-41.73a15 15 0 0 0 1.39.85c8.21 17.73 26.29 29.31 43.44 37.26a155 155 0 0 0 28.24 9.81c15.29 3.75 30.46 8.06 45.7 12 30.57 7.91 61.18 15.68 91.58 24.22 29.46 8.27 58.93 16.58 88.93 22.73q15.14 3.12 30.45 5.25c.45.11.91.23 1.37.33 5.91 1.28 17.87 4.76 18.91 4.41.12 0-34.08-2.7-52.55-4.79-63.92-7.19-128.24-16.93-190.15-34.77-28.42-8.18-58.04-18.19-82.31-35.57m180.3 143.69c-34.43-8.31-67.84-24.27-96.7-44.67-26.79-18.94-51.6-44.9-57.5-78.13 5.89 2.72 11.49 5 16.33 6.94 59.07 23.21 123.32 33.85 185.9 42.57q46.4 6.45 93.09 10.46 14.52 1.27 29.08 2.25c9.9.65 66.91 11.56 68.15 11.51 1 .22 16.16 7.78 23.24 11-.87-.09-70.59 28.36-103.48 35.59-.62-.42-4.27.63-5.21 1.12l-3.37.71c-49.34 10.01-100.3 12.54-149.53.65m295.59 62.57a1.55 1.55 0 0 0-.41 1.39c-.53.25-14.55 50.66-71.81 90-22.95 15.76-54.11 26.44-76.46 4.58-20.55-20.11-22.84-55-21.75-82 .93-23.27 5.54-55.82 25.35-71.6 34.62-6.85 68.12-17.43 101.77-27.72C455 601.46 480.67 631 510.08 653a9 9 0 0 1-1.19 1.51m163.3 57.55c-38.91-1.74-76.36-17.62-110.75-34.77-37.1-18.5-106.62-60.56-89.41-110.15 2.84-.87 5.69-1.7 8.53-2.55 2.32 5.49 6.55 11 9 14.74 6.54 10 13.83 19.48 23.37 26.8 25 19.15 59.3 25.18 89.27 31.71 40.13 8.75 81.07 12.45 121.19 21.1 15.47 3.33 29.21 10.11 44 15.41 2.47.88 7.72 4.59 8.85 5.12-31.74 19.75-65.66 34.31-104.05 32.59m110-39.31c-7.61-1.66-15.16-5-21.69-7.66-12.84-5.25-25-9.62-38.6-12.53-37.23-7.94-75.3-10.87-112.51-19-28.45-6.21-58-11.66-83.69-25.94-11.18-6.21-19.27-14.81-26.86-24.9-3.74-5-10.2-12.44-13.47-19.58 2.69-.8 13.21-1 13.26-1.06a117 117 0 0 0 14.13 2.46 58 58 0 0 0 7.8.32c-1.06 16.66 20.8 27.67 33.22 33.64 27.76 13.35 58.23 21.27 87.92 29 29.32 7.63 58.88 14.3 88.21 21.89 11.8 3 23.58 6.24 35.13 10.11 4.38 1.46 12.92 8.78 15.27 9.3a19 19 0 0 0 2.11 3.39.71.71 0 0 0-.26.56Zm-11.34-17.44a195 195 0 0 0-29.51-19.18c-22.22-12.14-46.08-20.78-69.67-29.82-25-9.57-50.31-18.53-76.55-24.1-17.91-3.79-39.81-7.55-53.53-20.69-.29-.27-.54-.57-.8-.85A81 81 0 0 0 559 550.12c.42.46.85.9 1.27 1.35h-.43c-.44 0-.44.51 0 .54s.69.08 1 .12c30.89 32.53 79.13 40.1 120.84 50 17.85 4.23 35.41 9.25 52.26 16.59 17.53 7.64 35.52 17.92 46.8 33.81a45 45 0 0 1 6.86 14.64c-2.67-1.74-13.92-9.51-16.82-11.86Zm26.72 6.74c.84 3.16-3.33 6.37-6.49 8.28-6-33.6-46.7-51.15-75.42-60.88-40.88-13.86-85.12-16.72-124-36.68-10.16-5.23-28.48-22.18-31.34-23.63a156 156 0 0 0 12-10.41c0 .09.08.18.13.26 4.56 6.75 9.95 12.75 16.21 16.78a92 92 0 0 0 35.5 22.05c21.67 7.55 45.36 8.2 67.94 10.9s68.81 26.52 72.47 27.41c1.6 1.29 3.19 2.63 4.74 4 12.2 11.07 24 25.87 28.23 41.92Zm103.87-75.49a1 1 0 0 0-.75 1.44 470 470 0 0 1-67.09 16.94 409 409 0 0 1-44.15 5.55c-6.11.43-13.85 1.88-20.46.7a124.4 124.4 0 0 0-43.58-22.11c-25.58-7.16-52.52-7-78.59-11.35-16.55-2.74-31.46-8.11-44.19-16.88a31.6 31.6 0 0 0 12.78-1.38 35 35 0 0 0 6.92-3.05c.63-.14 1.27-.25 1.91-.35 34.41 26.83 82.82 29.62 124.66 31.31 25.43 1 51 2.49 76.39 2.64a734 734 0 0 0 78.86-4.22Zm3-3.11a766 766 0 0 1-77.33 4.34c-24.68 0-49.4-1.53-74.07-2.35-23.1-.77-46.21-2.22-69-6.42-20.91-3.87-41.81-10.32-59.06-23.08 5.68-.79 11.76-.22 17.11.29 10.68 1 21.25 3.29 31.72 5.59 9.22 2 18.43 4 27.7 5.75 14.7 2.79 29.78 6.21 44.76 6.8 14 .55 27.94-2.27 41.78-4 13.39-1.65 26.89-1.2 40.34-.51 25.8 1.32 52 4.72 76.57 13a1.22 1.22 0 0 0-.51.59Zm-116-62.06C833.6 526.15 867.16 555 904 578.17c-17-7.16-34.79-11.93-52.86-15.7-23.76-5-47.7-9.11-71.5-13.85-46.22-9.21-94.55-17.92-141.3-7.53 1.18-1.62 2.3-3.3 3.37-5 2.87.22 100.56-19.56 146.71-14.7Zm202.5-204.55c-13.41 29.8-36.31 54.48-52.18 82.93-55 98.56-178.54 113-177.87 113.31-.76.23-79.2 8.93-115.83 17.38q1.66-3 3.18-6c.27-.27.56-.51.84-.78 25-2.48 48-14.5 71.29-23.19 13.27-4.95 26.89-8.84 40.11-14 13.06-5.08 25.85-10.85 38.41-17.06C847 445.62 892.44 416.36 931 378.8a508 508 0 0 0 48.22-54.8c6.61-8.62 13.43-17.13 19.64-26 .35-.51.69-1 1-1.52-3.09 6.89-6 13.82-8.91 20.33Zm2.46-15.14c-7.12 9.83-14.7 19.44-22.22 29a484.4 484.4 0 0 1-54.62 58.76c-40.86 37.08-89.78 66-140.09 88.33-22.71 10.06-46.59 16.66-69.54 26.06-11.31 4.64-22.55 9.45-34.18 13.29a141 141 0 0 1-19 4.8c-1.1.21-2.21.37-3.33.52l.41-.37C655.51 518 661 514.85 666.5 512c10.65-5.62 21.49-10.63 32-16.57 26.9-15.25 54.64-29 82.28-42.81q40.29-20.15 79-43.3c25.57-15.25 50.84-31.12 74.21-49.6 16.62-13.13 32.26-27.61 45.85-43.88 10.25-12.27 18.21-26.67 28.24-39.19l.38-.25c-3.35 9.16-9.42 17.57-15.05 25.35Zm14.77-35.54c-5.69.8-16.48 1-17.83 1-8.6.26-16.8.49-25.26 2.12a287.8 287.8 0 0 0-78.56 27.38c-24 12.62-44.68 30.55-66.44 46.5-10.32 7.57-21.28 14.19-31.43 22a226 226 0 0 0-27.6 25.23c-8.13 8.74-15.47 18.47-20.48 29.34l-3.94 3.9c2.41-3.63 4.72-7.41 6.94-11.39 3.78-6.8 69.8-95.07 108.21-121a209.6 209.6 0 0 1 79.11-32.59c29.16-5.47 61.72-8.5 91.28-2.81-.37.37-5.87 4.47-14 10.32"/></svg>