<svg xmlns="http://www.w3.org/2000/svg" viewBox="0 0 855.14 661.46"><path fill="currentColor" d="M394.6 389c-.23-1.29-1.2-2.59-1.43-3.89-1.76-58.79-6.58-117.5-13.79-175.87-2.06-16.66-4.53-33.3-7-49.9-.21-1.44-2.49-.83-2.28.6q13.41 89.25 18.24 179.53c.53 10 1 20 1.33 30q-6.45-36.27-12.95-72.47c-5.47-30.63-10.72-61.4-11.06-92.59a1.13 1.13 0 0 0-2.25 0c.34 30.89 5.47 61.39 10.87 91.72q8 44.61 15.92 89.18c.05 1.65 1.59 3.31 1.64 5 0 1.45 3.75 1.46 3.75 0-.04-.31-.89-.78-.99-1.31m4.4-216.36q-.48 84-.95 168.05l-.27 48a1.13 1.13 0 0 0 2.24 0q.48-84 .95-168l.27-48a1.14 1.14 0 0 0-1.21-1.06 1.15 1.15 0 0 0-1.06 1Zm14.19 61.24c-.06-1.45-2.33-1.46-2.26 0a693.2 693.2 0 0 1-10.55 156.29c-.27 1.42 1.92 2 2.18.6a695.6 695.6 0 0 0 10.62-156.89ZM617 232.37c-31.22 12.37-49.88 42-71.63 65.88a363 363 0 0 1-73.26 61.5c1.23-1.05 2.46-2.11 3.66-3.19 17.65-15.8 32-34.75 47.82-52.29 9.21-10.21 19-20 30-28.26 1.15-.86 0-2.83-1.14-1.95-18.45 13.94-33.29 31.72-48.28 49.17s-30.41 33.86-49.3 46.84q-8.52 4.8-17.3 9.09c19.38-15.63 34.93-35.89 50.16-55.52 21.25-27.38 42.7-54.82 67.53-79.11a303.4 303.4 0 0 1 45.51-37c1.22-.8.08-2.76-1.14-2-28.69 18.81-53.14 43.1-75.37 69.07-22.38 26.13-41.9 54.69-64.81 80.35-9.68 10.84-20.25 20.93-32.21 29.11q-7.56 3.42-15.27 6.5c.38-.65.77-1.3 1.16-1.95a519 519 0 0 0 40.89-54c7.15-10.85 13.58-22.1 20.37-33.16S488.51 280 498.64 272c1.14-.9-.47-2.5-1.6-1.6-19.69 15.6-30.04 40.17-43.52 60.77A515 515 0 0 1 419.11 378c20.67-37.57 36.75-77.71 61-113.2a228.3 228.3 0 0 1 25.38-31.13 1 1 0 0 0 .57-.35l1.22-1.46.68-.68a1.2 1.2 0 0 0 .29-.47 555 555 0 0 0 56.16-80.46 1.14 1.14 0 0 0-.43-1.57 1.15 1.15 0 0 0-1.56.41 552 552 0 0 1-56.76 81.14c-36.4 36.22-56.28 84.37-79.37 129.33-4.82 9.38-9.81 18.66-15.15 27.76-1.66 1.92-3.32 3.83-5 5.73 13.14-21.19 17.78-45.93 22.89-70 2.67-12.55 5.54-25.09 9.88-37.2 5-14 11.17-27.6 16.91-41.31q9.84-23.46 19.67-47c.57-1.34-1.62-1.93-2.18-.6-11.38 27.17-23.32 54.18-34.08 81.6-9.41 24-12.71 49.45-19.2 74.26-3.68 14.06-8.64 27.76-16.47 40.08a1.12 1.12 0 0 0 .41 1.53 1.15 1.15 0 0 0 .81.12l-1.63 1.82c-1 1.05.55 2.6 1.54 1.66a1.15 1.15 0 0 0 .79 1.4 1.16 1.16 0 0 0 1.21-.4q1.65-2.64 3.27-5.31c1.31-.51 2.61-1 3.91-1.54a1 1 0 0 0 .93 1.06 1 1 0 0 0 .43-.06l.26-.1a1.09 1.09 0 0 0 1.13 0c1-.54 2-1.09 3-1.66a194.4 194.4 0 0 0 36.45-19.51 366.3 366.3 0 0 0 83.07-63.84c11.84-12.18 22.33-25.49 33.52-38.25 12.64-14.4 26.75-28.09 44.85-35.26 1.49-.54.83-2.71-.51-2.17m68.4 24.29c-18.79 4.86-37.66 9.8-55.57 17.38a155.6 155.6 0 0 0-25.65 13.56c-8.56 5.67-16.23 12.48-23.95 19.21a429.2 429.2 0 0 1-98.37 64.55c-2.39 1.13-4.78 2.23-7.19 3.31-.22.07-.45-.4-.67-.33a355 355 0 0 0-42.46 15.88c-4.11 0-8.24 3.16-12.39 4.37-1.39.41-.8 2.87.61 2.46a430 430 0 0 0 55.37-20.26c12.24-3.7 24.58-7.07 36.57-11.46 25.27-9.25 46.57-24.67 68.4-40 12.4-8.72 25.07-17.08 38.81-23.54 1.32-.62.17-2.57-1.14-2-24.49 11.52-45.25 29.06-67.83 43.69a192.7 192.7 0 0 1-36.38 18.77c-8.07 3.06-16.3 5.63-24.56 8.11a424 424 0 0 0 37.24-20.69 424 424 0 0 0 46.48-33.52c7.76-6.43 15.13-13.32 23-19.61a142 142 0 0 1 26.4-16.54c20.23-9.85 42.17-15.53 63.87-21.14a1.15 1.15 0 1 0-.61-2.22Zm28.4 62.52c-39 1.82-75.07 17.4-110.48 32.43-18.45 7.84-37 15.63-56.18 21.46-21.23 6.45-43.23 10.36-64.91 15L407.1 404c-1.43.3-.82 2.49.6 2.19l66.36-14.08c22-4.67 44.31-8.69 66-14.61 37.75-10.3 72.48-28.85 109.21-42 20.81-7.44 42.32-13 64.48-14 1.48-.12 1.49-2.39 0-2.32Zm0 39.6c-40.16-5.85-79.8 5.29-117.8 17.16-19.47 6.09-38.92 12.39-58.86 16.78-19.46 4.28-38.91 5.61-58.77 6.22-21 .65-42.37 1.61-62 9.84a1.24 1.24 0 0 0-.65 1.63l-5.1-.12a1.14 1.14 0 0 0 0 2.27c30.95.71 61.91 1.72 92.87 2.09a252.5 252.5 0 0 0 44-2.88c14.8-2.44 29.33-6.17 43.85-9.88l51.28-13.12a1.14 1.14 0 0 0 .79-1.39 1.11 1.11 0 0 0-1.37-.79c-29.21 7.47-58.39 16.05-88 21.72-30.17 5.78-60.71 3.89-91.24 3.18l-44.49-1a100 100 0 0 1 12.53-4.1 1.13 1.13 0 0 0 .52 1.49 1.1 1.1 0 0 0 .47.11 1.15 1.15 0 0 0 1.08-1.21 1.1 1.1 0 0 0-.37-.79c13.18-3.19 26.87-4.09 40.48-4.57 19-.67 37.75-1.22 56.46-4.77 39-7.38 75.71-23.1 114.4-31.59 22.75-5 46.19-7.43 69.36-4.06 1.45.17 2.06-2 .62-2.22Zm-136.19 62.87q-77.13-1.71-154.08-8c-1.45-.12-1.45 2.15 0 2.27q76.89 6.24 154.08 8a1.14 1.14 0 0 0 0-2.27m47.66 24.8c-31.64-2.75-63.29-5.42-94.92-8.26-30.88-2.78-61-8.13-90.31-18.44-1.38-.48-2 1.71-.6 2.19a333.8 333.8 0 0 0 68.15 16.13c24.89 3.17 50 4.76 75 6.94l42.67 3.71c1.46.13 1.46-2.14 0-2.27Zm-41.47 4.86A1022 1022 0 0 1 456 427.89a1.14 1.14 0 0 0-.61 2.19 1022 1022 0 0 0 128.41 23.49c1.45.17 1.44-2.1 0-2.26m14.94 63.62a181.8 181.8 0 0 0-65.34-38.14c-13.28-4.41-26.13-8.64-38.19-15.9-8.89-5.34-17.25-11.47-25.71-17.46 27.09 12.07 57.17 17.59 84.57 29a145 145 0 0 1 30.66 17c1.18.87 2.31-1.1 1.15-2-32.9-24.35-74.9-29-111.9-44.5A143 143 0 0 1 443.77 426a.91.91 0 0 0-1.29.1.8.8 0 0 0-.12.19q-9.23-4.95-18.92-9c-1.35-.56-1.93 1.63-.6 2.19a211.7 211.7 0 0 1 35.81 19.17c10.64 7.09 20.77 14.93 31.57 21.79a146.6 146.6 0 0 0 34 15.73c12.83 4.15 25.34 8.62 37.26 15a178 178 0 0 1 35.7 25.32c1 1 2.65-.57 1.57-1.56ZM386.31 392.46l-.33-.75a1 1 0 0 0 .34-1.1l-.15-.55a1.21 1.21 0 0 0-.1-1.34l-.35-.46A1400 1400 0 0 1 357 247.18c-.22-1.43-2.4-.82-2.19.61Q365.11 316 382 382.86C356.18 325.42 330.75 267.6 313.26 207c-4.45-15.43-8.78-31.25-18.6-44.27-.87-1.15-2.84 0-2 1.14 9.06 12 13.4 26.42 17.5 40.69q6.84 23.58 14.84 46.7c10.85 30.86 23.36 61.11 36.44 91.08q7.33 16.8 14.86 33.51-3-4.14-5.94-8.31c-8.76-16.22-17.48-32.46-25.65-49a601 601 0 0 1-30.12-72.25q-7.17-20.91-12.8-42.33a1.13 1.13 0 0 0-1.46-.67 1.13 1.13 0 0 0-.72 1.27 612 612 0 0 0 24.87 74.54c9.83 24.14 21.5 47.34 33.77 70.32l.34.64c-23.25-35.65-43.14-73.48-62.91-111.15-.68-1.29-2.64-.15-2 1.14 23.12 44.06 46.44 88.28 75 129l12 22.48c.69 1.29 2.65.15 2-1.14q-2.13-4-4.24-7.9c.69.93 1.39 1.85 2.09 2.78l3.73 8.28a1.17 1.17 0 0 0 2.05-1.09m-3.25 1.31q-4.2-3.06-8.33-6.24-45.93-52.29-86.83-108.71-12.27-16.92-24-34.19c-.82-1.2-2.78-.07-2 1.14q41.61 61 89.1 117.62 6.87 8.16 13.83 16.24a379 379 0 0 1-44.22-43.12c-19-21.79-36.17-45.08-55.27-66.77q-16.11-18.3-33.54-35.34c-1.05-1-2.65.59-1.6 1.61 20.89 20.37 40.09 42.28 58.37 65 18.06 22.45 35.94 45 57 64.74q13.2 12.39 27.58 23.42l5.63 6.38a1.11 1.11 0 0 0 1.9-.74l1.23.91c1.19.86 2.32-1.1 1.15-1.95m-8 3.4c-9.86-9.36-21.18-16.6-32.93-23.17a1.07 1.07 0 0 0 .32-1.45c-5.53-9.71-14.22-16.66-23.38-22.77-10.75-7.16-21.56-13.68-31.12-22.46-10.36-9.53-20-19.81-30.7-28.94a303 303 0 0 0-33-24.41c-1.23-.79-2.37 1.17-1.14 2a299 299 0 0 1 33.62 24.93c10.35 8.89 19.64 18.84 29.67 28.06 8.83 8.12 18.68 14.44 28.7 20.94 9.59 6.21 18.93 13 24.9 22.93-10.09-5.55-20.45-10.67-30.45-16.26-25-14-48.6-30.39-72.11-46.75-1.2-.83-2.34 1.13-1.15 2 23.13 16.09 46.3 32.22 70.87 46 22.63 12.74 47.27 22.87 66.34 41 1 .95 2.61-.65 1.55-1.65Zm8.41 6.39c-6 0-5.89 0-8.31-.11a164 164 0 0 1-22.67-8.45c-8.48-4-16.59-9.19-25.15-13-17.66-7.9-36.42-13.94-54.52-20.73a1 1 0 0 0-1.24.37 863 863 0 0 0-142.87-48.39c-1.42-.34-2 1.84-.62 2.19a860 860 0 0 1 143.66 48.75 1.22 1.22 0 0 0 1.42-.33l27 10.11c9.46 3.55 19.17 6.77 28.3 11.14 8.26 3.95 15.94 8.95 24.29 12.74q6.21 2.83 12.72 5.15c-44.66-3.12-87.32-19.11-130.38-30.54-13.58-3.61-27.27-6.75-41.14-9-1.42-.23-2 2-.6 2.18 50 8.07 97 28.34 146.89 36.65a251 251 0 0 0 33.52 3.39q2.31.69 4.68 1.34c.88.23 2.46-.53 2.42-1.23h2.59Zm-1.41 4.76c-.41.33-.82.64-1.24 1a1.11 1.11 0 0 0-.48-1.48 1 1 0 0 0-.52-.12c-60.38 1.17-117.51-25-177.91-23.66a155.1 155.1 0 0 0-47.07 8c-1.37.47-.78 2.66.6 2.19C213 374.44 273 396.45 330.21 405.9c16.41 2.7 33 4.42 49.61 4.1h.18c-1.19.92-2.4 1.82-3.61 2.69-.45.24-.91.46-1.36.69a1 1 0 0 0-1-.19A263.4 263.4 0 0 1 316.52 424c-20 1.44-40.06.11-60 2-1.44.14-1.46 2.4 0 2.27 20.43-1.91 41-.5 61.44-2.08a265 265 0 0 0 46.8-8c-40.85 17.3-87.36 17.57-129.1 32.67-1.36.5-.77 2.69.61 2.19 40.34-14.6 85.07-15.42 124.93-31-35.43 18.87-77.81 23.07-114.7 38.7a141.8 141.8 0 0 0-34 20c-1.14.91.48 2.51 1.6 1.6 38.72-31.24 91.16-33.43 135.61-52.33a147 147 0 0 0 27.88-15.38c2-1 3.9-2.09 5.82-3.23a1.09 1.09 0 0 0 .42-1.46v-.05c.86-1-.69-2.47-1.78-1.58Zm6.61 5.75.09-.13c.86-1.18-1.1-2.31-1.95-1.14-6.5 8.9-13.12 17.76-20.73 25.76s-16.61 14.72-25.66 21.26c-15.08 10.89-30.81 23.1-36.14 41.78a1.14 1.14 0 0 0 2.19.61c5.83-20.45 24.37-32.55 40.58-44.41a149.5 149.5 0 0 0 22.45-19.59 256 256 0 0 0 17.69-22.12c-2.09 15.16-14.75 26.27-24.87 36.69-5.65 5.82-11.34 11.61-16.95 17.47-5.06 5.29-9.83 10.81-13.05 17.43-.63 1.31 1.32 2.46 2 1.15 3.63-7.46 9.25-13.44 15-19.34L368 450.21c9.66-9.94 20-20.61 21.61-35.06a.93.93 0 0 0-.76-1.07h-.17Zm99.47 161.86a115.36 115.36 0 0 0-26-60.67c-8-9.54-17.34-18-23.92-28.69s-10.63-22.71-16.52-33.75A214.6 214.6 0 0 0 399.21 419c-.06-.11-.11-.23-.16-.34-.64-1.22-2.41-.27-2.05.93-.23-.3-.46-.6-.71-.9a.92.92 0 0 0-1.11-.3c0-.3.07-.61.13-.91.18-1.44-2.09-1.43-2.27 0-3.2 25.21-16.76 47.38-32.25 66.95-7.89 10-16.35 19.44-24.56 29.13-6.4 7.55-13.09 15.81-13 26.22a1.13 1.13 0 1 0 2.26 0c-.1-12.48 10.28-22.25 17.85-31 8-9.34 16.12-18.66 23.54-28.5 13.37-17.74 24.45-37.59 28-59.71a56.4 56.4 0 0 1 5.93 9c4.67 17.47.48 36.71 4 54.47 2.28 11.64 7 22.74 11.09 33.82l13.46 36.3c.5 1.36 2.69.77 2.19-.6q-6.75-18.15-13.46-36.3c-4.27-11.5-9.24-23.06-11.35-35.2-2.52-14.49-.35-29.74-2.11-44.28 2.3 5.79 4.06 11.84 5.81 17.82 3.4 11.69 7.4 22.86 13.19 33.6 12 22.3 28.53 42.39 35.8 67a1.14 1.14 0 0 0 2.19-.61c-7.33-24.82-23.9-45.08-36-67.55-6.3-11.69-10.26-23.89-14-36.57-2.32-7.85-4.88-15.66-8.69-22.82-.18-.67-.37-1.34-.58-2A211 211 0 0 1 418.12 451c5.75 10.37 9.89 21.47 15.42 31.93 5.38 10.21 13.15 18.52 20.86 27s14.72 17.59 20 27.93A113 113 0 0 1 485.88 576c.16 1.36 2.42 1.38 2.25-.07Zm39.78-11.85c-7.15-22.06-23-39.36-39-55.52-18.76-18.94-37.23-38.09-54.93-58.05q-15.54-17.55-30.38-35.7c-.92-1.13-2.52.48-1.6 1.6q25.35 31 52.7 60.23c16.71 17.86 35.14 34.39 50.78 53.21 8.65 10.41 16 21.89 20.2 34.84.48 1.38 2.67.79 2.22-.61Zm-6.19-42.14a666.5 666.5 0 0 1-105.15-96.19c28.31 25.7 57.82 50.76 93.14 66.18 1.32.58 2.48-1.38 1.14-2-39.33-17.18-71.41-46.31-102.7-75a1 1 0 0 0-1.14-.23c-.95-.67-2.25.78-1.38 1.81a668.4 668.4 0 0 0 115 107.32c1.11.93 2.25-1 1.08-1.89Zm-47.57 116.5a8.27 8.27 0 0 1 4.08 1 15.9 15.9 0 0 1 4.34 3.92c.34.39.67.77 1 1.12a45.8 45.8 0 0 0 9.78 8.09c6.92 4.21 15.42 6.86 26 8.11 16.78 2 36.23.12 57.79-5.54 35.06-9.2 69.78-27.68 109.26-58.16.67-.51 1.36-1.09 2.08-1.69 3.8-3.18 8.53-7.15 14.32-6.17 3.53.59 6.6 2.48 9.31 4.16a36 36 0 0 0 3.53 2c8.54 4.23 17.13 2.54 25.52-5 8.13-7.34 14.87-17.2 21.08-26.66a212 212 0 0 0 17.32-32.26l1.26-2.92 2.84 1.42a4.6 4.6 0 0 1 1.48 1.19l.17.23c1.34 2 1.43 4.72 1.51 7.11a18 18 0 0 0 .21 2.75 9.58 9.58 0 0 0 9.08 7.66c11.13.61 15-10.68 18.2-23.27 3.77-14.67 7.45-30.3 7.46-46a83.7 83.7 0 0 0-2.78-21.48c-.66-2.5-1.49-5.06-2.28-7.55a95 95 0 0 1-3.72-14.41 27.36 27.36 0 0 1 4.46-20.43c3.34-4.75 7.74-8.45 12-12l1.26-1.06c11.45-9.67 18.2-18.71 21.89-29.29 3.86-11.07 3.29-22.68-1.52-31-2.25-3.93-5.6-7-11.17-10.3l-.61-.36c-2.41-1.4-5.41-3.15-7-6.29-1.89-3.61-1.18-7.57-.35-10.61q1.29-4.31 3-8.48c1.63-4.17 3.17-8.12 3.67-12.36.85-7.16-.9-14.6-2.59-21.79l-.49-2.09Q829.27 243 823 216v-.12a1 1 0 0 0-.4-.63l-1.25-.89v-1.54c0-3.16-2.12-6.39-6.28-9.59a170 170 0 0 0-15.07-9.67c-13-7.72-24-12.37-34.84-14.76-5.16-1.13-10.74-1.88-16.65-2.67-17.27-2.32-36.85-5-49.16-18.64l-.65-.71-.11-1a1.3 1.3 0 0 0-.21-.61c-4.74-7.9-6.55-16.77-8.3-25.35A112 112 0 0 0 686 114c-4.48-12.4-11.18-23.31-19.38-31.56-9.09-9.14-20.56-15.08-32.29-16.74-14.52-2.05-29.23 1.61-43.44 5.16l-.71.18c-17.61 4.42-32.68 6.8-49 4a183.5 183.5 0 0 1-24.86-6.16l-3.91-1.21A147 147 0 0 1 494 61.1c-7.76-3.57-12.17-8.65-16.42-15.19-4.11-6.31-7.68-10.92-12.76-14.36-8.36-5.62-19.77-7.71-33.92-6.21-8 .82-15.95 2.76-23.66 4.64-4.79 1.17-9.75 2.37-14.73 3.32-11.86 2.22-27.06 3.81-39.47-3.62-5.19-3.12-8.78-7.63-12.26-12-1.08-1.36-2.2-2.77-3.34-4.08a38.15 38.15 0 0 0-14.52-10.53C310.49-2 297 .14 287.82 2.83 272.11 7.44 259.57 17 246.3 27.1c-9.13 6.95-18.56 14.14-29.08 19.52-8.29 4.22-17.16 6.38-25.73 8.38-3.78.9-7.68 1.83-11.46 2.93-6.89 2-11.73 4.11-15.67 6.85a32.6 32.6 0 0 0-5.52 4.7 39 39 0 0 0-2.58 3.26c-.14.2-.35.57-.55.93-.83 1.49-2 3.52-4.05 4.2-3.29 1.13-7.37-.39-10.65-1.62-.65-.24-1.24-.47-1.75-.63-2.23-.73-4.45-1.54-6.6-2.32-1.7-.62-3.4-1.24-5.12-1.82-7.87-2.69-14.17-3.74-19.82-3.33-4.63.35-11.18 1.85-16.06 6.85-4 4.12-6.67 9.74-9.21 15.18-.53 1.13-1 2.25-1.58 3.35-3.89 7.93-7.75 15.87-11.48 23.61-1.09 2.26-2.22 4.51-3.35 6.76-2.63 5.26-5.36 10.71-7.57 16.17-2.83 7-2.52 13.18.93 18.38 3 4.6 7.26 8.63 11.34 12.53 1.45 1.39 2.94 2.82 4.37 4.25l18.34 18.42-3.69 1.87C54.47 213.29 19 233.84 6.18 271.87-1.18 294-.58 318.66 1 339.9a406 406 0 0 0 12 73A349 349 0 0 0 23.93 448c1.94 5.1 4.16 7.24 7.65 7.36a11.5 11.5 0 0 0 1.76-.13 11.1 11.1 0 0 1 5.46.38l.24.1a12 12 0 0 1 5.05 4.68 87 87 0 0 1 4.67 8.12c2.33 4.44 4.53 8.63 8.15 12.07 6 5.74 13.75 9.34 20.5 12.11 3.23 1.32 6.64 2.57 9.94 3.78 13.26 4.85 27 9.87 36.21 21.9 5.23 6.81 8.84 14.59 12.33 22.11.77 1.64 1.53 3.28 2.3 4.9 4.71 9.82 9.43 17.15 14.86 23.07 22.77 24.81 61.86 34 92.94 21.77a79 79 0 0 0 11.33-5.47 3 3 0 0 0 .38-.29l.83-.77h1.13c11.38-.24 22.2 4.51 29.35 8.12 2.91 1.47 5.8 3.14 8.59 4.76 6.23 3.61 12.67 7.35 19.51 8.82 7 1.53 16.47.72 22-6.12a21 21 0 0 0 1.58-2.27c1.64-2.7 3.9-6.41 9.16-6.18 4.54.18 9.12 1.41 13.55 2.6 1.89.51 3.68 1 5.42 1.38l53 11.82 2.58.55c4.49 1 9.13 1.93 13.42 4.1 6.27 3.11 9.89 9.11 13.38 14.92 5.29 8.77 9 14.09 17.71 13 .55-.07 1.1-.18 1.65-.29a19.7 19.7 0 0 1 3.59-.46Zm343.18-419.77q5.28 22.86 10.6 45.71c1.79 7.71 4.27 15.63 4.69 23.57C833 295 830.45 301 828 307.5c-2.12 5.48-4 11.58-2.34 17.44 1.72 6.06 6.55 9.49 11.71 12.52.69.41 1.36.83 2 1.27-55.94 6.73-112.5-3.87-168.37 4.27a219.3 219.3 0 0 0-41.53 10.28c-13.47 4.72-26.7 10.43-40.19 15.33-27 9.81-55 16.79-83.23 22.19-32 6.14-64.33 10.27-96.64 14.36-.07-.21-.15-.43-.24-.65l84.54-25.42c28.12-8.45 56.28-17.09 82.88-29.7 26.26-12.44 50.95-27.94 77.26-40.3a322 322 0 0 1 175.84-27.94c2.4.29 2.38-3.49 0-3.78A326.26 326.26 0 0 0 665 300c-26.66 11.15-51.33 26.26-77 39.47-27 13.9-55.31 23.79-84.27 32.6q-42.3 12.93-84.65 25.5a458.3 458.3 0 0 0 115.36-68.66c21.31-17.4 40.93-36.72 61.5-55q4.77-4.23 9.64-8.4a2 2 0 0 0 1.5-.09c13-6.29 26.38-12 40-17.06a134.6 134.6 0 0 1 41.11-8.48 538.5 538.5 0 0 0 83.43-10.65c15.29-3.12 30.52-6.77 45.72-10.56m-64.9-36c12.72 1.92 24.56 5.29 36 11.32 5.65 3 11.09 6.33 16.48 9.74 3.47 2.19 10.78 5.3 10.21 10.27a4 4 0 0 0 0 1.29c-27.06 6.74-54.28 13-81.91 16.88-14.74 2.08-29.5 3.22-44.36 3.91a134.7 134.7 0 0 0-39.59 7.47c-11.62 4.12-23 8.85-34.26 14q22-18.24 45.16-34.88c12.47-8.93 25.11-17.85 38.44-25.47a166.9 166.9 0 0 1 40.48-16.52c4.47.74 8.95 1.34 13.35 2Zm-21.69-3.56a168 168 0 0 0-26.6 10.76c-12.23 6.22-23.63 14-34.9 21.77A798 798 0 0 0 605 261.08c-20.92 17.85-40.56 37.13-61.33 55.14a462 462 0 0 1-63.13 46.17 454 454 0 0 1-64.79 32.5c35.33-30.39 62.8-68.59 89.92-106.28 15.67-21.79 31.58-43.36 48.66-64.08q8.64-10.46 17.42-20.75a1.74 1.74 0 0 0 1.06-.32 258.7 258.7 0 0 1 121.27-42.87c9.65 10.91 22.83 15.67 36.69 18.56Zm-57-77.24c6.61 11.46 9.24 23.66 12 36.44a74 74 0 0 0 5 15.64 3.57 3.57 0 0 0 .44 3.08 262.5 262.5 0 0 0-111.75 37.61C589 183.47 598.57 172.32 608 161c19.63-23.55 38.53-47.78 54.79-73.8a73 73 0 0 1 11 14.68Zm-110-19.71c27.7-2.35 58-19.85 85-5.59a55.2 55.2 0 0 1 11.29 8C631 131.39 593.36 171.93 558.12 214c-16.89 20.19-32.89 41-48.32 62.35-15.24 21.08-30.2 42.39-46.47 62.71-17.49 21.85-36.58 42.57-58.57 60-.39-.32-.8-.64-1.21-.95 10.7-13.51 17.55-29.29 23.51-45.34 6.8-18.29 13.37-36.61 21.1-54.53q11.73-27.18 25.66-53.37c9.15-17.19 18.76-34.25 30.29-50s24.58-30.93 31.73-49.5a1.61 1.61 0 0 0-.06-1.39 352 352 0 0 0 26-61.7 13 13 0 0 0 2-.1ZM405.23 412a7.68 7.68 0 0 1-5.42 3.7c-5.29.91-10.48-2.92-13.94-6.54a16.7 16.7 0 0 1-3.84-7.68 2.57 2.57 0 0 1-.3-1.33 9 9 0 0 1-.06-1.26 3.3 3.3 0 0 1 .4-1.56 4.77 4.77 0 0 1 1.93-2.73 2.7 2.7 0 0 0 .45-.29 7.3 7.3 0 0 1 2.59-.81l.29-.06.42-.15a5.6 5.6 0 0 1 1 .14c3.86.23 7.67 3.5 10.95 5.64 3.9 2.56 9.2 7.83 5.52 12.86Zm-70.85-89.49c-15.87-23-31.75-46.14-47.17-69.5a229 229 0 0 1-19.69-36.35c-5.37-12.56-10.46-25.18-17-37.21-11.47-21.17-25.14-41.72-41.36-59.57-12-13.17-25.76-24.79-41.45-33 18.55.91 37.19-2 55.74 0A68.2 68.2 0 0 1 257 99.56c10.61 7.64 20.67 16.16 30.87 24.33 10 8 20.27 16.78 24.88 29.12a1.92 1.92 0 0 0 1.06 1.12c.17.61.33 1.22.51 1.82q21.45 76 44.41 151.57 12.6 41.52 25.71 82.88l-.32.14c-17.47-22-33.79-44.93-49.73-68.08Zm181.8-247.36c13.44 4.15 27.49 7.5 41.63 7.34a347.4 347.4 0 0 1-25.47 60 1.78 1.78 0 0 0 0 1.73c0 .08-.08.15-.12.24-6.38 16.54-17.73 30.43-28.29 44.54-11.49 15.3-21.21 31.7-30.34 48.49a750 750 0 0 0-46.41 104c-6.86 19-13.86 38.48-26.66 54.45l-.8-.58c19.87-38 22.86-81.52 30.66-123 4.51-24 10.73-47.67 16.82-71.32 4-15.36 7.75-30.79 11.82-46.13a2 2 0 0 0 1.38-2.47 2 2 0 0 0-.11-.31l-.33-.76q2.31-8.67 4.78-17.26c6.71-23.27 15.1-46.18 28.31-66.6 7.5 3.29 15.82 5.38 23.13 7.64m-64.84-42.9a30.23 30.23 0 0 1 14.81 8.27c4.74 5 7.6 11.4 12.08 16.6a37.7 37.7 0 0 0 11.4 8.68c-15.63 24.27-24.76 51.83-32.23 79.78q-11.73-26.58-20.8-54.3-5-15.12-9.08-30.5c-2.49-9.25-4.38-18.73-8-27.61 10.37-2.17 21.48-3.51 31.82-.92m-36.1 1.86.5-.11c4.2 9.71 6.09 20.35 8.87 30.52s5.88 20.39 9.23 30.48a600 600 0 0 0 22 56.41c-3.22 12.4-6.19 24.83-9.34 37-6.11 23.69-12.5 47.38-17.5 71.36-4.51 21.53-7.34 43.35-11.27 65-4.13 22.81-9.69 45.53-20.1 66.32.1-21.83-1.34-43.68-2.31-65.47-1-23.37-2-46.74-3.26-70.09-1.22-23.13-2.72-46.25-4.89-69.32s-5.15-46.08-5-69.27v-1.15a1.82 1.82 0 0 0 0-1.86c.55-24.54 6.1-49 2.7-73.53a.1.1 0 0 1 0-.07c10.42-1.21 20.89-4 30.37-6.22M277.41 13.33c10.82-5.33 23.76-8.75 35.84-6.71a32.73 32.73 0 0 1 15.3 6.63c5.63 4.57 9.17 11.1 14.35 16.12 10.77 10.44 24.41 12.51 38.38 11.35a1.75 1.75 0 0 0 0 .72c3.16 22.79-1.93 45.59-2.74 68.37l-50.76-56.23c-7.84-8.69-15.35-18.79-25.15-25.4-8.2-5.52-18.27-7.95-25.65-14.64Zm-4 2.06c7.14 7 16.89 9.73 25.33 14.82 10.45 6.31 18.26 17.09 26.33 26l53.27 59.05c-.23 21.49 2.27 42.89 4.39 64.25 4.56 46.1 6.4 92.4 8.46 138.66 1.09 24.32 2.79 48.72 2.66 73.08a15.5 15.5 0 0 0-5.79-1.76q-24-75.89-46.46-152.25-11.31-38.55-22.25-77.24c-3.58-12.64-7-25.31-10.65-37.93-3.18-11.08-6.9-22.27-13.38-31.93-6.81-10.14-16.24-18.07-26-25.14-10.92-8-22.2-15.42-33.32-23 12.41-8.93 24-19.19 37.49-26.56Zm-65.33 41.55a98.7 98.7 0 0 0 24.53-12.69c10 6.85 20.1 13.64 30.06 20.59 9.39 6.55 18.64 13.56 25.92 22.49 7.72 9.47 12.08 21 15.54 32.54 2 6.75 3.91 13.54 5.78 20.33a83.5 83.5 0 0 0-13.28-13.94c-10-8.57-20.54-16.57-30.88-24.72-8.17-6.45-16.57-12-26.31-15.27a1.7 1.7 0 0 0-.32-.44c-6.27-6.47-12.33-13.29-19-19.37-4.24-3.88-9.28-6.17-14.13-8.86ZM161.34 76c3.1-4.48 7.79-7.54 12.74-9.65 8.54-3.66 17.82-5.09 26.82-7.34 5.87 3.68 12.3 6.07 17.51 11 4.87 4.63 9.49 9.54 14.13 14.42-11.17-2.33-22.68-2.2-34-1.77-13.68.51-27.47 1.47-41-.58l-.62-.25c1.8-1.6 2.96-3.75 4.42-5.83m-57.13-1.21c14.53-3.51 28.22 6.59 42.08 9a18.7 18.7 0 0 0 5.63.25l1.51.55a1.54 1.54 0 0 0 1.22.88l1.79.28c38.85 15.71 66.37 52.67 86.72 88.2C229 162 206.8 158.36 191.09 150c-22.42-12-41.06-29.66-61.17-45-11.37-8.65-23.3-16.58-36.42-22.34h-.11a17.86 17.86 0 0 1 10.82-7.86Zm-12.81 11 .2.11c22.85 10 41.72 26.55 61 42a285.5 285.5 0 0 0 29 21c11 6.71 22.54 11.25 34.62 15.53 13.94 5 29.61 11.9 34.77 27.06a1.88 1.88 0 0 0 2 1.29c9 19.22 16.32 39.27 27.89 57.36 14.9 23.3 30.9 46 46.53 68.8 17.17 25.06 34.74 49.89 53.59 73.73a7.6 7.6 0 0 0-.72.87 1.13 1.13 0 0 1-.6.9c-.1.17-.23.34-.32.53l-1.7-1.46c-2.18-1.56-4.2-3.37-6.25-5.1a44.7 44.7 0 0 1-5.6-5.05q-23.82-20.57-46.95-41.9-15.66-14.46-31-29.26c-10-9.63-20.44-19.11-29.23-29.88C250.19 272 244 260.49 234 251.4s-19.13-18-27.55-28.38c-8.27-10.21-16-20.83-24.76-30.69a247 247 0 0 0-29.08-27.92 52 52 0 0 0-6.66-4.64q-6.3-9.36-12.59-18.74c-4.56-6.79-8.87-13.88-13.95-20.31-4.72-6-11.17-10.07-16.2-15.74S94.59 92.91 91 86.44Zm-22.75 46.75 11.09-22.92c3.08-6.37 6.06-12.81 9.23-19.14a109 109 0 0 0 9.54 14.73c4.85 6.1 11.42 10.29 16.52 16.1 5.59 6.38 10 14 14.67 21l9.63 14.34a43 43 0 0 0-4.5-1.38c-7.88-2-15.79-3.82-23.69-5.73l-45.53-11c1.02-2.09 2.13-4.11 3.04-6m10.78 38.39c-5.06-5.07-11.64-10.12-15.29-16.37-2.35-4-1.68-8.34-.08-12.51l39.57 9.58 21 5.07c6.11 1.48 12.82 2.46 18.43 5.47l1.36 2a1.93 1.93 0 0 0 2.66.54A145 145 0 0 1 160.31 176q7.32 6.66 14.12 13.93c8.88 9.5 16.76 19.82 24.79 30s16.62 20.32 26.48 29.07c4.94 4.4 10 8.71 14.2 13.85 4.35 5.31 7.91 11.22 12 16.77 7.83 10.76 17.6 19.92 27.1 29.17q15 14.61 30.35 28.91 17.38 16.2 35.17 31.95C279.16 327.1 216.76 280 153.76 234.13c-19.33-14.07-38.6-28.3-56-44.7a5 5 0 0 0-.64-.81Zm3.84 34.7c4.29-2.23 8.6-4.4 12.92-6.56a3.8 3.8 0 0 0 2.28-3.81c14.36 13.09 29.82 24.89 45.49 36.38 18.21 13.34 36.51 26.57 54.76 39.85 35.76 26 71.43 52.17 107.84 77.26q28.2 19.41 57.13 37.77c3.15 2.72 6.31 5.42 9.47 8.13-21.43-7.32-41.49-18.32-61.42-28.95q-33.87-18.06-67-37.5-33.42-19.62-66-40.58-16.29-10.47-32.36-21.29c-9.77-6.57-19.38-13.84-30.38-18.13-12.11-4.7-25.29-5.26-38.09-6.22a150 150 0 0 1-20-2.49c-5.46-1.17-12.78-2.68-17-6.76 12.67-10.93 27.5-19.36 42.37-27.1ZM7.83 291.1c3.3-20.73 12.36-38.86 27.5-53.43.86-.82 1.72-1.63 2.6-2.42 3 3.06 7.44 4.59 11.46 5.9a89.5 89.5 0 0 0 16.82 3.51c11.87 1.49 23.93 1.41 35.72 3.59 12.66 2.34 23.21 8.27 33.75 15.4S157 278 167.8 285q65.83 42.87 135.08 80.19c24.22 13.05 48.71 26.91 75.17 35a13.7 13.7 0 0 0 .41 3.67C330.39 392 284 374.55 236 362.31c-23.68-6.05-47.7-10.68-72.07-12.79-2.71-.24-5.4-.51-8.09-.8a1.58 1.58 0 0 0-2.06-.85c-.42.15-.82.31-1.23.47-9.6-1.13-19.08-2.62-28.62-4.59-12.08-2.49-24.18-4.51-36.44-5.88-27.28-3.05-55-4.18-81.42-12.1a181 181 0 0 1 1.76-34.67m1.06 68.18c-1.17-9.69-2.2-19.59-2.69-29.52 22.31 6.51 45.56 8.37 68.61 10.59 13 1.26 25.94 2.7 38.75 5.17 10.65 2.05 21.2 4.47 31.93 6-8.58 4.31-16.46 9.9-24.78 14.78a159.8 159.8 0 0 1-34.25 14.9 163.46 163.46 0 0 1-73.32 5q-2.61-13.38-4.25-26.92m28.6 89.88a17 17 0 0 0-2.68-.06c-1 .06-2.7.63-3.63.08S30 446.8 29.64 446c-2-5.58-3.91-11.22-5.68-16.89a402 402 0 0 1-10-39 166.2 166.2 0 0 0 105.29-18.71c11.23-6.22 21.47-14.3 33.43-19.11 12.21 1.25 24.41 2.14 36.55 4s24.26 4.38 36.24 7.24c24.32 5.8 48.22 13.16 72.07 20.6 26.8 8.38 53.58 16.86 80.87 23.53a1.81 1.81 0 0 0 1.5-.25c.22.4.46.79.71 1.19-22.66 6.32-46.3 6-69.58 4.27-24.4-1.86-48.75-4.51-73.12-6.79l-.65-.06a2 2 0 0 0-2.7-.24c-22-2-44-3-66 .32s-43.09 10-63.83 17.55c-22.48 8.35-44.59 17.64-67.25 25.51m56.37 43.35c-14-5.26-30.86-9.78-38.57-23.9-3.31-6-5.93-13.72-12-17.47C82.87 437 121.34 418.5 163 410.92c22.42-4.08 44.82-3.59 67.39-1.67l-33.38 27c-6.33 5.13-12.62 10.25-19.24 14.9a1.57 1.57 0 0 0-2.17.39 1.4 1.4 0 0 0-.17.32c-.2.45-.41.89-.62 1.32a122 122 0 0 1-12.33 7.3c-21.71 11-46.21 17.13-64.86 33.45-1.27-.48-2.52-.93-3.76-1.42M133 521.58a59.3 59.3 0 0 0-17-18.51 79.6 79.6 0 0 0-14.43-7.55c18.83-15.76 43.54-21.54 65-32.87 1.2-.63 2.38-1.3 3.54-2-7.19 9.31-17.37 16.37-24.29 26A70.35 70.35 0 0 0 133 521.58m3.51 6.32A66.66 66.66 0 0 1 151 486c8.44-10.45 20.35-18 26.65-30.09 7.66-5.2 14.82-11.12 22-17l36.09-29.2c23.45 2.14 46.87 4.62 70.33 6.59 25.57 2.15 51.63 2.89 76.53-4.27a2.2 2.2 0 0 0 .5-.22c.55.6 1.14 1.19 1.75 1.75-11.16 11.44-25.45 18.74-40.32 24.23-5.7 2.11-11.48 4-17.3 5.86a1.74 1.74 0 0 0-1.93.4l-.31.3c-10.29 3.18-20.68 6.08-31 9.16-17 5.1-34.42 9.4-49.42 19.36C228.43 483.63 213 495.62 197.3 507l-52.53 38.13c-2.85-5.71-5.4-11.57-8.32-17.25Zm26.05 41.43A73 73 0 0 1 147 549.48c-.17-.31-.34-.63-.5-1 31.63-23 63.07-46.24 94.93-68.88A105.2 105.2 0 0 1 266 466.14c8.79-3.25 17.88-5.7 26.86-8.39 8.68-2.59 17.41-5.07 26.1-7.67-7.62 7.33-15.26 14.65-22.81 22.06-8.73 8.57-17.09 17.57-23.42 28.1-2.24 3.72-4.35 7.51-6.43 11.32a1.7 1.7 0 0 0-.76 1.38c-3.6 6.58-7.16 13.17-11.25 19.49a252 252 0 0 1-21.82 29 261 261 0 0 1-27.69 27.24 80.7 80.7 0 0 1-42.29-19.34Zm90 9.09a3.58 3.58 0 0 0-3.2 3.78 76.5 76.5 0 0 1-39.4 7.06 260.6 260.6 0 0 0 43.72-49c4.66-6.79 8.83-13.82 12.83-21-2.62 19.67-5.51 39.6-13.83 57.81a1.86 1.86 0 0 0-.13 1.35Zm89.79 7.87c-4.17 2.31-5.34 6.79-8.68 10.11s-8.19 4-12.54 3.61c-6.11-.62-11.71-3.79-16.95-6.76s-10.66-6.07-16.25-8.63c-10.1-4.61-20.54-7.52-31.52-6.65 8.06-18.13 11.07-37.71 13.69-57.24a1.73 1.73 0 0 0 1.5-1.91 1.7 1.7 0 0 0-.29-.78 11.05 11.05 0 0 1-1.81-4.12c.91-1.66 1.81-3.32 2.71-5a134.3 134.3 0 0 1 23.29-30.7c10.29-10.38 21-20.39 31.5-30.53 5.45-1.71 10.88-3.48 16.25-5.4 16.42-5.87 32.36-13.68 44.6-26.36a21.4 21.4 0 0 0 7.37 3.29c2.55 12.88-3.9 26.87-7.58 39-1.88 6.2-3.68 12.43-5.65 18.61a39.3 39.3 0 0 1-9.42 16c-14.79 15.53-30.11 32.92-32.9 55.08-1.67 12.91 3.33 25.56 2.67 38.38Zm38.51 5-20.6-4.6c-4.55-1-9.52-2.54-14.22-1.69 0-10.4-3.14-20.55-3-31 .12-12 4.86-23.35 11.26-33.33 6.58-10.24 15.16-18.42 23.13-27.49a36.4 36.4 0 0 0 3.32-4.49c5 9.27 10 18.63 13.54 28.61 3.4 9.68 5.06 19.8 6.31 30 2.13 17.34 3.46 35.27 11.42 51ZM499.25 649a38.8 38.8 0 0 1-10-7.2c-3.3-3.34-6.19-7.43-10.92-8.85s-9.39 1.57-13.76.07c-2.77-1-4.65-3.7-6.16-6-4.16-6.45-7.22-13.71-13.56-18.41-7.92-5.87-18.6-7.18-28-9.24-9.83-17.23-10.51-37.48-13.11-56.71-1.33-9.88-3.25-19.61-6.8-29-3.81-10-8.92-19.48-14.05-28.88 3.84-7.77 5.69-16.68 8.17-24.86 3.7-12.18 9.65-25.65 8.25-38.68 11 5.93 18.17 16.17 24.2 26.85 6.56 11.61 12.32 23.46 20.39 34.16 9.65 12.79 20 25.1 29.91 37.65 9.2 11.6 18.41 23.69 23.86 37.59.48 1.24.92 2.48 1.32 3.73a1.5 1.5 0 0 0 .11 1c.19.47.4.93.59 1.39 4 14.38 3.35 29.59 7 44.11a1.76 1.76 0 0 0-.16 1.31 231 231 0 0 1 4.58 26.75c.66 6.07.71 12.36 2.75 18.11a53.9 53.9 0 0 1-14.61-4.89m26.65 6.22c-2.57-.12-5.15-.34-7.73-.68-3.33-7-2.86-15.53-3.82-23s-2.24-14.62-3.85-21.84a1.82 1.82 0 0 0 .2-1.46c-2.76-10.14-3.14-20.69-4.46-31.08a318 318 0 0 0 19.29 30.41l31.82 45.72a151.3 151.3 0 0 1-31.45 1.91Zm60.47-9.07a204 204 0 0 1-24.93 6.38l-31.79-45.68c-9.8-14.08-19.36-28.1-26.15-43.9-.22-.76-.44-1.52-.69-2.28-4.6-14.07-13.08-26.38-22.05-38-10-12.88-20.36-25.42-30.42-38.22-9-11.41-15.52-23.74-22.51-36.38-6.32-11.42-13.76-22.61-25.2-29.31a11.7 11.7 0 0 0 4.48-3.15 1.74 1.74 0 0 0 .78.76 289.6 289.6 0 0 1 56.54 38.86c8.05 7 16.16 13.09 26 17.3 10.21 4.35 20.79 7.72 31 12.22q7.14 3.18 14.09 6.69c8.3 11.61 17.74 23.08 24.18 35.84s9 27.1 13.95 40.36a301.2 301.2 0 0 0 36.6 69.36 234 234 0 0 1-23.88 9.18Zm106.26-61.06c-4.4 2.26-8.19 5.85-12.1 8.84q-6.15 4.68-12.46 9.19c-8.43 6-17.07 11.73-25.94 17.07a307 307 0 0 1-28.4 15.17 296.7 296.7 0 0 1-37.36-71.22c-4.61-12.8-7.27-26.56-13.42-38.75-5.36-10.64-12.81-20.37-19.94-30a386 386 0 0 1 35.47 21.72c9.47 6.49 18.69 13.33 27.7 20.43 8.39 6.61 16.61 13.5 25.7 19.15 10.58 6.56 22 11.52 33.55 16.19 9.59 3.88 19.22 7.69 28.84 11.5a10 10 0 0 0-1.64.69Zm37.3 5.66c-4.66 2-8.75.82-13-1.52-5.18-2.87-10.15-5.73-15.5-6.07-20.73-8.17-42.26-15.52-61.78-26.33-10.32-5.72-19.46-13-28.68-20.32-8.19-6.5-16.53-12.83-25.08-18.86A388 388 0 0 0 538 488.47a1.8 1.8 0 0 0-1.15-.59c-2.45-1.23-4.92-2.44-7.41-3.6-9.43-4.44-19.09-8.21-28.86-11.82-11.32-4.2-21.12-9.35-30.35-17.21-16.52-14.07-33.41-27-52.17-37.65l65.35 24c12.08 4.44 24.14 9 36.63 12.13 12.8 3.24 25.84 5.37 38.77 8 13.48 2.74 27.06 5.63 40.46 9.14a1.7 1.7 0 0 0 .73.67C643.36 494.12 668.88 538 704.35 570a169 169 0 0 0 26.93 20.08c-.43.24-.86.45-1.3.65ZM443.7 423c40.12 7.93 81.94 7 122.62 10.45 28.07 2.41 55.47 9.17 83.5 11.76l3.64.32a1.9 1.9 0 0 0 .69.39c9.69 3.28 18.15 9 26.37 15 9 6.53 17.94 13.12 26.91 19.68l46.15 33.76c-12.87-3.09-26.09-5-39.14-7.26-11.49-2-23-4.49-33.94-8.56-12.26-4.54-23.72-10.93-35.65-16.23-23.59-10.48-49-16.49-74.14-22-13-2.83-26.19-5.09-39.24-7.88a279 279 0 0 1-36.9-10.81Q469.1 432.47 443.7 423m329.68 107.41c-8.33 18.78-19.28 37.31-33.28 52.37a46.4 46.4 0 0 1-5.3 5c-41-23.55-65.91-66-100.67-96.84a173 173 0 0 0-21.26-16.24c7 2.12 14 4.45 20.83 7.09 12.23 4.71 23.74 11 35.7 16.28a166 166 0 0 0 33.2 10.63c19.64 4.14 40 6 59.28 11.78l.1.07a1.6 1.6 0 0 0 1.21.33 124 124 0 0 1 11.86 4.36 6.35 6.35 0 0 0-1.68 3.59 5 5 0 0 0 .01 1.58m37.67-17.09c-1.77 7.6-3 16.32-6.53 23.37-1.36 2.76-3.31 5.32-6.49 5.93-2.76.54-4.57-.39-5.24-3.16-1.43-6-.43-12.06-6.87-15.31a11.2 11.2 0 0 0-6.42-1 121 121 0 0 0-15.83-6l-55.54-40.64c-9.1-6.65-18.15-13.38-27.31-20a127 127 0 0 0-15.87-10A267 267 0 0 1 693 450c13.69 2.6 26.35 7.67 38.75 13.91 12.91 6.5 25.52 13.73 39.16 18.66 14.27 5.16 29.32 7.7 43.68 12.61-.89 6.1-2.14 12.18-3.53 18.14Zm4-22c-12.43-4.19-25.35-6.67-37.85-10.63-13-4.12-25-10.49-37.1-16.75-11.53-6-23.24-11.8-35.82-15.25-13.36-3.66-27.23-4.93-41-6.06-14.62-1.21-29.07-2.78-43.53-5.28-13.47-2.33-26.9-4.8-40.49-6.34-27.27-3.09-54.74-3.53-82.1-5.31-26.17-1.7-52.41-4.8-77.47-12.6a681.4 681.4 0 0 0 147.88 1.67q19.35-1.89 38.59-4.91c13.51-2.11 27-4.61 40.59-5.92 10.78-1 21.59-1.44 32.4-1.44 24.41 7.75 48.56 16.5 71.52 27.93 20 10 39.47 22.35 61.72 26.57a84 84 0 0 1 2.31 9.62 90.4 90.4 0 0 1 .33 24.7Zm-3.9-38.42c-21.93-4.75-41.14-17.25-61.14-27a479 479 0 0 0-58.11-23.23c11.72.33 23.43 1.06 35.11 2 28.82 2.22 57.59 5.43 86.51 6.25a31 31 0 0 0-6.45 13.65c-1.81 9.77 1.19 19 4.06 28.33Zm-131.47-54.19-1.55-.5a1.62 1.62 0 0 0-1.84.51c-5.93 0-11.86.22-17.8.55-26.62 1.52-52.73 7.39-79.18 10.46a676 676 0 0 1-79.58 4.52q-32.88-.06-65.65-3.33l1-.08c14.72-.93 29.49-.42 44.22-1.22 27.63-1.49 55-6.33 82.05-11.75 54.87-11 110.48-24.68 166.81-17.93a258.4 258.4 0 0 1 88 27.24c-45.58-1.05-90.92-8.46-136.48-8.47M848.29 366c-2.64 12.84-10.65 22.68-20.39 31-2.86 2.43-5.81 4.91-8.58 7.55a263.1 263.1 0 0 0-75.12-26c-26.74-4.86-53.91-5.19-80.9-2.49-55.26 5.51-108.68 22.16-163.86 28.11-15.61 1.69-31.19 2.07-46.87 2.29-8.26.12-16.53.33-24.76 1.18-2.41.25-6 1.14-9.52 1.51-1.77-.22-3.53-.46-5.3-.69 55.2-7 110.8-14.3 163.88-31.63C604.12 368 630 354.91 658.21 349s57.52-5.87 86.35-5.15c32.56.82 65.26 2.53 97.67-1.72a2 2 0 0 0 .85-.32 19.2 19.2 0 0 1 4.67 8 33.36 33.36 0 0 1 .54 16.19"/></svg>