<svg xmlns="http://www.w3.org/2000/svg" viewBox="0 0 989.23 473.84"><path fill="currentColor" d="m429.08 53.51-14 49.81c-4.42 15.73-10.13 31.8-10.6 48.29-.23 8.09 1.45 16 2.16 24 .8 9-.76 17.63-2.83 26.38a354 354 0 0 0-7.87 47.74c-1.67 17.36-2.33 34.79-2.88 52.21a1013.7 1013.7 0 0 1-16-186.71 1.49 1.49 0 0 0-3 0 1018.3 1018.3 0 0 0 16.42 189.46 1.39 1.39 0 0 0 1.65 1.07 1.37 1.37 0 0 0 .78-.46 19 19 0 0 1-.07 2 1.5 1.5 0 0 0 3 0c1-33.47 2.15-67.18 9.76-99.92 1.72-7.42 3.71-14.83 4.2-22.47.53-8.39-1.31-16.58-2.06-24.9-1.51-16.91 3.85-33.2 8.37-49.26l15.88-56.36a1.49 1.49 0 0 0-2.86-.86Zm-2.7 206.08A183.8 183.8 0 0 1 402 306.43c-1.12 1.54 1.46 3 2.56 1.49a186 186 0 0 0 24.75-47.54c.57-1.81-2.31-2.58-2.93-.79M480 166.28a246.6 246.6 0 0 0-15 33.92c-4.29 12.18-6.78 24.79-10.61 37.1-3.93 12.78-11.21 24.06-17.93 35.52l-22 37.53a1.51 1.51 0 0 0 2.62 1.5l21.51-36.7c6.4-10.89 13.41-21.68 17.62-33.67s6.32-24.33 10.27-36.26a242 242 0 0 1 16.15-37.46c.79-1.66-1.76-3.22-2.63-1.48m34.15 46.23a680 680 0 0 1-82.45 95.69c-1.37 1.31.72 3.42 2.1 2.09A681 681 0 0 0 516.67 214c1.11-1.56-1.47-3-2.56-1.49Zm102.36-62.06c-44.2 36.37-77.09 83.78-117.15 124.19a347 347 0 0 1-36.88 32.61c-1.51 1.14 0 3.73 1.49 2.62 46-34.81 79.52-82.31 119-123.78a402 402 0 0 1 35.67-33.51c1.41-1.24-.7-3.34-2.17-2.13Zm-32.73 69.32c-32.56 33.9-65.57 68-105.48 93.21-1.61 1-.12 3.59 1.49 2.62 40.14-25.43 73.34-59.66 106.09-93.68 1.28-1.43-.82-3.54-2.14-2.15Zm-19.38 45.56a323.5 323.5 0 0 1-50.85 47.56c-1.51 1.13 0 3.71 1.5 2.62a326.5 326.5 0 0 0 51.45-48c1.25-1.51-.84-3.63-2.1-2.18m126.05-64.51c-60.3 24.9-101 79.09-156.47 111.66a1.51 1.51 0 1 0 1.5 2.62c55.21-32.42 95.75-86.64 155.75-111.41 1.77-.69.99-3.61-.78-2.87m35.73 27.29q-82.83 39.31-162.39 85a1.51 1.51 0 1 0 1.51 2.62q79.47-45.7 162.39-85c1.75-.87.22-3.43-1.51-2.62m35.15 5.25c-49.35 25.53-91.47 67.9-147.63 78.53-1.89.36-1.09 3.21.79 2.86 56.44-10.67 98.75-53.16 148.35-78.82 1.69-.87.16-3.44-1.51-2.57m74.47-1.87Q755.54 271 677.6 315a1.51 1.51 0 0 0 1.5 2.62Q757 273.59 837.31 234c1.69-.78.21-3.35-1.51-2.51m-110.12 42.17-81.62 43.78c-1.68.9-.18 3.47 1.51 2.62l81.61-43.78a1.51 1.51 0 0 0-1.5-2.62M769 279.2a291.3 291.3 0 0 0-47.89 30.8c-1.51 1.18.6 3.28 2.09 2.1a289 289 0 0 1 47.34-30.37c1.7-.84.19-3.41-1.54-2.53m145-19.53a273.4 273.4 0 0 0-124.65 52.69c-1.5 1.15 0 3.73 1.5 2.63a271.5 271.5 0 0 1 123.93-52.43c1.96-.32 1.16-3.18-.71-2.89Zm-34.7 29.39a405.5 405.5 0 0 0-73.17 21c-1.75.68-1 3.56.79 2.85a407.4 407.4 0 0 1 73.19-21c1.89-.23 1.13-3.15-.74-2.85Zm57.37 16.51c-13-3.11-26.21-1-39.32.7q-20.52 2.75-41 5.52c-1.88.26-1.07 3.12.79 2.87q20.12-2.76 40.23-5.41c12.77-1.71 25.74-3.86 38.47-.82 2.02.45 2.76-2.43.9-2.86Zm-6.68 45.95a424.6 424.6 0 0 0-78.9-33.85c-1.83-.57-2.62 2.3-.8 2.87a420.3 420.3 0 0 1 78.19 33.55c1.75.91 3.24-1.64 1.58-2.57Zm-61.67 8.41q-15.74-9.09-30.69-19.27-7.32-4.95-14.42-10.15c-4.94-3.64-10.16-7.4-11.72-13.66a1.49 1.49 0 0 0-2.87.8c2.62 10.48 14.72 16.72 22.94 22.42q17.1 11.91 35.23 22.39a1.48 1.48 0 0 0 1.53-2.53m35.68 3.21c-13.23-3.86-25.1-10.76-36.27-18.69-5.69-4-11.19-8.31-16.67-12.59s-11.24-8.93-15.3-15c-1.06-1.57-3.63-.09-2.62 1.51 7.68 11.4 20.62 19.66 31.64 27.62 11.8 8.49 24.34 15.88 38.37 20a1.49 1.49 0 0 0 .85-2.86ZM784.13 381a855.5 855.5 0 0 1-108.06-61.43c-1.6-1.06-3.08 1.51-1.5 2.63a860.4 860.4 0 0 0 108 61.42c1.77.76 3.24-1.8 1.56-2.62m-30.91-26.23L727.37 339c-7.5-4.55-16.51-8.68-21.13-16.5a1.48 1.48 0 1 0-2.55 1.5c4.3 7.29 11.79 11.28 18.85 15.54l29.19 17.74a1.48 1.48 0 0 0 1.49-2.55Zm69.29 21.7a756 756 0 0 0-84.17-59.2 1.51 1.51 0 1 0-1.5 2.62 752 752 0 0 1 83.57 58.73c1.42 1.14 3.59-.94 2.1-2.15m-458.93-78.31c-26.42-56.56-32.77-119.28-42.26-180.27-2.62-17.45-5.66-34.84-9.38-52.09-.41-1.88-3.27-1.08-2.86.78C322.19 127.7 325.54 190.8 342.92 251A334 334 0 0 0 361 299.66c.82 1.73 3.38.23 2.58-1.5M344 288.08c-38.4-60.3-48.49-132.68-57.9-202.19-.25-1.87-3.11-1.08-2.86.8 9.41 69.76 19.66 142.31 58.21 202.88 1 1.61 3.55.13 2.55-1.49m-15.53-14.63a787.6 787.6 0 0 1-50.2-115.76c-.62-1.79-3.49-1-2.87.79a790 790 0 0 0 50.5 116.46c.89 1.69 3.46.2 2.55-1.49Zm-39.74-33.72C269.05 215 257.5 185.32 240.38 159a238.8 238.8 0 0 0-54.91-59.1 10.83 10.83 0 0 0-5.74-4.18c-1.7-.56-2.41 1.8-1.14 2.71 1.57 1.16 3.13 2.31 4.68 3.49l.08.13a1.4 1.4 0 0 0 .93.66 235.5 235.5 0 0 1 56.25 62.11c15.73 25.46 27.3 53.43 46 77 1.26 1.51 3.36-.6 2.18-2.09Zm-16.57-16.21c-10.77-7.31-17.79-18.28-24.81-29-6.56-9.94-13-19.86-20.15-29.37-13.38-17.88-29-34.32-49.05-44.65-1.69-.86-3.2 1.69-1.49 2.62 21.55 11.08 37.78 29.27 51.71 48.7 6.79 9.45 13.11 19.24 19.49 28.93s13.14 18.85 22.79 25.38c1.58.97 3.06-1.61 1.49-2.61Zm120.34 89.13c-.36.79-.7 1.58-1 2.38a1.44 1.44 0 0 0-1.91-.46l-.41.21c.64-.66 1.31-1.31 1.91-2a1.48 1.48 0 0 0-.2-2.1 1.51 1.51 0 0 0-1.91 0c-2.62 2.71-5.24 5.5-7.86 8.33-19.1 10.24-37.83 21.34-53.15 36.9-1.31 1.31.76 3.46 2.1 2.1 13.23-13.44 29.07-23.5 45.47-32.59a245 245 0 0 0-19.6 26.93c-1 1.62 1.55 3.12 2.62 1.5A243 243 0 0 1 383 321.38l7.42-3.93a159.7 159.7 0 0 0-12.25 61.16 1.48 1.48 0 1 0 3 0 156 156 0 0 1 14-64.49c.67-1.73-1.89-3.25-2.67-1.47m28 51.12a310.6 310.6 0 0 0-10.83-52.18 1.48 1.48 0 0 0-2.86.79 305.4 305.4 0 0 1 10.66 51.39c.29 1.9 3.26 1.92 3.04 0ZM447.16 413q-13.11-47.76-26.53-95.4a1.48 1.48 0 1 0-2.86.79q13.44 47.64 26.52 95.39a1.48 1.48 0 0 0 1.92.88 1.51 1.51 0 0 0 .95-1.66m17.1 1.92c-4.82-19.23-8.91-38.83-15-57.67-4.94-15.23-12.08-29.94-24.48-40.48-1.44-1.23-3.55.87-2.09 2.1 12.84 10.92 19.78 26.28 24.63 42.09 5.53 18 9.53 36.53 14.1 54.79a1.49 1.49 0 0 0 2.87-.83Zm15.18-66a227.3 227.3 0 0 0-23.19-30c-1.31-1.4-3.38.7-2.09 2.11a226.4 226.4 0 0 1 22.71 29.36c1.04 1.61 3.62.09 2.57-1.52Zm58.3 58a184.8 184.8 0 0 0-67.19-88c-1.56-1.1-3 1.47-1.49 2.62a181.5 181.5 0 0 1 65.83 86.21c.64 1.7 3.51.93 2.85-.88Zm31 5.55c-17.37-37.07-42-71.74-77-93.87-1.63-1-3.11 1.55-1.5 2.62C524.92 343 549 377.35 566.2 414c.8 1.64 3.33.13 2.56-1.58ZM527.22 335a95.8 95.8 0 0 0-15.73-14.59c-1.54-1.13-3 1.44-1.5 2.62a92.6 92.6 0 0 1 15.16 14.12c1.22 1.44 3.31-.67 2.07-2.15m54.29 2.58a334 334 0 0 0-30.8-15.58c-1.75-.76-3.25 1.79-1.51 2.62a329 329 0 0 1 30.8 15.56 1.49 1.49 0 0 0 1.49-2.56Zm47.31 34.5c-16.36-19.19-33.21-38.57-55.53-51a1.51 1.51 0 0 0-1.49 2.62c22.08 12.31 38.72 31.55 54.92 50.54 1.28 1.43 3.33-.68 2.1-2.12ZM663 399.75a271.5 271.5 0 0 0-71.31-78.37c-1.55-1.14-3 1.44-1.51 2.62a267.8 267.8 0 0 1 70.25 77.34 1.51 1.51 0 0 0 2.08.49 1.53 1.53 0 0 0 .49-2.08m39.75-2.42c-16.88-5.52-28.64-22.14-41.06-34q-9.86-9.36-20.22-18.14-5.5-4.68-11.18-9.18c-3.29-2.62-10.8-6.55-11.27-11.18-.2-1.89-3.17-1.9-3 0 .37 3.54 2.29 5.53 5 7.71 4.25 3.39 8.57 6.68 12.77 10.13q12.58 10.34 24.44 21.54c13.32 12.57 25.66 30.14 43.69 36 1.88.57 2.62-2.29.86-2.88ZM714 371.64l-40.88-25.06-20-12.29c-6.09-3.73-13.38-7.11-16.87-13.69-.89-1.69-3.44-.2-2.55 1.49 2.7 5.13 7.29 8.22 12.08 11.19 7.5 4.64 15 9.18 22.54 13.82l44.23 27.11c1.62.93 3.12-1.64 1.45-2.57m-457.74-74.53a303.4 303.4 0 0 0-127.78 21.72c-1.74.69-1 3.58.79 2.85a301.7 301.7 0 0 1 127-21.61c1.87.09 1.86-2.87-.01-2.96m-11.49-8.85-1.44-.31a1.47 1.47 0 0 0-.94-.41l-1.42-.08-1.52-.33a1.56 1.56 0 0 0-1.06.17 390.1 390.1 0 0 0-152.54 22.14c-1.78.63-1 3.5.8 2.86a387.8 387.8 0 0 1 153.88-21.93l3.4.72c1.92.42 2.72-2.44.84-2.83m-15.88-7.66a340.3 340.3 0 0 0-62.44-2.79c-1.9.09-1.91 3.07 0 3a335.7 335.7 0 0 1 61.61 2.62c1.94.29 2.71-2.58.83-2.83m-61-24.4c-5.32-3.42-11.55-4-17.7-4.84Q139.94 250 129.63 249c-14.75-1.4-29.55-2.12-44.38-2.24a1.49 1.49 0 0 0 0 3c13.54.11 27.06.71 40.53 1.89q9.63.82 19.22 2c7.08.89 15.2 1.14 21.38 5.09 1.62 1.05 3.1-1.52 1.49-2.54Zm30 13.46a290 290 0 0 0-27-25.52q-6.27-5.25-12.83-10-3.93-2.9-7.87-5.65a84 84 0 0 0-3.65-2.48L145 225a5.9 5.9 0 0 0-2.78-1.38 1.39 1.39 0 0 0 .43-1.92 1 1 0 0 0-.24-.28c-2.24-2.06-4.65.65-3.23 3 1.31 2.2 5.24 3.68 7.26 5.06q5.15 3.47 10.12 7.14a287 287 0 0 1 39.19 35.11c1.3 1.43 3.39-.67 2.08-2.07Zm40.38 13.16c-7.37-28.61-26.91-51.4-46-73.11-1.31-1.45-3.37.66-2.11 2.11 18.72 21.32 38 43.67 45.2 71.79a1.49 1.49 0 0 0 1.92.87 1.51 1.51 0 0 0 .93-1.66Zm138.24 25.9a305.4 305.4 0 0 0-135.19 50.6c-1.57 1.06-.09 3.64 1.51 2.55a302.3 302.3 0 0 1 133.7-50.12c1.8-.22 1.82-3.2-.08-3.03Zm-5.55-4.86a201.5 201.5 0 0 1-48.5-16.07 199 199 0 0 1-21.4-12q-5-3.19-9.76-6.7c-3.67-2.69-11.63-7-11.86-12.34-.08-1.9-3-1.91-3 0 .32 7.37 9.35 12.05 14.7 15.89a200 200 0 0 0 25.24 15.43 204 204 0 0 0 53.75 18.63c1.87.38 2.64-2.48.77-2.84ZM297 302.27a79.4 79.4 0 0 1-30.75-23.45 130.6 130.6 0 0 1-12.14-19.66c-1.58-3-3.13-5.92-4.7-8.89-1.05-2-6.23-9.33-5.41-11.45.68-1.8-2.19-2.62-2.86-.8-.92 2.4.76 4.38 1.87 6.47l6 11.33c4.12 7.78 8.17 15.66 13.42 22.77a81.5 81.5 0 0 0 33.14 26.2c1.7.8 3.22-1.79 1.43-2.52m21.25 4.14A282.6 282.6 0 0 0 241 323.14c-1.78.65-1 3.53.79 2.87a279.7 279.7 0 0 1 76.47-16.63c1.92-.13 1.93-3.11.02-2.97Zm4.43 70.85a73.5 73.5 0 0 1 14.73 1.43 74.56 74.56 0 0 1 30.09 14.11l2 1.54-.23 2.48a.22.22 0 0 0 .1.2l.21.17c29.15 23.39 64.38 49.33 104.71 64.38a189.3 189.3 0 0 0 60.44 12.18c20 .62 42-2.09 67.06-8.27 27.25-6.72 54.38-16.07 80.61-25.11 16.73-5.76 34-11.73 51.25-17 53.27-16.23 95-23.78 135.15-24.47l3.83-.06c19.62-.28 39.9-.58 55.28-11.73 4-2.92 7.45-6.58 11.07-10.45 4.4-4.7 8.94-9.55 14.81-13.24a58.1 58.1 0 0 1 34.72-8.66c.18 0 .42 0 .63-.63a1.73 1.73 0 0 0-.46-1.92l-4.7-2.82-.54-.72a1.3 1.3 0 0 0-.22-.24h-2l-1.22-2.89C970 320 954.09 298 941.32 281.68c-17.4-22.17-34.6-43.62-53.55-62.34-20.93-20.68-45.51-37.75-64.59-50.3a1023 1023 0 0 0-71.3-42.8c-14-7.65-28.4-15.06-42.79-22-2.6-1.27-5.31-2.46-8.17-3.73-7.48-3.31-15.21-6.73-21.86-11.74l-.69-.52-.45-.74a3 3 0 0 0-.26-.35c-9.29-10.69-17.82-20.19-27.86-27.93-9.55-7.38-20.8-12.69-34.47-16.23-6.11-1.61-12.5-2.94-18.68-4.23-6.94-1.44-14.12-2.94-21.14-4.86-13.5-3.69-26.39-9.25-38.85-14.64l-1.08-.46c-13-5.59-25.19-10.88-38.4-14.25A155.8 155.8 0 0 0 454.41.1C430 .76 405.5 5.63 381.78 10.34c-5.59 1.11-11.17 2.22-16.76 3.27a3216 3216 0 0 1-185.68 29.55c-8.14 1-16.4 2-24.4 3-6.79.81-13.58 1.62-20.37 2.48-12.34 1.55-25.27 3.65-35.81 10.58C80 71.55 71.37 96.46 78.33 118.44c8.67 27.08 35.21 39.56 60.92 51.65l3.37 1.58a199 199 0 0 0 30.47 11.88l24.38 7.27-25.39 1.7c-7 .47-14.09 1.07-21 1.64-11.13.92-22.37 1.24-33.24 1.55-14.63.41-29.75.84-44.35 2.74-23.72 3.08-42.38 10.82-55.44 23-14.19 13.23-20.86 33-17 50.44 3.91 17.68 20 28.7 35.56 39.36 2.73 1.88 5.56 3.81 8.22 5.72q6.78 4.88 13.54 9.79C74 338 90.06 349.68 106.31 360.4c23.28 15.25 43.12 25.8 62.45 33.17 21.21 8.11 41.91 9.93 63.29 5.58 11.48-2.33 22.93-6 34-9.62 11.46-3.7 23.31-7.53 35.47-10a107.6 107.6 0 0 1 21.19-2.27Zm513.45-190.74a385 385 0 0 1 35.9 28c4.48 3.93 8.81 8.15 13 12.43-22.42 6.55-43.07 17.89-62 31.57A387 387 0 0 0 792.92 283c-2.45 2.19-27.1 25.16-29 26.78h-.21a2.24 2.24 0 0 0-3.17 0 2 2 0 0 0-.19.21H760c-39.84 2.25-79.39 5.61-119.28 4.94q-22.28-.37-44.67-1c66.52-18.6 121.71-64.47 180.8-98.72a386 386 0 0 1 58.79-28.35Zm-102.75-61.94q37 19.42 72.36 41.84c8.59 5.46 17.15 11 25.58 16.74-70.59 27.1-127.48 79.37-195.82 110.84a260.8 260.8 0 0 1-58.66 19.39c-18.62-.52-37.24-1.1-55.85-1.6l-12.73-.34q42-37.4 80.92-78 20.52-21.49 40.13-43.82c12.18-13.88 23.91-28.17 36.46-41.71s26-26.22 41.32-36.61q13.19 6.45 26.29 13.27m-36.57-18.27c1.74.83 3.46 1.67 5.24 2.51-27.34 19-48.51 45.23-70.18 70.28q-39.21 45.26-82.19 87.07-23.79 23.13-48.68 45.08c-17.55-.52-35.09-1.15-52.62-2.1a102 102 0 0 0 13.81-11.4q11.79-10.83 23.32-21.84 23.82-22.68 46.89-46.12c30.45-30.95 59.51-63.08 88.26-95.6 14.54-16.45 29.69-32.57 47.84-45 7.7 8.08 18.27 12.47 28.24 17.16Zm-55.57-44.43c9 6 16.67 13.8 23.91 21.89a5.2 5.2 0 0 0 .41 1.45c-32 22-55.83 54.56-81.7 83q-43.93 48.37-90.93 93.78-12.84 12.4-25.9 24.58c-8.5 7.87-17.27 18.35-28.6 22-3.06-.2-6.13-.38-9.18-.6 58.75-56.94 81.08-140.5 131.35-204.1a366 366 0 0 1 52.71-54c9.82 2.66 19.32 6.22 27.89 12Zm-162.7-53.5c13.73 1.62 26.95 5.82 39.75 10.91C531.84 24.66 545 31 558.72 36c14 5.18 28.54 8 43.13 11.15 1.86.4 3.71.82 5.56 1.31-32.93 28-60.16 61.45-82 98.75-21.18 36.14-38.41 74.53-61.29 109.69-12 18.35-25.56 35.64-41.59 50.6q-11.37-.86-22.71-2a2.7 2.7 0 0 0 .59-.94c7.46-19.9 16.3-39.33 22.73-59.55a477 477 0 0 0 14-57.85c7.26-39.41 11.41-79.42 19.86-118.66A377 377 0 0 1 475 8c1.15.13 2.36.25 3.54.38M350.08 23.79c29-5.33 57.92-12.37 87.26-15.29a205 205 0 0 1 32.57-.86C441 80.74 442.7 161.23 420.73 236.21c-6.74 23-16.63 44.71-25 67.08a3 3 0 0 0-.11.37 3 3 0 0 0-.53-.13 92 92 0 0 1-8-1.57c-12.95-32.31-18.73-66.77-24.16-101C357 163.59 350.21 126.42 342 89.53q-6.88-30.91-14.93-61.6 11.44-2 23-4.14Zm-27.95 5q14.3 54.59 25 110c7 36.3 11.47 73.08 19 109.27A330 330 0 0 0 381 300.32c-27.71-8.57-50.19-28.84-71.56-48.08l-.23-.22a515.6 515.6 0 0 1-41.59-79l-.91-1.94c-5.92-43.81-25.05-85.13-40.83-126a2.9 2.9 0 0 0-.56-.9q48.53-7 96.77-15.37ZM176.81 50.73q22.2-2.82 44.34-6a2.1 2.1 0 0 0 0 1.59c8 20.82 16.32 41.57 24 62.52a363 363 0 0 1 13.11 43 215 215 0 0 0-13.76-25.29A269.4 269.4 0 0 0 215 89.52C202.32 76 188.75 63.45 175.09 50.94ZM97.57 69.28c9.65-8.85 23-11.55 35.58-13.21 12.32-1.64 24.69-3 37-4.51a2.11 2.11 0 0 0 .71 2.16c24.09 22.13 48.65 44.57 67 71.85 9.68 14.32 17 30 24 45.77.11.92.24 1.83.36 2.75a2.62 2.62 0 0 0 1.8 2.2c5.92 13.64 11.72 27.36 18.62 40.47q6.33 12 13.36 23.59a252 252 0 0 0-26.65-20.42c-8.19-5.35-18.35-9.6-26.21-16a2.62 2.62 0 0 0 0-3.34c-10-11.91-23.5-19.86-36.42-28.13-14.35-9.18-28.66-18.43-43.07-27.53s-28.65-18-43.52-26.11c-13-7.12-26.75-14-35.84-26.06a43.68 43.68 0 0 1 13.28-23.48m62.36 102.09c-12.13-4.8-23.74-10.87-35.32-16.86-11.23-5.82-23-12.1-30.89-22.28a48.74 48.74 0 0 1-10.26-32.89c7.94 8.83 18.2 15 28.69 20.72q22.59 12.39 44.36 26.09c15 9.39 29.78 19 44.64 28.51 4.57 2.92 9.18 5.79 13.84 8.78a143 143 0 0 0-16.85-2.62 150.2 150.2 0 0 1-38.21-9.45m64.95 29.33c7.58 13.28 22.28 19.45 34.9 27.19 15.51 9.54 29.07 21.77 42.56 33.91 18.5 16.64 38.09 34 60.81 44.43a232.5 232.5 0 0 1-58.71-3.62c-4.08-.78-8.13-1.7-12.14-2.72a2.45 2.45 0 0 0-2.27-2.62h-.11c-2.63-.09-5.16-.11-7.72-.13-16.44-4.85-32.45-11.14-48.5-17.3l-27.84-10.67a123.36 123.36 0 0 0-50.73-68.05c23.27-1.99 46.65-4.05 69.75-.42m-164.34 7.41c26.22-6.24 53.86-3.94 80.58-5.88 1.91-.13 3.84-.28 5.76-.44l.19.14a118.13 118.13 0 0 1 52.93 65c-5.84-2.22-11.66-3.63-17.49-5.86-.14-1.08-.93-1.31-2.36-1.31H177c-4.41 0-8.81-4.2-13.22-5.88-22.79-8.63-45.87-17.36-69.68-22.65-23.49-5.24-47.57-7.5-71.37-3.93 10.27-9.77 24.12-15.92 37.81-19.19M7.68 267.65c-1.45-9.35.73-17.77 5.15-26.07 1.31-2.51 2.89-5.55 4.59-5.55 48.39-15.85 96.68 5.13 141.56 22 1.62.61 3.24.48 4.87 1.08A404.7 404.7 0 0 0 21 290.57c-6.78-6.14-11.89-13.69-13.32-22.92m74.24 67.05c-10.23-7.3-20.43-14.67-30.64-22-8.73-6.26-17.84-12.24-26.22-19a398.9 398.9 0 0 1 151.24-30.65q12.78 4.88 25.54 9.77a2.78 2.78 0 0 0 3.26 2.29 2.5 2.5 0 0 0 1.06-.64l22.73 8.74c12.7 4.88 25.37 9.93 38.27 14.33a246.43 246.43 0 0 0-148.73 62c-12.43-7.88-24.5-16.29-36.51-24.84m181.14 48.13c-19.18 6.18-39 12.61-59.37 11.56C181 393.24 159 382.6 139.47 372q-8.49-4.63-16.66-9.71a241 241 0 0 1 158.6-60.16c5.36 1.57 10.77 3 16.27 4.18a238.5 238.5 0 0 0 75.6 4.07c1.7.59 3.41 1.16 5.15 1.67-40.11 14.26-81.16 31.78-105.86 67.8Zm117.17 13.71a5.28 5.28 0 0 0-1.89-4.05c-15.85-14.31-35.23-22.69-56.73-22.5-14.05.13-27.75 3.35-41.2 7.38 25.23-32.77 65.41-48.76 103.76-62.2a6.1 6.1 0 0 0 2.55.85q6.54.76 13.1 1.4c4.49 15.43 2.81 31.55.91 47.34-1.68 13.84-3.49 27.9-8.89 40.79q-5.84-4.44-11.61-9.01m114.34 63.92c-36.23-9.73-68.69-29.48-98.68-51.86 5.78-13.28 7.87-27.72 9.56-42.1 2-16.16 3.79-32.7-.37-48.59q15.5 1.43 31 2.42a134.2 134.2 0 0 1 25.94 30.15c7.86 12.64 13.36 26.49 18.74 40.32 9.73 25 20.49 49.56 32.63 73.5a163 163 0 0 1-18.86-3.83ZM626 451.08c-34.79 10.67-70.71 18-106.61 14-13.45-26.21-25-53.23-35.81-80.69-9.44-24-21.1-45.88-39.64-63.62 20.45 1.16 40.94 1.86 61.43 2.43l20.06.57a269.2 269.2 0 0 1 75.11 57.06c19.27 20.8 37 44 61.71 58.47-12 4.06-24.1 8-36.25 11.76Zm129.76-41.74c-29.48 8-58.29 18.1-87.2 27.88l-.09-.07c-27.31-14.6-45.79-40-66.6-62.12a271.3 271.3 0 0 0-65.32-50.92q44.28 1.23 88.56 2.35 8.25.19 16.52.34l84.84 41.3 42.2 20.54c8.43 4.09 16.9 8.09 25.6 11.48-12.93 2.64-25.77 5.76-38.51 9.23Zm130.06-18c-21.49 1-42.69 1.17-64.06 4.15-6 .84-12 1.83-18 2.91-12.09-4.05-23.6-9.55-35.07-15.13L727.2 363l-74-36.05c10 .07 20.07 0 30.08-.38 19.78-.68 39.5-2.25 59.24-3.59 12.85-.88 25.7-1.53 38.53-1.85a19.4 19.4 0 0 0 4.05 3.63c3.12 2.52 6.23 5 9.36 7.53 11.59 9.17 23.36 18.24 35.75 26.36A216.6 216.6 0 0 0 869 379.19c10.73 4.22 22.47 6.25 33.26 10.39a123 123 0 0 1-16.44 1.72Zm49.41-21.51c-6.64 7.25-13 13.64-22.51 17-.84.3-1.68.55-2.52.81-9.1-4.32-19-6.32-28.67-9.29a177.5 177.5 0 0 1-35.06-15.49 306 306 0 0 1-31.37-20.77q-7.68-5.7-15.18-11.68c-2.46-2-4.91-3.93-7.38-5.89-.72-.59-3-2-4.83-3.49a522.5 522.5 0 0 1 70.19 3.26 507 507 0 0 1 108.79 25.63 69.1 69.1 0 0 0-31.46 19.87Zm-163.38-60.41q7-6.76 14.07-13.4c10.61-9.87 21.5-19.45 33-28.26 21.12-16.16 44.34-29.64 70-36.77 13.39 14 25.63 29.17 37.87 44.16 16 19.66 31.67 40.05 42.27 63.12C905.68 316 839 307 771.85 309.42"/></svg>