<svg xmlns="http://www.w3.org/2000/svg" viewBox="0 0 842.44 583.78"><path fill="currentColor" d="M841.65 229.08a4.6 4.6 0 0 0-.58-3q-2.9-5.06-45.06-4.18l-38.78 1.88h-2c-4.39.25-7.07.54-8.16.54q-5.85 1-13.43 1.89a3.66 3.66 0 0 0-1.88-1 3.51 3.51 0 0 0-3.22.51l-2.38 1.29a80 80 0 0 1-8.62.67c-6.19.46-11.67 1-16.49 1.59q5.36-7.16 15.9-38.61 11.88-36.32 13.6-51.63c.54-5 1.8-12.22 3.81-21.5 2-10.25 3-17.36 3.89-21.51s2.42-12.8 5.1-25.93c1.26-5.82 2.13-10.09 2.59-12.93a26.5 26.5 0 0 0 .51-5.61q-5.24-9.4-71.12 20.38l-11.05 5.9-23.56 15.28a22.1 22.1 0 0 0-2.22-7.57l-4.18-9-4.61-8.37a36.6 36.6 0 0 0-6.86-7.17 127.7 127.7 0 0 0-18.36 15.52 30.9 30.9 0 0 0-8 11c-.55-1.34-1.09-2.72-1.59-4.18a190.5 190.5 0 0 0-10-24.14 145 145 0 0 0-8.16-13.1l-5.82-9.24a20.3 20.3 0 0 1-2-7.49 31 31 0 0 0-1.72-5.48 5.26 5.26 0 0 0-2.34-2 8 8 0 0 0-7.4.71c-1.71 1.48-3.1 2.61-4.19 3.39a21.1 21.1 0 0 0-6.57 3.64c-8.07 4.27-16.48 8.24-25.1 11.88l-14.6 5.9-11.8 6.27c-1.5.92-2.59 1.51-3.22 1.84l-11.5 6.57q-16 11.67-26.28 19.08a59 59 0 0 0-3.2-7.43c-3.6-6.69-5.56-10.16-5.56-10.5-1.47-2.59-4.19-6.44-7.74-11.75s-6.36-9.25-7.74-11.76a64.2 64.2 0 0 0-8.37-11.29A139 139 0 0 1 412 17.6c-4.14-5.31-7-9.08-8.7-11.25a45.6 45.6 0 0 0-4.39-5.82C397-.6 394.64.07 391.84 2.58l-3.39 3.64-.25.29-.8.71a263 263 0 0 0-35.06 29.54 40.1 40.1 0 0 0-10 15.1 4.74 4.74 0 0 0-5.77-.75c-10.8 6.53-20.67 13-29.58 19.08a70.7 70.7 0 0 0-4.81-20.67c-2.76-8-4.94-13.93-6.57-18.11v-1.26a11.2 11.2 0 0 0 0-4.69c-1.51-2.67-2.89-2.67-4.18 0a3.2 3.2 0 0 0-.88 0 146.9 146.9 0 0 0-34.43 29.71c-7.62 11.29-13.31 19.41-16.74 23.59a101.3 101.3 0 0 0-12.88 21.51c-.17.29-3.18 7.78-9.12 22.46-3.31 8.37-5.48 13.93-6.53 16.74a13 13 0 0 0-.67 1.84c-.63-1-1.17-1.72-1.63-2.34A208 208 0 0 0 188 116.63q-18.48-17.53-19.49-18.41c-7.32-6.61-11.12-10-11.5-10.25a55.5 55.5 0 0 0-13.6-8.79h-.25v-1c-2-3.64-6.48 1-13.47 14a176.2 176.2 0 0 0-16.06 41 207 207 0 0 0-4.52 47.82c0 10.29-.34 25.65-.34 46a137.4 137.4 0 0 0 5.44 37.65c-3.39-2.42-6.36-4.43-8.91-6.11q-17.11-11.2-27.65-18.49A289 289 0 0 1 53 220.59c-2.51-2.35-5.86-5.61-10.5-10.71s-8.11-8.75-10.41-10.88a40.5 40.5 0 0 0-6.57-4.43c-3.85-2-6.32-3.47-7.45-4.19a77 77 0 0 0-9.2-3.51c-4-1.26-6.53-.75-7.53 1.46A3.4 3.4 0 0 0 0 189l.38 1a1.87 1.87 0 0 0 1.08.79 1.5 1.5 0 0 1 .84.8 3.8 3.8 0 0 1 .5 1h-.5l1.05.67a24 24 0 0 1 1.46 2.88 115.9 115.9 0 0 1 11.09 39.38q1.24 11.72.83 44.22a274 274 0 0 0 2.77 47.65 174.4 174.4 0 0 0 19.41 54.89l12.55 23a124 124 0 0 1 9.45 11.3 40.3 40.3 0 0 0 8.83 7.74c2.3 2 5 3.93 8 6.19l9 6.19a173 173 0 0 0 8.36 23.93c6.28 15.52 10.88 26.07 13.85 31.55a123.3 123.3 0 0 0 20 28.19 196.6 196.6 0 0 0 34.27 24.35q24.39 14.78 63.59 16.74 44.43 2.41 77.43-15.53a218 218 0 0 0 32.57-23.82l-.51.59s22.55 8.62 40.52 6.85c16.69-1.64 48.28-11.36 52.68-12.73 2.1 3.39 4.29 6.71 6.61 9.95l2 2.89a96 96 0 0 0 7.4 8.79A228 228 0 0 0 478 565.4a102 102 0 0 0 19.79 11.09 110 110 0 0 0 27.87 6.61 227.4 227.4 0 0 0 41.25-.55q32.5-2.59 50.2-11.38a66 66 0 0 1 6.32-2.59l.92-.59 2 .38q32.13 5.4 85.93-12.8l26.06-14.27q10.92-7.65 33.89-25.85c10.75-8.37 17.74-14.06 20.92-16.74a5.6 5.6 0 0 0 2 0 2.3 2.3 0 0 0 .72-.46h.46a1.65 1.65 0 0 0 .79-.71v-.63l-.21-.46c-.21-.83-1.67-1.5-4.18-2.05a5.5 5.5 0 0 0-1.55-.46 1.06 1.06 0 0 1-.5 0 7.4 7.4 0 0 0-1.63 0c-2.72-1-6.32-2.09-10.76-3.34l-26.48-8q-8.4-2.73-23.22-6.61L717.44 473l1.09-.5q5-2.7 4.6-18.82c-1.08-10.42-1.67-15.86-1.67-15.86l-2-3.05a6 6 0 0 0-.67-1.68 9.8 9.8 0 0 0-1.38-2Q756.7 402 774.8 381.4q13.1-15.18 35.81-55a315.5 315.5 0 0 0 22.26-51.08q12.3-34.95 8.78-46.24m-470.31 244.7c-4.1-2.93-7.74-5.77-10.92-8.37a49.6 49.6 0 0 1-1.72-8.78 31.66 31.66 0 0 1 4.52-16 171 171 0 0 0 7.4-16.73 143 143 0 0 1 8.38-17.98 443 443 0 0 1 30-41.46l6.61-8.32a83 83 0 0 1 8.57-8.12c8.71-7.57 14.31-12.3 16.74-14.27q10.41-8.44 15.94-12.21l7.57 2.3c-4.35 2.68-8.2 4.81-11.55 6.44a290.6 290.6 0 0 0-36.31 40.16q-9.66 13.06-29.29 43.14a113.4 113.4 0 0 0-13.17 32.5q-5.45 19.34-2.77 27.7m-252-48.95a28.4 28.4 0 0 1 2.88-9.29 59.8 59.8 0 0 0 .88 14.81 86 86 0 0 0 9.71 27.45 61.7 61.7 0 0 0 6.4 8.36A90.8 90.8 0 0 1 125.93 448a70.5 70.5 0 0 1-4.19-12.05h.17a49.5 49.5 0 0 1-2.59-11.12Zm143.45-3.72q-1.87-3.74-32.13-38.24-32.5-37.44-47.78-52-27.36-26.36-45.6-42.42c-4.1-3.39-8.07-6.78-12-10.13q15.93 11.76 40.16 30.62l20.8 16.27a1 1 0 0 0 .16.09l-.12-.09a16 16 0 0 1-1.64-.95.75.75 0 0 0 0 .42 200 200 0 0 1 25.81 23.26q8.09 8.35 23.22 25.1 7 7.23 26.07 32.34c6.81 8.74 11.58 14.6 14.18 17.61-3.85-.34-7.53-.8-11.09-.8h.17c.27-.12.19-.46-.23-1.08ZM192.86 316.6c-.88-1.34-1.54-2.34-2-3.05q-12.72-23.22-16.4-31.88-4.6-10.85-13.26-39.91c-1.64-5.48-3.27-12.14-4.86-19.92-1.59-8.87-2.8-15.48-3.72-19.66-.63-3.39-1.72-11.09-3.26-23.64-.17-1-.34-2-.42-2.93a378.5 378.5 0 0 0 18.66 49l9.2 16.73c1.55 2.89 3.22 7.2 5.73 12.89 1.16 2.44 2.19 4.94 3.1 7.48a6.5 6.5 0 0 0 .58.8c-.21 2.47-.21 4.94-.21 7.36q-.75 30.53 6.86 46.73m-3.59-27.6a138.4 138.4 0 0 1 .37-37.65c.09 1.42.21 2.93.38 4.47a121.6 121.6 0 0 0 1.55 34.43 144.8 144.8 0 0 0 15.39 40l6.91 11.21a71 71 0 0 0-9.92-7.49A133.9 133.9 0 0 1 189.27 289m4-31.59c-.37-4.43-.58-7.78-.58-10a103 103 0 0 1 2.68-16.73c1.17-4.94 2.17-7.32 2-7.87s-.54-.54-.54-.54c.88-2.72 1.88-5.57 3-8.37a150.2 150.2 0 0 0-1.51 48.78q4.28 41.6 17.87 66.69a69 69 0 0 0 4.18 6.61l8.77 16.02a113 113 0 0 0 8.28 11.32V363a129 129 0 0 0-6.53-12.55l-8.36-15.69a70.9 70.9 0 0 1-11.76-24.1 219.5 219.5 0 0 1-8.12-37.94q-6.39-49.95 6.15-81l.21-.37q8.2-17.58 19.5-37c1.09-1.8 2.17-3.64 3.39-5.27a208 208 0 0 0-10.17 26.73 277 277 0 0 0-7.61 27.24 83.7 83.7 0 0 0-2.12 18.54 212 212 0 0 0 2.89 53.34q6.85 44.38 22.34 72.76a347.4 347.4 0 0 0 27.86 43.59c1.3 1.88 2.72 3.68 4.19 5.48q-10.71-12.09-26-27.53c-2-2-3.93-3.89-5.81-5.69v-.21c-7-7-13.12-12.86-18.41-17.53a49.5 49.5 0 0 0-3.89-8.78c-4.89-8.41-8.24-14.52-10.12-18.7a171 171 0 0 1-7.91-19.88 155.5 155.5 0 0 1-4.18-27.65 30 30 0 0 1-.3-5 29 29 0 0 0 .66-8.39Zm31.38-29.24-.38 5.61a131.8 131.8 0 0 0 2.6 35.93c.67 6 1.5 12.22 2.59 18.79 3.35 21 5.4 32.92 6.24 35.77a193 193 0 0 0 12.17 24.51q37 68.24 75.3 82.17v-.42l1.26 2.13a106.5 106.5 0 0 0-22.38-6.06c-.59-.63-3.22-3.14-7.91-7.62q-8.6-7.85-11-10.62a232 232 0 0 1-16.74-19.25q-5.85-8.53-13.51-20.46c-5.52-8.78-9.92-16.19-13.18-22.13q-14.78-27.27-21.92-71.41a266 266 0 0 1-3.79-53.27 298 298 0 0 1 10.55-45.18 209.7 209.7 0 0 1 31.08-59 .7.7 0 0 1 0-.29c1-1.22 2-2.3 2.93-3.22q6-5.75 24.92-20.78c.05-.09.12-.18.18-.27v.13l-.18.14a121 121 0 0 1-7.39 10.27 357 357 0 0 0-23.35 32.8q-18.9 29.93-23.09 53.43c-2.22 12-3.77 23.09-4.69 33v-1.12q-.27 3.16-.26 6.41Zm223.45-63.55q17 31.33 6.1 91.58-3 17-8.95 38.87c-2.38 8.07-3.72 13.38-4.18 15.85a134 134 0 0 0-22.38-4.81l4.18-2.26q9.75-5.23 18.91-35.18a139.1 139.1 0 0 0 7.22-53.94q-3.39-31.54-3.89-35.18a129.3 129.3 0 0 0-7-29c1 1.3 2.09 2.64 3.05 3.94v-.13a9 9 0 0 1 1.38 2 5.7 5.7 0 0 1-1-.67 69 69 0 0 1 6.61 8.92Zm57.31 167.14A127.7 127.7 0 0 0 486.55 349q-8.66 12.84-17.32 23.76a108 108 0 0 0-8 16.45c-3.43 7.94-6.44 15.48-9.12 22.59q-5.73 15.32-26 45.18t-19.5 33.72a33 33 0 0 1 .84 6.57 23.6 23.6 0 0 1-2.93-3.68q-6.15-11.34 0-28.41a236 236 0 0 1 22.63-41.84 268.4 268.4 0 0 0 23.27-41.83l3.17-8.79a44 44 0 0 1 4.44-9.2q7.2-10.87 27.86-25.1l13.22-7.28v.12a55 55 0 0 0 6.35.49Zm-21.25 4.1A99.7 99.7 0 0 0 455.43 362a54.7 54.7 0 0 0-4.86 9.75c-.75 1.84-1.8 4.69-3.09 8.37-2.14 4.94-5.27 11.42-9.46 19.37q-6.69 12.35-11.8 20a210.5 210.5 0 0 0-23.47 42.08q-7.81 20-2.51 29.83a22.6 22.6 0 0 0 2.18 3.43c-5.56-3-10.54-6-15-8.95a22 22 0 0 1-.71-11.92 61.7 61.7 0 0 1 7.61-18.24q2.07-3.76 7.32-17a116 116 0 0 1 10-20q14.1-23.6 26.65-41.83 23.73-34.65 39.16-43a33.6 33.6 0 0 1 11.84-3.68l1.76.12a6.4 6.4 0 0 0 2.05.3Zm0-81.63c-1.25-10-2.68-18.78-4.18-26.77-.45-2.64-.88-5.14-1.3-7.54 0-.16-.11-.33-.17-.49h.09c0 .16.05.33.08.49 1.53 4.38 3 9.09 4.39 13.77.34 2.93.8 6.24 1.38 10a212 212 0 0 1 2.76 25.1 210 210 0 0 1-3 33.47c-1.67 11.55-2.72 18.57-2.72 21.13l-7.74-1.8-1.08-.38a119.8 119.8 0 0 0 7.86-27.9c3.97-19.01 5.14-32.02 3.72-39.09Zm-3.59-5.23a170.7 170.7 0 0 1-5.44 50.87q-3 11.71-5.56 20.55l-3.64-1h.37a7.68 7.68 0 0 0-6.11-1.33 4.7 4.7 0 0 1-1.21-.3c3.73-2.51 6.7-8.74 8.79-18.66q1.71-8.24 3.76-21.63a81.2 81.2 0 0 0 2.3-17.9 146 146 0 0 0-.67-17.36c-1.88-23.18-2.84-34.89-2.84-34.89a81.5 81.5 0 0 0-5.94-19.35c1 1.63 2 3.3 2.93 5 1.8 6.19 4.35 14.64 7.74 25.39a142 142 0 0 1 5.52 30.61m-15.31-49.2h-.09a217.4 217.4 0 0 1 4.27 36.85 193 193 0 0 1-.59 37.91c-.58 3.26-2.05 10.29-4.47 20.91a104 104 0 0 1-5.69 15.61c-1.05 2.22-2 4.22-2.89 6h-.37a59.7 59.7 0 0 0-12-5.35A269.9 269.9 0 0 0 461 232.22a155.6 155.6 0 0 0-4.73-55.39 112.4 112.4 0 0 1 8.99 22.97M162.53 490.39A185 185 0 0 0 186.25 505q56.4 28.7 107.9 12.25l21.29-11.58a77 77 0 0 0 14.27-11.55c3.85-4.73 6.23-7.53 7.15-8.37q3-2.88 13.14-11a63 63 0 0 0 7.19-6.86l1.13.87a20.3 20.3 0 0 0-2.63 3.56 69 69 0 0 1-6 8.37q-12 14.34-40.7 29.91l-14 7.07q-30.58 12.21-50.54 13a71 71 0 0 1-26.23-4.18 141.3 141.3 0 0 1-35.73-18.28h.21q-11.17-9.84-20.17-17.82m114-85.39a202.6 202.6 0 0 0 21.71 20.54l-7.83-1a.5.5 0 0 0 0-.25A118.7 118.7 0 0 0 276.54 405Zm11.63 19.2-6.66-.75c-1.5-.08-3.05-.38-4.56-.38-1.54-2-8.07-10.79-19.58-26.6A211.6 211.6 0 0 0 235.83 371q-11.67-13-19-20.92c1.46 1.25 3.09 2.68 4.85 4.18q17.4 15.23 25.1 22.68 8.74 8.75 27.4 30.58 10.22 12.29 13.99 16.68Zm-4.52 4.06q32 3.44 45.56 11.13a116 116 0 0 0 15.31 17.15h.25c.92.92 2 1.88 3.1 2.93 1.88 1.76 4 3.56 6.27 5.52a88.1 88.1 0 0 1-21.13-9.41q-13.31-8.79-20.33-12.55-10.71-6-23-11.46c-4.56-1.68-8.32-3-11.25-3.81ZM433.5 173.73q-3.63-29.49-8.74-38.78c-.63-1.13-1.21-2.18-1.76-3.22l2.81 3.47.12-.21c.8 1.67 1.63 3.39 2.6 5.31a99.2 99.2 0 0 1 11.79 29q1.31 8.32 4.56 41.12a92 92 0 0 1-.25 14.94 205 205 0 0 1-3.26 28.24q-7.32 41.11-25.44 50.78a6.5 6.5 0 0 1-2.05.76 1.6 1.6 0 0 0-.75 0h-1.26l-6.65-.63q7.53-17.49 10.21-24.1 4.1-11.3 10.29-25.43a149.6 149.6 0 0 0 6.95-24c1-4.93 2.05-12.13 3.26-21.67a187.4 187.4 0 0 0-2.43-35.58m-11 137.6q-17.78 2.55-39 24a231.3 231.3 0 0 0-33.8 43.51 152.7 152.7 0 0 0-15.73 35.73 59.3 59.3 0 0 0-2.87 21.89 4 4 0 0 0 0 .46v-.49a63 63 0 0 1-5.41-8l-1.3-2.89v-7.36a41.2 41.2 0 0 1 2.3-12.22c1.59-5.35 3.05-9.7 4.18-13.13a94 94 0 0 1 5.11-13.18A214.4 214.4 0 0 1 359.54 342a124 124 0 0 1 37.65-32.59h.25a23.3 23.3 0 0 1 3.39-1.51 120.7 120.7 0 0 1 21.71 3.43Zm-15.64 24.1a296 296 0 0 0-22.76 26.35q-14 18.5-20.17 26.32a112.8 112.8 0 0 0-16.31 35.68 86.3 86.3 0 0 0-5 26.4 125 125 0 0 1-8.92-9.87A43 43 0 0 1 334 425a118.8 118.8 0 0 1 9.37-28.32 210 210 0 0 1 23.68-39.37A134.1 134.1 0 0 1 409.36 319a52.8 52.8 0 0 1 18.2-6.45c3.14.88 6.45 1.89 9.92 2.93q-13.64 2.89-30.71 20Zm-50.38 126.72c-1.38-1.13-2.63-2.18-3.76-3.27-2.6-2.17-5-4.26-7.28-6.35a144 144 0 0 1 3.68-21.53 137 137 0 0 1 11.8-30 306 306 0 0 1 29.28-41.1q24.36-29.65 37.2-36.94a49.2 49.2 0 0 1 15.6-4.89 9.8 9.8 0 0 1 2.76 0l.5-.09c2.47.92 4.9 1.76 7.32 2.47l-2.09 1.38c-5.94 5.19-9.12 8.12-10.12 8.83a205.6 205.6 0 0 0-27.65 23.89c-4.73 5.31-9.79 11.38-15.19 18.11a273 273 0 0 0-17 23.22 247 247 0 0 0-18.82 36c-6.23 14.62-8.28 24.66-6.23 30.27M437 142.35c-3.06-3.93-6.07-7.44-8.75-10.83a73.8 73.8 0 0 1 6.86-20.92 77.7 77.7 0 0 1 17.53-21.08 128.4 128.4 0 0 0-11.46 26.35 74.4 74.4 0 0 0-4.18 26.48M442.67 95l-.19.16a9.4 9.4 0 0 0-1.07 1.64 128 128 0 0 1-8.41 13.8 34.7 34.7 0 0 0-5.9 12.89 27.8 27.8 0 0 0-1 5.81c-3.05-3.47-5.77-6.52-8.37-9.2a253 253 0 0 1 24.71-24.94c.08-.09.15-.2.23-.29Zm-10.21 107q-.54 28.08-16.23 67.73-3.81 9.63-10.42 24.35a66 66 0 0 0-4.19 10.21 108 108 0 0 0-13.8 0Q413.17 247.24 414.3 197a168 168 0 0 0-4.18-45.35q-8.91-38.31-10.67-41.83l-2.34-5.15q6.27 5.65 10.62 10.21v-.13a4.4 4.4 0 0 1 .55.67 109 109 0 0 1 7.82 10q17.2 31.71 16.36 76.58m-26.07-55.93a222 222 0 0 1 4.94 44.64A286 286 0 0 1 397.78 269c-2 6.36-4.86 14.85-8.62 25.56a66 66 0 0 0-3.27 10.44 64 64 0 0 0-17.11 4.19l5.65-24.35c4.39-18.83 6.82-29 7.36-30.46a195.5 195.5 0 0 0 7.91-29.79q1.17-7.6 3.93-28.24a297 297 0 0 0 3.14-53.71 107.1 107.1 0 0 0-12.55-44.18 88 88 0 0 0-5.4-7.74l-1-1.88c5.1 4.05 9.58 7.82 13.76 11.33a1.4 1.4 0 0 1 .3.34 171.7 171.7 0 0 1 14.51 45.57Zm-23.09-41.62c.8 2.59 2.18 6.49 4.18 11.63a52.8 52.8 0 0 1 3.39 12.26 209.5 209.5 0 0 1 .42 56.27q-3.39 25.47-4.18 30.75a214.6 214.6 0 0 1-7.78 32.3Q376 258.12 371 279c-4.31 17.36-6.19 28-5.57 31.8a40 40 0 0 0-6.52 4.18 37.4 37.4 0 0 0-6.53 4.65 194 194 0 0 0 6.4-22.93 292 292 0 0 0 6.7-37.36c.58-6.36 1.54-16.69 3.09-30.25s2.6-23.55 3.22-30q.79-8.82 3.69-32.84c1.5-12.3 2.42-21.79 2.76-28.57a95.47 95.47 0 0 0-9.83-50.2c-2.43-4.36-4.36-7.74-5.82-10.21l7.57 5.85V83a10.3 10.3 0 0 0 1.72 1.51 22.7 22.7 0 0 0 4.18 8.36 58.5 58.5 0 0 1 7.24 11.58m-17.95-15.31a90.4 90.4 0 0 1 9.25 49.32q-.47 9.47-3 28.49-2.8 22.31-3.69 32.72-1.72 19.74-5.91 59.33a356 356 0 0 1-7.7 38.7q-5.78 24.74-5.78 25.1a107 107 0 0 0-7.52 8.4c-2 2.39-3.89 4.85-5.6 7.28.54-4.68 1-10.88 1.21-18.53a180 180 0 0 1 2.55-24.64q4-19.62 6.2-30.75 3.45-17.9 3.47-20.92a304 304 0 0 0 7.78-35.81q2.34-15.27 6.11-46a377 377 0 0 0 5.14-46.9 77.2 77.2 0 0 0-9.7-36.4l-1-2a4.5 4.5 0 0 1 .71 1 86 86 0 0 1 7.48 11.61m-5 229.43v.16a57 57 0 0 1 5.28-2.71 94 94 0 0 0-9.63 9.12 124.7 124.7 0 0 0-26.23 39.91q-3.63 10.24-11 29.28a47.5 47.5 0 0 0-1.8 6.4 41.5 41.5 0 0 1 1.74-15.73 280 280 0 0 1 13.34-33.47q12.26-24.04 28.32-32.96Zm-41.5 88.06a40 40 0 0 1 2-11.42c.55-1.34 2.18-5.44 4.73-12.3 2.22-5.77 4.1-10.33 5.65-13.6 2.17-4.72 4.05-8.61 5.64-11.75 2.93-5.69 5.57-10.5 8-14.39a123 123 0 0 1 9.74-13.47 59.5 59.5 0 0 1 16.19-14.56l10.29-5a52.7 52.7 0 0 1 12.17-2.14l1.13.09a.62.62 0 0 0-.38 0q-32.29 18.36-56.14 64.13a167 167 0 0 0-13.81 33.72 54.8 54.8 0 0 0-2.26 13.81 80 80 0 0 1-2.93-9.54ZM264.61 427a126 126 0 0 1 25.1 8.37q2.81 1.31 22.22 11.17 4.63 2.26 22.34 13.81a50 50 0 0 0 17.15 7.11A76.5 76.5 0 0 0 343 474a73.4 73.4 0 0 1-22.21-8.37q-23.79-13.36-34.42-17.54-1.1-.49-27-15.52a99 99 0 0 0-14.64-7.15Zm36.57 31.72q27.82 15.14 38.69 17.48c-2.3 2.14-4.68 4.44-7.19 7l-4.85 5a39.65 39.65 0 0 1-17.66-4.2 233 233 0 0 1-34.47-21.68c-19.7-14.19-32.7-23.06-39.12-27.24a173 173 0 0 0-23.35-12.42h-.16l-.13-.12.29.13c2.33 0 4.7.41 6.91.46l15.77 1.25q20.55 9.44 65.27 34.3Zm-69.12-23.35c8 5.1 18 12.13 29.75 21.21q9.79 7.57 30.46 20.92c9.16 6 14.22 9.2 15.22 9.71a33.27 33.27 0 0 0 17.83 3.8c-3 2.81-5.28 5.07-7.16 7q-10.2 2.39-32.8-11-31.78-21.34-44.76-28.24a191 191 0 0 1-18.07-11.51q-11.68-8.32-17.12-12a145 145 0 0 0-14.47-12.09h.12a51 51 0 0 0-5.06-3.57c6.24.75 13.35 1.55 21.34 2.34a201 201 0 0 1 24.72 13.39Zm-27 1.59q24.26 18.24 34.34 24.22c3.52 2 9.59 5.74 18.2 11.38 7.7 4.86 13.85 8.54 18.54 11.05.16.17 2.51 1.84 7 5a109 109 0 0 0 11.26 7 33 33 0 0 0 21.58 4.69 14.4 14.4 0 0 0-2.17 1.88l-10.29 5.48a64.6 64.6 0 0 1-23-6.94l-21.42-12.55-22.59-12.26a235 235 0 0 1-21.17-12.17 216 216 0 0 1-18.49-14.35c-3.27-2.85-8.87-7.79-16.74-14.94-5.73-5.61-10.79-10.08-15.18-14-2.26-1.84-4.44-3.47-6.45-4.94h.25a154 154 0 0 0 18.62 3A253 253 0 0 1 205 436.92Zm-26.74-.46a220 220 0 0 0 35.57 29.29q22 13.5 44.76 24.6 7 3.38 22.34 12.55a49.5 49.5 0 0 0 20.92 5.35l-9.67 5.23a22.4 22.4 0 0 1-7 3.81 60.3 60.3 0 0 1-22.81-5.52q-16.89-9.63-24.85-13.31A302 302 0 0 1 191 470.31a104 104 0 0 1-17.9-16.74c-2-2.13-6.91-8.24-15.27-18.36a182 182 0 0 1-13.1-19.46l.17-.17c-1.79-2.84-3.44-5.43-5-7.78a58 58 0 0 0 10.67 5.27 273.5 273.5 0 0 1 27.73 23.39Zm-22 2.55a194.86 194.86 0 0 0 79.49 61.75c2.55 1.17 6.61 3.56 12 6.65s9.67 5.4 12.89 6.91a49.1 49.1 0 0 0 20.66 4.18 50.4 50.4 0 0 1-13.17 1.72q-32.17-1.85-70.2-27.57-36.62-24.73-50.42-50.21-5.52-9.94-10.92-22.25a84.6 84.6 0 0 1-3.8-14.86c-.23-1.61-.46-3-.69-4.15l-.07-.11v-.21c0 .1.05.21.07.32A291.3 291.3 0 0 0 156.3 439Zm-23.81-19.12a203 203 0 0 0 11.84 24.69 100.9 100.9 0 0 0 18 25.1c2.76 2.68 13 10.42 30.79 23.59a200.4 200.4 0 0 0 33.05 20.55 98 98 0 0 0 9.91 3.84 204.5 204.5 0 0 1-25.56-7.28l-8.79-3.18a123.2 123.2 0 0 1-35.85-24.8 134.2 134.2 0 0 1-24.85-31.84c-3.51-6.57-5.56-10.08-5.56-10.5a100 100 0 0 1-4.65-13.22 87.5 87.5 0 0 1-2.72-17.7c-.12-2-.33-3.72-.33-5.14a13 13 0 0 0 .5-1.22 76.3 76.3 0 0 0 4.2 17.07Zm6.28 31.46a144.4 144.4 0 0 0 26.31 33.47 92 92 0 0 0 12.14 10.42 161 161 0 0 1-15.86-9.83 138 138 0 0 1-13.43-10.29c-1.34-1.63-3-4.14-5.52-7.49q-6.21-8.47-7.66-11.13a81.3 81.3 0 0 1-9.26-25.54 75 75 0 0 1 0-18.82 97.6 97.6 0 0 0 13.26 39.17Zm-6.57 15.44a14 14 0 0 0 4.19 1.3c2 2 3.76 3.8 5.83 5.84l.65.48-.21-.05-.44-.43c-4.16-3.09-7.81-5.66-11.19-7.77a5.7 5.7 0 0 1 1.15.59Zm21.59 21.63a275 275 0 0 0 27.78 22.8 165 165 0 0 0 36 18.24 72.3 72.3 0 0 0 27.61 4.19 162 162 0 0 0 51.67-13.06l13.84-7.11a163 163 0 0 0 40.75-30 68.3 68.3 0 0 0 10-12.21c1.92 1.46 4 3.09 6.11 4.89a35 35 0 0 0-6.36 5.36 72 72 0 0 1-7.2 6.86q-12.8 9.58-31.12 22.13l-16.65 8.83q-33.9 16-49 18.7a62.3 62.3 0 0 1-11.25.88c-7-.25-10.67-.46-10.67-.46a77.6 77.6 0 0 1-32-5.94 129.7 129.7 0 0 1-21.63-11.76c-3-1.92-9.12-6.4-18.37-13.35a222.2 222.2 0 0 1-30.49-30.08 254 254 0 0 0-17.87-18.82 39.9 39.9 0 0 0 13.51 6.69h.21c5.7 5.19 14.06 12.93 25.11 23.18Zm221.85-37.48a109.2 109.2 0 0 1 13.18-33.47 450 450 0 0 1 27.87-42.59A335 335 0 0 1 454.34 333l10.12-5.77c1.76-.8 3.39-1.51 4.94-2.09a52 52 0 0 0 5.6 1.55v.12c2.68.63 5.44 1.26 8.37 1.67a61 61 0 0 0-10.16 4.19q-10.71 5.85-28 28.32a499 499 0 0 0-31.3 47.78 397 397 0 0 0-24 47.73q-7.62 19.17-6.44 26.48a61 61 0 0 1-5.06-3.85 28 28 0 0 0-3.6-2.63 71.1 71.1 0 0 1 .83-25.56Zm.05 35.35a11 11 0 0 0 2.67-2l4.82 3.52 5.84 4.41a58 58 0 0 1-10 2.05c-6.33.62-7.6.34-13.5.66 3.28-2.97 6.67-5.88 10.15-8.68Zm-9 12.4c4.81-.75 7.57-.43 15-.47a23.8 23.8 0 0 0 11.56-3.5q2.2 1.21 4.85 2.61c2.94 1.57 5.93 3 9 4.35-5.09 1.68-12.85 4-18 4.56-8.25.86-11.78 1.92-20.07 3.41-6.39 1.16-13.3-1.63-16.15-3 2.62-2.58 5.27-5.13 8-7.62l-.14.29s3.35-.27 5.94-.67Zm47.38 1.27c-5.14-6.07-3.76-15 4.19-27a234 234 0 0 1 14.85-20.58 141.6 141.6 0 0 0 22.63-40.62q5.44-14.1 8-20.33a109 109 0 0 1 9.92-18.62A198.5 198.5 0 0 1 506 334.26l2.63-2.18h2.09a7 7 0 0 0 2.14 0 358 358 0 0 0-22.22 32.76q-23.43 38-28.2 48.7-12.44 27.78-20.19 42.16-.17.56-17.82 24.69-9.96 13.73-10.34 19.61m190.36-363.46q-.44-15.09-1-23.71l-.09-.18h.08v.18c1 2.06 2.6 4.52 4.55 7.94a86.6 86.6 0 0 1 2.93 28.57c-1.51 17.91-2.47 30.71-2.89 38.82-.37 9.46-.79 16.07-1.21 19.84a113 113 0 0 1-4.48 21.21c-1.42 4.68-2.47 8.36-3.18 11.08-1.5 4.69-3 9-3.89 11.51s-1.55 4.39-2.13 5.81a28 28 0 0 1-3.6 6.07c-.58.84-2.84 3.18-6.69 7.07a52 52 0 0 0-4.73 5.19 1.7 1.7 0 0 0-.71 0l-1.55 1-6.07 3.43q6.24-7.74 17.87-41.83a382.6 382.6 0 0 0 16.06-56 285 285 0 0 0 .73-46m8.95-7.32c.92 1.63 1.71 3 2.34 4.18a101.3 101.3 0 0 1 3.47 20.46 255 255 0 0 1 0 37.11q-3.35 45.93-18.45 73.75c-4 1.72-8.15 3.85-12.34 5.9a72.2 72.2 0 0 0 13.68-27 223 223 0 0 0 9.29-53.93q.47-9.21 2.84-36.65a125 125 0 0 0-.83-23.82m9.08 17.32 3 7.07a282 282 0 0 1 4.39 44.93A154.9 154.9 0 0 1 617 257.11c-4.19 1.63-8.37 3.77-12.55 5.82A124.5 124.5 0 0 0 617 230c-.09-.17 1.54-11.21 4.89-33.22a379 379 0 0 0 .59-50.24m9.58 54.38c.16-11.54.12-20.24.08-26v-2.26a75.4 75.4 0 0 1 3.77 15.73 225.5 225.5 0 0 1-2.72 39.79c-1.47 12.8-2.3 20.54-2.6 23.26l-8.7 3.77a60.3 60.3 0 0 0 7.74-22.72 138 138 0 0 0 2.43-31.57m50.45 35.44c2.76-.75 5.56-1.42 8.37-2.09l-.09.12a14 14 0 0 1 4.36-.79 76 76 0 0 0-7.2 4.18 301.6 301.6 0 0 0-41.46 38.16q-13.35 19-26.44 35.77-10.34 13-29.95 41.83c-10.3 15.15-16.15 23.81-17.58 26.07l-3.13-2.05c-1.26-1.38-2.68-2.72-4.19-4.19 2-2.63 7.83-11.17 17.36-25.52q20.18-30.12 24.06-35.6 42.93-59.79 62.88-70.62a73.5 73.5 0 0 1 9.2-4.56c.67-.17 2.14-.42 4.19-.71a.8.8 0 0 0-.38 0m-37.23 22.21q-7.46 8.42-18.66 23.18-14.31 18.92-17.2 22.47-6.64 8.07-27.06 39.11C572.06 358.52 566 368 563.7 372.16l-2.56-2.51a71 71 0 0 1-5.52-5.57l12.09-20.62q11.26-19.15 20.54-33.22 30.93-45.86 56.52-59.78c3.73-2 7.41-3.93 11.59-5.73q2.89-1.09 6.78-2.76a.75.75 0 0 1 .63-.13 90.5 90.5 0 0 0-18.49 16.73m-9.37-6a322 322 0 0 0-32.26 32.05q-7 8.49-20.16 27.86c-2.72 4.18-8.58 14-17.45 29.28-6.4 11.13-10.38 18.08-12 20.92-2.8-3.05-5-5.81-7-8.37a1.6 1.6 0 0 0 .79.26q26.32-41.3 29-44.85A307 307 0 0 1 616.58 262l11-6.14 1.34-.76 9.16-3.76Zm-94.47 126c-.38-9.54-1-17.32-1.8-23.3.55.71 1.13 1.38 1.72 2.09a82.1 82.1 0 0 1 5.56 26q.71 10.83 0 34.35c-.33 4-.33 9.87-.33 18.24a52.9 52.9 0 0 1-4.82 19.33 134.7 134.7 0 0 1-18.19 25.1Q506.51 501.1 494 507.75l-2.89 1.59a87.6 87.6 0 0 1-13 1.84h-4.18l5.73-3.05a123.2 123.2 0 0 0 37.65-33.47 109.32 109.32 0 0 0 24.47-64.05c.16-9.29.08-20-.34-32.05Zm-.25-33.57a143.2 143.2 0 0 1 20.5-36.11 186.9 186.9 0 0 1 39.24-41l.46-.29 1.05-.75L615 261a143.8 143.8 0 0 0-22.34 22.39 296 296 0 0 0-18.58 25.1c-5.52 7.57-10.67 14.93-15.35 22q-12 18.08-12.8 22.26a53.4 53.4 0 0 1-4.19-6.44 5.4 5.4 0 0 1-.55-1.31m94.17-95.81a9.8 9.8 0 0 1 .55-1.92v.5a2.7 2.7 0 0 0 .79.92 7.2 7.2 0 0 0-1.34.51Zm-58.57 31.09 1.26-1.05 10.62-5.73a15 15 0 0 0 2-1.09A169 169 0 0 0 562 304.13a232 232 0 0 0-17.19 26.15 48 48 0 0 0-5.48 12 59 59 0 0 0-2.39-5.57c-.79-1.55-1.42-3-2-4.18 5.85-12.68 9.49-20.21 11-22.55a118.1 118.1 0 0 1 23-25.1Zm-24 15.35q-6 8.73-9 12.55a81.3 81.3 0 0 0-6.32 11.17 60.4 60.4 0 0 0-4.18 8.83c-1.51-2.8-2.89-4.39-4.19-4.85a10.55 10.55 0 0 0-5.19 1.21l-1.33.38a96 96 0 0 1 7.28-12.81 18 18 0 0 0 2.34-1.75c9.87-7.49 17.74-13.1 23.72-17.28Zm-33.76 30.12-2.72.55.46-.3a13 13 0 0 0-1.72.3 8 8 0 0 0-3.26-.8c1.42-.88 5.36-3.81 11.8-8.74a26.1 26.1 0 0 0-4.53 9Zm-91.8 156.35Q443 460.6 445 457.42a196 196 0 0 0 11.17-21.84l8.91-20a320.7 320.7 0 0 1 41-69.07c2.43-2.93 6.57-7.78 12.55-14.47a8.7 8.7 0 0 0 1-1.26h1.76a21.3 21.3 0 0 0-2.09 4.19v.12a182 182 0 0 0-11.38 18.83 473 473 0 0 0-26.23 57.31c-1.72 4.23-3.93 10.67-6.65 19.41a126 126 0 0 1-9.12 21.34q-13.4 25.1-45.27 50.58h-1.13a30 30 0 0 1-3.3-1.3 58.5 58.5 0 0 1 11.01-19.16m86.93-132.28c-1 3.76-2.47 8.45-4.18 14.14a208 208 0 0 1-7.15 19.7c-3.73 9.08-6.24 15.86-7.62 20a145 145 0 0 0-4.21 18.58 74.6 74.6 0 0 1-5.82 18.07 75 75 0 0 0-3.14 8.37 85.4 85.4 0 0 1-7.27 14.05A104.57 104.57 0 0 1 435 498a90 90 0 0 1-7.74 4.18l10.67-11.08c7.44-7.66 12.17-12.6 14.1-14.81A127 127 0 0 0 462.45 463a82 82 0 0 0 6.11-11 290 290 0 0 0 15.31-38.53 301 301 0 0 1 27.07-57.57Zm-85.38 155.75c2.26-1.13 4.93-2.51 8-4.18a109.7 109.7 0 0 0 39.28-34.77 95.6 95.6 0 0 0 8-14.3c1.84-4.48 3-7.16 3.38-8.08a67.8 67.8 0 0 0 5.78-18.66 110 110 0 0 1 4.18-17.9q8.83-22.21 17.2-46.36c4.51-12.17 7.57-20.83 9.12-25.89.5-.63 1-1.51 1.5-2.22a7.7 7.7 0 0 1 .67 1.21c.34.71.8 1.68 1.42 2.85-.37 1.55-.83 3.34-1.29 5.31q-1.59 8.37-4.65 24.14c-.42 2.13-2.09 8.7-5 19.62q-3.23 12.84-4.81 21.21-3.35 18.45-20.08 46.69-20.62 34.81-43.47 47.36a45.9 45.9 0 0 1-12.55 5.06l-5.94-1.09Zm24.68-4q25.07-13.63 44.93-52.59a215.8 215.8 0 0 0 15.82-38.49h-.13q5.89-22 10.75-42.09 2.76-12.54 4.48-20.91c0 5.56.21 11.5.5 18.11l-2.18 37.11a122.2 122.2 0 0 1-9 40.87q-12.63 28.31-45.51 55.05l-12.55 6.82a118 118 0 0 1-12 3.6c-2.85-.38-5.61-.88-8.37-1.47a91.5 91.5 0 0 0 13.26-6.02Zm8.41 6.61 12.55-6.82q54.18-43.59 55.89-95.56 1.05-22.29 1.8-38.57c.25-9 .5-16.15.5-21.54l2.47 3.64a133 133 0 0 1 2.34 22.09q.89 33.25 1.51 36.44a60.3 60.3 0 0 1-4.18 25.72 150.6 150.6 0 0 1-15.32 31.26q-21.91 33.8-49.4 46.35-7.23-.23-14.4-1.17a26 26 0 0 0 6.24-1.85Zm17.65 6.27q2.26-.12 5.65-.5a195 195 0 0 0 22.89 6.28c11.92 2.46 19.62 2.72 23.17.71a1.06 1.06 0 0 0 .59-.67q6.48 5.06 15.9 11.21h-3.56a127.6 127.6 0 0 1-19.79-2q-5.4-1.08-25.73-5.73c-1.84-.42-9.75-2.93-23.76-7.11v.17c-2.8-.88-5.4-1.59-7.91-2.39Zm43 3.68a157 157 0 0 1-17.41-2.34 124 124 0 0 0-14.11-2.6h.21q9.28-1.68 23.84-5l3.48-.67a51 51 0 0 0 10.83 11.17Zm-7.32-14.05-2.43.75-12.55 2.8q8.63-4.85 25.1-24.39a180.5 180.5 0 0 0 18.58-24.81 46.5 46.5 0 0 0 5.52-19.78 142 142 0 0 1 .63-17 260 260 0 0 0 .46-31.21 168 168 0 0 0-2.81-26.36h.3c2.88 5.74 6.48 12.56 10.87 20.92a72.3 72.3 0 0 1 7.45 31c-.25 11.84-.25 18.08-.25 18.08a68.3 68.3 0 0 1-4.88 20.92q-10.38 25.44-46.02 49.07Zm36.06-27a91.8 91.8 0 0 0 11.3-20.16 96.8 96.8 0 0 0 7.07-36.15 83.2 83.2 0 0 0-5.11-30.12 195 195 0 0 0-10-20.08c1.59 1.34 3.06 2.72 4.64 4.06v.25a32.7 32.7 0 0 0 7.49 8.36 19.2 19.2 0 0 1 5.11 6.36q27.9 51.42-22.3 103.71l-1.93 1a119 119 0 0 1-21.79 7.19 78.4 78.4 0 0 0 25.49-24.5Zm24.06-14.52a115.8 115.8 0 0 0 10-30.79 67.5 67.5 0 0 0-2.32-22.63 95.3 95.3 0 0 0-8.15-20.92h-.13a7.7 7.7 0 0 0-1-1.79c2.63 1.63 5.64 3.76 8.95 5.81a46.4 46.4 0 0 1 4.18 6.23q14.14 26 9.16 49.37a65 65 0 0 1-5.69 9 186 186 0 0 1-14 15.31c-3.85 3.81-7.7 7.24-11.46 10.38a114 114 0 0 0 10.43-20.01Zm31.46-41.08a40.4 40.4 0 0 1-.88 11.34l-3 3.76c-.42.63-1 1.43-1.59 2.43a53.5 53.5 0 0 0-.76-9.87 76.6 76.6 0 0 0-7.24-25.61q-1.95-3.51-3.54-6.26l-.56-.39h.34l.22.39c3.33 2.27 6.35 4.63 9.4 6.77.75.83 1.63 1.92 2.64 3.26a37.4 37.4 0 0 1 4.94 14.14Zm-.29-10.48a40.2 40.2 0 0 1 6.66 8.37c.92 1.76.16 4.23-2.35 7.49a8.5 8.5 0 0 0-1 1.3c-.08-1.59-.29-3.23-.54-5a57.8 57.8 0 0 0-2.77-12.16m-16.56 53q26.05.33 45.61 1.09h1-1a60 60 0 0 0-6 .29 265 265 0 0 0-43.76 2.8 57 57 0 0 0 4.15-4.18m41.33-2.93a51.6 51.6 0 0 0 12.55-4.94 370 370 0 0 0 86.48-68 515 515 0 0 0 38.65-43.8 124 124 0 0 0 18.66-28.7q5.19-10.29 13.56-28c.5-.75 2.8-5.61 7-14.56a83.2 83.2 0 0 1 9.21-15.9q1.21-1.62 12.93-14.18a68 68 0 0 0 5.31-6.9 42.5 42.5 0 0 1-2.14 5.77c-1.25 3.18-2.17 5.31-2.72 6.57l-5.6 13.26a101 101 0 0 0-4.19 12.22 118.5 118.5 0 0 1-7.28 24.14A157 157 0 0 1 798 324.42a617 617 0 0 1-50.21 62.38 483 483 0 0 1-96.89 74.6Zm200.57-231.36a10 10 0 0 1 1.79-.38 25.2 25.2 0 0 1-2.51 5.82q-9.78 10.95-13.22 15.35a94.2 94.2 0 0 0-10.75 17c-3.14 6.56-5.44 11.42-6.94 14.51-5.49 12.22-9.75 21.63-12.89 28.2a142.7 142.7 0 0 1-18.49 29.29l-26.9 31.75a294 294 0 0 1-21.55 23q-19.36 17.9-27.44 24.64A376 376 0 0 1 638 455.5l-7.11 1.88c-3.43 1.17-5.44 1.88-6.07 2.22a4 4 0 0 0-.92.83h-6.69a50 50 0 0 0-7.66-.42 115 115 0 0 0 11.88-4.6L642.39 444a289.4 289.4 0 0 0 70-62.42c5.77-7.15 12.42-16.27 19.91-27.48q12.13-18 16.32-23.51a277 277 0 0 0 30.54-47.11 126 126 0 0 1 13.81-21.34 116.1 116.1 0 0 1 36.18-32 6.1 6.1 0 0 1 2.68-.43m-5-1.34q-33.26 24.18-48.44 50.2-7.86 14.64-12.26 22.47a165 165 0 0 1-17.28 25.39q-4.18 4.69-18 23.6-14.43 20.25-24.64 32.8-34.59 43.29-65.35 58.57L620 452.94a174 174 0 0 1-17.14 6.06c-2.05.54-3.85 1-5.4 1.34a23 23 0 0 0-5.06 1.09 52 52 0 0 0 3.8-4.48c.55-.84 1.55-2.38 3-4.73l11.5-5.48c4.69-2.09 7.45-3.3 8.37-3.55l10.46-5.69a409.3 409.3 0 0 0 61.66-58.57q13.51-16.11 38.62-50.21c7.74-9.58 14.81-18.91 21.12-27.94 3.48-4.94 7.87-11.26 13.18-19a301.5 301.5 0 0 1 42.55-45.35l11-6a73 73 0 0 1 8.37-1.93Zm-9.12-2a12.4 12.4 0 0 0 2.24.63c-.92.33-1.84.67-2.8.92l-11.55 6.36a260.4 260.4 0 0 0-44.68 46.52c-5.31 8.24-9.62 14.77-12.84 19.58q-9 13.38-19.75 26.82-24.89 33.8-38.16 49.9a398 398 0 0 1-61.71 58.11l-10.59 5.85a90 90 0 0 0-8.36 3.31c-3.39 1.71-5.94 3.14-7.58 4.18l1.13-2.17a46.7 46.7 0 0 1 7.07-10.25 46.7 46.7 0 0 0 8-10.34 22 22 0 0 0 4.19-1.88q18.62-10.17 51.54-48.61 17.33-20.13 38.91-47.74c2.88-3.55 8.36-10.62 16.73-21.84s15.48-20 20.92-26.44q28.32-33.67 56.06-48.74a25.56 25.56 0 0 1 11.27-4.18Zm-11.12-1.55h4.18a114 114 0 0 0-10.67 5.36q-42.37 32.67-58.57 53.59a357.7 357.7 0 0 1-33.68 43.76q-9.75 11-20.91 25.1c-9.63 12.43-15.36 19.71-17.16 21.76a352.6 352.6 0 0 1-51.25 48.94 9 9 0 0 0-1.17-6.15 58.6 58.6 0 0 0-5.1-7.4h.33q1.75-.84 75.31-81.54 78.81-83.62 105.42-98.06a40 40 0 0 1 12.55-4.9h-.08a2.1 2.1 0 0 0 .81-.47Zm-26 .76h.21c3.35-.3 7-.3 10.71-.3l5.11-.08a95 95 0 0 0-8.37 4.48 512.4 512.4 0 0 0-61.16 52.71q-29.72 31-42.26 43.59-13.83 13.38-44.11 47.52-26.44 29.7-29.71 35a88 88 0 0 0-7.36-7.49q5.94-3.93 30.25-36.81 27.52-37.37 30.45-40.5 16.36-16.73 35.94-39.07a510 510 0 0 1 54.22-46.82L774.42 227a41 41 0 0 1 6.15-1.43Zm-28.78 2a15 15 0 0 1 1.76-.58c4.18-.38 9.79-.71 16.73-1l-17.23 9.28v.25A555 555 0 0 0 696.23 285q-21.59 24.27-35.06 39A269 269 0 0 0 643 346.56c-6.91 9.74-11.63 16.44-14.19 20q-8.82 10.29-14.93 17.7a63 63 0 0 0-11.21 16.15c-3-2.55-6.28-5.15-9.84-7.78q2.22-1.85 26.11-30.92 28.56-34.71 35.71-43.1Q676.15 293.8 689 281a547 547 0 0 1 52.67-47.53l10.2-5.81Zm-24.85 2.05c8.28-.83 14.68-1.59 19.16-2.26l-6.12 3.22a524 524 0 0 0-52.76 47.65q-4.86 4.8-34.14 37.23-11.79 13-37.4 44-21.51 26.24-24.68 31.3a.75.75 0 0 0-.42 0c-2.43-1.43-4.56-2.85-6.61-4.19l2.47-1.29a52.4 52.4 0 0 0 5.48-7.58l6.86-9.83c1-1.3 3.35-4.43 7.24-8.62s6.27-7.19 7.15-8.36c2.59-3.31 7.91-10.42 16-21.21q8-10.51 13.68-17.58 11.6-14.06 32.51-35.89 24.51-25.1 43.84-42.21Zm-23 2.72h2.13l.72-.58c3.72-.42 7.9-.84 12.09-1.22h-.09a2.4 2.4 0 0 0 1.13-.12l-2 1.09a644 644 0 0 0-78.52 80.82q-17.86 23.34-27.15 35.31-16.11 20.92-30.42 37.65a221 221 0 0 1-7.61-5h.58c2.56-1.3 8.08-8.41 16.74-21.43q25.51-37.52 28.82-42.71 44.85-63.51 77.65-81.45a23.4 23.4 0 0 1 5.9-2.37ZM735 92.36q-.75 7.78-3.13 21.59c-2.72 13.3-4.19 20.54-4.19 21.67a357 357 0 0 1-18.36 64q-9.42 24.88-11.21 30c-2.47.33-4.82.71-7 1.13a114 114 0 0 0 9.71-19.63c2.88-7.07 6.36-15.77 10.33-26.14a193 193 0 0 0 12.84-44.85q5.44-31.67 12.85-61.54c-.65 4.27-1.28 8.83-1.84 13.77m-4.64-3.14q-8.86 46.28-9.41 49.16a330 330 0 0 1-20.63 62.46c-7.82 17.28-12.38 27.57-13.59 30.79-4.35 1-9 2.22-13.85 3.73a304 304 0 0 0 19.16-43.18q6.57-17.33 14.93-46.6c1-4.48 3.06-11.89 5.23-22s3.9-17.49 5.19-21.67A198 198 0 0 1 731.75 72l5.9-10.75c-2.05 6.13-4.43 15.42-7.28 27.97Zm5.31-31.75c-4 7.07-6.77 11.88-8.32 14.43a105.5 105.5 0 0 0-12.22 26.23q-2.39 8.46-5.65 22.18c-3.22 13.93-5.18 21.33-5.18 22.3a345 345 0 0 1-15.65 47.06q-6.2 15.57-14.22 34.39l-5.57 12.55c-5.27 1.72-10.79 3.72-16.73 5.9A384 384 0 0 0 672.34 197q6-15.86 16.32-46.39 2.1-5.91 8.07-23 5.16-14.89 8.16-23.26c1-2.72 2.39-6.49 4.19-11.3a116 116 0 0 1 5.18-12.55 110 110 0 0 1 13.68-15.39 128 128 0 0 0 9-9.59ZM725 62.36a101.8 101.8 0 0 0-13.13 14.69 82.4 82.4 0 0 0-5.65 12.88q-2.72 8.2-3.89 11.55-13.84 38.79-16.48 47.15-7.08 21.72-23.56 61.79-12 28.94-13.55 33.47L638 248.07q1.43-1.8 9.79-40.58a243 243 0 0 1 14.89-44.22q2.47-6.27 8.75-23.34 6-15.19 10.16-24.23a179.7 179.7 0 0 1 37.65-52.42l11.43-6.52c-1.6 1.5-3.48 3.3-5.67 5.6m-8.07-2.59 2.68-.79-2.26 1.12a201.2 201.2 0 0 0-38 53q-4.73 10-10.41 24.47-8.21 21.63-9.12 23.52c-3.14 7.65-8 22.59-14.69 45.3q-4.89 17.07-7.24 26.9a59 59 0 0 0 .46-6.23 368 368 0 0 0 1.34-39.16 27.4 27.4 0 0 0-.67-4.68q2.73-8.79 7.49-23.81c3.6-11.34 6.86-20.87 9.71-28.61a147 147 0 0 1 16-32.05 160.2 160.2 0 0 1 38.7-36.9Zm-40 15.94.76-.25c4.93-2.3 9.7-4.39 14.3-6.23q-14 11.83-29.53 41.12a256 256 0 0 0-24.85 66.94c-1.13-4.1-2.72-9-4.77-14.65a78 78 0 0 1-1.72-5c1-3 2.68-8.62 5.19-17a169.5 169.5 0 0 1 7.66-20.92 124 124 0 0 1 32.89-44.01Zm-29.32 17.7c4.6-3.06 10-6.57 16.23-10.5a112.4 112.4 0 0 0-15.9 21.58 141.5 141.5 0 0 0-18.78 48q-3.74-9.71-6.53-15.4a173 173 0 0 1 7.53-20 87.3 87.3 0 0 1 17.38-23.68Zm-15.68-15.23a49.2 49.2 0 0 1 4.18 11.13c.46 2 1 4 1.55 6a49 49 0 0 1-3.64 2.43c-.21-1.13-.42-2.43-.67-3.85a62 62 0 0 1-1.25-8c-.34-2.1-.92-4.65-1.76-7.79v-.12a58 58 0 0 0-2.13-6.32c1.07 1.8 2.33 3.98 3.72 6.52m-8.53 9c.25-7.48.25-13.17.25-16.94v-.12a13.6 13.6 0 0 0 1.13 2.88c.75 2 1.92 4.9 3.55 9.08.13.46.59 3.26 1.47 8.83.75 3.81 1.38 6.57 1.92 8.37l-9 6c.34-3.92.43-10.58.68-18.07Zm-1.51 23.52c.21 0 .21-.13.21-.42l11.63-8h-.08a10.6 10.6 0 0 0 1.84-1.21 103 103 0 0 0-6.74 11.21 136 136 0 0 0-6.57 15.72 45 45 0 0 0-1.42 5.57l-9.12-14.89.63-.3a58 58 0 0 1 8.78-7.32 1.6 1.6 0 0 0 .84-.33Zm-1.63-39.08a.3.3 0 0 1 0 .07c.16 3.94 0 11.28-.55 22.69-.33 6.11-.33 10.46-.33 13-5.57 3.81-8.54 6.82-9 9.08l-4.94-8a85.4 85.4 0 0 0 5.35-14.35 122.4 122.4 0 0 1 9.42-22.44v-.19Zm-10.21 4.44c2.43-2.39 4.42-4.42 6.06-6.11 0-.09.09-.2.13-.29v.12l-.17.17c-.81 1.81-1.54 3.64-2.17 5.52a187.7 187.7 0 0 0-9.62 30.75c-1.92-4-4.23-9.41-6.82-16.27q5.14-6 12.59-13.86Zm-14.33 21v.12-.07a9.2 9.2 0 0 0 .57 1.7 4.1 4.1 0 0 0 .42 1.72q2.58 4.68 3.76 39.62a328 328 0 0 1 0 40.66 170 170 0 0 1-5.65 23.35q-6.32 21.47-7.32 25.1a201 201 0 0 1-13.8 37.15c-5.69 10.54-8.37 15.81-8.37 15.81a1 1 0 0 0 .46.59l-4.18 2.22-9.5 6.23a81.65 81.65 0 0 0 16.31-28.07q3.81-10.76 8.92-31.3a264 264 0 0 0 7-30.33q4.23-22.25 5.86-29a196 196 0 0 0 5.14-52.84 192 192 0 0 0-2.44-29.62c1.03 2.44 1.94 4.8 2.82 7.04Zm-14.58-28.13a119 119 0 0 1 8.37 25.94 176.2 176.2 0 0 1 .33 59.83c-3.47 19.53-5.43 30.7-6 33.46q-3.95 20.4-7.74 34.06c-6.52 23.59-9.87 35.56-9.87 35.81a147.3 147.3 0 0 1-16.94 35.18q-8.53 6-15.94 11.13 10.5-13.63 23.47-56.89a709 709 0 0 0 20.7-86.6 227 227 0 0 0 3.48-32.59 155.7 155.7 0 0 0-1.43-30.13c-.79-12.21-1.42-21.83-2-28.95a143 143 0 0 0-2-14.3v-.13c1.43 3.93 3.31 8.49 5.57 14.18m-13-28.36q14.26 50 5.61 115.63-8.93 69.2-42.8 150.07l-7.91 5.9a3.8 3.8 0 0 1-.84.75q9.17-11.6 17.74-59.53 5.15-30.51 12.55-83.34c1.76-9.2 3.31-20.71 4.73-34.6.84-7.82 1.88-19.33 3.26-34.43l.17-.12c.25-4.56 1.26-16 2.72-33.93q.2-1.52 3.39-19.29Zm-3.31-8.75.17.18c0 .1 0 .22-.08.33a11 11 0 0 0 .38 1.3 152.6 152.6 0 0 0-4.48 27.11l-3.64 37.65q-3.46 32.55-3.72 34.89-2.18 19.92-4.56 35-7.36 47.28-11.13 71.41-2.26 14-6.23 36a139.7 139.7 0 0 1-8.37 25.94c-3.85 9.29-5.9 13.47-5.61 14.14s.46.67.55.67h.54a47.6 47.6 0 0 0-9.46 9.5h-1.46a31 31 0 0 1-3.68.92q-1.21-.06-2.43 0 27.61-90.54 30.29-150.15a325 325 0 0 1 10.5-72.75q1.94-6.61 14.23-43.34 6.12-19.32 8.28-28.29c-.04-.21-.1-.33-.14-.51Zm-6.52-.12a36 36 0 0 1 3.38-4.7c-.63 5.19-1.09 8.62-1.38 10.25a49 49 0 0 1-3 10.55c-2 5.56-3.23 8.95-3.48 9.74q-2.18 7.25-6.9 20.92-5.19 14.9-6.86 20.92a247 247 0 0 0-7.91 38.24q0 .63-3.68 36.23c-1.3 15.56-2.38 27.48-3.22 35.85a349 349 0 0 1-5.69 37.36q-2 9.21-12 47.27a271 271 0 0 0-7.7 31.93l1.72.54c-2.47-.21-5-.54-7.66-.92l-2.34-.5q10.92-49.5 15.94-74.6a527 527 0 0 0 10.37-71.58 497.5 497.5 0 0 1 10.3-72.08c2-9.5 3.39-15.86 4.18-19.16a167 167 0 0 1 6.86-20.08 210.3 210.3 0 0 1 19.06-36.06Zm-4.73-.81c0-.06.05-.13.08-.2v.13l-.13.07a11 11 0 0 0-.71 1.81Q543 53.47 537.47 64a99 99 0 0 0-7.74 20.92c-1.68 8.41-3.06 14.69-4.19 18.87a422.6 422.6 0 0 0-11.42 73.34 763 763 0 0 1-15.31 98.77q-9.87 46.69-9.54 49.16l-3.47-.63a179 179 0 0 0 3.3-20q2.48-19.92 2.9-32.43v-7.32a316.5 316.5 0 0 0 7.24-54q2.83-41.46 5.23-55.35c5.1-29.7 9.24-50.2 12.55-61.62Q528.55 54 546.63 34.63c2.17-1.15 4.48-2.39 6.9-3.74Zm-28.2 13.78.66-.42a129 129 0 0 0 12.56-5.57 131.7 131.7 0 0 0-18 35.48 452.5 452.5 0 0 0-19.62 80.2q-2 11.76-3.13 28.49-1.1 18.5-1.93 28.12-.79 7.4-4.18 34.76a40 40 0 0 0-.92 6.57 40 40 0 0 1-.46-4.18 84 84 0 0 0-4.94-21.8c-.5-1.47-1.05-2.93-1.63-4.48a61 61 0 0 0-2.34-6.31 240 240 0 0 0-.3-32.18 167.3 167.3 0 0 1 1.22-39.35 297 297 0 0 1 11.88-45.48 171 171 0 0 1 12.26-28.36 76.7 76.7 0 0 1 18.87-25.49m-16 6.15c1.3-.67 4.48-1.93 9.67-3.85a109 109 0 0 0-16.74 25.1 224.9 224.9 0 0 0-22.34 66.1 204.4 204.4 0 0 0-2.17 43.09c.41 7.32 1.21 17.57 2.38 30.63a236 236 0 0 0-12-24.77c-1.34-2.47-2.85-5.11-4.52-7.82a216 216 0 0 1-1-24.65 120.1 120.1 0 0 1 4.81-30.58A217.7 217.7 0 0 1 482 87.47a114.8 114.8 0 0 1 23.8-34.69Zm-23 12.88 7.45-4.18 3.43-2.39.59-.33a133 133 0 0 0-11.09 15 162.7 162.7 0 0 0-22 49 228 228 0 0 0-4.19 29.28 158 158 0 0 0-1.17 22.72q-5-7.78-11.8-16.73-.28-17.91 11.22-47.19c7.73-19.82 16.9-34.88 27.56-45.18m-18.49 12.72c1.68-1.38 3.81-2.8 5.86-4.18-1 1.38-1.88 2.72-2.85 4.18a182.5 182.5 0 0 0-18.07 36.11 108.5 108.5 0 0 0-6.11 23.47 76.3 76.3 0 0 0-.75 18.11l-5.27-6.61.12-.21a12.6 12.6 0 0 0-1.17-1.25 128.7 128.7 0 0 1 4.44-30.67 97.8 97.8 0 0 1 23.8-38.95m-15.06 6.11-4.68 3.56q1.17-3.23-3-14.56a14 14 0 0 1-.67-2.1c3.83 6.41 6.64 10.76 8.35 13.1m-18.91-28.95a91 91 0 0 1 8.37 21.17c1 3.76 1.92 7.4 2.72 10.92l.63 1.08a1.5 1.5 0 0 0 1.21.51c-3.77 2.67-6.23 4.6-8 5.77l-1.25 1a48.4 48.4 0 0 0 0-12.14 109.3 109.3 0 0 0-4.19-21.12c-.41-1.46-2.21-6.27-5.41-14.01-.71-1.76-1.38-3.39-2-4.81 1.56 2.13 4.2 6.05 7.92 11.63m-16-22.34a123.7 123.7 0 0 1 13.68 42.25c.54 3.35 1 8.12 1.47 14.39a30 30 0 0 0 1.08 7.58 3.8 3.8 0 0 0 .59.79c-1.63 1.38-3.6 3.39-5.82 5.57a133 133 0 0 0-2.21-31.42 196 196 0 0 0-8.91-39.29Zm-8.28-9.67c0 .11 0 .22.09.33a5.4 5.4 0 0 0 1 .85 24 24 0 0 1 2.51 3.51q8.13 15 10.51 49.2a294 294 0 0 1 .79 30.83 41.5 41.5 0 0 0-8.62 11.09c-1.42-1.51-2.84-2.89-4.18-4.19a1.5 1.5 0 0 1-.55-.41q0-16.11 3-51.46a112 112 0 0 0-4.43-39.42c-.1-.11-.21-.21-.3-.33ZM395.77 6.43A12.15 12.15 0 0 1 400.2 11c.46.63 1.51 2.39 3.1 5.31 5.52 10.21 7.49 28.29 6 54.39q-1.54 19.2-2 26.73a66.7 66.7 0 0 0 .29 12.56q-7.45-6.66-17.49-15.36c.13-2.47.5-7.91 1.09-16.27q1.26-19.33 2.72-27.7a171 171 0 0 0 1.88-23.18c.1-4.78.06-11.8-.02-21.05m-6.7 5.06A35.5 35.5 0 0 0 393.68 6a6.5 6.5 0 0 0-.42 2.22 262 262 0 0 1-1.05 29.66Q389 56 387.57 67.8a101.8 101.8 0 0 0-1.05 23.72c-3.89-3.38-7.82-6.9-12.26-10.62-.67-6.65-1.13-11.51-1.42-15a75 75 0 0 1 .42-17.95c.88-4.89 1.55-8.2 2-10a50 50 0 0 1 4.89-11.21c.25-.75 2.18-3.64 5.82-9.12a52 52 0 0 0 3.1-6.13m-14.72 10a36.3 36.3 0 0 1 6.9-4.68 2.5 2.5 0 0 0 .71-.59c-1.67 2.93-3.26 5.94-4.81 9A73.4 73.4 0 0 0 370 45.8v16a86 86 0 0 0 1.34 16.73l-7.12-5c-3.76-2.51-6.61-4.47-8.61-5.85a82 82 0 0 0 1.84-9.29 42 42 0 0 1 3.18-11.46q6-12.68 11.54-23.39c.67-.54 1.42-1.21 2.18-2.01Zm-25.19 28.83a15.7 15.7 0 0 1 .88-4.9 58.5 58.5 0 0 1 7.82-9.16 88 88 0 0 1 6.66-6.32v-.12a12.5 12.5 0 0 1 1.84-1.64 129 129 0 0 0-8 15.4 64 64 0 0 0-6.28 20.92l-3.56-4.77q.31-2.92.64-9.41m6 29.82q13.59 24.81 4.18 83.38-5.85 32.31-8.79 48.07c-2.34 13.1-3.93 24.27-4.85 33.47q-3.39 8-8.66 41.5-7.2 46.9-4.18 56a137 137 0 0 0-9.37 16.73 16 16 0 0 0-.67 1.89 229.4 229.4 0 0 1-1.82-65.83q1.45-17.75 10.87-79.49 9.59-63 11.76-80.7c3.35-24.6 5.14-37.61 5.14-38.95l.05-.13a91.9 91.9 0 0 0-1.3-27.44 76 76 0 0 1 7.67 11.5Zm-9.08-28.32c.2 2 .55 3.75.57 5.29l.06.07-.05.12a1 1 0 0 0 0-.19 7.3 7.3 0 0 0-1.28-1.44l-.63-.92a15.2 15.2 0 0 1 1.36-2.93ZM339 96.67a173 173 0 0 1 4.18-22.84v-.13a31.3 31.3 0 0 0 .88-7.28v.25c1.88 3.14 2.72 9.67 1.88 18.08s-2 21.71-4.18 40.45-3.81 32.59-5.06 41c-2 16.36-4.31 30.29-6.69 41.84q-3.69 19.06-6.95 42.29-.28 2.69-5.19 40.83a323 323 0 0 0-.67 35.31q.38 29.29 3.85 38.11a111 111 0 0 0-5 15.32q-5.56-18.33-8.82-28.33a136.8 136.8 0 0 1-6.53-36.14 393.7 393.7 0 0 1 7.07-83.21q3.49-17.22 9.97-45.22c6.57-28.32 10-43.25 10-44.8q.93-4.3 6.32-22.93a152 152 0 0 0 4.94-22.6m-2.39-8.37q-1.22 8.08-4.93 22.51c-3.39 12.93-5.36 20.75-6 23.51q-14.18 62.13-20.33 92a362 362 0 0 0-8.91 86.06 157.4 157.4 0 0 0 18.28 70.16l.46.71a66 66 0 0 0-1.34 8.36v-.33c-.33-.92-2.55-4-6.23-9.29s-6.06-8.87-7.07-10.58q-11.93-21.68-16.65-68.95-4.51-46.46 2.11-71.08 3.51-13.26 10.75-41.83a414 414 0 0 1 14.69-46q3.18-8.37 19.91-46l.13-.13a207 207 0 0 0 7-19.79c-.82 4.69-1.41 8.25-1.83 10.67Zm1.13-29.3a23.7 23.7 0 0 1 0 9.2l.13-.21q-3.48 12.13-7.49 22.72c-2.14 5.44-5.44 13.76-10.5 25.1-5.27 12.17-8.75 20.29-10.29 24.22q-8.13 21.09-15.53 47.53-7.35 29.21-11 42.63-6.64 26.61-2 73.42T298.12 373l6.65 11.13c4.73 7 7.62 10.16 8.92 9.49v7.57q-4.95-4.89-10.67-11a137 137 0 0 1-19.29-25.77 136 136 0 0 1-12.55-34.1 308 308 0 0 1-6-38.32 136 136 0 0 1 0-20.16c.12-4.15.58-11.47 1.46-21.88a153 153 0 0 1 4.18-21.84c2.85-11.59 4.61-19.75 5.36-24.56q2.88-9.5 7.07-23.76c5.1-17 9.45-29.92 13-38.78a589 589 0 0 1 28.44-56.32A235 235 0 0 0 337.74 59m-8.32 10.75a115 115 0 0 1-5.9 11.5L316.74 93l-13.05 24.3a201 201 0 0 0-10.84 21.7q-4.19 11.72-13.6 43.17-6.64 21.56-8.36 29.91-11.43 28.36-9.21 74.39 2.52 49.36 16.74 75.76a158 158 0 0 0 15.73 23.39 104 104 0 0 0 19.58 19.29 55.2 55.2 0 0 0 2.47 12.21 32.2 32.2 0 0 0-6.66-6.57c-5.9-5.14-10.16-9.07-12.92-11.71a174.4 174.4 0 0 1-33.47-43.34q-14.56-27.08-17.7-69.74a295.4 295.4 0 0 1 .5-50.21c.34-2.38.67-4.89 1.09-7.53a111 111 0 0 1 5.31-21.16c.46-.88 1.89-4.77 4.65-11.64a100 100 0 0 0 4.18-11.42c.63-2.42 1.51-6 2.6-10.79a71 71 0 0 1 3.76-11.38q6.9-16.44 11.09-25.1c4.26-8.91 8.57-17.28 13-25.1a303 303 0 0 1 26.66-34.13q10.41-12 14.81-17.65c-2.18 6.19-3.39 9.58-3.68 10.12ZM310.3 73c6.06-4.48 11.5-8.2 16.27-11.26a243.1 243.1 0 0 0-62.75 100.12c-7.11 20.08-12 35.31-14.81 45.18a118.9 118.9 0 0 0-5.69 35.35 258.6 258.6 0 0 0-.34 43.47q3.35 43.05 18.16 70.45 23.34 42.58 55.43 62.25a1.22 1.22 0 0 0 .55-.71 51 51 0 0 0 3.55 8.37 39 39 0 0 0 2.64 4.18c-10.38-7.61-18.08-13.47-23.18-17.65a106.4 106.4 0 0 1-20-20l-17.36-24.43a213 213 0 0 1-12.55-20.92 174.9 174.9 0 0 1-18.57-57.9q-1.77-11.42-3.52-31.67c-.33-3.64-.63-7-.88-10.12 0-5.32.3-10.13.3-14.56a255 255 0 0 1 5.81-43 164 164 0 0 1 22.72-52.13v-.13q3.76-5.94 11.67-16.35 9.75-13.51 11.42-16.11a155 155 0 0 1 11.46-15.06 102 102 0 0 1 9.58-7.87A49.7 49.7 0 0 0 310.3 73m-18.12-38.87v.08c.67 1.55 1.13 3.56 2.09 5.73a54.5 54.5 0 0 0 4.19 10 109 109 0 0 1 3.39 13.35c1.21 5.43 2.13 8.41 2.13 8.87q-13.94 9.47-24.77 18a89.4 89.4 0 0 0 7.28-23.18c1.13-5.08 3.01-16.12 5.69-32.85m-7.4 21.92a206 206 0 0 1-10.71 37.65l.29.38c-4.27 3.47-8.07 6.86-11.51 10.08a174 174 0 0 0-13.42 14.39 92 92 0 0 0 3.64-10.25 305 305 0 0 1 10.5-29.3c6-12 10.46-21 13.68-27.11A101 101 0 0 1 286 38.31a43 43 0 0 0 3-4.18q-2.89 14.81-4.22 21.92m-64.1 68.23q3.31-7.65 9.42-22A153 153 0 0 1 241.56 81a156.3 156.3 0 0 1 17.49-22.3c-1.84 2.89-3.85 6.11-5.86 9.62a241.5 241.5 0 0 0-16.48 39.33q-4.07 12.39-17.53 46.61c-7.49 18.95-11.09 28.57-10.75 29.28s.54.67.75 0q9.16-17.4 17.7-38.15t13.43-37.2a251.4 251.4 0 0 1 15.77-38.61 84.4 84.4 0 0 1 16.31-21.38l14.4-14.6A169.2 169.2 0 0 0 260.26 78q-4.18 10-9.83 26.19-5.82 17.57-8.37 24.05-5 7-10.33 14.9a385 385 0 0 0-29.29 56.14 20 20 0 0 0 .42-3h.38q2.3-11.25 5.31-33a174 174 0 0 1 12.13-39M141 114.45c.21-9.75.21-17.11.08-22a87 87 0 0 1 1.54-9.45A69.3 69.3 0 0 1 162 96.34q5.31 5.18 15.73 15.47c3 2.51 9.29 9 19 19.25 4.56 5 7.95 8.37 10.08 10.25v.38a6 6 0 0 1 1.26 2.25 1.5 1.5 0 0 0 1 .63 139 139 0 0 0-4.93 16.74q-1.08 5.2-2.35 18.7a122 122 0 0 0-.42 13.51 25.5 25.5 0 0 0-1.46 4.94 7.85 7.85 0 0 0 .46 5.27 1.06 1.06 0 0 1 0 .5c-1.42 3.14-2.76 6.36-4.18 9.62a137 137 0 0 0-5.44 16.74 17.2 17.2 0 0 0-1 3.51 11.3 11.3 0 0 0-.29 1.92 165 165 0 0 0-2.76 20.5 44 44 0 0 0-1.88-5.6c-2.35-5.19-4.06-9-5.19-11.38l-8.37-15.86a483 483 0 0 1-22.25-60.78 227.3 227.3 0 0 1-8.01-41.84Zm-.5 25.73c1 5.19 2.09 10.46 3.26 15.9a126 126 0 0 0 1.51 18.28c1.8 12 2.92 18.87 2.92 20.37A248 248 0 0 0 156 233c3.72 14.94 7.4 27.32 10.92 37.19a242 242 0 0 0 15.14 34.06 152.7 152.7 0 0 0 15.27 24q-9.17-7.69-27.53-21.83-8.49-31.17-13-47.91a385 385 0 0 1-11.59-54.38q-3.72-30.17-4.89-57.9h-.17c0-.15.04-2.23.38-6.05Zm-6.65-34.89c.79-3.47 1.79-6.7 2.63-9.83a78 78 0 0 0 0 16.73c.21 2.59.46 5.15.84 7.74q-.58 12.84-.34 25.39a423 423 0 0 0 4.19 58.11q2.3 15.4 10.66 50.58a417 417 0 0 0 14 49.2c-1.3-1-2.68-2.09-4.19-3.18l-15.43-11.79a237.5 237.5 0 0 1-10.09-41.05q-3.25-18.94-5.89-49.44a240 240 0 0 1-1.09-25.9c-.25-14.39-.63-23.09-.63-26.19a125.7 125.7 0 0 1 5.37-40.37Zm-4.44.29a127.1 127.1 0 0 0-4.64 36.61c.08 5.31.5 14.35 1 25.89s.84 20.17.84 25.77a323 323 0 0 0 5 46 219.4 219.4 0 0 0 10.58 45.52c-5-3.72-9.58-7.19-13.76-10.33a94 94 0 0 0-1.64-10.17c-2.34-12.13-3.93-22.09-4.68-29.91-.5-6.11-.84-13.64-1.05-22.84v-23.14c0-5.14.42-13.05 1.17-23.85q1.26-16.68 1.26-23.84h-.17a114 114 0 0 1 6.12-35.71ZM112 227a211 211 0 0 1 0-22.21c.62-11.09.62-18.62.62-22.81a184.4 184.4 0 0 1 4.19-47.31h-.17a120.4 120.4 0 0 1 5.69-17.7 101.4 101.4 0 0 0-3.77 23c0 3.43-.2 11.09 0 23.64a152.4 152.4 0 0 1-1.12 24 320 320 0 0 0 .92 41.08 225 225 0 0 0 5.39 42.72c-2.84-1.93-5.44-3.77-7.82-5.44a112 112 0 0 0-1.42-17.53C113 237.61 112 230.46 112 227m13.64 57q42.33 36.61 54.88 48.83 17.83 17.47 41.17 44.55L259.88 422l-12.55-.84q-3.14-4.68-35.89-39.2h-.21q-39-41.08-45.69-49-36.27-41.25-39.7-45.1-12.51-13.72-24.47-24.77c6.15 5.44 14.26 12.6 24.31 20.96Zm-38.41-31.62L122.75 290q23.92 25.72 40.41 44.76 12.21 13.89 41.54 44.64 24.65 25.6 38.16 41.5c-4.4-.38-8.29-.67-11.59-1-1.76-2.05-8.08-8.53-19-19.32q-20.72-21.09-26.69-28-6.62-7.69-21.38-25.4l-20.92-24.81q-27.57-33.93-41.84-50.66-12.8-15.1-24.85-27ZM51.79 226q5.6 4.53 12.3 9.63c7 6.86 11.3 10.83 13.52 13.47s5.64 6.52 10.58 12.55 8.49 10.21 10.58 12.55c12.26 14.06 26.82 31.54 42.51 50.7s29.24 35.56 42.17 50.21 21.55 24.2 27.65 30.6 10.8 11.05 14.19 14c-2.68-.29-4.73-.58-6.28-.58-5.94-.42-12.17-1-18.49-1.72a436 436 0 0 1-45.73-50.58q-27.1-36.18-40.66-53.59-10.42-13.47-40-54.38-16.81-23.22-29.62-39.5a79 79 0 0 0 7.28 6.64m-20.58-21c1.21 1.21 3.22 3.26 6 6.15q19.38 29 33.93 49.74 20.92 30 40.16 54 7.32 9.54 20.38 26.78Q146 360.95 152 368.6q13.22 17.11 27.61 32.55a121.3 121.3 0 0 0 16.11 15.77q-12.88-1.5-26.53-3.51a285.5 285.5 0 0 1-40.59-47.11q-22.87-34.43-34.26-51.62l-19.5-36-1.29-1.34-10.29-18.93-12.35-20q-7.35-11.75-12.91-19.5c-2.93-4.39-5.23-7.61-6.9-9.62a48 48 0 0 0-7.62-8.83c-2.93-2.55-5.1-4.64-7.11-6.27a67 67 0 0 1 14.84 10.75Zm5.56 17.32q8.79 12.23 24.35 37.65l10.46 19.23a4.16 4.16 0 0 1 1.34 1.63l19.5 35.69c3.8 5.73 9.37 14.1 17 25.94q10.22 16 17.49 25.81c2.09 2.72 5 7 8.87 12.8a106.5 106.5 0 0 0 9.58 12.3 91.4 91.4 0 0 1 10.08 12.55 27.9 27.9 0 0 0 7.41 6.53c-1.62-.25-3.21-.55-4.77-.88a24.5 24.5 0 0 1-11-4.44 78 78 0 0 0-8-5.81 84 84 0 0 0-9.71-9.16c-2.84-2.05-3.64-1.68-2.43 1A171 171 0 0 1 111.91 374a273 273 0 0 1-16.73-25.43 30 30 0 0 1-1.72-4.19l-18.41-33.89c-5.31-11.63-9.37-20.25-12.09-25.94-4.68-9.83-9-18.28-12.8-25.43-2.63-4.77-4.64-8.2-6.06-10.34L28.24 219.5a95.2 95.2 0 0 0-10.54-16.11l-6-7.4a118.8 118.8 0 0 1 25.07 26.27ZM11.3 201.34a.9.9 0 0 0 0-.46 11 11 0 0 1-.55-1.46 65 65 0 0 1 5.65 6.44c2.09 2.68 5.19 7.95 9.37 15.23L42.09 251c1.42 2.13 3.3 5.31 5.6 9.5q8 14.51 24.77 51.29l18.37 33.47a106 106 0 0 0 5.23 10.62c1.79 3.35 4 7 6.77 11.13.3.21 2.76 3.68 7.45 10.42 1.51 2.09 4.6 6.48 8.79 13.13a23.3 23.3 0 0 0 6.23 6.28c-.67 1.42-1.42 2.93-2.22 4.9s-1.59 4.09-2.43 6.48c-3.89-4.18-7.69-8.37-11.88-12.55a148 148 0 0 1-22.92-31.17 588 588 0 0 1-36.65-82.41 492 492 0 0 0-26.15-62.76 105 105 0 0 0-11.75-17.99m107.47 210.52c-.75 1.76-1.5 3.64-2.3 5.57a7.6 7.6 0 0 0-.33 1.67l-10.63-7.41A108.3 108.3 0 0 1 85.68 395a172.4 172.4 0 0 1-20.92-30.58 255 255 0 0 1-15-39.37Q43 304.81 38.87 288.07q-7.66-30.54-9.25-36.94c-3.18-11.67-5.86-20.92-8.16-28q10.34 21.26 24 59.66a587.5 587.5 0 0 0 36.78 83.38c2.17 4.14 4.35 8.07 6.36 11.79a135 135 0 0 0 9.28 13.1 168 168 0 0 0 12.55 14.39 38 38 0 0 0 8.34 6.41m-98.1-161.49a238 238 0 0 0-2.47-25.72 3.9 3.9 0 0 1 .42 1.38 122.4 122.4 0 0 1 7.19 19.37q3.48 14.55 9.75 41.41 4.52 18 11 38.41a260 260 0 0 0 15.73 40.41 174 174 0 0 0 22.47 32.47q16.15 18.28 31.25 23.55a70 70 0 0 0 .25 8 38.4 38.4 0 0 0 1.42 8.37c-1.25-.8-2.84-1.72-4.72-2.76a104.3 104.3 0 0 1-13.85-10.34 230 230 0 0 1-17.32-18.41q-4.44-4.8-14.23-17.86a205 205 0 0 1-15.14-21.8 227 227 0 0 1-12.17-26.69q-4.7-11.5-10.34-28.24a210.4 210.4 0 0 1-8.36-41.12 47 47 0 0 1-.26-4.77c-.04-6.2-.2-11.47-.62-15.66m58.65 175.42-12.55-9.08c-.88-1.08-1.84-2.26-2.89-3.47a133.5 133.5 0 0 1-15.68-23 255 255 0 0 1-18.37-43.76 154.5 154.5 0 0 1-8.37-46.31v-14.28a232 232 0 0 0 5.4 24.52 268.3 268.3 0 0 0 22.67 57.86 244 244 0 0 0 29.37 40.45 226 226 0 0 0 17.57 18.49c7 6.45 11.09 9.84 12.18 10.63a18.35 18.35 0 0 0 10.79 5l3 6.86a89 89 0 0 0 8.35 12l.19.07h-.17a14.4 14.4 0 0 1-2.53-1.14 54.5 54.5 0 0 1-14.35-8.37c-1.63-1.42-4.52-3.76-8.7-6.73s-7.07-5.11-8.62-6.36c-4.19-3.5-9.97-7.98-17.29-13.38M89.7 439.1l4.89 3.38c1.51 1.18 4 3.14 7.62 5.82 1.92 2.34 11.25 12.84 28 31.63a255.4 255.4 0 0 0 31.55 30.58 232.3 232.3 0 0 0 40.49 24.89q15.66 8 49.12 4.52 35.47-3.55 56.81-18l15.73-8.37 35.19-25.1a45.2 45.2 0 0 0 11.08-10.33l2.93 2.34a25 25 0 0 0-3 1.21c-.63.42-8.41 6.36-23.26 17.87A315 315 0 0 1 317 520.89l-14.93 7.44a76 76 0 0 1-27.28 12.55 176.8 176.8 0 0 1-43.18 6.65q-59 1.8-86.22-34.22c-3.43-4.39-12.76-17-27.9-37.65Q101 453.49 90 439.56h.17a3 3 0 0 1-.47-.46m239.93 85.13a122.2 122.2 0 0 1-24.23 17.07 141 141 0 0 1-42.13 14.18 168.7 168.7 0 0 1-53.63 1q-66.6-9.16-98-66.27-3.39-6.64-12.55-28.74h.17Q96.22 454.5 94 449.3q7.62 12.13 25.11 35.61 19.07 25.89 25.89 33.21a113.45 113.45 0 0 0 42.93 28.58q18.2 7.32 54.38 3.55 39-3.93 61.75-18.82l14.6-7.49a264 264 0 0 0 30-21.38c5.1-4 9.45-7.36 13-10-1 .84-2 1.76-3 2.72-10.5 10.75-16.32 16.61-17.36 17.57-3.89 4.15-7.74 7.91-11.67 11.38m47.61.78c-15.41 2.39-33.4-4.72-36.79-6.14 2.48-2.29 4.92-4.62 7.29-7 .46-.48.94-.93 1.4-1.41 4.2.72 20.14 3.4 23 2.93 6.07-1 9-3.06 18.45-3.1 6.9 0 16.86-4.24 21.7-6.49a125 125 0 0 0 12.09 4c.67 1.24 1.37 2.46 2.06 3.68-5.34 1.76-33.75 11.13-49.2 13.52Zm55.34-15.13c6.28 1.38 13.06 2.55 20.34 3.43l2.42.46q27 9.3 40.54 12.55 26.77 6.95 27.53 6.95 21.09 4.34 29 1.17a227 227 0 0 0 29.79 17l2.8 1.21a63 63 0 0 0-7.86-.29c-6.74 0-11-.13-12.8-.34-9.67-2.38-16.86-3.93-21.47-4.68a160 160 0 0 1-20.54-5.27c-4.68-1.51-10.75-3.69-18.11-6.49q-6.15-1.92-34.77-13.93a164.7 164.7 0 0 0-35.77-10.79Zm1.93 2.26h-.08.25zh.06Zm131.19 67.73a146.5 146.5 0 0 1-22 1c-6.94-.25-13.22-.71-18.83-1.46a94.4 94.4 0 0 1-27.9-7.74 181 181 0 0 1-20.16-11.26 124 124 0 0 1-16.74-13.68l-14.06-14.56a62 62 0 0 1-10.58-14.51 267.7 267.7 0 0 0 55 41.5 219 219 0 0 0 20.38 10.62 117.7 117.7 0 0 0 24.68 7.62 174.5 174.5 0 0 0 37 .67l5.23-.34c-4.19.93-8.21 1.64-12.02 2.14m30.3-6.52q-59.7 11.29-105.35-16.74-14.13-8.65-34.76-24h.08q-4.2-3.59-14.31-13.43a23 23 0 0 1-2.67-2.47 272 272 0 0 0 26.27 14.89q9.75 4.69 39.62 18.2a295 295 0 0 0 48.53 15.19q32 7.9 49.45 6.4c-2.64.61-4.69 1.29-6.86 1.96m-26-8.75a315.4 315.4 0 0 1-63.47-18.07c-9.79-4.22-23.18-10.29-39.91-18.66-14.27-7.15-24.89-12.17-31.92-15.52a.18.18 0 0 0-.11-.17Q448 518 466.43 524.94q11.35 4.53 34.35 13.47a349 349 0 0 0 42.12 13.39q34.61 9 44.31 3.68a3 3 0 0 0 1-.87c3.94 1.84 8.66 4.18 14.31 7a97 97 0 0 0 11.59 4.19q-14.11 4.2-44.05-1.2Zm45.81 3.14 1.67-.92 1.8.42a16.2 16.2 0 0 0-3.41.5Zm121.07-29-26.27 14.43q-51.87 17.54-83.61 11.94c-2.22-.35-4.43-.81-6.61-1.38v-.3l-.41-.33a1.7 1.7 0 0 1-.46.46 117.4 117.4 0 0 1-16.4-5.9c-3.64-1.76-7-3.31-10-4.56 1.59.42 3.22.75 4.93 1.09a240 240 0 0 0 39.25 4.6q52.08 2.09 83.67-13.93l28.11-15.23c-4.36 3.37-8.38 6.37-12.14 9.16ZM770.24 511v-.29l-1.25.63c-5.23 4.26-8 6.73-8.37 6.73a138 138 0 0 1-12.55 8.83l-28.49 15.44a240.7 240.7 0 0 1-88.78 13 205 205 0 0 1-31.29-4.19l-20.42-4.52a123 123 0 0 1-13.26-8c-8.37-5.6-13.89-9.16-16.73-10.58a96.4 96.4 0 0 1-15.27-11.47c-5.07-4.26-9.17-7.57-12.55-10a.36.36 0 0 1 .25 0c.21 0 1.13.46 2.8 1.17a108 108 0 0 0 11.55 7.19q12.38 7.08 19.66 10.34c3.55 1.63 9.79 4.22 18.7 7.86 7.74 3.26 13.93 6 18.53 8.08a80.2 80.2 0 0 0 22.05 6.23 155.3 155.3 0 0 0 29.7 1.51h18a101 101 0 0 0 17-1.64q20.51-3.93 69.32-25.89l24.56-13.26c-1.19 1-2.28 1.96-3.16 2.83m9.79-9.87-28.45 15.65a249.5 249.5 0 0 1-69.4 25.1q-51.67 10.74-89.32-4-6.15-2.46-18.16-7.95t-19.08-8.11c-8.45-4.86-15.9-8.83-22.25-11.93-2.22-1-4.1-1.88-5.61-2.63a.5.5 0 0 0 0-.25 318.5 318.5 0 0 1 41.84 9.37L612.77 529q19.74 4.65 23.18 5.27a122.3 122.3 0 0 0 31.17.8c2.71-.3 8.78-.67 18.15-1.09a106.4 106.4 0 0 0 22-3.73 444 444 0 0 0 49.73-19.2c8.83-3.85 16.86-7.4 24-10.75h.13a8 8 0 0 0-1.13.84Zm2.38-4.27h.13a4.3 4.3 0 0 1 1.3.71 208 208 0 0 0-24.06 8.37q-17.7 7.6-27.15 11.34a187.1 187.1 0 0 1-64 14.81 177 177 0 0 1-32-1.89c-3.89-.58-12-2-24.14-4.77a222 222 0 0 1-22.72-5.94l-22.26-7q-15.06-4.74-22.71-6.82a48.6 48.6 0 0 0-11.55-1.76 86.2 86.2 0 0 0 15.23-5.1 254 254 0 0 1 53.3 3.93l51.46 8.37a178 178 0 0 0 31.5-.34q17.26-1.3 35.17-3.77 9.17-1.12 34.27-5.31Zm-51.62-13.55 5 .42q10.34 3 22.05 6.4l.12-.05c7.2 2.1 13.39 3.69 18.37 5.15q-15.85 1.38-53.09 7.53Q675 511 653.27 508q-38.87-5.43-52.8-8.07c-11.17-2.22-20-3.56-26.57-4.19a53.8 53.8 0 0 0-23.3 1.59 151 151 0 0 0 20.46-15.89 398 398 0 0 1 42.88 0q15.4.7 45.18 2.21c5.15.17 13.52.05 25.11-.41 12.38-.55 20.91-.84 25.64-.84 7.13.12 14.06.41 20.92.92Zm-8-3.61h.29-.12l-.17-.05c-3.73-.16-7.86-.2-12.51-.07q-34.68 1.5-51.63 1.17c-21.21-1.34-36.89-2.3-47.14-2.85a161 161 0 0 0-38.91 2.18c1.34-1.13 2.72-2.43 4.18-3.85l7.11-6.49q61.05-3 86.44-2.26a169 169 0 0 1 34.3 6.41ZM711 442.07a34.3 34.3 0 0 1-3.93 9.87 34.9 34.9 0 0 1-8.91 10.25c-4.82 1.21-7.53 1.92-8.12 1.92a13.5 13.5 0 0 0-2.89 1.34c-2.42-.58-4.72-1-6.94-1.38l-2.34-.37a13.6 13.6 0 0 0 1.84-.59 64.4 64.4 0 0 0 14.22-6 61.8 61.8 0 0 0 15-14.81h-.08c1-1.22 2-2.35 2.8-3.35a20 20 0 0 1-.65 3.12m.75 6.23a65.4 65.4 0 0 0 4.19-12.55 48.5 48.5 0 0 1-.63 13.81 13.3 13.3 0 0 1-2.26 4.56l-.08-.05c-2 3-3.1 4.86-3.39 5.44a32 32 0 0 1-4.48 5.49 14.1 14.1 0 0 0-2.84 3.85l-6.91-1.75 2.26-1.13a34.54 34.54 0 0 0 14.1-17.67Zm-4.06-8.66A46 46 0 0 1 693.72 453a128 128 0 0 1-13.8 6.19c-5 1.76-7.83 2.76-8.37 3.09a2.3 2.3 0 0 0-.46.42 89 89 0 0 0-9.2-1l4.93-2.18 17.74-8.36 21.21-11.55c1.51-1 2.85-2 4.19-2.84ZM720 446v-.3h.09a3 3 0 0 1-.08.26 45 45 0 0 1 0 4.76 41.7 41.7 0 0 1-3.43 17.82 19.7 19.7 0 0 1-2.13 3.77c-5.36-1.51-8.37-2.56-8.95-2.56h-.67a6.7 6.7 0 0 0 1.55-1q4.93-2.68 10.41-14.18A43.2 43.2 0 0 0 720 446m116.3-191.83q-.88 3.65-3.73 12a431 431 0 0 1-22.21 53.47 261.7 261.7 0 0 1-38.82 59.61A350 350 0 0 1 704.56 436l-22.13 12q-1.73.59-21.3 9.58a40 40 0 0 0 4.19-2.22q26.64-14.38 65.8-50.62 44.94-41.29 68.91-78.69a234 234 0 0 0 14.56-26 244 244 0 0 0 9.16-23.35q2.22-6.06 8.91-24.09c1.16-3.31 2.77-7.28 4.91-11.89v-.16h.09a.8.8 0 0 0-.07.16 14 14 0 0 1 .07 2 28 28 0 0 1-1.4 11.46Z"/></svg>