<svg xmlns="http://www.w3.org/2000/svg" viewBox="0 0 763.24 632.56"><path fill="currentColor" d="M372.69 598.05q-5.13 4.26-9.69 7.54a146.4 146.4 0 0 1-44.08 22.14L299.39 632a135.4 135.4 0 0 1-36.39-1.7 172 172 0 0 1-30.14-8.77 230 230 0 0 0-32.91-9q-14.66-2.93-27.58-4.31a32.45 32.45 0 0 1-17.94-3 183 183 0 0 1-29.22-10.61 25.3 25.3 0 0 0 6.51 4.41v.51a78.4 78.4 0 0 1-19.32-11.17Q86.76 575 84.66 564.58a3 3 0 0 1 .25-2.25c-1.07-5.13 4-8.77 15.38-11.59a70.2 70.2 0 0 1 21-2c-3.39-2-7.8-5.12-13.13-8.92a299 299 0 0 1-27.4-21.12 211 211 0 0 1-18-18.24c-2.41-2.62-7.69-8.77-15.89-18.36-7.33-10.86-14.66-22.24-22-34Q2.43 412.7.54 403.83a14.46 14.46 0 0 1 5.12-15.38 70.8 70.8 0 0 1 39 1.18 196.4 196.4 0 0 1 24.15 11.53c3.48 2.16 11 6.1 22.4 11.74s18.5 9.33 22.29 11.79c10 6.51 21.79 15 35.89 25.32l9.28 7c-1.08-1.49-2.11-2.93-3-4.41v.51a255 255 0 0 0-22.09-33.83A71.8 71.8 0 0 1 121 391.63a130 130 0 0 1-1.59-7.84 275 275 0 0 1-20-59.62q-4.16-18.76-1-67.46a381 381 0 0 1 7.08-60c3.33-14.15 5.79-25 7.48-32.5a299 299 0 0 1 9.18-34c2.1-5.79 4.61-12.15 7.63-19a84.5 84.5 0 0 1 8.05-19h1.13c3.59-3.85 8.92-2.87 16 2.87a73 73 0 0 1 10 9.64c4.36-14.2 9.38-23.38 15.38-27.58a.45.45 0 0 1 0-.36 12.56 12.56 0 0 1 6.4-2.46 2.6 2.6 0 0 0 .47.66 5.3 5.3 0 0 1 .51.82 27.9 27.9 0 0 1 9 3.7A168 168 0 0 1 212 89.81c3 2.41 6.46 5.48 10.25 9.17a106.3 106.3 0 0 1 8.92-20.71c3.18-6.56 6.56-13.22 10.25-20 3.44-10 11.18-11.63 23.12-5.12a52.8 52.8 0 0 1 12.3 9.33 43 43 0 0 1 4.77 5.12c1.84-2.61 4.15-6 7-10.25q8.71-9.12 17.22-.51a15 15 0 0 1 3.28 1.95l-.3-.72a24 24 0 0 1 2.51-11.23c1.08-3 2.36-6.46 4-10.25q3.12-11 9.33-12.1a18.63 18.63 0 0 1 13.63 5.13 205 205 0 0 1 17 14.71 165 165 0 0 1 13.48 13.07A119.4 119.4 0 0 1 386 66.64c1.38 1.07 2.92 2.2 4.66 3.38v-.77l1.95-.41a67.5 67.5 0 0 1 7.69-21.53 172 172 0 0 1 9.79-18.91 251 251 0 0 0 13.76-22.1c6.76-8.76 12.81-8.4 18.09 1.18a204.6 204.6 0 0 1 36.35 67.21q7.38-6 16-28.09a60.8 60.8 0 0 1 7.52-14.6.7.7 0 0 0 0-.41h.36c2-2.46 3.85-3.59 5.54-3.44 6.51 1.49 12.71 7.28 18.61 17.28 1.43 2.56 4.51 9.28 9.33 20.14s9.07 21.53 13 32.4a88 88 0 0 1 9.33-14q14.61-18.87 27-16.2a33.5 33.5 0 0 1 9.69 9.69L596.9 80c0 .25 4.77 5.74 13.53 16.5A73.8 73.8 0 0 1 630 130.61q7 29.39 21.24 72.48l7.64 34.66a73 73 0 0 1 3.48 12.14 248 248 0 0 1 5.13 42.35 166.4 166.4 0 0 1-1.64 35.88q11.53-8.21 28.6-21.58A243.4 243.4 0 0 1 726 284.49l19.42-4.61c1 0 4.77-1.49 11.28-3.74a18 18 0 0 1 1.44-1.44.6.6 0 0 1 0-.46q2.14-5.12 3.69 1.69a1.9 1.9 0 0 0 0 .47l1.43-.62-1.38.92v1.64q3 20.51-13 65.82-5.54 17.43-26 64.49a246 246 0 0 1-47.32 71A267 267 0 0 1 655 498.92a137.3 137.3 0 0 1-27.89 17.78l-55.2 23.07a175 175 0 0 1 33.52-2c4.67.57 11.33 1.23 20 2a49.6 49.6 0 0 1 16.15 4.77c5.64 3.18 12.87 7.43 21.73 12.87a76.3 76.3 0 0 0 20.48 8.59l1.9-.72h1.43l-2.67 2.15a3 3 0 0 1-.35 2.15 2.78 2.78 0 0 1-2 1.7 4.5 4.5 0 0 1-1.13 2.1 5 5 0 0 0-1-.87 31.6 31.6 0 0 1-4.31 5.53c-5.38 5.13-19.43 10.87-42 17.74l-28.81 6.76h-1.74l-18.87 3.85-53.67 5.13a234.5 234.5 0 0 1-38.29 1.94v-.71l-12.76 2.81-11.33-1.56-1.64.35a14.6 14.6 0 0 1-10.26-1.74l-1.48-.92c-8.2-1.59-16-3.38-23.38-5.43Zm50.34 5.8a210 210 0 0 1-35.42-14.41 26 26 0 0 1-3-1.69c-1.59 1.39-3.07 2.77-4.46 4.1l.62.82M238.9 77.71c0-.36.46-2.41 1-6.2-1.58 2.77-3.23 5.79-5.12 9.12a115 115 0 0 0-8.66 21.89c2.92 2.72 6.1 5.79 9.58 9.23l2.92 2.61-2.82-9.84a63 63 0 0 1 1-14.2 90 90 0 0 1 2.1-12.61M183 81.2v4.35q7.07 16.31 21.32 53.11a650 650 0 0 1 26.76 79.25 30.4 30.4 0 0 1 .61 4.25 2 2 0 0 1-.66.62 116.1 116.1 0 0 0 33.32 16.3 7.6 7.6 0 0 1 1.89.66l-11.38-25.32q-17.22-38.8-24.19-52.95-1.39-2.72-9.54-21.32A154.5 154.5 0 0 0 210.35 119c-1.75-2.62-7.18-10.26-16.41-23-5.43-7.53-9-12.61-10.61-15.38Zm4.51 0a292.6 292.6 0 0 1 23.88 35.88q6.68 11.54 22.05 42l18.4 39.22c9.89 21.47 16 35.88 18.45 43q10.88 3.6 24.56 7.18-3.79-6.21-15.74-32.09-18.73-40.21-27.11-54.1-19.28-31.68-27.12-42.19a202 202 0 0 0-32.78-35.88ZM204.4 92a168 168 0 0 1 23.94 25.94q6 8 27.47 42.44 5.13 8 22 42.7a356 356 0 0 1 20 44.24c0 1.28.3 1.9 0 1.85l2.15.46c5.43 2.2 10.66 4.35 15.79 6.61Q307 241.59 275.24 176a214.6 214.6 0 0 0-33.42-46.65q-23.37-24.76-29.73-32.14Zm46.8 40.34a318 318 0 0 1 26.91 41.42q8 13.53 25 47.57c11 22 16.66 34.19 17.17 36.5a4 4 0 0 1 0 .46q5.13 2.21 9.69 4.61a136.5 136.5 0 0 1-9.64-19.42c-4.61-11.79-8.15-20.51-10.71-25.64a337 337 0 0 0-28.35-50.08 292.5 292.5 0 0 0-37-43.31 57.5 57.5 0 0 1 6.93 7.85Zm-1.79-7.48a173 173 0 0 1 .87-17.53c.82-12.77 1.28-19.38 1.28-19.79a162.5 162.5 0 0 0-3.9-19.79c-.3-1.38-.51-2.71-.71-3.94a13 13 0 0 1-.57 1.69c-2.56 9.33-4.2 15.68-5.12 19.22a130 130 0 0 0-1.59 15c0 3.54-.36 8.66-.51 15.38Zm29.47-53.76a90 90 0 0 0-8.3-6.82 44.1 44.1 0 0 0-17.79-9.94 146.5 146.5 0 0 1 18.4 29.93 75 75 0 0 1 5.95-11.07Zm17-6.41q3.9 34.1 8.2 68.69 7.69 63.51 13.79 91.09a152.4 152.4 0 0 1 11.12 29 21.7 21.7 0 0 0 2.93 5.49 29 29 0 0 1 2.71 5.12 5 5 0 0 1 0 1.23l7 3.69c-.71-1.43-1.23-2.35-1.43-2.87a67 67 0 0 1-1.8-9.12c-7.4-44.54-11.95-70.27-13.4-76.88a103 103 0 0 0-4-14.25l-8.31-37.06c-.76-1.08-1.28-1.8-1.59-2.16l-9.43-42.8a160 160 0 0 1-5.1-15.86Zm-4.77 4.82a125.7 125.7 0 0 0-5.48 43.72 318 318 0 0 0 5.12 55 34.6 34.6 0 0 0 2.77 6.76 43 43 0 0 1 2.56 6.05 15 15 0 0 1 .31 2c2.82 5.13 5.9 10.92 9.33 17.33l4 7.58q-2.1-13.17-4.2-33.68a273 273 0 0 0-6.52-41.86c-.36-3-1.34-9.59-3-19.79a183 183 0 0 1-2.35-20.35c-1.08-8.72-1.9-15.38-2.41-20.1a22 22 0 0 1-.16-2.66Zm-36.75.36a147.4 147.4 0 0 1 .87 32.65 154 154 0 0 1-2.36 25.63l.41.36a137.3 137.3 0 0 1 10.51-28.09c2.1-4.77 4-8.92 5.74-12.46q-2.76-4-17.89-28.34a106 106 0 0 1 2.69 10.25Zm1 60.74c4.36 4.46 9.08 9.43 14.1 14.82a20 20 0 0 1-1-2.47 48 48 0 0 1-1.85-5.84c-1.23-5.74.92-19.58 6.56-41.62 1.8-6.77 3.54-12.66 5.13-17.69-1.95 3.28-3.85 7-5.8 11.07q-.72 1.55-17.2 41.73ZM285 75.4c-1.64 4-3.18 8.31-4.71 12.87a129.15 129.15 0 0 0-7.64 58.8 5.6 5.6 0 0 1-.77 1c2.41 2.61 4.87 5.13 7.48 8.1a77.6 77.6 0 0 1 8.21 11.43c-.72-2.77-1.7-6.92-2.93-12.41a229 229 0 0 1-2.3-53.36A187 187 0 0 1 285 75.4m43.11-39.52a290.5 290.5 0 0 0 14.25 45.37q4.77 11.84 9.18 22.5.47 2 0 1.08a3.5 3.5 0 0 0 0 .92 11 11 0 0 0 1.36 1.25 7.4 7.4 0 0 1-.51-1.59 15 15 0 0 1 0-3.28 15.5 15.5 0 0 0 0-3.33 29.35 29.35 0 0 1 1.79-12.66c-1.89-3.64-6.3-13.33-13.32-29A142 142 0 0 0 327.12 32a20.8 20.8 0 0 0 .97 3.88Zm4.15-4.66a62.6 62.6 0 0 1 16.23 15.38l11.33 14.91a6.28 6.28 0 0 1 3.33-4.2l-10.76-11.18a67.6 67.6 0 0 0-21.32-16.71 13.4 13.4 0 0 0 1 1.8Zm16.1 22.24Q341 44.24 336 38.39q7.23 14.31 19.22 43.78a101 101 0 0 0 3.59-15v-1c-2.41-2.67-6.05-6.92-10.66-12.72ZM325 40.44a89.6 89.6 0 0 0-.82 16 166 166 0 0 0 3.48 24.91 2.7 2.7 0 0 0-.61.77q8.15 8.4 19.12 18.91c-2.36-5.12-5.49-12.71-9.49-23.58q-10.24-30-10.25-30.14a65 65 0 0 1-1.43-6.87M306 82l9.43 42.8a26 26 0 0 1 1.59 2.31l7.89 35.89a119 119 0 0 1 4.26 15.73c2.1 9.54 5.12 24.35 8.56 44.55S344 258.4 346.19 268l.71 3.95 2.88 1.69a193.5 193.5 0 0 1 12.76-32.76 473 473 0 0 0-11.84-46.13c-6.72-20.51-11.59-35.88-14.76-46.14a182 182 0 0 0-9.33-22.34c-5.95-12.2-9.49-19.69-10.62-22.35l-7.38-22.71a79.8 79.8 0 0 0-7.43-17.43v1C302.46 68.53 304 74.17 306 82m-1.39-18.41a37.3 37.3 0 0 1 6.92 12.92c1.7 5.13 4.16 13 7.33 23.12q2.42 5.94 10.26 22a215 215 0 0 1 10.25 22.76q2.93 9.18 13.22 43.57c7.13 23.79 11.59 39.27 13.33 46.14.82-2 1.74-4 2.77-6 2.92-6.2 5.69-11.89 8.2-17.07q-4.35-10.56-12.66-37.52A173.4 173.4 0 0 0 346.9 133c-.51-.87-7.68-14-21.63-39.47a177 177 0 0 0-20.5-30.76v.26Zm19 14.72a57 57 0 0 1-2.61-8.9 91 91 0 0 1-1.23-21.12 41 41 0 0 1 2.92-16.71 47 47 0 0 0-5.9 12.5c-1.53 4.31-3.48 9.9-5.74 16.66a55 55 0 0 1 5.54 7.44 54 54 0 0 1 2.82 5.12q2.46 2.82 4.15 4.82Zm12.76 29.83a131 131 0 0 0 11.43 18.91A166.6 166.6 0 0 1 365.67 165a323 323 0 0 1 12.81 42.49q7-14.15 11.53-22-17.52-35.37-27.21-50.54-9.85-16.87-15.38-25.63l-2.57-3.85-5.12-4.82c-4.56-4.05-8.56-7.69-12.05-11 3.85 8.97 6.82 15.13 8.61 18.51Zm24.1-22.91a227 227 0 0 1-5.69 23.42c2.76 2.67 5.74 5.44 8.86 8.31-.41-4.41-.87-12.1-1.28-23-.3-6.15-.46-11.33-.46-15.38-.54 1.85-1.05 4.15-1.51 6.67Zm5.69-24.87a.42.42 0 0 0 0 .31l.92.62a3.9 3.9 0 0 1-1-.91Zm28.65 12.51q9.69 6.83 23.79 15.69c1.38 1 2.71 2 4.15 3.07l-1.28-2.87a3.5 3.5 0 0 1-.31-.77l-.77.82a10.2 10.2 0 0 1-3.18-6.51 145 145 0 0 1 .64-40.3A153 153 0 0 1 423 13.89 160 160 0 0 0 412.11 33c-9.28 19.79-15.38 32.19-17.94 37.32Zm-21.07-4.15a46.6 46.6 0 0 1 4.67 7.64l12.61 24.14a66.4 66.4 0 0 1 14 21.17 126.4 126.4 0 0 1 8.92 24.81l.31 1.39q9.44-14.25 14.56-21c-2.41-2.87-6.51-8.1-12.25-15.74A101.7 101.7 0 0 0 399.6 93a269 269 0 0 1-21-19.64Zm7.64 34.5q12 32 13.43 38.14.4 1.68 1.08 10.25a49.6 49.6 0 0 1 6.81 13.79c3.13-5.13 6.05-9.38 8.72-13.43-.36-1.08-.67-2.36-1-3.85a130.4 130.4 0 0 0-23.47-46.49 262 262 0 0 1-15.38-23.94c2.77 6.82 6.1 15.38 10.05 25.53Zm19.07-16.92q26.19 25.23 30.35 37.68c2.35-3.23 4.76-6.36 7.22-9.28h-.77q-5.58-15.37-28-29.42-14.29-7.69-25.11-14a212 212 0 0 1 16.55 15Zm25 4.72a3.8 3.8 0 0 1 0 1.84v.82a67 67 0 0 1 14.05 15 29 29 0 0 1 .92-6.2c1-5.13 1.54-7.74 1.64-8.41a30.5 30.5 0 0 0-.72-7.38c-.61-3.74-1-6.25-1-7.48l-9.59-43.78a62 62 0 0 1-2.46-16.3 13.3 13.3 0 0 1 0-2.36c-1.07 5.13-2.15 10.61-3.18 16.3a193.4 193.4 0 0 0-3.53 51.26 17 17 0 0 1 1.33 1.8 17.4 17.4 0 0 1 2.58 4.87Zm9.49-55.72 9.68 43.83a182 182 0 0 1-1.07 27.93c.87-1.23 1.74-2.36 2.56-3.38-.41 1-.87 2.15-1.33 3.43q6.42-7.66 13.22-14.43a42 42 0 0 0 2-13.94 322 322 0 0 0-14-40.65q-8.76-22-13.38-31.53a105 105 0 0 1 .72 12.76 71 71 0 0 0 1.48 16Zm29 42.85a25.6 25.6 0 0 1 .56 8.41c3.75-3.59 7.54-6.87 11.33-9.9q-9.23-19.83-18.86-37.26a201 201 0 0 0-19.03-30.74 101.7 101.7 0 0 1 12.56 25.63 320 320 0 0 1 13.33 43.88Zm34.4-13.07q-.47 16.31-2 28.76a213 213 0 0 0-1.23 28.6v27.48q-1 16.91-6.36 57.72a560 560 0 0 0-5.24 56.36q-.76 42-9.38 113.85-11 88-12.76 114.21h.92c3.8 0 8.36-.41 13.59-.51v-.46a2.75 2.75 0 0 1-.57-1.13 63.7 63.7 0 0 1 2.57-18.35 109 109 0 0 1 4-15.43 19 19 0 0 1 .31-2.26q8.93-47.41 12.46-78.48a1072 1072 0 0 0 8.46-116q0-10.81-.52-57.31c-.36-23.89 0-43.06.67-57.62q.54-10.38.56-28.14c0-15 .31-24.65.36-29.06 0-6.46.46-11.33.57-14.61a116 116 0 0 0-.47-14.2 84 84 0 0 1 0-11.64c-.3.82-.71 1.69-1.12 2.62a60.1 60.1 0 0 0-4.93 15.62Zm17-9.89a17.8 17.8 0 0 0 .82 3.59q1.44 6.6 5.13 85 3.59 81.35 3.49 117.28c0 27.89-.47 44.9-.52 51.26q-.72 29.07-2.87 51.26c-.46 5.13-1.23 14-2.25 26q-1.47 16.23-3.39 26.09a159.3 159.3 0 0 0-1.74 25.63 51.6 51.6 0 0 1-6 20q7.44-9.07 18.25-20.5 12-26.14 15.38-139.74 3.48-112.26-2.72-140.3c0-1-1.23-10.25-3-27.68a394 394 0 0 0-6-41 154.5 154.5 0 0 0-13.27-33.93 30 30 0 0 1-1.41-2.94Zm-6.3-6.62a1.8 1.8 0 0 1 0-.46q.62 22.67 0 85.76-.57 87.66-2.41 129.74-3 73.71-7.43 114.83a724 724 0 0 1-16.77 94.83c-1.23 8.25-2.25 14.4-3.17 18.5H491a1.4 1.4 0 0 0 0-.41l-.77-1.23c-.72-3.43 3.48-10.92 12.71-22.45a328.4 328.4 0 0 0 8.71-52.49q2.88-34.75 4.57-52 2.4-21.63 2.82-50.85 0-7.78.35-51.26.31-36.35-2.76-117.59-2.97-77.49-4.26-83.41a89 89 0 0 0-3.43-11.49Zm73 25.63a53 53 0 0 1 2 6.16c.41 1.48 1.28 5.12 2.51 10.76a420.7 420.7 0 0 1 9.95 133 4.6 4.6 0 0 1 .46 1.33 138.4 138.4 0 0 1-1.74 21.33c-1.85 14-2.77 22.76-2.77 26.09l-.51.46c.51 1.74.92 3.44 1.28 5.13a469 469 0 0 1 7.27 53.54c.21 2.46.41 4.82.62 7.08.46-6.51 1-14.1 1.69-22.87a665 665 0 0 0 2.71-73.5q-1.53-39.78-2.87-60.13a409 409 0 0 0-7.69-60l-7.68-34.85-.36-2.26a42.7 42.7 0 0 0-3.39-8.87c-.56-1.33-1.18-2.51-1.69-3.59a3.6 3.6 0 0 0 .1 1.21Zm10 12.92 1 4.62q3.39 9.52 8 23.42 12.76 38.59 16.45 55.41t6.72 97.4q0 13.85-2.67 50.64a304 304 0 0 1-5.12 41c2.51-1.64 5.79-3.64 9.84-6.15.31-3 .87-7.89 1.79-14.71q2.77-21.69 3.44-28.6c.61-5.8 1-13.18 1.13-22.15v-22.32q0-14.44-2.52-41.31a401 401 0 0 0-6.25-45q-7-27.89-15.68-54.8-11.24-34.19-19.28-45.82c.63 2.39 1.86 5.25 2.99 8.39ZM576 74.28a40.94 40.94 0 0 0-19.58 18.3l-5.69 12.76A370 370 0 0 1 561.89 148v-.51c1.23-12.66 2.26-21.89 3.18-27.79.31-11 .82-19.27 1.43-24.86a32 32 0 0 1 9.5-20.41Zm-4.67 23.06c-.56 5.64-1.07 13.89-1.64 24.76-.56 3.69-1.33 12-2.36 24.91-.56 6.51-1.23 12.05-2 16.66l3.07 14.1 1.33 2.41 6.57 30c0-3.59.41-7.59.71-11.95 1.28-22.76 1.64-39 1.18-48.9q-2.4-42.9-2.36-43.57a147.5 147.5 0 0 1 1.64-28.86 49.2 49.2 0 0 0-6.15 20.5Zm30.76 34.81q2 9 5.13 59.87c1.89 28.25 3 47 3.28 56.39a574.7 574.7 0 0 1-8.41 116.92v4.1c2.46-1.79 5.13-3.53 7.64-5.12q2.4-15.8 5.12-34.3a374 374 0 0 0 4.82-62.94c-.31-9.18-1.33-25.63-3-50-1.8-26.56-3-41.58-3.79-45-5.8-21.53-9.95-37.57-12.51-48.24Zm-1-39.47c1.07 3 2.25 6.56 3.58 10.71s6.41 17.33 13 38.34q9.22 29.79 10.77 36.55a451.7 451.7 0 0 1 8.66 91.55 344.5 344.5 0 0 1-7.07 81.41l25.12-15.95c1.94-1.18 4-2.51 6.35-4.05a233 233 0 0 1 .41-29.52A198.4 198.4 0 0 0 657.7 251a62 62 0 0 0-3.18-10.76l-7.69-35a670 670 0 0 1-21-71A81 81 0 0 0 608 100.42c-2.46-2.56-4.76-5.13-7-7.59Zm-18.82-9.59q3.86 102.53-2.46 142.4l7.13 32.3.87 2.46a60 60 0 0 1 1.84-11.59c.62-2 1.18-3.94 1.7-5.74A541 541 0 0 0 592 168a771 771 0 0 0-9.84-84.78Zm-48 7.79a514.4 514.4 0 0 1 12 80.48l2 92.73a535 535 0 0 1-4.15 89.61 424 424 0 0 0-2.61 44.64 85.8 85.8 0 0 1-13.12 39.73l4.1-4.41q21.06-22.25 33.73-34.8a2.06 2.06 0 0 1-.41-1s.82-8.82 2.4-26.19q2.63-28.92 2.41-45.68-.4-20-4.46-69.4-1.38-12.62-11.53-70.33-9.59-53.46-12.2-65.31A309 309 0 0 0 531.08 79c1.08 3.74 2 7.74 3.08 12.05Zm6.26-1.53c-1.23-3.39-2.57-6.77-3.9-10.26 2.67 8.87 6 22.35 10.25 40.6q2.82 12.92 12.46 65.1 10.6 58.22 12.1 72.74 5.12 113.34.35 135.89c3.13-3 5.75-5.12 7.9-7.07a3.35 3.35 0 0 1-.67-1.44c-.56-2.51-.51-17.94 0-46.13q.76-45.67 0-57.87-3.69-33.84-5.12-50.85c0-3.39-3.59-19.79-10.26-49.11a11.7 11.7 0 0 0 0-2l-1.79-8.25a3.5 3.5 0 0 1-.87-1.85 12 12 0 0 1 0-2.67l-4.2-17.48Q550.05 123 546 108.36a2.6 2.6 0 0 1-.26-.56 3.2 3.2 0 0 1 0-1c-2.35-8.82-4.3-14.56-5.33-17.33Zm-73.26 3.23c-2.71 2.46-5.12 5.12-7.94 7.58a216.1 216.1 0 0 0-21 51.26q-5.69 20.51-15.73 62.8a364 364 0 0 0-12.87 61.1 164.7 164.7 0 0 0 1.95 52.28c1.48 2.11 3 4.26 4.41 6.46 2.82 4.26 5.48 8.77 8 13.49a519 519 0 0 1 6.91-65.11q10.51-62 10.87-65.76a810 810 0 0 1 14.35-87.56 173.4 173.4 0 0 1 13.38-38.54 23 23 0 0 1-2.46 2.15Zm6.56 58.42q-3.54 17.43-6.46 47.06-3.5 37.32-5.13 47.67-7.85 56.38-11.53 94.78c-1.13 11.69-1.8 27.27-2.16 46.75 0 12.25-.46 22.4-.66 30.76 1.18 5.12 2.46 11.07 3.79 17.22 3.59 16.15 5.9 27.58 7 34.4.82-8.05 2.16-18.35 3.9-30.76q8-57.21 8.51-62.79 6.76-66.65 8.1-114.21A558 558 0 0 1 485.1 205q5.13-39.21 6-57.82.31-42 1.54-62.85a221 221 0 0 1 2.61-24 232.3 232.3 0 0 0-12.92 42.86q-3.22 15.74-8.61 47.93Zm3.58-53.05a106.4 106.4 0 0 1 5.13-20.1q-18.3 26.25-28.55 74.64a399.6 399.6 0 0 0-8.87 69.51 693 693 0 0 1-10.25 73.56 326.4 326.4 0 0 0-5.87 62.03 227 227 0 0 1 9.9 25.63c1.38 4.31 2.92 9.64 4.66 16A514 514 0 0 1 447 335.6q8.87-63.62 11.89-94.68c2.51-25.32 4.1-41 4.77-46.85q3.22-27.48 7.43-47.77 3.43-32 6.2-48.24ZM581.58 256.3q1.78 17.22 1.58 66.38-.3 48.09-1.33 61.88c4.72-3.9 9.89-7.8 15.38-11.79 0-2.57-.72-9-1.28-19.38A217 217 0 0 0 593 326c0-4-.93-12.51-2.26-25.33s-2.25-19.58-2.72-21.58a164 164 0 0 0-5.69-18.76ZM657 341.5a573.7 573.7 0 0 0-85 75.76 525 525 0 0 0-57.62 74.22h10.87a2 2 0 0 0 0-.35 4 4 0 0 1 0 .46 17.5 17.5 0 0 1 2.51 0 3.2 3.2 0 0 1 1.85.56q4.46-14.82 42-55.72A640 640 0 0 1 626 382.3q20.19-16.31 69.25-60.13a406 406 0 0 1 45.75-34.5l-14.26 3.13q-52.12 39.06-71 51.26a4.7 4.7 0 0 1 1.33-.61Zm74.58-27.27q-22.44 19.47-24.09 20.5-7.78 6.76-35.88 29.22-24.81 19.57-33.27 27.78-62.79 60.75-95 109.8a67 67 0 0 1-4.57 7.79c.41 1.49.93 3.39 1.39 5.69a935.3 935.3 0 0 0 121.13-118.87q17.33-20 49.72-58.54c7.12-8.41 14-16.2 20.6-23.43ZM400.11 169.16a94.4 94.4 0 0 1-7.22-11.33A66.7 66.7 0 0 0 381.45 141a105.4 105.4 0 0 1-15.07-13.49c-2.35-2.61-4.51-5.12-6.4-6.92 2.1 2.87 4.2 6 6.3 9.28a190.9 190.9 0 0 1 25.63 52 29 29 0 0 1 1.69-2.92c2.4-3.43 4.46-6.66 6.51-9.79m14.2-12.1a4 4 0 0 0-.61.77c-1.69 2.67-3.44 5.13-5.13 7.89a346.3 346.3 0 0 0-43.83 117.49q8.385 5.85 15.84 12v-.62Q375.47 270.86 405.5 192q12-33.12 21.73-54.13c-3.64 5.13-7.59 10.51-11.74 16.76l.31 1.33v.52Zm-35.88-46.13c-5.59-13.89-9.84-25.63-12.76-35q1 13.22 2.61 45.41l7.48 6.82A171 171 0 0 1 392 145.84q-.45-2.31-13.53-35.12Zm2.92 100.57c-1.33 2.36-2.61 4.77-3.74 7.13a312.3 312.3 0 0 0-23.27 58c2.41 1.54 4.87 3.13 7.33 4.82a411.7 411.7 0 0 1 18.55-67.2 29 29 0 0 1 1.13-3Zm47.32-35.88c3.58-15.69 5.89-25.63 7-29.58a149.4 149.4 0 0 1 16.09-37.73 214 214 0 0 0-14.09 16l-33.53 80.32q-20.91 57.36-18.25 95a205 205 0 0 1 19.53 20.25v-1.34c-3-13.53-2.46-32.8 1.54-58a323.4 323.4 0 0 1 13.4-55.54 296 296 0 0 0 8.31-29.83Zm-225-23.33q-13.94-39.51-20-58.48a603 603 0 0 0 6.1 65.56c1.49 8.71 4.2 21.83 8.05 39.31a214 214 0 0 1 3.74 32 6.9 6.9 0 0 1 1.13-1.33c1.07-1.44 2.2-2.87 3.43-4.41a22 22 0 0 1 17.69-9.07 43.6 43.6 0 0 0 5.94 5.58q-5.13-12.09-12.71-33.52c-6-16.76-10.36-29-13.33-36Zm68.08 93a.34.34 0 0 0 0 .31 120.1 120.1 0 0 1 38.44 46.65 500.5 500.5 0 0 1 24 64.74q2.31 7 21.58 59.31t22.66 69.91q.61 3 2.61 10.62a20.5 20.5 0 0 1 0 5.53l13.33-2.92a129 129 0 0 0-.77-14.3q-3-13.53-20.19-69.2-15.95-52-17.48-55.16a503 503 0 0 0-26.15-60.69 151.8 151.8 0 0 0-45.46-51.26c-5.13-1.39-9.33-2.67-12.92-3.74Zm-19.07-5.74a144 144 0 0 1 34.44 48.24 665 665 0 0 1 25 66.63q5.79 18.1 26.86 76.18 19.63 53.87 20.5 56.74a120.6 120.6 0 0 1 3 18.1 26 26 0 0 1 0 3.94 63 63 0 0 1 5.74-4.1l9.74-2.15a34 34 0 0 1-1.75-5.13c-.87-4.3-1.48-7.43-1.89-9.32a171 171 0 0 0-5.18-17.38c-5.13-15.38-9-26.66-11.89-33.89s-6.92-18.86-12-33.72q-7.84-23.58-11.94-34.2a649 649 0 0 0-24.5-67.61 165.06 165.06 0 0 0-43.32-58.64Zm-24-11.23.56 1.13c2 3.74 4.56 9.38 7.79 16.87 1.59 3.84 4 9.43 7 16.71s4.82 12.25 6.36 16.86q4.66 13.28 10.87 34.29c5.58 18.61 9 30 10.25 34.25l12.1 55.05a458.8 458.8 0 0 0 28.86 88 369.5 369.5 0 0 0 34.39 59.62 44 44 0 0 1-2.56-7.95 21.7 21.7 0 0 1 0-9.07l-1.38-4.77c-.36-6.51-.72-10.25-1-11.74a393 393 0 0 0-23.07-70q-24.6-57.56-31.32-75.76a293 293 0 0 1-9.63-37.22 321 321 0 0 0-9.64-37.21 290 290 0 0 0-21.12-41l-13.84-24.19c-1.49-1-3.13-2.31-4.92-3.8Zm-12.46 3.54a218.7 218.7 0 0 0 1.33 41c1.28 11.63 3.39 29.22 6.26 52.59l6.56 29.89a68.4 68.4 0 0 0 1.89 12.81q4.47 20.21 35.89 109.75a334 334 0 0 0 28.7 52.49 148 148 0 0 0 36.91 34.7c-1.64-1.74-3.33-3.69-5.13-5.79-3.17-3.84-8.86-11.79-17.12-23.94a148.6 148.6 0 0 1-11.94-22.24q-6.51-15.39-9.95-23-8.43-18.62-18.32-46.12-11.08-31.68-16.46-46.75l-7-31.84a5.1 5.1 0 0 1-1.39-2.82l-22.6-101.13a86.7 86.7 0 0 1-4.56-15.69c-1.08-3.54-2.05-7.28-2.93-11.17-.2-1-.35-1.9-.46-2.72Zm2.31-8.1a138 138 0 0 1 4.15 14.51c2.51 10.81 4.3 17.79 5.38 20.86l22.3 101c.31.46.87 1.38 1.69 2.81l6.77 31.73q5.79 15.39 18.09 51.27c7.79 21.68 14.92 39.52 21.22 53.56q24.76 55.11 52.6 70.74c2.73.31 5.4.72 8 1.23a5.3 5.3 0 0 1 1.13 0 249.9 249.9 0 0 1-52.18-78.27 748 748 0 0 1-28.25-87.61l-11.94-55.1q-20-76.89-47.77-128.15Zm34.14 31.37q6.15 11.28 17.73 33.89 14.76 54.44 18.51 70.94 5.12 21.63 25.93 68.28a405.6 405.6 0 0 1 25.63 69.41c1.85 8.4 3 14.5 3.54 18.24.31 2.46.77 6.77 1.28 13a42.35 42.35 0 0 1 12.51-16 75 75 0 0 0 .46-10.25q-3.48-16.56-25-77.15-18.95-53.29-22.75-61.49-5.13-11.68-12.15-34.35c-5.12-15.84-9-27.42-11.89-34.65a155.2 155.2 0 0 0-37.73-56.38c-3.38-1-6.25-2-8.66-2.82a142 142 0 0 1 12.25 19.37Zm41-3.79q21.9 12.91 40.19 46.7a455 455 0 0 1 25.63 58.69c.46 1.49 6.31 20.5 17.69 56.39q17.47 56.38 20.5 70.43c3 14 .46 2.92 1.33 8.2a34.8 34.8 0 0 1 0 7.07c6-.92 11.74-1.64 17.18-2.2q-1.8-14.36-2.62-18.3c-5.12-21.73-9.12-38.09-11.48-49.11l-9-41q-19.49-57.62-26.61-71.25a162.3 162.3 0 0 0-41.87-52.33l-4.36-2.52a125.4 125.4 0 0 0-26.81-10.91Zm67.1 35.73h-.36c-5.12-3.33-11.48-7.28-19.32-11.95a172.6 172.6 0 0 1 29.78 41.42 265 265 0 0 1 25.63 70l16.2 68.39c0 1.33 1.85 8.3 4.61 21a99 99 0 0 1 2.21 20.51l19.84-2.16q-1-6.26-6.1-39.26a687 687 0 0 0-25.63-91.6 262.9 262.9 0 0 0-37.07-69.56c-2.61-1.95-5.12-3.95-8.2-5.9h-1.69a4.7 4.7 0 0 1 .02-.9Zm22.71 17.22A218.7 218.7 0 0 1 409 353a598 598 0 0 1 26.15 90.42L440.3 467a118.6 118.6 0 0 1 2.7 26.74l9.58-.82v-8.66a135.5 135.5 0 0 0-.87-17.79c-1.69-11.89-3.43-21.89-5.12-29.89a413 413 0 0 0-17.48-61.51 249.3 249.3 0 0 0-36.3-61.1 89.5 89.5 0 0 0-9.41-9.97Zm32.66 201-14.26 1.13q-35.26 7.8-40.39 25.27a23.9 23.9 0 0 0 0 12.72 70 70 0 0 0 2.51 8.61 34.33 34.33 0 0 0 8.84 15.98 70 70 0 0 1 5.74 6.87l.57.36c-.46-.72-.93-1.44-1.28-2.1a52.5 52.5 0 0 1-4.46-13.13 31.6 31.6 0 0 1 .56-15.37 23.8 23.8 0 0 1 10.25-14.36 64.5 64.5 0 0 0 16.15-14.45q9.18-6.31 40.5-14.46-19.53 1.33-31.79 2.31a48 48 0 0 1 7 .41Zm94.26-13.68q-1.38-9 26.71-42.39a400 400 0 0 1 36.24-39.17 528 528 0 0 0 38-38.9c1.65-1.64 3.29-3.18 5.13-4.72l-.87.51a240 240 0 0 0-32.14 23.28 732 732 0 0 0-54 53.61 267.7 267.7 0 0 0-35.57 47.83c5-.31 10.51-.36 16.5-.31Zm-47.62 9.74Q405.8 513.89 386.79 536a31.61 31.61 0 0 0-8 28.81 38 38 0 0 0 3.74 9.74 17.23 17.23 0 0 0 7.07 7.84l1.85 1.18 4 2.41a17.3 17.3 0 0 1-1.13-3.64q-2.86-12.84 19.68-38.16c16.25-18.5 33.84-30.09 52.6-34.75l19.4-4.62c2.92-1 8.76-3.43 17.63-7.17-10.25.82-23 1.79-37.83 2.82Zm4.22 12.89q-26 7-49.62 33.32Q395.29 571.82 398 584a10.2 10.2 0 0 0 1.9 2.87 11.5 11.5 0 0 1 1.84 3.38 21 21 0 0 0 5.13 2.67 4 4 0 0 1 .87-1v-.51q9.29-11.11 25.37-27.63a696 696 0 0 1 65.1-58.18L487 509.48Zm54.38 8.21a116 116 0 0 1-7.74 25.63 64 64 0 0 1-4.15 7.53 104.7 104.7 0 0 1-11.94 15.84 97.4 97.4 0 0 1-52.19 30.4 61 61 0 0 1-8.81 1.28l6.15 2.31a98 98 0 0 0 22.66 4.25h.61q22.67-5.13 39.42-31.83A173 173 0 0 0 515 559q4.2-9.37 4.77-10.25a38.87 38.87 0 0 0 9.53-28.7 107 107 0 0 1-2.41-20.51 33.2 33.2 0 0 1-3.48 12.25c-.57 2.87-1.23 6.31-2.11 10.41Zm-6.81 3.23a213.2 213.2 0 0 1-33.84 31.52 421 421 0 0 1-52.64 35.52c-6.41 1.44-11.17 2.31-14.35 2.72 2.71.77 5.74 1.69 9.12 2.87a3.2 3.2 0 0 1 1.59-.82h1.49l.41.41a16.6 16.6 0 0 1 3.94.87 35.8 35.8 0 0 0 14.41-1.13 95.5 95.5 0 0 0 41.93-22.5 79.9 79.9 0 0 0 24.35-31.78 120.5 120.5 0 0 0 3.59-17.94Zm4.15-18.25c1.49-4.21 2.92-7.8 4.25-10.67a336.3 336.3 0 0 0-62.59 46.14 368 368 0 0 0-45.11 47.21l10.26-1.79q12.76-2.77 42.7-26.86 15.06-12.32 29.88-25.64a76.7 76.7 0 0 0 19.29-25.22l.61-1.38a7 7 0 0 1 .46-1.54Zm-215.6 65.66a143 143 0 0 0 14.66-1.33l4.05-.72H311a14.7 14.7 0 0 1-3.69 1.28c-1.41.31-2.85.57-4.23.77Zm-7.33-13.17q-24.4-19.17-49.71-72.92a585.4 585.4 0 0 1-42-122.2 426.7 426.7 0 0 1-10.81-72.59 137.4 137.4 0 0 1 6.2-51.26l-4.05 3.75a89.9 89.9 0 0 0-8.31 25.63 316 316 0 0 0-2.51 42.95 203.3 203.3 0 0 0 1.39 40 405 405 0 0 0 6.92 41.93 320.7 320.7 0 0 0 35.88 92.62q27.17 47.22 63.46 70.95Zm7.33 7.53a15.4 15.4 0 0 1-2.21-.61c-.51 0-8.4-2.72-23.58-7.9a60 60 0 0 1-19.37-11.33c-6.15-6-11-10.55-14.46-13.48-13.69-11.22-24.09-19.94-31.22-26-12.3-10.5-22.55-19.32-29.93-26.29q-27.94-26.61-86.63-60.39-60.75-35.11-76.53-31.88a34.7 34.7 0 0 0-10.26 3.74 105.8 105.8 0 0 0 26.35 22.5A128.9 128.9 0 0 0 89.83 432a59.4 59.4 0 0 1 22.2 8c5.13 2.66 12 6.92 21.22 12.66a344 344 0 0 1 35 25Q180 487.08 198 504.5q19 18.3 28.25 26c18.25 15.08 28.91 23.58 32.09 25.64a108 108 0 0 0 21.83 9.94c3.75.26 7.64.46 11.64.61Zm30.14 7h-1.9l-59 12.35q-33.67 5.13-52.44.56c2.41 2 6.92 6.36 13.43 13.07a39.5 39.5 0 0 0 6.31.82 131.9 131.9 0 0 0 37.21-4.1 175.7 175.7 0 0 0 43.73-14.5 101 101 0 0 0 12.62-8.17Zm-4.71-5.45h1.8q-31.12-17.07-61-80.38a562.8 562.8 0 0 1-41.22-119.54q-10.24-47.46-15-83.76-5.13-37.92-1.9-55.1l-3.23 3.07c-1.39 3.74-3.08 8.61-5.13 14.66a125.3 125.3 0 0 0-5.12 48.8q2.61 21.31 4.56 37.88 1.33 8.65 5.84 29.42a533 533 0 0 0 16.25 55.77q9.75 28.35 19.79 51.83a361 361 0 0 0 25.63 52.08 137.14 137.14 0 0 0 46.13 42.39c4.2 1.02 8.35 1.88 12.6 2.88m47.21-59-6 1.33q-6.32 5.45-10.62 9.69l-2.3 4.46h-.67a16 16 0 0 1 .41-1.79 47 47 0 0 0-4.36 5.12 16.62 16.62 0 0 0-2.3 13.28 45 45 0 0 0 6.41 14.61 41.25 41.25 0 0 0 12.81 13 58.4 58.4 0 0 1-6.05-10.25 133.4 133.4 0 0 1-6.96-23.45q-2.31-10.56 12.61-21.53a52 52 0 0 1 7.02-4.47m-25.32 65.2a371 371 0 0 0-38.39 14.25 207 207 0 0 1-34.5 11.85 111.6 111.6 0 0 1-26.35 3.53 57.1 57.1 0 0 1-16.15-2.56l3 3.13a113 113 0 0 0 10.66 9.74 8.1 8.1 0 0 1 4.1.66c2.67 1.23 4.46 1.95 5.13 2.31 6.66 1.74 17.48 1 32.39-2.26s31.38-11.94 50-26.14a98.3 98.3 0 0 1 16.46-11 20 20 0 0 1 4.25-1.38 42 42 0 0 0-4.66-1.23Zm26.4 9.13c-2.1-1.13-4.36-2.26-6.71-3.44a34 34 0 0 1-8.87 18.36L359 602c.82-.56 1.69-1.13 2.62-1.64 2.51-1.54 9-6.46 19.42-14.87L378 583.8a1.49 1.49 0 0 1-1.16.57Zm-11.58-5.13c-1 .67-10.26 6.67-27.17 18.1a146.2 146.2 0 0 1-46.6 22.24 90.5 90.5 0 0 1-31.49 2.61 64.4 64.4 0 0 0 11.63 4.35 165 165 0 0 0 25.63.47l21-4.67c4.2-1.84 8.25-3.69 12.15-5.48a107 107 0 0 1 10.25-7.33 90.5 90.5 0 0 0 16.61-13.28 50.4 50.4 0 0 0 6.15-12.05c.56-1.48 1.33-3.12 1.85-4.61Zm162.49 13.13a116.3 116.3 0 0 1 19.48.61 254.2 254.2 0 0 0 75-4.87c1.18-.26 5.13-1.33 11.54-3.18l5.38-1.48a11 11 0 0 1 1.85-1.54c-11.59 1.28-27.94 2.56-49.06 3.74a536 536 0 0 1-60.39 1.18c-1.33 1.95-2.71 3.84-4.1 5.64Zm-2.1-8.16h.35a78.8 78.8 0 0 0 7.33-15.37 84 84 0 0 0 5.94-28.71 2.9 2.9 0 0 1-.41-1.18 1.1 1.1 0 0 1 .31-.72 46 46 0 0 0-1-8.1 131 131 0 0 0-5.13-16.4q2.1 27.07-22.3 60.95A154.7 154.7 0 0 1 487 601.39a96 96 0 0 1-10.25 7.94h2.15l23-5.12a46.15 46.15 0 0 0 24.1-19.28ZM503 609.84l79.15-8.91 18.86-3.7h1.75l30.45-6.76a250 250 0 0 0 25.32-8.05l-2.26.46c-6.56 1.33-11.43 2.36-14.76 3.13a300 300 0 0 1-39.27 10.25 238.7 238.7 0 0 1-44.13 2.51q-25.89-.3-36.45 0A54.4 54.4 0 0 1 503 610Zm30.25-25.63q17.12-.76 48-2.71 43.41-2.78 71.76-5.74a112 112 0 0 1-17.43-1.64l-19.32-4.26c-6.51-.56-19.22-.61-38.14 0s-31.83 1-39.06 2a95 95 0 0 1-6 12.51Zm186.42-180.69a547 547 0 0 0 27.22-68.64.86.86 0 0 1 .31-.82Q695.17 446.85 545 538.7v4.4a131.6 131.6 0 0 1 17.63-7.84c12.25-4.82 18.55-7.33 18.91-7.64 2.26-1.64 6.21-5.12 11.9-9.69s10.25-8.61 12-10.25q6.62-5.12 23-16.4 13.07-9.07 22-16.66 19.93-16.81 39.73-36.81 5.29-5.37 25.63-27.06ZM655 476.36q-20.51 14.76-39.21 29.89-16.92 14.14-23.07 18.91c-.92.72-1.8 1.44-2.72 2.05 11.43-4.87 23-9.69 34.71-14.61a161.3 161.3 0 0 0 47.46-36.75A253.2 253.2 0 0 0 704 432.48c-2.62 3-5.49 6.15-8.67 9.49A305.3 305.3 0 0 1 655 476.36m70.74-136c1.59-2 5.13-7.23 10.25-15.38a153 153 0 0 1 10.25-14.66 28.87 28.87 0 0 0 7.33-15.07 13 13 0 0 0 .41-1.85q-67.2 78.58-93.8 108.06-28.75 32.15-64.64 68.07-43.47 43.42-54.29 47.88c.67 3 1.39 6.46 2.26 10.25q13.3-12.74 65.49-59.96 47.78-43.32 67.61-65.46a737 737 0 0 0 49.11-61.92ZM681.07 404q-14.61 17.54-71.76 70.44t-65.41 55.69c.31 1.39.56 2.82.77 4.21 1.18-.87 2.56-1.8 4.25-2.82 12.77-8.25 22.4-14.66 29-19.12a703 703 0 0 0 99.91-84.68A307.3 307.3 0 0 0 720.18 373q21.38-34.61 28.91-46.13c.67-2.67 1.44-5.69 2.26-9.13 1.28-5.94 2.41-10.61 3.33-14a230 230 0 0 1-25.06 40.49Q721 355.9 681.07 404m-134.92 87.18q23.54-40.46 91.45-102.52 9.95-9.14 67.31-59.57 32.13-28.35 49.46-45.52l-5.48 1.64q-20.5 14.31-52 40.29-37.56 31.17-65.89 57.82-50.34 48.19-62 61.16-28.44 30.75-35.2 51.52a52 52 0 0 1 4.05 9.17 36 36 0 0 1 2.26-3.95c1.64-2.56 3-4.66 4.15-6.25a22 22 0 0 0 1.89-3.59c-.15-.1-.1-.15 0-.15ZM663 561.56a227 227 0 0 0-21.53-12.1 173.3 173.3 0 0 0-48.39-8.2 158.3 158.3 0 0 0-46.7 8.87 2.8 2.8 0 0 0-.92 0 3.9 3.9 0 0 0-1.18.41c0 1.07-.36 2.25-.46 3.58 2.41-.87 7.43-2.46 15-4.76q28-7.23 70.07 2.36A256 256 0 0 1 663.75 562Zm-31.78-5.13a139.4 139.4 0 0 0-29.81-5.43 250.6 250.6 0 0 0-58 6.35c-.82 3.54-1.8 7.18-3 10.87a225 225 0 0 1 31.12-2.41 412 412 0 0 1 41.88 0 129.7 129.7 0 0 1 24.3 4.56 136.5 136.5 0 0 0 36.49-1.58 88.4 88.4 0 0 0-15.38-5.13c-13.37-3.28-22.5-5.59-27.57-7Zm-85.86-11.79a.64.64 0 0 1-.47 0 10 10 0 0 0 0 1.74 9.6 9.6 0 0 1 3.23-1.79ZM118.59 155.06q-5.13 19.06-8.2 34.09a426.5 426.5 0 0 0 .61 69.3q2.11 25.95 7.28 75.2a116.5 116.5 0 0 1 7.54-21c-1-3.33-2.1-7.38-3.18-12.2q-8.61-39.27-5.13-108.16a510 510 0 0 1 5.13-52.29c-1 4.36-2.46 9.59-4 15.38Zm51.26-50.13q-.915 3-6 27c-1.64 7.18-3.18 13.79-4.61 19.74v1.13a.49.49 0 0 0-.26.35l-2.87 11.95c0 .31.36.66.57 1.13s-.41 7.84-1.75 20.5c-1.59 15.69-2.61 27.73-3 36.24q-1.23 25.13-1.69 51.67a101 101 0 0 1 13.89-12.3 23 23 0 0 1-2-5.38 197.6 197.6 0 0 1-3.13-43.83c0-10.71.87-25 2.26-42.65a443 443 0 0 1 7.12-51.26q2.92-15.37 5.8-25.07a69.5 69.5 0 0 0-4.36 11.13Zm-13.12-1.69a44.5 44.5 0 0 0-11.28-9 7.3 7.3 0 0 0 0 1.48 34.8 34.8 0 0 0 .72 8.15 425 425 0 0 0 10.25 38.35q4.41-21.64 5.69-27.07a53 53 0 0 1 1.49-5.38c-2.46-2.1-4.67-4.1-7-6.2Zm-16.25-5.69v-.31s-.1.51-.1.62Zm-1.69 2.25q-2.21 9.14-8 30.76a355 355 0 0 0-10.25 76.28 574 574 0 0 0 7 102.52 156 156 0 0 1 8.66-15 19 19 0 0 1-1.64-4.05c-.25-.67-.87-3.13-1.84-7.43a318.6 318.6 0 0 1-5.75-49q-1.68-31.26 1.24-42.44a278.7 278.7 0 0 0 5.17-47.42 232 232 0 0 1 5.9-44.9 2.9 2.9 0 0 0-.52.92Zm6.05 18.82q.3 13 .41 32.65 0 23.52-.67 40.44a73 73 0 0 1 2-9.27 301 301 0 0 0 8.05-32 200 200 0 0 1-10-31.53Zm-7.08 23.58c-3.79 32.34-5.94 51.51-6.51 57.66a295.4 295.4 0 0 0 6.87 91.3l.72-1.08a10 10 0 0 1-.82-2.15q-2.93-13.38 1.64-56.9a55 55 0 0 1 .72-6.77h-.31q.62-12.76.87-33.26v-32.91c-.26-6-.41-16.82-.56-32.66V120c-.82 6.1-1.64 13.63-2.72 22.55Zm35 23.78c-.72-15.38-1.13-27.42-1.28-36.55-4.15 22-6.71 37-7.59 44.8a299 299 0 0 0-.51 44.81q.76 14.15 2.41 41.67l4.61-3.38c3.64-2.57 6.82-4.82 9.54-6.67a138.4 138.4 0 0 1-1.8-22.45c-.3-13.33-.51-20.14-.51-20.5a129.6 129.6 0 0 0-2.41-20.87 156 156 0 0 1-2.56-20.55Zm9.07 44.19c.93 13.22 1.39 20.5 1.39 21.27q.44 8.76 0 17.53c5.12-3.64 8.1-5.79 8.71-6.3l.87-.88c1.13-1.28 3.08-3.63 6-7.12a230.6 230.6 0 0 1-5.64-36.4l-7.53-36.9a353 353 0 0 1-4.87-48c-.62-10-1-17.89-1-23.84a126 126 0 0 0-4.35 35.88q0 14.31 1.89 42.91a177 177 0 0 0 2.14 20.68c1.28 10.2 2.15 17.17 2.35 21.17Zm-34.95 69a2.7 2.7 0 0 1-.41-1 701 701 0 0 1 3.43-88.48 262.4 262.4 0 0 0-6.76 50.31c-.35 10.56-.66 25.63-.82 45.52a43.4 43.4 0 0 1 4.52-6.36Zm-14.46 33a123.1 123.1 0 0 0-10.25 40.35 126.6 126.6 0 0 0 2.25 38.19 76.9 76.9 0 0 0 13.54 27.73q2.21 3.12 4.15 6.15a187 187 0 0 1-5.9-21.17 176.3 176.3 0 0 1-2.25-68.64 117.33 117.33 0 0 1 31.16-63.36 41 41 0 0 1 2.62-3.23 92.9 92.9 0 0 0-23.53 22.45 126.4 126.4 0 0 0-11.83 21.48Zm49.31-42.54a63 63 0 0 1 4.77-16.92c-1.08.87-2 1.69-2.87 2.51q-9.37 16.05-12.82 50.55a209.7 209.7 0 0 0 1.29 63.76l5.12 41a269.7 269.7 0 0 0 19.74 56q16.14 34.08 32.44 48.75v.31c0 .25 0 .41-.51.61l-1.74-1.38c7.43 6.87 13 11.94 16.92 15.37a185.2 185.2 0 0 0 35.88 23.28q-29-20.31-53.57-62.69A326.1 326.1 0 0 1 188.82 396q-4.51-20.51-7.18-42.5a181 181 0 0 1-1.64-41 152 152 0 0 0 .72-21.12 147.4 147.4 0 0 1 .97-21.8Zm-12.51 6.1a50.2 50.2 0 0 0-11.32 18.55c-.36 1.75-1.9 8-4.62 19a74.8 74.8 0 0 0-3.12 18c0 15.38 0 27.89 1 36.6a242 242 0 0 0 5.13 32.91 185 185 0 0 0 16.66 47.62A440 440 0 0 0 201.63 491c3.8 3.39 7.85 7.13 12.25 11.28l3.59 3.48a169.2 169.2 0 0 1-25-37.93A240 240 0 0 1 172 411.42a365 365 0 0 1-7.28-88.12 187.7 187.7 0 0 1 6.92-50.6ZM105 228.57q-1.49 15.74-2.62 34.7-2.65 46.14 0 59.52a284 284 0 0 0 8.77 29.68c2 5.74 3.69 10.86 5.12 15.37a108.5 108.5 0 0 1 .36-25q-8.1-54.9-10.56-83.45a292 292 0 0 1-1.07-30.82M5.41 396.14l-.26.72a9.55 9.55 0 0 0 0 5.84Q7 410.91 29.3 445.81c7.43 11.84 14.91 23.27 22.5 34.4a183.8 183.8 0 0 0 33.93 35.88q10.67 9 25.63 20.5a387 387 0 0 1-47.67-54.74q-18.19-24.35-34-48.7A150 150 0 0 1 14.28 406a58.7 58.7 0 0 1-8.87-9.86m57.61 52q6.57 8.29 25.33 35.06 9.08 11.07 26 35a138.2 138.2 0 0 0 34.75 32.65c6.1.57 12.71 1.29 19.84 2.26a41.6 41.6 0 0 1-12.61-8.71 226 226 0 0 0-14.88-17.4 136.4 136.4 0 0 1-13.58-16.66c-5.38-7.74-9.54-13.53-12.46-17.43q-16.09-22.81-25.06-34.28A162.8 162.8 0 0 0 63.9 432c-2.57-.46-5.13-1-7-1.43-4.51-1-8.5-2-12-3A229 229 0 0 1 63 448.12ZM40 426a46.8 46.8 0 0 1-10.25-5.12l-5.64-5.13q16.2 23.83 41 62.59A287 287 0 0 0 136 548.49v.3a1.66 1.66 0 0 1-.77.82 20.8 20.8 0 0 1-9.43-2.82q1.85 1.4 3.84 2.62c2.87 0 5.9.31 9.13.51a73 73 0 0 1-9.74-8.41 165.5 165.5 0 0 1-16.61-19.63c-2.1-2.77-6.56-8.61-13.48-17.48q-8.1-10.25-12.61-17.22c-5.8-8.77-14.31-20.51-25.63-34.65Q47.13 435.3 40 426m44.5 10.23-16.45-3.34a99.6 99.6 0 0 1 24.65 23.33q8.88 11.79 25.22 34.65l25.63 34a146 146 0 0 0 33.22 29.21l4.36.62 4.41.61A65 65 0 0 1 165 533a193.6 193.6 0 0 0-18-34.45 203 203 0 0 0-12.71-16.25c-6.72-8.25-11.23-13.79-13.38-16.56a147 147 0 0 0-20.51-20.09l-7.94-6.72c-2.62-1-5.33-1.84-8-2.61Zm41.5 25.63a380 380 0 0 1 24.91 33.57 391 391 0 0 1 19.74 33.88 105.8 105.8 0 0 0 22.66 27.12l2.46.41a60.5 60.5 0 0 1-9.59-14.1q-11.18-26.55-13.97-31.88a206.3 206.3 0 0 0-30.45-46.13A240.6 240.6 0 0 0 109.42 446 130.4 130.4 0 0 1 126 461.8Zm26.4-60.29a245 245 0 0 1-5.12-75.35 146 146 0 0 1 6.56-33.68 160.8 160.8 0 0 0-17.64 47.78 166.7 166.7 0 0 0 4.1 62.07 167.5 167.5 0 0 0 12 35.89 99.9 99.9 0 0 0 20.14 29.42l10.56 8.05c2.25 1.59 4.66 3.48 7.22 5.64a223.5 223.5 0 0 1-20.5-30.76 192 192 0 0 1-17.38-49.11Zm11.28 79.71c-4.1-3.33-8.1-6.46-12-9.48a181 181 0 0 1 23.25 36.2 189.8 189.8 0 0 0 33.62 50.7c3 .36 5.8.77 8.26 1.18a48.5 48.5 0 0 1-11-12.1s-4.87-9.28-14.25-27.37a275 275 0 0 0-18.66-29c-1.49-2.2-2.87-4.15-4.1-5.84s-3.54-3.13-5.18-4.41Zm30.09 26.2c-4.36-4-8.46-7.74-12.25-11.28 5.38 7.89 11.38 17.63 17.89 29.07q20.51 35.88 34.39 36.18a1.43 1.43 0 0 1 .82 0 24.2 24.2 0 0 1-4.76-4A154 154 0 0 0 219 540.64a174 174 0 0 1-10.25-16.45 78 78 0 0 0-5.13-7.59c-2.62-2.3-6.09-5.48-9.88-9.12Zm5.12 54.08-.51.61-2.41-1.07q-34-4.77-57.61-9.18a370 370 0 0 0 38.6 11.48 21.76 21.76 0 0 1 11.27-1.59 89 89 0 0 0 19.74 1.64c4.71.47 10.25 1 16 1.85s11.33 1.38 17.07 1.9c3.95.3 9.43 1.07 16.46 2.35a117 117 0 0 0 16.6 1.85 52.6 52.6 0 0 1 8 .61l-5.23-1.12q-17.54-1-44-4.62l-22.2-3-7.48-1c-1.49-.16-2.82-.31-4.15-.57Zm-6.45 12.76v-.2l-1-.41a4.9 4.9 0 0 0 1.18.77Zm-20.51-3.48a169 169 0 0 1 8.51 15.07 45.33 45.33 0 0 0 33.88 25.27l5.85 1.54a54.7 54.7 0 0 1-18.3-17.84 146 146 0 0 0-11.43-15.64 46.8 46.8 0 0 0-12.2-9.58c-4.26-1.69-8.51-3.23-12.82-4.57a21.6 21.6 0 0 1 6.72 5.9Zm-13-8.1-6.56-2-9.07-2.41a52 52 0 0 1 5.12 4.35A41.7 41.7 0 0 1 160.73 582a91 91 0 0 0 8 13 43.7 43.7 0 0 0 11.79 10.25l14.92 2.56a38.26 38.26 0 0 1-16.81-14.71c-3.85-7-6.77-12.35-8.87-16a52.2 52.2 0 0 0-10.83-14.36m8 34.9c-5.38-9.32-8.61-14.66-9.64-16-5.12-5.53-9.17-10.25-12.76-13.58a88.3 88.3 0 0 0-16.35-12.92c-2.21-.36-4.26-.67-6.21-.87a24 24 0 0 1 3.85 5.94q2.56 5.89 7.07 18.61a34.94 34.94 0 0 0 14.87 16c2.87 1.89 6.82 4.2 11.89 6.87 2.87.51 5.79 1 8.87 1.48a29.5 29.5 0 0 1 3.74.62 44.3 44.3 0 0 1-5.48-6.21Zm38.8-4.61A64.6 64.6 0 0 0 220.24 608a149 149 0 0 0 14 9.33c11.44 3.69 19.28 6.1 23.64 7.23a10 10 0 0 0-2-1 65.4 65.4 0 0 1-22-15q-12-14.4-15.74-17.94a71.6 71.6 0 0 0-24.66-15.38 12.5 12.5 0 0 1 1.23 1.18c1.08 1.39 4.77 6.92 10.87 16.61Zm4.77-14.15q21.48 8.67 60.74 2.67l25.63-5.13a153 153 0 0 1-26.19-.36 252 252 0 0 1-26.3-4.25q-12.7-1-31.11-3.23-11.24-1-25.07-1.08a176 176 0 0 1 22 11.38Zm11.07-45.77c-1.53-1.33-4.2-3.74-7.89-7.23 1.54 2.56 3.74 6.41 6.77 11.38a62 62 0 0 0 31.83 26.6c3.12.36 6.41.67 9.94.93a108 108 0 0 1-11.79-7 179 179 0 0 1-19.27-15.38ZM89 564.22a109 109 0 0 0 16.15 14 61 61 0 0 1-3.74-11.95 23.8 23.8 0 0 1-1-8.09 5.7 5.7 0 0 1 1.39-3 30.8 30.8 0 0 0-10.66 4.41c-1.75 1.33-2.47 2.46-2.26 3.44a3.1 3.1 0 0 1 .1 1.33Zm16.21-1.22 2 10.25a33.5 33.5 0 0 0 8.77 12.1 140.2 140.2 0 0 0 27.63 11.84 72.7 72.7 0 0 1-11-13 299 299 0 0 0-17.78-30.75h-5.13a15.4 15.4 0 0 1-2.31 2.25 6.79 6.79 0 0 0-2.15 7.49Z"/></svg>