<svg xmlns="http://www.w3.org/2000/svg" viewBox="0 0 733.02 614.08"><path fill="currentColor" d="M483.8 417.18c-28.19-19.23-44.66-50.06-59.4-79.9-8-16.28-15.32-33.38-26.37-47.92-11.73-15.42-26.54-28.86-40.49-42.21q-24.36-23.37-50.05-45.29a1.3 1.3 0 0 0-.49-.25 70 70 0 0 0-8.69-6.85c-5-3.34-10.55-5.47-15.84-8.29-5.51-2.94-10.26-7.23-15.12-11.1L251.74 163c-1.13-.9-2.74.7-1.6 1.6l15 11.95c4.49 3.58 8.89 7.51 13.78 10.55s10.56 5 15.58 8a68.7 68.7 0 0 1 13.85 11.06 1 1 0 0 0 .94.32q21.43 18.42 42 37.86c14.52 13.78 29.72 27.62 42.39 43.15 11.89 14.59 19.49 32.07 27.74 48.84 7.36 15 14.93 29.89 24.16 43.8 10 15.11 22.07 28.8 37.1 39.06 1.18.81 2.32-1.19 1.12-2.01m.25 5.32-2.78-1.27a1.25 1.25 0 0 0-.55-.25l-2.52-1.15a1.1 1.1 0 0 0-.48-.8c-25.42-18-40.89-45.76-58.43-70.75a572 572 0 0 0-61.52-73.64q-19.18-19.38-40.16-36.87c-1.11-.93-2.72.67-1.6 1.6a573 573 0 0 1 69.8 69.24q16 18.92 30.38 39.18c8.81 12.46 16.94 25.39 26 37.68 8.28 11.27 17.39 21.92 28.2 30.77l-3.52-1.63C450 395.75 433 376.9 414.43 359.72c-17.15-15.85-36.15-29.61-52.76-46-9.3-9.2-17.67-19.27-24.14-30.68a1.13 1.13 0 0 0-1.95 1.15c11.28 19.88 28.18 35.43 45.5 50 19.18 16.14 37.95 32.29 55.27 50.46 8.61 9 17 18.29 25.3 27.58-26.39-12.38-52.4-25.76-75.78-43.25-16.15-12.08-29.63-26.43-43.14-41.3a299 299 0 0 0-41.16-37.83 287 287 0 0 0-54.15-32.09c-1.31-.59-2.47 1.36-1.14 2a285.7 285.7 0 0 1 91.41 65.74c13.55 14.6 26.48 29.35 42.22 41.7a324.5 324.5 0 0 0 46 29.65c12.93 7 26.18 13.39 39.52 19.58l1.3 1.46a1 1 0 0 0 1.4.16.9.9 0 0 0 .23-.25l5.87 2.68A325.9 325.9 0 0 1 364 391.28a324.6 324.6 0 0 1-52-30.23c-16.8-12-31.53-26.62-50.32-35.62-10.8-5.18-22.07-9.43-33.15-14l-37.31-15.26a.89.89 0 0 0-.78 0c-22.38-16.54-51.28-19.38-78.3-18.16-1.45.07-1.46 2.34 0 2.27 27-1.22 55.72 1.58 77.91 18.4a.88.88 0 0 0 1.23-.06c21.42 8.75 43.12 17 64.26 26.43a136.3 136.3 0 0 1 29 17.4c7.74 6.07 15.23 12.44 23.16 18.26a327.8 327.8 0 0 0 106.94 51.52 326.6 326.6 0 0 0 65.42 10.92l2.74 1.25c1.42.6 2.57-1.31 1.25-1.9m5.72-2.41q-3.74-13.43-7.93-26.72c-5.23-34.3-4.78-69.54-9.26-103.91a321 321 0 0 0-14.09-61.91c-6.42-18.93-14.21-37.35-21-56.13-7.91-21.76-14.46-44.14-15.7-67.38-.07-1.45-2.34-1.46-2.26 0 2.19 41.09 20.53 78.46 34.19 116.58a324 324 0 0 1 15.69 62c3.32 22.34 4.62 44.9 6.1 67.43.69 10.64 1.48 21.3 2.69 31.9a812 812 0 0 0-33.58-85c-9.13-19.63-18.53-39.59-30.13-57.88-11.42-18-27.78-31.57-41.9-47.32-16.65-18.58-31.4-38.74-46.11-58.86-.85-1.16-2.82 0-2 1.15 12.64 17.28 25.3 34.59 39.16 50.93q10.33 12.18 21.64 23.46c7.77 7.75 15.67 15.4 22.14 24.31C420 250 429.24 270 438.4 289.16q14.5 30.39 26.42 61.92 8.08 21.39 14.94 43.21a242 242 0 0 0 5.93 28.55 1.13 1.13 0 0 0 2.18-.6q-.81-3-1.53-5.92c.41 1.46.83 2.91 1.24 4.37a1.14 1.14 0 1 0 2.19-.6m4-1c-5.51-15.32-6.66-31.56-7.06-47.72s-.54-32.13-1.05-48.19c-1-31.28-3.09-62.65-8.89-93.45a326.4 326.4 0 0 0-14.23-52.21c-.5-1.36-2.69-.77-2.18.6 22.33 60.71 22.73 126 24 189.83.35 17.48 1.24 35.16 7.21 51.76.52 1.29 2.71.79 2.22-.64Zm90.46-163.3a266.2 266.2 0 0 1-36.47 70.36c-13.65 19.05-28.9 37.32-39.19 58.52a105.5 105.5 0 0 0-10.1 32.74c-.45-3.37-.86-6.74-1.21-10.12a294 294 0 0 1 28-90.77c7.42-15.17 14.8-30.27 20.64-46.15a335 335 0 0 0 13.82-48.76 338.3 338.3 0 0 0 6.56-56.84 1.14 1.14 0 0 0-2.27 0A334.4 334.4 0 0 1 544.9 266.5c-11.55 32.45-30 61.78-40 94.83a280 280 0 0 0-8.44 36.4c-4.16-52.14 2-104.62 8.11-156.43.18-1.44-2.09-1.43-2.26 0-6.51 55-12.93 110.58-7.24 165.82-.45 3.49-.85 7-1.18 10.49-.13 1.46 2.13 1.45 2.27 0l.06-.58c.21 1.62.43 3.24.66 4.85.19 1.35 2.11.9 2.2-.33a1.21 1.21 0 0 0 1.39-1s0 0 0-.07c2.24-23.72 14.33-44.55 27.78-63.66 14-19.9 29.35-38.7 40.9-60.21a257.6 257.6 0 0 0 17.32-40.18c.43-1.43-1.76-2.04-2.22-.66ZM480.38 430.94h-.12a409.7 409.7 0 0 1-128-24.46c-37.88-13.63-74.32-31.26-113-42.66C218 357.57 196.2 353.41 174 353a1.13 1.13 0 1 0 0 2.26c40.75.81 79.47 14.5 116.91 29.47 38.44 15.38 76.38 31.59 117.09 40.11a405.5 405.5 0 0 0 71.67 8.38 4.1 4.1 0 0 1 .71-2.28m5 8.95a6.7 6.7 0 0 1-2.17-1l-29.21 8.2c-31.56 4-64.32-6.84-94.67-15-40.92-11-82.94-16.88-124.84-22.71-22-3.07-44.67-5.82-66.33.68a1.13 1.13 0 1 0 .6 2.18c20.8-6.24 42.59-3.8 63.72-.87s42.42 5.9 63.52 9.5 42.06 7.86 62.73 13.41c19.92 5.34 39.69 11.6 60.18 14.4a143.6 143.6 0 0 0 24.43 1.37l-5.58 1.57c-17 4.74-34.19 9.38-51.87 10.41-32.1 1.87-62.58-9.84-93.16-17.7-16.81-4.31-34-7.48-51.39-6.81-1.45.06-1.46 2.33 0 2.27 32.33-1.24 62.82 10.8 93.7 18.48 15 3.73 30.33 6.5 45.81 6.22 17.19-.31 34-4.27 50.55-8.76q12.09-3.3 24.16-6.7a94.7 94.7 0 0 0 25.25-7 .9.9 0 0 0 .27-.16l6.15-1.73a8.7 8.7 0 0 1-1.83-.25Zm5.92 4.23c-.5 1-1 1.95-1.57 2.91.67-1.89 1.29-3.8 1.83-5.75a1.1 1.1 0 0 0-.76-1.36h-.24l-.56.08a1 1 0 0 0-.57.7 77.4 77.4 0 0 1-8.3 19.23c-9.14 11.66-20.48 21.58-31.7 31.29-16.83 14.56-32.71 29.85-46.62 47.28a316 316 0 0 0-22.06 31.37c-.76 1.25 1.2 2.38 2 1.14a311.4 311.4 0 0 1 43-54.89c12.18-12.38 25.86-23.14 38.57-34.94a278 278 0 0 0-18.4 21.58A219.2 219.2 0 0 0 413 567c-.44 1.4 1.75 2 2.19.61a217 217 0 0 1 34.5-66.15c7.67-10 16.69-18.67 24.83-28.24a86 86 0 0 0 8.73-12.22 100 100 0 0 0 10.1-15.71c.59-1.29-1.35-2.47-2.03-1.17Zm120.83 3.26a190.4 190.4 0 0 1-119-6.61c-1.33-.52-1.92 1.57-.67 2.15a.9.9 0 0 0 .19.19c5.56 4.5 8 11.69 10.91 18 3.28 7.15 6.52 14.31 9.62 21.54a327.4 327.4 0 0 1 16.11 45.4 1.13 1.13 0 0 0 2.18-.55 330 330 0 0 0-16.3-46c-3.2-7.45-6.54-14.83-9.92-22.19-2.26-4.92-4.29-10.25-7.7-14.5a192.54 192.54 0 0 0 115.19 4.74 1.13 1.13 0 0 0-.61-2.17M629 427.11a342.6 342.6 0 0 1-126.53 11.68c-1.45-.14-1.44 2.13 0 2.27a344.3 344.3 0 0 0 127.15-11.76 1.14 1.14 0 0 0-.6-2.19Zm-17-41.44a856 856 0 0 1-103.94 46.11 5.36 5.36 0 0 1-2.21 2.47 6.1 6.1 0 0 1-1.86 1.37l-.26.14 5.41-2a1 1 0 0 0 .44.21c5.06 1.14 9.55-.55 14.2-2.48a82 82 0 0 1 16-4.8c11.32-2.16 22.89-2.82 33.87-6.53 1.38-.46.79-2.65-.6-2.19-10.12 3.42-20.74 4.27-31.21 6.06a84 84 0 0 0-15 3.79c-4.29 1.6-8.55 4-13.12 4.25a862 862 0 0 0 99.43-44.47c1.34-.6.17-2.6-1.15-1.93m-108.32 39.18c3.08-21.2 19.7-38.28 33-53.93q22.34-26.25 46.6-50.79c1-1-.58-2.65-1.6-1.61q-25.74 26.07-49.39 54.08c-12.74 15.11-27.49 31.16-30.77 51.32a4.9 4.9 0 0 1 2.16.93M633.77 294c-20.25 37.73-50.22 68.64-82.9 95.87a321.7 321.7 0 0 0 59.62-84.26 317 317 0 0 0 17.4-43.46c.44-1.4-1.75-2-2.19-.61a319.23 319.23 0 0 1-86.55 136.64q-5.65 5.31-11.66 10.29c-7.61 5.82-15.31 11.51-23 17.15a4 4 0 0 1 .55.25 2.56 2.56 0 0 1 2.52.84q10.83-7.65 21-16.18c30.85-23.53 60.36-49.07 84.1-79.87a258.4 258.4 0 0 0 23.1-35.51c.66-1.34-1.27-2.48-1.99-1.15m-20.91 61.26a366 366 0 0 1-52.37 41.09Q547 405 532.76 412.52c-8.63 4.55-17.52 8.79-24.49 15.75a3 3 0 0 1 .06.4 4.46 4.46 0 0 1 0 2.35 1 1 0 0 0 .72-.34c7.44-7.8 17.3-12.18 26.63-17.18q14.46-7.71 28.2-16.73a371 371 0 0 0 50.59-40c1.02-.95-.54-2.56-1.61-1.56Zm-274.69 208a19.6 19.6 0 0 1 7.05 1.28c5 1.92 9.13 5.94 12.74 12.29 1.36 2.37 2.61 4.78 3.82 7.1 3.33 6.42 6.48 12.49 11.67 17.23 13.26 12.16 33.14 16.26 49.48 10.21 15.79-5.85 26-20.33 35.82-34.34l1.28-1.82c12-17 24.59-32.24 46.37-32.7 4.71-.1 9.35.18 13.84.44 8 .47 15.57.92 23.16-.65a65.5 65.5 0 0 0 26.7-12.5 63.74 63.74 0 0 0 18.55-23.05c1.31-2.76 2.46-5.57 3.69-8.54 2.53-6.13 5.14-12.47 9.09-18.21v-.05c.29-.44.62-.93 1-1.4 5.78-9 17.37-10.37 25.95-11.29 1.58-.36 3.16-.68 4.72-1l2.67-.55c8.17-1.71 16.56-3.86 21.71-9.6s6.25-14.05 7.32-22.72c.35-2.86.71-5.82 1.24-8.68A248 248 0 0 1 677 385.74c9.15-25.24 20.17-49.21 32.57-75.69 3-6.34 6.22-12.63 9.37-18.71 2.92-5.65 5.94-11.5 8.69-17.3 5.26-11.2 6.67-22.24 4.3-33.73-2.22-10.87-7.36-22.61-14.47-33.05-5.9-8.68-13.82-15.3-24.21-20.24-2.12-1-4.36-2-6.53-3-8.38-3.69-17-7.52-24-14.39-8.52-8.51-12.63-19.81-15-27.56-1.61-5.32-2.95-10.76-4.23-16-1.2-4.86-2.43-9.88-3.86-14.7l-.35-1.17c-2.34-7.89-5.53-18.69-12.06-22.77l-1.42-.89-.49-1.6a.2.2 0 0 0-.06-.1A338 338 0 0 1 595.05 46l-2.29 1.11-2.2-1.45-.75-.47c-.47-.22-1.08-.07-3.25 1-6.53 3.29-12 9.73-14.95 17.67a32.65 32.65 0 0 0-.1 23.16c1 2.52 3 5.19 5.16 8 4.3 5.72 9.66 12.83 7.34 21.84a19 19 0 0 1-6.13 9.86l-3 2.54-2.88-2.57A706.5 706.5 0 0 0 404 15.73c-17.6-8.28-33.31-12.86-49.37-14.41C346 .47 337.22.27 328.22.13h-1.76C318 0 309.25-.19 300.81.8c-15.29 1.8-30.07 7.74-44.37 13.5L250 16.9l-54 21.3-5 2c-2.77 1.09-5.54 2.17-8.3 3.29-3.22 1.29-6.25 2.51-8.33 4.65-1.52 1.57-2.44 3.71-3.51 6.18-.2.46-.4.92-.61 1.38v.12a39.8 39.8 0 0 1-8 11.19c-10.41 10.6-23.28 21-40.44 32.51-7.13 4.81-14.55 9.39-22 13.61l-.72.41c-6.38 3.61-12.41 7-17.65 11.54A36.73 36.73 0 0 0 70.65 141a95.5 95.5 0 0 0-3 11.85c-.53 2.52-1.08 5.12-1.74 7.7-1.56 6-4.29 13.55-11.7 19.23-5.75 4.41-9.95 8-11.66 14.34a56 56 0 0 0-1.45 10.27 71 71 0 0 1-1.41 10.58c-1.74 7.43-6.39 12.05-10.89 16.51l-1.46 1.45c-5.4 5.4-7.83 9.92-8.16 15.11a37.3 37.3 0 0 0 .88 8.35c.18 1 .36 2.05.52 3.08a31.2 31.2 0 0 1-1.18 15c-1.12 3.44-2.53 6.72-3.88 9.89a76 76 0 0 0-4.7 13.12 168 168 0 0 0-3 21.18c-.17 1.68-.33 3.36-.5 5l-5.85 56c-1.78 17.65-2.94 34.79 2.42 50.28 4.85 14 14 24.3 26.41 29.82 8.29 3.65 15.63 7.35 21.32 15.54 5 7.12 8.71 15 12.34 22.66l.2.41c3.21 6.77 6.31 14 9.19 21.48l.64 1.66-.53 1.29c11.23 16.33 27.78 30.43 49.19 41.89 18.66 10 40.51 18.56 66.8 26.26 28.95 8.47 53.71 10.56 75.71 6.38a94.5 94.5 0 0 0 32.07-12.14c3.53-2.17 6.9-4.68 10.47-7.34 6.1-4.54 12.41-9.24 19.8-12.27a28 28 0 0 1 10.67-2.38ZM638 122.4c2.29 9.21 4.28 18.51 7.59 27.4a67.7 67.7 0 0 0 11.16 20 51.3 51.3 0 0 0 13.38 11.08l-.18.28c-9.66 19.22-2.33 40.54-2 60.82.18 12.41-2.39 24.62-5.46 36.58a297 297 0 0 1-9.09 29.64c-.34.93-.7 1.85-1.06 2.78l-.08.06a35 35 0 0 1-2.16 5.47c-7.15 17-16.71 33.06-29.77 46.26-14.69 14.85-32.74 25.87-51.47 34.84-19.11 9.15-39.71 15.72-57 28.14l-.3-.43c26.3-33.22 59.18-61.09 82.1-97a172.7 172.7 0 0 0 17.87-37.21l.11-.06c.3-1 .61-2.07.86-3.13a2 2 0 0 1 .3-.7 181 181 0 0 0 5.73-23.17c4.55-25.92 3.43-52.51 9.78-78.15 3.49-14.06 7.8-27.81 9.13-42.3a186 186 0 0 0 .56-21.24Zm-37.63-60.9q7.44 10 15.57 19.58l-2.24.13c-4.1.24-9 .63-11.32-3.47-2.58-4.58-2.11-10.66-2.01-16.24m12.77 28.8c3.53-.19 7.85-1 11.14.68 3.78 2 5.66 7 7.23 10.76.71 1.7 1.36 3.41 2 5.14a266 266 0 0 1 .49 30.92c-.72 13.27-3.78 25.89-7.21 38.67a231 231 0 0 0-7 37.61c-1.25 12.8-1.77 25.68-3.38 38.45a197 197 0 0 1-5.08 26.19c-2.49-24.69-4.75-49.42-5.15-74.24-.23-13.86.49-27.66 1-41.5a256 256 0 0 0-1.86-41.62c-1.43-11.31-3.43-22.53-5.58-33.72 3.8 2.36 8.58 2.93 13.4 2.66m-24 22.26c.2-10.51-7.84-16.44-12.39-25-6.8-12.69-.78-31 12-37.45 3.08 3.15 2.7 8.78 2.75 13 .06 6.27-.23 13.21 2.87 18.89.19.35.4.67.6 1 4.88 25 9.21 50 8.55 75.58-.35 13.82-1.3 27.6-1.2 41.43s.82 27.89 1.86 41.8c1.16 15.5 2.73 31 4.31 46.42a164.5 164.5 0 0 1-15 33.14c-11.16 18.67-25.4 35.22-40 51.22-15.17 16.58-30.84 32.72-44.81 50.33a16 16 0 0 0-6.9-1.54c4.09-20.39 11.69-39.79 20.31-58.66 9-19.8 18.73-39.31 28.17-58.92 9.23-19.3 19.23-38.54 26.87-58.62a198 198 0 0 0 13.14-61.35c.83-18-1.59-36.8-11-52.32a24.14 24.14 0 0 0 9.85-18.95Zm-37.31 2.78q8.79 7.32 17.34 14.94a17.7 17.7 0 0 1 4.18 1.84 1.83 1.83 0 0 1 1.47.42 2.2 2.2 0 0 1 .78.5l.25.25.11.13v.07a1.9 1.9 0 0 1 .33.58c8.23 14 10.67 30.5 10.26 46.68a190.7 190.7 0 0 1-12.06 60.75c-7.47 20.29-17.55 39.61-26.91 59.07-9.25 19.21-18.69 38.34-27.64 57.7-9.38 20.3-17.8 41.23-22.07 63.23-1 .1-1.92.24-2.86.4a6 6 0 0 1 .1-.71c.37-4 .06-8.23.16-12.28.37-15.33 1.49-30.65 3.35-45.87 3.8-31.17 12.68-61.36 16.9-92.43a188.7 188.7 0 0 0 1.81-30.79 15.8 15.8 0 0 1 0-6.92 2 2 0 0 1 0-.49c.28-2.51 1.41-4.52 2.11-6.88.39-1.32.48-2.68.93-4a1.3 1.3 0 0 1 .13-.37q7.59-61.16 10.17-122.75 10.73 8.28 21.14 16.93Zm-124.5-83q22 11.52 43.18 24.55 29.17 18 56.53 38.7-2.6 65.25-10.82 130A102 102 0 0 0 506 192.07c-6.69-12.91-16-24.08-22.21-37.31-3.13-6.68-6-13.51-9.31-20.09A206 206 0 0 0 463 115.59a255.9 255.9 0 0 1-35.74-83.34ZM363.85 7.06a113.6 113.6 0 0 1 16.08 3.73c14.89 4.7 29.08 12 42.94 19.25a251.1 251.1 0 0 0 26.56 70.76c6.51 11.6 14.6 22.25 20.8 34s10.67 24.56 17.76 36c7.2 11.6 15.36 22.18 19.81 35.27a118.7 118.7 0 0 1 5.86 37.76c.14 27.92-7.37 55-12.84 82.2q-4.72 23.49-7.13 47.36-1.17 11.82-1.76 23.67-.31 6.3-.45 12.61c-.05 2-.08 4-.1 5.93v2.23c0 .05 0 1.08.08 2.25a1.77 1.77 0 0 0-1.16.47c-6.34-32.57-12.54-65.17-19.08-97.7-3.27-16.29-7.13-32.4-12.71-48.07a428 428 0 0 0-18.66-43.5c-7-14.38-14.15-28.79-21.94-42.75q-2.3-4.12-4.83-8c-1.74-23.81-5-47.58-11.37-70.63a248.5 248.5 0 0 0-11.78-33.52C385.24 65.66 379.49 55.5 374.49 45A131 131 0 0 1 367 26.32a80 80 0 0 1-2.25-9.26c-.34-1.46-1.75-7.63-.9-10m-88.6 4.86c8.12-2.92 16.49-5.47 25.08-6.52 9.27-1.14 18.66-.85 28-.71a276 276 0 0 1 32 1.86c-1 6.18 2.11 18 2.75 20.17 3.49 11.78 9.29 22.78 14.92 33.63a272 272 0 0 1 25.76 75.38 383 383 0 0 1 5.07 38.63 110.5 110.5 0 0 0-17.49-18.74c-20.12-17-44.63-28.25-63.53-46.76C315 96.34 306.77 80.38 298 65l-28.8-50.85c2-.74 4-1.48 6-2.2Zm-9.56 3.58a1.7 1.7 0 0 0 .17.39L291.43 61c7.84 13.84 15.11 28.37 25 40.91 16.44 20.86 40.63 33.06 61.79 48.32 11.12 8 21.48 17.16 29.27 28.53.64.94 1.27 1.88 1.88 2.82v.26a1.85 1.85 0 0 0 1.22 1.64c7.46 11.82 13.45 24.7 19.74 37.13 14.9 29.45 27.72 59.4 34.83 91.74 8 36.52 14.55 73.41 21.67 110.12-18.63-21.87-29.46-48.79-40.59-74.94-5.69-13.36-11.52-26.69-18.62-39.37-7.8-14-17.3-26.81-27.16-39.35-10.64-13.55-21.5-26.93-32.27-40.38-7-8.71-13.94-17.44-22.06-25l.15-.14a4.8 4.8 0 0 1-.82-.8c-1.16-1.41-2.1-3-3.23-4.51a31.7 31.7 0 0 1-2.69-4.75 13 13 0 0 0-.82-1.27c-13.83-16.95-23.87-36.64-34.55-55.68a348 348 0 0 0-20.78-32.9c-8.44-11.74-16-23.6-21.48-37.05-5.79-14.27-9.75-29.2-13.68-44.07 5.77-2.26 11.62-4.59 17.46-6.76m-95.44 49.12c2.43-3.26 3.81-6.81 5.61-10.4 1.7-3.39 4.22-4.82 7.65-6.21 4.65-1.88 9.33-3.69 14-5.53l25.2-10c7.33-2.9 14.65-5.87 22-8.82 3.49 13.22 7 26.47 11.86 39.28a163.1 163.1 0 0 0 19.83 37.11c7.93 11.17 15.56 22.33 22.35 34.24 6.44 11.31 12.48 22.84 19.14 34a208.4 208.4 0 0 0 19.17 27.53l-1.3-.94c-12.84-9-27.41-15.09-40.66-23.4-14.36-9-27.57-19.67-40.85-30.15l-45.52-35.83c-14.6-11.5-29.59-22.72-42.92-35.74a54 54 0 0 0 4.44-5.14m-7.11 7.82c11.74 11.47 24.8 21.47 37.67 31.62l40.84 32.19c13 10.26 25.87 20.78 39.38 30.4 12.91 9.18 26.81 16.24 40.58 24A117 117 0 0 1 341.3 204a147 147 0 0 1 16.34 17.31c10.92 13.23 21.49 26.77 32.21 40.17s21.31 26.73 30.25 41.29c7.68 12.52 13.89 25.84 19.72 39.29 11.74 27.06 22.32 55.15 40.63 78.52-11.92-5.3-22.2-14.24-32.36-22.2Q429 383.5 410.35 368.06q-37.64-31.05-73.61-64-17.87-16.35-35.25-33.17c-4.69-4.53-9.34-9.1-14.07-13.6a1 1 0 0 0 .05-.11 16 16 0 0 1-1-1.42c-.87-1.3-2-2.44-2.74-3.81-.1-.17-.19-.36-.28-.54-10-10.23-20-20.39-29.65-30.84A117 117 0 0 1 239.32 202a211 211 0 0 1-10.22-20 226 226 0 0 0-21.16-36.46c-8-11.12-16.75-21.69-25.09-32.57-8.85-11.65-17.28-23.68-23.75-36.82 1.36-1.22 2.71-2.45 4.04-3.71m-78.76 56c5.41-4.79 12-8.17 18.21-11.71a328.6 328.6 0 0 0 41.9-28.23q6-4.71 11.73-9.74c12 24.13 30.4 44.13 46.3 65.68a216 216 0 0 1 21.62 35.82c6.38 13.45 12.63 26.49 22.42 37.87 6 7 12.34 13.66 18.77 20.28-12.37-9-26.19-15.68-39.87-22.49l-46-22.92-104-51.85a32.8 32.8 0 0 1 8.89-12.73ZM46.24 198.5a20.1 20.1 0 0 1 3.31-8.9c2.46-3.24 6.26-5.25 9.34-7.81 10.79-9 11.58-23.15 15-35.77.11-.43.23-.85.36-1.27l92.47 46.09 46.65 23.25c14.7 7.33 29.88 14.16 43.67 23.14 13.18 8.57 24.47 19.58 35.7 30.49q17.58 17.07 35.56 33.71 36.09 33.33 73.89 64.77 21.07 17.55 42.66 34.45c9.43 7.39 18.93 15.55 29.62 21.22-27-7.79-52-21.14-75.75-36.06-29.68-18.63-58.32-39-87.34-58.6-13.19-8.92-26.5-17.71-40.47-25.38-22-16.21-44.48-31.8-68.24-45.33-31.08-17.71-64.1-30.49-98.61-39.74-19.32-5.19-38.86-9.48-58.41-13.76.15-1.5.35-3 .59-4.5M32 234.7c4.74-4.64 9.13-9.3 11.27-15.72a51.5 51.5 0 0 0 2-12.15c34.34 7.46 68.8 15.11 101.76 27.49 33.16 12.45 63.88 30.3 93.06 50.22 3.47 2.37 6.91 4.77 10.35 7.19-9.91-4.39-20.06-8.23-30.31-11.71-33.86-11.46-68.69-20.31-103.07-30-29.54-8.36-67.84-17.18-92.6 6.07-.21-1.2-.41-2.4-.56-3.61-1-8 2.7-12.51 8.1-17.79ZM23.67 276a33.2 33.2 0 0 0 2-11.07 35 35 0 0 0-.36-4.31c22.58-23.26 58.71-16 86.66-8.16 33.77 9.47 67.84 18.39 101.21 29.23a336 336 0 0 1 48 19.23c2.67 1.35 5.3 2.76 7.92 4.2l3.21 2.38a61 61 0 0 1 9.25 4.89 71 71 0 0 1 9 5.85 1.1 1.1 0 0 1 .08-.26c4.78 3.05 9.52 6.18 14.22 9.34 28.83 19.34 57.19 39.44 86.4 58.19 28 17.95 57.62 34.17 90.06 42.1a23 23 0 0 0-1.75 1.49h-.21c-34.17 1.22-66.63-14.23-97.5-27-16.52-6.82-32.91-14-48.72-22.37-13.78-7.21-27.05-15.21-40.54-22.8-21.09-11.87-42.86-22.56-66.32-27.83-50.58-26.6-106.4-47.1-164.38-42.6a185.8 185.8 0 0 0-46 9.39c2-6.87 5.43-13.12 7.77-19.92ZM8.79 353.42l2.85-27.32c.9-8.6 1.47-17.35 3.23-25.83 56.36-20.18 117.72-9 171.46 13.83 9.25 3.93 18.34 8.2 27.31 12.7-2.09-.28-4.19-.51-6.32-.7-8.79-.76-17.62-.94-26.42-1.45a273 273 0 0 1-27.62-3.22c-16.53-2.68-33.12-5.7-49.94-4.31-17.09 1.38-33.57 6.55-49.24 13.38-8.23 3.57-16.26 7.59-24.16 11.83q-6.23 3.35-12.38 6.84-2.92 1.65-5.83 3.32l-2.32 1.33-.71.4Zm-.58 5.28.52-.21c3.9-1.69 7.61-4.32 11.32-6.42 15.05-8.48 30.44-16.65 46.64-22.57s33.57-9.58 51.08-8.82c18.54.81 36.61 5.53 55.06 7.21 17.15 1.56 34.4 1.07 51.32 4.49a13.3 13.3 0 0 1 4 .7 46 46 0 0 1 7.51 2.18 224.8 224.8 0 0 1 38.66 16.07c14.52 7.49 28.52 15.92 42.75 24a503 503 0 0 0 47.84 23.79c18.52 8 37.25 15.88 56.24 22.73 17.88 6.46 36.5 11.35 55.62 11.12-.9 2.34-.41 4.86 2.65 7.31l.37.27a278.4 278.4 0 0 1-96-8.14c-32.31-8.53-64.19-19-96.2-28.59l-97.47-29.32c-15.87-4.76-31.68-9.73-47.63-14.22-14.84-4.17-29.89-7.06-45.37-6.54-32.22 1.11-62.46 14-91.43 27.27.73-7.51 1.67-14.92 2.52-22.31m457.07 86.45c-22.86 2.59-46.09.88-68.94-1.86-31.14-3.75-62.2-8.33-93.28-12.55l-46.19-6.24c-14.73-2-29.48-4.25-44.36-4.75-5.55-.18-11.1-.06-16.64.2l-.35-.07a416.8 416.8 0 0 0-141.35 10.4q-14.41 3.6-28.52 8.25c16.47-14 33.62-27.48 53-37.31a131.6 131.6 0 0 1 35.74-12.37c14.27-2.63 28.88-2.74 43.35-3.1l49.75-1.25a1.86 1.86 0 0 0 1.21-.48l70.63 21.2c31.62 9.49 63.16 19.37 94.91 28.41a293.7 293.7 0 0 0 91 11.52Zm-450.09-3c-7.08-9.78-10-22.22-10.53-34.21a179.5 179.5 0 0 1 .65-22.6c27-12.42 55.09-24.78 85-27.38 32.29-2.81 63.32 9.56 93.74 18.69l14.44 4.29-37 .93c-14.41.37-28.89.43-43.18 2.52-25.76 3.76-48.94 16-69.82 31.11-11.26 8.19-21.92 17.16-32.44 26.29Zm26.3 17.67c-7-3.78-14.71-5.84-20.7-11.35a39 39 0 0 1-3-3.14l.25-.22a414 414 0 0 1 137.53-23.48c4.14 0 8.28.08 12.41.21l-2.08.13c-14.65.87-29.58-.33-44.08 2.38-27.82 5.21-49.82 25.13-70 43.79a38.3 38.3 0 0 0-10.33-8.32m27.1 36.68a187 187 0 0 0-11.1-20.7 53 53 0 0 0-3.28-4.75c18.45-17.13 38.23-35.29 63.2-41.85 14.36-3.77 29.31-2.55 44-3.21 15.32-.7 30.59-2.65 46-2.59s30.42 2.25 45.52 4.3l46.14 6.3c30 4.07 60 8.33 90.07 12.19 32.39 4.16 65.54 6.82 97.6-1q-1.8 1.95-3.7 3.78c-15.67 9.71-34.31 14.45-52.44 17.57-29.57 5.09-59.61 7.21-89.55 8.78l-7.88.4c-38.78-8.4-75.65-25.14-115.5-28.48a203.2 203.2 0 0 0-101.92 18.47 198.8 198.8 0 0 0-47.16 30.79m27.78 44.57c-.06.08-.12.15-.17.23-2.89-2.5-5.68-5.14-8.33-7.93a105 105 0 0 1-8.23-9.87 1 1 0 0 0-.1-.33c-2.85-7.71-5.91-15.5-9.31-23.13a199.25 199.25 0 0 1 142.62-49.37c19.13 1.12 37.79 5.52 56.15 10.83 16.9 4.89 33.61 10.46 50.63 14.86-22.91 1.06-45.82 2-68.69 3.8-28.81 2.25-58.26 5.2-86.19 13-27.07 7.52-53.47 21.73-68.14 46.6a1.7 1.7 0 0 0-.24 1.26Zm39.22 25c-12.92-6.07-25.42-13.26-36.47-22.26.44-.71.9-1.4 1.4-2.07a1.58 1.58 0 0 0 .19-1.4c13.83-22.42 37.78-35.58 62.39-42.84 28.14-8.25 58-11.23 87.1-13.52 27.51-2.17 55.13-3.13 82.72-4.48l1 .21a1.87 1.87 0 0 0 1.55-.33c31-1.55 61.95-3.66 92.64-8.63 13.61-2.2 27.55-5.23 40.48-10.38-12.6 8.36-26.75 14.74-39.93 21.79-2.25 1.19-4.47 2.43-6.68 3.69a1.92 1.92 0 0 0-1.59 0q-9.63 4.5-19.42 8.7c-39.52 5.64-79.08 7.81-119 8.75-18.12.42-35.91 2.34-53.33 7.52a211.3 211.3 0 0 0-46.2 20.34A288.5 288.5 0 0 0 136 565.49a1.7 1.7 0 0 0-.36.48Zm62.84 22.73a362 362 0 0 1-54.94-19.25l-4.26-1.89c25.44-22.67 54.72-41.89 87.4-52.21 17.32-5.47 35-7.75 53.11-8.25 19.74-.55 39.43-.81 59.13-2.17q24.38-1.69 48.61-4.8-28.16 11.43-57.31 20.27l-.28.09c-2.45.74-4.9 1.47-7.37 2.19-30.88 9-63.43 15.33-90.93 32.89-13.28 8.49-25 19.4-33.13 33Zm42.14 5.86-.17.28a150 150 0 0 1-24.75-2.42c-4.46-.79-8.92-1.73-13.37-2.78 15.89-25.69 43.91-40 71.79-49.1C287 536.4 300.2 533 313.32 529.4a239.1 239.1 0 0 0-72.75 65.16Zm99.45-36C321.34 557 304.3 576.79 289 584.6c-13.6 6.92-28.69 9.94-43.9 10.28a235.2 235.2 0 0 1 86-70.66q19.83-6 39.28-13.23 16-5.94 31.63-12.67l.39-.06a263.7 263.7 0 0 0-62.4 60.4Zm101.09 34.07a92 92 0 0 1-5 5.09 43.68 43.68 0 0 1-50.42 6.31c-8.82-4.69-14.6-11.68-19-20.5s-8.85-18.53-18.44-22.81a27 27 0 0 0-4-1.43 260.9 260.9 0 0 1 85.85-73.6c11-6 22.39-11.29 33.18-17.68A122.2 122.2 0 0 0 485 452.22c1.39-.86 2.75-1.76 4.1-2.7a846.3 846.3 0 0 0-48 143.15Zm47.08-150.12h.81c-.22.26-.44.53-.67.79a2.4 2.4 0 0 0-.14-.79m4.07 97.46c-.73.23-1.45.49-2.18.77-8.13 3.13-15 8.57-20.83 15-8.48 9.34-14.95 20.35-22.67 30.3a843 843 0 0 1 46-135.21 732 732 0 0 0-.32 89.14M494 438.5v.06c-1.57.14-3.17.19-4.76.21-2.71 0-7.13.19-8.57-2.75-1.58-3.21 2.22-5.53 4.79-6.9 4-2.92 9.93-4.05 14.58-4.08a14.5 14.5 0 0 1 5.74 1l.33.1a3.59 3.59 0 0 1 2.31 3.47 1.86 1.86 0 0 1-.15 1.53 14.9 14.9 0 0 1-6.09 5.26 15.7 15.7 0 0 1-6.27 1.91 2.5 2.5 0 0 1-.72.13h-1.13Zm32.93 100.43c-10.36-.41-20.83-2-31 .17a734 734 0 0 1 .7-92.38 243.5 243.5 0 0 1 60.61 82.93 23 23 0 0 0 .68 2.44 62.8 62.8 0 0 1-30.98 6.84ZM581 511.08a58.45 58.45 0 0 1-19.7 19.14 20 20 0 0 1-.5-2 1.5 1.5 0 0 0-.43-.78 246.1 246.1 0 0 0-52.12-75c2.62 1.35 5.31 2.56 8 3.73a174.16 174.16 0 0 0 87 14.19l1-.05c-11.97 10.01-14.89 27.51-23.25 40.77m79.57-81.15c-1.35 9.36-1.28 20.68-10.34 26.18-6.59 4-14.73 4.87-22.12 6.51a70 70 0 0 0-9.76 2.72 134 134 0 0 1-15.1 1v.09l-.16.05H603a172.1 172.1 0 0 1-56.4-4.08 169.5 169.5 0 0 1-27.16-9c-7.1-3.06-14.61-6.36-20.2-11.83a24 24 0 0 0 2.75-.79c14.09-4.07 28.81-3.89 43.35-4.83a347 347 0 0 0 41.66-5.23 349.3 349.3 0 0 0 78.76-24.82 199 199 0 0 0-5.16 24Zm8-33.82c-.54 1.68-1.06 3.38-1.56 5.07H667a345.5 345.5 0 0 1-82.4 26.14 343 343 0 0 1-43.45 5.09c-10.3.55-20.66.81-30.79 2.57a9.35 9.35 0 0 0 2.48-5.39c16.33-12.18 36.07-18.62 54.41-27.12 5.13-2.38 10.21-4.91 15.19-7.6a1.85 1.85 0 0 0 1.56-.09c30.81-15.54 62.88-31.48 97.85-33.62-4.85 11.49-9.42 23.08-13.2 34.95Zm51.93-118.27c-10 19.18-19.13 38.83-27.9 58.66-3.07 6.93-6.15 13.85-9.14 20.82-27 1.29-52.32 10.7-76.65 22.07q6-4.5 11.56-9.6c15.26-14 26.45-31.55 34.55-50.54.85-2 1.67-4 2.48-6a543.7 543.7 0 0 1 70.85-48.45 85 85 0 0 1-5.73 13Zm7.12-18.18a548 548 0 0 0-69.59 46.67 233.6 233.6 0 0 0 12.6-49.45c1.67-12.56.37-24.69-1-37.19-1.36-12.33-2.26-25.2 3.49-36.62a4 4 0 0 0 .14-.36c1.53.82 3.09 1.6 4.66 2.34 8.27 3.89 17.12 7 24.5 12.55s12.57 13.64 16.79 21.8c4.67 9 8.59 18.95 9.24 29.18a40.4 40.4 0 0 1-.81 11.08Z"/></svg>