<svg xmlns="http://www.w3.org/2000/svg" width="46" height="21" viewBox="0 0 46 21"><g fill="none" fill-rule="evenodd" transform="translate(1 1)"><rect width="44" height="18.75" stroke="#4a4a4a" stroke-width="1.026" rx="8.718"/><path fill="currentColor" fill-rule="nonzero" d="M31.617 5c.974 0 1.766.79 1.766 1.764v.73l2.13-1.643c.06-.06.183-.06.304 0 .122.061.183.122.183.244v6.81c0 .122-.06.183-.183.244-.121.06-.243.06-.304 0l-2.13-1.642v.73c0 .972-.792 1.763-1.766 1.763h-7.852C22.791 14 22 13.21 22 12.236V6.764C22 5.79 22.791 5 23.765 5Zm-5.27 2a.34.34 0 0 0-.347.333v3.334a.34.34 0 0 0 .348.333.35.35 0 0 0 .216-.078l2.773-1.661A.32.32 0 0 0 29.478 9a.33.33 0 0 0-.231-.31l-2.703-1.625A.35.35 0 0 0 26.348 7M16.065 5.09l-.509.773a4.19 4.19 0 0 1 1.527 3.244 4.19 4.19 0 0 1-1.527 3.245l.51.772A5.12 5.12 0 0 0 18 9.107a5.12 5.12 0 0 0-1.935-4.016m-1.021 1.55-.514.78a2.326 2.326 0 0 1 0 3.375l.514.78a3.26 3.26 0 0 0 1.123-2.468c0-.987-.437-1.87-1.123-2.467M12.5 4c-.54 0-.703.318-.703.318s-1.403 1.561-2.369 2.25a1.2 1.2 0 0 1-.718.218h-.793A.923.923 0 0 0 7 7.714V10.5c0 .513.41.929.917.929h.793c.345 0 .54.103.718.217.966.69 2.369 2.251 2.369 2.251s.164.317.703.317a.923.923 0 0 0 .917-.928V4.929A.923.923 0 0 0 12.5 4"/></svg>