<svg xmlns="http://www.w3.org/2000/svg" width="11" height="11" viewBox="0 0 11 11"><path fill="currentColor" fill-rule="nonzero" d="m9.065 1.09-.509.773a4.19 4.19 0 0 1 1.527 3.244 4.19 4.19 0 0 1-1.527 3.245l.51.772A5.12 5.12 0 0 0 11 5.107a5.12 5.12 0 0 0-1.935-4.016M8.044 2.64l-.514.78a2.326 2.326 0 0 1 0 3.375l.514.78a3.26 3.26 0 0 0 1.123-2.468c0-.987-.437-1.87-1.123-2.467M5.5 0c-.54 0-.703.318-.703.318s-1.403 1.561-2.369 2.25a1.2 1.2 0 0 1-.718.218H.917A.923.923 0 0 0 0 3.714V6.5c0 .513.41.929.917.929h.793c.345 0 .54.103.718.217.966.69 2.369 2.251 2.369 2.251s.164.317.703.317a.923.923 0 0 0 .917-.928V.929A.923.923 0 0 0 5.5 0"/></svg>