<svg xmlns="http://www.w3.org/2000/svg" width="33" height="23" fill="none" viewBox="0 0 33 23"><path fill="currentColor" stroke="#dcbd23" stroke-miterlimit="10" d="M25.104 15.903c-.14-.133.017-.17.083-.21.421-.26.827-.542 1.227-.833.84-.613 1.643-1.272 2.365-2.022.713-.74 1.352-1.536 1.847-2.44.411-.748.716-1.535.889-2.373.04-.196.078-.39.07-.626-.215.144-.412.276-.611.407-.908.594-1.855 1.116-2.871 1.506-.54.207-1.101.335-1.656.488q-.853.233-1.698.494c-.466.145-.923.32-1.388.467-.245.078-.406.268-.599.413-.654.49-1.352.902-2.13 1.169-.327.113-.661.2-1.014.175-.11-.008-.263-.138-.263-.138-.035-.11.052-.2.139-.262.31-.217.656-.365 1-.515q1.19-.515 2.422-.924c.2-.067.334-.22.474-.36.838-.837 1.498-1.796 1.935-2.895.285-.716.43-1.47.535-2.234.055-.403.046-.808.095-1.21.015-.125-.02-.255-.036-.411-.193.169-.373.31-.535.47-.64.635-1.328 1.216-2 1.816-.86.767-1.786 1.45-2.736 2.1a.7.7 0 0 0-.3.423c-.218.8-.632 1.502-1.163 2.138-.33.396-.686.762-1.143 1.016-.12.067-.246.131-.383.147-.468.056-.728-.363-.525-.843.156-.37.417-.662.697-.942.625-.626 1.324-1.165 2.05-1.664.336-.231.404-.502.335-.867-.084-.44-.265-.844-.463-1.24-.735-1.475-1.674-2.823-2.626-4.162-.123-.172-.261-.334-.384-.507-.072-.102-.123-.116-.212-.014a19.8 19.8 0 0 0-2.615 3.784c-.317.603-.606 1.218-.752 1.89-.047.21-.044.421-.05.634-.003.118.09.174.156.244.744.777 1.476 1.564 2.148 2.405.206.257.419.512.554.82.044.1.092.195-.005.29-.1.098-.206.058-.314.014a4.86 4.86 0 0 1-1.948-1.487c-.47-.588-.79-1.241-.822-2.009-.005-.12-.09-.186-.162-.261-1.242-1.285-2.647-2.383-4.046-3.488q-.318-.248-.636-.498c-.04-.031-.08-.08-.128-.061-.066.025-.04.097-.037.149.026.486.06.971.128 1.455.102.717.25 1.424.477 2.113.288.874.773 1.632 1.387 2.311.066.074.18.11.278.15.943.383 1.855.826 2.706 1.383.424.277.833.582 1.091 1.036.01.016.023.031.029.049.027.073.087.15.015.225-.068.07-.156.044-.231.015-.216-.083-.434-.166-.644-.264-1.23-.575-2.346-1.311-3.294-2.29-.192-.198-.488-.248-.742-.352A186 186 0 0 0 6.06 8.484c-.84-.328-1.687-.635-2.532-.952-.234-.087-.472-.169-.7-.27-.12-.052-.14-.035-.128.087.04.382.143.75.256 1.112q.475 1.515 1.296 2.878c.586.974 1.354 1.786 2.22 2.513.994.834 2.113 1.469 3.274 2.041.77.38 1.545.749 2.342 1.07.063.025.128.045.241.085-.193-.254-.373-.456-.5-.697a2 2 0 0 1-.24-.802c-.024-.342.14-.628.357-.88.42-.484.951-.83 1.501-1.143a19 19 0 0 1 2.707-1.257c.07-.026.135-.065.202-.1.25-.126.5-.04.716.06.319.147.655.24.974.381 1.145.51 2.305.99 3.271 1.814.216.184.408.394.523.655.19.425.062.805-.203 1.153-.369.485-.87.803-1.4 1.08a8.6 8.6 0 0 1-2.303.793c-1.04.208-2.075.159-3.107-.06-.282-.06-.564-.116-.883-.18.075.085.12.16.082.245-.04.09-.13.112-.216.133l-.531.123c-.03.007-.07.003-.073.043-.006.052.042.049.076.061.372.138.76.212 1.152.26 1.361.171 2.726.106 4.089.056.299-.01.602-.038.9-.08.162-.024.254.01.291.195.148.732-.093 1.355-.524 1.923-.512.676-1.228 1.083-1.963 1.474-.375.2-.707.1-1.047-.03-1.24-.473-2.135-1.323-2.727-2.498-.07-.14-.147-.276-.204-.42-.03-.076-.072-.185.042-.229.114-.043.143.06.178.141.43 1 1.068 1.828 2.01 2.407.36.221.747.376 1.15.499.175.054.327-.012.484-.087.759-.364 1.462-.8 1.963-1.494.318-.44.478-.93.43-1.477-.009-.104-.021-.174-.164-.16a29.5 29.5 0 0 1-3.882.098c-.643-.027-1.278-.086-1.903-.24-.109-.027-.225-.051-.32-.108-.524-.317-1.053-.095-1.581-.026-.955.126-1.912.184-2.877.155a12 12 0 0 1-1.76-.17 10.6 10.6 0 0 1-3.266-1.147 11.5 11.5 0 0 1-2.567-1.876q-.053-.053-.107-.106c-.051-.05-.102-.106-.066-.18.033-.067.107-.056.169-.046q.39.06.78.128c1.334.23 2.68.332 4.03.412.75.044 1.497.032 2.246.03.179-.002.323.043.467.146.967.7 2.013 1.263 3.083 1.788.27.133.544.256.814.39.065.031.131.058.198.038.27-.075.552-.102.858-.218-.319-.196-.589-.423-.9-.542a34 34 0 0 1-3.04-1.333c-.898-.446-1.78-.919-2.599-1.498-1.497-1.057-2.706-2.363-3.527-4.011a14 14 0 0 1-.958-2.432 9 9 0 0 1-.213-1.064c-.028-.18.06-.25.23-.186 1.29.48 2.584.955 3.864 1.464.946.376 1.896.741 2.873 1.158-.184-.268-.35-.497-.502-.735-.428-.671-.686-1.409-.871-2.179a13 13 0 0 1-.302-1.768c-.047-.453-.064-.91-.092-1.365-.005-.083-.001-.167.082-.216.089-.05.141.027.197.07a86 86 0 0 1 3.297 2.637c.54.456 1.05.943 1.553 1.44.028.027.043.088.1.067.041-.016.036-.062.038-.098.063-.791.406-1.488.754-2.18.704-1.395 1.615-2.653 2.609-3.855.087-.106.17-.215.26-.32.082-.096.156-.098.246.005.413.47.742 1.001 1.1 1.51a33 33 0 0 1 1.78 2.795c.32.566.608 1.147.784 1.776.053.192.06.393.056.635.267-.188.503-.356.742-.521 1.253-.87 2.37-1.9 3.5-2.917q.603-.548 1.205-1.097c.046-.041.092-.094.164-.061.072.032.063.1.064.163.01.58.023 1.159-.04 1.738-.163 1.501-.614 2.896-1.502 4.139a13 13 0 0 1-.956 1.164c.328-.103.607-.188.885-.279q1.17-.382 2.366-.68c1.07-.267 2.07-.71 3.022-1.266.58-.338 1.142-.699 1.684-1.093.055-.04.108-.102.183-.054.07.046.077.121.07.201a7.6 7.6 0 0 1-.465 2.055c-.356.971-.88 1.847-1.5 2.668-.603.797-1.34 1.469-2.096 2.118a22 22 0 0 1-2.4 1.768c-.091.056-.18.123-.298.064Zm-8.61 2.11c.51 0 .941-.059 1.366-.138a7.9 7.9 0 0 0 1.998-.643c.543-.262 1.07-.55 1.479-1.005.278-.31.455-.653.273-1.072-.111-.256-.316-.446-.53-.622-.775-.641-1.68-1.056-2.587-1.469-.371-.168-.767-.279-1.13-.459-.428-.212-.834-.256-1.286-.065-.79.336-1.576.676-2.33 1.087-.567.31-1.11.655-1.561 1.124-.307.317-.436.68-.303 1.114.074.24.178.468.336.664.302.375.604.753 1.102.89q.344.095.685.197c.836.244 1.695.35 2.488.397Zm-4.239.32c-.103-.109-.232-.143-.345-.198-1.177-.575-2.328-1.193-3.396-1.954a.33.33 0 0 0-.206-.07 37 37 0 0 1-4.592-.21c-.568-.065-1.136-.127-1.7-.226-.152-.027-.308-.04-.5-.064.253.267.511.47.773.67a11.5 11.5 0 0 0 2.362 1.41q1.368.596 2.848.806a12 12 0 0 0 1.88.106c.52-.007 1.041-.016 1.56-.085.433-.057.867-.108 1.316-.186Zm7.83-9.947c-.07.036-.1.047-.124.065-.674.495-1.346.995-1.944 1.583-.262.258-.512.53-.656.877-.06.144-.093.295.009.425.107.137.263.085.402.05a1 1 0 0 0 .363-.189c.735-.542 1.26-1.255 1.669-2.06.114-.224.222-.455.281-.75Zm-6.92-.136c.082 1.137 1.669 2.982 2.589 3.007-.757-1.111-1.674-2.058-2.59-3.007Zm-2.722 2.033c.527.625 2.55 1.885 3.148 1.952-.865-.94-2.02-1.425-3.148-1.952Zm9.29 1.988c1.014-.09 1.858-.57 2.663-1.14-.916.314-1.824.649-2.664 1.14Z"/><path fill="currentColor" d="M23.982 15.081c.022.077-.78.125-.828.154-.278.17-.61.27-.896.423-.818.438-1.642.864-2.544 1.106-.052.014-.116.027-.117.09 0 .056.06.068.104.088.274.124.563.196.858.245.977.163 1.96.178 2.946.11a9 9 0 0 0 1.378-.209 7 7 0 0 0 1.431-.517c.634-.303 1.254-.631 1.828-1.04.285-.202.552-.426.773-.7.015-.018.035-.034.028-.066-.438.074-.875.158-1.315.221-.994.144-1.99.266-2.998.249-.186-.003-.366-.05-.55-.053-.062-.001-.104-.032-.098-.1.006-.072.06-.084.117-.08.198.015.395.037.595.039.656.005 1.308-.037 1.96-.112.493-.057.98-.138 1.471-.204.317-.043.63-.114.944-.171.056-.011.123-.031.157.033.03.057-.004.114-.035.164-.186.309-.445.55-.726.765-.666.508-1.398.903-2.156 1.254a7 7 0 0 1-1.392.496 11 11 0 0 1-3.4.214c-.254-.021-.516-.012-.756-.093-.366-.123-.77-.073-1.118-.27-.122-.07-.282-.123-.27-.287.014-.17.18-.21.322-.25.505-.142.99-.337 1.46-.567a41 41 0 0 0 1.167-.587c.21-.11.527-.221.73-.345 1.578-.257.84-.034.93 0"/><path stroke="#dcbd23" stroke-miterlimit="10" d="M23.982 15.081c.022.077-.78.125-.828.154-.278.17-.61.27-.896.423-.818.438-1.642.864-2.544 1.106-.052.014-.116.027-.117.09 0 .056.06.068.104.088.274.124.563.196.858.245.977.163 1.96.178 2.946.11a9 9 0 0 0 1.378-.209 7 7 0 0 0 1.431-.517c.634-.303 1.254-.631 1.828-1.04.285-.202.552-.426.773-.7.015-.018.035-.034.028-.066-.438.074-.875.158-1.315.221-.994.144-1.99.266-2.998.249-.186-.003-.366-.05-.55-.053-.062-.001-.104-.032-.098-.1Zm0 0c.006-.071.06-.083.117-.079.198.015.395.037.595.039.656.005 1.308-.037 1.96-.112.493-.057.98-.138 1.471-.204.317-.043.63-.114.944-.171.056-.011.123-.031.157.033.03.057-.004.114-.035.164-.186.309-.445.55-.726.765-.666.508-1.398.903-2.156 1.254a7 7 0 0 1-1.392.496 11 11 0 0 1-3.4.214c-.254-.021-.516-.012-.756-.093-.366-.123-.77-.073-1.118-.27-.122-.07-.282-.123-.27-.287.014-.17.18-.21.322-.25.505-.142.99-.337 1.46-.567a41 41 0 0 0 1.167-.587c.21-.11.527-.221.73-.345 1.578-.257.84-.034.93 0Z"/></svg>